<svg width="516" height="311" viewBox="0 0 516 311" fill="none" xmlns="http://www.w3.org/2000/svg">
<g opacity="0.5">
<path d="M114.943 3.57168C114.943 1.87308 116.32 0.496094 118.019 0.496094H159.847C161.546 0.496094 162.923 1.87308 162.923 3.57168V6.56849H114.943V3.57168Z" fill="url(#paint0_radial_615_5267)"/>
<path d="M114.943 6.56836H162.923V52.9911C162.923 54.6898 161.546 56.0667 159.847 56.0667H118.019C116.32 56.0667 114.943 54.6898 114.943 52.9911V6.56836Z" fill="url(#paint1_linear_615_5267)"/>
<path fill-rule="evenodd" clip-rule="evenodd" d="M150.993 27.9721C151.344 27.6468 151.488 27.1461 151.318 26.7021C151.091 26.0878 150.817 25.4941 150.507 24.9314L150.265 24.5133C149.924 23.9454 149.542 23.4085 149.124 22.9C148.814 22.5309 148.313 22.4029 147.859 22.5484L144.984 23.4653C144.292 22.9315 143.481 22.4875 142.712 22.1504L142.067 19.2027C141.964 18.734 141.602 18.3617 141.127 18.2828C140.415 18.1636 139.682 18.1016 138.933 18.1016C138.185 18.1016 137.452 18.1636 136.739 18.2828C136.264 18.3617 135.903 18.734 135.8 19.2027L135.154 22.1504C134.339 22.4875 133.575 22.9315 132.883 23.4653L130.01 22.5484C129.553 22.4029 129.05 22.5309 128.744 22.9C128.326 23.4085 127.944 23.9454 127.602 24.5133L127.361 24.9314C127.048 25.4941 126.775 26.0878 126.547 26.7021C126.379 27.1512 126.52 27.6468 126.874 27.9721L129.108 30.006C129.051 30.4345 129.022 30.8733 129.022 31.3173C129.022 31.7613 129.051 32.2001 129.108 32.6285L126.874 34.6625C126.52 34.9878 126.379 35.4885 126.547 35.9325C126.775 36.5468 127.048 37.1405 127.361 37.7032L127.603 38.1213C127.944 38.6892 128.326 39.2261 128.744 39.7372C129.05 40.1037 129.553 40.2327 130.01 40.0882L132.883 39.1693C133.575 39.701 134.339 40.145 135.154 40.4857L135.8 43.4334C135.903 43.898 136.264 44.2284 136.739 44.3523C137.452 44.4711 138.185 44.533 138.887 44.533C139.682 44.533 140.415 44.4711 141.127 44.3523C141.602 44.2284 141.964 43.898 142.067 43.4334L142.712 40.4857C143.481 40.145 144.292 39.701 144.984 39.1693L147.859 40.0882C148.313 40.2327 148.814 40.1037 149.124 39.7372C149.542 39.2261 149.924 38.6892 150.265 38.1213L150.507 37.7032C150.817 37.1405 151.091 36.5468 151.318 35.9325C151.488 35.4885 151.344 34.9878 150.993 34.6625L148.757 32.6285C148.814 32.2001 148.845 31.7613 148.845 31.3173C148.845 30.8733 148.814 30.4345 148.757 30.006L150.993 27.9721ZM138.932 37.1547C142.156 37.1547 144.769 34.5413 144.769 31.3175C144.769 28.0937 142.156 25.4803 138.932 25.4803C135.708 25.4803 133.095 28.0937 133.095 31.3175C133.095 34.5413 135.708 37.1547 138.932 37.1547Z" fill="url(#paint2_linear_615_5267)"/>
<path d="M172.314 20.7852L171.949 15.3581H172.827L172.998 18.4837L173.068 19.7744H173.138L173.682 16.6099H174.631L175.175 19.7744H175.245L175.315 18.4837L175.486 15.3581H176.334L175.968 20.7852H174.654L174.172 17.714H174.11L173.628 20.7852H172.314ZM177.116 20.7852V15.3581H180.545V16.1978H178.135V17.6129H180.459V18.4526H178.135V19.9454H180.545V20.7852H177.116ZM181.755 15.3581H183.644C184.157 15.3581 184.551 15.4877 184.826 15.7468C185.106 16.0008 185.246 16.3481 185.246 16.7887C185.246 17.0997 185.168 17.3485 185.013 17.5351C184.862 17.7217 184.647 17.8565 184.367 17.9394V17.9783C184.694 18.0561 184.95 18.1986 185.137 18.406C185.329 18.6081 185.425 18.8958 185.425 19.269C185.425 19.4971 185.386 19.7044 185.308 19.891C185.235 20.0724 185.129 20.2305 184.989 20.3653C184.854 20.5001 184.689 20.6037 184.492 20.6763C184.3 20.7489 184.082 20.7852 183.838 20.7852H181.755V15.3581ZM183.527 20.0465C183.813 20.0465 184.025 19.9947 184.165 19.891C184.31 19.7822 184.383 19.5981 184.383 19.339V19.0824C184.383 18.8284 184.31 18.6496 184.165 18.5459C184.025 18.4371 183.813 18.3826 183.527 18.3826H182.75V20.0465H183.527ZM183.395 17.6751C183.67 17.6751 183.872 17.6258 184.002 17.5274C184.137 17.4289 184.204 17.2578 184.204 17.0142V16.7576C184.204 16.514 184.137 16.3429 184.002 16.2445C183.872 16.146 183.67 16.0967 183.395 16.0967H182.75V17.6751H183.395ZM188.92 18.4526H187.334V20.7852H186.316V15.3581H187.334V17.6129H188.92V15.3581H189.939V20.7852H188.92V18.4526ZM192.789 20.8785C192.437 20.8785 192.131 20.8163 191.872 20.6919C191.613 20.5623 191.398 20.3783 191.227 20.1398C191.061 19.9014 190.936 19.6085 190.853 19.2612C190.776 18.9139 190.737 18.5174 190.737 18.0716C190.737 17.631 190.776 17.2371 190.853 16.8898C190.936 16.5373 191.061 16.2419 191.227 16.0034C191.398 15.765 191.613 15.5836 191.872 15.4592C192.131 15.3296 192.437 15.2648 192.789 15.2648C193.494 15.2648 194.013 15.511 194.344 16.0034C194.676 16.4959 194.842 17.1853 194.842 18.0716C194.842 18.958 194.676 19.6474 194.344 20.1398C194.013 20.6322 193.494 20.8785 192.789 20.8785ZM192.789 20.0465C192.971 20.0465 193.124 20.0128 193.248 19.9454C193.373 19.8729 193.471 19.7718 193.544 19.6422C193.621 19.5126 193.676 19.3545 193.707 19.1679C193.743 18.9761 193.761 18.7636 193.761 18.5304V17.6051C193.761 17.1386 193.689 16.7706 193.544 16.501C193.404 16.2315 193.152 16.0967 192.789 16.0967C192.427 16.0967 192.173 16.2315 192.027 16.501C191.887 16.7706 191.818 17.1386 191.818 17.6051V18.5381C191.818 19.0046 191.887 19.3727 192.027 19.6422C192.173 19.9117 192.427 20.0465 192.789 20.0465ZM197.451 20.8785C197.099 20.8785 196.793 20.8163 196.534 20.6919C196.275 20.5623 196.06 20.3783 195.889 20.1398C195.723 19.9014 195.598 19.6085 195.515 19.2612C195.438 18.9139 195.399 18.5174 195.399 18.0716C195.399 17.631 195.438 17.2371 195.515 16.8898C195.598 16.5373 195.723 16.2419 195.889 16.0034C196.06 15.765 196.275 15.5836 196.534 15.4592C196.793 15.3296 197.099 15.2648 197.451 15.2648C198.156 15.2648 198.675 15.511 199.007 16.0034C199.338 16.4959 199.504 17.1853 199.504 18.0716C199.504 18.958 199.338 19.6474 199.007 20.1398C198.675 20.6322 198.156 20.8785 197.451 20.8785ZM197.451 20.0465C197.633 20.0465 197.786 20.0128 197.91 19.9454C198.035 19.8729 198.133 19.7718 198.206 19.6422C198.283 19.5126 198.338 19.3545 198.369 19.1679C198.405 18.9761 198.423 18.7636 198.423 18.5304V17.6051C198.423 17.1386 198.351 16.7706 198.206 16.501C198.066 16.2315 197.814 16.0967 197.451 16.0967C197.089 16.0967 196.835 16.2315 196.69 16.501C196.55 16.7706 196.48 17.1386 196.48 17.6051V18.5381C196.48 19.0046 196.55 19.3727 196.69 19.6422C196.835 19.9117 197.089 20.0465 197.451 20.0465ZM201.935 18.406L201.367 19.1524V20.7852H200.349V15.3581H201.367V17.7995H201.414L202.044 16.8976L203.187 15.3581H204.337L202.634 17.644L204.415 20.7852H203.264L201.935 18.406ZM212.596 20.7852L212.215 19.409H210.606L210.233 20.7852H209.206L210.73 15.3581H212.145L213.677 20.7852H212.596ZM211.445 16.3611H211.383L210.785 18.577H212.044L211.445 16.3611ZM214.389 20.7852V15.3581H216.45C216.978 15.3581 217.383 15.5084 217.663 15.809C217.942 16.1097 218.082 16.5192 218.082 17.0375C218.082 17.5559 217.942 17.9654 217.663 18.266C217.383 18.5666 216.978 18.717 216.45 18.717H215.408V20.7852H214.389ZM215.408 17.885H216.24C216.514 17.885 216.711 17.8306 216.831 17.7217C216.95 17.6077 217.009 17.4289 217.009 17.1853V16.8898C217.009 16.6462 216.95 16.4699 216.831 16.3611C216.711 16.247 216.514 16.19 216.24 16.19H215.408V17.885ZM219.036 20.7852V20.0232H220.256V16.1201H219.036V15.3581H222.488V16.1201H221.267V20.0232H222.488V20.7852H219.036Z" fill="#E2E4E9"/>
<g filter="url(#filter0_d_615_5267)">
<rect x="171.809" y="26.1172" width="53.3155" height="16.6611" fill="url(#paint3_linear_615_5267)" shape-rendering="crispEdges"/>
<path d="M217.284 33.9564C217.556 34.2275 217.556 34.667 217.284 34.9382L212.866 39.3561C212.595 39.6272 212.156 39.6272 211.885 39.3561C211.614 39.085 211.614 38.6454 211.885 38.3743L215.812 34.4473L211.885 30.5202C211.614 30.2491 211.614 29.8096 211.885 29.5385C212.156 29.2673 212.595 29.2673 212.866 29.5385L217.284 33.9564ZM180.139 33.7531L216.794 33.7531L216.794 35.1415L180.139 35.1415L180.139 33.7531Z" fill="#66A3FF"/>
<rect x="171.809" y="26.1172" width="53.3155" height="16.6611" stroke="#0061F1" stroke-opacity="0.5" stroke-width="1.10594" stroke-miterlimit="10" stroke-linejoin="round" shape-rendering="crispEdges"/>
</g>
<path d="M234.01 3.57168C234.01 1.87308 235.387 0.496094 237.086 0.496094H278.914C280.613 0.496094 281.99 1.87308 281.99 3.57168V6.56849H234.01V3.57168Z" fill="url(#paint4_radial_615_5267)"/>
<path d="M234.01 6.56836H281.99V52.9911C281.99 54.6898 280.613 56.0667 278.914 56.0667H237.086C235.387 56.0667 234.01 54.6898 234.01 52.9911V6.56836Z" fill="url(#paint5_linear_615_5267)"/>
<path fill-rule="evenodd" clip-rule="evenodd" d="M270.06 27.9721C270.411 27.6468 270.555 27.1461 270.385 26.7021C270.158 26.0878 269.884 25.4941 269.574 24.9314L269.332 24.5133C268.991 23.9454 268.609 23.4085 268.191 22.9C267.881 22.5309 267.38 22.4029 266.926 22.5484L264.051 23.4653C263.359 22.9315 262.548 22.4875 261.779 22.1504L261.134 19.2027C261.031 18.734 260.669 18.3617 260.194 18.2828C259.482 18.1636 258.749 18.1016 258 18.1016C257.252 18.1016 256.519 18.1636 255.806 18.2828C255.331 18.3617 254.97 18.734 254.867 19.2027L254.221 22.1504C253.406 22.4875 252.642 22.9315 251.95 23.4653L249.077 22.5484C248.62 22.4029 248.117 22.5309 247.811 22.9C247.393 23.4085 247.011 23.9454 246.669 24.5133L246.428 24.9314C246.115 25.4941 245.842 26.0878 245.614 26.7021C245.446 27.1512 245.587 27.6468 245.941 27.9721L248.175 30.006C248.118 30.4345 248.088 30.8733 248.088 31.3173C248.088 31.7613 248.118 32.2001 248.175 32.6285L245.941 34.6625C245.587 34.9878 245.446 35.4885 245.614 35.9325C245.842 36.5468 246.115 37.1405 246.428 37.7032L246.67 38.1213C247.011 38.6892 247.393 39.2261 247.811 39.7372C248.117 40.1037 248.62 40.2327 249.077 40.0882L251.95 39.1693C252.642 39.701 253.406 40.145 254.221 40.4857L254.867 43.4334C254.97 43.898 255.331 44.2284 255.806 44.3523C256.519 44.4711 257.252 44.533 257.954 44.533C258.749 44.533 259.482 44.4711 260.194 44.3523C260.669 44.2284 261.031 43.898 261.134 43.4334L261.779 40.4857C262.548 40.145 263.359 39.701 264.051 39.1693L266.926 40.0882C267.38 40.2327 267.881 40.1037 268.191 39.7372C268.609 39.2261 268.991 38.6892 269.332 38.1213L269.574 37.7032C269.884 37.1405 270.158 36.5468 270.385 35.9325C270.555 35.4885 270.411 34.9878 270.06 34.6625L267.824 32.6285C267.881 32.2001 267.912 31.7613 267.912 31.3173C267.912 30.8733 267.881 30.4345 267.824 30.006L270.06 27.9721ZM258 37.1547C261.223 37.1547 263.837 34.5413 263.837 31.3175C263.837 28.0937 261.223 25.4803 258 25.4803C254.776 25.4803 252.162 28.0937 252.162 31.3175C252.162 34.5413 254.776 37.1547 258 37.1547Z" fill="url(#paint6_linear_615_5267)"/>
<path d="M291.381 20.7852L291.016 15.3581H291.894L292.065 18.4837L292.135 19.7744H292.205L292.75 16.6099H293.698L294.242 19.7744H294.312L294.382 18.4837L294.553 15.3581H295.401L295.035 20.7852H293.721L293.239 17.714H293.177L292.695 20.7852H291.381ZM296.183 20.7852V15.3581H299.612V16.1978H297.202V17.6129H299.526V18.4526H297.202V19.9454H299.612V20.7852H296.183ZM300.822 15.3581H302.711C303.224 15.3581 303.618 15.4877 303.893 15.7468C304.173 16.0008 304.313 16.3481 304.313 16.7887C304.313 17.0997 304.235 17.3485 304.08 17.5351C303.929 17.7217 303.714 17.8565 303.434 17.9394V17.9783C303.761 18.0561 304.017 18.1986 304.204 18.406C304.396 18.6081 304.492 18.8958 304.492 19.269C304.492 19.4971 304.453 19.7044 304.375 19.891C304.303 20.0724 304.196 20.2305 304.056 20.3653C303.922 20.5001 303.756 20.6037 303.559 20.6763C303.367 20.7489 303.149 20.7852 302.906 20.7852H300.822V15.3581ZM302.595 20.0465C302.88 20.0465 303.092 19.9947 303.232 19.891C303.377 19.7822 303.45 19.5981 303.45 19.339V19.0824C303.45 18.8284 303.377 18.6496 303.232 18.5459C303.092 18.4371 302.88 18.3826 302.595 18.3826H301.817V20.0465H302.595ZM302.462 17.6751C302.737 17.6751 302.939 17.6258 303.069 17.5274C303.204 17.4289 303.271 17.2578 303.271 17.0142V16.7576C303.271 16.514 303.204 16.3429 303.069 16.2445C302.939 16.146 302.737 16.0967 302.462 16.0967H301.817V17.6751H302.462ZM307.988 18.4526H306.401V20.7852H305.383V15.3581H306.401V17.6129H307.988V15.3581H309.006V20.7852H307.988V18.4526ZM311.857 20.8785C311.504 20.8785 311.198 20.8163 310.939 20.6919C310.68 20.5623 310.465 20.3783 310.294 20.1398C310.128 19.9014 310.003 19.6085 309.921 19.2612C309.843 18.9139 309.804 18.5174 309.804 18.0716C309.804 17.631 309.843 17.2371 309.921 16.8898C310.003 16.5373 310.128 16.2419 310.294 16.0034C310.465 15.765 310.68 15.5836 310.939 15.4592C311.198 15.3296 311.504 15.2648 311.857 15.2648C312.561 15.2648 313.08 15.511 313.412 16.0034C313.743 16.4959 313.909 17.1853 313.909 18.0716C313.909 18.958 313.743 19.6474 313.412 20.1398C313.08 20.6322 312.561 20.8785 311.857 20.8785ZM311.857 20.0465C312.038 20.0465 312.191 20.0128 312.315 19.9454C312.44 19.8729 312.538 19.7718 312.611 19.6422C312.688 19.5126 312.743 19.3545 312.774 19.1679C312.81 18.9761 312.828 18.7636 312.828 18.5304V17.6051C312.828 17.1386 312.756 16.7706 312.611 16.501C312.471 16.2315 312.219 16.0967 311.857 16.0967C311.494 16.0967 311.24 16.2315 311.095 16.501C310.955 16.7706 310.885 17.1386 310.885 17.6051V18.5381C310.885 19.0046 310.955 19.3727 311.095 19.6422C311.24 19.9117 311.494 20.0465 311.857 20.0465ZM316.519 20.8785C316.166 20.8785 315.86 20.8163 315.601 20.6919C315.342 20.5623 315.127 20.3783 314.956 20.1398C314.79 19.9014 314.666 19.6085 314.583 19.2612C314.505 18.9139 314.466 18.5174 314.466 18.0716C314.466 17.631 314.505 17.2371 314.583 16.8898C314.666 16.5373 314.79 16.2419 314.956 16.0034C315.127 15.765 315.342 15.5836 315.601 15.4592C315.86 15.3296 316.166 15.2648 316.519 15.2648C317.224 15.2648 317.742 15.511 318.074 16.0034C318.405 16.4959 318.571 17.1853 318.571 18.0716C318.571 18.958 318.405 19.6474 318.074 20.1398C317.742 20.6322 317.224 20.8785 316.519 20.8785ZM316.519 20.0465C316.7 20.0465 316.853 20.0128 316.977 19.9454C317.102 19.8729 317.2 19.7718 317.273 19.6422C317.351 19.5126 317.405 19.3545 317.436 19.1679C317.472 18.9761 317.491 18.7636 317.491 18.5304V17.6051C317.491 17.1386 317.418 16.7706 317.273 16.501C317.133 16.2315 316.881 16.0967 316.519 16.0967C316.156 16.0967 315.902 16.2315 315.757 16.501C315.617 16.7706 315.547 17.1386 315.547 17.6051V18.5381C315.547 19.0046 315.617 19.3727 315.757 19.6422C315.902 19.9117 316.156 20.0465 316.519 20.0465ZM321.002 18.406L320.434 19.1524V20.7852H319.416V15.3581H320.434V17.7995H320.481L321.111 16.8976L322.254 15.3581H323.404L321.702 17.644L323.482 20.7852H322.331L321.002 18.406ZM331.663 20.7852L331.282 19.409H329.673L329.3 20.7852H328.273L329.797 15.3581H331.212L332.744 20.7852H331.663ZM330.513 16.3611H330.45L329.852 18.577H331.111L330.513 16.3611ZM333.456 20.7852V15.3581H335.517C336.045 15.3581 336.45 15.5084 336.73 15.809C337.01 16.1097 337.15 16.5192 337.15 17.0375C337.15 17.5559 337.01 17.9654 336.73 18.266C336.45 18.5666 336.045 18.717 335.517 18.717H334.475V20.7852H333.456ZM334.475 17.885H335.307C335.582 17.885 335.779 17.8306 335.898 17.7217C336.017 17.6077 336.077 17.4289 336.077 17.1853V16.8898C336.077 16.6462 336.017 16.4699 335.898 16.3611C335.779 16.247 335.582 16.19 335.307 16.19H334.475V17.885ZM338.103 20.7852V20.0232H339.324V16.1201H338.103V15.3581H341.555V16.1201H340.334V20.0232H341.555V20.7852H338.103Z" fill="#E2E4E9"/>
<g filter="url(#filter1_d_615_5267)">
<rect x="290.876" y="26.1172" width="53.3155" height="16.6611" fill="url(#paint7_linear_615_5267)" shape-rendering="crispEdges"/>
<path d="M336.352 33.9564C336.623 34.2275 336.623 34.667 336.352 34.9382L331.934 39.3561C331.663 39.6272 331.223 39.6272 330.952 39.3561C330.681 39.085 330.681 38.6454 330.952 38.3743L334.879 34.4473L330.952 30.5202C330.681 30.2491 330.681 29.8096 330.952 29.5385C331.223 29.2673 331.663 29.2673 331.934 29.5385L336.352 33.9564ZM299.206 33.7531L335.861 33.7531L335.861 35.1415L299.206 35.1415L299.206 33.7531Z" fill="#66A3FF"/>
<rect x="290.876" y="26.1172" width="53.3155" height="16.6611" stroke="#0061F1" stroke-opacity="0.5" stroke-width="1.10594" stroke-miterlimit="10" stroke-linejoin="round" shape-rendering="crispEdges"/>
</g>
<path d="M353.077 3.57168C353.077 1.87308 354.454 0.496094 356.153 0.496094H397.981C399.68 0.496094 401.057 1.87308 401.057 3.57168V6.56849H353.077V3.57168Z" fill="url(#paint8_radial_615_5267)"/>
<path d="M353.077 6.56836H401.057V52.9911C401.057 54.6898 399.68 56.0667 397.981 56.0667H356.152C354.454 56.0667 353.077 54.6898 353.077 52.9911V6.56836Z" fill="url(#paint9_linear_615_5267)"/>
<path fill-rule="evenodd" clip-rule="evenodd" d="M389.126 27.9721C389.478 27.6468 389.622 27.1461 389.452 26.7021C389.225 26.0878 388.951 25.4941 388.641 24.9314L388.399 24.5133C388.058 23.9454 387.676 23.4085 387.258 22.9C386.948 22.5309 386.447 22.4029 385.993 22.5484L383.117 23.4653C382.426 22.9315 381.615 22.4875 380.846 22.1504L380.201 19.2027C380.097 18.734 379.736 18.3617 379.261 18.2828C378.549 18.1636 377.816 18.1016 377.067 18.1016C376.319 18.1016 375.586 18.1636 374.873 18.2828C374.398 18.3617 374.037 18.734 373.934 19.2027L373.288 22.1504C372.473 22.4875 371.709 22.9315 371.017 23.4653L368.143 22.5484C367.687 22.4029 367.184 22.5309 366.878 22.9C366.459 23.4085 366.077 23.9454 365.736 24.5133L365.495 24.9314C365.182 25.4941 364.909 26.0878 364.68 26.7021C364.513 27.1512 364.654 27.6468 365.008 27.9721L367.242 30.006C367.185 30.4345 367.155 30.8733 367.155 31.3173C367.155 31.7613 367.185 32.2001 367.242 32.6285L365.008 34.6625C364.654 34.9878 364.513 35.4885 364.68 35.9325C364.909 36.5468 365.182 37.1405 365.495 37.7032L365.737 38.1213C366.077 38.6892 366.459 39.2261 366.878 39.7372C367.184 40.1037 367.687 40.2327 368.143 40.0882L371.017 39.1693C371.709 39.701 372.473 40.145 373.288 40.4857L373.934 43.4334C374.037 43.898 374.398 44.2284 374.873 44.3523C375.586 44.4711 376.319 44.533 377.021 44.533C377.816 44.533 378.549 44.4711 379.261 44.3523C379.736 44.2284 380.097 43.898 380.201 43.4334L380.846 40.4857C381.615 40.145 382.426 39.701 383.117 39.1693L385.993 40.0882C386.447 40.2327 386.948 40.1037 387.258 39.7372C387.676 39.2261 388.058 38.6892 388.399 38.1213L388.641 37.7032C388.951 37.1405 389.225 36.5468 389.452 35.9325C389.622 35.4885 389.478 34.9878 389.126 34.6625L386.891 32.6285C386.948 32.2001 386.979 31.7613 386.979 31.3173C386.979 30.8733 386.948 30.4345 386.891 30.006L389.126 27.9721ZM377.066 37.1547C380.29 37.1547 382.904 34.5413 382.904 31.3175C382.904 28.0937 380.29 25.4803 377.066 25.4803C373.843 25.4803 371.229 28.0937 371.229 31.3175C371.229 34.5413 373.843 37.1547 377.066 37.1547Z" fill="url(#paint10_linear_615_5267)"/>
</g>
<g opacity="0.7">
<path d="M66.0369 100.193C66.0369 97.9141 67.8846 96.0664 70.1639 96.0664H126.292C128.571 96.0664 130.419 97.9141 130.419 100.193V104.215H66.0369V100.193Z" fill="url(#paint11_radial_615_5267)"/>
<path d="M66.0369 104.215H130.419V166.508C130.419 168.787 128.571 170.635 126.292 170.635H70.1639C67.8846 170.635 66.0369 168.787 66.0369 166.508V104.215Z" fill="url(#paint12_linear_615_5267)"/>
<path fill-rule="evenodd" clip-rule="evenodd" d="M114.411 132.936C114.882 132.5 115.076 131.828 114.847 131.232C114.542 130.408 114.175 129.611 113.759 128.856L113.434 128.295C112.977 127.533 112.464 126.813 111.903 126.13C111.487 125.635 110.815 125.463 110.206 125.659L106.347 126.889C105.419 126.173 104.331 125.577 103.299 125.124L102.433 121.169C102.295 120.54 101.81 120.041 101.173 119.935C100.217 119.775 99.2329 119.691 98.2285 119.691C97.224 119.691 96.2404 119.775 95.2844 119.935C94.6471 120.041 94.1622 120.54 94.0237 121.169L93.1577 125.124C92.0632 125.577 91.038 126.173 90.1098 126.889L86.2541 125.659C85.6417 125.463 84.9663 125.635 84.5562 126.13C83.9944 126.813 83.4818 127.533 83.0239 128.295L82.7004 128.856C82.2806 129.611 81.9141 130.408 81.6073 131.232C81.3828 131.835 81.5719 132.5 82.0471 132.936L85.0439 135.666C84.9677 136.241 84.9282 136.829 84.9282 137.425C84.9282 138.021 84.9677 138.61 85.0439 139.185L82.0471 141.914C81.5719 142.35 81.3828 143.022 81.6073 143.618C81.9141 144.442 82.2799 145.239 82.7004 145.994L83.0246 146.555C83.4818 147.317 83.9944 148.038 84.5562 148.723C84.9663 149.215 85.6417 149.389 86.2541 149.195L90.1098 147.961C91.038 148.675 92.0632 149.271 93.1577 149.728L94.0237 153.683C94.1622 154.307 94.6471 154.75 95.2844 154.916C96.2404 155.076 97.224 155.159 98.1661 155.159C99.2329 155.159 100.217 155.076 101.173 154.916C101.81 154.75 102.295 154.307 102.433 153.683L103.299 149.728C104.331 149.271 105.419 148.675 106.347 147.961L110.206 149.195C110.815 149.389 111.487 149.215 111.903 148.723C112.464 148.038 112.977 147.317 113.434 146.555L113.759 145.994C114.175 145.239 114.542 144.442 114.847 143.618C115.076 143.022 114.882 142.35 114.411 141.914L111.411 139.185C111.487 138.61 111.529 138.021 111.529 137.425C111.529 136.829 111.487 136.241 111.411 135.666L114.411 132.936ZM98.2272 145.258C102.553 145.258 106.06 141.751 106.06 137.425C106.06 133.1 102.553 129.593 98.2272 129.593C93.9014 129.593 90.3945 133.1 90.3945 137.425C90.3945 141.751 93.9014 145.258 98.2272 145.258Z" fill="url(#paint13_linear_615_5267)"/>
<path d="M143.021 123.437L142.531 116.154H143.71L143.939 120.348L144.033 122.08H144.127L144.857 117.834H146.13L146.861 122.08H146.955L147.048 120.348L147.278 116.154H148.415L147.925 123.437H146.162L145.515 119.315H145.431L144.784 123.437H143.021ZM149.465 123.437V116.154H154.066V117.281H150.832V119.18H153.951V120.307H150.832V122.31H154.066V123.437H149.465ZM155.689 116.154H158.225C158.913 116.154 159.442 116.328 159.811 116.676C160.186 117.017 160.374 117.483 160.374 118.074C160.374 118.491 160.27 118.825 160.061 119.075C159.859 119.326 159.571 119.507 159.195 119.618V119.67C159.633 119.774 159.977 119.966 160.228 120.244C160.485 120.515 160.614 120.901 160.614 121.402C160.614 121.708 160.562 121.986 160.457 122.237C160.36 122.48 160.217 122.692 160.03 122.873C159.849 123.054 159.626 123.193 159.362 123.29C159.105 123.388 158.812 123.437 158.486 123.437H155.689V116.154ZM158.068 122.445C158.451 122.445 158.736 122.376 158.924 122.237C159.118 122.091 159.216 121.844 159.216 121.496V121.152C159.216 120.811 159.118 120.571 158.924 120.432C158.736 120.286 158.451 120.213 158.068 120.213H157.025V122.445H158.068ZM157.891 119.263C158.259 119.263 158.531 119.197 158.705 119.065C158.885 118.933 158.976 118.703 158.976 118.376V118.032C158.976 117.705 158.885 117.476 158.705 117.344C158.531 117.211 158.259 117.145 157.891 117.145H157.025V119.263H157.891ZM165.305 120.307H163.176V123.437H161.81V116.154H163.176V119.18H165.305V116.154H166.672V123.437H165.305V120.307ZM170.496 123.562C170.023 123.562 169.613 123.478 169.265 123.311C168.918 123.137 168.629 122.891 168.399 122.571C168.177 122.251 168.01 121.858 167.899 121.392C167.794 120.926 167.742 120.393 167.742 119.795C167.742 119.204 167.794 118.675 167.899 118.209C168.01 117.736 168.177 117.34 168.399 117.02C168.629 116.7 168.918 116.457 169.265 116.29C169.613 116.116 170.023 116.029 170.496 116.029C171.442 116.029 172.138 116.359 172.583 117.02C173.028 117.681 173.251 118.606 173.251 119.795C173.251 120.985 173.028 121.91 172.583 122.571C172.138 123.231 171.442 123.562 170.496 123.562ZM170.496 122.445C170.74 122.445 170.945 122.4 171.112 122.31C171.279 122.212 171.411 122.077 171.508 121.903C171.613 121.729 171.686 121.517 171.728 121.266C171.776 121.009 171.801 120.724 171.801 120.411V119.169C171.801 118.543 171.703 118.049 171.508 117.688C171.321 117.326 170.983 117.145 170.496 117.145C170.01 117.145 169.669 117.326 169.474 117.688C169.286 118.049 169.192 118.543 169.192 119.169V120.421C169.192 121.047 169.286 121.541 169.474 121.903C169.669 122.265 170.01 122.445 170.496 122.445ZM176.752 123.562C176.279 123.562 175.869 123.478 175.521 123.311C175.173 123.137 174.885 122.891 174.655 122.571C174.433 122.251 174.266 121.858 174.154 121.392C174.05 120.926 173.998 120.393 173.998 119.795C173.998 119.204 174.05 118.675 174.154 118.209C174.266 117.736 174.433 117.34 174.655 117.02C174.885 116.7 175.173 116.457 175.521 116.29C175.869 116.116 176.279 116.029 176.752 116.029C177.698 116.029 178.394 116.359 178.839 117.02C179.284 117.681 179.507 118.606 179.507 119.795C179.507 120.985 179.284 121.91 178.839 122.571C178.394 123.231 177.698 123.562 176.752 123.562ZM176.752 122.445C176.996 122.445 177.201 122.4 177.368 122.31C177.535 122.212 177.667 122.077 177.764 121.903C177.869 121.729 177.942 121.517 177.983 121.266C178.032 121.009 178.056 120.724 178.056 120.411V119.169C178.056 118.543 177.959 118.049 177.764 117.688C177.577 117.326 177.239 117.145 176.752 117.145C176.265 117.145 175.925 117.326 175.73 117.688C175.542 118.049 175.448 118.543 175.448 119.169V120.421C175.448 121.047 175.542 121.541 175.73 121.903C175.925 122.265 176.265 122.445 176.752 122.445ZM182.768 120.244L182.007 121.246V123.437H180.64V116.154H182.007V119.43H182.069L182.914 118.22L184.448 116.154H185.992L183.707 119.221L186.096 123.437H184.552L182.768 120.244ZM197.075 123.437L196.563 121.59H194.404L193.903 123.437H192.526L194.571 116.154H196.469L198.525 123.437H197.075ZM195.53 117.5H195.447L194.644 120.473H196.334L195.53 117.5ZM199.481 123.437V116.154H202.245C202.955 116.154 203.497 116.356 203.873 116.759C204.249 117.163 204.436 117.712 204.436 118.408C204.436 119.103 204.249 119.653 203.873 120.056C203.497 120.46 202.955 120.661 202.245 120.661H200.847V123.437H199.481ZM200.847 119.545H201.964C202.332 119.545 202.597 119.472 202.757 119.326C202.917 119.173 202.997 118.933 202.997 118.606V118.209C202.997 117.883 202.917 117.646 202.757 117.5C202.597 117.347 202.332 117.27 201.964 117.27H200.847V119.545ZM205.716 123.437V122.414H207.354V117.177H205.716V116.154H210.348V117.177H208.71V122.414H210.348V123.437H205.716Z" fill="#E2E4E9"/>
<g filter="url(#filter2_d_615_5267)">
<rect x="142.343" y="130.908" width="71.5422" height="22.357" fill="url(#paint14_linear_615_5267)" shape-rendering="crispEdges"/>
<path d="M203.365 141.428C203.729 141.792 203.729 142.382 203.365 142.746L197.437 148.674C197.073 149.038 196.484 149.038 196.12 148.674C195.756 148.31 195.756 147.72 196.12 147.357L201.389 142.087L196.12 136.817C195.756 136.454 195.756 135.864 196.12 135.5C196.484 135.136 197.073 135.136 197.437 135.5L203.365 141.428ZM153.521 141.155L202.707 141.155L202.707 143.018L153.521 143.018L153.521 141.155Z" fill="#66A3FF"/>
<rect x="142.343" y="130.908" width="71.5422" height="22.357" stroke="#0061F1" stroke-opacity="0.5" stroke-width="1.48403" stroke-miterlimit="10" stroke-linejoin="round" shape-rendering="crispEdges"/>
</g>
<path d="M225.809 100.193C225.809 97.9141 227.657 96.0664 229.936 96.0664H286.064C288.343 96.0664 290.191 97.9141 290.191 100.193V104.215H225.809V100.193Z" fill="url(#paint15_radial_615_5267)"/>
<path d="M225.809 104.215H290.191V166.508C290.191 168.787 288.343 170.635 286.064 170.635H229.936C227.657 170.635 225.809 168.787 225.809 166.508V104.215Z" fill="url(#paint16_linear_615_5267)"/>
<path fill-rule="evenodd" clip-rule="evenodd" d="M274.183 132.936C274.654 132.5 274.848 131.828 274.619 131.232C274.314 130.408 273.947 129.611 273.531 128.856L273.206 128.295C272.749 127.533 272.236 126.813 271.675 126.13C271.259 125.635 270.587 125.463 269.978 125.659L266.119 126.889C265.191 126.173 264.103 125.577 263.071 125.124L262.205 121.169C262.067 120.54 261.582 120.041 260.945 119.935C259.989 119.775 259.005 119.691 258 119.691C256.996 119.691 256.012 119.775 255.056 119.935C254.419 120.041 253.934 120.54 253.796 121.169L252.93 125.124C251.835 125.577 250.81 126.173 249.882 126.889L246.026 125.659C245.414 125.463 244.738 125.635 244.328 126.13C243.766 126.813 243.254 127.533 242.796 128.295L242.472 128.856C242.053 129.611 241.686 130.408 241.379 131.232C241.155 131.835 241.344 132.5 241.819 132.936L244.816 135.666C244.74 136.241 244.7 136.829 244.7 137.425C244.7 138.021 244.74 138.61 244.816 139.185L241.819 141.914C241.344 142.35 241.155 143.022 241.379 143.618C241.686 144.442 242.052 145.239 242.472 145.994L242.797 146.555C243.254 147.317 243.766 148.038 244.328 148.723C244.738 149.215 245.414 149.389 246.026 149.195L249.882 147.961C250.81 148.675 251.835 149.271 252.93 149.728L253.796 153.683C253.934 154.307 254.419 154.75 255.056 154.916C256.012 155.076 256.996 155.159 257.938 155.159C259.005 155.159 259.989 155.076 260.945 154.916C261.582 154.75 262.067 154.307 262.205 153.683L263.071 149.728C264.103 149.271 265.191 148.675 266.119 147.961L269.978 149.195C270.587 149.389 271.259 149.215 271.675 148.723C272.236 148.038 272.749 147.317 273.206 146.555L273.531 145.994C273.947 145.239 274.314 144.442 274.619 143.618C274.848 143.022 274.654 142.35 274.183 141.914L271.183 139.185C271.259 138.61 271.301 138.021 271.301 137.425C271.301 136.829 271.259 136.241 271.183 135.666L274.183 132.936ZM257.999 145.258C262.325 145.258 265.832 141.751 265.832 137.425C265.832 133.1 262.325 129.593 257.999 129.593C253.673 129.593 250.166 133.1 250.166 137.425C250.166 141.751 253.673 145.258 257.999 145.258Z" fill="url(#paint17_linear_615_5267)"/>
<path d="M302.793 123.437L302.303 116.154H303.482L303.711 120.348L303.805 122.08H303.899L304.629 117.834H305.902L306.633 122.08H306.726L306.82 120.348L307.05 116.154H308.187L307.697 123.437H305.934L305.287 119.315H305.203L304.556 123.437H302.793ZM309.237 123.437V116.154H313.838V117.281H310.604V119.18H313.723V120.307H310.604V122.31H313.838V123.437H309.237ZM315.461 116.154H317.997C318.685 116.154 319.214 116.328 319.583 116.676C319.958 117.017 320.146 117.483 320.146 118.074C320.146 118.491 320.042 118.825 319.833 119.075C319.631 119.326 319.343 119.507 318.967 119.618V119.67C319.405 119.774 319.749 119.966 320 120.244C320.257 120.515 320.386 120.901 320.386 121.402C320.386 121.708 320.334 121.986 320.229 122.237C320.132 122.48 319.989 122.692 319.802 122.873C319.621 123.054 319.398 123.193 319.134 123.29C318.877 123.388 318.584 123.437 318.257 123.437H315.461V116.154ZM317.84 122.445C318.223 122.445 318.508 122.376 318.696 122.237C318.89 122.091 318.988 121.844 318.988 121.496V121.152C318.988 120.811 318.89 120.571 318.696 120.432C318.508 120.286 318.223 120.213 317.84 120.213H316.797V122.445H317.84ZM317.663 119.263C318.031 119.263 318.303 119.197 318.477 119.065C318.657 118.933 318.748 118.703 318.748 118.376V118.032C318.748 117.705 318.657 117.476 318.477 117.344C318.303 117.211 318.031 117.145 317.663 117.145H316.797V119.263H317.663ZM325.077 120.307H322.948V123.437H321.582V116.154H322.948V119.18H325.077V116.154H326.444V123.437H325.077V120.307ZM330.268 123.562C329.795 123.562 329.385 123.478 329.037 123.311C328.69 123.137 328.401 122.891 328.171 122.571C327.949 122.251 327.782 121.858 327.671 121.392C327.566 120.926 327.514 120.393 327.514 119.795C327.514 119.204 327.566 118.675 327.671 118.209C327.782 117.736 327.949 117.34 328.171 117.02C328.401 116.7 328.69 116.457 329.037 116.29C329.385 116.116 329.795 116.029 330.268 116.029C331.214 116.029 331.91 116.359 332.355 117.02C332.8 117.681 333.023 118.606 333.023 119.795C333.023 120.985 332.8 121.91 332.355 122.571C331.91 123.231 331.214 123.562 330.268 123.562ZM330.268 122.445C330.512 122.445 330.717 122.4 330.884 122.31C331.051 122.212 331.183 122.077 331.28 121.903C331.385 121.729 331.458 121.517 331.5 121.266C331.548 121.009 331.573 120.724 331.573 120.411V119.169C331.573 118.543 331.475 118.049 331.28 117.688C331.093 117.326 330.755 117.145 330.268 117.145C329.782 117.145 329.441 117.326 329.246 117.688C329.058 118.049 328.964 118.543 328.964 119.169V120.421C328.964 121.047 329.058 121.541 329.246 121.903C329.441 122.265 329.782 122.445 330.268 122.445ZM336.524 123.562C336.051 123.562 335.641 123.478 335.293 123.311C334.945 123.137 334.657 122.891 334.427 122.571C334.205 122.251 334.038 121.858 333.926 121.392C333.822 120.926 333.77 120.393 333.77 119.795C333.77 119.204 333.822 118.675 333.926 118.209C334.038 117.736 334.205 117.34 334.427 117.02C334.657 116.7 334.945 116.457 335.293 116.29C335.641 116.116 336.051 116.029 336.524 116.029C337.47 116.029 338.166 116.359 338.611 117.02C339.056 117.681 339.279 118.606 339.279 119.795C339.279 120.985 339.056 121.91 338.611 122.571C338.166 123.231 337.47 123.562 336.524 123.562ZM336.524 122.445C336.768 122.445 336.973 122.4 337.14 122.31C337.307 122.212 337.439 122.077 337.536 121.903C337.641 121.729 337.714 121.517 337.755 121.266C337.804 121.009 337.828 120.724 337.828 120.411V119.169C337.828 118.543 337.731 118.049 337.536 117.688C337.349 117.326 337.011 117.145 336.524 117.145C336.037 117.145 335.697 117.326 335.502 117.688C335.314 118.049 335.22 118.543 335.22 119.169V120.421C335.22 121.047 335.314 121.541 335.502 121.903C335.697 122.265 336.037 122.445 336.524 122.445ZM342.54 120.244L341.779 121.246V123.437H340.412V116.154H341.779V119.43H341.841L342.686 118.22L344.22 116.154H345.764L343.479 119.221L345.868 123.437H344.324L342.54 120.244ZM356.846 123.437L356.335 121.59H354.176L353.675 123.437H352.298L354.343 116.154H356.241L358.297 123.437H356.846ZM355.302 117.5H355.219L354.416 120.473H356.106L355.302 117.5ZM359.252 123.437V116.154H362.017C362.727 116.154 363.269 116.356 363.645 116.759C364.02 117.163 364.208 117.712 364.208 118.408C364.208 119.103 364.02 119.653 363.645 120.056C363.269 120.46 362.727 120.661 362.017 120.661H360.619V123.437H359.252ZM360.619 119.545H361.736C362.104 119.545 362.369 119.472 362.529 119.326C362.688 119.173 362.768 118.933 362.768 118.606V118.209C362.768 117.883 362.688 117.646 362.529 117.5C362.369 117.347 362.104 117.27 361.736 117.27H360.619V119.545ZM365.487 123.437V122.414H367.126V117.177H365.487V116.154H370.12V117.177H368.482V122.414H370.12V123.437H365.487Z" fill="#E2E4E9"/>
<g filter="url(#filter3_d_615_5267)">
<rect x="302.115" y="130.908" width="71.5422" height="22.357" fill="url(#paint18_linear_615_5267)" shape-rendering="crispEdges"/>
<path d="M363.137 141.428C363.501 141.792 363.501 142.382 363.137 142.746L357.209 148.674C356.845 149.038 356.256 149.038 355.892 148.674C355.528 148.31 355.528 147.72 355.892 147.357L361.161 142.087L355.892 136.817C355.528 136.454 355.528 135.864 355.892 135.5C356.256 135.136 356.845 135.136 357.209 135.5L363.137 141.428ZM313.293 141.155L362.479 141.155L362.479 143.018L313.293 143.018L313.293 141.155Z" fill="#66A3FF"/>
<rect x="302.115" y="130.908" width="71.5422" height="22.357" stroke="#0061F1" stroke-opacity="0.5" stroke-width="1.48403" stroke-miterlimit="10" stroke-linejoin="round" shape-rendering="crispEdges"/>
</g>
<path d="M385.581 100.193C385.581 97.9141 387.429 96.0664 389.708 96.0664H445.836C448.115 96.0664 449.963 97.9141 449.963 100.193V104.215H385.581V100.193Z" fill="url(#paint19_radial_615_5267)"/>
<path d="M385.581 104.215H449.963V166.508C449.963 168.787 448.115 170.635 445.836 170.635H389.708C387.428 170.635 385.581 168.787 385.581 166.508V104.215Z" fill="url(#paint20_linear_615_5267)"/>
<path fill-rule="evenodd" clip-rule="evenodd" d="M433.954 132.936C434.425 132.5 434.619 131.828 434.39 131.232C434.086 130.408 433.718 129.611 433.303 128.856L432.977 128.295C432.52 127.533 432.007 126.813 431.446 126.13C431.031 125.635 430.359 125.463 429.749 125.659L425.891 126.889C424.962 126.173 423.875 125.577 422.843 125.124L421.977 121.169C421.838 120.54 421.353 120.041 420.716 119.935C419.76 119.775 418.776 119.691 417.772 119.691C416.767 119.691 415.784 119.775 414.828 119.935C414.191 120.041 413.706 120.54 413.567 121.169L412.701 125.124C411.607 125.577 410.581 126.173 409.653 126.889L405.798 125.659C405.185 125.463 404.51 125.635 404.1 126.13C403.538 126.813 403.025 127.533 402.567 128.295L402.244 128.856C401.824 129.611 401.458 130.408 401.151 131.232C400.926 131.835 401.115 132.5 401.591 132.936L404.587 135.666C404.511 136.241 404.472 136.829 404.472 137.425C404.472 138.021 404.511 138.61 404.587 139.185L401.591 141.914C401.115 142.35 400.926 143.022 401.151 143.618C401.458 144.442 401.823 145.239 402.244 145.994L402.568 146.555C403.025 147.317 403.538 148.038 404.1 148.723C404.51 149.215 405.185 149.389 405.798 149.195L409.653 147.961C410.581 148.675 411.607 149.271 412.701 149.728L413.567 153.683C413.706 154.307 414.191 154.75 414.828 154.916C415.784 155.076 416.767 155.159 417.71 155.159C418.776 155.159 419.76 155.076 420.716 154.916C421.353 154.75 421.838 154.307 421.977 153.683L422.843 149.728C423.875 149.271 424.962 148.675 425.891 147.961L429.749 149.195C430.359 149.389 431.031 149.215 431.446 148.723C432.007 148.038 432.52 147.317 432.977 146.555L433.303 145.994C433.718 145.239 434.086 144.442 434.39 143.618C434.619 143.022 434.425 142.35 433.954 141.914L430.954 139.185C431.031 138.61 431.072 138.021 431.072 137.425C431.072 136.829 431.031 136.241 430.954 135.666L433.954 132.936ZM417.771 145.258C422.097 145.258 425.603 141.751 425.603 137.425C425.603 133.1 422.097 129.593 417.771 129.593C413.445 129.593 409.938 133.1 409.938 137.425C409.938 141.751 413.445 145.258 417.771 145.258Z" fill="url(#paint21_linear_615_5267)"/>
</g>
<path d="M0.411377 216.174C0.411377 213.115 2.89079 210.636 5.94929 210.636H81.2655C84.324 210.636 86.8034 213.115 86.8034 216.174V221.57H0.411377V216.174Z" fill="url(#paint22_radial_615_5267)"/>
<path d="M0.411377 221.569H86.8038V305.158C86.8038 308.217 84.3244 310.696 81.2658 310.696H5.9493C2.89079 310.696 0.411377 308.217 0.411377 305.158V221.569Z" fill="url(#paint23_linear_615_5267)"/>
<path fill-rule="evenodd" clip-rule="evenodd" d="M65.3223 260.11C65.9543 259.524 66.2146 258.622 65.9079 257.823C65.4989 256.717 65.0062 255.648 64.4485 254.635L64.0116 253.882C63.3981 252.859 62.7102 251.893 61.9573 250.977C61.3996 250.312 60.4979 250.082 59.6799 250.344L54.5024 251.995C53.2568 251.034 51.7974 250.234 50.4124 249.627L49.2505 244.32C49.0646 243.476 48.4139 242.805 47.5587 242.663C46.2759 242.449 44.956 242.337 43.6081 242.337C42.2603 242.337 40.9404 242.449 39.6576 242.663C38.8024 242.805 38.1517 243.476 37.9658 244.32L36.8039 249.627C35.3352 250.234 33.9595 251.034 32.7139 251.995L27.5401 250.344C26.7184 250.082 25.8121 250.312 25.2618 250.977C24.5079 251.893 23.82 252.859 23.2056 253.882L22.7715 254.635C22.2082 255.648 21.7165 256.717 21.3047 257.823C21.0035 258.632 21.2573 259.524 21.895 260.11L25.9162 263.772C25.8139 264.544 25.7609 265.334 25.7609 266.133C25.7609 266.933 25.8139 267.723 25.9162 268.494L21.895 272.157C21.2573 272.742 21.0035 273.644 21.3047 274.443C21.7165 275.549 22.2073 276.618 22.7715 277.632L23.2066 278.385C23.82 279.407 24.5079 280.374 25.2618 281.294C25.8121 281.954 26.7184 282.186 27.5401 281.926L32.7139 280.272C33.9595 281.229 35.3352 282.028 36.8039 282.642L37.9658 287.95C38.1517 288.786 38.8024 289.381 39.6576 289.604C40.9404 289.818 42.2603 289.929 43.5245 289.929C44.956 289.929 46.2759 289.818 47.5587 289.604C48.4139 289.381 49.0646 288.786 49.2505 287.95L50.4124 282.642C51.7974 282.028 53.2568 281.229 54.5024 280.272L59.6799 281.926C60.4979 282.186 61.3996 281.954 61.9573 281.294C62.7102 280.374 63.3981 279.407 64.0116 278.385L64.4485 277.632C65.0062 276.618 65.4989 275.549 65.9079 274.443C66.2146 273.644 65.9543 272.742 65.3223 272.157L61.2973 268.494C61.3996 267.723 61.4554 266.933 61.4554 266.133C61.4554 265.334 61.3996 264.544 61.2973 263.772L65.3223 260.11ZM43.6065 276.644C49.4112 276.644 54.1169 271.938 54.1169 266.133C54.1169 260.329 49.4112 255.623 43.6065 255.623C37.8017 255.623 33.096 260.329 33.096 266.133C33.096 271.938 37.8017 276.644 43.6065 276.644Z" fill="url(#paint24_linear_615_5267)"/>
<path d="M103.714 248.166L103.056 238.394H104.638L104.946 244.022L105.072 246.346H105.198L106.178 240.648H107.886L108.866 246.346H108.992L109.118 244.022L109.426 238.394H110.952L110.294 248.166H107.928L107.06 242.636H106.948L106.08 248.166H103.714ZM112.36 248.166V238.394H118.534V239.906H114.194V242.454H118.38V243.966H114.194V246.654H118.534V248.166H112.36ZM120.713 238.394H124.115C125.039 238.394 125.748 238.627 126.243 239.094C126.747 239.551 126.999 240.177 126.999 240.97C126.999 241.53 126.859 241.978 126.579 242.314C126.308 242.65 125.921 242.893 125.417 243.042V243.112C126.005 243.252 126.467 243.509 126.803 243.882C127.148 244.246 127.321 244.764 127.321 245.436C127.321 245.847 127.251 246.22 127.111 246.556C126.98 246.883 126.789 247.167 126.537 247.41C126.294 247.653 125.995 247.839 125.641 247.97C125.295 248.101 124.903 248.166 124.465 248.166H120.713V238.394ZM123.905 246.836C124.418 246.836 124.801 246.743 125.053 246.556C125.314 246.36 125.445 246.029 125.445 245.562V245.1C125.445 244.643 125.314 244.321 125.053 244.134C124.801 243.938 124.418 243.84 123.905 243.84H122.505V246.836H123.905ZM123.667 242.566C124.161 242.566 124.525 242.477 124.759 242.3C125.001 242.123 125.123 241.815 125.123 241.376V240.914C125.123 240.475 125.001 240.167 124.759 239.99C124.525 239.813 124.161 239.724 123.667 239.724H122.505V242.566H123.667ZM133.615 243.966H130.759V248.166H128.925V238.394H130.759V242.454H133.615V238.394H135.449V248.166H133.615V243.966ZM140.582 248.334C139.947 248.334 139.397 248.222 138.93 247.998C138.463 247.765 138.076 247.433 137.768 247.004C137.469 246.575 137.245 246.047 137.096 245.422C136.956 244.797 136.886 244.083 136.886 243.28C136.886 242.487 136.956 241.777 137.096 241.152C137.245 240.517 137.469 239.985 137.768 239.556C138.076 239.127 138.463 238.8 138.93 238.576C139.397 238.343 139.947 238.226 140.582 238.226C141.851 238.226 142.785 238.669 143.382 239.556C143.979 240.443 144.278 241.684 144.278 243.28C144.278 244.876 143.979 246.117 143.382 247.004C142.785 247.891 141.851 248.334 140.582 248.334ZM140.582 246.836C140.909 246.836 141.184 246.775 141.408 246.654C141.632 246.523 141.809 246.341 141.94 246.108C142.08 245.875 142.178 245.59 142.234 245.254C142.299 244.909 142.332 244.526 142.332 244.106V242.44C142.332 241.6 142.201 240.937 141.94 240.452C141.688 239.967 141.235 239.724 140.582 239.724C139.929 239.724 139.471 239.967 139.21 240.452C138.958 240.937 138.832 241.6 138.832 242.44V244.12C138.832 244.96 138.958 245.623 139.21 246.108C139.471 246.593 139.929 246.836 140.582 246.836ZM148.976 248.334C148.342 248.334 147.791 248.222 147.324 247.998C146.858 247.765 146.47 247.433 146.162 247.004C145.864 246.575 145.64 246.047 145.49 245.422C145.35 244.797 145.28 244.083 145.28 243.28C145.28 242.487 145.35 241.777 145.49 241.152C145.64 240.517 145.864 239.985 146.162 239.556C146.47 239.127 146.858 238.8 147.324 238.576C147.791 238.343 148.342 238.226 148.976 238.226C150.246 238.226 151.179 238.669 151.776 239.556C152.374 240.443 152.672 241.684 152.672 243.28C152.672 244.876 152.374 246.117 151.776 247.004C151.179 247.891 150.246 248.334 148.976 248.334ZM148.976 246.836C149.303 246.836 149.578 246.775 149.802 246.654C150.026 246.523 150.204 246.341 150.334 246.108C150.474 245.875 150.572 245.59 150.628 245.254C150.694 244.909 150.726 244.526 150.726 244.106V242.44C150.726 241.6 150.596 240.937 150.334 240.452C150.082 239.967 149.63 239.724 148.976 239.724C148.323 239.724 147.866 239.967 147.604 240.452C147.352 240.937 147.226 241.6 147.226 242.44V244.12C147.226 244.96 147.352 245.623 147.604 246.108C147.866 246.593 148.323 246.836 148.976 246.836ZM157.049 243.882L156.027 245.226V248.166H154.193V238.394H156.027V242.79H156.111L157.245 241.166L159.303 238.394H161.375L158.309 242.51L161.515 248.166H159.443L157.049 243.882ZM176.246 248.166L175.56 245.688H172.662L171.99 248.166H170.142L172.886 238.394H175.434L178.192 248.166H176.246ZM174.174 240.2H174.062L172.984 244.19H175.252L174.174 240.2ZM179.474 248.166V238.394H183.184C184.136 238.394 184.864 238.665 185.368 239.206C185.872 239.747 186.124 240.485 186.124 241.418C186.124 242.351 185.872 243.089 185.368 243.63C184.864 244.171 184.136 244.442 183.184 244.442H181.308V248.166H179.474ZM181.308 242.944H182.806C183.301 242.944 183.656 242.846 183.87 242.65C184.085 242.445 184.192 242.123 184.192 241.684V241.152C184.192 240.713 184.085 240.396 183.87 240.2C183.656 239.995 183.301 239.892 182.806 239.892H181.308V242.944ZM187.841 248.166V246.794H190.039V239.766H187.841V238.394H194.057V239.766H191.859V246.794H194.057V248.166H187.841Z" fill="#E2E4E9"/>
<g filter="url(#filter4_d_615_5267)">
<rect x="102.804" y="257.166" width="96" height="30" fill="url(#paint25_linear_615_5267)" shape-rendering="crispEdges"/>
<path d="M184.688 271.282C185.176 271.77 185.176 272.562 184.688 273.05L176.733 281.005C176.244 281.493 175.453 281.493 174.965 281.005C174.477 280.517 174.477 279.725 174.965 279.237L182.036 272.166L174.965 265.095C174.477 264.607 174.477 263.815 174.965 263.327C175.453 262.839 176.244 262.839 176.733 263.327L184.688 271.282ZM117.804 270.916L183.804 270.916L183.804 273.416L117.804 273.416L117.804 270.916Z" fill="#66A3FF"/>
<rect x="102.804" y="257.166" width="96" height="30" stroke="#0061F1" stroke-opacity="0.5" stroke-width="1.99137" stroke-miterlimit="10" stroke-linejoin="round" shape-rendering="crispEdges"/>
</g>
<path d="M214.804 216.174C214.804 213.115 217.283 210.636 220.342 210.636H295.658C298.716 210.636 301.196 213.115 301.196 216.174V221.57H214.804V216.174Z" fill="url(#paint26_radial_615_5267)"/>
<path d="M214.804 221.569H301.196V305.158C301.196 308.217 298.717 310.696 295.658 310.696H220.342C217.283 310.696 214.804 308.217 214.804 305.158V221.569Z" fill="url(#paint27_linear_615_5267)"/>
<path fill-rule="evenodd" clip-rule="evenodd" d="M279.715 260.11C280.347 259.524 280.607 258.622 280.3 257.823C279.891 256.717 279.399 255.648 278.841 254.635L278.404 253.882C277.79 252.859 277.103 251.893 276.35 250.977C275.792 250.312 274.89 250.082 274.072 250.344L268.895 251.995C267.649 251.034 266.19 250.234 264.805 249.627L263.643 244.32C263.457 243.476 262.806 242.805 261.951 242.663C260.668 242.449 259.348 242.337 258 242.337C256.653 242.337 255.333 242.449 254.05 242.663C253.195 242.805 252.544 243.476 252.358 244.32L251.196 249.627C249.728 250.234 248.352 251.034 247.106 251.995L241.932 250.344C241.111 250.082 240.204 250.312 239.654 250.977C238.9 251.893 238.212 252.859 237.598 253.882L237.164 254.635C236.601 255.648 236.109 256.717 235.697 257.823C235.396 258.632 235.65 259.524 236.287 260.11L240.309 263.772C240.206 264.544 240.153 265.334 240.153 266.133C240.153 266.933 240.206 267.723 240.309 268.494L236.287 272.157C235.65 272.742 235.396 273.644 235.697 274.443C236.109 275.549 236.6 276.618 237.164 277.632L237.599 278.385C238.212 279.407 238.9 280.374 239.654 281.294C240.204 281.954 241.111 282.186 241.932 281.926L247.106 280.272C248.352 281.229 249.728 282.028 251.196 282.642L252.358 287.95C252.544 288.786 253.195 289.381 254.05 289.604C255.333 289.818 256.653 289.929 257.917 289.929C259.348 289.929 260.668 289.818 261.951 289.604C262.806 289.381 263.457 288.786 263.643 287.95L264.805 282.642C266.19 282.028 267.649 281.229 268.895 280.272L274.072 281.926C274.89 282.186 275.792 281.954 276.35 281.294C277.103 280.374 277.79 279.407 278.404 278.385L278.841 277.632C279.399 276.618 279.891 275.549 280.3 274.443C280.607 273.644 280.347 272.742 279.715 272.157L275.69 268.494C275.792 267.723 275.848 266.933 275.848 266.133C275.848 265.334 275.792 264.544 275.69 263.772L279.715 260.11ZM257.999 276.644C263.804 276.644 268.509 271.938 268.509 266.133C268.509 260.329 263.804 255.623 257.999 255.623C252.194 255.623 247.488 260.329 247.488 266.133C247.488 271.938 252.194 276.644 257.999 276.644Z" fill="url(#paint28_linear_615_5267)"/>
<path d="M318.106 248.166L317.448 238.394H319.03L319.338 244.022L319.464 246.346H319.59L320.57 240.648H322.278L323.258 246.346H323.384L323.51 244.022L323.818 238.394H325.344L324.686 248.166H322.32L321.452 242.636H321.34L320.472 248.166H318.106ZM326.753 248.166V238.394H332.927V239.906H328.587V242.454H332.773V243.966H328.587V246.654H332.927V248.166H326.753ZM335.105 238.394H338.507C339.431 238.394 340.141 238.627 340.635 239.094C341.139 239.551 341.391 240.177 341.391 240.97C341.391 241.53 341.251 241.978 340.971 242.314C340.701 242.65 340.313 242.893 339.809 243.042V243.112C340.397 243.252 340.859 243.509 341.195 243.882C341.541 244.246 341.713 244.764 341.713 245.436C341.713 245.847 341.643 246.22 341.503 246.556C341.373 246.883 341.181 247.167 340.929 247.41C340.687 247.653 340.388 247.839 340.033 247.97C339.688 248.101 339.296 248.166 338.857 248.166H335.105V238.394ZM338.297 246.836C338.811 246.836 339.193 246.743 339.445 246.556C339.707 246.36 339.837 246.029 339.837 245.562V245.1C339.837 244.643 339.707 244.321 339.445 244.134C339.193 243.938 338.811 243.84 338.297 243.84H336.897V246.836H338.297ZM338.059 242.566C338.554 242.566 338.918 242.477 339.151 242.3C339.394 242.123 339.515 241.815 339.515 241.376V240.914C339.515 240.475 339.394 240.167 339.151 239.99C338.918 239.813 338.554 239.724 338.059 239.724H336.897V242.566H338.059ZM348.008 243.966H345.152V248.166H343.318V238.394H345.152V242.454H348.008V238.394H349.842V248.166H348.008V243.966ZM354.974 248.334C354.34 248.334 353.789 248.222 353.322 247.998C352.856 247.765 352.468 247.433 352.16 247.004C351.862 246.575 351.638 246.047 351.488 245.422C351.348 244.797 351.278 244.083 351.278 243.28C351.278 242.487 351.348 241.777 351.488 241.152C351.638 240.517 351.862 239.985 352.16 239.556C352.468 239.127 352.856 238.8 353.322 238.576C353.789 238.343 354.34 238.226 354.974 238.226C356.244 238.226 357.177 238.669 357.774 239.556C358.372 240.443 358.67 241.684 358.67 243.28C358.67 244.876 358.372 246.117 357.774 247.004C357.177 247.891 356.244 248.334 354.974 248.334ZM354.974 246.836C355.301 246.836 355.576 246.775 355.8 246.654C356.024 246.523 356.202 246.341 356.332 246.108C356.472 245.875 356.57 245.59 356.626 245.254C356.692 244.909 356.724 244.526 356.724 244.106V242.44C356.724 241.6 356.594 240.937 356.332 240.452C356.08 239.967 355.628 239.724 354.974 239.724C354.321 239.724 353.864 239.967 353.602 240.452C353.35 240.937 353.224 241.6 353.224 242.44V244.12C353.224 244.96 353.35 245.623 353.602 246.108C353.864 246.593 354.321 246.836 354.974 246.836ZM363.369 248.334C362.734 248.334 362.184 248.222 361.717 247.998C361.25 247.765 360.863 247.433 360.555 247.004C360.256 246.575 360.032 246.047 359.883 245.422C359.743 244.797 359.673 244.083 359.673 243.28C359.673 242.487 359.743 241.777 359.883 241.152C360.032 240.517 360.256 239.985 360.555 239.556C360.863 239.127 361.25 238.8 361.717 238.576C362.184 238.343 362.734 238.226 363.369 238.226C364.638 238.226 365.572 238.669 366.169 239.556C366.766 240.443 367.065 241.684 367.065 243.28C367.065 244.876 366.766 246.117 366.169 247.004C365.572 247.891 364.638 248.334 363.369 248.334ZM363.369 246.836C363.696 246.836 363.971 246.775 364.195 246.654C364.419 246.523 364.596 246.341 364.727 246.108C364.867 245.875 364.965 245.59 365.021 245.254C365.086 244.909 365.119 244.526 365.119 244.106V242.44C365.119 241.6 364.988 240.937 364.727 240.452C364.475 239.967 364.022 239.724 363.369 239.724C362.716 239.724 362.258 239.967 361.997 240.452C361.745 240.937 361.619 241.6 361.619 242.44V244.12C361.619 244.96 361.745 245.623 361.997 246.108C362.258 246.593 362.716 246.836 363.369 246.836ZM371.441 243.882L370.419 245.226V248.166H368.585V238.394H370.419V242.79H370.503L371.637 241.166L373.695 238.394H375.767L372.701 242.51L375.907 248.166H373.835L371.441 243.882ZM390.639 248.166L389.953 245.688H387.055L386.383 248.166H384.535L387.279 238.394H389.827L392.585 248.166H390.639ZM388.567 240.2H388.455L387.377 244.19H389.645L388.567 240.2ZM393.867 248.166V238.394H397.577C398.529 238.394 399.257 238.665 399.761 239.206C400.265 239.747 400.517 240.485 400.517 241.418C400.517 242.351 400.265 243.089 399.761 243.63C399.257 244.171 398.529 244.442 397.577 244.442H395.701V248.166H393.867ZM395.701 242.944H397.199C397.694 242.944 398.048 242.846 398.263 242.65C398.478 242.445 398.585 242.123 398.585 241.684V241.152C398.585 240.713 398.478 240.396 398.263 240.2C398.048 239.995 397.694 239.892 397.199 239.892H395.701V242.944ZM402.234 248.166V246.794H404.432V239.766H402.234V238.394H408.45V239.766H406.252V246.794H408.45V248.166H402.234Z" fill="#E2E4E9"/>
<g filter="url(#filter5_d_615_5267)">
<rect x="317.196" y="257.166" width="96" height="30" fill="url(#paint29_linear_615_5267)" shape-rendering="crispEdges"/>
<path d="M399.08 271.282C399.568 271.77 399.568 272.562 399.08 273.05L391.125 281.005C390.637 281.493 389.846 281.493 389.357 281.005C388.869 280.517 388.869 279.725 389.357 279.237L396.429 272.166L389.357 265.095C388.869 264.607 388.869 263.815 389.357 263.327C389.846 262.839 390.637 262.839 391.125 263.327L399.08 271.282ZM332.196 270.916L398.196 270.916L398.196 273.416L332.196 273.416L332.196 270.916Z" fill="#66A3FF"/>
<rect x="317.196" y="257.166" width="96" height="30" stroke="#0061F1" stroke-opacity="0.5" stroke-width="1.99137" stroke-miterlimit="10" stroke-linejoin="round" shape-rendering="crispEdges"/>
</g>
<path d="M429.197 216.174C429.197 213.115 431.676 210.636 434.734 210.636H510.051C513.109 210.636 515.589 213.115 515.589 216.174V221.57H429.197V216.174Z" fill="url(#paint30_radial_615_5267)"/>
<path d="M429.196 221.569H515.589V305.158C515.589 308.217 513.109 310.696 510.051 310.696H434.734C431.676 310.696 429.196 308.217 429.196 305.158V221.569Z" fill="url(#paint31_linear_615_5267)"/>
<path fill-rule="evenodd" clip-rule="evenodd" d="M494.107 260.11C494.739 259.524 495 258.622 494.693 257.823C494.284 256.717 493.791 255.648 493.233 254.635L492.797 253.882C492.183 252.859 491.495 251.893 490.742 250.977C490.184 250.312 489.283 250.082 488.465 250.344L483.287 251.995C482.042 251.034 480.582 250.234 479.197 249.627L478.035 244.32C477.849 243.476 477.199 242.805 476.344 242.663C475.061 242.449 473.741 242.337 472.393 242.337C471.045 242.337 469.725 242.449 468.443 242.663C467.587 242.805 466.937 243.476 466.751 244.32L465.589 249.627C464.12 250.234 462.744 251.034 461.499 251.995L456.325 250.344C455.503 250.082 454.597 250.312 454.047 250.977C453.293 251.893 452.605 252.859 451.991 253.882L451.556 254.635C450.993 255.648 450.501 256.717 450.09 257.823C449.788 258.632 450.042 259.524 450.68 260.11L454.701 263.772C454.599 264.544 454.546 265.334 454.546 266.133C454.546 266.933 454.599 267.723 454.701 268.494L450.68 272.157C450.042 272.742 449.788 273.644 450.09 274.443C450.501 275.549 450.992 276.618 451.556 277.632L451.991 278.385C452.605 279.407 453.293 280.374 454.047 281.294C454.597 281.954 455.503 282.186 456.325 281.926L461.499 280.272C462.744 281.229 464.12 282.028 465.589 282.642L466.751 287.95C466.937 288.786 467.587 289.381 468.443 289.604C469.725 289.818 471.045 289.929 472.309 289.929C473.741 289.929 475.061 289.818 476.344 289.604C477.199 289.381 477.849 288.786 478.035 287.95L479.197 282.642C480.582 282.028 482.042 281.229 483.287 280.272L488.465 281.926C489.283 282.186 490.184 281.954 490.742 281.294C491.495 280.374 492.183 279.407 492.797 278.385L493.233 277.632C493.791 276.618 494.284 275.549 494.693 274.443C495 273.644 494.739 272.742 494.107 272.157L490.082 268.494C490.184 267.723 490.24 266.933 490.24 266.133C490.24 265.334 490.184 264.544 490.082 263.772L494.107 260.11ZM472.391 276.644C478.196 276.644 482.902 271.938 482.902 266.133C482.902 260.329 478.196 255.623 472.391 255.623C466.587 255.623 461.881 260.329 461.881 266.133C461.881 271.938 466.587 276.644 472.391 276.644Z" fill="url(#paint32_linear_615_5267)"/>
<defs>
<filter id="filter0_d_615_5267" x="170.542" y="24.851" width="55.8483" height="19.1935" filterUnits="userSpaceOnUse" color-interpolation-filters="sRGB">
<feFlood flood-opacity="0" result="BackgroundImageFix"/>
<feColorMatrix in="SourceAlpha" type="matrix" values="0 0 0 0 0 0 0 0 0 0 0 0 0 0 0 0 0 0 127 0" result="hardAlpha"/>
<feOffset/>
<feGaussianBlur stdDeviation="0.356737"/>
<feComposite in2="hardAlpha" operator="out"/>
<feColorMatrix type="matrix" values="0 0 0 0 0 0 0 0 0 0.301471 0 0 0 0 0.75 0 0 0 1 0"/>
<feBlend mode="normal" in2="BackgroundImageFix" result="effect1_dropShadow_615_5267"/>
<feBlend mode="normal" in="SourceGraphic" in2="effect1_dropShadow_615_5267" result="shape"/>
</filter>
<filter id="filter1_d_615_5267" x="289.609" y="24.851" width="55.8483" height="19.1935" filterUnits="userSpaceOnUse" color-interpolation-filters="sRGB">
<feFlood flood-opacity="0" result="BackgroundImageFix"/>
<feColorMatrix in="SourceAlpha" type="matrix" values="0 0 0 0 0 0 0 0 0 0 0 0 0 0 0 0 0 0 127 0" result="hardAlpha"/>
<feOffset/>
<feGaussianBlur stdDeviation="0.356737"/>
<feComposite in2="hardAlpha" operator="out"/>
<feColorMatrix type="matrix" values="0 0 0 0 0 0 0 0 0 0.301471 0 0 0 0 0.75 0 0 0 1 0"/>
<feBlend mode="normal" in2="BackgroundImageFix" result="effect1_dropShadow_615_5267"/>
<feBlend mode="normal" in="SourceGraphic" in2="effect1_dropShadow_615_5267" result="shape"/>
</filter>
<filter id="filter2_d_615_5267" x="140.644" y="129.209" width="74.9409" height="25.7556" filterUnits="userSpaceOnUse" color-interpolation-filters="sRGB">
<feFlood flood-opacity="0" result="BackgroundImageFix"/>
<feColorMatrix in="SourceAlpha" type="matrix" values="0 0 0 0 0 0 0 0 0 0 0 0 0 0 0 0 0 0 127 0" result="hardAlpha"/>
<feOffset/>
<feGaussianBlur stdDeviation="0.478693"/>
<feComposite in2="hardAlpha" operator="out"/>
<feColorMatrix type="matrix" values="0 0 0 0 0 0 0 0 0 0.301471 0 0 0 0 0.75 0 0 0 1 0"/>
<feBlend mode="normal" in2="BackgroundImageFix" result="effect1_dropShadow_615_5267"/>
<feBlend mode="normal" in="SourceGraphic" in2="effect1_dropShadow_615_5267" result="shape"/>
</filter>
<filter id="filter3_d_615_5267" x="300.416" y="129.209" width="74.9409" height="25.7556" filterUnits="userSpaceOnUse" color-interpolation-filters="sRGB">
<feFlood flood-opacity="0" result="BackgroundImageFix"/>
<feColorMatrix in="SourceAlpha" type="matrix" values="0 0 0 0 0 0 0 0 0 0 0 0 0 0 0 0 0 0 127 0" result="hardAlpha"/>
<feOffset/>
<feGaussianBlur stdDeviation="0.478693"/>
<feComposite in2="hardAlpha" operator="out"/>
<feColorMatrix type="matrix" values="0 0 0 0 0 0 0 0 0 0.301471 0 0 0 0 0.75 0 0 0 1 0"/>
<feBlend mode="normal" in2="BackgroundImageFix" result="effect1_dropShadow_615_5267"/>
<feBlend mode="normal" in="SourceGraphic" in2="effect1_dropShadow_615_5267" result="shape"/>
</filter>
<filter id="filter4_d_615_5267" x="100.523" y="254.885" width="100.561" height="34.5616" filterUnits="userSpaceOnUse" color-interpolation-filters="sRGB">
<feFlood flood-opacity="0" result="BackgroundImageFix"/>
<feColorMatrix in="SourceAlpha" type="matrix" values="0 0 0 0 0 0 0 0 0 0 0 0 0 0 0 0 0 0 127 0" result="hardAlpha"/>
<feOffset/>
<feGaussianBlur stdDeviation="0.642342"/>
<feComposite in2="hardAlpha" operator="out"/>
<feColorMatrix type="matrix" values="0 0 0 0 0 0 0 0 0 0.301471 0 0 0 0 0.75 0 0 0 1 0"/>
<feBlend mode="normal" in2="BackgroundImageFix" result="effect1_dropShadow_615_5267"/>
<feBlend mode="normal" in="SourceGraphic" in2="effect1_dropShadow_615_5267" result="shape"/>
</filter>
<filter id="filter5_d_615_5267" x="314.916" y="254.885" width="100.561" height="34.5616" filterUnits="userSpaceOnUse" color-interpolation-filters="sRGB">
<feFlood flood-opacity="0" result="BackgroundImageFix"/>
<feColorMatrix in="SourceAlpha" type="matrix" values="0 0 0 0 0 0 0 0 0 0 0 0 0 0 0 0 0 0 127 0" result="hardAlpha"/>
<feOffset/>
<feGaussianBlur stdDeviation="0.642342"/>
<feComposite in2="hardAlpha" operator="out"/>
<feColorMatrix type="matrix" values="0 0 0 0 0 0 0 0 0 0.301471 0 0 0 0 0.75 0 0 0 1 0"/>
<feBlend mode="normal" in2="BackgroundImageFix" result="effect1_dropShadow_615_5267"/>
<feBlend mode="normal" in="SourceGraphic" in2="effect1_dropShadow_615_5267" result="shape"/>
</filter>
<radialGradient id="paint0_radial_615_5267" cx="0" cy="0" r="1" gradientUnits="userSpaceOnUse" gradientTransform="translate(119.972 6.75124) rotate(-8.14295) scale(41.6446 12.3411)">
<stop stop-color="#0051CC"/>
<stop offset="0.473511" stop-color="#0061F1"/>
<stop offset="1" stop-color="#5A97F2"/>
</radialGradient>
<linearGradient id="paint1_linear_615_5267" x1="109.119" y1="17.3112" x2="134.372" y2="58.8403" gradientUnits="userSpaceOnUse">
<stop stop-color="#1D2838"/>
<stop offset="1" stop-color="#1D2838" stop-opacity="0.5"/>
</linearGradient>
<linearGradient id="paint2_linear_615_5267" x1="138.933" y1="44.533" x2="138.933" y2="18.1016" gradientUnits="userSpaceOnUse">
<stop stop-color="#E2E4E9"/>
<stop offset="1" stop-color="white"/>
</linearGradient>
<linearGradient id="paint3_linear_615_5267" x1="198.466" y1="26.1172" x2="198.466" y2="42.7783" gradientUnits="userSpaceOnUse">
<stop stop-color="#232B37"/>
<stop offset="1" stop-color="#004DBF" stop-opacity="0"/>
</linearGradient>
<radialGradient id="paint4_radial_615_5267" cx="0" cy="0" r="1" gradientUnits="userSpaceOnUse" gradientTransform="translate(239.039 6.75124) rotate(-8.14295) scale(41.6446 12.3411)">
<stop stop-color="#0051CC"/>
<stop offset="0.473511" stop-color="#0061F1"/>
<stop offset="1" stop-color="#5A97F2"/>
</radialGradient>
<linearGradient id="paint5_linear_615_5267" x1="228.186" y1="17.3112" x2="253.439" y2="58.8403" gradientUnits="userSpaceOnUse">
<stop stop-color="#1D2838"/>
<stop offset="1" stop-color="#1D2838" stop-opacity="0.5"/>
</linearGradient>
<linearGradient id="paint6_linear_615_5267" x1="258" y1="44.533" x2="258" y2="18.1016" gradientUnits="userSpaceOnUse">
<stop stop-color="#E2E4E9"/>
<stop offset="1" stop-color="white"/>
</linearGradient>
<linearGradient id="paint7_linear_615_5267" x1="317.533" y1="26.1172" x2="317.533" y2="42.7783" gradientUnits="userSpaceOnUse">
<stop stop-color="#232B37"/>
<stop offset="1" stop-color="#004DBF" stop-opacity="0"/>
</linearGradient>
<radialGradient id="paint8_radial_615_5267" cx="0" cy="0" r="1" gradientUnits="userSpaceOnUse" gradientTransform="translate(358.106 6.75124) rotate(-8.14295) scale(41.6446 12.3411)">
<stop stop-color="#0051CC"/>
<stop offset="0.473511" stop-color="#0061F1"/>
<stop offset="1" stop-color="#5A97F2"/>
</radialGradient>
<linearGradient id="paint9_linear_615_5267" x1="347.253" y1="17.3112" x2="372.505" y2="58.8403" gradientUnits="userSpaceOnUse">
<stop stop-color="#1D2838"/>
<stop offset="1" stop-color="#1D2838" stop-opacity="0.5"/>
</linearGradient>
<linearGradient id="paint10_linear_615_5267" x1="377.067" y1="44.533" x2="377.067" y2="18.1016" gradientUnits="userSpaceOnUse">
<stop stop-color="#E2E4E9"/>
<stop offset="1" stop-color="white"/>
</linearGradient>
<radialGradient id="paint11_radial_615_5267" cx="0" cy="0" r="1" gradientUnits="userSpaceOnUse" gradientTransform="translate(72.7853 104.46) rotate(-8.14295) scale(55.8815 16.5602)">
<stop stop-color="#0051CC"/>
<stop offset="0.473511" stop-color="#0061F1"/>
<stop offset="1" stop-color="#5A97F2"/>
</radialGradient>
<linearGradient id="paint12_linear_615_5267" x1="58.2222" y1="118.63" x2="92.1074" y2="174.357" gradientUnits="userSpaceOnUse">
<stop stop-color="#1D2838"/>
<stop offset="1" stop-color="#1D2838" stop-opacity="0.5"/>
</linearGradient>
<linearGradient id="paint13_linear_615_5267" x1="98.228" y1="155.159" x2="98.228" y2="119.691" gradientUnits="userSpaceOnUse">
<stop stop-color="#E2E4E9"/>
<stop offset="1" stop-color="white"/>
</linearGradient>
<linearGradient id="paint14_linear_615_5267" x1="178.114" y1="130.908" x2="178.114" y2="153.265" gradientUnits="userSpaceOnUse">
<stop stop-color="#232B37"/>
<stop offset="1" stop-color="#004DBF" stop-opacity="0"/>
</linearGradient>
<radialGradient id="paint15_radial_615_5267" cx="0" cy="0" r="1" gradientUnits="userSpaceOnUse" gradientTransform="translate(232.557 104.46) rotate(-8.14295) scale(55.8815 16.5602)">
<stop stop-color="#0051CC"/>
<stop offset="0.473511" stop-color="#0061F1"/>
<stop offset="1" stop-color="#5A97F2"/>
</radialGradient>
<linearGradient id="paint16_linear_615_5267" x1="217.994" y1="118.63" x2="251.879" y2="174.357" gradientUnits="userSpaceOnUse">
<stop stop-color="#1D2838"/>
<stop offset="1" stop-color="#1D2838" stop-opacity="0.5"/>
</linearGradient>
<linearGradient id="paint17_linear_615_5267" x1="258" y1="155.159" x2="258" y2="119.691" gradientUnits="userSpaceOnUse">
<stop stop-color="#E2E4E9"/>
<stop offset="1" stop-color="white"/>
</linearGradient>
<linearGradient id="paint18_linear_615_5267" x1="337.886" y1="130.908" x2="337.886" y2="153.265" gradientUnits="userSpaceOnUse">
<stop stop-color="#232B37"/>
<stop offset="1" stop-color="#004DBF" stop-opacity="0"/>
</linearGradient>
<radialGradient id="paint19_radial_615_5267" cx="0" cy="0" r="1" gradientUnits="userSpaceOnUse" gradientTransform="translate(392.329 104.46) rotate(-8.14295) scale(55.8815 16.5602)">
<stop stop-color="#0051CC"/>
<stop offset="0.473511" stop-color="#0061F1"/>
<stop offset="1" stop-color="#5A97F2"/>
</radialGradient>
<linearGradient id="paint20_linear_615_5267" x1="377.766" y1="118.63" x2="411.651" y2="174.357" gradientUnits="userSpaceOnUse">
<stop stop-color="#1D2838"/>
<stop offset="1" stop-color="#1D2838" stop-opacity="0.5"/>
</linearGradient>
<linearGradient id="paint21_linear_615_5267" x1="417.771" y1="155.159" x2="417.771" y2="119.691" gradientUnits="userSpaceOnUse">
<stop stop-color="#E2E4E9"/>
<stop offset="1" stop-color="white"/>
</linearGradient>
<radialGradient id="paint22_radial_615_5267" cx="0" cy="0" r="1" gradientUnits="userSpaceOnUse" gradientTransform="translate(9.46687 221.899) rotate(-8.14295) scale(74.9854 22.2215)">
<stop stop-color="#0051CC"/>
<stop offset="0.473511" stop-color="#0061F1"/>
<stop offset="1" stop-color="#5A97F2"/>
</radialGradient>
<linearGradient id="paint23_linear_615_5267" x1="-10.0749" y1="240.913" x2="35.3945" y2="315.69" gradientUnits="userSpaceOnUse">
<stop stop-color="#1D2838"/>
<stop offset="1" stop-color="#1D2838" stop-opacity="0.5"/>
</linearGradient>
<linearGradient id="paint24_linear_615_5267" x1="43.6075" y1="289.929" x2="43.6075" y2="242.337" gradientUnits="userSpaceOnUse">
<stop stop-color="#E2E4E9"/>
<stop offset="1" stop-color="white"/>
</linearGradient>
<linearGradient id="paint25_linear_615_5267" x1="150.804" y1="257.166" x2="150.804" y2="287.166" gradientUnits="userSpaceOnUse">
<stop stop-color="#232B37"/>
<stop offset="1" stop-color="#004DBF" stop-opacity="0"/>
</linearGradient>
<radialGradient id="paint26_radial_615_5267" cx="0" cy="0" r="1" gradientUnits="userSpaceOnUse" gradientTransform="translate(223.859 221.899) rotate(-8.14295) scale(74.9854 22.2215)">
<stop stop-color="#0051CC"/>
<stop offset="0.473511" stop-color="#0061F1"/>
<stop offset="1" stop-color="#5A97F2"/>
</radialGradient>
<linearGradient id="paint27_linear_615_5267" x1="204.317" y1="240.913" x2="249.787" y2="315.69" gradientUnits="userSpaceOnUse">
<stop stop-color="#1D2838"/>
<stop offset="1" stop-color="#1D2838" stop-opacity="0.5"/>
</linearGradient>
<linearGradient id="paint28_linear_615_5267" x1="258" y1="289.929" x2="258" y2="242.337" gradientUnits="userSpaceOnUse">
<stop stop-color="#E2E4E9"/>
<stop offset="1" stop-color="white"/>
</linearGradient>
<linearGradient id="paint29_linear_615_5267" x1="365.196" y1="257.166" x2="365.196" y2="287.166" gradientUnits="userSpaceOnUse">
<stop stop-color="#232B37"/>
<stop offset="1" stop-color="#004DBF" stop-opacity="0"/>
</linearGradient>
<radialGradient id="paint30_radial_615_5267" cx="0" cy="0" r="1" gradientUnits="userSpaceOnUse" gradientTransform="translate(438.252 221.899) rotate(-8.14295) scale(74.9854 22.2215)">
<stop stop-color="#0051CC"/>
<stop offset="0.473511" stop-color="#0061F1"/>
<stop offset="1" stop-color="#5A97F2"/>
</radialGradient>
<linearGradient id="paint31_linear_615_5267" x1="418.71" y1="240.913" x2="464.179" y2="315.69" gradientUnits="userSpaceOnUse">
<stop stop-color="#1D2838"/>
<stop offset="1" stop-color="#1D2838" stop-opacity="0.5"/>
</linearGradient>
<linearGradient id="paint32_linear_615_5267" x1="472.392" y1="289.929" x2="472.392" y2="242.337" gradientUnits="userSpaceOnUse">
<stop stop-color="#E2E4E9"/>
<stop offset="1" stop-color="white"/>
</linearGradient>
</defs>
</svg>
