<svg width="660" height="345" viewBox="0 0 660 345" fill="none" xmlns="http://www.w3.org/2000/svg">
<rect x="1" y="1.98145" width="658" height="342" rx="3" fill="#0E1319"/>
<path d="M115.879 157.019C115.879 155.409 116.519 153.864 117.657 152.726C118.796 151.587 120.34 150.947 121.951 150.947H154.335C155.945 150.947 157.489 151.587 158.628 152.726C159.767 153.864 160.407 155.409 160.407 157.019V177.259C160.407 178.869 159.767 180.414 158.628 181.553C157.489 182.691 155.945 183.331 154.335 183.331H138.143V167.139C138.143 164.455 137.076 161.881 135.179 159.983C133.281 158.085 130.707 157.019 128.023 157.019H117.903C117.205 157.019 116.527 157.108 115.879 157.274V157.019ZM162.431 191.427H138.143V187.379H162.431C162.967 187.379 163.482 187.592 163.862 187.972C164.241 188.351 164.455 188.866 164.455 189.403C164.455 189.94 164.241 190.455 163.862 190.834C163.482 191.214 162.967 191.427 162.431 191.427ZM115.879 161.067C114.268 161.067 112.724 161.707 111.585 162.846C110.447 163.984 109.807 165.529 109.807 167.139V191.427C109.807 193.037 110.447 194.582 111.585 195.721C112.724 196.859 114.268 197.499 115.879 197.499H128.023C129.633 197.499 131.178 196.859 132.316 195.721C133.455 194.582 134.095 193.037 134.095 191.427V167.139C134.095 165.529 133.455 163.984 132.316 162.846C131.178 161.707 129.633 161.067 128.023 161.067H115.879ZM121.951 191.427C121.414 191.427 120.899 191.214 120.52 190.834C120.14 190.455 119.927 189.94 119.927 189.403C119.927 188.866 120.14 188.351 120.52 187.972C120.899 187.592 121.414 187.379 121.951 187.379C122.488 187.379 123.002 187.592 123.382 187.972C123.762 188.351 123.975 188.866 123.975 189.403C123.975 189.94 123.762 190.455 123.382 190.834C123.002 191.214 122.488 191.427 121.951 191.427Z" fill="#D8E2F0"/>
<path d="M313.123 157.251V161.88C313.123 166.142 303.45 169.595 291.521 169.595C279.592 169.595 269.92 166.142 269.92 161.88V157.251C269.92 152.99 279.592 149.536 291.521 149.536C303.45 149.536 313.123 152.99 313.123 157.251ZM307.838 170.241C309.757 169.527 311.686 168.611 313.123 167.483V177.31C313.123 181.572 303.45 185.024 291.521 185.024C279.592 185.024 269.92 181.572 269.92 177.31V167.483C271.359 168.611 273.2 169.527 275.209 170.241C279.53 171.784 285.301 172.681 291.521 172.681C297.741 172.681 303.508 171.784 307.838 170.241ZM275.209 185.67C279.53 187.213 285.301 188.11 291.521 188.11C297.741 188.11 303.508 187.213 307.838 185.67C309.757 184.957 311.686 184.041 313.123 182.912V191.196C313.123 195.459 303.45 198.911 291.521 198.911C279.592 198.911 269.92 195.459 269.92 191.196V182.912C271.359 184.041 273.2 184.957 275.209 185.67Z" fill="#D8E2F0"/>
<path d="M218.826 211.632L218.826 212.671L218.826 211.632ZM191.281 202.135C191.23 201.563 191.652 201.059 192.224 201.008L201.54 200.18C202.112 200.129 202.617 200.551 202.668 201.123C202.718 201.695 202.296 202.199 201.724 202.25L193.443 202.986L194.179 211.267C194.23 211.839 193.808 212.344 193.236 212.394C192.664 212.445 192.16 212.023 192.109 211.451L191.281 202.135ZM242.11 202.043C242.898 202.72 242.898 202.72 242.897 202.721C242.897 202.721 242.897 202.721 242.897 202.722C242.896 202.722 242.895 202.723 242.894 202.724C242.892 202.727 242.89 202.729 242.887 202.732C242.882 202.739 242.874 202.748 242.864 202.759C242.845 202.781 242.817 202.811 242.782 202.85C242.711 202.928 242.607 203.04 242.472 203.179C242.202 203.457 241.804 203.849 241.28 204.317C240.234 205.251 238.684 206.489 236.652 207.725C232.587 210.199 226.581 212.671 218.826 212.671L218.826 210.593C226.122 210.593 231.759 208.27 235.572 205.95C237.479 204.789 238.928 203.63 239.896 202.766C240.38 202.334 240.742 201.977 240.981 201.731C241.1 201.608 241.188 201.513 241.245 201.451C241.274 201.42 241.294 201.397 241.307 201.382C241.313 201.375 241.318 201.37 241.32 201.367C241.321 201.366 241.322 201.365 241.322 201.365C241.322 201.365 241.322 201.365 241.322 201.365C241.322 201.365 241.322 201.365 241.322 201.365C241.321 201.366 241.321 201.366 242.11 202.043ZM218.826 212.671C211.085 212.671 204.294 210.207 199.459 207.765C197.037 206.542 195.094 205.318 193.754 204.398C193.083 203.938 192.562 203.552 192.206 203.28C192.029 203.144 191.892 203.036 191.798 202.961C191.752 202.924 191.716 202.895 191.691 202.874C191.678 202.864 191.669 202.856 191.662 202.85C191.658 202.847 191.655 202.845 191.653 202.843C191.652 202.843 191.651 202.842 191.651 202.841C191.65 202.841 191.65 202.841 191.65 202.841C191.65 202.84 191.649 202.84 192.316 202.043C192.983 201.246 192.983 201.246 192.983 201.246C192.983 201.246 192.983 201.246 192.983 201.246C192.983 201.246 192.983 201.246 192.983 201.246C192.984 201.247 192.985 201.248 192.987 201.25C192.992 201.253 192.998 201.259 193.008 201.267C193.027 201.282 193.058 201.307 193.099 201.34C193.18 201.405 193.304 201.503 193.469 201.63C193.799 201.882 194.291 202.246 194.93 202.684C196.208 203.562 198.071 204.736 200.396 205.91C205.053 208.262 211.517 210.593 218.826 210.593L218.826 212.671Z" fill="#999999"/>
<path d="M213.285 135.829L213.285 134.79L213.285 135.829ZM240.83 145.326C240.881 145.898 240.459 146.402 239.887 146.453L230.571 147.281C229.999 147.332 229.495 146.91 229.444 146.338C229.393 145.766 229.815 145.262 230.387 145.211L238.668 144.475L237.932 136.194C237.881 135.622 238.304 135.117 238.875 135.066C239.447 135.016 239.952 135.438 240.002 136.01L240.83 145.326ZM190.002 145.418C189.213 144.741 189.214 144.741 189.214 144.74C189.214 144.74 189.214 144.74 189.215 144.739C189.215 144.738 189.216 144.738 189.217 144.737C189.219 144.734 189.221 144.732 189.224 144.728C189.23 144.722 189.237 144.713 189.247 144.702C189.266 144.68 189.294 144.65 189.33 144.611C189.401 144.532 189.504 144.421 189.639 144.282C189.909 144.004 190.308 143.612 190.831 143.144C191.877 142.21 193.427 140.972 195.459 139.736C199.525 137.261 205.53 134.789 213.285 134.79L213.285 136.868C205.989 136.868 200.353 139.19 196.539 141.511C194.632 142.672 193.183 143.831 192.215 144.695C191.732 145.127 191.369 145.484 191.131 145.73C191.011 145.853 190.923 145.948 190.866 146.01C190.838 146.041 190.817 146.064 190.804 146.079C190.798 146.086 190.794 146.091 190.791 146.094C190.79 146.095 190.79 146.096 190.789 146.096C190.789 146.096 190.789 146.096 190.789 146.096C190.789 146.096 190.79 146.096 190.79 146.095C190.79 146.095 190.79 146.095 190.002 145.418ZM213.285 134.79C221.026 134.79 227.818 137.254 232.653 139.696C235.074 140.919 237.017 142.143 238.358 143.063C239.028 143.523 239.549 143.908 239.905 144.181C240.083 144.317 240.219 144.424 240.313 144.499C240.36 144.537 240.396 144.566 240.421 144.587C240.433 144.597 240.443 144.605 240.45 144.611C240.453 144.613 240.456 144.616 240.458 144.618C240.459 144.618 240.46 144.619 240.461 144.62C240.461 144.62 240.461 144.62 240.461 144.62C240.462 144.621 240.462 144.621 239.795 145.418C239.128 146.215 239.128 146.215 239.129 146.215C239.129 146.215 239.129 146.215 239.129 146.215C239.129 146.215 239.129 146.215 239.128 146.215C239.127 146.214 239.126 146.213 239.124 146.211C239.12 146.208 239.113 146.202 239.103 146.194C239.084 146.178 239.054 146.154 239.013 146.121C238.931 146.056 238.807 145.957 238.642 145.831C238.312 145.579 237.82 145.215 237.181 144.777C235.903 143.899 234.04 142.725 231.716 141.551C227.059 139.199 220.595 136.868 213.285 136.868L213.285 134.79Z" fill="#999999"/>
<path d="M145.478 100.926H144.254V90.7591H147.954C148.896 90.7591 149.615 91.0164 150.11 91.5311C150.605 92.0457 150.853 92.7643 150.853 93.6867C150.853 94.5121 150.639 95.1724 150.212 95.6676C149.784 96.1629 149.163 96.4493 148.347 96.527L150.94 100.926H149.571L147.095 96.5853H145.478V100.926ZM147.925 95.5511C148.44 95.5511 148.838 95.4249 149.119 95.1724C149.411 94.9102 149.556 94.5413 149.556 94.0654V93.308C149.556 92.8322 149.411 92.4681 149.119 92.2156C148.838 91.9535 148.44 91.8224 147.925 91.8224H145.478V95.5511H147.925ZM155.668 101.101C155.124 101.101 154.634 101.008 154.197 100.824C153.77 100.639 153.401 100.377 153.09 100.037C152.789 99.6877 152.556 99.275 152.391 98.7992C152.226 98.3137 152.143 97.7748 152.143 97.1825C152.143 96.5804 152.226 96.0366 152.391 95.5511C152.566 95.0656 152.804 94.6529 153.105 94.3131C153.406 93.9635 153.765 93.6965 154.182 93.512C154.61 93.3275 155.081 93.2352 155.595 93.2352C156.1 93.2352 156.557 93.3275 156.964 93.512C157.382 93.6965 157.736 93.9538 158.028 94.2839C158.319 94.6044 158.542 94.9879 158.698 95.4346C158.853 95.8813 158.931 96.3716 158.931 96.9057V97.4592H153.367V97.8088C153.367 98.1389 153.42 98.4448 153.527 98.7264C153.634 99.008 153.784 99.2508 153.978 99.4547C154.182 99.6586 154.425 99.8188 154.707 99.9353C154.998 100.042 155.319 100.096 155.668 100.096C156.173 100.096 156.61 99.979 156.979 99.746C157.348 99.5129 157.63 99.1925 157.824 98.7847L158.683 99.3673C158.46 99.8722 158.086 100.29 157.562 100.62C157.047 100.94 156.416 101.101 155.668 101.101ZM155.595 94.1965C155.275 94.1965 154.979 94.2548 154.707 94.3713C154.435 94.4878 154.197 94.6481 153.993 94.852C153.799 95.0559 153.643 95.2987 153.527 95.5803C153.42 95.8521 153.367 96.1532 153.367 96.4833V96.5853H157.678V96.4251C157.678 96.0949 157.625 95.7939 157.518 95.522C157.421 95.2501 157.28 95.0171 157.096 94.8229C156.921 94.6189 156.702 94.4636 156.44 94.3568C156.188 94.2499 155.906 94.1965 155.595 94.1965ZM165.581 99.7023H165.523C165.038 100.634 164.266 101.101 163.207 101.101C162.285 101.101 161.561 100.756 161.037 100.066C160.522 99.377 160.265 98.4108 160.265 97.1679C160.265 95.925 160.522 94.9588 161.037 94.2694C161.561 93.5799 162.285 93.2352 163.207 93.2352C164.266 93.2352 165.038 93.7013 165.523 94.6335H165.581V93.41H166.747V103.839H165.581V99.7023ZM163.659 100.066C163.921 100.066 164.169 100.032 164.402 99.9645C164.635 99.8965 164.839 99.7994 165.013 99.6732C165.188 99.5372 165.324 99.377 165.421 99.1925C165.528 98.9983 165.581 98.7749 165.581 98.5225V95.8133C165.581 95.5608 165.528 95.3424 165.421 95.1579C165.324 94.9637 165.188 94.8034 165.013 94.6772C164.839 94.5413 164.635 94.4393 164.402 94.3713C164.169 94.3033 163.921 94.2694 163.659 94.2694C162.979 94.2694 162.45 94.4781 162.071 94.8957C161.702 95.3035 161.518 95.8473 161.518 96.527V97.8088C161.518 98.4885 161.702 99.0371 162.071 99.4547C162.45 99.8625 162.979 100.066 163.659 100.066ZM173.762 99.7023H173.703C173.626 99.8868 173.529 100.066 173.412 100.241C173.295 100.406 173.15 100.552 172.975 100.678C172.81 100.804 172.611 100.906 172.378 100.984C172.145 101.062 171.873 101.101 171.562 101.101C170.776 101.101 170.144 100.853 169.669 100.358C169.193 99.8528 168.955 99.1439 168.955 98.2312V93.41H170.12V98.0273C170.12 98.7167 170.271 99.2313 170.572 99.5712C170.873 99.9013 171.315 100.066 171.897 100.066C172.13 100.066 172.358 100.037 172.582 99.979C172.805 99.9208 173.004 99.8334 173.179 99.7168C173.354 99.6003 173.495 99.4547 173.601 99.2799C173.708 99.0954 173.762 98.8769 173.762 98.6244V93.41H174.927V100.926H173.762V99.7023ZM180.339 101.101C179.796 101.101 179.305 101.008 178.868 100.824C178.441 100.639 178.072 100.377 177.761 100.037C177.46 99.6877 177.227 99.275 177.062 98.7992C176.897 98.3137 176.815 97.7748 176.815 97.1825C176.815 96.5804 176.897 96.0366 177.062 95.5511C177.237 95.0656 177.475 94.6529 177.776 94.3131C178.077 93.9635 178.436 93.6965 178.854 93.512C179.281 93.3275 179.752 93.2352 180.267 93.2352C180.772 93.2352 181.228 93.3275 181.636 93.512C182.053 93.6965 182.408 93.9538 182.699 94.2839C182.99 94.6044 183.214 94.9879 183.369 95.4346C183.524 95.8813 183.602 96.3716 183.602 96.9057V97.4592H178.038V97.8088C178.038 98.1389 178.092 98.4448 178.198 98.7264C178.305 99.008 178.456 99.2508 178.65 99.4547C178.854 99.6586 179.097 99.8188 179.378 99.9353C179.669 100.042 179.99 100.096 180.339 100.096C180.844 100.096 181.281 99.979 181.65 99.746C182.019 99.5129 182.301 99.1925 182.495 98.7847L183.355 99.3673C183.131 99.8722 182.757 100.29 182.233 100.62C181.718 100.94 181.087 101.101 180.339 101.101ZM180.267 94.1965C179.946 94.1965 179.65 94.2548 179.378 94.3713C179.106 94.4878 178.868 94.6481 178.664 94.852C178.47 95.0559 178.315 95.2987 178.198 95.5803C178.092 95.8521 178.038 96.1532 178.038 96.4833V96.5853H182.35V96.4251C182.35 96.0949 182.296 95.7939 182.189 95.522C182.092 95.2501 181.951 95.0171 181.767 94.8229C181.592 94.6189 181.374 94.4636 181.111 94.3568C180.859 94.2499 180.577 94.1965 180.267 94.1965ZM188.52 101.101C187.733 101.101 187.053 100.969 186.48 100.707C185.917 100.435 185.437 100.076 185.038 99.6295L185.825 98.9449C186.184 99.3236 186.578 99.6149 187.005 99.8188C187.432 100.023 187.947 100.125 188.549 100.125C189.131 100.125 189.607 100.023 189.976 99.8188C190.355 99.6052 190.544 99.275 190.544 98.8284C190.544 98.6341 190.505 98.4739 190.428 98.3477C190.36 98.2117 190.263 98.1049 190.136 98.0273C190.01 97.9496 189.869 97.8913 189.714 97.8525C189.559 97.8039 189.394 97.7651 189.219 97.7359L188.039 97.5612C187.777 97.5223 187.49 97.4689 187.18 97.4009C186.879 97.333 186.602 97.2262 186.349 97.0805C186.097 96.9251 185.883 96.7212 185.708 96.4687C185.543 96.2163 185.461 95.8861 185.461 95.4783C185.461 95.0996 185.534 94.7743 185.679 94.5024C185.835 94.2208 186.048 93.9878 186.32 93.8033C186.592 93.6091 186.913 93.4683 187.282 93.3809C187.651 93.2838 188.053 93.2352 188.49 93.2352C189.17 93.2352 189.758 93.342 190.253 93.5557C190.758 93.7693 191.19 94.0654 191.549 94.4441L190.792 95.1579C190.704 95.051 190.593 94.9442 190.457 94.8374C190.331 94.7209 190.17 94.6189 189.976 94.5315C189.792 94.4344 189.573 94.3568 189.321 94.2985C189.068 94.2402 188.777 94.2111 188.447 94.2111C187.854 94.2111 187.398 94.3131 187.078 94.517C186.767 94.7209 186.612 95.0171 186.612 95.4055C186.612 95.5997 186.645 95.7648 186.713 95.9007C186.791 96.0269 186.893 96.1289 187.019 96.2066C187.146 96.2843 187.286 96.3474 187.442 96.3959C187.607 96.4348 187.772 96.4687 187.937 96.4979L189.117 96.6727C189.389 96.7115 189.675 96.7649 189.976 96.8329C190.277 96.9009 190.554 97.0125 190.806 97.1679C191.059 97.3135 191.268 97.5126 191.433 97.7651C191.607 98.0175 191.695 98.3477 191.695 98.7555C191.695 99.5032 191.404 100.081 190.821 100.489C190.248 100.897 189.481 101.101 188.52 101.101ZM197.02 100.926C196.447 100.926 196.025 100.766 195.753 100.445C195.491 100.125 195.36 99.712 195.36 99.2071V94.4005H192.854V93.41H194.719C194.971 93.41 195.146 93.3614 195.243 93.2643C195.35 93.1575 195.403 92.9779 195.403 92.7254V90.7591H196.525V93.41H199.948V94.4005H196.525V99.9353H199.948V100.926H197.02ZM213.715 91.8224V100.926H212.492V91.8224H209.098V90.7591H217.109V91.8224H213.715ZM221.327 101.101C220.803 101.101 220.327 101.008 219.9 100.824C219.482 100.639 219.123 100.377 218.822 100.037C218.531 99.6877 218.307 99.275 218.152 98.7992C217.997 98.3137 217.919 97.7699 217.919 97.1679C217.919 96.5756 217.997 96.0366 218.152 95.5511C218.307 95.0656 218.531 94.6529 218.822 94.3131C219.123 93.9635 219.482 93.6965 219.9 93.512C220.327 93.3275 220.803 93.2352 221.327 93.2352C221.852 93.2352 222.323 93.3275 222.74 93.512C223.167 93.6965 223.527 93.9635 223.818 94.3131C224.119 94.6529 224.347 95.0656 224.503 95.5511C224.658 96.0366 224.736 96.5756 224.736 97.1679C224.736 97.7699 224.658 98.3137 224.503 98.7992C224.347 99.275 224.119 99.6877 223.818 100.037C223.527 100.377 223.167 100.639 222.74 100.824C222.323 101.008 221.852 101.101 221.327 101.101ZM221.327 100.096C221.978 100.096 222.502 99.9013 222.9 99.5129C223.299 99.1245 223.498 98.5225 223.498 97.7068V96.629C223.498 95.8133 223.299 95.2113 222.9 94.8229C222.502 94.4344 221.978 94.2402 221.327 94.2402C220.677 94.2402 220.152 94.4344 219.754 94.8229C219.356 95.2113 219.157 95.8133 219.157 96.629V97.7068C219.157 98.5225 219.356 99.1245 219.754 99.5129C220.152 99.9013 220.677 100.096 221.327 100.096ZM238.11 101.101C236.867 101.101 235.94 100.649 235.328 99.746C234.726 98.8429 234.425 97.5417 234.425 95.8424C234.425 94.1431 234.726 92.8419 235.328 91.9389C235.94 91.0358 236.867 90.5843 238.11 90.5843C238.576 90.5843 238.979 90.6474 239.319 90.7737C239.659 90.8999 239.95 91.0698 240.193 91.2834C240.436 91.4971 240.64 91.7398 240.805 92.0117C240.97 92.2739 241.115 92.5409 241.242 92.8128L240.193 93.2935C240.105 93.0701 240.003 92.8614 239.887 92.6672C239.77 92.4632 239.63 92.2885 239.465 92.1428C239.309 91.9874 239.12 91.8661 238.897 91.7787C238.683 91.6913 238.421 91.6476 238.11 91.6476C237.304 91.6476 236.702 91.9535 236.304 92.5652C235.915 93.177 235.721 93.9926 235.721 95.0122V96.6727C235.721 97.6922 235.915 98.5079 236.304 99.1197C236.702 99.7314 237.304 100.037 238.11 100.037C238.421 100.037 238.683 99.9936 238.897 99.9062C239.12 99.8188 239.309 99.7023 239.465 99.5566C239.63 99.4013 239.77 99.2265 239.887 99.0323C240.003 98.8284 240.105 98.6147 240.193 98.3914L241.242 98.8721C241.115 99.1536 240.97 99.4255 240.805 99.6877C240.64 99.9499 240.436 100.188 240.193 100.401C239.95 100.615 239.659 100.785 239.319 100.911C238.979 101.037 238.576 101.101 238.11 101.101ZM242.751 99.9353H244.95V94.4005H242.751V93.41H246.115V95.3035H246.188C246.343 94.7112 246.635 94.2499 247.062 93.9198C247.499 93.5799 248.053 93.41 248.723 93.41H249.771V94.5752H248.358C247.688 94.5752 247.145 94.7694 246.727 95.1579C246.319 95.5463 246.115 96.0561 246.115 96.6872V99.9353H249.028V100.926H242.751V99.9353ZM254.354 101.101C253.81 101.101 253.32 101.008 252.883 100.824C252.455 100.639 252.086 100.377 251.776 100.037C251.475 99.6877 251.242 99.275 251.076 98.7992C250.911 98.3137 250.829 97.7748 250.829 97.1825C250.829 96.5804 250.911 96.0366 251.076 95.5511C251.251 95.0656 251.489 94.6529 251.79 94.3131C252.091 93.9635 252.45 93.6965 252.868 93.512C253.295 93.3275 253.766 93.2352 254.281 93.2352C254.786 93.2352 255.242 93.3275 255.65 93.512C256.068 93.6965 256.422 93.9538 256.713 94.2839C257.005 94.6044 257.228 94.9879 257.383 95.4346C257.539 95.8813 257.616 96.3716 257.616 96.9057V97.4592H252.052V97.8088C252.052 98.1389 252.106 98.4448 252.213 98.7264C252.319 99.008 252.47 99.2508 252.664 99.4547C252.868 99.6586 253.111 99.8188 253.392 99.9353C253.684 100.042 254.004 100.096 254.354 100.096C254.859 100.096 255.296 99.979 255.665 99.746C256.034 99.5129 256.315 99.1925 256.509 98.7847L257.369 99.3673C257.145 99.8722 256.772 100.29 256.247 100.62C255.733 100.94 255.101 101.101 254.354 101.101ZM254.281 94.1965C253.96 94.1965 253.664 94.2548 253.392 94.3713C253.12 94.4878 252.883 94.6481 252.679 94.852C252.484 95.0559 252.329 95.2987 252.213 95.5803C252.106 95.8521 252.052 96.1532 252.052 96.4833V96.5853H256.364V96.4251C256.364 96.0949 256.31 95.7939 256.203 95.522C256.106 95.2501 255.966 95.0171 255.781 94.8229C255.606 94.6189 255.388 94.4636 255.126 94.3568C254.873 94.2499 254.592 94.1965 254.281 94.1965ZM265.287 100.926C264.83 100.926 264.505 100.809 264.311 100.576C264.117 100.343 263.995 100.052 263.947 99.7023H263.874C263.709 100.139 263.442 100.484 263.073 100.736C262.713 100.979 262.228 101.101 261.616 101.101C260.83 101.101 260.203 100.897 259.737 100.489C259.271 100.081 259.038 99.5226 259.038 98.8138C259.038 98.1146 259.291 97.5757 259.795 97.197C260.31 96.8183 261.135 96.629 262.272 96.629H263.874V95.8861C263.874 95.3326 263.718 94.92 263.408 94.6481C263.097 94.3665 262.655 94.2257 262.082 94.2257C261.577 94.2257 261.165 94.3276 260.844 94.5315C260.524 94.7257 260.266 94.9928 260.072 95.3326L259.286 94.75C259.383 94.5558 259.514 94.3665 259.679 94.182C259.844 93.9975 260.048 93.8373 260.291 93.7013C260.533 93.5557 260.81 93.444 261.121 93.3663C261.432 93.2789 261.776 93.2352 262.155 93.2352C263.039 93.2352 263.738 93.4586 264.253 93.9052C264.777 94.3519 265.039 94.9734 265.039 95.7696V99.9062H266.088V100.926H265.287ZM261.82 100.125C262.121 100.125 262.393 100.091 262.636 100.023C262.888 99.945 263.107 99.8479 263.291 99.7314C263.476 99.6052 263.616 99.4595 263.714 99.2944C263.82 99.1197 263.874 98.9352 263.874 98.741V97.5029H262.272C261.572 97.5029 261.063 97.6 260.742 97.7942C260.422 97.9884 260.262 98.27 260.262 98.639V98.9449C260.262 99.3333 260.398 99.6295 260.669 99.8334C260.951 100.028 261.335 100.125 261.82 100.125ZM271.034 100.926C270.461 100.926 270.039 100.766 269.767 100.445C269.505 100.125 269.374 99.712 269.374 99.2071V94.4005H266.869V93.41H268.733C268.985 93.41 269.16 93.3614 269.257 93.2643C269.364 93.1575 269.418 92.9779 269.418 92.7254V90.7591H270.539V93.41H273.962V94.4005H270.539V99.9353H273.962V100.926H271.034ZM279.025 101.101C278.481 101.101 277.991 101.008 277.554 100.824C277.127 100.639 276.758 100.377 276.447 100.037C276.146 99.6877 275.913 99.275 275.748 98.7992C275.583 98.3137 275.5 97.7748 275.5 97.1825C275.5 96.5804 275.583 96.0366 275.748 95.5511C275.923 95.0656 276.161 94.6529 276.462 94.3131C276.763 93.9635 277.122 93.6965 277.539 93.512C277.967 93.3275 278.438 93.2352 278.952 93.2352C279.457 93.2352 279.914 93.3275 280.321 93.512C280.739 93.6965 281.093 93.9538 281.385 94.2839C281.676 94.6044 281.899 94.9879 282.055 95.4346C282.21 95.8813 282.288 96.3716 282.288 96.9057V97.4592H276.724V97.8088C276.724 98.1389 276.777 98.4448 276.884 98.7264C276.991 99.008 277.141 99.2508 277.335 99.4547C277.539 99.6586 277.782 99.8188 278.064 99.9353C278.355 100.042 278.675 100.096 279.025 100.096C279.53 100.096 279.967 99.979 280.336 99.746C280.705 99.5129 280.987 99.1925 281.181 98.7847L282.04 99.3673C281.817 99.8722 281.443 100.29 280.919 100.62C280.404 100.94 279.773 101.101 279.025 101.101ZM278.952 94.1965C278.632 94.1965 278.336 94.2548 278.064 94.3713C277.792 94.4878 277.554 94.6481 277.35 94.852C277.156 95.0559 277 95.2987 276.884 95.5803C276.777 95.8521 276.724 96.1532 276.724 96.4833V96.5853H281.035V96.4251C281.035 96.0949 280.982 95.7939 280.875 95.522C280.778 95.2501 280.637 95.0171 280.452 94.8229C280.278 94.6189 280.059 94.4636 279.797 94.3568C279.545 94.2499 279.263 94.1965 278.952 94.1965ZM286.491 98.9449H288.37L286.695 102.98H285.719L286.491 98.9449ZM170.149 116.926H168.926V106.759H172.625C173.567 106.759 174.286 107.016 174.781 107.531C175.276 108.046 175.524 108.764 175.524 109.687C175.524 110.512 175.31 111.172 174.883 111.668C174.456 112.163 173.834 112.449 173.019 112.527L175.611 116.926H174.242L171.766 112.585H170.149V116.926ZM172.596 111.551C173.111 111.551 173.509 111.425 173.791 111.172C174.082 110.91 174.228 110.541 174.228 110.065V109.308C174.228 108.832 174.082 108.468 173.791 108.216C173.509 107.953 173.111 107.822 172.596 107.822H170.149V111.551H172.596ZM180.339 117.101C179.796 117.101 179.305 117.008 178.868 116.824C178.441 116.639 178.072 116.377 177.761 116.037C177.46 115.688 177.227 115.275 177.062 114.799C176.897 114.314 176.815 113.775 176.815 113.182C176.815 112.58 176.897 112.037 177.062 111.551C177.237 111.066 177.475 110.653 177.776 110.313C178.077 109.963 178.436 109.696 178.854 109.512C179.281 109.327 179.752 109.235 180.267 109.235C180.772 109.235 181.228 109.327 181.636 109.512C182.053 109.696 182.408 109.954 182.699 110.284C182.99 110.604 183.214 110.988 183.369 111.435C183.524 111.881 183.602 112.372 183.602 112.906V113.459H178.038V113.809C178.038 114.139 178.092 114.445 178.198 114.726C178.305 115.008 178.456 115.251 178.65 115.455C178.854 115.659 179.097 115.819 179.378 115.935C179.669 116.042 179.99 116.096 180.339 116.096C180.844 116.096 181.281 115.979 181.65 115.746C182.019 115.513 182.301 115.192 182.495 114.785L183.355 115.367C183.131 115.872 182.757 116.29 182.233 116.62C181.718 116.94 181.087 117.101 180.339 117.101ZM180.267 110.197C179.946 110.197 179.65 110.255 179.378 110.371C179.106 110.488 178.868 110.648 178.664 110.852C178.47 111.056 178.315 111.299 178.198 111.58C178.092 111.852 178.038 112.153 178.038 112.483V112.585H182.35V112.425C182.35 112.095 182.296 111.794 182.189 111.522C182.092 111.25 181.951 111.017 181.767 110.823C181.592 110.619 181.374 110.464 181.111 110.357C180.859 110.25 180.577 110.197 180.267 110.197ZM191.272 116.926C190.816 116.926 190.491 116.809 190.297 116.576C190.102 116.343 189.981 116.052 189.932 115.702H189.86C189.695 116.139 189.428 116.484 189.059 116.736C188.699 116.979 188.214 117.101 187.602 117.101C186.815 117.101 186.189 116.897 185.723 116.489C185.257 116.081 185.024 115.523 185.024 114.814C185.024 114.115 185.276 113.576 185.781 113.197C186.296 112.818 187.121 112.629 188.257 112.629H189.86V111.886C189.86 111.333 189.704 110.92 189.394 110.648C189.083 110.366 188.641 110.226 188.068 110.226C187.563 110.226 187.15 110.328 186.83 110.532C186.51 110.726 186.252 110.993 186.058 111.333L185.271 110.75C185.369 110.556 185.5 110.366 185.665 110.182C185.83 109.997 186.034 109.837 186.277 109.701C186.519 109.556 186.796 109.444 187.107 109.366C187.417 109.279 187.762 109.235 188.141 109.235C189.025 109.235 189.724 109.459 190.238 109.905C190.763 110.352 191.025 110.973 191.025 111.77V115.906H192.074V116.926H191.272ZM187.806 116.125C188.107 116.125 188.379 116.091 188.622 116.023C188.874 115.945 189.092 115.848 189.277 115.731C189.461 115.605 189.602 115.46 189.699 115.294C189.806 115.12 189.86 114.935 189.86 114.741V113.503H188.257C187.558 113.503 187.048 113.6 186.728 113.794C186.408 113.988 186.247 114.27 186.247 114.639V114.945C186.247 115.333 186.383 115.629 186.655 115.833C186.937 116.028 187.32 116.125 187.806 116.125ZM198.477 115.702H198.418C197.933 116.634 197.161 117.101 196.103 117.101C195.18 117.101 194.457 116.756 193.932 116.066C193.418 115.377 193.16 114.411 193.16 113.168C193.16 111.925 193.418 110.959 193.932 110.269C194.457 109.58 195.18 109.235 196.103 109.235C197.161 109.235 197.933 109.701 198.418 110.633H198.477V106.147H199.642V116.926H198.477V115.702ZM196.554 116.066C196.816 116.066 197.064 116.032 197.297 115.964C197.53 115.896 197.734 115.799 197.909 115.673C198.083 115.537 198.219 115.377 198.316 115.192C198.423 114.998 198.477 114.775 198.477 114.522V111.813C198.477 111.561 198.423 111.342 198.316 111.158C198.219 110.964 198.083 110.803 197.909 110.677C197.734 110.541 197.53 110.439 197.297 110.371C197.064 110.303 196.816 110.269 196.554 110.269C195.874 110.269 195.345 110.478 194.966 110.896C194.597 111.304 194.413 111.847 194.413 112.527V113.809C194.413 114.488 194.597 115.037 194.966 115.455C195.345 115.863 195.874 116.066 196.554 116.066ZM204.253 114.945H206.132L204.457 118.98H203.482L204.253 114.945ZM219.346 106.759V112.862C219.346 113.357 219.361 113.799 219.39 114.187C219.419 114.576 219.497 114.911 219.623 115.192C219.749 115.464 219.944 115.673 220.206 115.819C220.478 115.964 220.852 116.037 221.327 116.037C221.803 116.037 222.172 115.964 222.434 115.819C222.706 115.673 222.905 115.464 223.032 115.192C223.158 114.911 223.235 114.576 223.265 114.187C223.294 113.799 223.308 113.357 223.308 112.862V106.759H224.532V112.571C224.532 113.328 224.493 113.988 224.415 114.552C224.347 115.115 224.197 115.586 223.964 115.964C223.74 116.343 223.415 116.63 222.988 116.824C222.57 117.008 222.017 117.101 221.327 117.101C220.638 117.101 220.08 117.008 219.652 116.824C219.235 116.63 218.91 116.343 218.676 115.964C218.453 115.586 218.303 115.115 218.225 114.552C218.157 113.988 218.123 113.328 218.123 112.571V106.759H219.346ZM226.565 109.41H227.731V110.633H227.789C228.274 109.701 229.046 109.235 230.105 109.235C231.027 109.235 231.746 109.58 232.26 110.269C232.785 110.959 233.047 111.925 233.047 113.168C233.047 114.411 232.785 115.377 232.26 116.066C231.746 116.756 231.027 117.101 230.105 117.101C229.046 117.101 228.274 116.634 227.789 115.702H227.731V119.839H226.565V109.41ZM229.653 116.066C230.333 116.066 230.857 115.863 231.226 115.455C231.605 115.037 231.794 114.488 231.794 113.809V112.527C231.794 111.847 231.605 111.304 231.226 110.896C230.857 110.478 230.333 110.269 229.653 110.269C229.391 110.269 229.143 110.303 228.91 110.371C228.677 110.439 228.473 110.541 228.299 110.677C228.124 110.803 227.983 110.964 227.876 111.158C227.779 111.342 227.731 111.561 227.731 111.813V114.522C227.731 114.775 227.779 114.998 227.876 115.192C227.983 115.377 228.124 115.537 228.299 115.673C228.473 115.799 228.677 115.896 228.91 115.964C229.143 116.032 229.391 116.066 229.653 116.066ZM239.596 115.702H239.537C239.052 116.634 238.28 117.101 237.222 117.101C236.299 117.101 235.576 116.756 235.051 116.066C234.537 115.377 234.279 114.411 234.279 113.168C234.279 111.925 234.537 110.959 235.051 110.269C235.576 109.58 236.299 109.235 237.222 109.235C238.28 109.235 239.052 109.701 239.537 110.633H239.596V106.147H240.761V116.926H239.596V115.702ZM237.673 116.066C237.935 116.066 238.183 116.032 238.416 115.964C238.649 115.896 238.853 115.799 239.028 115.673C239.202 115.537 239.338 115.377 239.435 115.192C239.542 114.998 239.596 114.775 239.596 114.522V111.813C239.596 111.561 239.542 111.342 239.435 111.158C239.338 110.964 239.202 110.803 239.028 110.677C238.853 110.541 238.649 110.439 238.416 110.371C238.183 110.303 237.935 110.269 237.673 110.269C236.993 110.269 236.464 110.478 236.085 110.896C235.716 111.304 235.532 111.847 235.532 112.527V113.809C235.532 114.488 235.716 115.037 236.085 115.455C236.464 115.863 236.993 116.066 237.673 116.066ZM248.839 116.926C248.383 116.926 248.057 116.809 247.863 116.576C247.669 116.343 247.548 116.052 247.499 115.702H247.426C247.261 116.139 246.994 116.484 246.625 116.736C246.266 116.979 245.78 117.101 245.169 117.101C244.382 117.101 243.756 116.897 243.29 116.489C242.824 116.081 242.59 115.523 242.59 114.814C242.59 114.115 242.843 113.576 243.348 113.197C243.863 112.818 244.688 112.629 245.824 112.629H247.426V111.886C247.426 111.333 247.271 110.92 246.96 110.648C246.649 110.366 246.208 110.226 245.635 110.226C245.13 110.226 244.717 110.328 244.397 110.532C244.076 110.726 243.819 110.993 243.625 111.333L242.838 110.75C242.935 110.556 243.066 110.366 243.231 110.182C243.396 109.997 243.6 109.837 243.843 109.701C244.086 109.556 244.363 109.444 244.673 109.366C244.984 109.279 245.329 109.235 245.707 109.235C246.591 109.235 247.29 109.459 247.805 109.905C248.329 110.352 248.591 110.973 248.591 111.77V115.906H249.64V116.926H248.839ZM245.372 116.125C245.673 116.125 245.945 116.091 246.188 116.023C246.441 115.945 246.659 115.848 246.844 115.731C247.028 115.605 247.169 115.46 247.266 115.294C247.373 115.12 247.426 114.935 247.426 114.741V113.503H245.824C245.125 113.503 244.615 113.6 244.295 113.794C243.974 113.988 243.814 114.27 243.814 114.639V114.945C243.814 115.333 243.95 115.629 244.222 115.833C244.503 116.028 244.887 116.125 245.372 116.125ZM254.587 116.926C254.014 116.926 253.591 116.766 253.32 116.445C253.057 116.125 252.926 115.712 252.926 115.207V110.4H250.421V109.41H252.285C252.538 109.41 252.713 109.361 252.81 109.264C252.917 109.158 252.97 108.978 252.97 108.725V106.759H254.092V109.41H257.514V110.4H254.092V115.935H257.514V116.926H254.587ZM262.577 117.101C262.034 117.101 261.543 117.008 261.106 116.824C260.679 116.639 260.31 116.377 259.999 116.037C259.698 115.688 259.465 115.275 259.3 114.799C259.135 114.314 259.053 113.775 259.053 113.182C259.053 112.58 259.135 112.037 259.3 111.551C259.475 111.066 259.713 110.653 260.014 110.313C260.315 109.963 260.674 109.696 261.092 109.512C261.519 109.327 261.99 109.235 262.505 109.235C263.01 109.235 263.466 109.327 263.874 109.512C264.291 109.696 264.646 109.954 264.937 110.284C265.228 110.604 265.452 110.988 265.607 111.435C265.762 111.881 265.84 112.372 265.84 112.906V113.459H260.276V113.809C260.276 114.139 260.33 114.445 260.436 114.726C260.543 115.008 260.694 115.251 260.888 115.455C261.092 115.659 261.335 115.819 261.616 115.935C261.907 116.042 262.228 116.096 262.577 116.096C263.082 116.096 263.519 115.979 263.888 115.746C264.257 115.513 264.539 115.192 264.733 114.785L265.593 115.367C265.369 115.872 264.995 116.29 264.471 116.62C263.956 116.94 263.325 117.101 262.577 117.101ZM262.505 110.197C262.184 110.197 261.888 110.255 261.616 110.371C261.344 110.488 261.106 110.648 260.902 110.852C260.708 111.056 260.553 111.299 260.436 111.58C260.33 111.852 260.276 112.153 260.276 112.483V112.585H264.588V112.425C264.588 112.095 264.534 111.794 264.427 111.522C264.33 111.25 264.189 111.017 264.005 110.823C263.83 110.619 263.612 110.464 263.349 110.357C263.097 110.25 262.815 110.197 262.505 110.197Z" fill="white"/>
<path d="M162.764 240.536H161.541V230.369H165.24C166.182 230.369 166.901 230.627 167.396 231.141C167.891 231.656 168.139 232.375 168.139 233.297C168.139 234.122 167.925 234.783 167.498 235.278C167.071 235.773 166.449 236.06 165.634 236.137L168.226 240.536H166.857L164.381 236.196H162.764V240.536ZM165.211 235.161C165.726 235.161 166.124 235.035 166.406 234.783C166.697 234.521 166.843 234.152 166.843 233.676V232.918C166.843 232.443 166.697 232.078 166.406 231.826C166.124 231.564 165.726 231.433 165.211 231.433H162.764V235.161H165.211ZM173.464 240.711C172.92 240.711 172.43 240.619 171.993 240.434C171.566 240.25 171.197 239.988 170.886 239.648C170.585 239.298 170.352 238.885 170.187 238.41C170.022 237.924 169.939 237.385 169.939 236.793C169.939 236.191 170.022 235.647 170.187 235.161C170.362 234.676 170.6 234.263 170.901 233.923C171.202 233.574 171.561 233.307 171.979 233.122C172.406 232.938 172.877 232.846 173.391 232.846C173.896 232.846 174.353 232.938 174.761 233.122C175.178 233.307 175.533 233.564 175.824 233.894C176.115 234.215 176.339 234.598 176.494 235.045C176.649 235.492 176.727 235.982 176.727 236.516V237.07H171.163V237.419C171.163 237.749 171.216 238.055 171.323 238.337C171.43 238.618 171.58 238.861 171.775 239.065C171.979 239.269 172.221 239.429 172.503 239.546C172.794 239.652 173.115 239.706 173.464 239.706C173.969 239.706 174.406 239.589 174.775 239.356C175.144 239.123 175.426 238.803 175.62 238.395L176.479 238.978C176.256 239.483 175.882 239.9 175.358 240.23C174.843 240.551 174.212 240.711 173.464 240.711ZM173.391 233.807C173.071 233.807 172.775 233.865 172.503 233.982C172.231 234.098 171.993 234.258 171.789 234.462C171.595 234.666 171.44 234.909 171.323 235.191C171.216 235.462 171.163 235.764 171.163 236.094V236.196H175.474V236.035C175.474 235.705 175.421 235.404 175.314 235.132C175.217 234.86 175.076 234.627 174.892 234.433C174.717 234.229 174.498 234.074 174.236 233.967C173.984 233.86 173.702 233.807 173.391 233.807ZM182.154 240.711C181.368 240.711 180.688 240.58 180.115 240.318C179.552 240.046 179.071 239.686 178.673 239.24L179.46 238.555C179.819 238.934 180.212 239.225 180.639 239.429C181.067 239.633 181.581 239.735 182.183 239.735C182.766 239.735 183.242 239.633 183.611 239.429C183.989 239.216 184.179 238.885 184.179 238.439C184.179 238.244 184.14 238.084 184.062 237.958C183.994 237.822 183.897 237.715 183.771 237.638C183.645 237.56 183.504 237.502 183.349 237.463C183.193 237.414 183.028 237.375 182.853 237.346L181.674 237.172C181.411 237.133 181.125 237.079 180.814 237.011C180.513 236.943 180.236 236.837 179.984 236.691C179.731 236.535 179.518 236.332 179.343 236.079C179.178 235.827 179.095 235.496 179.095 235.089C179.095 234.71 179.168 234.385 179.314 234.113C179.469 233.831 179.683 233.598 179.955 233.414C180.227 233.219 180.547 233.079 180.916 232.991C181.285 232.894 181.688 232.846 182.125 232.846C182.805 232.846 183.392 232.952 183.887 233.166C184.392 233.38 184.825 233.676 185.184 234.055L184.426 234.768C184.339 234.661 184.227 234.555 184.091 234.448C183.965 234.331 183.805 234.229 183.611 234.142C183.426 234.045 183.208 233.967 182.955 233.909C182.703 233.851 182.411 233.821 182.081 233.821C181.489 233.821 181.033 233.923 180.712 234.127C180.401 234.331 180.246 234.627 180.246 235.016C180.246 235.21 180.28 235.375 180.348 235.511C180.426 235.637 180.528 235.739 180.654 235.817C180.78 235.895 180.921 235.958 181.076 236.006C181.241 236.045 181.406 236.079 181.572 236.108L182.751 236.283C183.023 236.322 183.31 236.375 183.611 236.443C183.912 236.511 184.188 236.623 184.441 236.778C184.693 236.924 184.902 237.123 185.067 237.375C185.242 237.628 185.329 237.958 185.329 238.366C185.329 239.114 185.038 239.691 184.456 240.099C183.883 240.507 183.115 240.711 182.154 240.711ZM187.814 233.02H188.98V234.244H189.038C189.523 233.312 190.295 232.846 191.354 232.846C192.276 232.846 192.995 233.19 193.51 233.88C194.034 234.569 194.296 235.535 194.296 236.778C194.296 238.021 194.034 238.987 193.51 239.677C192.995 240.366 192.276 240.711 191.354 240.711C190.295 240.711 189.523 240.245 189.038 239.313H188.98V243.449H187.814V233.02ZM190.902 239.677C191.582 239.677 192.106 239.473 192.475 239.065C192.854 238.647 193.043 238.099 193.043 237.419V236.137C193.043 235.458 192.854 234.914 192.475 234.506C192.106 234.088 191.582 233.88 190.902 233.88C190.64 233.88 190.393 233.914 190.159 233.982C189.926 234.05 189.723 234.152 189.548 234.288C189.373 234.414 189.232 234.574 189.125 234.768C189.028 234.953 188.98 235.171 188.98 235.424V238.133C188.98 238.385 189.028 238.609 189.125 238.803C189.232 238.987 189.373 239.148 189.548 239.284C189.723 239.41 189.926 239.507 190.159 239.575C190.393 239.643 190.64 239.677 190.902 239.677ZM199.534 240.711C199.01 240.711 198.534 240.619 198.107 240.434C197.689 240.25 197.33 239.988 197.029 239.648C196.737 239.298 196.514 238.885 196.359 238.41C196.203 237.924 196.126 237.38 196.126 236.778C196.126 236.186 196.203 235.647 196.359 235.161C196.514 234.676 196.737 234.263 197.029 233.923C197.33 233.574 197.689 233.307 198.107 233.122C198.534 232.938 199.01 232.846 199.534 232.846C200.058 232.846 200.529 232.938 200.947 233.122C201.374 233.307 201.733 233.574 202.025 233.923C202.326 234.263 202.554 234.676 202.709 235.161C202.865 235.647 202.942 236.186 202.942 236.778C202.942 237.38 202.865 237.924 202.709 238.41C202.554 238.885 202.326 239.298 202.025 239.648C201.733 239.988 201.374 240.25 200.947 240.434C200.529 240.619 200.058 240.711 199.534 240.711ZM199.534 239.706C200.185 239.706 200.709 239.512 201.107 239.123C201.505 238.735 201.704 238.133 201.704 237.317V236.239C201.704 235.424 201.505 234.822 201.107 234.433C200.709 234.045 200.185 233.851 199.534 233.851C198.883 233.851 198.359 234.045 197.961 234.433C197.563 234.822 197.364 235.424 197.364 236.239V237.317C197.364 238.133 197.563 238.735 197.961 239.123C198.359 239.512 198.883 239.706 199.534 239.706ZM205.325 240.536V233.02H206.491V234.244H206.549C206.627 234.059 206.724 233.885 206.84 233.719C206.957 233.545 207.097 233.394 207.263 233.268C207.437 233.142 207.641 233.04 207.874 232.962C208.107 232.884 208.379 232.846 208.69 232.846C209.476 232.846 210.108 233.098 210.583 233.603C211.059 234.098 211.297 234.802 211.297 235.715V240.536H210.132V235.919C210.132 235.229 209.981 234.72 209.68 234.39C209.379 234.05 208.938 233.88 208.355 233.88C208.122 233.88 207.894 233.909 207.67 233.967C207.447 234.025 207.248 234.113 207.073 234.229C206.898 234.346 206.758 234.496 206.651 234.681C206.544 234.865 206.491 235.079 206.491 235.322V240.536H205.325ZM217.089 240.711C216.302 240.711 215.622 240.58 215.049 240.318C214.486 240.046 214.006 239.686 213.607 239.24L214.394 238.555C214.753 238.934 215.146 239.225 215.574 239.429C216.001 239.633 216.516 239.735 217.118 239.735C217.7 239.735 218.176 239.633 218.545 239.429C218.924 239.216 219.113 238.885 219.113 238.439C219.113 238.244 219.074 238.084 218.997 237.958C218.929 237.822 218.832 237.715 218.705 237.638C218.579 237.56 218.438 237.502 218.283 237.463C218.128 237.414 217.962 237.375 217.788 237.346L216.608 237.172C216.346 237.133 216.059 237.079 215.749 237.011C215.447 236.943 215.171 236.837 214.918 236.691C214.666 236.535 214.452 236.332 214.277 236.079C214.112 235.827 214.03 235.496 214.03 235.089C214.03 234.71 214.103 234.385 214.248 234.113C214.404 233.831 214.617 233.598 214.889 233.414C215.161 233.219 215.481 233.079 215.85 232.991C216.219 232.894 216.622 232.846 217.059 232.846C217.739 232.846 218.327 232.952 218.822 233.166C219.327 233.38 219.759 233.676 220.118 234.055L219.361 234.768C219.273 234.661 219.162 234.555 219.026 234.448C218.9 234.331 218.739 234.229 218.545 234.142C218.361 234.045 218.142 233.967 217.89 233.909C217.637 233.851 217.346 233.821 217.016 233.821C216.423 233.821 215.967 233.923 215.647 234.127C215.336 234.331 215.18 234.627 215.18 235.016C215.18 235.21 215.214 235.375 215.282 235.511C215.36 235.637 215.462 235.739 215.588 235.817C215.715 235.895 215.855 235.958 216.011 236.006C216.176 236.045 216.341 236.079 216.506 236.108L217.686 236.283C217.958 236.322 218.244 236.375 218.545 236.443C218.846 236.511 219.123 236.623 219.375 236.778C219.628 236.924 219.837 237.123 220.002 237.375C220.176 237.628 220.264 237.958 220.264 238.366C220.264 239.114 219.972 239.691 219.39 240.099C218.817 240.507 218.05 240.711 217.089 240.711ZM225.866 240.711C225.322 240.711 224.832 240.619 224.395 240.434C223.967 240.25 223.598 239.988 223.288 239.648C222.987 239.298 222.754 238.885 222.589 238.41C222.424 237.924 222.341 237.385 222.341 236.793C222.341 236.191 222.424 235.647 222.589 235.161C222.763 234.676 223.001 234.263 223.302 233.923C223.603 233.574 223.963 233.307 224.38 233.122C224.807 232.938 225.278 232.846 225.793 232.846C226.298 232.846 226.754 232.938 227.162 233.122C227.58 233.307 227.934 233.564 228.225 233.894C228.517 234.215 228.74 234.598 228.895 235.045C229.051 235.492 229.128 235.982 229.128 236.516V237.07H223.564V237.419C223.564 237.749 223.618 238.055 223.725 238.337C223.832 238.618 223.982 238.861 224.176 239.065C224.38 239.269 224.623 239.429 224.904 239.546C225.196 239.652 225.516 239.706 225.866 239.706C226.371 239.706 226.808 239.589 227.177 239.356C227.546 239.123 227.827 238.803 228.022 238.395L228.881 238.978C228.658 239.483 228.284 239.9 227.759 240.23C227.245 240.551 226.614 240.711 225.866 240.711ZM225.793 233.807C225.473 233.807 225.176 233.865 224.904 233.982C224.633 234.098 224.395 234.258 224.191 234.462C223.997 234.666 223.841 234.909 223.725 235.191C223.618 235.462 223.564 235.764 223.564 236.094V236.196H227.876V236.035C227.876 235.705 227.822 235.404 227.716 235.132C227.619 234.86 227.478 234.627 227.293 234.433C227.118 234.229 226.9 234.074 226.638 233.967C226.385 233.86 226.104 233.807 225.793 233.807ZM240.216 230.369H243.056C244.299 230.369 245.226 230.797 245.838 231.651C246.45 232.506 246.756 233.773 246.756 235.453C246.756 237.133 246.45 238.4 245.838 239.254C245.226 240.109 244.299 240.536 243.056 240.536H240.216V230.369ZM242.998 239.473C243.814 239.473 244.425 239.191 244.833 238.628C245.251 238.065 245.46 237.269 245.46 236.239V234.666C245.46 233.637 245.251 232.841 244.833 232.278C244.425 231.714 243.814 231.433 242.998 231.433H241.439V239.473H242.998ZM254.776 240.536C254.319 240.536 253.994 240.42 253.8 240.187C253.606 239.954 253.484 239.662 253.436 239.313H253.363C253.198 239.75 252.931 240.094 252.562 240.347C252.203 240.59 251.717 240.711 251.105 240.711C250.319 240.711 249.692 240.507 249.226 240.099C248.76 239.691 248.527 239.133 248.527 238.424C248.527 237.725 248.78 237.186 249.285 236.807C249.799 236.429 250.625 236.239 251.761 236.239H253.363V235.496C253.363 234.943 253.208 234.53 252.897 234.258C252.586 233.977 252.144 233.836 251.571 233.836C251.066 233.836 250.654 233.938 250.333 234.142C250.013 234.336 249.756 234.603 249.561 234.943L248.775 234.36C248.872 234.166 249.003 233.977 249.168 233.792C249.333 233.608 249.537 233.448 249.78 233.312C250.023 233.166 250.299 233.054 250.61 232.977C250.921 232.889 251.265 232.846 251.644 232.846C252.528 232.846 253.227 233.069 253.742 233.516C254.266 233.962 254.528 234.584 254.528 235.38V239.517H255.577V240.536H254.776ZM251.309 239.735C251.61 239.735 251.882 239.701 252.125 239.633C252.377 239.555 252.596 239.458 252.78 239.342C252.965 239.216 253.106 239.07 253.203 238.905C253.31 238.73 253.363 238.546 253.363 238.351V237.113H251.761C251.062 237.113 250.552 237.21 250.231 237.405C249.911 237.599 249.751 237.88 249.751 238.249V238.555C249.751 238.944 249.887 239.24 250.159 239.444C250.44 239.638 250.824 239.735 251.309 239.735ZM261.033 240.536C260.46 240.536 260.038 240.376 259.766 240.055C259.504 239.735 259.373 239.322 259.373 238.817V234.011H256.867V233.02H258.732C258.984 233.02 259.159 232.972 259.256 232.875C259.363 232.768 259.416 232.588 259.416 232.336V230.369H260.538V233.02H263.961V234.011H260.538V239.546H263.961V240.536H261.033ZM272.243 240.536C271.787 240.536 271.461 240.42 271.267 240.187C271.073 239.954 270.951 239.662 270.903 239.313H270.83C270.665 239.75 270.398 240.094 270.029 240.347C269.67 240.59 269.184 240.711 268.572 240.711C267.786 240.711 267.16 240.507 266.693 240.099C266.227 239.691 265.994 239.133 265.994 238.424C265.994 237.725 266.247 237.186 266.752 236.807C267.266 236.429 268.092 236.239 269.228 236.239H270.83V235.496C270.83 234.943 270.675 234.53 270.364 234.258C270.053 233.977 269.611 233.836 269.039 233.836C268.534 233.836 268.121 233.938 267.8 234.142C267.48 234.336 267.223 234.603 267.029 234.943L266.242 234.36C266.339 234.166 266.47 233.977 266.635 233.792C266.8 233.608 267.004 233.448 267.247 233.312C267.49 233.166 267.766 233.054 268.077 232.977C268.388 232.889 268.733 232.846 269.111 232.846C269.995 232.846 270.694 233.069 271.209 233.516C271.733 233.962 271.995 234.584 271.995 235.38V239.517H273.044V240.536H272.243ZM268.776 239.735C269.077 239.735 269.349 239.701 269.592 239.633C269.844 239.555 270.063 239.458 270.247 239.342C270.432 239.216 270.573 239.07 270.67 238.905C270.777 238.73 270.83 238.546 270.83 238.351V237.113H269.228C268.529 237.113 268.019 237.21 267.699 237.405C267.378 237.599 267.218 237.88 267.218 238.249V238.555C267.218 238.944 267.354 239.24 267.626 239.444C267.907 239.638 268.291 239.735 268.776 239.735Z" fill="white"/>
<path d="M185.287 179.344H183.131V169.177H187.064C187.559 169.177 188.001 169.255 188.389 169.41C188.777 169.556 189.103 169.769 189.365 170.051C189.637 170.333 189.841 170.672 189.977 171.071C190.113 171.469 190.181 171.915 190.181 172.411C190.181 173.129 190.025 173.746 189.714 174.26C189.404 174.775 188.962 175.115 188.389 175.28L190.384 179.344H187.996L186.292 175.571H185.287V179.344ZM186.539 173.882C187.054 173.882 187.408 173.785 187.602 173.59C187.806 173.396 187.908 173.076 187.908 172.629V172.192C187.908 171.745 187.806 171.425 187.602 171.231C187.408 171.037 187.054 170.939 186.539 170.939H185.287V173.882H186.539ZM191.923 179.344V169.177H198.419V170.969H194.108V173.299H198.273V175.091H194.108V177.552H198.419V179.344H191.923ZM203.7 179.519C202.846 179.519 202.103 179.378 201.472 179.096C200.841 178.815 200.331 178.431 199.943 177.945L201.21 176.547C201.579 176.955 201.982 177.256 202.419 177.45C202.865 177.644 203.317 177.742 203.773 177.742C204.298 177.742 204.696 177.625 204.968 177.392C205.24 177.159 205.376 176.824 205.376 176.387C205.376 176.028 205.269 175.756 205.055 175.571C204.851 175.387 204.502 175.256 204.006 175.178L202.943 175.003C202.03 174.848 201.37 174.513 200.962 173.998C200.554 173.474 200.35 172.838 200.35 172.09C200.35 171.109 200.671 170.352 201.312 169.818C201.953 169.274 202.851 169.002 204.006 169.002C204.793 169.002 205.477 169.124 206.06 169.366C206.643 169.609 207.114 169.939 207.473 170.357L206.235 171.741C205.963 171.44 205.643 171.207 205.274 171.041C204.905 170.867 204.487 170.779 204.021 170.779C203.04 170.779 202.55 171.182 202.55 171.988C202.55 172.338 202.657 172.6 202.87 172.775C203.094 172.95 203.453 173.081 203.948 173.168L205.011 173.357C205.837 173.503 206.473 173.814 206.919 174.29C207.366 174.765 207.589 175.406 207.589 176.212C207.589 176.688 207.507 177.13 207.342 177.538C207.177 177.936 206.929 178.285 206.599 178.586C206.269 178.878 205.861 179.106 205.376 179.271C204.9 179.436 204.341 179.519 203.7 179.519ZM213.687 170.969V179.344H211.502V170.969H208.574V169.177H216.614V170.969H213.687ZM232.028 179.344L231.387 176.897H228.605L227.979 179.344H225.765L228.518 169.177H231.605L234.358 179.344H232.028ZM230.061 171.289H229.945L228.955 175.134H231.052L230.061 171.289ZM235.532 179.344V169.177H239.465C239.96 169.177 240.402 169.255 240.791 169.41C241.179 169.556 241.504 169.769 241.766 170.051C242.038 170.333 242.242 170.672 242.378 171.071C242.514 171.469 242.582 171.915 242.582 172.411C242.582 172.906 242.514 173.352 242.378 173.751C242.242 174.149 242.038 174.489 241.766 174.77C241.504 175.052 241.179 175.27 240.791 175.426C240.402 175.571 239.96 175.644 239.465 175.644H237.732V179.344H235.532ZM237.732 173.882H238.912C239.426 173.882 239.781 173.785 239.975 173.59C240.179 173.396 240.281 173.076 240.281 172.629V172.192C240.281 171.745 240.179 171.425 239.975 171.231C239.781 171.037 239.426 170.939 238.912 170.939H237.732V173.882ZM244.251 179.344V177.727H246.436V170.794H244.251V169.177H250.806V170.794H248.621V177.727H250.806V179.344H244.251Z" fill="white"/>
<path d="M458.567 157.251V161.88C458.567 166.142 448.895 169.595 436.966 169.595C425.036 169.595 415.364 166.142 415.364 161.88V157.251C415.364 152.99 425.036 149.536 436.966 149.536C448.895 149.536 458.567 152.99 458.567 157.251ZM453.282 170.241C455.201 169.527 457.13 168.611 458.567 167.483V177.31C458.567 181.572 448.895 185.024 436.966 185.024C425.036 185.024 415.364 181.572 415.364 177.31V167.483C416.804 168.611 418.645 169.527 420.653 170.241C424.975 171.784 430.745 172.681 436.966 172.681C443.186 172.681 448.952 171.784 453.282 170.241ZM420.653 185.67C424.975 187.213 430.745 188.11 436.966 188.11C443.186 188.11 448.952 187.213 453.282 185.67C455.201 184.957 457.13 184.041 458.567 182.912V191.196C458.567 195.459 448.895 198.911 436.966 198.911C425.036 198.911 415.364 195.459 415.364 191.196V182.912C416.804 184.041 418.645 184.957 420.653 185.67Z" fill="#D8E2F0"/>
<path d="M475.357 159.724V149.131H479.133C479.953 149.131 480.634 149.272 481.176 149.555C481.721 149.837 482.128 150.229 482.397 150.729C482.665 151.225 482.8 151.8 482.8 152.451C482.8 153.1 482.664 153.67 482.391 154.163C482.122 154.653 481.716 155.034 481.171 155.306C480.629 155.579 479.948 155.715 479.128 155.715H476.267V154.339H478.983C479.5 154.339 479.921 154.265 480.245 154.117C480.572 153.968 480.812 153.753 480.964 153.47C481.116 153.187 481.191 152.848 481.191 152.451C481.191 152.051 481.114 151.705 480.959 151.412C480.807 151.118 480.567 150.894 480.24 150.739C479.916 150.581 479.49 150.501 478.962 150.501H476.955V159.724H475.357ZM480.586 154.944L483.203 159.724H481.383L478.817 154.944H480.586ZM484.745 159.724V149.131H491.386V150.506H486.343V153.734H491.04V155.105H486.343V158.348H491.448V159.724H484.745ZM494.416 159.724H492.719L496.531 149.131H498.378L502.19 159.724H500.493L497.499 151.055H497.416L494.416 159.724ZM494.7 155.575H500.204V156.92H494.7V155.575ZM503.72 159.724V149.131H505.318V158.348H510.118V159.724H503.72ZM515.274 150.506V149.131H523.472V150.506H520.167V159.724H518.574V150.506H515.274ZM526.882 149.131V159.724H525.283V149.131H526.882ZM529.209 149.131H531.149L534.521 157.365H534.645L538.018 149.131H539.958V159.724H538.437V152.058H538.339L535.214 159.708H533.952L530.828 152.053H530.73V159.724H529.209V149.131ZM542.281 159.724V149.131H548.923V150.506H543.88V153.734H548.576V155.105H543.88V158.348H548.985V159.724H542.281ZM481.134 171.913C481.079 171.424 480.852 171.044 480.452 170.775C480.052 170.503 479.548 170.367 478.941 170.367C478.507 170.367 478.131 170.436 477.814 170.574C477.497 170.708 477.25 170.894 477.074 171.132C476.902 171.367 476.816 171.634 476.816 171.934C476.816 172.186 476.874 172.403 476.991 172.586C477.112 172.768 477.269 172.922 477.462 173.046C477.659 173.167 477.869 173.268 478.093 173.351C478.317 173.431 478.533 173.496 478.74 173.548L479.774 173.817C480.112 173.9 480.459 174.012 480.814 174.153C481.169 174.294 481.498 174.481 481.802 174.712C482.105 174.943 482.35 175.229 482.536 175.57C482.726 175.912 482.821 176.32 482.821 176.796C482.821 177.396 482.665 177.929 482.355 178.394C482.048 178.86 481.602 179.227 481.016 179.496C480.433 179.765 479.728 179.899 478.9 179.899C478.107 179.899 477.421 179.774 476.841 179.522C476.262 179.27 475.809 178.913 475.481 178.451C475.153 177.986 474.972 177.434 474.938 176.796H476.541C476.572 177.179 476.697 177.498 476.914 177.753C477.134 178.005 477.416 178.193 477.757 178.317C478.102 178.437 478.479 178.498 478.89 178.498C479.341 178.498 479.743 178.427 480.095 178.286C480.45 178.141 480.729 177.941 480.933 177.686C481.136 177.427 481.238 177.125 481.238 176.781C481.238 176.467 481.148 176.21 480.969 176.01C480.793 175.81 480.553 175.644 480.25 175.513C479.95 175.382 479.61 175.267 479.231 175.167L477.979 174.825C477.131 174.594 476.459 174.255 475.962 173.806C475.469 173.358 475.222 172.765 475.222 172.027C475.222 171.417 475.388 170.884 475.719 170.429C476.05 169.974 476.498 169.62 477.064 169.368C477.629 169.113 478.267 168.986 478.978 168.986C479.695 168.986 480.328 169.112 480.876 169.363C481.428 169.615 481.862 169.962 482.179 170.403C482.497 170.841 482.662 171.344 482.676 171.913H481.134ZM493.529 172.575H491.915C491.853 172.231 491.737 171.927 491.568 171.665C491.4 171.403 491.193 171.181 490.948 170.998C490.703 170.815 490.429 170.677 490.125 170.584C489.825 170.491 489.506 170.444 489.168 170.444C488.558 170.444 488.012 170.598 487.529 170.905C487.05 171.212 486.67 171.662 486.391 172.255C486.115 172.848 485.977 173.572 485.977 174.427C485.977 175.289 486.115 176.017 486.391 176.61C486.67 177.203 487.051 177.651 487.534 177.955C488.017 178.258 488.56 178.41 489.163 178.41C489.498 178.41 489.815 178.365 490.115 178.275C490.418 178.182 490.693 178.046 490.937 177.867C491.182 177.687 491.389 177.468 491.558 177.21C491.731 176.948 491.85 176.648 491.915 176.31L493.529 176.315C493.443 176.836 493.275 177.315 493.027 177.753C492.782 178.187 492.467 178.563 492.081 178.881C491.698 179.194 491.26 179.437 490.767 179.61C490.274 179.782 489.736 179.868 489.153 179.868C488.236 179.868 487.418 179.651 486.701 179.217C485.984 178.779 485.419 178.153 485.005 177.339C484.594 176.525 484.389 175.555 484.389 174.427C484.389 173.296 484.596 172.325 485.01 171.515C485.424 170.701 485.989 170.077 486.706 169.643C487.424 169.205 488.239 168.986 489.153 168.986C489.715 168.986 490.239 169.067 490.725 169.229C491.215 169.387 491.655 169.622 492.044 169.932C492.434 170.239 492.756 170.615 493.012 171.06C493.267 171.501 493.439 172.006 493.529 172.575ZM496.265 179.724H494.568L498.381 169.131H500.227L504.039 179.724H502.343L499.348 171.055H499.265L496.265 179.724ZM496.55 175.575H502.053V176.92H496.55V175.575ZM505.569 179.724V169.131H507.167V178.348H511.967V179.724H505.569ZM515.226 179.724H513.529L517.341 169.131H519.188L523 179.724H521.303L518.308 171.055H518.226L515.226 179.724ZM515.51 175.575H521.014V176.92H515.51V175.575ZM524.53 179.724V169.131H528.409C529.161 169.131 529.783 169.255 530.276 169.503C530.769 169.748 531.138 170.081 531.383 170.501C531.628 170.918 531.75 171.389 531.75 171.913C531.75 172.355 531.669 172.727 531.507 173.031C531.345 173.331 531.128 173.572 530.855 173.755C530.586 173.934 530.29 174.065 529.966 174.148V174.251C530.317 174.268 530.661 174.382 530.995 174.593C531.333 174.8 531.612 175.094 531.833 175.477C532.054 175.86 532.164 176.325 532.164 176.874C532.164 177.415 532.036 177.901 531.781 178.332C531.53 178.76 531.14 179.099 530.612 179.351C530.085 179.599 529.411 179.724 528.59 179.724H524.53ZM526.128 178.353H528.435C529.2 178.353 529.749 178.205 530.08 177.908C530.411 177.612 530.576 177.241 530.576 176.796C530.576 176.462 530.492 176.155 530.323 175.875C530.154 175.596 529.912 175.374 529.599 175.208C529.288 175.043 528.919 174.96 528.492 174.96H526.128V178.353ZM526.128 173.713H528.269C528.628 173.713 528.95 173.644 529.236 173.506C529.526 173.368 529.755 173.175 529.924 172.927C530.097 172.675 530.183 172.379 530.183 172.037C530.183 171.6 530.03 171.232 529.723 170.936C529.416 170.639 528.945 170.491 528.311 170.491H526.128V173.713ZM534.06 179.724V169.131H535.658V178.348H540.458V179.724H534.06ZM542.281 179.724V169.131H548.923V170.506H543.88V173.734H548.576V175.105H543.88V178.348H548.985V179.724H542.281ZM475.357 199.724V189.131H481.998V190.506H476.955V193.734H481.652V195.105H476.955V198.348H482.06V199.724H475.357ZM484.133 199.724V189.131H490.702V190.506H485.731V193.734H490.231V195.105H485.731V199.724H484.133ZM492.668 199.724V189.131H499.237V190.506H494.266V193.734H498.766V195.105H494.266V199.724H492.668ZM502.8 189.131V199.724H501.202V189.131H502.8ZM513.926 192.575H512.312C512.25 192.231 512.135 191.927 511.966 191.665C511.797 191.403 511.59 191.181 511.345 190.998C511.1 190.815 510.826 190.677 510.523 190.584C510.223 190.491 509.904 190.444 509.566 190.444C508.955 190.444 508.409 190.598 507.926 190.905C507.447 191.212 507.068 191.662 506.788 192.255C506.512 192.848 506.374 193.572 506.374 194.427C506.374 195.289 506.512 196.017 506.788 196.61C507.068 197.203 507.449 197.651 507.931 197.955C508.414 198.258 508.957 198.41 509.561 198.41C509.895 198.41 510.212 198.365 510.512 198.275C510.816 198.182 511.09 198.046 511.335 197.867C511.58 197.687 511.787 197.468 511.955 197.21C512.128 196.948 512.247 196.648 512.312 196.31L513.926 196.315C513.84 196.836 513.673 197.315 513.424 197.753C513.18 198.187 512.864 198.563 512.478 198.881C512.095 199.194 511.657 199.437 511.164 199.61C510.671 199.782 510.133 199.868 509.55 199.868C508.633 199.868 507.816 199.651 507.099 199.217C506.381 198.779 505.816 198.153 505.402 197.339C504.992 196.525 504.787 195.555 504.787 194.427C504.787 193.296 504.993 192.325 505.407 191.515C505.821 190.701 506.387 190.077 507.104 189.643C507.821 189.205 508.637 188.986 509.55 188.986C510.112 188.986 510.637 189.067 511.123 189.229C511.612 189.387 512.052 189.622 512.442 189.932C512.831 190.239 513.154 190.615 513.409 191.06C513.664 191.501 513.837 192.006 513.926 192.575ZM517.437 189.131V199.724H515.839V189.131H517.437ZM519.765 199.724V189.131H526.406V190.506H521.363V193.734H526.059V195.105H521.363V198.348H526.468V199.724H519.765ZM537.091 189.131V199.724H535.622L530.237 191.955H530.139V199.724H528.541V189.131H530.02L535.41 196.91H535.508V189.131H537.091ZM538.9 190.506V189.131H547.098V190.506H543.793V199.724H542.2V190.506H538.9Z" fill="#60B2FF"/>
<path d="M359.434 135.829L359.435 134.79L359.434 135.829ZM386.98 145.326C387.031 145.898 386.608 146.402 386.037 146.453L376.72 147.281C376.149 147.332 375.644 146.91 375.593 146.338C375.542 145.766 375.965 145.262 376.536 145.211L384.817 144.475L384.082 136.194C384.031 135.622 384.453 135.117 385.025 135.066C385.596 135.016 386.101 135.438 386.152 136.01L386.98 145.326ZM336.151 145.418C335.363 144.741 335.363 144.741 335.363 144.74C335.363 144.74 335.364 144.74 335.364 144.739C335.365 144.738 335.366 144.738 335.367 144.737C335.368 144.734 335.371 144.732 335.373 144.728C335.379 144.722 335.387 144.713 335.396 144.702C335.416 144.68 335.443 144.65 335.479 144.611C335.55 144.532 335.653 144.421 335.789 144.282C336.059 144.004 336.457 143.612 336.98 143.144C338.027 142.21 339.577 140.972 341.608 139.736C345.674 137.261 351.68 134.789 359.435 134.79L359.434 136.868C352.138 136.868 346.502 139.19 342.689 141.511C340.781 142.672 339.332 143.831 338.365 144.695C337.881 145.127 337.519 145.484 337.28 145.73C337.161 145.853 337.072 145.948 337.016 146.01C336.987 146.041 336.967 146.064 336.954 146.079C336.948 146.086 336.943 146.091 336.941 146.094C336.94 146.095 336.939 146.096 336.939 146.096C336.939 146.096 336.939 146.096 336.939 146.096C336.939 146.096 336.939 146.096 336.939 146.095C336.939 146.095 336.94 146.095 336.151 145.418ZM359.435 134.79C367.176 134.79 373.967 137.254 378.802 139.696C381.224 140.919 383.167 142.143 384.507 143.063C385.178 143.523 385.699 143.908 386.054 144.181C386.232 144.317 386.369 144.424 386.462 144.499C386.509 144.537 386.545 144.566 386.57 144.587C386.582 144.597 386.592 144.605 386.599 144.611C386.603 144.613 386.605 144.616 386.607 144.618C386.608 144.618 386.609 144.619 386.61 144.62C386.61 144.62 386.611 144.62 386.611 144.62C386.611 144.621 386.612 144.621 385.945 145.418C385.278 146.215 385.278 146.215 385.278 146.215C385.278 146.215 385.278 146.215 385.278 146.215C385.278 146.215 385.278 146.215 385.278 146.215C385.277 146.214 385.275 146.213 385.273 146.211C385.269 146.208 385.262 146.202 385.253 146.194C385.233 146.178 385.203 146.154 385.162 146.121C385.081 146.056 384.956 145.957 384.791 145.831C384.462 145.579 383.97 145.215 383.331 144.777C382.052 143.899 380.19 142.725 377.865 141.551C373.208 139.199 366.744 136.868 359.434 136.868L359.435 134.79Z" fill="#0061F1"/>
<path d="M340.325 106.759V112.862C340.325 113.357 340.339 113.799 340.368 114.187C340.397 114.576 340.475 114.911 340.601 115.192C340.727 115.464 340.922 115.673 341.184 115.819C341.456 115.964 341.83 116.037 342.305 116.037C342.781 116.037 343.15 115.964 343.412 115.819C343.684 115.673 343.883 115.464 344.01 115.192C344.136 114.911 344.213 114.576 344.243 114.187C344.272 113.799 344.286 113.357 344.286 112.862V106.759H345.51V112.571C345.51 113.328 345.471 113.988 345.393 114.552C345.325 115.115 345.175 115.586 344.942 115.964C344.718 116.343 344.393 116.63 343.966 116.824C343.548 117.008 342.995 117.101 342.305 117.101C341.616 117.101 341.058 117.008 340.63 116.824C340.213 116.63 339.888 116.343 339.654 115.964C339.431 115.586 339.281 115.115 339.203 114.552C339.135 113.988 339.101 113.328 339.101 112.571V106.759H340.325ZM347.543 109.41H348.709V110.633H348.767C349.252 109.701 350.024 109.235 351.083 109.235C352.005 109.235 352.724 109.58 353.238 110.269C353.763 110.959 354.025 111.925 354.025 113.168C354.025 114.411 353.763 115.377 353.238 116.066C352.724 116.756 352.005 117.101 351.083 117.101C350.024 117.101 349.252 116.634 348.767 115.702H348.709V119.839H347.543V109.41ZM350.631 116.066C351.311 116.066 351.835 115.863 352.204 115.455C352.583 115.037 352.772 114.488 352.772 113.809V112.527C352.772 111.847 352.583 111.304 352.204 110.896C351.835 110.478 351.311 110.269 350.631 110.269C350.369 110.269 350.121 110.303 349.888 110.371C349.655 110.439 349.451 110.541 349.277 110.677C349.102 110.803 348.961 110.964 348.854 111.158C348.757 111.342 348.709 111.561 348.709 111.813V114.522C348.709 114.775 348.757 114.998 348.854 115.192C348.961 115.377 349.102 115.537 349.277 115.673C349.451 115.799 349.655 115.896 349.888 115.964C350.121 116.032 350.369 116.066 350.631 116.066ZM360.574 115.702H360.515C360.03 116.634 359.258 117.101 358.2 117.101C357.277 117.101 356.554 116.756 356.029 116.066C355.515 115.377 355.257 114.411 355.257 113.168C355.257 111.925 355.515 110.959 356.029 110.269C356.554 109.58 357.277 109.235 358.2 109.235C359.258 109.235 360.03 109.701 360.515 110.633H360.574V106.147H361.739V116.926H360.574V115.702ZM358.651 116.066C358.913 116.066 359.161 116.032 359.394 115.964C359.627 115.896 359.831 115.799 360.006 115.673C360.18 115.537 360.316 115.377 360.413 115.192C360.52 114.998 360.574 114.775 360.574 114.522V111.813C360.574 111.561 360.52 111.342 360.413 111.158C360.316 110.964 360.18 110.803 360.006 110.677C359.831 110.541 359.627 110.439 359.394 110.371C359.161 110.303 358.913 110.269 358.651 110.269C357.971 110.269 357.442 110.478 357.063 110.896C356.694 111.304 356.51 111.847 356.51 112.527V113.809C356.51 114.488 356.694 115.037 357.063 115.455C357.442 115.863 357.971 116.066 358.651 116.066ZM369.817 116.926C369.361 116.926 369.035 116.809 368.841 116.576C368.647 116.343 368.526 116.052 368.477 115.702H368.404C368.239 116.139 367.972 116.484 367.603 116.736C367.244 116.979 366.758 117.101 366.147 117.101C365.36 117.101 364.734 116.897 364.268 116.489C363.802 116.081 363.568 115.523 363.568 114.814C363.568 114.115 363.821 113.576 364.326 113.197C364.841 112.818 365.666 112.629 366.802 112.629H368.404V111.886C368.404 111.333 368.249 110.92 367.938 110.648C367.627 110.366 367.186 110.226 366.613 110.226C366.108 110.226 365.695 110.328 365.375 110.532C365.054 110.726 364.797 110.993 364.603 111.333L363.816 110.75C363.913 110.556 364.044 110.366 364.209 110.182C364.374 109.997 364.578 109.837 364.821 109.701C365.064 109.556 365.341 109.444 365.651 109.366C365.962 109.279 366.307 109.235 366.685 109.235C367.569 109.235 368.268 109.459 368.783 109.905C369.307 110.352 369.569 110.973 369.569 111.77V115.906H370.618V116.926H369.817ZM366.35 116.125C366.652 116.125 366.923 116.091 367.166 116.023C367.419 115.945 367.637 115.848 367.822 115.731C368.006 115.605 368.147 115.46 368.244 115.294C368.351 115.12 368.404 114.935 368.404 114.741V113.503H366.802C366.103 113.503 365.593 113.6 365.273 113.794C364.952 113.988 364.792 114.27 364.792 114.639V114.945C364.792 115.333 364.928 115.629 365.2 115.833C365.481 116.028 365.865 116.125 366.35 116.125ZM375.565 116.926C374.992 116.926 374.569 116.766 374.298 116.445C374.035 116.125 373.904 115.712 373.904 115.207V110.4H371.399V109.41H373.263C373.516 109.41 373.691 109.361 373.788 109.264C373.895 109.158 373.948 108.978 373.948 108.725V106.759H375.07V109.41H378.492V110.4H375.07V115.935H378.492V116.926H375.565ZM383.555 117.101C383.012 117.101 382.521 117.008 382.084 116.824C381.657 116.639 381.288 116.377 380.977 116.037C380.676 115.688 380.443 115.275 380.278 114.799C380.113 114.314 380.031 113.775 380.031 113.182C380.031 112.58 380.113 112.037 380.278 111.551C380.453 111.066 380.691 110.653 380.992 110.313C381.293 109.963 381.652 109.696 382.07 109.512C382.497 109.327 382.968 109.235 383.483 109.235C383.988 109.235 384.444 109.327 384.852 109.512C385.269 109.696 385.624 109.954 385.915 110.284C386.206 110.604 386.43 110.988 386.585 111.435C386.74 111.881 386.818 112.372 386.818 112.906V113.459H381.254V113.809C381.254 114.139 381.308 114.445 381.414 114.726C381.521 115.008 381.672 115.251 381.866 115.455C382.07 115.659 382.313 115.819 382.594 115.935C382.885 116.042 383.206 116.096 383.555 116.096C384.06 116.096 384.497 115.979 384.866 115.746C385.235 115.513 385.517 115.192 385.711 114.785L386.571 115.367C386.347 115.872 385.973 116.29 385.449 116.62C384.934 116.94 384.303 117.101 383.555 117.101ZM383.483 110.197C383.162 110.197 382.866 110.255 382.594 110.371C382.322 110.488 382.084 110.648 381.88 110.852C381.686 111.056 381.531 111.299 381.414 111.58C381.308 111.852 381.254 112.153 381.254 112.483V112.585H385.566V112.425C385.566 112.095 385.512 111.794 385.405 111.522C385.308 111.25 385.167 111.017 384.983 110.823C384.808 110.619 384.59 110.464 384.327 110.357C384.075 110.25 383.793 110.197 383.483 110.197Z" fill="white"/>
<path d="M334.264 176.264L333.638 166.097H335.517L335.808 172.185L335.895 174.108H336.027L336.9 168.311H338.867L339.741 174.108H339.872L339.959 172.244L340.251 166.097H342.057L341.43 176.264H338.663L337.92 170.656H337.774L337.032 176.264H334.264ZM343.376 176.264V166.097H349.873V167.889H345.561V170.219H349.727V172.011H345.561V174.472H349.873V176.264H343.376ZM352.066 166.097H355.635C356.635 166.097 357.397 166.34 357.922 166.825C358.456 167.311 358.723 167.971 358.723 168.806C358.723 169.389 358.577 169.855 358.286 170.204C358.004 170.544 357.596 170.792 357.062 170.947V171.035C357.693 171.19 358.179 171.462 358.519 171.85C358.868 172.239 359.043 172.778 359.043 173.467C359.043 174.322 358.771 175.001 358.228 175.506C357.693 176.011 356.941 176.264 355.97 176.264H352.066V166.097ZM355.3 174.734C355.824 174.734 356.208 174.647 356.451 174.472C356.693 174.297 356.815 173.977 356.815 173.511V173.088C356.815 172.622 356.693 172.302 356.451 172.127C356.208 171.952 355.824 171.865 355.3 171.865H354.193V174.734H355.3ZM355.023 170.408C355.538 170.408 355.912 170.326 356.145 170.161C356.378 169.986 356.494 169.675 356.494 169.229V168.792C356.494 168.345 356.378 168.039 356.145 167.874C355.912 167.709 355.538 167.626 355.023 167.626H354.193V170.408H355.023ZM365.33 172.011H362.766V176.264H360.567V166.097H362.766V170.219H365.33V166.097H367.529V176.264H365.33V172.011ZM372.782 176.438C371.422 176.438 370.417 175.977 369.767 175.055C369.126 174.132 368.805 172.841 368.805 171.18C368.805 169.52 369.126 168.228 369.767 167.306C370.417 166.383 371.422 165.922 372.782 165.922C374.141 165.922 375.141 166.383 375.782 167.306C376.433 168.228 376.758 169.52 376.758 171.18C376.758 172.841 376.433 174.132 375.782 175.055C375.141 175.977 374.141 176.438 372.782 176.438ZM372.782 174.676C373.403 174.676 373.83 174.448 374.063 173.991C374.306 173.525 374.427 172.88 374.427 172.054V170.292C374.427 169.476 374.306 168.84 374.063 168.384C373.83 167.918 373.403 167.685 372.782 167.685C372.16 167.685 371.728 167.918 371.485 168.384C371.252 168.84 371.136 169.476 371.136 170.292V172.069C371.136 172.884 371.252 173.525 371.485 173.991C371.728 174.448 372.16 174.676 372.782 174.676ZM381.515 176.438C380.156 176.438 379.151 175.977 378.5 175.055C377.859 174.132 377.539 172.841 377.539 171.18C377.539 169.52 377.859 168.228 378.5 167.306C379.151 166.383 380.156 165.922 381.515 165.922C382.875 165.922 383.875 166.383 384.516 167.306C385.166 168.228 385.492 169.52 385.492 171.18C385.492 172.841 385.166 174.132 384.516 175.055C383.875 175.977 382.875 176.438 381.515 176.438ZM381.515 174.676C382.137 174.676 382.564 174.448 382.797 173.991C383.04 173.525 383.161 172.88 383.161 172.054V170.292C383.161 169.476 383.04 168.84 382.797 168.384C382.564 167.918 382.137 167.685 381.515 167.685C380.894 167.685 380.462 167.918 380.219 168.384C379.986 168.84 379.869 169.476 379.869 170.292V172.069C379.869 172.884 379.986 173.525 380.219 173.991C380.462 174.448 380.894 174.676 381.515 174.676ZM389.957 172.025L389.054 173.292V176.264H386.87V166.097H389.054V170.35H389.171L390.278 168.66L392.069 166.097H394.516L391.472 170.394L394.662 176.264H392.201L389.957 172.025ZM357.281 192.264L356.64 189.817H353.858L353.232 192.264H351.018L353.77 182.097H356.858L359.611 192.264H357.281ZM355.314 184.209H355.198L354.207 188.054H356.305L355.314 184.209ZM360.785 192.264V182.097H364.718C365.213 182.097 365.655 182.175 366.043 182.33C366.432 182.476 366.757 182.689 367.019 182.971C367.291 183.253 367.495 183.592 367.631 183.99C367.767 184.389 367.835 184.835 367.835 185.331C367.835 185.826 367.767 186.272 367.631 186.671C367.495 187.069 367.291 187.409 367.019 187.69C366.757 187.972 366.432 188.19 366.043 188.346C365.655 188.491 365.213 188.564 364.718 188.564H362.985V192.264H360.785ZM362.985 186.802H364.165C364.679 186.802 365.034 186.705 365.228 186.51C365.432 186.316 365.534 185.996 365.534 185.549V185.112C365.534 184.665 365.432 184.345 365.228 184.151C365.034 183.957 364.679 183.859 364.165 183.859H362.985V186.802ZM369.504 192.264V190.647H371.689V183.714H369.504V182.097H376.059V183.714H373.874V190.647H376.059V192.264H369.504Z" fill="#60B2FF"/>
<rect x="1" y="1.98145" width="658" height="342" rx="3" stroke="#243040" stroke-width="2"/>
</svg>
