<svg width="530" height="182" viewBox="0 0 530 182" fill="none" xmlns="http://www.w3.org/2000/svg">
<path d="M244.627 6.09001C244.627 4.96998 245.535 4.06201 246.655 4.06201H274.236C275.357 4.06201 276.264 4.96998 276.264 6.09001V8.06607H244.627V6.09001Z" fill="url(#paint0_radial_577_3623)"/>
<path d="M244.627 8.06592H276.265V38.6765C276.265 39.7965 275.357 40.7045 274.237 40.7045H246.655C245.535 40.7045 244.627 39.7965 244.627 38.6765V8.06592Z" fill="url(#paint1_linear_577_3623)"/>
<path fill-rule="evenodd" clip-rule="evenodd" d="M268.398 22.1799C268.629 21.9654 268.725 21.6352 268.612 21.3425C268.463 20.9374 268.282 20.5459 268.078 20.1749L267.918 19.8992C267.693 19.5247 267.441 19.1707 267.166 18.8354C266.962 18.592 266.631 18.5076 266.332 18.6036L264.436 19.2082C263.98 18.8562 263.445 18.5634 262.938 18.3412L262.512 16.3975C262.444 16.0884 262.206 15.8429 261.893 15.7909C261.423 15.7123 260.94 15.6714 260.446 15.6714C259.953 15.6714 259.469 15.7123 259 15.7909C258.686 15.8429 258.448 16.0884 258.38 16.3975L257.955 18.3412C257.417 18.5634 256.913 18.8562 256.457 19.2082L254.562 18.6036C254.261 18.5076 253.929 18.592 253.728 18.8354C253.452 19.1707 253.2 19.5247 252.975 19.8992L252.816 20.1749C252.61 20.5459 252.429 20.9374 252.279 21.3425C252.168 21.6386 252.261 21.9654 252.495 22.1799L253.967 23.521C253.93 23.8036 253.911 24.0929 253.911 24.3857C253.911 24.6784 253.93 24.9678 253.967 25.2503L252.495 26.5915C252.261 26.8059 252.168 27.1361 252.279 27.4289C252.429 27.8339 252.609 28.2254 252.816 28.5964L252.975 28.8722C253.2 29.2466 253.452 29.6006 253.728 29.9376C253.929 30.1793 254.261 30.2644 254.562 30.1691L256.457 29.5632C256.913 29.9138 257.417 30.2065 257.955 30.4312L258.38 32.3749C258.448 32.6812 258.686 32.8991 259 32.9808C259.469 33.0591 259.953 33.0999 260.416 33.0999C260.94 33.0999 261.423 33.0591 261.893 32.9808C262.206 32.8991 262.444 32.6812 262.512 32.3749L262.938 30.4312C263.445 30.2065 263.98 29.9138 264.436 29.5632L266.332 30.1691C266.631 30.2644 266.962 30.1793 267.166 29.9376C267.441 29.6006 267.693 29.2466 267.918 28.8722L268.078 28.5964C268.282 28.2254 268.463 27.8339 268.612 27.4289C268.725 27.1361 268.629 26.8059 268.398 26.5915L266.924 25.2503C266.962 24.9678 266.982 24.6784 266.982 24.3857C266.982 24.0929 266.962 23.8036 266.924 23.521L268.398 22.1799ZM260.445 28.2344C262.571 28.2344 264.294 26.5112 264.294 24.3855C264.294 22.2597 262.571 20.5365 260.445 20.5365C258.32 20.5365 256.597 22.2597 256.597 24.3855C256.597 26.5112 258.32 28.2344 260.445 28.2344Z" fill="#C5C9D2"/>
<path d="M277.934 108.768C268.239 114.39 252.457 114.357 242.688 108.693C232.919 103.03 232.073 88.4437 241.768 82.8008C251.463 77.1579 269.57 78.0151 279.338 83.6851C289.107 89.355 287.636 103.138 277.934 108.768Z" fill="#6E798F"/>
<path d="M285.611 92.4055C285.661 84.4206 274.542 77.877 260.776 77.7901C247.01 77.7032 235.81 84.1059 235.76 92.0908C235.71 100.076 246.829 106.619 260.595 106.706C274.361 106.793 285.561 100.39 285.611 92.4055Z" fill="url(#paint2_linear_577_3623)"/>
<path d="M277.934 96.7462C268.239 102.369 252.457 102.335 242.688 96.672C232.919 91.0088 232.073 76.4223 241.768 70.7793C251.463 65.1364 269.57 65.9937 279.338 71.6636C289.107 77.3335 287.636 91.1168 277.934 96.7462Z" fill="#6E798F"/>
<path d="M285.611 80.3825C285.661 72.3976 274.542 65.8541 260.776 65.7672C247.01 65.6803 235.81 72.0829 235.76 80.0679C235.71 88.0528 246.829 94.5963 260.595 94.6832C274.361 94.7701 285.561 88.3675 285.611 80.3825Z" fill="url(#paint3_linear_577_3623)"/>
<path d="M277.934 84.7181C268.239 90.3475 252.457 90.3137 242.688 84.6438C232.919 78.9739 232.073 64.3941 241.768 58.7511C251.463 53.1082 269.57 53.9722 279.338 59.6354C289.107 65.2986 287.636 79.0954 277.934 84.7181Z" fill="#6E798F"/>
<path d="M285.887 68.3596C285.937 60.3747 274.817 53.8311 261.051 53.7442C247.285 53.6573 236.085 60.06 236.035 68.0449C235.985 76.0299 247.104 82.5734 260.87 82.6603C274.637 82.7472 285.837 76.3445 285.887 68.3596Z" fill="url(#paint4_linear_577_3623)"/>
<path d="M245.591 96.9283L244.624 96.3681C244.472 96.2584 244.347 96.1148 244.26 95.9484C244.172 95.7821 244.125 95.5976 244.12 95.4096V92.7636C244.12 92.3924 244.349 92.2236 244.624 92.3789L245.591 92.9459C245.744 93.0548 245.868 93.1984 245.955 93.365C246.041 93.5316 246.087 93.7165 246.089 93.9044V96.5503C246.069 96.9283 245.867 97.0633 245.591 96.9283Z" fill="white"/>
<path d="M245.591 84.7785L244.624 84.2183C244.471 84.1098 244.345 83.9664 244.258 83.7998C244.17 83.6332 244.123 83.4482 244.12 83.2598V80.6139C244.12 80.2426 244.349 80.0739 244.624 80.2359L245.591 80.7961C245.743 80.9057 245.867 81.0496 245.953 81.216C246.04 81.3825 246.086 81.5669 246.089 81.7546V84.4005C246.069 84.7785 245.867 84.954 245.591 84.7785Z" fill="white"/>
<path d="M245.591 108.795L244.624 108.234C244.472 108.125 244.347 107.981 244.26 107.815C244.172 107.648 244.125 107.464 244.12 107.276V104.63C244.12 104.259 244.349 104.09 244.624 104.245L245.591 104.812C245.744 104.921 245.868 105.065 245.955 105.231C246.041 105.398 246.087 105.583 246.089 105.771V108.403C246.069 108.788 245.867 108.956 245.591 108.795Z" fill="white"/>
<path d="M232.143 135.021V132.763L230.123 128.641H231.649L232.326 130.122L232.819 131.374H232.893L233.386 130.122L234.063 128.641H235.534L233.514 132.763V135.021H232.143ZM238.309 135.131C237.456 135.131 236.826 134.841 236.417 134.262C236.015 133.683 235.814 132.873 235.814 131.831C235.814 130.789 236.015 129.978 236.417 129.4C236.826 128.821 237.456 128.531 238.309 128.531C239.163 128.531 239.79 128.821 240.192 129.4C240.601 129.978 240.805 130.789 240.805 131.831C240.805 132.873 240.601 133.683 240.192 134.262C239.79 134.841 239.163 135.131 238.309 135.131ZM238.309 134.025C238.699 134.025 238.968 133.881 239.114 133.595C239.266 133.303 239.342 132.897 239.342 132.379V131.273C239.342 130.761 239.266 130.362 239.114 130.076C238.968 129.783 238.699 129.637 238.309 129.637C237.919 129.637 237.648 129.783 237.496 130.076C237.35 130.362 237.276 130.761 237.276 131.273V132.389C237.276 132.9 237.35 133.303 237.496 133.595C237.648 133.881 237.919 134.025 238.309 134.025ZM242.922 128.641V132.681C242.922 132.882 242.928 133.068 242.94 133.239C242.958 133.403 242.995 133.543 243.05 133.659C243.111 133.775 243.199 133.866 243.315 133.933C243.431 133.994 243.589 134.025 243.79 134.025C243.991 134.025 244.15 133.994 244.265 133.933C244.381 133.866 244.467 133.775 244.521 133.659C244.582 133.543 244.619 133.403 244.631 133.239C244.649 133.068 244.659 132.882 244.659 132.681V128.641H246.03V132.498C246.03 132.937 245.999 133.321 245.938 133.65C245.883 133.979 245.774 134.253 245.609 134.473C245.445 134.692 245.216 134.856 244.924 134.966C244.631 135.076 244.253 135.131 243.79 135.131C243.327 135.131 242.949 135.076 242.657 134.966C242.364 134.856 242.136 134.692 241.971 134.473C241.807 134.253 241.694 133.979 241.633 133.65C241.578 133.321 241.551 132.937 241.551 132.498V128.641H242.922ZM248.576 135.021H247.223V128.641H249.691C250.002 128.641 250.279 128.69 250.523 128.787C250.767 128.879 250.971 129.013 251.136 129.189C251.306 129.366 251.434 129.579 251.52 129.829C251.605 130.079 251.648 130.359 251.648 130.67C251.648 131.121 251.55 131.508 251.355 131.831C251.16 132.154 250.883 132.367 250.523 132.471L251.775 135.021H250.276L249.207 132.654H248.576V135.021ZM249.362 131.593C249.685 131.593 249.908 131.532 250.03 131.41C250.158 131.289 250.222 131.087 250.222 130.807V130.533C250.222 130.253 250.158 130.052 250.03 129.93C249.908 129.808 249.685 129.747 249.362 129.747H248.576V131.593H249.362ZM260.132 135.131C259.596 135.131 259.13 135.042 258.733 134.866C258.337 134.689 258.017 134.448 257.774 134.143L258.569 133.266C258.8 133.522 259.053 133.711 259.328 133.833C259.608 133.955 259.891 134.016 260.178 134.016C260.507 134.016 260.757 133.942 260.927 133.796C261.098 133.65 261.183 133.44 261.183 133.165C261.183 132.94 261.116 132.769 260.982 132.654C260.854 132.538 260.635 132.456 260.324 132.407L259.657 132.297C259.084 132.2 258.669 131.989 258.414 131.666C258.158 131.337 258.03 130.938 258.03 130.469C258.03 129.854 258.231 129.378 258.633 129.043C259.035 128.702 259.599 128.531 260.324 128.531C260.818 128.531 261.247 128.607 261.613 128.76C261.978 128.912 262.274 129.119 262.499 129.381L261.722 130.25C261.552 130.061 261.351 129.914 261.119 129.811C260.888 129.701 260.626 129.646 260.333 129.646C259.718 129.646 259.41 129.899 259.41 130.405C259.41 130.624 259.477 130.789 259.611 130.899C259.751 131.008 259.977 131.091 260.287 131.145L260.955 131.264C261.473 131.356 261.872 131.551 262.152 131.849C262.432 132.148 262.573 132.55 262.573 133.056C262.573 133.354 262.521 133.632 262.417 133.888C262.314 134.137 262.158 134.357 261.951 134.546C261.744 134.728 261.488 134.872 261.183 134.975C260.885 135.079 260.534 135.131 260.132 135.131ZM265.028 135.021V132.763L263.008 128.641H264.534L265.211 130.122L265.704 131.374H265.777L266.271 130.122L266.947 128.641H268.419L266.399 132.763V135.021H265.028ZM271.094 135.131C270.557 135.131 270.091 135.042 269.695 134.866C269.299 134.689 268.979 134.448 268.735 134.143L269.53 133.266C269.762 133.522 270.015 133.711 270.289 133.833C270.569 133.955 270.853 134.016 271.139 134.016C271.468 134.016 271.718 133.942 271.889 133.796C272.059 133.65 272.145 133.44 272.145 133.165C272.145 132.94 272.078 132.769 271.944 132.654C271.816 132.538 271.596 132.456 271.285 132.407L270.618 132.297C270.045 132.2 269.631 131.989 269.375 131.666C269.119 131.337 268.991 130.938 268.991 130.469C268.991 129.854 269.192 129.378 269.594 129.043C269.997 128.702 270.56 128.531 271.285 128.531C271.779 128.531 272.209 128.607 272.574 128.76C272.94 128.912 273.235 129.119 273.461 129.381L272.684 130.25C272.513 130.061 272.312 129.914 272.081 129.811C271.849 129.701 271.587 129.646 271.295 129.646C270.679 129.646 270.371 129.899 270.371 130.405C270.371 130.624 270.438 130.789 270.573 130.899C270.713 131.008 270.938 131.091 271.249 131.145L271.916 131.264C272.434 131.356 272.833 131.551 273.114 131.849C273.394 132.148 273.534 132.55 273.534 133.056C273.534 133.354 273.482 133.632 273.379 133.888C273.275 134.137 273.12 134.357 272.913 134.546C272.705 134.728 272.449 134.872 272.145 134.975C271.846 135.079 271.496 135.131 271.094 135.131ZM277.36 129.765V135.021H275.989V129.765H274.152V128.641H279.198V129.765H277.36ZM280.145 135.021V128.641H284.221V129.765H281.516V131.228H284.13V132.352H281.516V133.897H284.221V135.021H280.145ZM288.834 132.178L288.907 130.396H288.825L287.636 133.677L286.448 130.396H286.366L286.439 132.178V135.021H285.251V128.641H286.869L287.655 130.789H287.728L288.514 128.641H290.022V135.021H288.834V132.178Z" fill="white"/>
<path d="M18.8047 112.593L0.850822 101.439C0.0191724 100.901 -0.418596 98.0476 0.559815 97.4605L35.4866 77.9573C36.465 77.3703 37.9326 77.2724 38.7643 77.8106L57.1302 86.8757C57.9618 87.4139 57.4519 90.481 56.4735 91.068L22.0823 112.446C21.1529 113.082 19.6363 113.131 18.8047 112.593Z" fill="#6E798F"/>
<path d="M18.8045 110.196L0.850626 99.0422C0.0189764 98.5041 0.116818 97.5746 1.09523 96.9875L35.4864 75.5603C36.4648 74.9733 37.9324 74.8755 38.7641 75.4136L56.7179 86.6164C57.5495 87.1545 57.4517 88.084 56.4733 88.6711L22.0821 110.049C21.1527 110.685 19.6361 110.734 18.8045 110.196Z" fill="white"/>
<path d="M18.8045 110.196L0.850626 99.0422C0.0189764 98.5041 0.116818 97.5746 1.09523 96.9875L35.4864 75.5603C36.4648 74.9733 37.9324 74.8755 38.7641 75.4136L56.7179 86.6164C57.5495 87.1545 57.4517 88.084 56.4733 88.6711L22.0821 110.049C21.1527 110.685 19.6361 110.734 18.8045 110.196Z" fill="url(#paint5_linear_577_3623)"/>
<path d="M14.9399 102.858C14.0104 102.858 13.0809 102.614 12.396 102.222C11.76 101.831 11.3687 101.293 11.3687 100.706C11.3687 100.168 11.7111 99.6294 12.3471 99.238C13.032 98.8467 13.9125 98.6021 14.842 98.6021C15.7715 98.6021 16.701 98.8467 17.3859 99.238C18.0218 99.6294 18.4132 100.168 18.4132 100.755C18.4132 101.293 18.0708 101.831 17.4348 102.222C16.7499 102.614 15.8693 102.858 14.9399 102.858Z" fill="#6E798F"/>
<path d="M487.132 48.5262C491.085 50.8085 496.812 48.4678 496.812 43.2523C496.812 38.6766 493.608 33.1173 489.655 30.8351C485.702 28.5529 480.682 29.0137 480.682 33.5894C480.682 38.1651 483.179 46.244 487.132 48.5262ZM492.49 52.1493L486.821 48.8761C480.788 45.5017 475.071 47.3693 475.071 53.5639C475.071 54.8028 477.999 57.2446 479.069 57.8624L497.86 71.1393C499.597 72.0865 502.179 70.5867 502.179 68.961C502.179 62.7665 497.841 55.2386 492.49 52.1493Z" fill="#6E798F"/>
<path d="M486.883 48.2262C490.835 50.5085 494.039 48.6485 494.039 44.0728C494.039 39.4971 490.835 33.9378 486.883 31.6556C482.93 29.3734 479.726 31.2333 479.726 35.809C479.726 40.3847 482.93 45.944 486.883 48.2262ZM489.717 52.9698L484.048 49.6966C478.698 46.6077 474.358 49.1254 474.358 55.3199C474.358 56.5589 475.226 58.0651 476.296 58.6829L497.47 70.9075C498.54 71.5273 499.407 71.0244 499.407 69.7816C499.407 63.587 495.068 56.0591 489.717 52.9698Z" fill="url(#paint6_linear_577_3623)"/>
<path d="M514.968 83.8053C518.921 86.0875 524.632 83.8159 524.632 78.6004C524.632 74.0247 521.428 68.4655 517.476 66.1832C513.523 63.901 508.984 64.3262 508.984 68.9019C508.984 73.4776 511.015 81.5231 514.968 83.8053ZM520.31 87.4975L514.641 84.2242C508.608 80.8498 502.892 82.7174 502.892 88.912C502.892 90.1509 505.819 92.5927 506.889 93.2105L525.681 106.487C527.417 107.435 530 105.935 530 104.309C530 98.1146 525.661 90.5867 520.31 87.4975Z" fill="#6E798F"/>
<path d="M514.703 83.5744C518.656 85.8566 521.86 83.9967 521.86 79.421C521.86 74.8453 518.656 69.286 514.703 67.0038C510.75 64.7215 507.547 66.5815 507.547 71.1572C507.547 75.7329 510.75 81.2922 514.703 83.5744ZM517.538 88.318L511.869 85.0448C506.518 81.9558 502.179 84.4735 502.179 90.6681C502.179 91.907 503.047 93.4132 504.117 94.0311L525.291 106.256C526.361 106.875 527.227 106.373 527.227 105.13C527.227 98.9352 522.889 91.4072 517.538 88.318Z" fill="url(#paint7_linear_577_3623)"/>
<path d="M479.92 87.7288C483.873 90.011 489.474 87.7973 489.474 82.5819C489.474 78.0062 486.27 72.4469 482.317 70.1647C478.364 67.8825 473.825 68.3077 473.825 72.8834C473.825 77.4591 475.967 85.4465 479.92 87.7288ZM485.152 91.4789L479.482 88.2057C473.45 84.8313 467.733 86.6989 467.733 92.8934C467.733 94.1324 470.66 96.5741 471.731 97.192L490.522 110.469C492.258 111.416 494.841 109.916 494.841 108.291C494.841 102.096 490.502 94.5681 485.152 91.4789Z" fill="#6E798F"/>
<path d="M479.545 87.5563C483.498 89.8385 486.701 87.9786 486.701 83.4029C486.701 78.8272 483.498 73.2679 479.545 70.9857C475.592 68.7035 472.388 70.5634 472.388 75.1391C472.388 79.7148 475.592 85.2741 479.545 87.5563ZM482.379 92.2999L476.71 89.0267C471.36 85.9378 467.021 88.4555 467.021 94.65C467.021 95.8889 467.888 97.3952 468.958 98.013L490.132 110.238C491.202 110.857 492.069 110.354 492.069 109.112C492.069 102.917 487.73 95.3892 482.379 92.2999Z" fill="url(#paint8_linear_577_3623)"/>
<path d="M481.151 135.021L479.405 128.641H480.722L481.517 131.867L481.983 133.878H482.047L482.522 131.867L483.327 128.641H484.579L482.833 135.021H481.151ZM485.489 135.021V128.641H489.52V129.628H486.687V131.292H489.42V132.279H486.687V134.034H489.52V135.021H485.489ZM491.939 130.442H491.848V135.021H490.824V128.641H492.296L493.968 133.22H494.06V128.641H495.083V135.021H493.612L491.939 130.442ZM496.36 128.641H498.343C499.172 128.641 499.787 128.915 500.19 129.464C500.598 130.012 500.802 130.801 500.802 131.831C500.802 132.867 500.598 133.659 500.19 134.207C499.787 134.75 499.172 135.021 498.343 135.021H496.36V128.641ZM498.261 134.061C498.7 134.061 499.023 133.918 499.23 133.632C499.443 133.345 499.55 132.928 499.55 132.379V131.273C499.55 130.731 499.443 130.317 499.23 130.03C499.023 129.744 498.7 129.601 498.261 129.601H497.539V134.061H498.261ZM503.915 135.131C503.501 135.131 503.141 135.058 502.837 134.911C502.532 134.759 502.279 134.543 502.078 134.262C501.883 133.982 501.737 133.638 501.639 133.229C501.548 132.821 501.502 132.355 501.502 131.831C501.502 131.313 501.548 130.85 501.639 130.442C501.737 130.027 501.883 129.68 502.078 129.4C502.279 129.119 502.532 128.906 502.837 128.76C503.141 128.607 503.501 128.531 503.915 128.531C504.744 128.531 505.353 128.821 505.743 129.4C506.133 129.978 506.328 130.789 506.328 131.831C506.328 132.873 506.133 133.683 505.743 134.262C505.353 134.841 504.744 135.131 503.915 135.131ZM503.915 134.153C504.129 134.153 504.308 134.113 504.455 134.034C504.601 133.949 504.717 133.83 504.802 133.677C504.893 133.525 504.957 133.339 504.994 133.12C505.037 132.894 505.058 132.644 505.058 132.37V131.282C505.058 130.734 504.973 130.301 504.802 129.985C504.637 129.668 504.342 129.509 503.915 129.509C503.489 129.509 503.19 129.668 503.02 129.985C502.855 130.301 502.773 130.734 502.773 131.282V132.379C502.773 132.928 502.855 133.36 503.02 133.677C503.19 133.994 503.489 134.153 503.915 134.153ZM508.583 135.021H507.385V128.641H509.807C510.429 128.641 510.904 128.818 511.233 129.171C511.562 129.524 511.727 130.006 511.727 130.615C511.727 131.084 511.617 131.481 511.398 131.804C511.185 132.12 510.877 132.321 510.475 132.407L511.837 135.021H510.52L509.305 132.544H508.583V135.021ZM509.561 131.612C509.884 131.612 510.115 131.548 510.255 131.42C510.395 131.286 510.466 131.075 510.466 130.789V130.442C510.466 130.155 510.395 129.948 510.255 129.82C510.115 129.686 509.884 129.619 509.561 129.619H508.583V131.612H509.561ZM514.804 135.131C514.255 135.131 513.786 135.036 513.396 134.847C513.012 134.658 512.698 134.409 512.455 134.098L513.177 133.348C513.414 133.622 513.67 133.827 513.945 133.961C514.225 134.089 514.523 134.153 514.84 134.153C515.206 134.153 515.486 134.07 515.681 133.906C515.876 133.741 515.974 133.504 515.974 133.193C515.974 132.937 515.901 132.745 515.754 132.617C515.608 132.483 515.361 132.389 515.014 132.334L514.338 132.224C513.746 132.12 513.326 131.907 513.076 131.584C512.826 131.255 512.701 130.868 512.701 130.423C512.701 129.814 512.899 129.348 513.296 129.025C513.692 128.696 514.24 128.531 514.941 128.531C515.441 128.531 515.87 128.61 516.23 128.769C516.595 128.927 516.888 129.144 517.107 129.418L516.403 130.167C516.233 129.966 516.029 129.808 515.791 129.692C515.553 129.57 515.273 129.509 514.95 129.509C514.255 129.509 513.908 129.796 513.908 130.368C513.908 130.612 513.981 130.798 514.127 130.926C514.274 131.054 514.523 131.148 514.877 131.209L515.544 131.328C516.099 131.432 516.51 131.636 516.778 131.941C517.046 132.245 517.18 132.635 517.18 133.111C517.18 133.409 517.129 133.683 517.025 133.933C516.921 134.177 516.769 134.39 516.568 134.573C516.367 134.75 516.117 134.887 515.818 134.984C515.526 135.082 515.188 135.131 514.804 135.131Z" fill="white"/>
<g filter="url(#filter0_d_577_3623)">
<path d="M141.821 151.326L199.206 118.195V51.9326L141.821 18.8015L84.4365 51.9326L84.4365 118.195L141.821 151.326Z" fill="url(#paint9_linear_577_3623)" shape-rendering="crispEdges"/>
<path d="M141.821 151.326L199.206 118.195V51.9326L141.821 18.8015L84.4365 51.9326L84.4365 118.195L141.821 151.326Z" stroke="#8A93A5" stroke-opacity="0.5" stroke-width="1.61176" stroke-miterlimit="10" stroke-linejoin="round" shape-rendering="crispEdges"/>
</g>
<path d="M122.728 9.26758H121.375V2.88745H123.843C124.154 2.88745 124.431 2.9362 124.675 3.0337C124.918 3.1251 125.123 3.25916 125.287 3.43588C125.458 3.6126 125.586 3.82588 125.671 4.07572C125.756 4.32557 125.799 4.60588 125.799 4.91666C125.799 5.36759 125.701 5.75455 125.506 6.07751C125.311 6.40048 125.034 6.61376 124.675 6.71735L125.927 9.26758H124.428L123.358 6.90017H122.728V9.26758ZM123.514 5.83986C123.837 5.83986 124.059 5.77892 124.181 5.65705C124.309 5.53517 124.373 5.33408 124.373 5.05377V4.77955C124.373 4.49924 124.309 4.29814 124.181 4.17627C124.059 4.0544 123.837 3.99346 123.514 3.99346H122.728V5.83986H123.514ZM126.892 9.26758V2.88745H130.969V4.01174H128.263V5.47423H130.878V6.59853H128.263V8.14329H130.969V9.26758H126.892ZM134.283 9.37727C133.747 9.37727 133.281 9.28891 132.885 9.11219C132.489 8.93547 132.169 8.69477 131.925 8.39008L132.72 7.51259C132.952 7.76852 133.205 7.95743 133.479 8.0793C133.759 8.20118 134.043 8.26211 134.329 8.26211C134.658 8.26211 134.908 8.18899 135.079 8.04274C135.249 7.89649 135.335 7.68626 135.335 7.41204C135.335 7.18657 135.268 7.01595 135.133 6.90017C135.005 6.78438 134.786 6.70212 134.475 6.65337L133.808 6.54368C133.235 6.44618 132.821 6.23595 132.565 5.91298C132.309 5.58392 132.181 5.18478 132.181 4.71556C132.181 4.1001 132.382 3.62479 132.784 3.28963C133.187 2.94838 133.75 2.77776 134.475 2.77776C134.969 2.77776 135.399 2.85393 135.764 3.00627C136.13 3.15862 136.425 3.3658 136.651 3.62783L135.874 4.49619C135.703 4.30729 135.502 4.16104 135.271 4.05744C135.039 3.94776 134.777 3.89291 134.484 3.89291C133.869 3.89291 133.561 4.1458 133.561 4.65158C133.561 4.87095 133.628 5.03549 133.762 5.14517C133.903 5.25486 134.128 5.33712 134.439 5.39197L135.106 5.5108C135.624 5.6022 136.023 5.7972 136.303 6.09579C136.584 6.39439 136.724 6.79657 136.724 7.30235C136.724 7.60094 136.672 7.87821 136.569 8.13415C136.465 8.38399 136.31 8.60336 136.102 8.79227C135.895 8.97508 135.639 9.11828 135.335 9.22188C135.036 9.32547 134.686 9.37727 134.283 9.37727ZM140.55 4.01174V9.26758H139.179V4.01174H137.342V2.88745H142.388V4.01174H140.55ZM152.06 9.26758L151.658 7.73196H149.912L149.519 9.26758H148.13L149.857 2.88745H151.795L153.523 9.26758H152.06ZM150.826 4.21283H150.753L150.132 6.62595H151.448L150.826 4.21283ZM154.26 9.26758V2.88745H156.728C157.038 2.88745 157.316 2.9362 157.559 3.0337C157.803 3.1251 158.007 3.25916 158.172 3.43588C158.342 3.6126 158.47 3.82588 158.556 4.07572C158.641 4.32557 158.684 4.60588 158.684 4.91666C158.684 5.22744 158.641 5.50775 158.556 5.75759C158.47 6.00743 158.342 6.22072 158.172 6.39743C158.007 6.57415 157.803 6.71126 157.559 6.80876C157.316 6.90017 157.038 6.94587 156.728 6.94587H155.64V9.26758H154.26ZM155.64 5.83986H156.38C156.703 5.83986 156.926 5.77892 157.047 5.65705C157.175 5.53517 157.239 5.33408 157.239 5.05377V4.77955C157.239 4.49924 157.175 4.29814 157.047 4.17627C156.926 4.0544 156.703 3.99346 156.38 3.99346H155.64V5.83986ZM159.731 9.26758V8.25297H161.102V3.90205H159.731V2.88745H163.844V3.90205H162.473V8.25297H163.844V9.26758H159.731Z" fill="white"/>
<g clip-path="url(#clip0_577_3623)">
<path d="M125.634 61.2642H124.281V54.884H126.749C127.06 54.884 127.337 54.9328 127.581 55.0303C127.824 55.1217 128.029 55.2557 128.193 55.4325C128.364 55.6092 128.492 55.8225 128.577 56.0723C128.662 56.3221 128.705 56.6025 128.705 56.9132C128.705 57.3642 128.608 57.7511 128.413 58.0741C128.218 58.3971 127.94 58.6103 127.581 58.7139L128.833 61.2642H127.334L126.264 58.8967H125.634V61.2642ZM126.42 57.8364C126.743 57.8364 126.965 57.7755 127.087 57.6536C127.215 57.5318 127.279 57.3307 127.279 57.0503V56.7761C127.279 56.4958 127.215 56.2947 127.087 56.1729C126.965 56.051 126.743 55.99 126.42 55.99H125.634V57.8364H126.42ZM129.798 61.2642V54.884H133.875V56.0083H131.169V57.4708H133.784V58.5951H131.169V60.1399H133.875V61.2642H129.798ZM139.356 63.01H138.058C137.564 63.01 137.214 62.8912 137.007 62.6535C136.8 62.4159 136.696 62.096 136.696 61.6938V61.319C136.044 61.191 135.562 60.8498 135.252 60.2953C134.947 59.7346 134.795 58.9942 134.795 58.0741C134.795 57.0321 134.996 56.2216 135.398 55.6427C135.806 55.0638 136.437 54.7743 137.29 54.7743C138.143 54.7743 138.771 55.0638 139.173 55.6427C139.581 56.2216 139.785 57.0321 139.785 58.0741C139.785 58.9942 139.63 59.7346 139.319 60.2953C139.015 60.8498 138.536 61.191 137.884 61.319V62.032H139.356V63.01ZM137.29 60.2678C137.68 60.2678 137.948 60.1246 138.094 59.8382C138.247 59.5457 138.323 59.1405 138.323 58.6225V57.5165C138.323 57.0046 138.247 56.6055 138.094 56.3191C137.948 56.0266 137.68 55.8804 137.29 55.8804C136.9 55.8804 136.629 56.0266 136.477 56.3191C136.33 56.6055 136.257 57.0046 136.257 57.5165V58.6317C136.257 59.1435 136.33 59.5457 136.477 59.8382C136.629 60.1246 136.9 60.2678 137.29 60.2678ZM141.902 54.884V58.9242C141.902 59.1253 141.909 59.3111 141.921 59.4817C141.939 59.6463 141.976 59.7864 142.03 59.9022C142.091 60.018 142.18 60.1094 142.296 60.1764C142.411 60.2374 142.57 60.2678 142.771 60.2678C142.972 60.2678 143.13 60.2374 143.246 60.1764C143.362 60.1094 143.447 60.018 143.502 59.9022C143.563 59.7864 143.6 59.6463 143.612 59.4817C143.63 59.3111 143.639 59.1253 143.639 58.9242V54.884H145.01V58.7414C145.01 59.1801 144.98 59.564 144.919 59.8931C144.864 60.2221 144.754 60.4964 144.59 60.7157C144.425 60.9351 144.197 61.0996 143.904 61.2093C143.612 61.319 143.234 61.3738 142.771 61.3738C142.308 61.3738 141.93 61.319 141.637 61.2093C141.345 61.0996 141.116 60.9351 140.952 60.7157C140.787 60.4964 140.675 60.2221 140.614 59.8931C140.559 59.564 140.531 59.1801 140.531 58.7414V54.884H141.902ZM146.241 61.2642V54.884H150.317V56.0083H147.612V57.4708H150.226V58.5951H147.612V60.1399H150.317V61.2642H146.241ZM153.632 61.3738C153.096 61.3738 152.629 61.2855 152.233 61.1088C151.837 60.9321 151.517 60.6913 151.274 60.3867L152.069 59.5092C152.3 59.7651 152.553 59.954 152.827 60.0759C153.108 60.1978 153.391 60.2587 153.678 60.2587C154.007 60.2587 154.256 60.1856 154.427 60.0393C154.598 59.8931 154.683 59.6828 154.683 59.4086C154.683 59.1832 154.616 59.0125 154.482 58.8967C154.354 58.781 154.135 58.6987 153.824 58.65L153.157 58.5403C152.584 58.4428 152.169 58.2325 151.913 57.9096C151.657 57.5805 151.53 57.1814 151.53 56.7121C151.53 56.0967 151.731 55.6214 152.133 55.2862C152.535 54.945 153.099 54.7743 153.824 54.7743C154.317 54.7743 154.747 54.8505 155.113 55.0029C155.478 55.1552 155.774 55.3624 155.999 55.6244L155.222 56.4928C155.052 56.3039 154.851 56.1576 154.619 56.054C154.387 55.9443 154.125 55.8895 153.833 55.8895C153.217 55.8895 152.91 56.1424 152.91 56.6482C152.91 56.8675 152.977 57.0321 153.111 57.1418C153.251 57.2514 153.476 57.3337 153.787 57.3886L154.454 57.5074C154.972 57.5988 155.372 57.7938 155.652 58.0924C155.932 58.391 156.072 58.7932 156.072 59.2989C156.072 59.5975 156.021 59.8748 155.917 60.1307C155.813 60.3806 155.658 60.5999 155.451 60.7888C155.244 60.9717 154.988 61.1149 154.683 61.2185C154.384 61.3221 154.034 61.3738 153.632 61.3738ZM159.899 56.0083V61.2642H158.528V56.0083H156.69V54.884H161.736V56.0083H159.899Z" fill="#8A93A5"/>
<path d="M160.583 73.2595C160.866 73.5425 160.866 74.0014 160.583 74.2844L155.971 78.8967C155.688 79.1797 155.229 79.1797 154.946 78.8967C154.663 78.6136 154.663 78.1547 154.946 77.8717L159.046 73.772L154.946 69.6722C154.663 69.3892 154.663 68.9303 154.946 68.6473C155.229 68.3643 155.688 68.3643 155.971 68.6473L160.583 73.2595ZM125.467 73.772C125.467 73.0472 125.467 73.0472 125.467 73.0472C125.467 73.0472 125.467 73.0472 125.467 73.0472C125.467 73.0472 125.467 73.0472 125.468 73.0472C125.469 73.0472 125.47 73.0472 125.471 73.0472C125.474 73.0472 125.478 73.0472 125.484 73.0472C125.495 73.0472 125.511 73.0472 125.534 73.0472C125.578 73.0472 125.645 73.0472 125.733 73.0472C125.91 73.0472 126.174 73.0472 126.524 73.0472C127.224 73.0472 128.266 73.0472 129.635 73.0472C132.372 73.0472 136.418 73.0472 141.647 73.0472L141.647 74.4967C136.418 74.4967 132.372 74.4967 129.635 74.4967C128.266 74.4967 127.224 74.4967 126.524 74.4967C126.174 74.4967 125.91 74.4967 125.733 74.4967C125.645 74.4967 125.578 74.4967 125.534 74.4967C125.511 74.4967 125.495 74.4967 125.484 74.4967C125.478 74.4967 125.474 74.4967 125.471 74.4967C125.47 74.4967 125.469 74.4967 125.468 74.4967C125.467 74.4967 125.467 74.4967 125.467 74.4967C125.467 74.4967 125.467 74.4967 125.467 74.4967C125.467 74.4967 125.467 74.4967 125.467 73.772ZM141.647 73.0472C146.877 73.0472 151.483 73.0472 154.781 73.0472C156.43 73.0472 157.753 73.0472 158.663 73.0472C159.118 73.0472 159.47 73.0472 159.708 73.0472C159.827 73.0472 159.918 73.0472 159.978 73.0472C160.009 73.0472 160.032 73.0472 160.047 73.0472C160.055 73.0472 160.061 73.0472 160.065 73.0472C160.067 73.0472 160.068 73.0472 160.069 73.0472C160.069 73.0472 160.07 73.0472 160.07 73.0472C160.07 73.0472 160.07 73.0472 160.07 73.0472C160.07 73.0472 160.07 73.0472 160.07 73.772C160.07 74.4967 160.07 74.4967 160.07 74.4967C160.07 74.4967 160.07 74.4967 160.07 74.4967C160.07 74.4967 160.069 74.4967 160.069 74.4967C160.068 74.4967 160.067 74.4967 160.065 74.4967C160.061 74.4967 160.055 74.4967 160.047 74.4967C160.032 74.4967 160.009 74.4967 159.978 74.4967C159.918 74.4967 159.827 74.4967 159.708 74.4967C159.47 74.4967 159.118 74.4967 158.663 74.4967C157.753 74.4967 156.43 74.4967 154.781 74.4967C151.483 74.4967 146.877 74.4967 141.647 74.4967L141.647 73.0472Z" fill="#8A93A5"/>
<path d="M124.955 100.737C124.672 100.454 124.672 99.9952 124.955 99.7121L129.567 95.0999C129.85 94.8169 130.309 94.8169 130.592 95.0999C130.875 95.383 130.875 95.8418 130.592 96.1249L126.492 100.225L130.592 104.324C130.875 104.607 130.875 105.066 130.592 105.349C130.309 105.632 129.85 105.632 129.567 105.349L124.955 100.737ZM160.071 100.225C160.071 100.949 160.071 100.949 160.071 100.949C160.071 100.949 160.071 100.949 160.071 100.949C160.07 100.949 160.07 100.949 160.07 100.949C160.069 100.949 160.068 100.949 160.067 100.949C160.064 100.949 160.06 100.949 160.054 100.949C160.043 100.949 160.026 100.949 160.004 100.949C159.96 100.949 159.893 100.949 159.805 100.949C159.628 100.949 159.363 100.949 159.013 100.949C158.314 100.949 157.272 100.949 155.903 100.949C153.165 100.949 149.12 100.949 143.89 100.949L143.89 99.4999C149.12 99.4999 153.165 99.4999 155.903 99.4999C157.272 99.4999 158.314 99.4999 159.013 99.4999C159.363 99.4999 159.628 99.4999 159.805 99.4999C159.893 99.4999 159.96 99.4999 160.004 99.4999C160.026 99.4999 160.043 99.4999 160.054 99.4999C160.06 99.4999 160.064 99.4999 160.067 99.4999C160.068 99.4999 160.069 99.4999 160.07 99.4999C160.07 99.4999 160.07 99.4999 160.071 99.4999C160.071 99.4999 160.071 99.4999 160.071 99.4999C160.071 99.4999 160.071 99.4999 160.071 100.225ZM143.89 100.949C138.66 100.949 134.055 100.949 130.756 100.949C129.107 100.949 127.785 100.949 126.875 100.949C126.42 100.949 126.068 100.949 125.83 100.949C125.711 100.949 125.62 100.949 125.559 100.949C125.529 100.949 125.506 100.949 125.49 100.949C125.483 100.949 125.477 100.949 125.473 100.949C125.471 100.949 125.47 100.949 125.469 100.949C125.468 100.949 125.468 100.949 125.468 100.949C125.467 100.949 125.467 100.949 125.467 100.949C125.467 100.949 125.467 100.949 125.467 100.225C125.467 99.4999 125.467 99.4999 125.467 99.4999C125.467 99.4999 125.467 99.4999 125.468 99.4999C125.468 99.4999 125.468 99.4999 125.469 99.4999C125.47 99.4999 125.471 99.4999 125.473 99.4999C125.477 99.4999 125.483 99.4999 125.49 99.4999C125.506 99.4999 125.529 99.4999 125.559 99.4999C125.62 99.4999 125.711 99.4999 125.83 99.4999C126.068 99.4999 126.42 99.4999 126.875 99.4999C127.785 99.4999 129.107 99.4999 130.756 99.4999C134.055 99.4999 138.66 99.4999 143.89 99.4999L143.89 100.949Z" fill="#8A93A5"/>
<path d="M122.893 119.733H121.541V113.353H124.009C124.319 113.353 124.597 113.402 124.84 113.499C125.084 113.59 125.288 113.724 125.453 113.901C125.623 114.078 125.751 114.291 125.837 114.541C125.922 114.791 125.965 115.071 125.965 115.382C125.965 115.833 125.867 116.22 125.672 116.543C125.477 116.866 125.2 117.079 124.84 117.183L126.093 119.733H124.594L123.524 117.365H122.893V119.733ZM123.679 116.305C124.002 116.305 124.225 116.244 124.347 116.122C124.475 116.001 124.539 115.799 124.539 115.519V115.245C124.539 114.965 124.475 114.763 124.347 114.642C124.225 114.52 124.002 114.459 123.679 114.459H122.893V116.305H123.679ZM127.058 119.733V113.353H131.135V114.477H128.429V115.94H131.043V117.064H128.429V118.609H131.135V119.733H127.058ZM134.449 119.843C133.913 119.843 133.447 119.754 133.051 119.578C132.655 119.401 132.335 119.16 132.091 118.855L132.886 117.978C133.118 118.234 133.371 118.423 133.645 118.545C133.925 118.667 134.208 118.727 134.495 118.727C134.824 118.727 135.074 118.654 135.244 118.508C135.415 118.362 135.5 118.152 135.5 117.877C135.5 117.652 135.433 117.481 135.299 117.365C135.171 117.25 134.952 117.167 134.641 117.119L133.974 117.009C133.401 116.912 132.987 116.701 132.731 116.378C132.475 116.049 132.347 115.65 132.347 115.181C132.347 114.565 132.548 114.09 132.95 113.755C133.352 113.414 133.916 113.243 134.641 113.243C135.135 113.243 135.564 113.319 135.93 113.472C136.296 113.624 136.591 113.831 136.817 114.093L136.04 114.962C135.869 114.773 135.668 114.626 135.436 114.523C135.205 114.413 134.943 114.358 134.65 114.358C134.035 114.358 133.727 114.611 133.727 115.117C133.727 115.336 133.794 115.501 133.928 115.611C134.068 115.72 134.294 115.802 134.604 115.857L135.272 115.976C135.79 116.068 136.189 116.263 136.469 116.561C136.749 116.86 136.89 117.262 136.89 117.768C136.89 118.066 136.838 118.344 136.734 118.599C136.631 118.849 136.475 119.069 136.268 119.258C136.061 119.44 135.805 119.584 135.5 119.687C135.202 119.791 134.851 119.843 134.449 119.843ZM137.983 119.733V113.353H140.451C140.762 113.353 141.039 113.402 141.283 113.499C141.526 113.59 141.731 113.724 141.895 113.901C142.066 114.078 142.194 114.291 142.279 114.541C142.364 114.791 142.407 115.071 142.407 115.382C142.407 115.693 142.364 115.973 142.279 116.223C142.194 116.473 142.066 116.686 141.895 116.863C141.731 117.039 141.526 117.177 141.283 117.274C141.039 117.365 140.762 117.411 140.451 117.411H139.363V119.733H137.983ZM139.363 116.305H140.104C140.427 116.305 140.649 116.244 140.771 116.122C140.899 116.001 140.963 115.799 140.963 115.519V115.245C140.963 114.965 140.899 114.763 140.771 114.642C140.649 114.52 140.427 114.459 140.104 114.459H139.363V116.305ZM145.511 119.843C144.658 119.843 144.027 119.553 143.619 118.974C143.217 118.395 143.016 117.585 143.016 116.543C143.016 115.501 143.217 114.69 143.619 114.111C144.027 113.533 144.658 113.243 145.511 113.243C146.364 113.243 146.992 113.533 147.394 114.111C147.802 114.69 148.007 115.501 148.007 116.543C148.007 117.585 147.802 118.395 147.394 118.974C146.992 119.553 146.364 119.843 145.511 119.843ZM145.511 118.737C145.901 118.737 146.169 118.593 146.316 118.307C146.468 118.014 146.544 117.609 146.544 117.091V115.985C146.544 115.473 146.468 115.074 146.316 114.788C146.169 114.495 145.901 114.349 145.511 114.349C145.121 114.349 144.85 114.495 144.698 114.788C144.551 115.074 144.478 115.473 144.478 115.985V117.1C144.478 117.612 144.551 118.014 144.698 118.307C144.85 118.593 145.121 118.737 145.511 118.737ZM150.078 115.492H149.977V119.733H148.807V113.353H150.453L151.906 117.594H152.007V113.353H153.177V119.733H151.531L150.078 115.492ZM156.372 119.843C155.836 119.843 155.37 119.754 154.974 119.578C154.578 119.401 154.258 119.16 154.014 118.855L154.809 117.978C155.041 118.234 155.294 118.423 155.568 118.545C155.848 118.667 156.132 118.727 156.418 118.727C156.747 118.727 156.997 118.654 157.167 118.508C157.338 118.362 157.423 118.152 157.423 117.877C157.423 117.652 157.356 117.481 157.222 117.365C157.094 117.25 156.875 117.167 156.564 117.119L155.897 117.009C155.324 116.912 154.91 116.701 154.654 116.378C154.398 116.049 154.27 115.65 154.27 115.181C154.27 114.565 154.471 114.09 154.873 113.755C155.275 113.414 155.839 113.243 156.564 113.243C157.058 113.243 157.487 113.319 157.853 113.472C158.219 113.624 158.514 113.831 158.74 114.093L157.963 114.962C157.792 114.773 157.591 114.626 157.359 114.523C157.128 114.413 156.866 114.358 156.573 114.358C155.958 114.358 155.65 114.611 155.65 115.117C155.65 115.336 155.717 115.501 155.851 115.611C155.991 115.72 156.217 115.802 156.528 115.857L157.195 115.976C157.713 116.068 158.112 116.263 158.392 116.561C158.673 116.86 158.813 117.262 158.813 117.768C158.813 118.066 158.761 118.344 158.657 118.599C158.554 118.849 158.398 119.069 158.191 119.258C157.984 119.44 157.728 119.584 157.423 119.687C157.125 119.791 156.774 119.843 156.372 119.843ZM159.943 119.733V113.353H164.019V114.477H161.314V115.94H163.928V117.064H161.314V118.609H164.019V119.733H159.943Z" fill="#8A93A5"/>
</g>
<g filter="url(#filter1_d_577_3623)">
<path d="M320.874 58.0863L320.874 124.348L378.259 157.479L435.644 124.348L435.644 58.0863L378.259 24.9553L320.874 58.0863Z" fill="url(#paint10_linear_577_3623)" shape-rendering="crispEdges"/>
<path d="M320.874 58.0863L320.874 124.348L378.259 157.479L435.644 124.348L435.644 58.0863L378.259 24.9553L320.874 58.0863Z" stroke="#0061F1" stroke-opacity="0.5" stroke-width="1.61176" stroke-miterlimit="10" stroke-linejoin="round" shape-rendering="crispEdges"/>
</g>
<path d="M348.38 9.26758L347.987 2.88745H349.166L349.349 6.70821L349.404 7.91477H349.486L350.035 4.27682H351.269L351.817 7.91477H351.899L351.954 6.74478L352.137 2.88745H353.271L352.877 9.26758H351.141L350.675 5.74845H350.583L350.117 9.26758H348.38ZM354.099 9.26758V2.88745H358.175V4.01174H355.47V5.47423H358.084V6.59853H355.47V8.14329H358.175V9.26758H354.099ZM359.552 2.88745H361.792C362.419 2.88745 362.898 3.03979 363.227 3.34448C363.562 3.64916 363.729 4.06354 363.729 4.5876C363.729 4.95322 363.638 5.24572 363.455 5.46509C363.278 5.67837 363.022 5.83376 362.687 5.93126V5.98611C363.083 6.08361 363.388 6.25423 363.601 6.49798C363.821 6.74173 363.93 7.07993 363.93 7.51259C363.93 8.04883 363.76 8.47539 363.419 8.79227C363.083 9.10914 362.611 9.26758 362.002 9.26758H359.552V2.88745ZM361.581 8.30782C361.91 8.30782 362.151 8.25297 362.303 8.14329C362.456 8.0336 362.532 7.83251 362.532 7.54001V7.27493C362.532 6.98243 362.456 6.78134 362.303 6.67165C362.151 6.56196 361.91 6.50712 361.581 6.50712H360.887V8.30782H361.581ZM361.408 5.59306C361.731 5.59306 361.965 5.54126 362.111 5.43767C362.258 5.32798 362.331 5.13299 362.331 4.85267V4.57846C362.331 4.29814 362.258 4.10619 362.111 4.0026C361.965 3.89901 361.731 3.84721 361.408 3.84721H360.887V5.59306H361.408ZM367.876 6.59853H366.267V9.26758H364.887V2.88745H366.267V5.47423H367.876V2.88745H369.256V9.26758H367.876V6.59853ZM372.552 9.37727C371.699 9.37727 371.068 9.08781 370.66 8.50891C370.258 7.93001 370.057 7.11954 370.057 6.07751C370.057 5.03549 370.258 4.22502 370.66 3.64612C371.068 3.06721 371.699 2.77776 372.552 2.77776C373.405 2.77776 374.033 3.06721 374.435 3.64612C374.843 4.22502 375.047 5.03549 375.047 6.07751C375.047 7.11954 374.843 7.93001 374.435 8.50891C374.033 9.08781 373.405 9.37727 372.552 9.37727ZM372.552 8.27125C372.942 8.27125 373.21 8.12805 373.356 7.84165C373.509 7.54915 373.585 7.14391 373.585 6.62595V5.51994C373.585 5.00806 373.509 4.60892 373.356 4.32252C373.21 4.03002 372.942 3.88377 372.552 3.88377C372.162 3.88377 371.891 4.03002 371.739 4.32252C371.592 4.60892 371.519 5.00806 371.519 5.51994V6.63509C371.519 7.14696 371.592 7.54915 371.739 7.84165C371.891 8.12805 372.162 8.27125 372.552 8.27125ZM378.033 9.37727C377.18 9.37727 376.549 9.08781 376.141 8.50891C375.739 7.93001 375.537 7.11954 375.537 6.07751C375.537 5.03549 375.739 4.22502 376.141 3.64612C376.549 3.06721 377.18 2.77776 378.033 2.77776C378.886 2.77776 379.514 3.06721 379.916 3.64612C380.324 4.22502 380.528 5.03549 380.528 6.07751C380.528 7.11954 380.324 7.93001 379.916 8.50891C379.514 9.08781 378.886 9.37727 378.033 9.37727ZM378.033 8.27125C378.423 8.27125 378.691 8.12805 378.837 7.84165C378.99 7.54915 379.066 7.14391 379.066 6.62595V5.51994C379.066 5.00806 378.99 4.60892 378.837 4.32252C378.691 4.03002 378.423 3.88377 378.033 3.88377C377.643 3.88377 377.372 4.03002 377.219 4.32252C377.073 4.60892 377 5.00806 377 5.51994V6.63509C377 7.14696 377.073 7.54915 377.219 7.84165C377.372 8.12805 377.643 8.27125 378.033 8.27125ZM383.331 6.60767L382.764 7.4029V9.26758H381.393V2.88745H382.764V5.5565H382.837L383.532 4.49619L384.656 2.88745H386.192L384.281 5.58392L386.283 9.26758H384.738L383.331 6.60767ZM395.709 9.26758L395.307 7.73196H393.561L393.168 9.26758H391.779L393.506 2.88745H395.444L397.172 9.26758H395.709ZM394.475 4.21283H394.402L393.78 6.62595H395.097L394.475 4.21283ZM397.908 9.26758V2.88745H400.376C400.687 2.88745 400.964 2.9362 401.208 3.0337C401.452 3.1251 401.656 3.25916 401.821 3.43588C401.991 3.6126 402.119 3.82588 402.205 4.07572C402.29 4.32557 402.332 4.60588 402.332 4.91666C402.332 5.22744 402.29 5.50775 402.205 5.75759C402.119 6.00743 401.991 6.22072 401.821 6.39743C401.656 6.57415 401.452 6.71126 401.208 6.80876C400.964 6.90017 400.687 6.94587 400.376 6.94587H399.289V9.26758H397.908ZM399.289 5.83986H400.029C400.352 5.83986 400.574 5.77892 400.696 5.65705C400.824 5.53517 400.888 5.33408 400.888 5.05377V4.77955C400.888 4.49924 400.824 4.29814 400.696 4.17627C400.574 4.0544 400.352 3.99346 400.029 3.99346H399.289V5.83986ZM403.38 9.26758V8.25297H404.751V3.90205H403.38V2.88745H407.493V3.90205H406.122V8.25297H407.493V9.26758H403.38Z" fill="white"/>
<path d="M375.766 40.4043L379.412 34.0896L383.447 36.4191L382.804 37.5319L380.127 35.9858L379.291 37.4333L381.878 38.9272L381.236 40.0399L378.648 38.5461L377.766 40.075L380.444 41.6211L379.801 42.7338L375.766 40.4043ZM381.191 43.5362L384.837 37.2215L389.025 39.6398L388.383 40.7526L385.551 39.1177L384.715 40.5652L387.249 42.0277L386.606 43.1405L384.073 41.678L382.548 44.3196L381.191 43.5362ZM386.615 46.668L390.261 40.3533L394.45 42.7717L393.807 43.8844L390.976 42.2496L390.14 43.6971L392.673 45.1596L392.031 46.2723L389.498 44.8098L387.972 47.4515L386.615 46.668ZM391.995 49.7738L392.574 48.7696L393.931 49.5531L396.418 45.2468L395.061 44.4633L395.64 43.4591L399.712 45.8095L399.132 46.8137L397.775 46.0303L395.289 50.3366L396.646 51.12L396.066 52.1242L391.995 49.7738ZM399.537 54.273C398.692 53.7855 398.229 53.1399 398.146 52.3362C398.073 51.5299 398.336 50.6081 398.935 49.5707C399.533 48.5334 400.199 47.8479 400.93 47.5142C401.671 47.1781 402.464 47.2537 403.308 47.7412C403.634 47.9292 403.894 48.1399 404.089 48.3731C404.294 48.6038 404.441 48.8498 404.532 49.1111C404.622 49.3723 404.66 49.6476 404.646 49.9369C404.638 50.2297 404.587 50.534 404.493 50.8498L403.049 50.4261C403.099 50.2544 403.137 50.0913 403.162 49.9368C403.187 49.7823 403.186 49.6372 403.16 49.5014C403.14 49.3692 403.087 49.2459 403 49.1314C402.923 49.0145 402.806 48.9107 402.649 48.8202C402.281 48.6078 401.935 48.6011 401.611 48.8C401.297 48.9965 400.993 49.348 400.701 49.8546L400.063 50.9583C399.771 51.4649 399.617 51.9065 399.6 52.2831C399.593 52.6571 399.774 52.9503 400.142 53.1627C400.455 53.3438 400.737 53.3778 400.987 53.2649C401.244 53.1555 401.492 52.9692 401.732 52.7059L402.821 53.7447C402.595 53.9839 402.357 54.1802 402.107 54.3337C401.864 54.4907 401.605 54.5984 401.33 54.6568C401.058 54.7091 400.772 54.7044 400.469 54.6426C400.173 54.5842 399.863 54.4611 399.537 54.273ZM402.844 56.0375L403.424 55.0334L404.781 55.8168L407.267 51.5105L405.91 50.7271L406.49 49.7229L410.561 52.0733L409.981 53.0775L408.624 52.294L406.138 56.6003L407.495 57.3838L406.915 58.388L402.844 56.0375ZM408.314 59.1955L411.959 52.8809L415.994 55.2104L415.352 56.3232L412.674 54.7771L411.838 56.2246L414.426 57.7184L413.783 58.8312L411.196 57.3373L410.313 58.8663L412.991 60.4123L412.349 61.5251L408.314 59.1955ZM417.247 58.7565L417.148 58.699L414.724 62.8967L413.566 62.2282L417.212 55.9135L418.841 56.8537L417.855 61.8819L417.955 61.9393L420.378 57.7416L421.536 58.4102L417.891 64.7249L416.262 63.7847L417.247 58.7565ZM424.835 61.7982L421.832 67.0001L420.475 66.2167L423.478 61.0147L421.659 59.9649L422.302 58.8521L427.296 61.7353L426.653 62.8481L424.835 61.7982Z" fill="#66A3FF"/>
<path d="M334.811 114.646C334.811 115.258 334.71 115.791 334.508 116.244C334.306 116.697 334.031 117.062 333.683 117.341L332.68 116.432C332.972 116.167 333.188 115.878 333.328 115.565C333.467 115.244 333.536 114.921 333.536 114.593C333.536 114.217 333.453 113.932 333.286 113.737C333.119 113.542 332.878 113.444 332.565 113.444C332.307 113.444 332.112 113.521 331.98 113.674C331.848 113.82 331.754 114.071 331.698 114.426L331.573 115.189C331.461 115.843 331.221 116.317 330.852 116.609C330.476 116.902 330.019 117.048 329.483 117.048C328.78 117.048 328.237 116.818 327.854 116.359C327.464 115.899 327.269 115.255 327.269 114.426C327.269 113.862 327.356 113.371 327.53 112.953C327.704 112.535 327.941 112.198 328.24 111.94L329.233 112.828C329.017 113.023 328.849 113.253 328.731 113.517C328.606 113.782 328.543 114.081 328.543 114.416C328.543 115.119 328.832 115.471 329.41 115.471C329.661 115.471 329.849 115.394 329.974 115.241C330.1 115.081 330.194 114.823 330.256 114.468L330.392 113.705C330.497 113.113 330.719 112.657 331.061 112.337C331.402 112.017 331.862 111.856 332.44 111.856C332.781 111.856 333.098 111.916 333.39 112.034C333.676 112.152 333.926 112.33 334.142 112.567C334.351 112.803 334.515 113.096 334.633 113.444C334.752 113.785 334.811 114.186 334.811 114.646ZM334.811 108.1C334.811 109.075 334.484 109.799 333.829 110.273C333.167 110.739 332.238 110.972 331.04 110.972C329.842 110.972 328.916 110.739 328.261 110.273C327.599 109.799 327.269 109.075 327.269 108.1C327.269 107.724 327.321 107.393 327.425 107.107C327.523 106.815 327.662 106.564 327.843 106.355C328.024 106.146 328.244 105.976 328.501 105.843C328.759 105.704 329.048 105.596 329.368 105.519L329.724 106.982C329.549 107.024 329.389 107.073 329.243 107.128C329.097 107.184 328.971 107.257 328.867 107.348C328.762 107.431 328.682 107.539 328.627 107.671C328.564 107.797 328.533 107.95 328.533 108.131C328.533 108.556 328.7 108.859 329.034 109.04C329.361 109.214 329.818 109.301 330.403 109.301L331.677 109.301C332.262 109.301 332.722 109.214 333.056 109.04C333.383 108.859 333.547 108.556 333.547 108.131C333.547 107.769 333.435 107.508 333.213 107.348C332.99 107.18 332.704 107.059 332.356 106.982L332.711 105.519C333.032 105.596 333.321 105.704 333.578 105.843C333.836 105.976 334.059 106.146 334.247 106.355C334.428 106.564 334.567 106.815 334.665 107.107C334.762 107.393 334.811 107.724 334.811 108.1ZM334.686 100.593L332.931 101.053L332.931 103.048L334.686 103.497L334.686 105.085L327.394 103.11L327.394 100.896L334.686 98.9214L334.686 100.593ZM328.909 102.003L328.909 102.087L331.667 102.797L331.667 101.293L328.909 102.003ZM334.686 97.9122L327.394 97.9122L327.394 96.3348L333.401 96.3348L333.401 93.2009L334.686 93.2009L334.686 97.9122ZM334.686 88.0654L332.931 88.525L332.931 90.5203L334.686 90.9695L334.686 92.5573L327.394 90.5829L327.394 88.3683L334.686 86.3939L334.686 88.0654ZM328.909 89.4756L328.909 89.5592L331.667 90.2696L331.667 88.7653L328.909 89.4756ZM327.394 85.5414L327.394 82.9821C327.394 82.2647 327.568 81.718 327.916 81.342C328.265 80.9589 328.738 80.7674 329.337 80.7674C329.755 80.7674 330.089 80.8719 330.34 81.0808C330.584 81.2828 330.761 81.5753 330.873 81.9583L330.935 81.9583C331.047 81.5056 331.242 81.1574 331.52 80.9137C331.799 80.663 332.185 80.5376 332.68 80.5376C333.293 80.5376 333.78 80.7326 334.142 81.1226C334.504 81.5056 334.686 82.0454 334.686 82.7418L334.686 85.5414L327.394 85.5414ZM333.589 83.2223C333.589 82.8463 333.526 82.5712 333.401 82.3971C333.275 82.2229 333.045 82.1359 332.711 82.1359L332.408 82.1359C332.074 82.1359 331.844 82.2229 331.719 82.3971C331.593 82.5712 331.531 82.8463 331.531 83.2223L331.531 84.0162L333.589 84.0162L333.589 83.2223ZM330.486 83.4208C330.486 83.0517 330.427 82.7836 330.309 82.6164C330.183 82.4493 329.96 82.3657 329.64 82.3657L329.327 82.3657C329.006 82.3657 328.787 82.4493 328.668 82.6164C328.55 82.7836 328.491 83.0517 328.491 83.4208L328.491 84.0162L330.486 84.0162L330.486 83.4208ZM334.686 79.121L327.394 79.121L327.394 77.5436L333.401 77.5436L333.401 74.4097L334.686 74.4097L334.686 79.121ZM334.686 72.9826L327.394 72.9826L327.394 68.3235L328.679 68.3235L328.679 71.4156L330.35 71.4156L330.35 68.428L331.635 68.428L331.635 71.4156L333.401 71.4156L333.401 68.3235L334.686 68.3235L334.686 72.9826Z" fill="#66A3FF"/>
<g clip-path="url(#clip1_577_3623)">
<path d="M363.69 77.9436V81.9837C363.69 82.1848 363.696 82.3707 363.709 82.5413C363.727 82.7058 363.763 82.846 363.818 82.9618C363.879 83.0776 363.968 83.169 364.083 83.236C364.199 83.2969 364.358 83.3274 364.559 83.3274C364.76 83.3274 364.918 83.2969 365.034 83.236C365.15 83.169 365.235 83.0776 365.29 82.9618C365.351 82.846 365.387 82.7058 365.4 82.5413C365.418 82.3707 365.427 82.1848 365.427 81.9837V77.9436H366.798V81.8009C366.798 82.2397 366.768 82.6236 366.707 82.9526C366.652 83.2817 366.542 83.5559 366.378 83.7753C366.213 83.9947 365.985 84.1592 365.692 84.2689C365.4 84.3786 365.022 84.4334 364.559 84.4334C364.095 84.4334 363.718 84.3786 363.425 84.2689C363.133 84.1592 362.904 83.9947 362.74 83.7753C362.575 83.5559 362.462 83.2817 362.401 82.9526C362.347 82.6236 362.319 82.2397 362.319 81.8009V77.9436H363.69ZM367.992 84.3237V77.9436H370.46C370.771 77.9436 371.048 77.9923 371.292 78.0898C371.535 78.1813 371.74 78.3153 371.904 78.492C372.075 78.6688 372.203 78.882 372.288 79.1319C372.373 79.3817 372.416 79.662 372.416 79.9728C372.416 80.2836 372.373 80.5639 372.288 80.8137C372.203 81.0636 372.075 81.2769 371.904 81.4536C371.74 81.6303 371.535 81.7674 371.292 81.8649C371.048 81.9563 370.771 82.002 370.46 82.002H369.372V84.3237H367.992ZM369.372 80.896H370.113C370.435 80.896 370.658 80.8351 370.78 80.7132C370.908 80.5913 370.972 80.3902 370.972 80.1099V79.8357C370.972 79.5554 370.908 79.3543 370.78 79.2324C370.658 79.1105 370.435 79.0496 370.113 79.0496H369.372V80.896ZM373.363 77.9436H375.42C376.279 77.9436 376.916 78.2178 377.33 78.7663C377.744 79.3147 377.952 80.1038 377.952 81.1337C377.952 82.1635 377.744 82.9526 377.33 83.5011C376.916 84.0495 376.279 84.3237 375.42 84.3237H373.363V77.9436ZM375.328 83.2451C375.737 83.2451 376.035 83.1141 376.224 82.8521C376.413 82.5901 376.507 82.2092 376.507 81.7095V80.5487C376.507 80.0551 376.413 79.6773 376.224 79.4152C376.035 79.1532 375.737 79.0222 375.328 79.0222H374.716V83.2451H375.328ZM382.235 84.3237L381.833 82.7881H380.087L379.694 84.3237H378.304L380.032 77.9436H381.97L383.697 84.3237H382.235ZM381.001 79.269H380.928L380.306 81.6821H381.623L381.001 79.269ZM387.167 79.0679V84.3237H385.796V79.0679H383.959V77.9436H389.005V79.0679H387.167ZM389.952 84.3237V77.9436H394.028V79.0679H391.323V80.5304H393.937V81.6547H391.323V83.1994H394.028V84.3237H389.952Z" fill="#66A3FF"/>
<path d="M396.073 96.3191C396.356 96.6021 396.356 97.061 396.073 97.344L391.461 101.956C391.178 102.239 390.719 102.239 390.436 101.956C390.153 101.673 390.153 101.214 390.436 100.931L394.536 96.8315L390.436 92.7318C390.153 92.4488 390.153 91.9899 390.436 91.7069C390.719 91.4238 391.178 91.4238 391.461 91.7069L396.073 96.3191ZM360.957 96.8315C360.957 96.1068 360.957 96.1068 360.957 96.1068C360.957 96.1068 360.957 96.1068 360.957 96.1068C360.957 96.1068 360.958 96.1068 360.958 96.1068C360.959 96.1068 360.96 96.1068 360.961 96.1068C360.964 96.1068 360.968 96.1068 360.974 96.1068C360.985 96.1068 361.002 96.1068 361.024 96.1068C361.068 96.1068 361.135 96.1068 361.223 96.1068C361.4 96.1068 361.664 96.1068 362.014 96.1068C362.714 96.1068 363.756 96.1068 365.125 96.1068C367.863 96.1068 371.908 96.1068 377.138 96.1068L377.138 97.5563C371.908 97.5563 367.863 97.5563 365.125 97.5563C363.756 97.5563 362.714 97.5563 362.014 97.5563C361.664 97.5563 361.4 97.5563 361.223 97.5563C361.135 97.5563 361.068 97.5563 361.024 97.5563C361.002 97.5563 360.985 97.5563 360.974 97.5563C360.968 97.5563 360.964 97.5563 360.961 97.5563C360.96 97.5563 360.959 97.5563 360.958 97.5563C360.958 97.5563 360.957 97.5563 360.957 97.5563C360.957 97.5563 360.957 97.5563 360.957 97.5563C360.957 97.5563 360.957 97.5563 360.957 96.8315ZM377.138 96.1068C382.367 96.1068 386.973 96.1068 390.272 96.1068C391.921 96.1068 393.243 96.1068 394.153 96.1068C394.608 96.1068 394.96 96.1068 395.198 96.1068C395.317 96.1068 395.408 96.1068 395.469 96.1068C395.499 96.1068 395.522 96.1068 395.538 96.1068C395.545 96.1068 395.551 96.1068 395.555 96.1068C395.557 96.1068 395.558 96.1068 395.559 96.1068C395.56 96.1068 395.56 96.1068 395.56 96.1068C395.56 96.1068 395.561 96.1068 395.561 96.1068C395.561 96.1068 395.561 96.1068 395.561 96.8315C395.561 97.5563 395.561 97.5563 395.561 97.5563C395.561 97.5563 395.56 97.5563 395.56 97.5563C395.56 97.5563 395.56 97.5563 395.559 97.5563C395.558 97.5563 395.557 97.5563 395.555 97.5563C395.551 97.5563 395.545 97.5563 395.538 97.5563C395.522 97.5563 395.499 97.5563 395.469 97.5563C395.408 97.5563 395.317 97.5563 395.198 97.5563C394.96 97.5563 394.608 97.5563 394.153 97.5563C393.243 97.5563 391.921 97.5563 390.272 97.5563C386.973 97.5563 382.367 97.5563 377.138 97.5563L377.138 96.1068Z" fill="#66A3FF"/>
</g>
<path d="M382.144 148.621L380.805 149.394L377.159 143.079L379.602 141.669C379.91 141.491 380.212 141.381 380.509 141.338C380.802 141.289 381.081 141.305 381.345 141.386C381.615 141.464 381.863 141.602 382.09 141.8C382.318 141.999 382.52 142.252 382.698 142.559C382.955 143.006 383.08 143.444 383.072 143.875C383.063 144.307 382.911 144.676 382.614 144.984L385.311 146.793L383.827 147.649L381.416 145.917L380.791 146.277L382.144 148.621ZM380.963 144.779C381.283 144.594 381.468 144.407 381.519 144.217C381.576 144.023 381.525 143.787 381.365 143.51L381.208 143.238C381.048 142.961 380.87 142.799 380.673 142.751C380.483 142.7 380.228 142.767 379.908 142.951L379.13 143.401L380.185 145.228L380.963 144.779ZM386.266 146.241L382.62 139.926L386.655 137.597L387.298 138.709L384.62 140.255L385.455 141.703L388.043 140.209L388.685 141.322L386.098 142.816L386.981 144.345L389.658 142.799L390.301 143.911L386.266 146.241ZM394.902 141.255L393.627 139.965L391.899 140.962L392.387 142.707L391.012 143.501L389.076 136.199L390.994 135.092L396.35 140.419L394.902 141.255ZM390.792 136.957L390.72 136.999L391.484 139.742L392.787 138.99L390.792 136.957ZM397.224 139.914L393.578 133.6L394.944 132.811L397.947 138.013L400.661 136.446L401.304 137.559L397.224 139.914ZM407.63 126.971L410.633 132.173L409.276 132.956L406.273 127.754L404.454 128.804L403.812 127.691L408.806 124.808L409.448 125.921L407.63 126.971ZM413.344 130.608L412.764 129.603L414.121 128.82L411.635 124.514L410.278 125.297L409.698 124.293L413.769 121.942L414.349 122.947L412.992 123.73L415.478 128.036L416.835 127.253L417.415 128.257L413.344 130.608ZM420.364 122.803L419.418 120.997L419.337 121.044L420.036 124.971L416.985 122.402L416.903 122.449L417.994 124.171L419.619 126.985L418.442 127.664L414.797 121.349L416.398 120.425L418.403 122.101L418.476 122.06L418.026 119.484L419.519 118.623L423.165 124.937L421.989 125.616L420.364 122.803ZM424.238 124.318L420.592 118.003L424.627 115.674L425.27 116.786L422.592 118.332L423.427 119.78L426.015 118.286L426.657 119.399L424.07 120.893L424.953 122.422L427.63 120.875L428.273 121.988L424.238 124.318Z" fill="#66A3FF"/>
<defs>
<filter id="filter0_d_577_3623" x="82.5911" y="16.9558" width="118.46" height="136.215" filterUnits="userSpaceOnUse" color-interpolation-filters="sRGB">
<feFlood flood-opacity="0" result="BackgroundImageFix"/>
<feColorMatrix in="SourceAlpha" type="matrix" values="0 0 0 0 0 0 0 0 0 0 0 0 0 0 0 0 0 0 127 0" result="hardAlpha"/>
<feOffset/>
<feGaussianBlur stdDeviation="0.519896"/>
<feComposite in2="hardAlpha" operator="out"/>
<feColorMatrix type="matrix" values="0 0 0 0 0 0 0 0 0 0.301471 0 0 0 0 0.75 0 0 0 1 0"/>
<feBlend mode="normal" in2="BackgroundImageFix" result="effect1_dropShadow_577_3623"/>
<feBlend mode="normal" in="SourceGraphic" in2="effect1_dropShadow_577_3623" result="shape"/>
</filter>
<filter id="filter1_d_577_3623" x="319.029" y="23.1096" width="118.461" height="136.215" filterUnits="userSpaceOnUse" color-interpolation-filters="sRGB">
<feFlood flood-opacity="0" result="BackgroundImageFix"/>
<feColorMatrix in="SourceAlpha" type="matrix" values="0 0 0 0 0 0 0 0 0 0 0 0 0 0 0 0 0 0 127 0" result="hardAlpha"/>
<feOffset/>
<feGaussianBlur stdDeviation="0.519896"/>
<feComposite in2="hardAlpha" operator="out"/>
<feColorMatrix type="matrix" values="0 0 0 0 0 0 0 0 0 0.301471 0 0 0 0 0.75 0 0 0 1 0"/>
<feBlend mode="normal" in2="BackgroundImageFix" result="effect1_dropShadow_577_3623"/>
<feBlend mode="normal" in="SourceGraphic" in2="effect1_dropShadow_577_3623" result="shape"/>
</filter>
<radialGradient id="paint0_radial_577_3623" cx="0" cy="0" r="1" gradientUnits="userSpaceOnUse" gradientTransform="translate(247.944 8.18657) rotate(-8.14295) scale(27.4599 8.13758)">
<stop stop-color="#0051CC"/>
<stop offset="0.473511" stop-color="#0061F1"/>
<stop offset="1" stop-color="#5A97F2"/>
</radialGradient>
<linearGradient id="paint1_linear_577_3623" x1="240.787" y1="15.1496" x2="257.438" y2="42.5333" gradientUnits="userSpaceOnUse">
<stop stop-color="#1D2838"/>
<stop offset="1" stop-color="#1D2838" stop-opacity="0.5"/>
</linearGradient>
<linearGradient id="paint2_linear_577_3623" x1="285.611" y1="92.4055" x2="235.76" y2="92.0937" gradientUnits="userSpaceOnUse">
<stop stop-color="#E2E4E9"/>
<stop offset="1" stop-color="white"/>
</linearGradient>
<linearGradient id="paint3_linear_577_3623" x1="285.611" y1="80.3825" x2="235.76" y2="80.0708" gradientUnits="userSpaceOnUse">
<stop stop-color="#E2E4E9"/>
<stop offset="1" stop-color="white"/>
</linearGradient>
<linearGradient id="paint4_linear_577_3623" x1="285.887" y1="68.3596" x2="236.035" y2="68.0478" gradientUnits="userSpaceOnUse">
<stop stop-color="#E2E4E9"/>
<stop offset="1" stop-color="white"/>
</linearGradient>
<linearGradient id="paint5_linear_577_3623" x1="28.7843" y1="110.566" x2="28.7843" y2="75.0601" gradientUnits="userSpaceOnUse">
<stop stop-color="#E2E4E9"/>
<stop offset="1" stop-color="white"/>
</linearGradient>
<linearGradient id="paint6_linear_577_3623" x1="486.883" y1="64.7949" x2="501.232" y2="39.9404" gradientUnits="userSpaceOnUse">
<stop stop-color="#E2E4E9"/>
<stop offset="1" stop-color="white"/>
</linearGradient>
<linearGradient id="paint7_linear_577_3623" x1="514.703" y1="100.143" x2="529.053" y2="75.2886" gradientUnits="userSpaceOnUse">
<stop stop-color="#E2E4E9"/>
<stop offset="1" stop-color="white"/>
</linearGradient>
<linearGradient id="paint8_linear_577_3623" x1="479.545" y1="104.125" x2="493.894" y2="79.2705" gradientUnits="userSpaceOnUse">
<stop stop-color="#E2E4E9"/>
<stop offset="1" stop-color="white"/>
</linearGradient>
<linearGradient id="paint9_linear_577_3623" x1="141.821" y1="151.326" x2="141.821" y2="18.8015" gradientUnits="userSpaceOnUse">
<stop stop-color="#212731"/>
<stop offset="1" stop-color="#5C4848" stop-opacity="0"/>
<stop offset="1" stop-color="#232B37"/>
</linearGradient>
<linearGradient id="paint10_linear_577_3623" x1="320.874" y1="58.0863" x2="435.644" y2="124.348" gradientUnits="userSpaceOnUse">
<stop stop-color="#232B37"/>
<stop offset="1" stop-color="#004DBF" stop-opacity="0"/>
</linearGradient>
<clipPath id="clip0_577_3623">
<rect width="50.3658" height="69.4686" fill="white" transform="translate(117.586 52.2642)"/>
</clipPath>
<clipPath id="clip1_577_3623">
<rect width="50.3654" height="32.0157" fill="white" transform="translate(353.076 75.3237)"/>
</clipPath>
</defs>
</svg>
