<svg width="618" height="388" viewBox="0 0 618 388" fill="none" xmlns="http://www.w3.org/2000/svg">
<path d="M548.025 2.59493C548.025 1.57007 548.856 0.739258 549.881 0.739258H575.118C576.143 0.739258 576.974 1.57007 576.974 2.59494V4.40308H548.025V2.59493Z" fill="url(#paint0_radial_615_5019)"/>
<path d="M548.025 4.40283H576.974V32.4123C576.974 33.4372 576.143 34.268 575.119 34.268H549.881C548.856 34.268 548.025 33.4372 548.025 32.4123V4.40283Z" fill="url(#paint1_linear_615_5019)"/>
<path fill-rule="evenodd" clip-rule="evenodd" d="M569.776 17.3172C569.988 17.121 570.075 16.8189 569.972 16.551C569.835 16.1804 569.67 15.8222 569.483 15.4827L569.337 15.2304C569.131 14.8877 568.901 14.5638 568.649 14.257C568.462 14.0343 568.16 13.957 567.885 14.0449L566.151 14.5981C565.733 14.276 565.244 14.0081 564.78 13.8047L564.391 12.0262C564.328 11.7434 564.11 11.5188 563.824 11.4711C563.394 11.3992 562.952 11.3618 562.5 11.3618C562.048 11.3618 561.606 11.3992 561.176 11.4711C560.89 11.5188 560.672 11.7434 560.609 12.0262L560.22 13.8047C559.728 14.0081 559.267 14.276 558.849 14.5981L557.116 14.0449C556.84 13.957 556.537 14.0343 556.352 14.257C556.1 14.5638 555.869 14.8877 555.663 15.2304L555.518 15.4827C555.329 15.8222 555.164 16.1804 555.026 16.551C554.926 16.822 555.011 17.121 555.224 17.3172L556.572 18.5445C556.537 18.803 556.52 19.0677 556.52 19.3356C556.52 19.6035 556.537 19.8682 556.572 20.1268L555.224 21.354C555.011 21.5502 554.926 21.8523 555.026 22.1202C555.164 22.4909 555.329 22.8491 555.518 23.1886L555.664 23.4409C555.869 23.7835 556.1 24.1074 556.352 24.4158C556.537 24.6369 556.84 24.7148 557.116 24.6276L558.849 24.0732C559.267 24.394 559.728 24.6619 560.22 24.8674L560.609 26.646C560.672 26.9263 560.89 27.1256 561.176 27.2004C561.606 27.272 562.048 27.3094 562.472 27.3094C562.952 27.3094 563.394 27.272 563.824 27.2004C564.11 27.1256 564.328 26.9263 564.391 26.646L564.78 24.8674C565.244 24.6619 565.733 24.394 566.151 24.0732L567.885 24.6276C568.16 24.7148 568.462 24.6369 568.649 24.4158C568.901 24.1074 569.131 23.7835 569.337 23.4409L569.483 23.1886C569.67 22.8491 569.835 22.4909 569.972 22.1202C570.075 21.8523 569.988 21.5502 569.776 21.354L568.427 20.1268C568.462 19.8682 568.48 19.6035 568.48 19.3356C568.48 19.0677 568.462 18.803 568.427 18.5445L569.776 17.3172ZM562.5 22.8576C564.445 22.8576 566.021 21.2808 566.021 19.3357C566.021 17.3906 564.445 15.8138 562.5 15.8138C560.554 15.8138 558.978 17.3906 558.978 19.3357C558.978 21.2808 560.554 22.8576 562.5 22.8576Z" fill="#C5C9D2"/>
<path d="M578.502 100.969C569.631 106.114 555.19 106.083 546.251 100.901C537.312 95.7187 536.538 82.3716 545.409 77.2082C554.28 72.0448 570.848 72.8292 579.787 78.0173C588.726 83.2054 587.38 95.8175 578.502 100.969Z" fill="#6E798F"/>
<path d="M585.527 85.9965C585.573 78.69 575.399 72.7025 562.802 72.623C550.206 72.5435 539.958 78.4021 539.912 85.7085C539.866 93.0149 550.04 99.0024 562.637 99.082C575.233 99.1615 585.481 93.3029 585.527 85.9965Z" fill="url(#paint2_linear_615_5019)"/>
<path d="M578.502 89.9686C569.631 95.1135 555.19 95.0827 546.251 89.9007C537.312 84.7187 536.538 71.3716 545.409 66.2082C554.28 61.0448 570.848 61.8292 579.787 67.0173C588.726 72.2054 587.38 84.8176 578.502 89.9686Z" fill="#6E798F"/>
<path d="M585.527 74.995C585.573 67.6885 575.399 61.7011 562.802 61.6215C550.206 61.542 539.958 67.4006 539.912 74.707C539.866 82.0135 550.04 88.001 562.637 88.0805C575.233 88.16 585.481 82.3014 585.527 74.995Z" fill="url(#paint3_linear_615_5019)"/>
<path d="M578.502 78.9626C569.631 84.1137 555.19 84.0828 546.251 78.8947C537.312 73.7065 536.538 60.3656 545.409 55.2022C554.28 50.0387 570.848 50.8293 579.787 56.0113C588.726 61.1932 587.38 73.8177 578.502 78.9626Z" fill="#6E798F"/>
<path d="M585.779 63.994C585.825 56.6876 575.651 50.7001 563.054 50.6206C550.458 50.541 540.21 56.3996 540.164 63.7061C540.118 71.0125 550.293 77 562.889 77.0795C575.485 77.159 585.734 71.3005 585.779 63.994Z" fill="url(#paint4_linear_615_5019)"/>
<path d="M548.908 90.1355L548.022 89.6229C547.883 89.5225 547.769 89.391 547.689 89.2389C547.609 89.0867 547.565 88.9179 547.561 88.7458V86.3247C547.561 85.985 547.77 85.8306 548.022 85.9726L548.908 86.4914C549.047 86.5911 549.161 86.7225 549.24 86.875C549.319 87.0274 549.361 87.1966 549.363 87.3685V89.7896C549.344 90.1355 549.16 90.259 548.908 90.1355Z" fill="url(#paint5_linear_615_5019)"/>
<path d="M548.908 79.0177L548.022 78.505C547.882 78.4057 547.767 78.2745 547.687 78.1221C547.607 77.9697 547.564 77.8004 547.561 77.628V75.2069C547.561 74.8672 547.77 74.7128 548.022 74.861L548.908 75.3736C549.046 75.474 549.16 75.6056 549.239 75.7579C549.318 75.9102 549.36 76.0789 549.363 76.2507V78.6718C549.344 79.0177 549.16 79.1783 548.908 79.0177Z" fill="url(#paint6_linear_615_5019)"/>
<path d="M548.908 100.993L548.022 100.48C547.883 100.38 547.769 100.248 547.689 100.096C547.609 99.9441 547.565 99.7753 547.561 99.6032V97.1821C547.561 96.8424 547.77 96.688 548.022 96.83L548.908 97.3488C549.047 97.4485 549.161 97.5799 549.24 97.7324C549.319 97.8848 549.361 98.054 549.363 98.2259V100.635C549.344 100.987 549.16 101.141 548.908 100.993Z" fill="url(#paint7_linear_615_5019)"/>
<path d="M548.025 126.663C548.025 125.638 548.856 124.807 549.881 124.807H575.118C576.143 124.807 576.974 125.638 576.974 126.663V128.471H548.025V126.663Z" fill="url(#paint8_radial_615_5019)"/>
<path d="M548.025 128.471H576.974V156.48C576.974 157.505 576.143 158.336 575.119 158.336H549.881C548.856 158.336 548.025 157.505 548.025 156.48V128.471Z" fill="url(#paint9_linear_615_5019)"/>
<path fill-rule="evenodd" clip-rule="evenodd" d="M569.776 141.385C569.988 141.189 570.075 140.887 569.972 140.619C569.835 140.248 569.67 139.89 569.483 139.551L569.337 139.298C569.131 138.956 568.901 138.632 568.649 138.325C568.462 138.102 568.16 138.025 567.885 138.113L566.151 138.666C565.733 138.344 565.244 138.076 564.78 137.873L564.391 136.094C564.328 135.811 564.11 135.587 563.824 135.539C563.394 135.467 562.952 135.43 562.5 135.43C562.048 135.43 561.606 135.467 561.176 135.539C560.89 135.587 560.672 135.811 560.609 136.094L560.22 137.873C559.728 138.076 559.267 138.344 558.849 138.666L557.116 138.113C556.84 138.025 556.537 138.102 556.352 138.325C556.1 138.632 555.869 138.956 555.663 139.298L555.518 139.551C555.329 139.89 555.164 140.248 555.026 140.619C554.926 140.89 555.011 141.189 555.224 141.385L556.572 142.612C556.537 142.871 556.52 143.136 556.52 143.403C556.52 143.671 556.537 143.936 556.572 144.195L555.224 145.422C555.011 145.618 554.926 145.92 555.026 146.188C555.164 146.559 555.329 146.917 555.518 147.256L555.664 147.509C555.869 147.851 556.1 148.175 556.352 148.484C556.537 148.705 556.84 148.783 557.116 148.695L558.849 148.141C559.267 148.462 559.728 148.73 560.22 148.935L560.609 150.714C560.672 150.994 560.89 151.194 561.176 151.268C561.606 151.34 562.048 151.377 562.472 151.377C562.952 151.377 563.394 151.34 563.824 151.268C564.11 151.194 564.328 150.994 564.391 150.714L564.78 148.935C565.244 148.73 565.733 148.462 566.151 148.141L567.885 148.695C568.16 148.783 568.462 148.705 568.649 148.484C568.901 148.175 569.131 147.851 569.337 147.509L569.483 147.256C569.67 146.917 569.835 146.559 569.972 146.188C570.075 145.92 569.988 145.618 569.776 145.422L568.427 144.195C568.462 143.936 568.48 143.671 568.48 143.403C568.48 143.136 568.462 142.871 568.427 142.612L569.776 141.385ZM562.5 146.925C564.445 146.925 566.021 145.349 566.021 143.404C566.021 141.459 564.445 139.882 562.5 139.882C560.554 139.882 558.978 141.459 558.978 143.404C558.978 145.349 560.554 146.925 562.5 146.925Z" fill="#C5C9D2"/>
<path d="M578.502 225.036C569.631 230.181 555.19 230.15 546.251 224.969C537.312 219.787 536.538 206.44 545.409 201.276C554.28 196.113 570.848 196.897 579.787 202.085C588.726 207.273 587.38 219.885 578.502 225.036Z" fill="#6E798F"/>
<path d="M585.527 210.064C585.573 202.758 575.399 196.77 562.802 196.691C550.206 196.611 539.958 202.47 539.912 209.776C539.866 217.083 550.04 223.07 562.637 223.15C575.233 223.229 585.481 217.371 585.527 210.064Z" fill="url(#paint10_linear_615_5019)"/>
<path d="M578.502 214.037C569.631 219.181 555.19 219.151 546.251 213.969C537.312 208.787 536.538 195.44 545.409 190.276C554.28 185.113 570.848 185.897 579.787 191.085C588.726 196.273 587.38 208.885 578.502 214.037Z" fill="#6E798F"/>
<path d="M585.527 199.063C585.573 191.756 575.399 185.769 562.802 185.689C550.206 185.61 539.958 191.468 539.912 198.775C539.866 206.081 550.04 212.069 562.637 212.148C575.233 212.228 585.481 206.369 585.527 199.063Z" fill="url(#paint11_linear_615_5019)"/>
<path d="M578.502 203.03C569.631 208.182 555.19 208.151 546.251 202.963C537.312 197.774 536.538 184.433 545.409 179.27C554.28 174.107 570.848 174.897 579.787 180.079C588.726 185.261 587.38 197.886 578.502 203.03Z" fill="#6E798F"/>
<path d="M585.779 188.062C585.825 180.755 575.651 174.768 563.054 174.688C550.458 174.609 540.21 180.467 540.164 187.774C540.118 195.08 550.293 201.068 562.889 201.147C575.485 201.227 585.734 195.368 585.779 188.062Z" fill="url(#paint12_linear_615_5019)"/>
<path d="M548.908 214.203L548.022 213.691C547.883 213.59 547.769 213.459 547.689 213.307C547.609 213.155 547.565 212.986 547.561 212.814V210.393C547.561 210.053 547.77 209.898 548.022 210.04L548.908 210.559C549.047 210.659 549.161 210.79 549.24 210.943C549.319 211.095 549.361 211.264 549.363 211.436V213.857C549.344 214.203 549.16 214.327 548.908 214.203Z" fill="url(#paint13_linear_615_5019)"/>
<path d="M548.908 203.086L548.022 202.573C547.882 202.474 547.767 202.342 547.687 202.19C547.607 202.038 547.564 201.868 547.561 201.696V199.275C547.561 198.935 547.77 198.781 548.022 198.929L548.908 199.442C549.046 199.542 549.16 199.673 549.239 199.826C549.318 199.978 549.36 200.147 549.363 200.319V202.74C549.344 203.086 549.16 203.246 548.908 203.086Z" fill="url(#paint14_linear_615_5019)"/>
<path d="M548.908 225.061L548.022 224.548C547.883 224.448 547.769 224.316 547.689 224.164C547.609 224.012 547.565 223.843 547.561 223.671V221.25C547.561 220.91 547.77 220.756 548.022 220.898L548.908 221.417C549.047 221.516 549.161 221.648 549.24 221.8C549.319 221.953 549.361 222.122 549.363 222.294V224.703C549.344 225.055 549.16 225.209 548.908 225.061Z" fill="url(#paint15_linear_615_5019)"/>
<path d="M551.954 273.604C555.648 275.737 560.913 273.222 560.913 268.348C560.913 264.072 557.919 258.877 554.225 256.744C550.53 254.611 546.289 255.008 546.289 259.285C546.289 263.561 548.26 271.471 551.954 273.604ZM556.874 276.663L551.575 273.604C545.938 270.45 540.595 272.196 540.595 277.985C540.595 279.143 543.331 281.425 544.331 282.002L561.892 294.41C563.515 295.295 565.929 293.894 565.929 292.374C565.929 286.585 561.874 279.55 556.874 276.663Z" fill="#6E798F"/>
<path d="M551.634 272.996C555.328 275.129 558.322 273.391 558.322 269.115C558.322 264.839 555.328 259.643 551.634 257.51C547.939 255.378 544.945 257.116 544.945 261.392C544.945 265.668 547.939 270.864 551.634 272.996ZM554.283 277.43L548.984 274.371C543.984 271.484 539.929 273.837 539.929 279.626C539.929 280.784 540.74 282.191 541.74 282.769L561.528 294.193C562.528 294.772 563.338 294.302 563.338 293.141C563.338 287.352 559.283 280.317 554.283 277.43Z" fill="url(#paint16_linear_615_5019)"/>
<path d="M577.954 306.638C581.648 308.771 586.913 306.257 586.913 301.383C586.913 297.106 583.919 291.911 580.224 289.778C576.53 287.645 572.289 288.043 572.289 292.319C572.289 296.595 574.26 304.505 577.954 306.638ZM582.873 309.697L577.575 306.638C571.937 303.485 566.595 305.23 566.595 311.019C566.595 312.177 569.331 314.459 570.331 315.036L587.892 327.444C589.515 328.329 591.929 326.928 591.929 325.408C591.929 319.619 587.874 312.584 582.873 309.697Z" fill="#6E798F"/>
<path d="M577.633 306.031C581.327 308.164 584.322 306.426 584.322 302.15C584.322 297.873 581.327 292.678 577.633 290.545C573.939 288.412 570.945 290.15 570.945 294.427C570.945 298.703 573.939 303.898 577.633 306.031ZM580.282 310.464L574.984 307.405C569.984 304.518 565.929 306.871 565.929 312.66C565.929 313.818 566.74 315.226 567.74 315.803L587.528 327.228C588.528 327.807 589.338 327.337 589.338 326.175C589.338 320.386 585.283 313.351 580.282 310.464Z" fill="url(#paint17_linear_615_5019)"/>
<path d="M545.096 310.359C548.791 312.492 554.055 309.978 554.055 305.104C554.055 300.828 551.061 295.632 547.367 293.499C543.672 291.366 539.431 291.764 539.431 296.04C539.431 300.316 541.402 308.227 545.096 310.359ZM550.016 313.418L544.717 310.359C539.08 307.206 533.737 308.951 533.737 314.74C533.737 315.898 536.473 318.18 537.473 318.757L555.035 331.165C556.657 332.05 559.071 330.649 559.071 329.13C559.071 323.341 555.016 316.305 550.016 313.418Z" fill="#6E798F"/>
<path d="M544.776 309.752C548.47 311.885 551.464 310.147 551.464 305.871C551.464 301.595 548.47 296.399 544.776 294.266C541.081 292.133 538.087 293.872 538.087 298.148C538.087 302.424 541.081 307.619 544.776 309.752ZM547.425 314.185L542.126 311.126C537.127 308.24 533.071 310.593 533.071 316.382C533.071 317.539 533.882 318.947 534.882 319.525L554.67 330.949C555.67 331.528 556.48 331.058 556.48 329.897C556.48 324.108 552.425 317.072 547.425 314.185Z" fill="url(#paint18_linear_615_5019)"/>
<path d="M512.136 367.664C511.501 367.664 510.95 367.552 510.484 367.328C510.017 367.095 509.63 366.763 509.322 366.334C509.023 365.905 508.799 365.377 508.65 364.752C508.51 364.127 508.44 363.413 508.44 362.61C508.44 361.817 508.51 361.107 508.65 360.482C508.799 359.847 509.023 359.315 509.322 358.886C509.63 358.457 510.017 358.13 510.484 357.906C510.95 357.673 511.501 357.556 512.136 357.556C513.405 357.556 514.338 357.999 514.936 358.886C515.533 359.773 515.832 361.014 515.832 362.61C515.832 364.206 515.533 365.447 514.936 366.334C514.338 367.221 513.405 367.664 512.136 367.664ZM512.136 366.166C512.462 366.166 512.738 366.105 512.962 365.984C513.186 365.853 513.363 365.671 513.494 365.438C513.634 365.205 513.732 364.92 513.788 364.584C513.853 364.239 513.886 363.856 513.886 363.436V361.77C513.886 360.93 513.755 360.267 513.494 359.782C513.242 359.297 512.789 359.054 512.136 359.054C511.482 359.054 511.025 359.297 510.764 359.782C510.512 360.267 510.386 360.93 510.386 361.77V363.45C510.386 364.29 510.512 364.953 510.764 365.438C511.025 365.923 511.482 366.166 512.136 366.166ZM521.44 359.236V367.496H519.62V359.236H516.68V357.724H524.38V359.236H521.44ZM530.353 363.296H527.497V367.496H525.663V357.724H527.497V361.784H530.353V357.724H532.187V367.496H530.353V363.296ZM534.281 367.496V357.724H540.455V359.236H536.115V361.784H540.301V363.296H536.115V365.984H540.455V367.496H534.281ZM544.468 367.496H542.634V357.724H546.344C547.296 357.724 548.024 357.995 548.528 358.536C549.032 359.077 549.284 359.815 549.284 360.748C549.284 361.467 549.116 362.073 548.78 362.568C548.453 363.053 547.982 363.361 547.366 363.492L549.452 367.496H547.436L545.574 363.702H544.468V367.496ZM545.966 362.274C546.46 362.274 546.815 362.176 547.03 361.98C547.244 361.775 547.352 361.453 547.352 361.014V360.482C547.352 360.043 547.244 359.726 547.03 359.53C546.815 359.325 546.46 359.222 545.966 359.222H544.468V362.274H545.966ZM562.391 367.664C561.551 367.664 560.832 367.519 560.235 367.23C559.647 366.941 559.166 366.558 558.793 366.082L559.899 364.934C560.263 365.354 560.655 365.667 561.075 365.872C561.504 366.068 561.961 366.166 562.447 366.166C563.007 366.166 563.436 366.04 563.735 365.788C564.033 365.536 564.183 365.172 564.183 364.696C564.183 364.304 564.071 364.01 563.847 363.814C563.623 363.609 563.245 363.464 562.713 363.38L561.677 363.212C560.771 363.053 560.127 362.727 559.745 362.232C559.362 361.728 559.171 361.135 559.171 360.454C559.171 359.521 559.474 358.807 560.081 358.312C560.687 357.808 561.527 357.556 562.601 357.556C563.366 357.556 564.024 357.677 564.575 357.92C565.135 358.163 565.583 358.494 565.919 358.914L564.841 360.062C564.579 359.754 564.267 359.511 563.903 359.334C563.539 359.147 563.109 359.054 562.615 359.054C561.551 359.054 561.019 359.493 561.019 360.37C561.019 360.743 561.131 361.028 561.355 361.224C561.579 361.42 561.961 361.565 562.503 361.658L563.525 361.84C564.374 361.999 565.004 362.311 565.415 362.778C565.825 363.245 566.031 363.842 566.031 364.57C566.031 365.027 565.951 365.447 565.793 365.83C565.634 366.203 565.401 366.53 565.093 366.81C564.785 367.081 564.402 367.291 563.945 367.44C563.497 367.589 562.979 367.664 562.391 367.664ZM569.987 367.496V363.926L566.809 357.724H568.853L569.987 360.076L570.869 362.078H570.967L571.863 360.076L573.011 357.724H574.985L571.807 363.926V367.496H569.987ZM579.18 367.664C578.34 367.664 577.621 367.519 577.024 367.23C576.436 366.941 575.955 366.558 575.582 366.082L576.688 364.934C577.052 365.354 577.444 365.667 577.864 365.872C578.293 366.068 578.75 366.166 579.236 366.166C579.796 366.166 580.225 366.04 580.524 365.788C580.822 365.536 580.972 365.172 580.972 364.696C580.972 364.304 580.86 364.01 580.636 363.814C580.412 363.609 580.034 363.464 579.502 363.38L578.466 363.212C577.56 363.053 576.916 362.727 576.534 362.232C576.151 361.728 575.96 361.135 575.96 360.454C575.96 359.521 576.263 358.807 576.87 358.312C577.476 357.808 578.316 357.556 579.39 357.556C580.155 357.556 580.813 357.677 581.364 357.92C581.924 358.163 582.372 358.494 582.708 358.914L581.63 360.062C581.368 359.754 581.056 359.511 580.692 359.334C580.328 359.147 579.898 359.054 579.404 359.054C578.34 359.054 577.808 359.493 577.808 360.37C577.808 360.743 577.92 361.028 578.144 361.224C578.368 361.42 578.75 361.565 579.292 361.658L580.314 361.84C581.163 361.999 581.793 362.311 582.204 362.778C582.614 363.245 582.82 363.842 582.82 364.57C582.82 365.027 582.74 365.447 582.582 365.83C582.423 366.203 582.19 366.53 581.882 366.81C581.574 367.081 581.191 367.291 580.734 367.44C580.286 367.589 579.768 367.664 579.18 367.664ZM588.596 359.236V367.496H586.776V359.236H583.836V357.724H591.536V359.236H588.596ZM593.043 367.496V357.724H599.217V359.236H594.877V361.784H599.063V363.296H594.877V365.984H599.217V367.496H593.043ZM606.407 362.974L606.491 360.146H606.365L604.475 365.172L602.585 360.146H602.459L602.543 362.974V367.496H600.947V357.724H603.131L604.489 361.322H604.587L605.959 357.724H608.003V367.496H606.407V362.974ZM612.758 367.664C611.918 367.664 611.199 367.519 610.602 367.23C610.014 366.941 609.533 366.558 609.16 366.082L610.266 364.934C610.63 365.354 611.022 365.667 611.442 365.872C611.871 366.068 612.329 366.166 612.814 366.166C613.374 366.166 613.803 366.04 614.102 365.788C614.401 365.536 614.55 365.172 614.55 364.696C614.55 364.304 614.438 364.01 614.214 363.814C613.99 363.609 613.612 363.464 613.08 363.38L612.044 363.212C611.139 363.053 610.495 362.727 610.112 362.232C609.729 361.728 609.538 361.135 609.538 360.454C609.538 359.521 609.841 358.807 610.448 358.312C611.055 357.808 611.895 357.556 612.968 357.556C613.733 357.556 614.391 357.677 614.942 357.92C615.502 358.163 615.95 358.494 616.286 358.914L615.208 360.062C614.947 359.754 614.634 359.511 614.27 359.334C613.906 359.147 613.477 359.054 612.982 359.054C611.918 359.054 611.386 359.493 611.386 360.37C611.386 360.743 611.498 361.028 611.722 361.224C611.946 361.42 612.329 361.565 612.87 361.658L613.892 361.84C614.741 361.999 615.371 362.311 615.782 362.778C616.193 363.245 616.398 363.842 616.398 364.57C616.398 365.027 616.319 365.447 616.16 365.83C616.001 366.203 615.768 366.53 615.46 366.81C615.152 367.081 614.769 367.291 614.312 367.44C613.864 367.589 613.346 367.664 612.758 367.664ZM523.467 384.664C523.029 384.664 522.641 384.589 522.305 384.44C521.979 384.291 521.699 384.09 521.465 383.838C521.232 383.586 521.055 383.292 520.933 382.956C520.821 382.62 520.765 382.261 520.765 381.878C520.765 381.318 520.901 380.805 521.171 380.338C521.442 379.871 521.876 379.475 522.473 379.148C522.175 378.756 521.946 378.397 521.787 378.07C521.638 377.734 521.563 377.375 521.563 376.992C521.563 376.637 521.629 376.311 521.759 376.012C521.899 375.713 522.086 375.457 522.319 375.242C522.562 375.027 522.847 374.859 523.173 374.738C523.5 374.617 523.855 374.556 524.237 374.556C524.573 374.556 524.881 374.603 525.161 374.696C525.441 374.789 525.689 374.915 525.903 375.074C526.127 375.223 526.314 375.401 526.463 375.606C526.613 375.802 526.725 376.007 526.799 376.222L525.525 376.894C525.423 376.595 525.255 376.362 525.021 376.194C524.797 376.017 524.536 375.928 524.237 375.928C523.911 375.928 523.649 376.026 523.453 376.222C523.257 376.418 523.159 376.665 523.159 376.964V377.048C523.159 377.188 523.178 377.319 523.215 377.44C523.253 377.561 523.313 377.697 523.397 377.846C523.491 377.995 523.607 378.163 523.747 378.35C523.887 378.537 524.065 378.761 524.279 379.022L525.203 380.198L525.987 381.29H526.071C526.099 381.122 526.123 380.94 526.141 380.744C526.16 380.548 526.174 380.347 526.183 380.142C526.202 379.927 526.211 379.722 526.211 379.526C526.221 379.321 526.225 379.129 526.225 378.952H528.563V380.31H527.569C527.513 380.655 527.443 380.991 527.359 381.318C527.285 381.635 527.168 381.976 527.009 382.34L528.801 384.496H526.855L525.707 383.11H525.609C525.525 383.586 525.292 383.964 524.909 384.244C524.536 384.524 524.055 384.664 523.467 384.664ZM523.915 383.25C524.186 383.25 524.433 383.199 524.657 383.096C524.881 382.993 525.063 382.821 525.203 382.578L523.215 380.086C522.917 380.329 522.716 380.59 522.613 380.87C522.511 381.141 522.459 381.43 522.459 381.738V381.808C522.459 382.275 522.59 382.634 522.851 382.886C523.113 383.129 523.467 383.25 523.915 383.25ZM538.436 384.496V374.724H542.146C543.098 374.724 543.826 374.995 544.33 375.536C544.834 376.077 545.086 376.815 545.086 377.748C545.086 378.681 544.834 379.419 544.33 379.96C543.826 380.501 543.098 380.772 542.146 380.772H540.27V384.496H538.436ZM540.27 379.274H541.768C542.263 379.274 542.618 379.176 542.832 378.98C543.047 378.775 543.154 378.453 543.154 378.014V377.482C543.154 377.043 543.047 376.726 542.832 376.53C542.618 376.325 542.263 376.222 541.768 376.222H540.27V379.274ZM551.997 384.496L551.311 382.018H548.413L547.741 384.496H545.893L548.637 374.724H551.185L553.943 384.496H551.997ZM549.925 376.53H549.813L548.735 380.52H551.003L549.925 376.53ZM557.059 384.496H555.225V374.724H558.935C559.887 374.724 560.615 374.995 561.119 375.536C561.623 376.077 561.875 376.815 561.875 377.748C561.875 378.467 561.707 379.073 561.371 379.568C561.045 380.053 560.573 380.361 559.957 380.492L562.043 384.496H560.027L558.165 380.702H557.059V384.496ZM558.557 379.274C559.052 379.274 559.407 379.176 559.621 378.98C559.836 378.775 559.943 378.453 559.943 378.014V377.482C559.943 377.043 559.836 376.726 559.621 376.53C559.407 376.325 559.052 376.222 558.557 376.222H557.059V379.274H558.557ZM567.61 376.236V384.496H565.79V376.236H562.85V374.724H570.55V376.236H567.61ZM573.541 377.482H573.401V384.496H571.833V374.724H574.087L576.649 381.738H576.789V374.724H578.357V384.496H576.103L573.541 377.482ZM580.451 384.496V374.724H586.625V376.236H582.285V378.784H586.471V380.296H582.285V382.984H586.625V384.496H580.451ZM590.638 384.496H588.804V374.724H592.514C593.466 374.724 594.194 374.995 594.698 375.536C595.202 376.077 595.454 376.815 595.454 377.748C595.454 378.467 595.286 379.073 594.95 379.568C594.623 380.053 594.152 380.361 593.536 380.492L595.622 384.496H593.606L591.744 380.702H590.638V384.496ZM592.136 379.274C592.63 379.274 592.985 379.176 593.2 378.98C593.414 378.775 593.522 378.453 593.522 378.014V377.482C593.522 377.043 593.414 376.726 593.2 376.53C592.985 376.325 592.63 376.222 592.136 376.222H590.638V379.274H592.136ZM600.166 384.664C599.326 384.664 598.607 384.519 598.01 384.23C597.422 383.941 596.941 383.558 596.568 383.082L597.674 381.934C598.038 382.354 598.43 382.667 598.85 382.872C599.279 383.068 599.737 383.166 600.222 383.166C600.782 383.166 601.211 383.04 601.51 382.788C601.809 382.536 601.958 382.172 601.958 381.696C601.958 381.304 601.846 381.01 601.622 380.814C601.398 380.609 601.02 380.464 600.488 380.38L599.452 380.212C598.547 380.053 597.903 379.727 597.52 379.232C597.137 378.728 596.946 378.135 596.946 377.454C596.946 376.521 597.249 375.807 597.856 375.312C598.463 374.808 599.303 374.556 600.376 374.556C601.141 374.556 601.799 374.677 602.35 374.92C602.91 375.163 603.358 375.494 603.694 375.914L602.616 377.062C602.355 376.754 602.042 376.511 601.678 376.334C601.314 376.147 600.885 376.054 600.39 376.054C599.326 376.054 598.794 376.493 598.794 377.37C598.794 377.743 598.906 378.028 599.13 378.224C599.354 378.42 599.737 378.565 600.278 378.658L601.3 378.84C602.149 378.999 602.779 379.311 603.19 379.778C603.601 380.245 603.806 380.842 603.806 381.57C603.806 382.027 603.727 382.447 603.568 382.83C603.409 383.203 603.176 383.53 602.868 383.81C602.56 384.081 602.177 384.291 601.72 384.44C601.272 384.589 600.754 384.664 600.166 384.664Z" fill="#E5E8ED"/>
<path d="M253.853 88.9846C253.853 87.5935 254.981 86.4658 256.372 86.4658H290.628C292.019 86.4658 293.146 87.5935 293.146 88.9846V91.4389H253.853V88.9846Z" fill="url(#paint19_radial_615_5019)"/>
<path d="M253.853 91.439H293.147V129.457C293.147 130.848 292.019 131.976 290.628 131.976H256.372C254.981 131.976 253.853 130.848 253.853 129.457V91.439Z" fill="url(#paint20_linear_615_5019)"/>
<path fill-rule="evenodd" clip-rule="evenodd" d="M283.376 108.968C283.664 108.701 283.782 108.291 283.643 107.928C283.457 107.425 283.233 106.938 282.979 106.478L282.78 106.135C282.501 105.67 282.188 105.23 281.846 104.814C281.592 104.512 281.182 104.407 280.81 104.526L278.455 105.277C277.889 104.84 277.225 104.476 276.595 104.2L276.066 101.786C275.982 101.402 275.686 101.097 275.297 101.033C274.714 100.935 274.113 100.884 273.5 100.884C272.887 100.884 272.287 100.935 271.703 101.033C271.314 101.097 271.018 101.402 270.934 101.786L270.405 104.2C269.737 104.476 269.112 104.84 268.545 105.277L266.192 104.526C265.818 104.407 265.406 104.512 265.156 104.814C264.813 105.23 264.5 105.67 264.221 106.135L264.023 106.478C263.767 106.938 263.543 107.425 263.356 107.928C263.219 108.296 263.334 108.701 263.624 108.968L265.453 110.634C265.407 110.984 265.383 111.344 265.383 111.707C265.383 112.071 265.407 112.43 265.453 112.781L263.624 114.447C263.334 114.713 263.219 115.123 263.356 115.487C263.543 115.99 263.767 116.476 264.023 116.937L264.221 117.28C264.5 117.745 264.813 118.184 265.156 118.603C265.406 118.903 265.818 119.009 266.192 118.89L268.545 118.138C269.112 118.573 269.737 118.937 270.405 119.216L270.934 121.63C271.018 122.011 271.314 122.281 271.703 122.383C272.287 122.48 272.887 122.531 273.462 122.531C274.113 122.531 274.714 122.48 275.297 122.383C275.686 122.281 275.982 122.011 276.066 121.63L276.595 119.216C277.225 118.937 277.889 118.573 278.455 118.138L280.81 118.89C281.182 119.009 281.592 118.903 281.846 118.603C282.188 118.184 282.501 117.745 282.78 117.28L282.979 116.937C283.233 116.476 283.457 115.99 283.643 115.487C283.782 115.123 283.664 114.713 283.376 114.447L281.546 112.781C281.592 112.43 281.617 112.071 281.617 111.707C281.617 111.344 281.592 110.984 281.546 110.634L283.376 108.968ZM273.499 116.488C276.14 116.488 278.28 114.348 278.28 111.708C278.28 109.068 276.14 106.927 273.499 106.927C270.859 106.927 268.719 109.068 268.719 111.708C268.719 114.348 270.859 116.488 273.499 116.488Z" fill="#C5C9D2"/>
<path d="M295.221 222.511C283.179 229.494 263.578 229.452 251.445 222.418C239.312 215.385 238.261 197.268 250.302 190.26C262.343 183.251 284.832 184.316 296.965 191.358C309.098 198.4 307.27 215.519 295.221 222.511Z" fill="#6E798F"/>
<path d="M304.756 202.188C304.818 192.271 291.008 184.144 273.91 184.036C256.813 183.928 242.902 191.88 242.84 201.798C242.778 211.715 256.588 219.842 273.686 219.95C290.783 220.058 304.694 212.106 304.756 202.188Z" fill="url(#paint21_linear_615_5019)"/>
<path d="M295.221 207.58C283.179 214.563 263.578 214.521 251.445 207.488C239.312 200.454 238.261 182.338 250.302 175.329C262.343 168.321 284.832 169.385 296.965 176.427C309.098 183.469 307.27 200.588 295.221 207.58Z" fill="#6E798F"/>
<path d="M304.756 187.256C304.818 177.339 291.008 169.212 273.91 169.104C256.813 168.996 242.902 176.948 242.84 186.865C242.778 196.783 256.588 204.91 273.686 205.018C290.783 205.126 304.694 197.174 304.756 187.256Z" fill="url(#paint22_linear_615_5019)"/>
<path d="M295.221 192.641C283.179 199.633 263.578 199.591 251.445 192.549C239.312 185.507 238.261 167.399 250.302 160.39C262.343 153.382 284.832 154.455 296.965 161.488C309.098 168.522 307.27 185.658 295.221 192.641Z" fill="#6E798F"/>
<path d="M305.098 172.324C305.16 162.406 291.35 154.279 274.253 154.171C257.155 154.063 243.245 162.015 243.183 171.933C243.121 181.85 256.931 189.977 274.028 190.085C291.125 190.193 305.036 182.241 305.098 172.324Z" fill="url(#paint23_linear_615_5019)"/>
<path d="M255.051 207.806L253.849 207.111C253.66 206.974 253.505 206.796 253.397 206.589C253.288 206.383 253.229 206.154 253.223 205.92V202.634C253.223 202.173 253.507 201.963 253.849 202.156L255.051 202.86C255.24 202.995 255.395 203.174 255.502 203.381C255.609 203.588 255.666 203.817 255.668 204.051V207.337C255.643 207.806 255.393 207.974 255.051 207.806Z" fill="url(#paint24_linear_615_5019)"/>
<path d="M255.051 192.716L253.849 192.02C253.659 191.885 253.503 191.707 253.394 191.5C253.285 191.293 253.227 191.064 253.223 190.83V187.543C253.223 187.082 253.507 186.873 253.849 187.074L255.051 187.77C255.239 187.906 255.393 188.085 255.5 188.291C255.607 188.498 255.665 188.727 255.668 188.96V192.247C255.643 192.716 255.393 192.934 255.051 192.716Z" fill="url(#paint25_linear_615_5019)"/>
<path d="M255.051 222.544L253.849 221.848C253.66 221.712 253.505 221.534 253.397 221.327C253.288 221.121 253.229 220.891 253.223 220.658V217.372C253.223 216.911 253.507 216.701 253.849 216.894L255.051 217.598C255.24 217.733 255.395 217.912 255.502 218.119C255.609 218.326 255.666 218.555 255.668 218.788V222.058C255.643 222.536 255.393 222.745 255.051 222.544Z" fill="url(#paint26_linear_615_5019)"/>
<path d="M230.29 273.721V270.151L227.112 263.949H229.156L230.29 266.301L231.172 268.303H231.27L232.166 266.301L233.314 263.949H235.288L232.11 270.151V273.721H230.29ZM239.595 273.889C238.96 273.889 238.409 273.777 237.943 273.553C237.476 273.32 237.089 272.989 236.781 272.559C236.482 272.13 236.258 271.603 236.109 270.977C235.969 270.352 235.899 269.638 235.899 268.835C235.899 268.042 235.969 267.333 236.109 266.707C236.258 266.073 236.482 265.541 236.781 265.111C237.089 264.682 237.476 264.355 237.943 264.131C238.409 263.898 238.96 263.781 239.595 263.781C240.864 263.781 241.797 264.225 242.395 265.111C242.992 265.998 243.291 267.239 243.291 268.835C243.291 270.431 242.992 271.673 242.395 272.559C241.797 273.446 240.864 273.889 239.595 273.889ZM239.595 272.391C239.921 272.391 240.197 272.331 240.421 272.209C240.645 272.079 240.822 271.897 240.953 271.663C241.093 271.43 241.191 271.145 241.247 270.809C241.312 270.464 241.345 270.081 241.345 269.661V267.995C241.345 267.155 241.214 266.493 240.953 266.007C240.701 265.522 240.248 265.279 239.595 265.279C238.941 265.279 238.484 265.522 238.223 266.007C237.971 266.493 237.845 267.155 237.845 267.995V269.675C237.845 270.515 237.971 271.178 238.223 271.663C238.484 272.149 238.941 272.391 239.595 272.391ZM246.491 263.949V270.039C246.491 270.403 246.5 270.73 246.519 271.019C246.547 271.309 246.608 271.556 246.701 271.761C246.804 271.957 246.953 272.111 247.149 272.223C247.354 272.335 247.634 272.391 247.989 272.391C248.344 272.391 248.619 272.335 248.815 272.223C249.02 272.111 249.17 271.957 249.263 271.761C249.366 271.556 249.426 271.309 249.445 271.019C249.473 270.73 249.487 270.403 249.487 270.039V263.949H251.321V269.759C251.321 270.45 251.279 271.052 251.195 271.565C251.111 272.079 250.948 272.508 250.705 272.853C250.462 273.199 250.122 273.46 249.683 273.637C249.254 273.805 248.689 273.889 247.989 273.889C247.289 273.889 246.72 273.805 246.281 273.637C245.852 273.46 245.516 273.199 245.273 272.853C245.03 272.508 244.867 272.079 244.783 271.565C244.699 271.052 244.657 270.45 244.657 269.759V263.949H246.491ZM255.138 273.721H253.304V263.949H257.014C257.966 263.949 258.694 264.22 259.198 264.761C259.702 265.303 259.954 266.04 259.954 266.973C259.954 267.692 259.786 268.299 259.45 268.793C259.123 269.279 258.652 269.587 258.036 269.717L260.122 273.721H258.106L256.244 269.927H255.138V273.721ZM256.636 268.499C257.13 268.499 257.485 268.401 257.7 268.205C257.914 268 258.022 267.678 258.022 267.239V266.707C258.022 266.269 257.914 265.951 257.7 265.755C257.485 265.55 257.13 265.447 256.636 265.447H255.138V268.499H256.636ZM273.061 273.889C272.221 273.889 271.502 273.745 270.905 273.455C270.317 273.166 269.836 272.783 269.463 272.307L270.569 271.159C270.933 271.579 271.325 271.892 271.745 272.097C272.174 272.293 272.631 272.391 273.117 272.391C273.677 272.391 274.106 272.265 274.405 272.013C274.703 271.761 274.853 271.397 274.853 270.921C274.853 270.529 274.741 270.235 274.517 270.039C274.293 269.834 273.915 269.689 273.383 269.605L272.347 269.437C271.441 269.279 270.797 268.952 270.415 268.457C270.032 267.953 269.841 267.361 269.841 266.679C269.841 265.746 270.144 265.032 270.751 264.537C271.357 264.033 272.197 263.781 273.271 263.781C274.036 263.781 274.694 263.903 275.245 264.145C275.805 264.388 276.253 264.719 276.589 265.139L275.511 266.287C275.249 265.979 274.937 265.737 274.573 265.559C274.209 265.373 273.779 265.279 273.285 265.279C272.221 265.279 271.689 265.718 271.689 266.595C271.689 266.969 271.801 267.253 272.025 267.449C272.249 267.645 272.631 267.79 273.173 267.883L274.195 268.065C275.044 268.224 275.674 268.537 276.085 269.003C276.495 269.47 276.701 270.067 276.701 270.795C276.701 271.253 276.621 271.673 276.463 272.055C276.304 272.429 276.071 272.755 275.763 273.035C275.455 273.306 275.072 273.516 274.615 273.665C274.167 273.815 273.649 273.889 273.061 273.889ZM280.657 273.721V270.151L277.479 263.949H279.523L280.657 266.301L281.539 268.303H281.637L282.533 266.301L283.681 263.949H285.655L282.477 270.151V273.721H280.657ZM289.85 273.889C289.01 273.889 288.291 273.745 287.694 273.455C287.106 273.166 286.625 272.783 286.252 272.307L287.358 271.159C287.722 271.579 288.114 271.892 288.534 272.097C288.963 272.293 289.42 272.391 289.906 272.391C290.466 272.391 290.895 272.265 291.194 272.013C291.492 271.761 291.642 271.397 291.642 270.921C291.642 270.529 291.53 270.235 291.306 270.039C291.082 269.834 290.704 269.689 290.172 269.605L289.136 269.437C288.23 269.279 287.586 268.952 287.204 268.457C286.821 267.953 286.63 267.361 286.63 266.679C286.63 265.746 286.933 265.032 287.54 264.537C288.146 264.033 288.986 263.781 290.06 263.781C290.825 263.781 291.483 263.903 292.034 264.145C292.594 264.388 293.042 264.719 293.378 265.139L292.3 266.287C292.038 265.979 291.726 265.737 291.362 265.559C290.998 265.373 290.568 265.279 290.074 265.279C289.01 265.279 288.478 265.718 288.478 266.595C288.478 266.969 288.59 267.253 288.814 267.449C289.038 267.645 289.42 267.79 289.962 267.883L290.984 268.065C291.833 268.224 292.463 268.537 292.874 269.003C293.284 269.47 293.49 270.067 293.49 270.795C293.49 271.253 293.41 271.673 293.252 272.055C293.093 272.429 292.86 272.755 292.552 273.035C292.244 273.306 291.861 273.516 291.404 273.665C290.956 273.815 290.438 273.889 289.85 273.889ZM299.266 265.461V273.721H297.446V265.461H294.506V263.949H302.206V265.461H299.266ZM303.713 273.721V263.949H309.887V265.461H305.547V268.009H309.733V269.521H305.547V272.209H309.887V273.721H303.713ZM317.077 269.199L317.161 266.371H317.035L315.145 271.397L313.255 266.371H313.129L313.213 269.199V273.721H311.617V263.949H313.801L315.159 267.547H315.257L316.629 263.949H318.673V273.721H317.077V269.199Z" fill="#E5E8ED"/>
<path d="M33.0138 193.444C38.6464 196.696 46.6731 192.862 46.6731 185.431C46.6731 178.911 42.108 170.989 36.4754 167.737C30.8428 164.485 24.3758 165.091 24.3758 171.611C24.3758 178.131 27.3812 190.192 33.0138 193.444ZM40.5147 198.108L32.4362 193.444C23.8401 188.636 15.6943 191.297 15.6943 200.124C15.6943 201.889 19.8659 205.369 21.3908 206.249L48.1669 225.168C50.6414 226.517 54.3214 224.38 54.3214 222.064C54.3214 213.237 48.139 202.51 40.5147 198.108Z" fill="#6E798F"/>
<path d="M32.5247 192.518C38.1573 195.77 42.7224 193.12 42.7224 186.6C42.7224 180.08 38.1573 172.158 32.5247 168.906C26.8921 165.654 22.327 168.305 22.327 174.825C22.327 181.345 26.8921 189.266 32.5247 192.518ZM36.5639 199.278L28.4854 194.613C20.8619 190.212 14.6787 193.8 14.6787 202.626C14.6787 204.392 15.9152 206.538 17.4401 207.418L47.6109 224.837C49.1358 225.721 50.3707 225.004 50.3707 223.233C50.3707 214.406 44.1883 203.68 36.5639 199.278Z" fill="#E5E8ED"/>
<path d="M4.952 273.889C3.67333 273.889 2.726 273.451 2.11 272.573C1.50333 271.696 1.2 270.45 1.2 268.835C1.2 267.23 1.50333 265.989 2.11 265.111C2.726 264.225 3.67333 263.781 4.952 263.781C5.43733 263.781 5.862 263.847 6.226 263.977C6.59933 264.108 6.92133 264.29 7.192 264.523C7.46267 264.747 7.68667 265.023 7.864 265.349C8.04133 265.667 8.18133 266.017 8.284 266.399L6.604 266.875C6.53867 266.651 6.464 266.441 6.38 266.245C6.296 266.049 6.18867 265.881 6.058 265.741C5.93667 265.592 5.78267 265.48 5.596 265.405C5.40933 265.321 5.18533 265.279 4.924 265.279C4.28933 265.279 3.832 265.522 3.552 266.007C3.28133 266.493 3.146 267.155 3.146 267.995V269.675C3.146 270.515 3.28133 271.178 3.552 271.663C3.832 272.149 4.28933 272.391 4.924 272.391C5.18533 272.391 5.40933 272.354 5.596 272.279C5.78267 272.195 5.93667 272.083 6.058 271.943C6.18867 271.794 6.296 271.621 6.38 271.425C6.464 271.229 6.53867 271.019 6.604 270.795L8.284 271.271C8.18133 271.654 8.04133 272.009 7.864 272.335C7.68667 272.653 7.46267 272.928 7.192 273.161C6.92133 273.385 6.59933 273.563 6.226 273.693C5.862 273.824 5.43733 273.889 4.952 273.889ZM11.5965 263.949V270.039C11.5965 270.403 11.6059 270.73 11.6245 271.019C11.6525 271.309 11.7132 271.556 11.8065 271.761C11.9092 271.957 12.0585 272.111 12.2545 272.223C12.4599 272.335 12.7399 272.391 13.0945 272.391C13.4492 272.391 13.7245 272.335 13.9205 272.223C14.1259 272.111 14.2752 271.957 14.3685 271.761C14.4712 271.556 14.5319 271.309 14.5505 271.019C14.5785 270.73 14.5925 270.403 14.5925 270.039V263.949H16.4265V269.759C16.4265 270.45 16.3845 271.052 16.3005 271.565C16.2165 272.079 16.0532 272.508 15.8105 272.853C15.5679 273.199 15.2272 273.46 14.7885 273.637C14.3592 273.805 13.7945 273.889 13.0945 273.889C12.3945 273.889 11.8252 273.805 11.3865 273.637C10.9572 273.46 10.6212 273.199 10.3785 272.853C10.1359 272.508 9.97253 272.079 9.88853 271.565C9.80453 271.052 9.76253 270.45 9.76253 269.759V263.949H11.5965ZM21.3771 273.889C20.5371 273.889 19.8184 273.745 19.2211 273.455C18.6331 273.166 18.1524 272.783 17.7791 272.307L18.8851 271.159C19.2491 271.579 19.6411 271.892 20.0611 272.097C20.4904 272.293 20.9477 272.391 21.4331 272.391C21.9931 272.391 22.4224 272.265 22.7211 272.013C23.0197 271.761 23.1691 271.397 23.1691 270.921C23.1691 270.529 23.0571 270.235 22.8331 270.039C22.6091 269.834 22.2311 269.689 21.6991 269.605L20.6631 269.437C19.7577 269.279 19.1137 268.952 18.7311 268.457C18.3484 267.953 18.1571 267.361 18.1571 266.679C18.1571 265.746 18.4604 265.032 19.0671 264.537C19.6737 264.033 20.5137 263.781 21.5871 263.781C22.3524 263.781 23.0104 263.903 23.5611 264.145C24.1211 264.388 24.5691 264.719 24.9051 265.139L23.8271 266.287C23.5657 265.979 23.2531 265.737 22.8891 265.559C22.5251 265.373 22.0957 265.279 21.6011 265.279C20.5371 265.279 20.0051 265.718 20.0051 266.595C20.0051 266.969 20.1171 267.253 20.3411 267.449C20.5651 267.645 20.9477 267.79 21.4891 267.883L22.5111 268.065C23.3604 268.224 23.9904 268.537 24.4011 269.003C24.8117 269.47 25.0171 270.067 25.0171 270.795C25.0171 271.253 24.9377 271.673 24.7791 272.055C24.6204 272.429 24.3871 272.755 24.0791 273.035C23.7711 273.306 23.3884 273.516 22.9311 273.665C22.4831 273.815 21.9651 273.889 21.3771 273.889ZM30.7936 265.461V273.721H28.9736V265.461H26.0336V263.949H33.7336V265.461H30.7936ZM38.2781 273.889C37.6435 273.889 37.0928 273.777 36.6261 273.553C36.1595 273.32 35.7721 272.989 35.4641 272.559C35.1655 272.13 34.9415 271.603 34.7921 270.977C34.6521 270.352 34.5821 269.638 34.5821 268.835C34.5821 268.042 34.6521 267.333 34.7921 266.707C34.9415 266.073 35.1655 265.541 35.4641 265.111C35.7721 264.682 36.1595 264.355 36.6261 264.131C37.0928 263.898 37.6435 263.781 38.2781 263.781C39.5475 263.781 40.4808 264.225 41.0781 265.111C41.6755 265.998 41.9741 267.239 41.9741 268.835C41.9741 270.431 41.6755 271.673 41.0781 272.559C40.4808 273.446 39.5475 273.889 38.2781 273.889ZM38.2781 272.391C38.6048 272.391 38.8801 272.331 39.1041 272.209C39.3281 272.079 39.5055 271.897 39.6361 271.663C39.7761 271.43 39.8741 271.145 39.9301 270.809C39.9955 270.464 40.0281 270.081 40.0281 269.661V267.995C40.0281 267.155 39.8975 266.493 39.6361 266.007C39.3841 265.522 38.9315 265.279 38.2781 265.279C37.6248 265.279 37.1675 265.522 36.9061 266.007C36.6541 266.493 36.5281 267.155 36.5281 267.995V269.675C36.5281 270.515 36.6541 271.178 36.9061 271.663C37.1675 272.149 37.6248 272.391 38.2781 272.391ZM48.6047 269.199L48.6887 266.371H48.5627L46.6727 271.397L44.7827 266.371H44.6567L44.7407 269.199V273.721H43.1447V263.949H45.3287L46.6867 267.547H46.7847L48.1567 263.949H50.2007V273.721H48.6047V269.199ZM52.0292 273.721V263.949H58.2032V265.461H53.8632V268.009H58.0492V269.521H53.8632V272.209H58.2032V273.721H52.0292ZM62.2157 273.721H60.3817V263.949H64.0917C65.0437 263.949 65.7717 264.22 66.2757 264.761C66.7797 265.303 67.0317 266.04 67.0317 266.973C67.0317 267.692 66.8637 268.299 66.5277 268.793C66.2011 269.279 65.7297 269.587 65.1137 269.717L67.1997 273.721H65.1837L63.3217 269.927H62.2157V273.721ZM63.7137 268.499C64.2084 268.499 64.5631 268.401 64.7777 268.205C64.9924 268 65.0997 267.678 65.0997 267.239V266.707C65.0997 266.269 64.9924 265.951 64.7777 265.755C64.5631 265.55 64.2084 265.447 63.7137 265.447H62.2157V268.499H63.7137Z" fill="#E5E8ED"/>
<path d="M102.704 169.739H100.87V159.967H104.58C105.532 159.967 106.26 160.238 106.764 160.779C107.268 161.321 107.52 162.058 107.52 162.991C107.52 163.71 107.352 164.317 107.016 164.811C106.689 165.297 106.218 165.605 105.602 165.735L107.688 169.739H105.672L103.81 165.945H102.704V169.739ZM104.202 164.517C104.697 164.517 105.051 164.419 105.266 164.223C105.481 164.018 105.588 163.696 105.588 163.257V162.725C105.588 162.287 105.481 161.969 105.266 161.773C105.051 161.568 104.697 161.465 104.202 161.465H102.704V164.517H104.202ZM109.307 169.739V159.967H115.481V161.479H111.141V164.027H115.327V165.539H111.141V168.227H115.481V169.739H109.307ZM120.627 169.907C119.787 169.907 119.068 169.763 118.471 169.473C117.883 169.184 117.402 168.801 117.029 168.325L118.135 167.177C118.499 167.597 118.891 167.91 119.311 168.115C119.74 168.311 120.198 168.409 120.683 168.409C121.243 168.409 121.672 168.283 121.971 168.031C122.27 167.779 122.419 167.415 122.419 166.939C122.419 166.547 122.307 166.253 122.083 166.057C121.859 165.852 121.481 165.707 120.949 165.623L119.913 165.455C119.008 165.297 118.364 164.97 117.981 164.475C117.598 163.971 117.407 163.379 117.407 162.697C117.407 161.764 117.71 161.05 118.317 160.555C118.924 160.051 119.764 159.799 120.837 159.799C121.602 159.799 122.26 159.921 122.811 160.163C123.371 160.406 123.819 160.737 124.155 161.157L123.077 162.305C122.816 161.997 122.503 161.755 122.139 161.577C121.775 161.391 121.346 161.297 120.851 161.297C119.787 161.297 119.255 161.736 119.255 162.613C119.255 162.987 119.367 163.271 119.591 163.467C119.815 163.663 120.198 163.808 120.739 163.901L121.761 164.083C122.61 164.242 123.24 164.555 123.651 165.021C124.062 165.488 124.267 166.085 124.267 166.813C124.267 167.271 124.188 167.691 124.029 168.073C123.87 168.447 123.637 168.773 123.329 169.053C123.021 169.324 122.638 169.534 122.181 169.683C121.733 169.833 121.215 169.907 120.627 169.907ZM130.044 161.479V169.739H128.224V161.479H125.284V159.967H132.984V161.479H130.044ZM148.009 169.739L147.323 167.261H144.425L143.753 169.739H141.905L144.649 159.967H147.197L149.955 169.739H148.009ZM145.937 161.773H145.825L144.747 165.763H147.015L145.937 161.773ZM151.237 169.739V159.967H154.947C155.899 159.967 156.627 160.238 157.131 160.779C157.635 161.321 157.887 162.058 157.887 162.991C157.887 163.925 157.635 164.662 157.131 165.203C156.627 165.745 155.899 166.015 154.947 166.015H153.071V169.739H151.237ZM153.071 164.517H154.569C155.064 164.517 155.419 164.419 155.633 164.223C155.848 164.018 155.955 163.696 155.955 163.257V162.725C155.955 162.287 155.848 161.969 155.633 161.773C155.419 161.568 155.064 161.465 154.569 161.465H153.071V164.517ZM159.604 169.739V168.367H161.802V161.339H159.604V159.967H165.82V161.339H163.622V168.367H165.82V169.739H159.604Z" fill="#E2E4E9"/>
<g filter="url(#filter0_d_615_5019)">
<rect x="99.75" y="178.739" width="96" height="30" fill="url(#paint27_linear_615_5019)" shape-rendering="crispEdges"/>
<path d="M181.634 192.855C182.122 193.344 182.122 194.135 181.634 194.623L173.679 202.578C173.191 203.066 172.399 203.066 171.911 202.578C171.423 202.09 171.423 201.298 171.911 200.81L178.982 193.739L171.911 186.668C171.423 186.18 171.423 185.389 171.911 184.9C172.399 184.412 173.191 184.412 173.679 184.9L181.634 192.855ZM114.75 192.489L180.75 192.489L180.75 194.989L114.75 194.989L114.75 192.489Z" fill="#B4B7CE"/>
<rect x="99.75" y="178.739" width="96" height="30" stroke="#8A93A5" stroke-opacity="0.5" stroke-width="1.99137" stroke-miterlimit="10" stroke-linejoin="round" shape-rendering="crispEdges"/>
</g>
<path d="M372.41 177.23L371.752 167.458H373.334L373.642 173.086L373.768 175.41H373.894L374.874 169.712H376.582L377.562 175.41H377.688L377.814 173.086L378.122 167.458H379.648L378.99 177.23H376.624L375.756 171.7H375.644L374.776 177.23H372.41ZM381.057 177.23V167.458H387.231V168.97H382.891V171.518H387.077V173.03H382.891V175.718H387.231V177.23H381.057ZM389.409 167.458H392.811C393.735 167.458 394.444 167.691 394.939 168.158C395.443 168.615 395.695 169.241 395.695 170.034C395.695 170.594 395.555 171.042 395.275 171.378C395.004 171.714 394.617 171.957 394.113 172.106V172.176C394.701 172.316 395.163 172.573 395.499 172.946C395.844 173.31 396.017 173.828 396.017 174.5C396.017 174.911 395.947 175.284 395.807 175.62C395.676 175.947 395.485 176.231 395.233 176.474C394.99 176.717 394.692 176.903 394.337 177.034C393.992 177.165 393.6 177.23 393.161 177.23H389.409V167.458ZM392.601 175.9C393.114 175.9 393.497 175.807 393.749 175.62C394.01 175.424 394.141 175.093 394.141 174.626V174.164C394.141 173.707 394.01 173.385 393.749 173.198C393.497 173.002 393.114 172.904 392.601 172.904H391.201V175.9H392.601ZM392.363 171.63C392.858 171.63 393.222 171.541 393.455 171.364C393.698 171.187 393.819 170.879 393.819 170.44V169.978C393.819 169.539 393.698 169.231 393.455 169.054C393.222 168.877 392.858 168.788 392.363 168.788H391.201V171.63H392.363ZM402.312 173.03H399.456V177.23H397.622V167.458H399.456V171.518H402.312V167.458H404.146V177.23H402.312V173.03ZM409.278 177.398C408.643 177.398 408.093 177.286 407.626 177.062C407.159 176.829 406.772 176.497 406.464 176.068C406.165 175.639 405.941 175.111 405.792 174.486C405.652 173.861 405.582 173.147 405.582 172.344C405.582 171.551 405.652 170.841 405.792 170.216C405.941 169.581 406.165 169.049 406.464 168.62C406.772 168.191 407.159 167.864 407.626 167.64C408.093 167.407 408.643 167.29 409.278 167.29C410.547 167.29 411.481 167.733 412.078 168.62C412.675 169.507 412.974 170.748 412.974 172.344C412.974 173.94 412.675 175.181 412.078 176.068C411.481 176.955 410.547 177.398 409.278 177.398ZM409.278 175.9C409.605 175.9 409.88 175.839 410.104 175.718C410.328 175.587 410.505 175.405 410.636 175.172C410.776 174.939 410.874 174.654 410.93 174.318C410.995 173.973 411.028 173.59 411.028 173.17V171.504C411.028 170.664 410.897 170.001 410.636 169.516C410.384 169.031 409.931 168.788 409.278 168.788C408.625 168.788 408.167 169.031 407.906 169.516C407.654 170.001 407.528 170.664 407.528 171.504V173.184C407.528 174.024 407.654 174.687 407.906 175.172C408.167 175.657 408.625 175.9 409.278 175.9ZM417.673 177.398C417.038 177.398 416.487 177.286 416.021 177.062C415.554 176.829 415.167 176.497 414.859 176.068C414.56 175.639 414.336 175.111 414.187 174.486C414.047 173.861 413.977 173.147 413.977 172.344C413.977 171.551 414.047 170.841 414.187 170.216C414.336 169.581 414.56 169.049 414.859 168.62C415.167 168.191 415.554 167.864 416.021 167.64C416.487 167.407 417.038 167.29 417.673 167.29C418.942 167.29 419.875 167.733 420.473 168.62C421.07 169.507 421.369 170.748 421.369 172.344C421.369 173.94 421.07 175.181 420.473 176.068C419.875 176.955 418.942 177.398 417.673 177.398ZM417.673 175.9C417.999 175.9 418.275 175.839 418.499 175.718C418.723 175.587 418.9 175.405 419.031 175.172C419.171 174.939 419.269 174.654 419.325 174.318C419.39 173.973 419.423 173.59 419.423 173.17V171.504C419.423 170.664 419.292 170.001 419.031 169.516C418.779 169.031 418.326 168.788 417.673 168.788C417.019 168.788 416.562 169.031 416.301 169.516C416.049 170.001 415.923 170.664 415.923 171.504V173.184C415.923 174.024 416.049 174.687 416.301 175.172C416.562 175.657 417.019 175.9 417.673 175.9ZM425.745 172.946L424.723 174.29V177.23H422.889V167.458H424.723V171.854H424.807L425.941 170.23L427.999 167.458H430.071L427.005 171.574L430.211 177.23H428.139L425.745 172.946ZM444.942 177.23L444.256 174.752H441.358L440.686 177.23H438.838L441.582 167.458H444.13L446.888 177.23H444.942ZM442.87 169.264H442.758L441.68 173.254H443.948L442.87 169.264ZM448.171 177.23V167.458H451.881C452.833 167.458 453.561 167.729 454.065 168.27C454.569 168.811 454.821 169.549 454.821 170.482C454.821 171.415 454.569 172.153 454.065 172.694C453.561 173.235 452.833 173.506 451.881 173.506H450.005V177.23H448.171ZM450.005 172.008H451.503C451.997 172.008 452.352 171.91 452.567 171.714C452.781 171.509 452.889 171.187 452.889 170.748V170.216C452.889 169.777 452.781 169.46 452.567 169.264C452.352 169.059 451.997 168.956 451.503 168.956H450.005V172.008ZM456.537 177.23V175.858H458.735V168.83H456.537V167.458H462.753V168.83H460.555V175.858H462.753V177.23H456.537Z" fill="#E2E4E9"/>
<g filter="url(#filter1_d_615_5019)">
<rect x="371.5" y="186.23" width="96" height="30" fill="url(#paint28_linear_615_5019)" shape-rendering="crispEdges"/>
<path d="M453.384 200.346C453.872 200.834 453.872 201.626 453.384 202.114L445.429 210.069C444.941 210.557 444.149 210.557 443.661 210.069C443.173 209.581 443.173 208.789 443.661 208.301L450.732 201.23L443.661 194.159C443.173 193.671 443.173 192.879 443.661 192.391C444.149 191.903 444.941 191.903 445.429 192.391L453.384 200.346ZM386.5 199.98L452.5 199.98L452.5 202.48L386.5 202.48L386.5 199.98Z" fill="#66A3FF"/>
<rect x="371.5" y="186.23" width="96" height="30" stroke="#0061F1" stroke-opacity="0.5" stroke-width="1.99137" stroke-miterlimit="10" stroke-linejoin="round" shape-rendering="crispEdges"/>
</g>
<path d="M372.41 286.687L371.752 276.915H373.334L373.642 282.543L373.768 284.867H373.894L374.874 279.169H376.582L377.562 284.867H377.688L377.814 282.543L378.122 276.915H379.648L378.99 286.687H376.624L375.756 281.157H375.644L374.776 286.687H372.41ZM381.057 286.687V276.915H387.231V278.427H382.891V280.975H387.077V282.487H382.891V285.175H387.231V286.687H381.057ZM389.409 276.915H392.811C393.735 276.915 394.444 277.148 394.939 277.615C395.443 278.072 395.695 278.697 395.695 279.491C395.695 280.051 395.555 280.499 395.275 280.835C395.004 281.171 394.617 281.413 394.113 281.563V281.633C394.701 281.773 395.163 282.029 395.499 282.403C395.844 282.767 396.017 283.285 396.017 283.957C396.017 284.367 395.947 284.741 395.807 285.077C395.676 285.403 395.485 285.688 395.233 285.931C394.99 286.173 394.692 286.36 394.337 286.491C393.992 286.621 393.6 286.687 393.161 286.687H389.409V276.915ZM392.601 285.357C393.114 285.357 393.497 285.263 393.749 285.077C394.01 284.881 394.141 284.549 394.141 284.083V283.621C394.141 283.163 394.01 282.841 393.749 282.655C393.497 282.459 393.114 282.361 392.601 282.361H391.201V285.357H392.601ZM392.363 281.087C392.858 281.087 393.222 280.998 393.455 280.821C393.698 280.643 393.819 280.335 393.819 279.897V279.435C393.819 278.996 393.698 278.688 393.455 278.511C393.222 278.333 392.858 278.245 392.363 278.245H391.201V281.087H392.363ZM402.312 282.487H399.456V286.687H397.622V276.915H399.456V280.975H402.312V276.915H404.146V286.687H402.312V282.487ZM409.278 286.855C408.643 286.855 408.093 286.743 407.626 286.519C407.159 286.285 406.772 285.954 406.464 285.525C406.165 285.095 405.941 284.568 405.792 283.943C405.652 283.317 405.582 282.603 405.582 281.801C405.582 281.007 405.652 280.298 405.792 279.673C405.941 279.038 406.165 278.506 406.464 278.077C406.772 277.647 407.159 277.321 407.626 277.097C408.093 276.863 408.643 276.747 409.278 276.747C410.547 276.747 411.481 277.19 412.078 278.077C412.675 278.963 412.974 280.205 412.974 281.801C412.974 283.397 412.675 284.638 412.078 285.525C411.481 286.411 410.547 286.855 409.278 286.855ZM409.278 285.357C409.605 285.357 409.88 285.296 410.104 285.175C410.328 285.044 410.505 284.862 410.636 284.629C410.776 284.395 410.874 284.111 410.93 283.775C410.995 283.429 411.028 283.047 411.028 282.627V280.961C411.028 280.121 410.897 279.458 410.636 278.973C410.384 278.487 409.931 278.245 409.278 278.245C408.625 278.245 408.167 278.487 407.906 278.973C407.654 279.458 407.528 280.121 407.528 280.961V282.641C407.528 283.481 407.654 284.143 407.906 284.629C408.167 285.114 408.625 285.357 409.278 285.357ZM417.673 286.855C417.038 286.855 416.487 286.743 416.021 286.519C415.554 286.285 415.167 285.954 414.859 285.525C414.56 285.095 414.336 284.568 414.187 283.943C414.047 283.317 413.977 282.603 413.977 281.801C413.977 281.007 414.047 280.298 414.187 279.673C414.336 279.038 414.56 278.506 414.859 278.077C415.167 277.647 415.554 277.321 416.021 277.097C416.487 276.863 417.038 276.747 417.673 276.747C418.942 276.747 419.875 277.19 420.473 278.077C421.07 278.963 421.369 280.205 421.369 281.801C421.369 283.397 421.07 284.638 420.473 285.525C419.875 286.411 418.942 286.855 417.673 286.855ZM417.673 285.357C417.999 285.357 418.275 285.296 418.499 285.175C418.723 285.044 418.9 284.862 419.031 284.629C419.171 284.395 419.269 284.111 419.325 283.775C419.39 283.429 419.423 283.047 419.423 282.627V280.961C419.423 280.121 419.292 279.458 419.031 278.973C418.779 278.487 418.326 278.245 417.673 278.245C417.019 278.245 416.562 278.487 416.301 278.973C416.049 279.458 415.923 280.121 415.923 280.961V282.641C415.923 283.481 416.049 284.143 416.301 284.629C416.562 285.114 417.019 285.357 417.673 285.357ZM425.745 282.403L424.723 283.747V286.687H422.889V276.915H424.723V281.311H424.807L425.941 279.687L427.999 276.915H430.071L427.005 281.031L430.211 286.687H428.139L425.745 282.403ZM444.942 286.687L444.256 284.209H441.358L440.686 286.687H438.838L441.582 276.915H444.13L446.888 286.687H444.942ZM442.87 278.721H442.758L441.68 282.711H443.948L442.87 278.721ZM448.171 286.687V276.915H451.881C452.833 276.915 453.561 277.185 454.065 277.727C454.569 278.268 454.821 279.005 454.821 279.939C454.821 280.872 454.569 281.609 454.065 282.151C453.561 282.692 452.833 282.963 451.881 282.963H450.005V286.687H448.171ZM450.005 281.465H451.503C451.997 281.465 452.352 281.367 452.567 281.171C452.781 280.965 452.889 280.643 452.889 280.205V279.673C452.889 279.234 452.781 278.917 452.567 278.721C452.352 278.515 451.997 278.413 451.503 278.413H450.005V281.465ZM456.537 286.687V285.315H458.735V278.287H456.537V276.915H462.753V278.287H460.555V285.315H462.753V286.687H456.537Z" fill="#E2E4E9"/>
<g filter="url(#filter2_d_615_5019)">
<rect x="371.5" y="295.687" width="96" height="30" fill="url(#paint29_linear_615_5019)" shape-rendering="crispEdges"/>
<path d="M453.384 309.803C453.872 310.291 453.872 311.082 453.384 311.57L445.429 319.525C444.941 320.014 444.149 320.014 443.661 319.525C443.173 319.037 443.173 318.246 443.661 317.758L450.732 310.687L443.661 303.615C443.173 303.127 443.173 302.336 443.661 301.848C444.149 301.36 444.941 301.36 445.429 301.848L453.384 309.803ZM386.5 309.437L452.5 309.437L452.5 311.937L386.5 311.937L386.5 309.437Z" fill="#66A3FF"/>
<rect x="371.5" y="295.687" width="96" height="30" stroke="#0061F1" stroke-opacity="0.5" stroke-width="1.99137" stroke-miterlimit="10" stroke-linejoin="round" shape-rendering="crispEdges"/>
</g>
<path d="M372.41 52.7925L371.752 43.0205H373.334L373.642 48.6485L373.768 50.9725H373.894L374.874 45.2745H376.582L377.562 50.9725H377.688L377.814 48.6485L378.122 43.0205H379.648L378.99 52.7925H376.624L375.756 47.2625H375.644L374.776 52.7925H372.41ZM381.057 52.7925V43.0205H387.231V44.5325H382.891V47.0805H387.077V48.5925H382.891V51.2805H387.231V52.7925H381.057ZM389.409 43.0205H392.811C393.735 43.0205 394.444 43.2538 394.939 43.7205C395.443 44.1778 395.695 44.8031 395.695 45.5965C395.695 46.1565 395.555 46.6045 395.275 46.9405C395.004 47.2765 394.617 47.5191 394.113 47.6685V47.7385C394.701 47.8785 395.163 48.1351 395.499 48.5085C395.844 48.8725 396.017 49.3905 396.017 50.0625C396.017 50.4731 395.947 50.8465 395.807 51.1825C395.676 51.5091 395.485 51.7938 395.233 52.0365C394.99 52.2791 394.692 52.4658 394.337 52.5965C393.992 52.7271 393.6 52.7925 393.161 52.7925H389.409V43.0205ZM392.601 51.4625C393.114 51.4625 393.497 51.3691 393.749 51.1825C394.01 50.9865 394.141 50.6551 394.141 50.1885V49.7265C394.141 49.2691 394.01 48.9471 393.749 48.7605C393.497 48.5645 393.114 48.4665 392.601 48.4665H391.201V51.4625H392.601ZM392.363 47.1925C392.858 47.1925 393.222 47.1038 393.455 46.9265C393.698 46.7491 393.819 46.4411 393.819 46.0025V45.5405C393.819 45.1018 393.698 44.7938 393.455 44.6165C393.222 44.4391 392.858 44.3505 392.363 44.3505H391.201V47.1925H392.363ZM402.312 48.5925H399.456V52.7925H397.622V43.0205H399.456V47.0805H402.312V43.0205H404.146V52.7925H402.312V48.5925ZM409.278 52.9605C408.643 52.9605 408.093 52.8485 407.626 52.6245C407.159 52.3911 406.772 52.0598 406.464 51.6305C406.165 51.2011 405.941 50.6738 405.792 50.0485C405.652 49.4231 405.582 48.7091 405.582 47.9065C405.582 47.1131 405.652 46.4038 405.792 45.7785C405.941 45.1438 406.165 44.6118 406.464 44.1825C406.772 43.7531 407.159 43.4265 407.626 43.2025C408.093 42.9691 408.643 42.8525 409.278 42.8525C410.547 42.8525 411.481 43.2958 412.078 44.1825C412.675 45.0691 412.974 46.3105 412.974 47.9065C412.974 49.5025 412.675 50.7438 412.078 51.6305C411.481 52.5171 410.547 52.9605 409.278 52.9605ZM409.278 51.4625C409.605 51.4625 409.88 51.4018 410.104 51.2805C410.328 51.1498 410.505 50.9678 410.636 50.7345C410.776 50.5011 410.874 50.2165 410.93 49.8805C410.995 49.5351 411.028 49.1525 411.028 48.7325V47.0665C411.028 46.2265 410.897 45.5638 410.636 45.0785C410.384 44.5931 409.931 44.3505 409.278 44.3505C408.625 44.3505 408.167 44.5931 407.906 45.0785C407.654 45.5638 407.528 46.2265 407.528 47.0665V48.7465C407.528 49.5865 407.654 50.2491 407.906 50.7345C408.167 51.2198 408.625 51.4625 409.278 51.4625ZM417.673 52.9605C417.038 52.9605 416.487 52.8485 416.021 52.6245C415.554 52.3911 415.167 52.0598 414.859 51.6305C414.56 51.2011 414.336 50.6738 414.187 50.0485C414.047 49.4231 413.977 48.7091 413.977 47.9065C413.977 47.1131 414.047 46.4038 414.187 45.7785C414.336 45.1438 414.56 44.6118 414.859 44.1825C415.167 43.7531 415.554 43.4265 416.021 43.2025C416.487 42.9691 417.038 42.8525 417.673 42.8525C418.942 42.8525 419.875 43.2958 420.473 44.1825C421.07 45.0691 421.369 46.3105 421.369 47.9065C421.369 49.5025 421.07 50.7438 420.473 51.6305C419.875 52.5171 418.942 52.9605 417.673 52.9605ZM417.673 51.4625C417.999 51.4625 418.275 51.4018 418.499 51.2805C418.723 51.1498 418.9 50.9678 419.031 50.7345C419.171 50.5011 419.269 50.2165 419.325 49.8805C419.39 49.5351 419.423 49.1525 419.423 48.7325V47.0665C419.423 46.2265 419.292 45.5638 419.031 45.0785C418.779 44.5931 418.326 44.3505 417.673 44.3505C417.019 44.3505 416.562 44.5931 416.301 45.0785C416.049 45.5638 415.923 46.2265 415.923 47.0665V48.7465C415.923 49.5865 416.049 50.2491 416.301 50.7345C416.562 51.2198 417.019 51.4625 417.673 51.4625ZM425.745 48.5085L424.723 49.8525V52.7925H422.889V43.0205H424.723V47.4165H424.807L425.941 45.7925L427.999 43.0205H430.071L427.005 47.1365L430.211 52.7925H428.139L425.745 48.5085ZM444.942 52.7925L444.256 50.3145H441.358L440.686 52.7925H438.838L441.582 43.0205H444.13L446.888 52.7925H444.942ZM442.87 44.8265H442.758L441.68 48.8165H443.948L442.87 44.8265ZM448.171 52.7925V43.0205H451.881C452.833 43.0205 453.561 43.2911 454.065 43.8325C454.569 44.3738 454.821 45.1111 454.821 46.0445C454.821 46.9778 454.569 47.7151 454.065 48.2565C453.561 48.7978 452.833 49.0685 451.881 49.0685H450.005V52.7925H448.171ZM450.005 47.5705H451.503C451.997 47.5705 452.352 47.4725 452.567 47.2765C452.781 47.0711 452.889 46.7491 452.889 46.3105V45.7785C452.889 45.3398 452.781 45.0225 452.567 44.8265C452.352 44.6211 451.997 44.5185 451.503 44.5185H450.005V47.5705ZM456.537 52.7925V51.4205H458.735V44.3925H456.537V43.0205H462.753V44.3925H460.555V51.4205H462.753V52.7925H456.537Z" fill="#E2E4E9"/>
<g filter="url(#filter3_d_615_5019)">
<rect x="371.5" y="61.7925" width="96" height="30" fill="url(#paint30_linear_615_5019)" shape-rendering="crispEdges"/>
<path d="M453.384 75.9086C453.872 76.3968 453.872 77.1882 453.384 77.6764L445.429 85.6313C444.941 86.1195 444.149 86.1195 443.661 85.6313C443.173 85.1432 443.173 84.3517 443.661 83.8636L450.732 76.7925L443.661 69.7214C443.173 69.2333 443.173 68.4418 443.661 67.9537C444.149 67.4655 444.941 67.4655 445.429 67.9537L453.384 75.9086ZM386.5 75.5425L452.5 75.5425L452.5 78.0425L386.5 78.0425L386.5 75.5425Z" fill="#66A3FF"/>
<rect x="371.5" y="61.7925" width="96" height="30" stroke="#0061F1" stroke-opacity="0.5" stroke-width="1.99137" stroke-miterlimit="10" stroke-linejoin="round" shape-rendering="crispEdges"/>
</g>
<defs>
<filter id="filter0_d_615_5019" x="97.4697" y="176.459" width="100.561" height="34.5606" filterUnits="userSpaceOnUse" color-interpolation-filters="sRGB">
<feFlood flood-opacity="0" result="BackgroundImageFix"/>
<feColorMatrix in="SourceAlpha" type="matrix" values="0 0 0 0 0 0 0 0 0 0 0 0 0 0 0 0 0 0 127 0" result="hardAlpha"/>
<feOffset/>
<feGaussianBlur stdDeviation="0.642342"/>
<feComposite in2="hardAlpha" operator="out"/>
<feColorMatrix type="matrix" values="0 0 0 0 0 0 0 0 0 0.301471 0 0 0 0 0.75 0 0 0 1 0"/>
<feBlend mode="normal" in2="BackgroundImageFix" result="effect1_dropShadow_615_5019"/>
<feBlend mode="normal" in="SourceGraphic" in2="effect1_dropShadow_615_5019" result="shape"/>
</filter>
<filter id="filter1_d_615_5019" x="369.22" y="183.95" width="100.561" height="34.5606" filterUnits="userSpaceOnUse" color-interpolation-filters="sRGB">
<feFlood flood-opacity="0" result="BackgroundImageFix"/>
<feColorMatrix in="SourceAlpha" type="matrix" values="0 0 0 0 0 0 0 0 0 0 0 0 0 0 0 0 0 0 127 0" result="hardAlpha"/>
<feOffset/>
<feGaussianBlur stdDeviation="0.642342"/>
<feComposite in2="hardAlpha" operator="out"/>
<feColorMatrix type="matrix" values="0 0 0 0 0 0 0 0 0 0.301471 0 0 0 0 0.75 0 0 0 1 0"/>
<feBlend mode="normal" in2="BackgroundImageFix" result="effect1_dropShadow_615_5019"/>
<feBlend mode="normal" in="SourceGraphic" in2="effect1_dropShadow_615_5019" result="shape"/>
</filter>
<filter id="filter2_d_615_5019" x="369.22" y="293.406" width="100.561" height="34.5606" filterUnits="userSpaceOnUse" color-interpolation-filters="sRGB">
<feFlood flood-opacity="0" result="BackgroundImageFix"/>
<feColorMatrix in="SourceAlpha" type="matrix" values="0 0 0 0 0 0 0 0 0 0 0 0 0 0 0 0 0 0 127 0" result="hardAlpha"/>
<feOffset/>
<feGaussianBlur stdDeviation="0.642342"/>
<feComposite in2="hardAlpha" operator="out"/>
<feColorMatrix type="matrix" values="0 0 0 0 0 0 0 0 0 0.301471 0 0 0 0 0.75 0 0 0 1 0"/>
<feBlend mode="normal" in2="BackgroundImageFix" result="effect1_dropShadow_615_5019"/>
<feBlend mode="normal" in="SourceGraphic" in2="effect1_dropShadow_615_5019" result="shape"/>
</filter>
<filter id="filter3_d_615_5019" x="369.22" y="59.5122" width="100.561" height="34.5606" filterUnits="userSpaceOnUse" color-interpolation-filters="sRGB">
<feFlood flood-opacity="0" result="BackgroundImageFix"/>
<feColorMatrix in="SourceAlpha" type="matrix" values="0 0 0 0 0 0 0 0 0 0 0 0 0 0 0 0 0 0 127 0" result="hardAlpha"/>
<feOffset/>
<feGaussianBlur stdDeviation="0.642342"/>
<feComposite in2="hardAlpha" operator="out"/>
<feColorMatrix type="matrix" values="0 0 0 0 0 0 0 0 0 0.301471 0 0 0 0 0.75 0 0 0 1 0"/>
<feBlend mode="normal" in2="BackgroundImageFix" result="effect1_dropShadow_615_5019"/>
<feBlend mode="normal" in="SourceGraphic" in2="effect1_dropShadow_615_5019" result="shape"/>
</filter>
<radialGradient id="paint0_radial_615_5019" cx="0" cy="0" r="1" gradientUnits="userSpaceOnUse" gradientTransform="translate(551.06 4.51335) rotate(-8.14295) scale(25.1265 7.44611)">
<stop stop-color="#0051CC"/>
<stop offset="0.473511" stop-color="#0061F1"/>
<stop offset="1" stop-color="#5A97F2"/>
</radialGradient>
<linearGradient id="paint1_linear_615_5019" x1="544.512" y1="10.8846" x2="559.748" y2="35.9414" gradientUnits="userSpaceOnUse">
<stop stop-color="#1D2838"/>
<stop offset="1" stop-color="#1D2838" stop-opacity="0.5"/>
</linearGradient>
<linearGradient id="paint2_linear_615_5019" x1="585.527" y1="85.9964" x2="539.912" y2="85.7112" gradientUnits="userSpaceOnUse">
<stop stop-color="#E2E4E9"/>
<stop offset="1" stop-color="white"/>
</linearGradient>
<linearGradient id="paint3_linear_615_5019" x1="585.527" y1="74.995" x2="539.912" y2="74.7097" gradientUnits="userSpaceOnUse">
<stop stop-color="#E2E4E9"/>
<stop offset="1" stop-color="white"/>
</linearGradient>
<linearGradient id="paint4_linear_615_5019" x1="585.779" y1="63.994" x2="540.164" y2="63.7087" gradientUnits="userSpaceOnUse">
<stop stop-color="#E2E4E9"/>
<stop offset="1" stop-color="white"/>
</linearGradient>
<linearGradient id="paint5_linear_615_5019" x1="548.462" y1="90.1822" x2="548.462" y2="85.9199" gradientUnits="userSpaceOnUse">
<stop stop-color="#E2E4E9"/>
<stop offset="1" stop-color="white"/>
</linearGradient>
<linearGradient id="paint6_linear_615_5019" x1="548.462" y1="79.0802" x2="548.462" y2="74.8047" gradientUnits="userSpaceOnUse">
<stop stop-color="#E2E4E9"/>
<stop offset="1" stop-color="white"/>
</linearGradient>
<linearGradient id="paint7_linear_615_5019" x1="548.462" y1="101.049" x2="548.462" y2="96.7773" gradientUnits="userSpaceOnUse">
<stop stop-color="#E2E4E9"/>
<stop offset="1" stop-color="white"/>
</linearGradient>
<radialGradient id="paint8_radial_615_5019" cx="0" cy="0" r="1" gradientUnits="userSpaceOnUse" gradientTransform="translate(551.06 128.581) rotate(-8.14295) scale(25.1265 7.44611)">
<stop stop-color="#0051CC"/>
<stop offset="0.473511" stop-color="#0061F1"/>
<stop offset="1" stop-color="#5A97F2"/>
</radialGradient>
<linearGradient id="paint9_linear_615_5019" x1="544.512" y1="134.952" x2="559.748" y2="160.009" gradientUnits="userSpaceOnUse">
<stop stop-color="#1D2838"/>
<stop offset="1" stop-color="#1D2838" stop-opacity="0.5"/>
</linearGradient>
<linearGradient id="paint10_linear_615_5019" x1="585.527" y1="210.064" x2="539.912" y2="209.779" gradientUnits="userSpaceOnUse">
<stop stop-color="#E2E4E9"/>
<stop offset="1" stop-color="white"/>
</linearGradient>
<linearGradient id="paint11_linear_615_5019" x1="585.527" y1="199.063" x2="539.912" y2="198.778" gradientUnits="userSpaceOnUse">
<stop stop-color="#E2E4E9"/>
<stop offset="1" stop-color="white"/>
</linearGradient>
<linearGradient id="paint12_linear_615_5019" x1="585.779" y1="188.062" x2="540.164" y2="187.777" gradientUnits="userSpaceOnUse">
<stop stop-color="#E2E4E9"/>
<stop offset="1" stop-color="white"/>
</linearGradient>
<linearGradient id="paint13_linear_615_5019" x1="548.462" y1="214.25" x2="548.462" y2="209.988" gradientUnits="userSpaceOnUse">
<stop stop-color="#E2E4E9"/>
<stop offset="1" stop-color="white"/>
</linearGradient>
<linearGradient id="paint14_linear_615_5019" x1="548.462" y1="203.148" x2="548.462" y2="198.873" gradientUnits="userSpaceOnUse">
<stop stop-color="#E2E4E9"/>
<stop offset="1" stop-color="white"/>
</linearGradient>
<linearGradient id="paint15_linear_615_5019" x1="548.462" y1="225.117" x2="548.462" y2="220.845" gradientUnits="userSpaceOnUse">
<stop stop-color="#E2E4E9"/>
<stop offset="1" stop-color="white"/>
</linearGradient>
<linearGradient id="paint16_linear_615_5019" x1="551.634" y1="288.481" x2="565.044" y2="265.253" gradientUnits="userSpaceOnUse">
<stop stop-color="#E2E4E9"/>
<stop offset="1" stop-color="white"/>
</linearGradient>
<linearGradient id="paint17_linear_615_5019" x1="577.633" y1="321.515" x2="591.044" y2="298.288" gradientUnits="userSpaceOnUse">
<stop stop-color="#E2E4E9"/>
<stop offset="1" stop-color="white"/>
</linearGradient>
<linearGradient id="paint18_linear_615_5019" x1="544.776" y1="325.236" x2="558.186" y2="302.009" gradientUnits="userSpaceOnUse">
<stop stop-color="#E2E4E9"/>
<stop offset="1" stop-color="white"/>
</linearGradient>
<radialGradient id="paint19_radial_615_5019" cx="0" cy="0" r="1" gradientUnits="userSpaceOnUse" gradientTransform="translate(257.972 91.5885) rotate(-8.14295) scale(34.1052 10.1069)">
<stop stop-color="#0051CC"/>
<stop offset="0.473511" stop-color="#0061F1"/>
<stop offset="1" stop-color="#5A97F2"/>
</radialGradient>
<linearGradient id="paint20_linear_615_5019" x1="249.084" y1="100.237" x2="269.764" y2="134.247" gradientUnits="userSpaceOnUse">
<stop stop-color="#1D2838"/>
<stop offset="1" stop-color="#1D2838" stop-opacity="0.5"/>
</linearGradient>
<linearGradient id="paint21_linear_615_5019" x1="304.756" y1="202.188" x2="242.84" y2="201.801" gradientUnits="userSpaceOnUse">
<stop stop-color="#E2E4E9"/>
<stop offset="1" stop-color="white"/>
</linearGradient>
<linearGradient id="paint22_linear_615_5019" x1="304.756" y1="187.256" x2="242.84" y2="186.869" gradientUnits="userSpaceOnUse">
<stop stop-color="#E2E4E9"/>
<stop offset="1" stop-color="white"/>
</linearGradient>
<linearGradient id="paint23_linear_615_5019" x1="305.098" y1="172.324" x2="243.183" y2="171.936" gradientUnits="userSpaceOnUse">
<stop stop-color="#E2E4E9"/>
<stop offset="1" stop-color="white"/>
</linearGradient>
<linearGradient id="paint24_linear_615_5019" x1="254.446" y1="207.87" x2="254.446" y2="202.084" gradientUnits="userSpaceOnUse">
<stop stop-color="#E2E4E9"/>
<stop offset="1" stop-color="white"/>
</linearGradient>
<linearGradient id="paint25_linear_615_5019" x1="254.446" y1="192.801" x2="254.446" y2="186.998" gradientUnits="userSpaceOnUse">
<stop stop-color="#E2E4E9"/>
<stop offset="1" stop-color="white"/>
</linearGradient>
<linearGradient id="paint26_linear_615_5019" x1="254.446" y1="222.62" x2="254.446" y2="216.822" gradientUnits="userSpaceOnUse">
<stop stop-color="#E2E4E9"/>
<stop offset="1" stop-color="white"/>
</linearGradient>
<linearGradient id="paint27_linear_615_5019" x1="147.75" y1="178.739" x2="147.75" y2="208.739" gradientUnits="userSpaceOnUse">
<stop stop-color="#212731"/>
<stop offset="1" stop-color="#5C4848" stop-opacity="0"/>
<stop offset="1" stop-color="#232B37"/>
</linearGradient>
<linearGradient id="paint28_linear_615_5019" x1="419.5" y1="186.23" x2="419.5" y2="216.23" gradientUnits="userSpaceOnUse">
<stop stop-color="#232B37"/>
<stop offset="1" stop-color="#004DBF" stop-opacity="0"/>
</linearGradient>
<linearGradient id="paint29_linear_615_5019" x1="419.5" y1="295.687" x2="419.5" y2="325.687" gradientUnits="userSpaceOnUse">
<stop stop-color="#232B37"/>
<stop offset="1" stop-color="#004DBF" stop-opacity="0"/>
</linearGradient>
<linearGradient id="paint30_linear_615_5019" x1="419.5" y1="61.7925" x2="419.5" y2="91.7925" gradientUnits="userSpaceOnUse">
<stop stop-color="#232B37"/>
<stop offset="1" stop-color="#004DBF" stop-opacity="0"/>
</linearGradient>
</defs>
</svg>
