<svg width="130" height="811" viewBox="0 0 130 811" fill="none" xmlns="http://www.w3.org/2000/svg">
<g filter="url(#filter0_d_736_3818)">
<path d="M40 80L5.35899 100L5.35899 140L40 160L74.641 140L74.641 100L40 80Z" fill="url(#paint0_linear_736_3818)" shape-rendering="crispEdges"/>
<path d="M40 80L5.35899 100L5.35899 140L40 160L74.641 140L74.641 100L40 80Z" stroke="#0061F1" stroke-opacity="0.6" stroke-width="2" stroke-miterlimit="10" stroke-linejoin="round" shape-rendering="crispEdges"/>
</g>
<path d="M43.5512 113.738C43.0638 114.227 43.0651 115.019 43.5541 115.506C44.043 115.994 44.8345 115.992 45.3218 115.503L43.5512 113.738ZM57.2332 103.035C57.2321 102.344 56.6716 101.786 55.9812 101.787L44.7312 101.805C44.0409 101.806 43.4821 102.367 43.4833 103.057C43.4844 103.747 44.0449 104.306 44.7353 104.305L54.7353 104.289L54.7515 114.289C54.7526 114.979 55.3132 115.538 56.0035 115.537C56.6939 115.535 57.2526 114.975 57.2515 114.285L57.2332 103.035ZM45.3218 115.503L56.8686 103.919L55.0979 102.154L43.5512 113.738L45.3218 115.503Z" fill="#0061F1"/>
<path d="M34.6806 113.413C34.5251 113.322 34.3488 113.274 34.1692 113.274C33.9897 113.274 33.8134 113.322 33.6579 113.413L24.7812 118.61L34.2102 124.087L43.6084 118.62L34.6806 113.413Z" fill="#0061F1"/>
<path d="M23.9834 131.081C23.9827 131.264 24.0296 131.444 24.1194 131.603C24.2092 131.761 24.3387 131.893 24.4947 131.985L33.1873 137.036V125.604L23.9834 120.22V131.081Z" fill="#0061F1"/>
<path d="M35.2329 137.036L43.9255 131.985C44.0816 131.894 44.211 131.762 44.3008 131.603C44.3906 131.444 44.4375 131.264 44.4368 131.081V120.231L35.2329 125.583V137.036Z" fill="#0061F1"/>
<path d="M43.5512 113.738C43.0638 114.227 43.0651 115.019 43.5541 115.506C44.043 115.994 44.8345 115.992 45.3218 115.503L43.5512 113.738ZM57.2332 103.035C57.2321 102.344 56.6716 101.786 55.9812 101.787L44.7312 101.805C44.0409 101.806 43.4821 102.367 43.4833 103.057C43.4844 103.747 44.0449 104.306 44.7353 104.305L54.7353 104.289L54.7515 114.289C54.7526 114.979 55.3132 115.538 56.0035 115.537C56.6939 115.535 57.2526 114.975 57.2515 114.285L57.2332 103.035ZM45.3218 115.503L56.8686 103.919L55.0979 102.154L43.5512 113.738L45.3218 115.503Z" fill="#0061F1"/>
<path d="M34.6806 113.413C34.5251 113.322 34.3488 113.274 34.1692 113.274C33.9897 113.274 33.8134 113.322 33.6579 113.413L24.7812 118.61L34.2102 124.087L43.6084 118.62L34.6806 113.413Z" fill="#0061F1"/>
<path d="M23.9834 131.081C23.9827 131.264 24.0296 131.444 24.1194 131.603C24.2092 131.761 24.3387 131.893 24.4947 131.985L33.1873 137.036V125.604L23.9834 120.22V131.081Z" fill="#0061F1"/>
<path d="M35.2329 137.036L43.9255 131.985C44.0816 131.894 44.211 131.762 44.3008 131.603C44.3906 131.444 44.4375 131.264 44.4368 131.081V120.231L35.2329 125.583V137.036Z" fill="#0061F1"/>
<path d="M40 200L40 256" stroke="url(#paint1_linear_736_3818)" stroke-width="4" stroke-linecap="round" stroke-linejoin="round" stroke-dasharray="0.1 10"/>
<g filter="url(#filter1_d_736_3818)">
<path d="M40 296L5.35899 316L5.35899 356L40 376L74.641 356L74.641 316L40 296Z" fill="url(#paint2_linear_736_3818)" shape-rendering="crispEdges"/>
<path d="M40 296L5.35899 316L5.35899 356L40 376L74.641 356L74.641 316L40 296Z" stroke="#0061F1" stroke-opacity="0.6" stroke-width="2" stroke-miterlimit="10" stroke-linejoin="round" shape-rendering="crispEdges"/>
</g>
<path d="M32.0983 329.589C32.0983 327.923 32.675 325.974 33.939 324.471C35.1688 323.007 37.099 321.897 39.9957 321.897C41.7074 321.897 43.7061 322.459 45.2492 323.692C46.7555 324.889 47.8931 326.769 47.8931 329.589C47.8931 329.929 48.0318 330.255 48.2787 330.496C48.5257 330.736 48.8606 330.871 49.2098 330.871C49.5521 330.871 49.8892 330.892 50.2262 330.933C51.3976 330.058 52.8319 329.583 54.3079 329.581C53.1206 328.941 51.8165 328.532 50.4685 328.376C50.1736 325.407 48.7884 323.197 46.9188 321.705C44.8437 320.054 42.2314 319.333 39.9931 319.333C36.3117 319.333 33.6335 320.787 31.9034 322.846C30.597 324.432 29.7781 326.346 29.5413 328.366C24.1061 328.907 21.5649 332.974 21.5649 335.997C21.5649 337.463 21.9389 339.412 23.3714 341.007C24.8356 342.635 27.2161 343.686 30.779 343.686H37.2254C37.5362 343.266 37.8838 342.866 38.263 342.499L39.6771 341.122H30.779C27.7612 341.122 26.1917 340.25 25.3543 339.317C24.4827 338.348 24.1956 337.092 24.1956 335.997C24.1956 334.11 26.01 330.869 30.779 330.869C30.9519 330.869 31.1232 330.836 31.2831 330.772C31.443 330.708 31.5883 330.614 31.7108 330.495C31.8333 330.376 31.9306 330.235 31.9971 330.08C32.0636 329.924 32.098 329.758 32.0983 329.589ZM57.2283 333.317C56.8468 332.946 56.3938 332.651 55.8952 332.449C55.3966 332.248 54.8621 332.145 54.3224 332.145C53.7827 332.145 53.2482 332.248 52.7496 332.449C52.251 332.651 51.798 332.946 51.4165 333.317L40.13 344.312C39.1932 345.224 38.5287 346.368 38.2077 347.62L37.4071 350.722C37.3396 350.984 37.3431 351.259 37.4171 351.519C37.4911 351.78 37.6332 352.017 37.8294 352.208C38.0257 352.399 38.2694 352.538 38.5369 352.61C38.8045 352.682 39.0866 352.685 39.3558 352.619L42.5421 351.843C43.8277 351.53 45.0019 350.883 45.9391 349.971L57.2309 338.976C57.6127 338.605 57.9156 338.164 58.1222 337.678C58.3289 337.193 58.4352 336.672 58.4352 336.147C58.4352 335.621 58.3289 335.101 58.1222 334.615C57.9156 334.13 57.6127 333.689 57.2309 333.317H57.2283Z" fill="#0061F1"/>
<path d="M40 416L40 472" stroke="url(#paint3_linear_736_3818)" stroke-width="4" stroke-linecap="round" stroke-linejoin="round" stroke-dasharray="0.1 10"/>
<g filter="url(#filter2_d_736_3818)">
<path d="M40 512L5.35899 532L5.35899 572L40 592L74.641 572L74.641 532L40 512Z" fill="url(#paint4_linear_736_3818)" shape-rendering="crispEdges"/>
<path d="M40 512L5.35899 532L5.35899 572L40 592L74.641 572L74.641 532L40 512Z" stroke="#0061F1" stroke-opacity="0.6" stroke-width="2" stroke-miterlimit="10" stroke-linejoin="round" shape-rendering="crispEdges"/>
</g>
<path d="M39.0612 553.443H29.9742L26.9355 541.355C26.916 541.284 26.9041 541.212 26.9001 541.139C26.8663 540.031 28.0867 539.263 29.1442 539.77L57.6411 553.443L29.1442 567.117C28.099 567.62 26.894 566.873 26.9001 565.784C26.9032 565.687 26.9203 565.591 26.9508 565.499L29.2057 558.055" stroke="#0061F1" stroke-width="2.5" stroke-linecap="round" stroke-linejoin="round"/>
<path d="M40 632L40 688" stroke="url(#paint5_linear_736_3818)" stroke-width="4" stroke-linecap="round" stroke-linejoin="round" stroke-dasharray="0.1 10"/>
<g filter="url(#filter3_d_736_3818)">
<path d="M40 728L5.35899 748L5.35899 788L40 808L74.641 788L74.641 748L40 728Z" fill="url(#paint6_linear_736_3818)" shape-rendering="crispEdges"/>
<path d="M40 728L5.35899 748L5.35899 788L40 808L74.641 788L74.641 748L40 728Z" stroke="#0061F1" stroke-opacity="0.6" stroke-width="2" stroke-miterlimit="10" stroke-linejoin="round" shape-rendering="crispEdges"/>
</g>
<path d="M46.0352 776.984C47.1923 776.984 48.1304 776.046 48.1304 774.889C48.1304 773.732 47.1923 772.794 46.0352 772.794C44.878 772.794 43.9399 773.732 43.9399 774.889C43.9399 776.046 44.878 776.984 46.0352 776.984Z" fill="#0061F1"/>
<path d="M54.1827 774.463C53.5354 772.814 52.4184 771.391 50.9702 770.37C49.5219 769.35 47.8061 768.777 46.0354 768.723C44.2647 768.777 42.5488 769.35 41.1006 770.37C39.6524 771.391 38.5354 772.814 37.8881 774.463L37.6544 775.009L37.8881 775.554C38.5354 777.203 39.6524 778.626 41.1006 779.647C42.5488 780.667 44.2647 781.24 46.0354 781.294C47.8061 781.24 49.5219 780.667 50.9702 779.647C52.4184 778.626 53.5354 777.203 54.1827 775.554L54.4163 775.009L54.1827 774.463ZM46.0354 779.199C45.2066 779.199 44.3964 778.953 43.7073 778.493C43.0182 778.032 42.4811 777.378 42.1639 776.612C41.8467 775.846 41.7637 775.004 41.9254 774.191C42.0871 773.378 42.4862 772.631 43.0723 772.045C43.6583 771.459 44.405 771.06 45.2179 770.899C46.0307 770.737 46.8733 770.82 47.639 771.137C48.4047 771.454 49.0592 771.991 49.5196 772.68C49.9801 773.37 50.2259 774.18 50.2259 775.009C50.2245 776.12 49.7825 777.185 48.997 777.97C48.2114 778.756 47.1463 779.198 46.0354 779.199ZM49.1782 760.342H27.1782C26.6227 760.341 26.0901 760.12 25.6973 759.728C25.3045 759.335 25.0836 758.802 25.083 758.247V754.056C25.0836 753.501 25.3045 752.968 25.6973 752.575C26.0901 752.182 26.6227 751.961 27.1782 751.961H49.1782C49.7338 751.961 50.2664 752.182 50.6592 752.575C51.052 752.968 51.2729 753.501 51.2735 754.056V758.247C51.2729 758.802 51.052 759.335 50.6592 759.728C50.2664 760.12 49.7338 760.341 49.1782 760.342ZM27.1782 754.056V758.247H49.1782V754.056H27.1782ZM35.5592 780.247C35.5592 779.668 35.0902 779.199 34.5116 779.199H27.1782V775.009H35.5592V772.913H27.1782C26.6227 772.914 26.0901 773.135 25.6973 773.528C25.3045 773.92 25.0836 774.453 25.083 775.009V779.199C25.0836 779.755 25.3045 780.287 25.6973 780.68C26.0901 781.073 26.6227 781.294 27.1782 781.294H34.5116C35.0902 781.294 35.5592 780.825 35.5592 780.247Z" fill="#0061F1"/>
<path d="M52.3213 762.438H30.3213C29.7658 762.438 29.2332 762.659 28.8404 763.052C28.4476 763.445 28.2266 763.977 28.2261 764.533V768.723C28.2266 769.279 28.4476 769.811 28.8404 770.204C29.2332 770.597 29.7658 770.818 30.3213 770.818H35.5594V768.723H30.3213V764.533H52.3213V766.628H54.4165V764.533C54.416 763.977 54.1951 763.445 53.8023 763.052C53.4094 762.659 52.8768 762.438 52.3213 762.438Z" fill="#0061F1"/>
<defs>
<filter id="filter0_d_736_3818" x="2.69245" y="77.3336" width="74.6151" height="85.3329" filterUnits="userSpaceOnUse" color-interpolation-filters="sRGB">
<feFlood flood-opacity="0" result="BackgroundImageFix"/>
<feColorMatrix in="SourceAlpha" type="matrix" values="0 0 0 0 0 0 0 0 0 0 0 0 0 0 0 0 0 0 127 0" result="hardAlpha"/>
<feOffset/>
<feGaussianBlur stdDeviation="0.833218"/>
<feComposite in2="hardAlpha" operator="out"/>
<feColorMatrix type="matrix" values="0 0 0 0 0 0 0 0 0 0.301471 0 0 0 0 0.75 0 0 0 1 0"/>
<feBlend mode="normal" in2="BackgroundImageFix" result="effect1_dropShadow_736_3818"/>
<feBlend mode="normal" in="SourceGraphic" in2="effect1_dropShadow_736_3818" result="shape"/>
</filter>
<filter id="filter1_d_736_3818" x="2.69245" y="293.334" width="74.6151" height="85.3329" filterUnits="userSpaceOnUse" color-interpolation-filters="sRGB">
<feFlood flood-opacity="0" result="BackgroundImageFix"/>
<feColorMatrix in="SourceAlpha" type="matrix" values="0 0 0 0 0 0 0 0 0 0 0 0 0 0 0 0 0 0 127 0" result="hardAlpha"/>
<feOffset/>
<feGaussianBlur stdDeviation="0.833218"/>
<feComposite in2="hardAlpha" operator="out"/>
<feColorMatrix type="matrix" values="0 0 0 0 0 0 0 0 0 0.301471 0 0 0 0 0.75 0 0 0 1 0"/>
<feBlend mode="normal" in2="BackgroundImageFix" result="effect1_dropShadow_736_3818"/>
<feBlend mode="normal" in="SourceGraphic" in2="effect1_dropShadow_736_3818" result="shape"/>
</filter>
<filter id="filter2_d_736_3818" x="2.69245" y="509.334" width="74.6151" height="85.3329" filterUnits="userSpaceOnUse" color-interpolation-filters="sRGB">
<feFlood flood-opacity="0" result="BackgroundImageFix"/>
<feColorMatrix in="SourceAlpha" type="matrix" values="0 0 0 0 0 0 0 0 0 0 0 0 0 0 0 0 0 0 127 0" result="hardAlpha"/>
<feOffset/>
<feGaussianBlur stdDeviation="0.833218"/>
<feComposite in2="hardAlpha" operator="out"/>
<feColorMatrix type="matrix" values="0 0 0 0 0 0 0 0 0 0.301471 0 0 0 0 0.75 0 0 0 1 0"/>
<feBlend mode="normal" in2="BackgroundImageFix" result="effect1_dropShadow_736_3818"/>
<feBlend mode="normal" in="SourceGraphic" in2="effect1_dropShadow_736_3818" result="shape"/>
</filter>
<filter id="filter3_d_736_3818" x="2.69245" y="725.334" width="74.6151" height="85.3329" filterUnits="userSpaceOnUse" color-interpolation-filters="sRGB">
<feFlood flood-opacity="0" result="BackgroundImageFix"/>
<feColorMatrix in="SourceAlpha" type="matrix" values="0 0 0 0 0 0 0 0 0 0 0 0 0 0 0 0 0 0 127 0" result="hardAlpha"/>
<feOffset/>
<feGaussianBlur stdDeviation="0.833218"/>
<feComposite in2="hardAlpha" operator="out"/>
<feColorMatrix type="matrix" values="0 0 0 0 0 0 0 0 0 0.301471 0 0 0 0 0.75 0 0 0 1 0"/>
<feBlend mode="normal" in2="BackgroundImageFix" result="effect1_dropShadow_736_3818"/>
<feBlend mode="normal" in="SourceGraphic" in2="effect1_dropShadow_736_3818" result="shape"/>
</filter>
<linearGradient id="paint0_linear_736_3818" x1="40" y1="80" x2="40" y2="160" gradientUnits="userSpaceOnUse">
<stop stop-color="#232B37"/>
<stop offset="1" stop-color="#004DBF" stop-opacity="0"/>
</linearGradient>
<linearGradient id="paint1_linear_736_3818" x1="42.5968" y1="107.475" x2="41.97" y2="107.475" gradientUnits="userSpaceOnUse">
<stop stop-color="#004DBF" stop-opacity="0.4"/>
<stop offset="1" stop-color="#004DBF" stop-opacity="0.7"/>
</linearGradient>
<linearGradient id="paint2_linear_736_3818" x1="40" y1="296" x2="40" y2="376" gradientUnits="userSpaceOnUse">
<stop stop-color="#232B37"/>
<stop offset="1" stop-color="#004DBF" stop-opacity="0"/>
</linearGradient>
<linearGradient id="paint3_linear_736_3818" x1="42.5968" y1="323.475" x2="41.97" y2="323.475" gradientUnits="userSpaceOnUse">
<stop stop-color="#004DBF" stop-opacity="0.4"/>
<stop offset="1" stop-color="#004DBF" stop-opacity="0.7"/>
</linearGradient>
<linearGradient id="paint4_linear_736_3818" x1="40" y1="512" x2="40" y2="592" gradientUnits="userSpaceOnUse">
<stop stop-color="#232B37"/>
<stop offset="1" stop-color="#004DBF" stop-opacity="0"/>
</linearGradient>
<linearGradient id="paint5_linear_736_3818" x1="42.5968" y1="539.475" x2="41.97" y2="539.475" gradientUnits="userSpaceOnUse">
<stop stop-color="#004DBF" stop-opacity="0.4"/>
<stop offset="1" stop-color="#004DBF" stop-opacity="0.7"/>
</linearGradient>
<linearGradient id="paint6_linear_736_3818" x1="40" y1="728" x2="40" y2="808" gradientUnits="userSpaceOnUse">
<stop stop-color="#232B37"/>
<stop offset="1" stop-color="#004DBF" stop-opacity="0"/>
</linearGradient>
</defs>
</svg>
