<svg width="179" height="28" viewBox="0 0 179 28" fill="none" xmlns="http://www.w3.org/2000/svg">
<path fill-rule="evenodd" clip-rule="evenodd" d="M2.99848 25.1756C4.82364 26.9356 7.30065 27.9133 9.84284 27.9133H33.1137C34.6781 27.9133 36.1773 27.6526 37.5462 27.1311C38.5891 26.74 39.4365 26.2185 40.2188 25.6319C40.3585 25.4922 40.4982 25.3711 40.6279 25.2588L40.628 25.2588C40.7403 25.1615 40.845 25.0708 40.9358 24.98C43.0869 22.829 44.2602 19.9608 44.2602 16.9624C44.2602 11.2913 40.0232 6.53286 34.4173 5.81583C33.5699 5.68547 32.6574 5.62028 31.7448 5.62028H30.9626H30.6367C28.0945 1.96996 24.5093 0.0144262 20.4027 0.144795H19.6857C15.3183 0.535901 12.0591 2.36106 9.90802 5.81583C8.99544 7.24989 8.40878 9.00987 8.14805 11.0958C7.4962 10.7047 6.71399 10.5091 5.99696 10.5091C5.08438 10.5091 4.1718 10.835 3.38959 11.4217C1.56442 12.8557 0.325922 15.0068 0.0651844 17.2231C0 17.6142 0 18.0705 0 18.4616C0.0651844 21.0038 1.10813 23.4156 2.99848 25.1756ZM4.88883 13.2469C5.21475 12.9861 5.60585 12.8557 5.99696 12.8557C6.90954 12.8557 7.95249 13.5728 7.82212 14.8113V17.2231C7.88731 19.1786 9.51692 20.8082 11.5376 20.8734H11.668C12.7109 20.8734 13.5583 20.4823 14.2754 19.7653C14.9924 18.9831 15.3835 18.0053 15.3835 16.9624V14.8765C15.3835 14.6157 15.1228 14.355 14.862 14.355C14.7317 14.355 14.6013 14.4202 14.4709 14.5505L13.3628 16.1801C13.1672 16.3757 13.1021 16.7016 13.1021 16.9624C13.1021 17.7446 12.5154 18.3964 11.7332 18.3964C10.4947 18.3964 10.2339 17.2231 10.2339 16.9624C10.2339 16.1822 10.2573 15.4487 10.276 14.8597V14.8597V14.8596V14.8596L10.276 14.8596V14.8595V14.8595V14.8595V14.8595C10.2886 14.4643 10.2991 14.1342 10.2991 13.8987C10.2991 10.9654 10.8206 8.74913 11.9287 6.98915C13.7539 4.18622 16.2309 2.75217 19.8812 2.42625H20.4027C24.1182 2.42625 27.0515 4.25141 29.1374 7.83655L29.333 8.09729H29.6589L29.8381 8.08092C30.4853 8.02162 31.0825 7.96692 31.6796 7.96692C32.527 7.96692 33.3092 8.0321 34.0262 8.16247C38.4588 8.74913 41.7832 12.4646 41.7832 16.9624C41.7832 19.309 40.8706 21.5253 39.1758 23.2201C39.0454 23.4156 38.8499 23.6112 38.6543 23.7415C38.0677 24.1978 37.4158 24.5237 36.5684 24.8497C35.4603 25.2408 34.287 25.4363 32.9833 25.4363H9.77765C5.80141 25.4363 2.47701 22.2423 2.41182 18.3312C2.41182 18.0705 2.41182 17.7446 2.47701 17.4187C2.60737 15.8542 3.51996 14.2898 4.88883 13.2469ZM23.1405 20.9393C23.1405 21.9822 24.053 22.5689 24.9656 22.5689H25.6826C25.8782 22.5689 26.0086 22.4385 26.0086 22.3082C26.0086 22.1778 25.9434 22.0474 25.813 21.9822C25.5523 21.8519 24.9656 21.5259 24.9656 20.7437V17.8104C24.9004 17.289 24.7701 16.963 24.5093 16.7675C24.7701 16.5719 24.9004 16.246 24.9656 15.7245V12.8564C24.9656 12.0742 25.4871 11.7483 25.813 11.6831C25.9434 11.6179 26.0086 11.4876 26.0086 11.3572C26.0086 11.2268 25.8782 11.0964 25.6826 11.0964H24.9004C24.053 11.0964 23.0753 11.6831 23.0753 12.7261V15.6594C23.0753 16.0505 22.3582 16.5068 22.0323 16.5719C21.8368 16.5719 21.7716 16.7023 21.7716 16.8327C21.7716 16.963 21.902 17.0934 22.0323 17.0934C22.3582 17.1586 23.1405 17.6149 23.1405 18.006V20.9393ZM19.1638 20.0262C19.1638 21.0691 20.0764 21.6558 20.9889 21.6558V21.721H21.706C21.9015 21.721 22.0319 21.5906 22.0319 21.4602C22.0319 21.3299 21.9667 21.1995 21.8363 21.1343C21.5756 21.0039 20.9889 20.678 20.9889 19.8958V17.9403C20.9238 17.4188 20.7934 17.0929 20.5327 16.8973C20.7934 16.7018 20.9238 16.3759 20.9889 15.8544V13.8989C20.9889 13.1166 21.5104 12.7907 21.8363 12.7255C21.9667 12.6603 22.0319 12.53 22.0319 12.3996C22.0319 12.2692 21.9015 12.1389 21.706 12.1389H20.9238C20.0764 12.1389 19.0986 12.7255 19.0986 13.7685V15.724C19.0986 16.1151 18.3816 16.5714 18.0557 16.6366C17.8601 16.6366 17.7949 16.767 17.7949 16.8973C17.7949 17.0277 17.9253 17.1581 18.0557 17.1581C18.3816 17.2233 19.1638 17.6795 19.1638 18.0707V20.0262ZM28.9414 22.1125C28.0288 22.1125 27.1162 21.5259 27.1162 20.4829V18.0711C27.1162 17.68 26.334 17.2237 26.0081 17.1585C25.8777 17.1585 25.7474 17.0282 25.7474 16.8978C25.7474 16.7674 25.8126 16.637 26.0081 16.637C26.334 16.5719 27.1162 16.1156 27.1162 15.7245V13.3126C27.1162 12.2697 28.094 11.683 28.9414 11.683H29.7236C29.854 11.683 30.0495 11.8134 30.0495 11.9438C30.0495 12.0741 29.9844 12.2045 29.854 12.2697C29.5933 12.3349 29.0066 12.5956 29.0718 13.443V15.8548C29.0066 16.3763 28.8762 16.7022 28.6155 16.8978C28.8762 17.0933 29.0066 17.4193 29.0718 17.9407V20.3526C29.0718 21.096 29.5734 21.3878 29.8286 21.5363L29.8287 21.5363L29.8289 21.5365C29.8645 21.5572 29.8952 21.5751 29.9192 21.5911C30.0495 21.6562 30.1147 21.7866 30.1147 21.917C30.1147 22.0473 29.9844 22.1777 29.7888 22.1777H28.9414V22.1125ZM30.7012 18.5923C30.7664 20.0263 31.4182 20.2219 32.1352 20.2219V20.2871H32.7219C32.8523 20.2871 32.9826 20.1567 32.9826 20.0263C32.9826 19.896 32.9826 19.7656 32.8523 19.7004C32.6567 19.5701 32.2004 19.2441 32.2004 18.4619V17.9404C32.2004 17.419 32.0701 17.093 31.8745 16.8975C32.0049 16.7019 32.1353 16.376 32.2004 15.8545V15.3331C32.2004 14.4857 32.7219 14.2249 32.8523 14.1597C32.9826 14.0946 33.0478 13.9642 33.0478 13.8338C33.0478 13.7035 32.9175 13.5731 32.7871 13.5731H32.1352C31.4182 13.5731 30.7012 13.5731 30.7012 15.2027V15.7242C30.7012 16.1153 30.1145 16.5716 29.8538 16.6368C29.7234 16.6368 29.6582 16.7671 29.6582 16.8975C29.6582 17.0279 29.7234 17.1582 29.8538 17.1582C30.1145 17.2234 30.7012 17.6797 30.7012 18.0708V18.5923ZM35.7856 21.1345C35.0034 21.1345 34.156 20.5478 34.156 19.5049V18.0708C34.156 17.6797 33.5042 17.2234 33.2434 17.1582C33.1131 17.1582 33.0479 17.0279 33.0479 16.8975C33.0479 16.7671 33.1131 16.6368 33.2434 16.6368C33.5042 16.5716 34.156 16.1153 34.156 15.7242V14.2901C34.156 13.2472 35.0034 12.6605 35.7856 12.6605H36.5027C36.633 12.6605 36.7634 12.7909 36.7634 12.9213C36.7634 13.0516 36.6982 13.182 36.5678 13.2472C36.3071 13.3124 35.7856 13.6383 35.8508 14.4205V15.8546C35.7856 16.376 35.6553 16.702 35.4597 16.8975C35.6553 17.0931 35.7856 17.419 35.8508 17.9405V19.3745C35.8508 20.1567 36.4375 20.4827 36.5678 20.5478C36.6982 20.613 36.7634 20.7434 36.7634 20.8738C36.7634 21.0041 36.633 21.1345 36.5027 21.1345H35.7856ZM71.7473 12.9216L67.054 23.7422C66.9237 24.003 66.6629 24.1985 66.4022 24.1985C66.1414 24.1985 65.8807 24.0681 65.7503 23.8074L62.1 16.0505C62.1 15.9853 61.9697 15.9853 61.9697 16.0505L58.3193 23.8074C58.189 24.0681 57.9282 24.1985 57.6675 24.1985C57.4067 24.1985 57.146 24.003 57.0156 23.7422L52.3224 12.9216C52.0616 12.0742 52.6483 11.0965 53.5609 11.0965C54.0823 11.0965 54.5386 11.4224 54.7342 11.8787L57.7327 19.3097C57.7327 19.3749 57.863 19.3749 57.863 19.3097L61.383 11.4876C61.5134 11.2268 61.7741 11.0965 62.0348 11.0965C62.2956 11.0965 62.5563 11.2268 62.6867 11.4876L66.2718 19.2445C66.2718 19.3097 66.4022 19.3097 66.4022 19.2445L69.3355 11.8787C69.531 11.3572 69.9873 11.0965 70.5088 11.0965C71.4866 11.0965 72.1384 12.0742 71.7473 12.9216ZM80.0483 21.7869C77.9624 21.7869 76.3328 20.5483 76.0069 18.5276H84.6112C85.0023 18.5276 85.3283 18.2669 85.3934 17.8758C85.4586 17.4847 85.4586 17.1588 85.4586 16.8328C85.4586 13.5736 83.0468 11.0966 79.7224 11.0966C76.2025 11.0314 73.204 14.0299 73.2692 17.6151C73.2692 21.3306 76.2025 24.1335 79.9831 24.1335C81.5476 24.1335 82.8513 23.6772 84.0898 22.8298C84.5461 22.5039 84.7416 21.7869 84.3505 21.2654C83.9594 20.7439 83.3075 20.6135 82.7861 20.9395C81.9387 21.5261 81.0261 21.7869 80.0483 21.7869ZM79.6572 13.3781C81.4172 13.3781 82.8513 14.5514 82.8513 16.4417H76.0721C76.4632 14.5514 77.8972 13.3781 79.6572 13.3781ZM168.963 18.5276C169.289 20.5483 170.918 21.7869 173.004 21.7869C173.982 21.7869 174.895 21.5261 175.742 20.9395C176.263 20.6135 176.915 20.7439 177.306 21.2654C177.698 21.7869 177.502 22.5039 177.046 22.8298C175.807 23.6772 174.503 24.1335 172.939 24.1335C169.158 24.1335 166.225 21.3306 166.225 17.6151C166.16 14.0299 169.158 11.0314 172.678 11.0966C176.003 11.0966 178.415 13.5736 178.415 16.8328V16.8331C178.415 17.1589 178.415 17.4848 178.349 17.8758C178.284 18.2669 177.958 18.5276 177.567 18.5276H168.963ZM175.742 16.4417C175.742 14.5514 174.308 13.3781 172.548 13.3781C170.788 13.3781 169.354 14.5514 168.963 16.4417H175.742ZM90.76 22.1127C91.6726 23.4164 93.3022 24.1334 95.1273 24.1334C98.6473 24.1334 101.255 21.3305 101.189 17.6149C101.189 13.8994 98.5821 11.0965 95.0622 11.0965C93.3022 11.0965 91.8029 11.7483 90.8904 12.9217V6.14249C90.8904 5.42547 90.3037 4.83881 89.5867 4.83881C88.8696 4.83881 88.283 5.42547 88.283 6.14249V22.8949C88.283 23.5467 88.8045 24.1334 89.5215 24.1334C90.1733 24.1334 90.76 23.6119 90.76 22.8949V22.1127ZM90.8904 17.6801C90.8904 14.9424 92.7155 13.5735 94.6711 13.5735C96.8221 13.5735 98.5169 15.2031 98.4518 17.6149C98.4518 20.0268 96.8221 21.7216 94.6711 21.7216C92.7155 21.7216 90.8904 20.4179 90.8904 17.6801ZM113.597 24.1334C112.88 24.1334 112.294 23.5467 112.294 22.8297V16.4416C112.294 14.7468 111.251 13.5735 109.556 13.5735C107.926 13.5735 106.688 14.7468 106.688 16.4416V22.8297C106.688 23.5467 106.101 24.1334 105.384 24.1334C104.667 24.1334 104.081 23.5467 104.081 22.8297V6.14249C104.081 5.42547 104.667 4.83881 105.384 4.83881C106.101 4.83881 106.688 5.42547 106.688 6.14249V12.6609C107.535 11.6832 108.774 11.1617 110.273 11.1617C113.141 11.1617 114.901 13.1824 114.901 16.1157V22.8949C114.901 23.5467 114.315 24.1334 113.597 24.1334ZM149.623 6.14249C149.623 5.42547 149.036 4.83881 148.319 4.83881C147.537 4.83881 146.951 5.42547 147.016 6.14249V22.8297C147.016 23.5467 147.602 24.1334 148.319 24.1334C149.036 24.1334 149.623 23.5467 149.623 22.8297V6.14249ZM154.968 23.6119C155.164 23.9378 155.555 24.1334 155.946 24.1334C156.989 24.1334 157.576 22.9601 156.989 22.0475L152.882 16.8327L156.272 13.1172C156.989 12.335 156.402 11.0965 155.359 11.0965C155.033 11.0965 154.708 11.2269 154.447 11.4876L149.688 16.8327L154.968 23.6119ZM161.575 4.96912C162.552 4.96912 163.4 5.75133 163.4 6.72909C163.4 7.70686 162.618 8.48907 161.575 8.48907C160.532 8.48907 159.75 7.70686 159.75 6.72909C159.75 5.75133 160.532 4.96912 161.575 4.96912ZM161.575 11.0964C162.292 11.0964 162.878 11.6831 162.878 12.4001V22.7645C162.878 23.4815 162.292 24.0681 161.575 24.0681C160.858 24.0681 160.271 23.4815 160.271 22.7645V12.4001C160.206 11.6831 160.792 11.0964 161.575 11.0964ZM120.659 23.0906C121.702 23.7425 122.941 24.1336 124.179 24.1336C126.2 24.1336 128.09 23.221 129.524 21.6566C129.554 21.6269 130.513 20.3983 131.581 19.0301C132.863 17.3889 134.301 15.547 134.478 15.3337C135.326 14.3559 136.434 13.7692 137.607 13.7692C139.302 13.7692 140.867 14.9426 141.323 16.6374C141.388 16.9633 141.453 17.3544 141.453 17.6803C141.453 18.2018 141.323 18.7884 141.062 19.3099C141.029 19.3425 141.013 19.3751 140.997 19.4077C140.981 19.4403 140.964 19.4729 140.932 19.5055C140.28 20.744 138.976 21.5262 137.542 21.5262H137.412C136.695 21.5262 136.173 21.2654 135.587 20.9395C135.391 20.8092 135.13 20.6788 135.13 20.6788C135.103 20.6788 135.054 20.6676 134.996 20.6545C134.914 20.636 134.816 20.6136 134.739 20.6136C134.152 20.6136 133.696 20.9395 133.501 21.3958C133.305 22.0477 133.501 22.6995 134.087 23.0906C134.12 23.1232 134.152 23.1395 134.185 23.1558C134.218 23.1721 134.25 23.1884 134.283 23.221C135.261 23.8728 136.434 24.1987 137.672 24.1987C137.803 24.1987 137.933 24.1824 138.064 24.1662C138.194 24.1499 138.324 24.1336 138.455 24.1336C138.52 24.0684 138.65 24.0684 138.715 24.0684C138.781 24.0032 138.911 24.0032 138.976 24.0032C139.041 24.0032 139.09 23.9869 139.139 23.9706C139.188 23.9543 139.237 23.938 139.302 23.938C140.606 23.6121 141.844 22.8299 142.692 21.7869L142.887 21.5914C142.92 21.5588 142.936 21.5262 142.952 21.4936C142.969 21.461 142.985 21.4284 143.018 21.3958C143.018 21.2654 143.083 21.2003 143.148 21.1351C143.669 20.2225 143.995 19.2447 144.126 18.2018V17.8759V17.6151C144.126 17.4848 144.109 17.3707 144.093 17.2566C144.077 17.1425 144.061 17.0285 144.061 16.8981C143.995 16.8329 143.995 16.7025 143.995 16.6374L143.8 15.8551C143.767 15.79 143.751 15.7411 143.735 15.6922C143.718 15.6433 143.702 15.5944 143.669 15.5292C143.604 15.2685 143.539 15.0078 143.409 14.8122C143.376 14.7796 143.36 14.747 143.344 14.7144C143.327 14.6818 143.311 14.6492 143.278 14.6166C143.246 14.5841 143.229 14.5515 143.213 14.5189C143.197 14.4863 143.181 14.4537 143.148 14.4211C142.04 12.4004 139.889 11.1619 137.542 11.1619C135.978 11.1619 134.739 11.6182 133.435 12.6611C132.784 13.1826 132.262 13.7692 131.806 14.4211L130.567 16.1159L130.241 15.2033C129.133 12.5959 126.591 10.9663 123.788 11.1619C120.268 11.3574 117.53 14.3559 117.661 17.8759C117.661 18.5929 117.791 19.2447 118.052 19.8966V19.9618C118.378 20.8092 118.899 21.5914 119.551 22.2432C119.682 22.3084 119.747 22.3736 119.812 22.4388L120.007 22.6343C120.007 22.6343 120.007 22.6995 120.073 22.6995C120.105 22.7321 120.138 22.7484 120.17 22.7647C120.203 22.781 120.236 22.7973 120.268 22.8299C120.301 22.8625 120.333 22.8788 120.366 22.8951C120.399 22.9114 120.431 22.9277 120.464 22.9602C120.496 22.9928 120.529 23.0091 120.562 23.0254C120.594 23.0417 120.627 23.058 120.659 23.0906ZM120.333 17.6803C120.333 15.5292 122.028 13.7692 124.179 13.7692C126.33 13.7692 128.09 15.464 128.09 17.6803C128.09 19.8314 126.33 21.5914 124.179 21.5914C122.093 21.5914 120.333 19.8314 120.333 17.6803Z" fill="white"/>
</svg>
