<svg width="54" height="35" viewBox="0 0 54 35" fill="none" xmlns="http://www.w3.org/2000/svg">
<path d="M25.6078 26.4031C24.4944 26.4031 23.381 25.6874 23.381 24.4149V22.0291C23.381 21.5519 22.4267 20.9952 22.0291 20.9157C21.87 20.9157 21.7109 20.7566 21.7109 20.5976C21.7109 20.4385 21.7905 20.2795 22.0291 20.2795C22.4267 20.1999 23.3015 19.6432 23.3015 19.1661V16.7802C23.3015 15.5077 24.4944 14.792 25.5283 14.792H26.4826C26.7212 14.792 26.8803 14.951 26.8803 15.1101C26.8803 15.2692 26.8008 15.4282 26.6417 15.5077C26.2441 15.5873 25.6078 15.9849 25.6078 16.9393V19.3251C25.5283 19.9613 25.3692 20.359 25.0511 20.5976C25.3692 20.8362 25.5283 21.2338 25.6078 21.87V24.2559C25.6078 25.2102 26.3236 25.6079 26.6417 25.7669C26.8008 25.8464 26.8803 26.0055 26.8803 26.1646C26.8803 26.3236 26.7212 26.4827 26.4826 26.4827H25.6078V26.4031Z" fill="url(#paint0_linear_1508_1603)"/>
<path d="M30.4594 27.5165C29.346 27.5165 28.2326 26.8008 28.2326 25.5283V21.9495C28.2326 21.4724 27.2783 20.9157 26.8806 20.8361C26.7216 20.8361 26.5625 20.6771 26.5625 20.518C26.5625 20.359 26.642 20.1999 26.8806 20.1999C27.2783 20.1204 28.1531 19.5637 28.1531 19.0865V15.5077C28.1531 14.2353 29.346 13.5195 30.3799 13.5195H31.3342C31.5728 13.5195 31.7318 13.6786 31.7318 13.8376C31.7318 13.9967 31.6523 14.1558 31.4933 14.2353C31.0956 14.3148 30.4594 14.7125 30.4594 15.6668V19.166C30.3799 19.8023 30.2208 20.1999 29.9027 20.4385C30.2208 20.6771 30.3799 21.0747 30.4594 21.711V25.2897C30.4594 26.2441 31.1751 26.6417 31.4933 26.8008C31.6523 26.8803 31.7318 27.0394 31.7318 27.1984C31.7318 27.3575 31.5728 27.5165 31.3342 27.5165H30.4594Z" fill="url(#paint1_linear_1508_1603)"/>
<path d="M35.311 26.9599C34.1976 26.9599 33.0842 26.2441 33.0842 24.9717V22.0291C33.0842 21.552 32.1298 20.9953 31.7322 20.9157C31.5731 20.9157 31.4141 20.7567 31.4141 20.5976C31.4141 20.4386 31.4936 20.2795 31.7322 20.2795C32.1298 20.2 33.0842 19.6433 33.0842 19.1661V16.2236C33.0842 14.9511 34.2771 14.2354 35.311 14.2354H36.2653C36.4243 14.2354 36.6629 14.3944 36.6629 14.5535C36.6629 14.7125 36.5834 14.8716 36.4244 14.9511C36.1062 15.0306 35.3905 15.3487 35.47 16.3826V19.3252C35.3905 19.9614 35.2314 20.359 34.9133 20.5976C35.2314 20.8362 35.3905 21.2339 35.47 21.8701V24.8126C35.47 25.8465 36.2653 26.1646 36.5039 26.3237C36.6629 26.4032 36.7425 26.5623 36.7425 26.7213C36.7425 26.8804 36.5834 27.0394 36.3448 27.0394H35.311V26.9599Z" fill="url(#paint2_linear_1508_1603)"/>
<path d="M39.2066 24.6534C38.3318 24.6534 37.5366 24.4148 37.457 22.6652V22.029C37.457 21.5518 36.7413 20.9951 36.4232 20.9156C36.2641 20.9156 36.1846 20.7565 36.1846 20.5975C36.1846 20.4384 36.2641 20.2793 36.4232 20.2793C36.7413 20.1998 37.457 19.6431 37.457 19.1659V18.5297C37.457 16.5415 38.3318 16.5415 39.2066 16.5415H40.0019C40.161 16.5415 40.32 16.7006 40.32 16.8596C40.32 17.0187 40.2405 17.1777 40.0815 17.2573C39.9224 17.3368 39.2862 17.6549 39.2862 18.6888V19.325C39.2067 19.9612 39.0476 20.3589 38.8885 20.5975C39.1271 20.836 39.2862 21.2337 39.2862 21.8699V22.5061C39.2862 23.4605 39.8429 23.8581 40.0815 24.0172C40.2405 24.0967 40.2405 24.2558 40.2405 24.4148C40.2405 24.5739 40.0815 24.7329 39.9224 24.7329H39.2066V24.6534Z" fill="url(#paint3_linear_1508_1603)"/>
<path d="M43.6615 25.7669C42.7071 25.7669 41.6733 25.0512 41.6733 23.7787V22.0291C41.6733 21.5519 40.878 20.9952 40.5599 20.9157C40.4008 20.9157 40.3213 20.7566 40.3213 20.5976C40.3213 20.4385 40.4008 20.2795 40.5599 20.2795C40.878 20.1999 41.6733 19.6432 41.6733 19.1661V17.4164C41.6733 16.144 42.7071 15.4282 43.6615 15.4282H44.5363C44.6954 15.4282 44.8544 15.5873 44.8544 15.7463C44.8544 15.9054 44.7749 16.0644 44.6158 16.144C44.2977 16.2235 43.6615 16.6211 43.741 17.5755V19.3251C43.6615 19.9613 43.5024 20.359 43.2638 20.5976C43.5024 20.8362 43.6615 21.2338 43.741 21.87V23.6196C43.741 24.574 44.4568 24.9716 44.6158 25.0512C44.7749 25.1307 44.8544 25.2897 44.8544 25.4488C44.8544 25.6079 44.6954 25.7669 44.5363 25.7669H43.6615Z" fill="url(#paint4_linear_1508_1603)"/>
<path d="M12.0088 34.0379C8.90718 34.0379 5.8851 32.845 3.65831 30.6978C1.35198 28.5505 0.0795284 25.6079 0 22.5063C0 22.0292 0 21.4725 0.0795284 20.9953C0.397642 18.2913 1.90868 15.6669 4.13548 13.9173C5.08982 13.2015 6.20322 12.8039 7.31661 12.8039C8.19143 12.8039 9.14577 13.0424 9.94105 13.5196C10.2592 10.9747 10.9749 8.82744 12.0883 7.07781C14.7128 2.8628 18.6892 0.636008 24.0176 0.158838C24.3357 0.158838 24.5743 0.158838 24.8924 0.158838C29.9027 -0.000219256 34.2767 2.38563 37.3784 6.83923C37.5374 6.83923 37.6169 6.83923 37.776 6.83923H38.7303C39.8437 6.83923 40.9571 6.91875 41.991 7.07781C48.8305 7.95262 53.9998 13.7582 53.9998 20.6772C53.9998 24.3355 52.5683 27.8347 49.9438 30.4592C49.7053 30.6978 49.3871 30.9363 49.069 31.2545C48.1147 31.9702 47.0808 32.6064 45.8084 33.0836C44.1383 33.7198 42.3091 34.0379 40.4004 34.0379H12.0088ZM7.31661 15.6669C6.83944 15.6669 6.36227 15.8259 5.96463 16.1441C4.29453 17.4165 3.18114 19.3252 3.02208 21.2339C2.94255 21.6315 2.94255 22.0292 2.94255 22.3473C3.02208 27.119 7.07803 31.0159 11.9293 31.0159H40.2414C41.8319 31.0159 43.2635 30.7773 44.6154 30.3001C45.6493 29.9025 46.4446 29.5048 47.1604 28.9481C47.3989 28.7891 47.6375 28.5505 47.7966 28.3119C49.8643 26.2442 50.9777 23.5402 50.9777 20.6772C50.9777 15.1897 46.9218 10.6566 41.5138 9.94083C40.639 9.78178 39.6847 9.70225 38.6508 9.70225C37.8555 9.70225 37.0602 9.78178 36.1854 9.86131H35.7878L35.5492 9.54319C33.0043 5.16913 29.4255 2.94233 24.8924 2.94233C24.6538 2.94233 24.4948 2.94233 24.2562 2.94233C19.8026 3.33997 16.7805 5.0896 14.5537 8.50932C13.2017 10.6566 12.5655 13.3606 12.5655 16.9393C12.5655 17.6551 12.486 19.0866 12.486 20.6772C12.486 20.9953 12.8041 22.4268 14.3151 22.4268C15.2695 22.4268 15.9852 21.6315 15.9852 20.6772C15.9852 20.3591 16.0647 19.9614 16.3033 19.7228L17.6553 17.7346C17.8144 17.5756 17.9734 17.496 18.1325 17.496C18.4506 17.496 18.7687 17.8141 18.7687 18.1323V20.6772C18.7687 21.9496 18.2915 23.1426 17.4167 24.0969C16.5419 24.9717 15.508 25.4489 14.2356 25.4489H14.0765C11.6111 25.3693 9.62294 23.3811 9.54341 20.9953V18.0527C9.70247 16.5417 8.43001 15.6669 7.31661 15.6669Z" fill="url(#paint5_linear_1508_1603)"/>
<defs>
<linearGradient id="paint0_linear_1508_1603" x1="24.1392" y1="17.6553" x2="17.4166" y2="21.0663" gradientUnits="userSpaceOnUse">
<stop stop-color="#0061F1"/>
<stop offset="1" stop-color="#0061F1"/>
</linearGradient>
<linearGradient id="paint1_linear_1508_1603" x1="28.9908" y1="16.9478" x2="21.8245" y2="19.9847" gradientUnits="userSpaceOnUse">
<stop stop-color="#0061F1"/>
<stop offset="1" stop-color="#0061F1"/>
</linearGradient>
<linearGradient id="paint2_linear_1508_1603" x1="33.917" y1="17.3714" x2="26.8216" y2="20.7596" gradientUnits="userSpaceOnUse">
<stop stop-color="#0061F1"/>
<stop offset="1" stop-color="#0061F1"/>
</linearGradient>
<linearGradient id="paint3_linear_1508_1603" x1="38.1272" y1="18.5478" x2="33.0638" y2="21.4811" gradientUnits="userSpaceOnUse">
<stop stop-color="#0061F1"/>
<stop offset="1" stop-color="#0061F1"/>
</linearGradient>
<linearGradient id="paint4_linear_1508_1603" x1="42.4507" y1="17.9604" x2="36.5352" y2="20.9367" gradientUnits="userSpaceOnUse">
<stop stop-color="#0061F1"/>
<stop offset="1" stop-color="#0061F1"/>
</linearGradient>
<linearGradient id="paint5_linear_1508_1603" x1="25.3659" y1="8.45105" x2="5.03652" y2="45.6248" gradientUnits="userSpaceOnUse">
<stop stop-color="#0061F1"/>
<stop offset="1" stop-color="#0061F1"/>
</linearGradient>
</defs>
</svg>
