<svg width="582" height="281" viewBox="0 0 582 281" fill="none" xmlns="http://www.w3.org/2000/svg">
<g opacity="0.9">
<path d="M56.8945 200.683V148.249L98.262 148.028V200.683H56.8945Z" fill="url(#paint0_linear_537_5126)"/>
<path d="M56.9536 200.683L38.416 136.294C68.7462 143.565 85.605 143.519 115.48 136.294L98.3602 200.683H56.9536Z" fill="url(#paint1_linear_537_5126)"/>
<mask id="path-3-inside-1_537_5126" fill="white">
<path fill-rule="evenodd" clip-rule="evenodd" d="M43.9812 227.377C43.9574 227.377 43.9336 227.377 43.9097 227.377C36.8187 227.377 31.0703 221.629 31.0703 214.538C31.0703 207.447 36.8187 201.698 43.9097 201.698C44.0191 201.698 44.1282 201.7 44.237 201.702C44.1471 200.89 44.101 200.065 44.101 199.229C44.101 186.949 54.0557 176.995 66.3356 176.995C76.0055 176.995 84.2337 183.168 87.2944 191.788C89.5927 190.232 92.365 189.323 95.3495 189.323C103.295 189.323 109.736 195.764 109.736 203.709C109.736 204.783 109.618 205.83 109.395 206.836C109.859 206.773 110.332 206.74 110.813 206.74C116.512 206.74 121.132 211.36 121.132 217.058C121.132 222.757 116.512 227.377 110.813 227.377C110.787 227.377 110.762 227.377 110.736 227.377H43.9812Z"/>
</mask>
<path fill-rule="evenodd" clip-rule="evenodd" d="M43.9812 227.377C43.9574 227.377 43.9336 227.377 43.9097 227.377C36.8187 227.377 31.0703 221.629 31.0703 214.538C31.0703 207.447 36.8187 201.698 43.9097 201.698C44.0191 201.698 44.1282 201.7 44.237 201.702C44.1471 200.89 44.101 200.065 44.101 199.229C44.101 186.949 54.0557 176.995 66.3356 176.995C76.0055 176.995 84.2337 183.168 87.2944 191.788C89.5927 190.232 92.365 189.323 95.3495 189.323C103.295 189.323 109.736 195.764 109.736 203.709C109.736 204.783 109.618 205.83 109.395 206.836C109.859 206.773 110.332 206.74 110.813 206.74C116.512 206.74 121.132 211.36 121.132 217.058C121.132 222.757 116.512 227.377 110.813 227.377C110.787 227.377 110.762 227.377 110.736 227.377H43.9812Z" fill="url(#paint2_radial_537_5126)"/>
<path d="M43.9812 227.377V201.133H43.9097L43.8381 201.134L43.9812 227.377ZM44.237 201.702L43.5808 227.938L73.6274 228.689L70.3214 198.816L44.237 201.702ZM87.2944 191.788L62.5634 200.569L73.9145 232.538L102.007 213.52L87.2944 191.788ZM109.395 206.836L83.7731 201.157L75.6138 237.97L112.969 232.836L109.395 206.836ZM110.736 227.377L110.927 201.134L110.832 201.133H110.736V227.377ZM43.8381 201.134C43.8621 201.133 43.8859 201.133 43.9097 201.133V253.621C43.9812 253.621 44.0527 253.621 44.1242 253.62L43.8381 201.134ZM43.9097 201.133C51.3127 201.133 57.314 207.135 57.314 214.538H4.8266C4.8266 236.123 22.3247 253.621 43.9097 253.621V201.133ZM57.314 214.538C57.314 221.941 51.3127 227.942 43.9097 227.942V175.455C22.3247 175.455 4.8266 192.953 4.8266 214.538H57.314ZM43.9097 227.942C43.7998 227.942 43.6902 227.941 43.5808 227.938L44.8931 175.467C44.5663 175.459 44.2385 175.455 43.9097 175.455V227.942ZM70.3214 198.816C70.3375 198.96 70.3447 199.099 70.3447 199.229H17.8573C17.8573 201.031 17.9568 202.82 18.1525 204.589L70.3214 198.816ZM70.3447 199.229C70.3447 201.443 68.5497 203.238 66.3356 203.238V150.751C39.5617 150.751 17.8573 172.455 17.8573 199.229H70.3447ZM66.3356 203.238C64.551 203.238 63.1025 202.087 62.5634 200.569L112.025 183.007C105.365 164.248 87.4601 150.751 66.3356 150.751V203.238ZM102.007 213.52C100.099 214.811 97.7729 215.567 95.3495 215.567V163.079C86.9571 163.079 79.0864 165.652 72.5819 170.056L102.007 213.52ZM95.3495 215.567C88.8008 215.567 83.4921 210.258 83.4921 203.709H135.979C135.979 181.27 117.789 163.079 95.3495 163.079V215.567ZM83.4921 203.709C83.4921 202.861 83.5856 202.003 83.7731 201.157L135.017 212.515C135.651 209.656 135.979 206.706 135.979 203.709H83.4921ZM112.969 232.836C112.252 232.934 111.531 232.983 110.813 232.983V180.496C109.133 180.496 107.466 180.611 105.821 180.837L112.969 232.836ZM110.813 232.983C102.018 232.983 94.8883 225.854 94.8883 217.058H147.376C147.376 196.866 131.006 180.496 110.813 180.496V232.983ZM94.8883 217.058C94.8883 208.263 102.018 201.134 110.813 201.134V253.621C131.006 253.621 147.376 237.251 147.376 217.058H94.8883ZM110.813 201.134C110.852 201.134 110.89 201.134 110.927 201.134L110.545 253.62C110.633 253.621 110.723 253.621 110.813 253.621V201.134ZM110.736 201.133H43.9812V253.621H110.736V201.133Z" fill="url(#paint3_linear_537_5126)" mask="url(#path-3-inside-1_537_5126)"/>
<path d="M24.0411 137.81C19.3562 135.758 16.1811 133.181 14.4917 130.314C12.8213 127.48 12.5509 124.275 13.8345 120.797C15.1305 117.285 17.9658 113.627 22.1929 110.048C26.4123 106.475 31.9721 103.02 38.6387 99.9023C51.9741 93.6654 68.5615 89.3277 84.7383 87.857C100.934 86.3846 115.282 87.9161 124.661 92.025" stroke="url(#paint4_linear_537_5126)" stroke-width="1.74958"/>
<g filter="url(#filter0_d_537_5126)">
<path d="M76.9162 80.0596L112.003 100.317V140.832L76.9162 161.089L41.8293 140.832V100.317L76.9162 80.0596Z" fill="#0061F1"/>
</g>
<g filter="url(#filter1_d_537_5126)">
<path d="M123.106 80.459L128.165 77.538V71.6961L123.106 68.7751L118.046 71.6961V77.538L123.106 80.459Z" fill="#0061F1" fill-opacity="0.5" shape-rendering="crispEdges"/>
</g>
<g filter="url(#filter2_d_537_5126)">
<path d="M130.589 170.791L129.344 166.144L124.697 164.899L121.296 168.301L122.541 172.947L127.187 174.192L130.589 170.791Z" fill="#0061F1" fill-opacity="0.3" shape-rendering="crispEdges"/>
</g>
<g filter="url(#filter3_d_537_5126)">
<path d="M28.641 171.268L35.2356 167.46V159.846L28.641 156.038L22.0465 159.846V167.46L28.641 171.268Z" fill="#0061F1" fill-opacity="0.2" shape-rendering="crispEdges"/>
</g>
<g filter="url(#filter4_d_537_5126)">
<path d="M43.8706 68.835L48.7119 71.6301V77.2204L43.8706 80.0156L39.0292 77.2204V71.6301L43.8706 68.835Z" fill="#0061F1" fill-opacity="0.2" shape-rendering="crispEdges"/>
</g>
<path d="M75.3457 127.287C74.4283 127.287 73.5109 126.697 73.5109 125.649V123.683C73.5109 123.29 72.7245 122.831 72.3969 122.766C72.2658 122.766 72.1348 122.634 72.1348 122.503C72.1348 122.372 72.2003 122.241 72.3969 122.241C72.7245 122.176 73.4454 121.717 73.4454 121.324V119.358C73.4454 118.309 74.4283 117.72 75.2802 117.72H76.0665C76.2631 117.72 76.3942 117.851 76.3942 117.982C76.3942 118.113 76.3287 118.244 76.1976 118.309C75.87 118.375 75.3457 118.703 75.3457 119.489V121.455C75.2802 121.979 75.1491 122.307 74.887 122.503C75.1491 122.7 75.2802 123.028 75.3457 123.552V125.518C75.3457 126.304 75.9355 126.632 76.1976 126.763C76.3287 126.828 76.3942 126.959 76.3942 127.09C76.3942 127.222 76.2631 127.353 76.0665 127.353H75.3457V127.287Z" fill="white"/>
<path d="M79.3438 128.205C78.4264 128.205 77.5089 127.615 77.5089 126.566V123.618C77.5089 123.224 76.7226 122.766 76.3949 122.7C76.2639 122.7 76.1328 122.569 76.1328 122.438C76.1328 122.307 76.1983 122.176 76.3949 122.176C76.7226 122.11 77.4434 121.652 77.4434 121.258V118.31C77.4434 117.261 78.4264 116.671 79.2782 116.671H80.0646C80.2612 116.671 80.3922 116.802 80.3922 116.934C80.3922 117.065 80.3267 117.196 80.1957 117.261C79.868 117.327 79.3438 117.654 79.3438 118.441V121.324C79.2782 121.848 79.1472 122.176 78.8851 122.372C79.1472 122.569 79.2782 122.897 79.3438 123.421V126.37C79.3438 127.156 79.9335 127.484 80.1957 127.615C80.3267 127.68 80.3922 127.811 80.3922 127.942C80.3922 128.074 80.2612 128.205 80.0646 128.205H79.3438Z" fill="white"/>
<path d="M83.3404 127.746C82.4229 127.746 81.5055 127.156 81.5055 126.108V123.683C81.5055 123.29 80.7192 122.831 80.3915 122.766C80.2605 122.766 80.1294 122.635 80.1294 122.504C80.1294 122.373 80.1949 122.241 80.3915 122.241C80.7192 122.176 81.5055 121.717 81.5055 121.324V118.899C81.5055 117.851 82.4885 117.261 83.3404 117.261H84.1267C84.2578 117.261 84.4544 117.392 84.4544 117.523C84.4544 117.654 84.3888 117.785 84.2578 117.851C83.9956 117.917 83.4059 118.179 83.4714 119.031V121.455C83.4059 121.979 83.2748 122.307 83.0127 122.504C83.2748 122.7 83.4059 123.028 83.4714 123.552V125.977C83.4714 126.829 84.1267 127.091 84.3233 127.222C84.4544 127.287 84.5199 127.418 84.5199 127.549C84.5199 127.68 84.3888 127.812 84.1922 127.812H83.3404V127.746Z" fill="white"/>
<path d="M86.5512 125.845C85.8303 125.845 85.175 125.649 85.1095 124.207V123.683C85.1095 123.29 84.5197 122.831 84.2576 122.765C84.1266 122.765 84.061 122.634 84.061 122.503C84.061 122.372 84.1266 122.241 84.2576 122.241C84.5197 122.175 85.1095 121.717 85.1095 121.324V120.799C85.1095 119.161 85.8303 119.161 86.5512 119.161H87.2065C87.3375 119.161 87.4686 119.292 87.4686 119.423C87.4686 119.554 87.4031 119.685 87.272 119.751C87.1409 119.816 86.6167 120.079 86.6167 120.93V121.455C86.5512 121.979 86.4201 122.307 86.289 122.503C86.4856 122.7 86.6167 123.027 86.6167 123.552V124.076C86.6167 124.862 87.0754 125.19 87.272 125.321C87.4031 125.386 87.403 125.518 87.403 125.649C87.403 125.78 87.272 125.911 87.1409 125.911H86.5512V125.845Z" fill="white"/>
<path d="M90.221 126.763C89.4346 126.763 88.5828 126.173 88.5828 125.125V123.683C88.5828 123.29 87.9275 122.831 87.6653 122.766C87.5343 122.766 87.4688 122.635 87.4688 122.504C87.4688 122.373 87.5343 122.241 87.6653 122.241C87.9275 122.176 88.5828 121.717 88.5828 121.324V119.882C88.5828 118.834 89.4346 118.244 90.221 118.244H90.9418C91.0729 118.244 91.2039 118.375 91.2039 118.506C91.2039 118.637 91.1384 118.768 91.0074 118.834C90.7452 118.899 90.221 119.227 90.2865 120.013V121.455C90.221 121.979 90.0899 122.307 89.8933 122.504C90.0899 122.7 90.221 123.028 90.2865 123.552V124.994C90.2865 125.78 90.8763 126.108 91.0074 126.173C91.1384 126.239 91.2039 126.37 91.2039 126.501C91.2039 126.632 91.0729 126.763 90.9418 126.763H90.221Z" fill="white"/>
<path d="M64.1406 133.578C61.5849 133.578 59.0948 132.595 57.26 130.825C55.3596 129.056 54.3111 126.631 54.2456 124.076C54.2456 123.683 54.2456 123.224 54.3111 122.831C54.5733 120.603 55.8183 118.44 57.6531 116.999C58.4395 116.409 59.3569 116.081 60.2743 116.081C60.9952 116.081 61.7815 116.278 62.4368 116.671C62.6989 114.574 63.2887 112.805 64.2061 111.363C66.3686 107.89 69.6451 106.055 74.0356 105.662C74.2977 105.662 74.4943 105.662 74.7564 105.662C78.8848 105.531 82.4889 107.497 85.0446 111.166C85.1756 111.166 85.2411 111.166 85.3722 111.166H86.1586C87.076 111.166 87.9934 111.232 88.8453 111.363C94.4808 112.084 98.7403 116.867 98.7403 122.569C98.7403 125.583 97.5607 128.466 95.3983 130.629C95.2017 130.825 94.9395 131.022 94.6774 131.284C93.8911 131.874 93.0392 132.398 91.9907 132.791C90.6146 133.315 89.1074 133.578 87.5347 133.578H64.1406ZM60.2743 118.44C59.8812 118.44 59.488 118.571 59.1603 118.833C57.7842 119.882 56.8668 121.455 56.7357 123.027C56.6702 123.355 56.6702 123.683 56.6702 123.945C56.7357 127.876 60.0777 131.087 64.0751 131.087H87.4036C88.7142 131.087 89.8938 130.891 91.0078 130.498C91.8596 130.17 92.5149 129.842 93.1047 129.384C93.3013 129.253 93.4979 129.056 93.6289 128.859C95.3327 127.156 96.2501 124.928 96.2501 122.569C96.2501 118.047 92.9081 114.312 88.4521 113.722C87.7313 113.591 86.9449 113.525 86.093 113.525C85.4377 113.525 84.7824 113.591 84.0616 113.657H83.734L83.5374 113.394C81.4404 109.79 78.4916 107.955 74.7564 107.955C74.5598 107.955 74.4288 107.955 74.2322 107.955C70.5625 108.283 68.0724 109.725 66.2375 112.543C65.1235 114.312 64.5993 116.54 64.5993 119.489C64.5993 120.078 64.5338 121.258 64.5338 122.569C64.5338 122.831 64.7959 124.01 66.0409 124.01C66.8273 124.01 67.4171 123.355 67.4171 122.569C67.4171 122.306 67.4826 121.979 67.6792 121.782L68.7932 120.144C68.9243 120.013 69.0553 119.947 69.1864 119.947C69.4485 119.947 69.7106 120.21 69.7106 120.472V122.569C69.7106 123.617 69.3174 124.6 68.5966 125.386C67.8758 126.107 67.0239 126.5 65.9754 126.5H65.8444C63.8129 126.435 62.1747 124.797 62.1092 122.831V120.406C62.2402 119.161 61.1918 118.44 60.2743 118.44Z" fill="white"/>
<path d="M126.73 110.164C128.553 110.385 129.877 111.186 130.739 112.456C131.619 113.751 132.081 115.629 131.963 118.093C131.725 123.037 129.18 129.61 124.779 136.355C120.39 143.083 114.575 149.337 108.631 153.733C102.645 158.162 97.1911 160.219 93.4448 159.765" stroke="url(#paint5_linear_537_5126)" stroke-width="1.74958"/>
<g filter="url(#filter5_d_537_5126)">
<path d="M126.537 105.919L130.714 105.547L133.125 108.979L131.358 112.782L127.181 113.154L124.771 109.722L126.537 105.919Z" fill="#0061F1"/>
</g>
<g filter="url(#filter6_di_537_5126)">
<path d="M11.8895 124.707L17.0107 125.047L19.2767 129.652L16.4214 133.917L11.3001 133.577L9.03415 128.972L11.8895 124.707Z" stroke="#0061F1" stroke-opacity="0.5" stroke-width="0.87479" stroke-miterlimit="10" stroke-linejoin="round" shape-rendering="crispEdges"/>
</g>
<g filter="url(#filter7_di_537_5126)">
<path d="M17.8576 111.969L20.1028 114.533L19.0042 117.76L15.6605 118.422L13.4153 115.857L14.5139 112.631L17.8576 111.969Z" stroke="#0061F1" stroke-opacity="0.3" stroke-width="0.87479" stroke-miterlimit="10" stroke-linejoin="round" shape-rendering="crispEdges"/>
</g>
<g filter="url(#filter8_di_537_5126)">
<path d="M35.7303 84.7996L36.4004 87.3006L34.5696 89.1315L32.0685 88.4614L31.3984 85.9603L33.2293 84.1295L35.7303 84.7996Z" stroke="#0061F1" stroke-opacity="0.1" stroke-width="0.87479" stroke-miterlimit="10" stroke-linejoin="round" shape-rendering="crispEdges"/>
</g>
<g filter="url(#filter9_di_537_5126)">
<path d="M133.972 120.201L135.349 117.236L133.47 114.562L130.215 114.852L128.838 117.816L130.717 120.491L133.972 120.201Z" stroke="#0C4395" stroke-opacity="0.3" stroke-width="0.87479" stroke-miterlimit="10" stroke-linejoin="round" shape-rendering="crispEdges"/>
</g>
<g filter="url(#filter10_di_537_5126)">
<path d="M132.478 127.862L133.541 125.574L132.091 123.51L129.579 123.734L128.516 126.022L129.966 128.085L132.478 127.862Z" stroke="#0C4395" stroke-opacity="0.15" stroke-width="0.87479" stroke-miterlimit="10" stroke-linejoin="round" shape-rendering="crispEdges"/>
</g>
<g filter="url(#filter11_d_537_5126)">
<path d="M27.7267 142.939L30.7236 138.463L28.3453 133.629L22.9701 133.272L19.9732 137.748L22.3515 142.582L27.7267 142.939Z" fill="#0061F1"/>
</g>
</g>
<path d="M252.281 237.311V151.904L319.663 151.543V237.311H252.281Z" fill="url(#paint6_linear_537_5126)"/>
<path d="M252.378 237.312L222.183 132.431C271.587 144.274 299.048 144.199 347.711 132.431L319.824 237.312H252.378Z" fill="url(#paint7_linear_537_5126)"/>
<mask id="path-27-inside-2_537_5126" fill="white">
<path fill-rule="evenodd" clip-rule="evenodd" d="M231.326 280.792C231.261 280.792 231.196 280.793 231.131 280.793C219.58 280.793 210.217 271.429 210.217 259.879C210.217 248.328 219.58 238.965 231.131 238.965C231.309 238.965 231.486 238.967 231.663 238.972C231.517 237.649 231.442 236.305 231.442 234.943C231.442 214.941 247.657 198.726 267.659 198.726C283.41 198.726 296.813 208.781 301.798 222.823C305.542 220.288 310.058 218.808 314.92 218.808C327.861 218.808 338.353 229.299 338.353 242.241C338.353 243.99 338.161 245.694 337.798 247.334C338.553 247.23 339.324 247.176 340.107 247.176C349.39 247.176 356.915 254.701 356.915 263.984C356.915 273.267 349.39 280.792 340.107 280.792C340.067 280.792 340.026 280.792 339.985 280.792H231.326Z"/>
</mask>
<path fill-rule="evenodd" clip-rule="evenodd" d="M231.326 280.792C231.261 280.792 231.196 280.793 231.131 280.793C219.58 280.793 210.217 271.429 210.217 259.879C210.217 248.328 219.58 238.965 231.131 238.965C231.309 238.965 231.486 238.967 231.663 238.972C231.517 237.649 231.442 236.305 231.442 234.943C231.442 214.941 247.657 198.726 267.659 198.726C283.41 198.726 296.813 208.781 301.798 222.823C305.542 220.288 310.058 218.808 314.92 218.808C327.861 218.808 338.353 229.299 338.353 242.241C338.353 243.99 338.161 245.694 337.798 247.334C338.553 247.23 339.324 247.176 340.107 247.176C349.39 247.176 356.915 254.701 356.915 263.984C356.915 273.267 349.39 280.792 340.107 280.792C340.067 280.792 340.026 280.792 339.985 280.792H231.326Z" fill="url(#paint8_radial_537_5126)"/>
<path d="M231.326 280.792V238.044H231.13L230.935 238.046L231.326 280.792ZM231.663 238.972L230.594 281.706L279.537 282.93L274.151 234.27L231.663 238.972ZM301.798 222.823L261.515 237.125L280.004 289.202L325.764 258.22L301.798 222.823ZM337.798 247.334L296.063 238.085L282.776 298.044L343.618 289.683L337.798 247.334ZM339.985 280.792L340.29 238.045L340.137 238.044H339.985V280.792ZM230.935 238.046C231 238.045 231.066 238.045 231.131 238.045V323.54C231.326 323.54 231.521 323.539 231.717 323.537L230.935 238.046ZM231.131 238.045C243.189 238.045 252.964 247.82 252.964 259.879H167.469C167.469 295.038 195.971 323.54 231.131 323.54V238.045ZM252.964 259.879C252.964 271.937 243.189 281.713 231.131 281.713V196.218C195.971 196.218 167.469 224.72 167.469 259.879H252.964ZM231.131 281.713C230.952 281.713 230.773 281.71 230.594 281.706L232.732 196.238C232.199 196.224 231.665 196.218 231.131 196.218V281.713ZM274.151 234.27C274.178 234.505 274.189 234.731 274.189 234.943H188.694C188.694 237.879 188.856 240.793 189.175 243.674L274.151 234.27ZM274.189 234.943C274.189 238.55 271.266 241.474 267.659 241.474V155.979C224.048 155.979 188.694 191.332 188.694 234.943H274.189ZM267.659 241.474C264.752 241.474 262.393 239.599 261.515 237.125L342.082 208.52C331.233 177.964 302.068 155.979 267.659 155.979V241.474ZM325.764 258.22C322.656 260.325 318.867 261.555 314.92 261.555V176.06C301.249 176.06 288.428 180.252 277.833 187.425L325.764 258.22ZM314.92 261.555C304.253 261.555 295.605 252.908 295.605 242.241H381.1C381.1 205.69 351.47 176.06 314.92 176.06V261.555ZM295.605 242.241C295.605 240.859 295.758 239.462 296.063 238.085L379.533 256.582C380.565 251.926 381.1 247.121 381.1 242.241H295.605ZM343.618 289.683C342.45 289.844 341.276 289.924 340.107 289.924V204.429C337.372 204.429 334.656 204.616 331.978 204.984L343.618 289.683ZM340.107 289.924C325.781 289.924 314.168 278.31 314.168 263.984H399.663C399.663 231.093 372.999 204.429 340.107 204.429V289.924ZM314.168 263.984C314.168 249.658 325.781 238.045 340.107 238.045V323.54C372.999 323.54 399.663 296.876 399.663 263.984H314.168ZM340.107 238.045C340.168 238.045 340.229 238.045 340.29 238.045L339.681 323.538C339.823 323.539 339.965 323.54 340.107 323.54V238.045ZM339.985 238.044H231.326V323.539H339.985V238.044Z" fill="url(#paint9_linear_537_5126)" mask="url(#path-27-inside-2_537_5126)"/>
<path d="M190.725 94.8896C185.353 88.5209 182.566 82.472 182.158 77.0672C181.755 71.7231 183.665 66.8449 188.042 62.6844C192.461 58.4842 199.235 55.177 207.988 52.9855C216.724 50.7981 227.334 49.7466 239.32 49.9837C263.295 50.4581 290.657 56.0467 315.358 65.5303C340.087 75.0251 359.955 87.581 370.708 100.331" stroke="url(#paint10_linear_537_5126)" stroke-width="2.84983"/>
<g filter="url(#filter12_d_537_5126)">
<path d="M284.895 40.832L342.047 73.8287V139.822L284.895 172.819L227.743 139.822V73.8287L284.895 40.832Z" fill="#0061F1"/>
</g>
<g filter="url(#filter13_d_537_5126)">
<path d="M361.314 47.2852L373.095 40.4834V26.8799L361.314 20.0781L349.533 26.8799V40.4834L361.314 47.2852Z" fill="#0061F1" fill-opacity="0.5" shape-rendering="crispEdges"/>
</g>
<g filter="url(#filter14_d_537_5126)">
<path d="M372.32 188.62L370.292 181.051L362.724 179.023L357.183 184.564L359.211 192.132L366.78 194.16L372.32 188.62Z" fill="#0061F1" fill-opacity="0.3" shape-rendering="crispEdges"/>
</g>
<g filter="url(#filter15_d_537_5126)">
<path d="M232.041 29.7441L242.783 23.5425V11.1392L232.041 4.93753L221.299 11.1392V23.5425L232.041 29.7441Z" fill="#0061F1" fill-opacity="0.2" shape-rendering="crispEdges"/>
</g>
<path d="M281.608 117.301C280.113 117.301 278.619 116.341 278.619 114.633V111.431C278.619 110.79 277.338 110.043 276.804 109.936C276.591 109.936 276.377 109.723 276.377 109.509C276.377 109.296 276.484 109.082 276.804 109.082C277.338 108.976 278.512 108.228 278.512 107.588V104.386C278.512 102.678 280.113 101.717 281.501 101.717H282.782C283.102 101.717 283.315 101.931 283.315 102.144C283.315 102.358 283.209 102.571 282.995 102.678C282.462 102.785 281.608 103.318 281.608 104.599V107.801C281.501 108.655 281.287 109.189 280.86 109.509C281.287 109.829 281.501 110.363 281.608 111.217V114.419C281.608 115.7 282.568 116.234 282.995 116.447C283.209 116.554 283.315 116.768 283.315 116.981C283.315 117.194 283.102 117.408 282.782 117.408H281.608V117.301Z" fill="white"/>
<path d="M288.119 118.796C286.625 118.796 285.131 117.836 285.131 116.128V111.325C285.131 110.684 283.85 109.937 283.316 109.83C283.103 109.83 282.889 109.617 282.889 109.403C282.889 109.19 282.996 108.976 283.316 108.976C283.85 108.87 285.024 108.122 285.024 107.482V102.679C285.024 100.971 286.625 100.01 288.013 100.01H289.294C289.614 100.01 289.827 100.224 289.827 100.437C289.827 100.651 289.72 100.864 289.507 100.971C288.973 101.078 288.119 101.611 288.119 102.892V107.589C288.013 108.443 287.799 108.976 287.372 109.297C287.799 109.617 288.013 110.15 288.119 111.004V115.808C288.119 117.089 289.08 117.622 289.507 117.836C289.72 117.942 289.827 118.156 289.827 118.369C289.827 118.583 289.614 118.796 289.294 118.796H288.119Z" fill="white"/>
<path d="M294.63 118.049C293.135 118.049 291.641 117.088 291.641 115.38V111.431C291.641 110.791 290.36 110.044 289.826 109.937C289.613 109.937 289.399 109.723 289.399 109.51C289.399 109.296 289.506 109.083 289.826 109.083C290.36 108.976 291.641 108.229 291.641 107.589V103.639C291.641 101.931 293.242 100.971 294.63 100.971H295.911C296.124 100.971 296.444 101.184 296.444 101.398C296.444 101.611 296.337 101.825 296.124 101.931C295.697 102.038 294.736 102.465 294.843 103.853V107.802C294.736 108.656 294.523 109.19 294.096 109.51C294.523 109.83 294.736 110.364 294.843 111.218V115.167C294.843 116.555 295.911 116.982 296.231 117.195C296.444 117.302 296.551 117.515 296.551 117.729C296.551 117.942 296.337 118.156 296.017 118.156H294.63V118.049Z" fill="white"/>
<path d="M299.86 114.953C298.686 114.953 297.618 114.633 297.512 112.285V111.431C297.512 110.79 296.551 110.043 296.124 109.937C295.91 109.937 295.804 109.723 295.804 109.51C295.804 109.296 295.91 109.083 296.124 109.083C296.551 108.976 297.512 108.229 297.512 107.588V106.734C297.512 104.066 298.686 104.066 299.86 104.066H300.927C301.141 104.066 301.354 104.279 301.354 104.493C301.354 104.706 301.247 104.92 301.034 105.027C300.82 105.133 299.967 105.56 299.967 106.948V107.802C299.86 108.656 299.646 109.189 299.433 109.51C299.753 109.83 299.967 110.364 299.967 111.217V112.071C299.967 113.352 300.714 113.886 301.034 114.099C301.247 114.206 301.247 114.42 301.247 114.633C301.247 114.847 301.034 115.06 300.82 115.06H299.86V114.953Z" fill="white"/>
<path d="M305.837 116.447C304.556 116.447 303.169 115.487 303.169 113.779V111.431C303.169 110.79 302.101 110.043 301.674 109.936C301.461 109.936 301.354 109.723 301.354 109.509C301.354 109.296 301.461 109.082 301.674 109.082C302.101 108.976 303.169 108.228 303.169 107.588V105.24C303.169 103.532 304.556 102.571 305.837 102.571H307.011C307.225 102.571 307.438 102.785 307.438 102.998C307.438 103.212 307.331 103.425 307.118 103.532C306.691 103.639 305.837 104.172 305.944 105.453V107.802C305.837 108.655 305.624 109.189 305.303 109.509C305.624 109.83 305.837 110.363 305.944 111.217V113.565C305.944 114.846 306.904 115.38 307.118 115.487C307.331 115.593 307.438 115.807 307.438 116.02C307.438 116.234 307.225 116.447 307.011 116.447H305.837Z" fill="white"/>
<path d="M263.356 127.548C259.193 127.548 255.137 125.947 252.148 123.065C249.053 120.183 247.345 116.233 247.238 112.071C247.238 111.43 247.238 110.683 247.345 110.043C247.772 106.413 249.8 102.891 252.789 100.543C254.07 99.5821 255.564 99.0485 257.058 99.0485C258.232 99.0485 259.513 99.3687 260.581 100.009C261.008 96.5934 261.968 93.7115 263.463 91.3632C266.985 85.7061 272.322 82.7174 279.474 82.0769C279.9 82.0769 280.221 82.0769 280.648 82.0769C287.372 81.8634 293.243 85.0656 297.406 91.043C297.619 91.043 297.726 91.043 297.939 91.043H299.22C300.715 91.043 302.209 91.1498 303.597 91.3632C312.776 92.5374 319.714 100.329 319.714 109.616C319.714 114.526 317.793 119.222 314.27 122.745C313.95 123.065 313.523 123.385 313.096 123.812C311.815 124.773 310.428 125.627 308.72 126.267C306.479 127.121 304.024 127.548 301.462 127.548H263.356ZM257.058 102.891C256.418 102.891 255.777 103.105 255.244 103.531C253.002 105.239 251.508 107.801 251.294 110.363C251.188 110.897 251.188 111.43 251.188 111.857C251.294 118.262 256.738 123.492 263.249 123.492H301.248C303.383 123.492 305.304 123.172 307.119 122.531C308.507 121.997 309.574 121.464 310.535 120.717C310.855 120.503 311.175 120.183 311.389 119.863C314.164 117.087 315.658 113.458 315.658 109.616C315.658 102.251 310.214 96.1665 302.956 95.2058C301.782 94.9924 300.501 94.8856 299.114 94.8856C298.046 94.8856 296.979 94.9924 295.805 95.0991H295.271L294.951 94.6721C291.535 88.8015 286.732 85.8128 280.648 85.8128C280.327 85.8128 280.114 85.8128 279.794 85.8128C273.816 86.3465 269.76 88.6947 266.772 93.2845C264.957 96.1665 264.103 99.7956 264.103 104.599C264.103 105.56 263.996 107.481 263.996 109.616C263.996 110.043 264.423 111.964 266.451 111.964C267.732 111.964 268.693 110.897 268.693 109.616C268.693 109.189 268.8 108.655 269.12 108.335L270.934 105.666C271.148 105.453 271.361 105.346 271.575 105.346C272.002 105.346 272.429 105.773 272.429 106.2V109.616C272.429 111.323 271.788 112.925 270.614 114.205C269.44 115.38 268.052 116.02 266.345 116.02H266.131C262.822 115.913 260.154 113.245 260.047 110.043V106.093C260.26 104.065 258.553 102.891 257.058 102.891Z" fill="white"/>
<path d="M381.27 108.357C385.831 112.463 387.991 117.289 387.907 122.562C387.823 127.885 385.447 133.846 380.56 140.137C370.772 152.739 352.031 165.207 328.324 174.684C304.648 184.148 278.132 189.785 254.638 190.361C231.056 190.94 212.798 186.368 203.553 178.045" stroke="url(#paint11_linear_537_5126)" stroke-width="2.84983"/>
<g filter="url(#filter16_d_537_5126)">
<path d="M387.578 98.0396L399.039 104.657V117.89L387.578 124.507L376.117 117.89V104.657L387.578 98.0396Z" fill="#0061F1"/>
</g>
<g filter="url(#filter17_d_537_5126)">
<path d="M187.038 145.056L201.889 153.63V170.779L187.038 179.353L172.187 170.779V153.63L187.038 145.056Z" fill="#0061F1" fill-opacity="0.5" shape-rendering="crispEdges"/>
</g>
<g filter="url(#filter18_di_537_5126)">
<path d="M302.513 10.0029L311.13 14.9776V24.927L302.513 29.9017L293.897 24.927V14.9776L302.513 10.0029Z" stroke="#0061F1" stroke-opacity="0.5" stroke-width="1.42492" stroke-miterlimit="10" stroke-linejoin="round" shape-rendering="crispEdges"/>
</g>
<g filter="url(#filter19_di_537_5126)">
<path d="M182.387 67L189.627 71.1801V79.5404L182.387 83.7205L175.146 79.5404V71.1801L182.387 67Z" stroke="#0061F1" stroke-opacity="0.5" stroke-width="1.42492" stroke-miterlimit="10" stroke-linejoin="round" shape-rendering="crispEdges"/>
</g>
<g filter="url(#filter20_di_537_5126)">
<path d="M200.27 52.675L201.707 58.0381L197.781 61.9641L192.418 60.5271L190.981 55.164L194.907 51.238L200.27 52.675Z" stroke="#0061F1" stroke-opacity="0.3" stroke-width="1.42492" stroke-miterlimit="10" stroke-linejoin="round" shape-rendering="crispEdges"/>
</g>
<g filter="url(#filter21_di_537_5126)">
<path d="M217.808 48.5521L218.9 52.6259L215.918 55.6081L211.844 54.5166L210.752 50.4427L213.735 47.4605L217.808 48.5521Z" stroke="#0061F1" stroke-opacity="0.1" stroke-width="1.42492" stroke-miterlimit="10" stroke-linejoin="round" shape-rendering="crispEdges"/>
</g>
<g filter="url(#filter22_di_537_5126)">
<path d="M380.871 148.406L389.804 143.249V132.934L380.871 127.777L371.939 132.934V143.249L380.871 148.406Z" stroke="#0C4395" stroke-opacity="0.3" stroke-width="1.42492" stroke-miterlimit="10" stroke-linejoin="round" shape-rendering="crispEdges"/>
</g>
<g filter="url(#filter23_di_537_5126)">
<path d="M363.114 165.476L370.007 161.496V153.536L363.114 149.557L356.221 153.536V161.496L363.114 165.476Z" stroke="#0C4395" stroke-opacity="0.15" stroke-width="1.42492" stroke-miterlimit="10" stroke-linejoin="round" shape-rendering="crispEdges"/>
</g>
<g filter="url(#filter24_d_537_5126)">
<path d="M192.422 105.037L200.021 100.649V91.8745L192.422 87.4871L184.823 91.8745V100.649L192.422 105.037Z" fill="#0061F1"/>
</g>
<g opacity="0.9">
<path d="M477.564 200.683V148.249L518.931 148.028V200.683H477.564Z" fill="url(#paint12_linear_537_5126)"/>
<path d="M477.624 200.683L459.086 136.294C489.417 143.565 506.275 143.519 536.151 136.294L519.031 200.683H477.624Z" fill="url(#paint13_linear_537_5126)"/>
<mask id="path-52-inside-3_537_5126" fill="white">
<path fill-rule="evenodd" clip-rule="evenodd" d="M464.652 227.377C464.628 227.377 464.604 227.377 464.58 227.377C457.489 227.377 451.741 221.629 451.741 214.538C451.741 207.447 457.489 201.698 464.58 201.698C464.69 201.698 464.799 201.7 464.907 201.702C464.818 200.89 464.771 200.065 464.771 199.229C464.771 186.949 474.726 176.995 487.006 176.995C496.676 176.995 504.904 183.168 507.965 191.788C510.263 190.232 513.035 189.323 516.02 189.323C523.965 189.323 530.406 195.764 530.406 203.709C530.406 204.783 530.289 205.83 530.065 206.836C530.529 206.773 531.002 206.74 531.484 206.74C537.183 206.74 541.802 211.36 541.802 217.058C541.802 222.757 537.183 227.377 531.484 227.377C531.458 227.377 531.432 227.377 531.407 227.377H464.652Z"/>
</mask>
<path fill-rule="evenodd" clip-rule="evenodd" d="M464.652 227.377C464.628 227.377 464.604 227.377 464.58 227.377C457.489 227.377 451.741 221.629 451.741 214.538C451.741 207.447 457.489 201.698 464.58 201.698C464.69 201.698 464.799 201.7 464.907 201.702C464.818 200.89 464.771 200.065 464.771 199.229C464.771 186.949 474.726 176.995 487.006 176.995C496.676 176.995 504.904 183.168 507.965 191.788C510.263 190.232 513.035 189.323 516.02 189.323C523.965 189.323 530.406 195.764 530.406 203.709C530.406 204.783 530.289 205.83 530.065 206.836C530.529 206.773 531.002 206.74 531.484 206.74C537.183 206.74 541.802 211.36 541.802 217.058C541.802 222.757 537.183 227.377 531.484 227.377C531.458 227.377 531.432 227.377 531.407 227.377H464.652Z" fill="url(#paint14_radial_537_5126)"/>
<path d="M464.652 227.377V201.133H464.58L464.509 201.134L464.652 227.377ZM464.907 201.702L464.251 227.938L494.298 228.689L490.992 198.816L464.907 201.702ZM507.965 191.788L483.234 200.569L494.585 232.538L522.677 213.52L507.965 191.788ZM530.065 206.836L504.443 201.157L496.284 237.97L533.639 232.836L530.065 206.836ZM531.407 227.377L531.597 201.134L531.502 201.133H531.407V227.377ZM464.509 201.134C464.532 201.133 464.556 201.133 464.58 201.133V253.621C464.652 253.621 464.723 253.621 464.795 253.62L464.509 201.134ZM464.58 201.133C471.983 201.133 477.984 207.135 477.984 214.538H425.497C425.497 236.123 442.995 253.621 464.58 253.621V201.133ZM477.984 214.538C477.984 221.941 471.983 227.942 464.58 227.942V175.455C442.995 175.455 425.497 192.953 425.497 214.538H477.984ZM464.58 227.942C464.47 227.942 464.361 227.941 464.251 227.938L465.564 175.467C465.237 175.459 464.909 175.455 464.58 175.455V227.942ZM490.992 198.816C491.008 198.96 491.015 199.099 491.015 199.229H438.528C438.528 201.031 438.627 202.82 438.823 204.589L490.992 198.816ZM491.015 199.229C491.015 201.443 489.22 203.238 487.006 203.238V150.751C460.232 150.751 438.528 172.455 438.528 199.229H491.015ZM487.006 203.238C485.221 203.238 483.773 202.087 483.234 200.569L532.696 183.007C526.035 164.248 508.13 150.751 487.006 150.751V203.238ZM522.677 213.52C520.77 214.811 518.443 215.567 516.02 215.567V163.079C507.628 163.079 499.757 165.652 493.252 170.056L522.677 213.52ZM516.02 215.567C509.471 215.567 504.162 210.258 504.162 203.709H556.65C556.65 181.27 538.459 163.079 516.02 163.079V215.567ZM504.162 203.709C504.162 202.861 504.256 202.003 504.443 201.157L555.687 212.515C556.321 209.656 556.65 206.706 556.65 203.709H504.162ZM533.639 232.836C532.922 232.934 532.201 232.983 531.484 232.983V180.496C529.803 180.496 528.136 180.611 526.492 180.837L533.639 232.836ZM531.484 232.983C522.689 232.983 515.559 225.854 515.559 217.058H568.046C568.046 196.866 551.677 180.496 531.484 180.496V232.983ZM515.559 217.058C515.559 208.263 522.689 201.134 531.484 201.134V253.621C551.677 253.621 568.046 237.251 568.046 217.058H515.559ZM531.484 201.134C531.523 201.134 531.561 201.134 531.597 201.134L531.216 253.62C531.304 253.621 531.393 253.621 531.484 253.621V201.134ZM531.407 201.133H464.652V253.621H531.407V201.133Z" fill="url(#paint15_linear_537_5126)" mask="url(#path-52-inside-3_537_5126)"/>
<path d="M444.711 137.81C440.027 135.758 436.852 133.181 435.162 130.314C433.492 127.48 433.221 124.275 434.505 120.797C435.801 117.285 438.636 113.627 442.863 110.048C447.083 106.475 452.643 103.02 459.309 99.9023C472.645 93.6654 489.232 89.3277 505.409 87.857C521.604 86.3846 535.952 87.9161 545.331 92.025" stroke="url(#paint16_linear_537_5126)" stroke-width="1.74958"/>
<g filter="url(#filter25_d_537_5126)">
<path d="M497.587 80.0596L532.674 100.317V140.832L497.587 161.089L462.5 140.832V100.317L497.587 80.0596Z" fill="#0061F1"/>
</g>
<g filter="url(#filter26_d_537_5126)">
<path d="M543.776 80.459L548.835 77.538V71.6961L543.776 68.7751L538.717 71.6961V77.538L543.776 80.459Z" fill="#0061F1" fill-opacity="0.5" shape-rendering="crispEdges"/>
</g>
<g filter="url(#filter27_d_537_5126)">
<path d="M551.259 170.791L550.014 166.144L545.368 164.899L541.966 168.301L543.211 172.947L547.858 174.192L551.259 170.791Z" fill="#0061F1" fill-opacity="0.3" shape-rendering="crispEdges"/>
</g>
<g filter="url(#filter28_d_537_5126)">
<path d="M449.312 171.268L455.906 167.46V159.846L449.312 156.038L442.717 159.846V167.46L449.312 171.268Z" fill="#0061F1" fill-opacity="0.2" shape-rendering="crispEdges"/>
</g>
<g filter="url(#filter29_d_537_5126)">
<path d="M464.541 68.835L469.382 71.6301V77.2204L464.541 80.0156L459.7 77.2204V71.6301L464.541 68.835Z" fill="#0061F1" fill-opacity="0.2" shape-rendering="crispEdges"/>
</g>
<path d="M496.016 127.287C495.099 127.287 494.181 126.697 494.181 125.649V123.683C494.181 123.29 493.395 122.831 493.067 122.766C492.936 122.766 492.805 122.634 492.805 122.503C492.805 122.372 492.871 122.241 493.067 122.241C493.395 122.176 494.116 121.717 494.116 121.324V119.358C494.116 118.309 495.099 117.72 495.951 117.72H496.737C496.934 117.72 497.065 117.851 497.065 117.982C497.065 118.113 496.999 118.244 496.868 118.309C496.54 118.375 496.016 118.703 496.016 119.489V121.455C495.951 121.979 495.82 122.307 495.557 122.503C495.82 122.7 495.951 123.028 496.016 123.552V125.518C496.016 126.304 496.606 126.632 496.868 126.763C496.999 126.828 497.065 126.959 497.065 127.09C497.065 127.222 496.934 127.353 496.737 127.353H496.016V127.287Z" fill="white"/>
<path d="M500.014 128.205C499.097 128.205 498.179 127.615 498.179 126.566V123.618C498.179 123.224 497.393 122.766 497.065 122.7C496.934 122.7 496.803 122.569 496.803 122.438C496.803 122.307 496.869 122.176 497.065 122.176C497.393 122.11 498.114 121.652 498.114 121.258V118.31C498.114 117.261 499.097 116.671 499.949 116.671H500.735C500.932 116.671 501.063 116.802 501.063 116.934C501.063 117.065 500.997 117.196 500.866 117.261C500.538 117.327 500.014 117.654 500.014 118.441V121.324C499.949 121.848 499.818 122.176 499.555 122.372C499.818 122.569 499.949 122.897 500.014 123.421V126.37C500.014 127.156 500.604 127.484 500.866 127.615C500.997 127.68 501.063 127.811 501.063 127.942C501.063 128.074 500.932 128.205 500.735 128.205H500.014Z" fill="white"/>
<path d="M504.011 127.746C503.093 127.746 502.176 127.156 502.176 126.108V123.683C502.176 123.29 501.39 122.831 501.062 122.766C500.931 122.766 500.8 122.635 500.8 122.504C500.8 122.373 500.865 122.241 501.062 122.241C501.39 122.176 502.176 121.717 502.176 121.324V118.899C502.176 117.851 503.159 117.261 504.011 117.261H504.797C504.928 117.261 505.125 117.392 505.125 117.523C505.125 117.654 505.059 117.785 504.928 117.851C504.666 117.917 504.076 118.179 504.142 119.031V121.455C504.076 121.979 503.945 122.307 503.683 122.504C503.945 122.7 504.076 123.028 504.142 123.552V125.977C504.142 126.829 504.797 127.091 504.994 127.222C505.125 127.287 505.19 127.418 505.19 127.549C505.19 127.68 505.059 127.812 504.863 127.812H504.011V127.746Z" fill="white"/>
<path d="M507.222 125.845C506.501 125.845 505.845 125.649 505.78 124.207V123.683C505.78 123.29 505.19 122.831 504.928 122.765C504.797 122.765 504.731 122.634 504.731 122.503C504.731 122.372 504.797 122.241 504.928 122.241C505.19 122.175 505.78 121.717 505.78 121.324V120.799C505.78 119.161 506.501 119.161 507.222 119.161H507.877C508.008 119.161 508.139 119.292 508.139 119.423C508.139 119.554 508.073 119.685 507.942 119.751C507.811 119.816 507.287 120.079 507.287 120.93V121.455C507.222 121.979 507.091 122.307 506.959 122.503C507.156 122.7 507.287 123.027 507.287 123.552V124.076C507.287 124.862 507.746 125.19 507.942 125.321C508.073 125.386 508.073 125.518 508.073 125.649C508.073 125.78 507.942 125.911 507.811 125.911H507.222V125.845Z" fill="white"/>
<path d="M510.891 126.763C510.105 126.763 509.253 126.173 509.253 125.125V123.683C509.253 123.29 508.598 122.831 508.336 122.766C508.205 122.766 508.139 122.635 508.139 122.504C508.139 122.373 508.205 122.241 508.336 122.241C508.598 122.176 509.253 121.717 509.253 121.324V119.882C509.253 118.834 510.105 118.244 510.891 118.244H511.612C511.743 118.244 511.874 118.375 511.874 118.506C511.874 118.637 511.809 118.768 511.678 118.834C511.416 118.899 510.891 119.227 510.957 120.013V121.455C510.891 121.979 510.76 122.307 510.564 122.504C510.76 122.7 510.891 123.028 510.957 123.552V124.994C510.957 125.78 511.547 126.108 511.678 126.173C511.809 126.239 511.874 126.37 511.874 126.501C511.874 126.632 511.743 126.763 511.612 126.763H510.891Z" fill="white"/>
<path d="M484.811 133.578C482.255 133.578 479.765 132.595 477.93 130.825C476.03 129.056 474.982 126.631 474.916 124.076C474.916 123.683 474.916 123.224 474.982 122.831C475.244 120.603 476.489 118.44 478.324 116.999C479.11 116.409 480.027 116.081 480.945 116.081C481.666 116.081 482.452 116.278 483.107 116.671C483.369 114.574 483.959 112.805 484.877 111.363C487.039 107.89 490.315 106.055 494.706 105.662C494.968 105.662 495.165 105.662 495.427 105.662C499.555 105.531 503.159 107.497 505.715 111.166C505.846 111.166 505.912 111.166 506.043 111.166H506.829C507.746 111.166 508.664 111.232 509.516 111.363C515.151 112.084 519.411 116.867 519.411 122.569C519.411 125.583 518.231 128.466 516.069 130.629C515.872 130.825 515.61 131.022 515.348 131.284C514.561 131.874 513.71 132.398 512.661 132.791C511.285 133.315 509.778 133.578 508.205 133.578H484.811ZM480.945 118.44C480.552 118.44 480.158 118.571 479.831 118.833C478.455 119.882 477.537 121.455 477.406 123.027C477.341 123.355 477.341 123.683 477.341 123.945C477.406 127.876 480.748 131.087 484.745 131.087H508.074C509.385 131.087 510.564 130.891 511.678 130.498C512.53 130.17 513.185 129.842 513.775 129.384C513.972 129.253 514.168 129.056 514.299 128.859C516.003 127.156 516.921 124.928 516.921 122.569C516.921 118.047 513.579 114.312 509.123 113.722C508.402 113.591 507.615 113.525 506.763 113.525C506.108 113.525 505.453 113.591 504.732 113.657H504.404L504.208 113.394C502.111 109.79 499.162 107.955 495.427 107.955C495.23 107.955 495.099 107.955 494.903 107.955C491.233 108.283 488.743 109.725 486.908 112.543C485.794 114.312 485.27 116.54 485.27 119.489C485.27 120.078 485.204 121.258 485.204 122.569C485.204 122.831 485.466 124.01 486.711 124.01C487.498 124.01 488.087 123.355 488.087 122.569C488.087 122.306 488.153 121.979 488.35 121.782L489.464 120.144C489.595 120.013 489.726 119.947 489.857 119.947C490.119 119.947 490.381 120.21 490.381 120.472V122.569C490.381 123.617 489.988 124.6 489.267 125.386C488.546 126.107 487.694 126.5 486.646 126.5H486.515C484.483 126.435 482.845 124.797 482.78 122.831V120.406C482.911 119.161 481.862 118.44 480.945 118.44Z" fill="white"/>
<path d="M547.4 110.164C549.224 110.385 550.547 111.186 551.41 112.456C552.289 113.751 552.752 115.629 552.633 118.093C552.396 123.037 549.851 129.61 545.45 136.355C541.06 143.083 535.245 149.337 529.302 153.733C523.315 158.162 517.862 160.219 514.115 159.765" stroke="url(#paint17_linear_537_5126)" stroke-width="1.74958"/>
<g filter="url(#filter30_d_537_5126)">
<path d="M547.207 105.919L551.384 105.547L553.795 108.979L552.029 112.782L547.852 113.154L545.441 109.722L547.207 105.919Z" fill="#0061F1"/>
</g>
<g filter="url(#filter31_di_537_5126)">
<path d="M432.56 124.707L437.681 125.047L439.947 129.652L437.092 133.917L431.971 133.577L429.705 128.972L432.56 124.707Z" stroke="#0061F1" stroke-opacity="0.5" stroke-width="0.87479" stroke-miterlimit="10" stroke-linejoin="round" shape-rendering="crispEdges"/>
</g>
<g filter="url(#filter32_di_537_5126)">
<path d="M438.528 111.969L440.773 114.533L439.675 117.76L436.331 118.422L434.086 115.857L435.184 112.631L438.528 111.969Z" stroke="#0061F1" stroke-opacity="0.3" stroke-width="0.87479" stroke-miterlimit="10" stroke-linejoin="round" shape-rendering="crispEdges"/>
</g>
<g filter="url(#filter33_di_537_5126)">
<path d="M456.401 84.7996L457.071 87.3006L455.24 89.1315L452.739 88.4614L452.069 85.9603L453.9 84.1295L456.401 84.7996Z" stroke="#0061F1" stroke-opacity="0.1" stroke-width="0.87479" stroke-miterlimit="10" stroke-linejoin="round" shape-rendering="crispEdges"/>
</g>
<g filter="url(#filter34_di_537_5126)">
<path d="M554.643 120.201L556.02 117.236L554.141 114.562L550.885 114.852L549.508 117.816L551.387 120.491L554.643 120.201Z" stroke="#0C4395" stroke-opacity="0.3" stroke-width="0.87479" stroke-miterlimit="10" stroke-linejoin="round" shape-rendering="crispEdges"/>
</g>
<g filter="url(#filter35_di_537_5126)">
<path d="M553.149 127.862L554.211 125.574L552.761 123.51L550.249 123.734L549.187 126.022L550.637 128.085L553.149 127.862Z" stroke="#0C4395" stroke-opacity="0.15" stroke-width="0.87479" stroke-miterlimit="10" stroke-linejoin="round" shape-rendering="crispEdges"/>
</g>
<g filter="url(#filter36_d_537_5126)">
<path d="M448.398 142.939L451.394 138.463L449.016 133.629L443.641 133.272L440.644 137.748L443.022 142.582L448.398 142.939Z" fill="#0061F1"/>
</g>
</g>
<defs>
<filter id="filter0_d_537_5126" x="35.4274" y="73.6579" width="82.9772" height="93.8331" filterUnits="userSpaceOnUse" color-interpolation-filters="sRGB">
<feFlood flood-opacity="0" result="BackgroundImageFix"/>
<feColorMatrix in="SourceAlpha" type="matrix" values="0 0 0 0 0 0 0 0 0 0 0 0 0 0 0 0 0 0 127 0" result="hardAlpha"/>
<feOffset/>
<feGaussianBlur stdDeviation="3.20083"/>
<feComposite in2="hardAlpha" operator="out"/>
<feColorMatrix type="matrix" values="0 0 0 0 0 0 0 0 0 0.301471 0 0 0 0 0.75 0 0 0 1 0"/>
<feBlend mode="normal" in2="BackgroundImageFix" result="effect1_dropShadow_537_5126"/>
<feBlend mode="normal" in="SourceGraphic" in2="effect1_dropShadow_537_5126" result="shape"/>
</filter>
<filter id="filter1_d_537_5126" x="111.645" y="62.3732" width="22.922" height="24.4874" filterUnits="userSpaceOnUse" color-interpolation-filters="sRGB">
<feFlood flood-opacity="0" result="BackgroundImageFix"/>
<feColorMatrix in="SourceAlpha" type="matrix" values="0 0 0 0 0 0 0 0 0 0 0 0 0 0 0 0 0 0 127 0" result="hardAlpha"/>
<feOffset/>
<feGaussianBlur stdDeviation="3.20083"/>
<feComposite in2="hardAlpha" operator="out"/>
<feColorMatrix type="matrix" values="0 0 0 0 0 0 0 0 0 0.301471 0 0 0 0 0.75 0 0 0 1 0"/>
<feBlend mode="normal" in2="BackgroundImageFix" result="effect1_dropShadow_537_5126"/>
<feBlend mode="normal" in="SourceGraphic" in2="effect1_dropShadow_537_5126" result="shape"/>
</filter>
<filter id="filter2_d_537_5126" x="114.894" y="158.498" width="22.0968" height="22.0963" filterUnits="userSpaceOnUse" color-interpolation-filters="sRGB">
<feFlood flood-opacity="0" result="BackgroundImageFix"/>
<feColorMatrix in="SourceAlpha" type="matrix" values="0 0 0 0 0 0 0 0 0 0 0 0 0 0 0 0 0 0 127 0" result="hardAlpha"/>
<feOffset/>
<feGaussianBlur stdDeviation="3.20083"/>
<feComposite in2="hardAlpha" operator="out"/>
<feColorMatrix type="matrix" values="0 0 0 0 0 0 0 0 0 0.301471 0 0 0 0 0.75 0 0 0 1 0"/>
<feBlend mode="normal" in2="BackgroundImageFix" result="effect1_dropShadow_537_5126"/>
<feBlend mode="normal" in="SourceGraphic" in2="effect1_dropShadow_537_5126" result="shape"/>
</filter>
<filter id="filter3_d_537_5126" x="19.422" y="153.414" width="18.4377" height="20.4782" filterUnits="userSpaceOnUse" color-interpolation-filters="sRGB">
<feFlood flood-opacity="0" result="BackgroundImageFix"/>
<feColorMatrix in="SourceAlpha" type="matrix" values="0 0 0 0 0 0 0 0 0 0 0 0 0 0 0 0 0 0 127 0" result="hardAlpha"/>
<feOffset/>
<feGaussianBlur stdDeviation="1.31219"/>
<feComposite in2="hardAlpha" operator="out"/>
<feColorMatrix type="matrix" values="0 0 0 0 0 0 0 0 0 0.301471 0 0 0 0 0.75 0 0 0 0.3 0"/>
<feBlend mode="normal" in2="BackgroundImageFix" result="effect1_dropShadow_537_5126"/>
<feBlend mode="normal" in="SourceGraphic" in2="effect1_dropShadow_537_5126" result="shape"/>
</filter>
<filter id="filter4_d_537_5126" x="36.4049" y="66.2106" width="14.9314" height="16.4294" filterUnits="userSpaceOnUse" color-interpolation-filters="sRGB">
<feFlood flood-opacity="0" result="BackgroundImageFix"/>
<feColorMatrix in="SourceAlpha" type="matrix" values="0 0 0 0 0 0 0 0 0 0 0 0 0 0 0 0 0 0 127 0" result="hardAlpha"/>
<feOffset/>
<feGaussianBlur stdDeviation="1.31219"/>
<feComposite in2="hardAlpha" operator="out"/>
<feColorMatrix type="matrix" values="0 0 0 0 0 0 0 0 0 0.301471 0 0 0 0 0.75 0 0 0 0.3 0"/>
<feBlend mode="normal" in2="BackgroundImageFix" result="effect1_dropShadow_537_5126"/>
<feBlend mode="normal" in="SourceGraphic" in2="effect1_dropShadow_537_5126" result="shape"/>
</filter>
<filter id="filter5_d_537_5126" x="120.397" y="100.298" width="17.1019" height="16.3548" filterUnits="userSpaceOnUse" color-interpolation-filters="sRGB">
<feFlood flood-opacity="0" result="BackgroundImageFix"/>
<feColorMatrix in="SourceAlpha" type="matrix" values="0 0 0 0 0 0 0 0 0 0 0 0 0 0 0 0 0 0 127 0" result="hardAlpha"/>
<feOffset dy="-0.87479"/>
<feGaussianBlur stdDeviation="2.18698"/>
<feComposite in2="hardAlpha" operator="out"/>
<feColorMatrix type="matrix" values="0 0 0 0 0 0 0 0 0 0.301471 0 0 0 0 0.75 0 0 0 1 0"/>
<feBlend mode="normal" in2="BackgroundImageFix" result="effect1_dropShadow_537_5126"/>
<feBlend mode="normal" in="SourceGraphic" in2="effect1_dropShadow_537_5126" result="shape"/>
</filter>
<filter id="filter6_di_537_5126" x="5.09752" y="120.77" width="18.1155" height="17.0833" filterUnits="userSpaceOnUse" color-interpolation-filters="sRGB">
<feFlood flood-opacity="0" result="BackgroundImageFix"/>
<feColorMatrix in="SourceAlpha" type="matrix" values="0 0 0 0 0 0 0 0 0 0 0 0 0 0 0 0 0 0 127 0" result="hardAlpha"/>
<feOffset/>
<feGaussianBlur stdDeviation="1.74958"/>
<feComposite in2="hardAlpha" operator="out"/>
<feColorMatrix type="matrix" values="0 0 0 0 0 0 0 0 0 0.301471 0 0 0 0 0.75 0 0 0 0.3 0"/>
<feBlend mode="normal" in2="BackgroundImageFix" result="effect1_dropShadow_537_5126"/>
<feBlend mode="normal" in="SourceGraphic" in2="effect1_dropShadow_537_5126" result="shape"/>
<feColorMatrix in="SourceAlpha" type="matrix" values="0 0 0 0 0 0 0 0 0 0 0 0 0 0 0 0 0 0 127 0" result="hardAlpha"/>
<feOffset dy="3.49916"/>
<feGaussianBlur stdDeviation="1.74958"/>
<feComposite in2="hardAlpha" operator="arithmetic" k2="-1" k3="1"/>
<feColorMatrix type="matrix" values="0 0 0 0 0 0 0 0 0 0.301961 0 0 0 0 0.74902 0 0 0 0.25 0"/>
<feBlend mode="normal" in2="shape" result="effect2_innerShadow_537_5126"/>
</filter>
<filter id="filter7_di_537_5126" x="9.47887" y="108.032" width="14.5603" height="14.3264" filterUnits="userSpaceOnUse" color-interpolation-filters="sRGB">
<feFlood flood-opacity="0" result="BackgroundImageFix"/>
<feColorMatrix in="SourceAlpha" type="matrix" values="0 0 0 0 0 0 0 0 0 0 0 0 0 0 0 0 0 0 127 0" result="hardAlpha"/>
<feOffset/>
<feGaussianBlur stdDeviation="1.74958"/>
<feComposite in2="hardAlpha" operator="out"/>
<feColorMatrix type="matrix" values="0 0 0 0 0 0 0 0 0 0.301471 0 0 0 0 0.75 0 0 0 0.3 0"/>
<feBlend mode="normal" in2="BackgroundImageFix" result="effect1_dropShadow_537_5126"/>
<feBlend mode="normal" in="SourceGraphic" in2="effect1_dropShadow_537_5126" result="shape"/>
<feColorMatrix in="SourceAlpha" type="matrix" values="0 0 0 0 0 0 0 0 0 0 0 0 0 0 0 0 0 0 127 0" result="hardAlpha"/>
<feOffset dy="3.49916"/>
<feGaussianBlur stdDeviation="1.74958"/>
<feComposite in2="hardAlpha" operator="arithmetic" k2="-1" k3="1"/>
<feColorMatrix type="matrix" values="0 0 0 0 0 0 0 0 0 0.301961 0 0 0 0 0.74902 0 0 0 0.25 0"/>
<feBlend mode="normal" in2="shape" result="effect2_innerShadow_537_5126"/>
</filter>
<filter id="filter8_di_537_5126" x="27.4618" y="80.1927" width="12.8753" height="12.8753" filterUnits="userSpaceOnUse" color-interpolation-filters="sRGB">
<feFlood flood-opacity="0" result="BackgroundImageFix"/>
<feColorMatrix in="SourceAlpha" type="matrix" values="0 0 0 0 0 0 0 0 0 0 0 0 0 0 0 0 0 0 127 0" result="hardAlpha"/>
<feOffset/>
<feGaussianBlur stdDeviation="1.74958"/>
<feComposite in2="hardAlpha" operator="out"/>
<feColorMatrix type="matrix" values="0 0 0 0 0 0 0 0 0 0.301471 0 0 0 0 0.75 0 0 0 0.3 0"/>
<feBlend mode="normal" in2="BackgroundImageFix" result="effect1_dropShadow_537_5126"/>
<feBlend mode="normal" in="SourceGraphic" in2="effect1_dropShadow_537_5126" result="shape"/>
<feColorMatrix in="SourceAlpha" type="matrix" values="0 0 0 0 0 0 0 0 0 0 0 0 0 0 0 0 0 0 127 0" result="hardAlpha"/>
<feOffset dy="3.49916"/>
<feGaussianBlur stdDeviation="1.74958"/>
<feComposite in2="hardAlpha" operator="arithmetic" k2="-1" k3="1"/>
<feColorMatrix type="matrix" values="0 0 0 0 0 0 0 0 0 0.301961 0 0 0 0 0.74902 0 0 0 0.25 0"/>
<feBlend mode="normal" in2="shape" result="effect2_innerShadow_537_5126"/>
</filter>
<filter id="filter9_di_537_5126" x="124.901" y="110.625" width="14.3846" height="13.802" filterUnits="userSpaceOnUse" color-interpolation-filters="sRGB">
<feFlood flood-opacity="0" result="BackgroundImageFix"/>
<feColorMatrix in="SourceAlpha" type="matrix" values="0 0 0 0 0 0 0 0 0 0 0 0 0 0 0 0 0 0 127 0" result="hardAlpha"/>
<feOffset/>
<feGaussianBlur stdDeviation="1.74958"/>
<feComposite in2="hardAlpha" operator="out"/>
<feColorMatrix type="matrix" values="0 0 0 0 0 0 0 0 0 0.301471 0 0 0 0 0.75 0 0 0 0.3 0"/>
<feBlend mode="normal" in2="BackgroundImageFix" result="effect1_dropShadow_537_5126"/>
<feBlend mode="normal" in="SourceGraphic" in2="effect1_dropShadow_537_5126" result="shape"/>
<feColorMatrix in="SourceAlpha" type="matrix" values="0 0 0 0 0 0 0 0 0 0 0 0 0 0 0 0 0 0 127 0" result="hardAlpha"/>
<feOffset dy="3.49916"/>
<feGaussianBlur stdDeviation="1.74958"/>
<feComposite in2="hardAlpha" operator="arithmetic" k2="-1" k3="1"/>
<feColorMatrix type="matrix" values="0 0 0 0 0 0 0 0 0 0.301961 0 0 0 0 0.74902 0 0 0 0.25 0"/>
<feBlend mode="normal" in2="shape" result="effect2_innerShadow_537_5126"/>
</filter>
<filter id="filter10_di_537_5126" x="124.58" y="119.574" width="12.8972" height="12.4485" filterUnits="userSpaceOnUse" color-interpolation-filters="sRGB">
<feFlood flood-opacity="0" result="BackgroundImageFix"/>
<feColorMatrix in="SourceAlpha" type="matrix" values="0 0 0 0 0 0 0 0 0 0 0 0 0 0 0 0 0 0 127 0" result="hardAlpha"/>
<feOffset/>
<feGaussianBlur stdDeviation="1.74958"/>
<feComposite in2="hardAlpha" operator="out"/>
<feColorMatrix type="matrix" values="0 0 0 0 0 0 0 0 0 0.301471 0 0 0 0 0.75 0 0 0 0.3 0"/>
<feBlend mode="normal" in2="BackgroundImageFix" result="effect1_dropShadow_537_5126"/>
<feBlend mode="normal" in="SourceGraphic" in2="effect1_dropShadow_537_5126" result="shape"/>
<feColorMatrix in="SourceAlpha" type="matrix" values="0 0 0 0 0 0 0 0 0 0 0 0 0 0 0 0 0 0 127 0" result="hardAlpha"/>
<feOffset dy="3.49916"/>
<feGaussianBlur stdDeviation="1.74958"/>
<feComposite in2="hardAlpha" operator="arithmetic" k2="-1" k3="1"/>
<feColorMatrix type="matrix" values="0 0 0 0 0 0 0 0 0 0.301961 0 0 0 0 0.74902 0 0 0 0.25 0"/>
<feBlend mode="normal" in2="shape" result="effect2_innerShadow_537_5126"/>
</filter>
<filter id="filter11_d_537_5126" x="13.5715" y="126.87" width="23.5538" height="22.4703" filterUnits="userSpaceOnUse" color-interpolation-filters="sRGB">
<feFlood flood-opacity="0" result="BackgroundImageFix"/>
<feColorMatrix in="SourceAlpha" type="matrix" values="0 0 0 0 0 0 0 0 0 0 0 0 0 0 0 0 0 0 127 0" result="hardAlpha"/>
<feOffset/>
<feGaussianBlur stdDeviation="3.20083"/>
<feComposite in2="hardAlpha" operator="out"/>
<feColorMatrix type="matrix" values="0 0 0 0 0 0 0 0 0 0.301471 0 0 0 0 0.75 0 0 0 1 0"/>
<feBlend mode="normal" in2="BackgroundImageFix" result="effect1_dropShadow_537_5126"/>
<feBlend mode="normal" in="SourceGraphic" in2="effect1_dropShadow_537_5126" result="shape"/>
</filter>
<filter id="filter12_d_537_5126" x="217.315" y="30.4046" width="135.159" height="152.842" filterUnits="userSpaceOnUse" color-interpolation-filters="sRGB">
<feFlood flood-opacity="0" result="BackgroundImageFix"/>
<feColorMatrix in="SourceAlpha" type="matrix" values="0 0 0 0 0 0 0 0 0 0 0 0 0 0 0 0 0 0 127 0" result="hardAlpha"/>
<feOffset/>
<feGaussianBlur stdDeviation="5.21373"/>
<feComposite in2="hardAlpha" operator="out"/>
<feColorMatrix type="matrix" values="0 0 0 0 0 0 0 0 0 0.301471 0 0 0 0 0.75 0 0 0 1 0"/>
<feBlend mode="normal" in2="BackgroundImageFix" result="effect1_dropShadow_537_5126"/>
<feBlend mode="normal" in="SourceGraphic" in2="effect1_dropShadow_537_5126" result="shape"/>
</filter>
<filter id="filter13_d_537_5126" x="339.106" y="9.65066" width="44.4165" height="48.062" filterUnits="userSpaceOnUse" color-interpolation-filters="sRGB">
<feFlood flood-opacity="0" result="BackgroundImageFix"/>
<feColorMatrix in="SourceAlpha" type="matrix" values="0 0 0 0 0 0 0 0 0 0 0 0 0 0 0 0 0 0 127 0" result="hardAlpha"/>
<feOffset/>
<feGaussianBlur stdDeviation="5.21373"/>
<feComposite in2="hardAlpha" operator="out"/>
<feColorMatrix type="matrix" values="0 0 0 0 0 0 0 0 0 0.301471 0 0 0 0 0.75 0 0 0 1 0"/>
<feBlend mode="normal" in2="BackgroundImageFix" result="effect1_dropShadow_537_5126"/>
<feBlend mode="normal" in="SourceGraphic" in2="effect1_dropShadow_537_5126" result="shape"/>
</filter>
<filter id="filter14_d_537_5126" x="346.756" y="168.595" width="35.9921" height="35.9926" filterUnits="userSpaceOnUse" color-interpolation-filters="sRGB">
<feFlood flood-opacity="0" result="BackgroundImageFix"/>
<feColorMatrix in="SourceAlpha" type="matrix" values="0 0 0 0 0 0 0 0 0 0 0 0 0 0 0 0 0 0 127 0" result="hardAlpha"/>
<feOffset/>
<feGaussianBlur stdDeviation="5.21373"/>
<feComposite in2="hardAlpha" operator="out"/>
<feColorMatrix type="matrix" values="0 0 0 0 0 0 0 0 0 0.301471 0 0 0 0 0.75 0 0 0 1 0"/>
<feBlend mode="normal" in2="BackgroundImageFix" result="effect1_dropShadow_537_5126"/>
<feBlend mode="normal" in="SourceGraphic" in2="effect1_dropShadow_537_5126" result="shape"/>
</filter>
<filter id="filter15_d_537_5126" x="217.025" y="0.662748" width="30.0329" height="33.3561" filterUnits="userSpaceOnUse" color-interpolation-filters="sRGB">
<feFlood flood-opacity="0" result="BackgroundImageFix"/>
<feColorMatrix in="SourceAlpha" type="matrix" values="0 0 0 0 0 0 0 0 0 0 0 0 0 0 0 0 0 0 127 0" result="hardAlpha"/>
<feOffset/>
<feGaussianBlur stdDeviation="2.13738"/>
<feComposite in2="hardAlpha" operator="out"/>
<feColorMatrix type="matrix" values="0 0 0 0 0 0 0 0 0 0.301471 0 0 0 0 0.75 0 0 0 0.3 0"/>
<feBlend mode="normal" in2="BackgroundImageFix" result="effect1_dropShadow_537_5126"/>
<feBlend mode="normal" in="SourceGraphic" in2="effect1_dropShadow_537_5126" result="shape"/>
</filter>
<filter id="filter16_d_537_5126" x="368.993" y="89.49" width="37.171" height="40.7169" filterUnits="userSpaceOnUse" color-interpolation-filters="sRGB">
<feFlood flood-opacity="0" result="BackgroundImageFix"/>
<feColorMatrix in="SourceAlpha" type="matrix" values="0 0 0 0 0 0 0 0 0 0 0 0 0 0 0 0 0 0 127 0" result="hardAlpha"/>
<feOffset dy="-1.42492"/>
<feGaussianBlur stdDeviation="3.56229"/>
<feComposite in2="hardAlpha" operator="out"/>
<feColorMatrix type="matrix" values="0 0 0 0 0 0 0 0 0 0.301471 0 0 0 0 0.75 0 0 0 1 0"/>
<feBlend mode="normal" in2="BackgroundImageFix" result="effect1_dropShadow_537_5126"/>
<feBlend mode="normal" in="SourceGraphic" in2="effect1_dropShadow_537_5126" result="shape"/>
</filter>
<filter id="filter17_d_537_5126" x="166.487" y="139.356" width="41.102" height="45.6972" filterUnits="userSpaceOnUse" color-interpolation-filters="sRGB">
<feFlood flood-opacity="0" result="BackgroundImageFix"/>
<feColorMatrix in="SourceAlpha" type="matrix" values="0 0 0 0 0 0 0 0 0 0 0 0 0 0 0 0 0 0 127 0" result="hardAlpha"/>
<feOffset/>
<feGaussianBlur stdDeviation="2.84983"/>
<feComposite in2="hardAlpha" operator="out"/>
<feColorMatrix type="matrix" values="0 0 0 0 0 0 0 0 0 0.301471 0 0 0 0 0.75 0 0 0 1 0"/>
<feBlend mode="normal" in2="BackgroundImageFix" result="effect1_dropShadow_537_5126"/>
<feBlend mode="normal" in="SourceGraphic" in2="effect1_dropShadow_537_5126" result="shape"/>
</filter>
<filter id="filter18_di_537_5126" x="287.485" y="3.59086" width="30.0571" height="32.7231" filterUnits="userSpaceOnUse" color-interpolation-filters="sRGB">
<feFlood flood-opacity="0" result="BackgroundImageFix"/>
<feColorMatrix in="SourceAlpha" type="matrix" values="0 0 0 0 0 0 0 0 0 0 0 0 0 0 0 0 0 0 127 0" result="hardAlpha"/>
<feOffset/>
<feGaussianBlur stdDeviation="2.84983"/>
<feComposite in2="hardAlpha" operator="out"/>
<feColorMatrix type="matrix" values="0 0 0 0 0 0 0 0 0 0.301471 0 0 0 0 0.75 0 0 0 0.3 0"/>
<feBlend mode="normal" in2="BackgroundImageFix" result="effect1_dropShadow_537_5126"/>
<feBlend mode="normal" in="SourceGraphic" in2="effect1_dropShadow_537_5126" result="shape"/>
<feColorMatrix in="SourceAlpha" type="matrix" values="0 0 0 0 0 0 0 0 0 0 0 0 0 0 0 0 0 0 127 0" result="hardAlpha"/>
<feOffset dy="5.69967"/>
<feGaussianBlur stdDeviation="2.84983"/>
<feComposite in2="hardAlpha" operator="arithmetic" k2="-1" k3="1"/>
<feColorMatrix type="matrix" values="0 0 0 0 0 0 0 0 0 0.301961 0 0 0 0 0.74902 0 0 0 0.25 0"/>
<feBlend mode="normal" in2="shape" result="effect2_innerShadow_537_5126"/>
</filter>
<filter id="filter19_di_537_5126" x="168.734" y="60.5879" width="27.3046" height="29.5448" filterUnits="userSpaceOnUse" color-interpolation-filters="sRGB">
<feFlood flood-opacity="0" result="BackgroundImageFix"/>
<feColorMatrix in="SourceAlpha" type="matrix" values="0 0 0 0 0 0 0 0 0 0 0 0 0 0 0 0 0 0 127 0" result="hardAlpha"/>
<feOffset/>
<feGaussianBlur stdDeviation="2.84983"/>
<feComposite in2="hardAlpha" operator="out"/>
<feColorMatrix type="matrix" values="0 0 0 0 0 0 0 0 0 0.301471 0 0 0 0 0.75 0 0 0 0.3 0"/>
<feBlend mode="normal" in2="BackgroundImageFix" result="effect1_dropShadow_537_5126"/>
<feBlend mode="normal" in="SourceGraphic" in2="effect1_dropShadow_537_5126" result="shape"/>
<feColorMatrix in="SourceAlpha" type="matrix" values="0 0 0 0 0 0 0 0 0 0 0 0 0 0 0 0 0 0 127 0" result="hardAlpha"/>
<feOffset dy="5.69967"/>
<feGaussianBlur stdDeviation="2.84983"/>
<feComposite in2="hardAlpha" operator="arithmetic" k2="-1" k3="1"/>
<feColorMatrix type="matrix" values="0 0 0 0 0 0 0 0 0 0.301961 0 0 0 0 0.74902 0 0 0 0.25 0"/>
<feBlend mode="normal" in2="shape" result="effect2_innerShadow_537_5126"/>
</filter>
<filter id="filter20_di_537_5126" x="184.568" y="44.8257" width="23.5507" height="23.5507" filterUnits="userSpaceOnUse" color-interpolation-filters="sRGB">
<feFlood flood-opacity="0" result="BackgroundImageFix"/>
<feColorMatrix in="SourceAlpha" type="matrix" values="0 0 0 0 0 0 0 0 0 0 0 0 0 0 0 0 0 0 127 0" result="hardAlpha"/>
<feOffset/>
<feGaussianBlur stdDeviation="2.84983"/>
<feComposite in2="hardAlpha" operator="out"/>
<feColorMatrix type="matrix" values="0 0 0 0 0 0 0 0 0 0.301471 0 0 0 0 0.75 0 0 0 0.3 0"/>
<feBlend mode="normal" in2="BackgroundImageFix" result="effect1_dropShadow_537_5126"/>
<feBlend mode="normal" in="SourceGraphic" in2="effect1_dropShadow_537_5126" result="shape"/>
<feColorMatrix in="SourceAlpha" type="matrix" values="0 0 0 0 0 0 0 0 0 0 0 0 0 0 0 0 0 0 127 0" result="hardAlpha"/>
<feOffset dy="5.69967"/>
<feGaussianBlur stdDeviation="2.84983"/>
<feComposite in2="hardAlpha" operator="arithmetic" k2="-1" k3="1"/>
<feColorMatrix type="matrix" values="0 0 0 0 0 0 0 0 0 0.301961 0 0 0 0 0.74902 0 0 0 0.25 0"/>
<feBlend mode="normal" in2="shape" result="effect2_innerShadow_537_5126"/>
</filter>
<filter id="filter21_di_537_5126" x="204.34" y="41.0484" width="20.9716" height="20.9721" filterUnits="userSpaceOnUse" color-interpolation-filters="sRGB">
<feFlood flood-opacity="0" result="BackgroundImageFix"/>
<feColorMatrix in="SourceAlpha" type="matrix" values="0 0 0 0 0 0 0 0 0 0 0 0 0 0 0 0 0 0 127 0" result="hardAlpha"/>
<feOffset/>
<feGaussianBlur stdDeviation="2.84983"/>
<feComposite in2="hardAlpha" operator="out"/>
<feColorMatrix type="matrix" values="0 0 0 0 0 0 0 0 0 0.301471 0 0 0 0 0.75 0 0 0 0.3 0"/>
<feBlend mode="normal" in2="BackgroundImageFix" result="effect1_dropShadow_537_5126"/>
<feBlend mode="normal" in="SourceGraphic" in2="effect1_dropShadow_537_5126" result="shape"/>
<feColorMatrix in="SourceAlpha" type="matrix" values="0 0 0 0 0 0 0 0 0 0 0 0 0 0 0 0 0 0 127 0" result="hardAlpha"/>
<feOffset dy="5.69967"/>
<feGaussianBlur stdDeviation="2.84983"/>
<feComposite in2="hardAlpha" operator="arithmetic" k2="-1" k3="1"/>
<feColorMatrix type="matrix" values="0 0 0 0 0 0 0 0 0 0.301961 0 0 0 0 0.74902 0 0 0 0.25 0"/>
<feBlend mode="normal" in2="shape" result="effect2_innerShadow_537_5126"/>
</filter>
<filter id="filter22_di_537_5126" x="365.526" y="121.365" width="30.6899" height="33.4535" filterUnits="userSpaceOnUse" color-interpolation-filters="sRGB">
<feFlood flood-opacity="0" result="BackgroundImageFix"/>
<feColorMatrix in="SourceAlpha" type="matrix" values="0 0 0 0 0 0 0 0 0 0 0 0 0 0 0 0 0 0 127 0" result="hardAlpha"/>
<feOffset/>
<feGaussianBlur stdDeviation="2.84983"/>
<feComposite in2="hardAlpha" operator="out"/>
<feColorMatrix type="matrix" values="0 0 0 0 0 0 0 0 0 0.301471 0 0 0 0 0.75 0 0 0 0.3 0"/>
<feBlend mode="normal" in2="BackgroundImageFix" result="effect1_dropShadow_537_5126"/>
<feBlend mode="normal" in="SourceGraphic" in2="effect1_dropShadow_537_5126" result="shape"/>
<feColorMatrix in="SourceAlpha" type="matrix" values="0 0 0 0 0 0 0 0 0 0 0 0 0 0 0 0 0 0 127 0" result="hardAlpha"/>
<feOffset dy="5.69967"/>
<feGaussianBlur stdDeviation="2.84983"/>
<feComposite in2="hardAlpha" operator="arithmetic" k2="-1" k3="1"/>
<feColorMatrix type="matrix" values="0 0 0 0 0 0 0 0 0 0.301961 0 0 0 0 0.74902 0 0 0 0.25 0"/>
<feBlend mode="normal" in2="shape" result="effect2_innerShadow_537_5126"/>
</filter>
<filter id="filter23_di_537_5126" x="349.809" y="143.145" width="26.6103" height="28.7431" filterUnits="userSpaceOnUse" color-interpolation-filters="sRGB">
<feFlood flood-opacity="0" result="BackgroundImageFix"/>
<feColorMatrix in="SourceAlpha" type="matrix" values="0 0 0 0 0 0 0 0 0 0 0 0 0 0 0 0 0 0 127 0" result="hardAlpha"/>
<feOffset/>
<feGaussianBlur stdDeviation="2.84983"/>
<feComposite in2="hardAlpha" operator="out"/>
<feColorMatrix type="matrix" values="0 0 0 0 0 0 0 0 0 0.301471 0 0 0 0 0.75 0 0 0 0.3 0"/>
<feBlend mode="normal" in2="BackgroundImageFix" result="effect1_dropShadow_537_5126"/>
<feBlend mode="normal" in="SourceGraphic" in2="effect1_dropShadow_537_5126" result="shape"/>
<feColorMatrix in="SourceAlpha" type="matrix" values="0 0 0 0 0 0 0 0 0 0 0 0 0 0 0 0 0 0 127 0" result="hardAlpha"/>
<feOffset dy="5.69967"/>
<feGaussianBlur stdDeviation="2.84983"/>
<feComposite in2="hardAlpha" operator="arithmetic" k2="-1" k3="1"/>
<feColorMatrix type="matrix" values="0 0 0 0 0 0 0 0 0 0.301961 0 0 0 0 0.74902 0 0 0 0.25 0"/>
<feBlend mode="normal" in2="shape" result="effect2_innerShadow_537_5126"/>
</filter>
<filter id="filter24_d_537_5126" x="174.396" y="77.0598" width="36.0532" height="38.4042" filterUnits="userSpaceOnUse" color-interpolation-filters="sRGB">
<feFlood flood-opacity="0" result="BackgroundImageFix"/>
<feColorMatrix in="SourceAlpha" type="matrix" values="0 0 0 0 0 0 0 0 0 0 0 0 0 0 0 0 0 0 127 0" result="hardAlpha"/>
<feOffset/>
<feGaussianBlur stdDeviation="5.21373"/>
<feComposite in2="hardAlpha" operator="out"/>
<feColorMatrix type="matrix" values="0 0 0 0 0 0 0 0 0 0.301471 0 0 0 0 0.75 0 0 0 1 0"/>
<feBlend mode="normal" in2="BackgroundImageFix" result="effect1_dropShadow_537_5126"/>
<feBlend mode="normal" in="SourceGraphic" in2="effect1_dropShadow_537_5126" result="shape"/>
</filter>
<filter id="filter25_d_537_5126" x="456.098" y="73.6579" width="82.9772" height="93.8331" filterUnits="userSpaceOnUse" color-interpolation-filters="sRGB">
<feFlood flood-opacity="0" result="BackgroundImageFix"/>
<feColorMatrix in="SourceAlpha" type="matrix" values="0 0 0 0 0 0 0 0 0 0 0 0 0 0 0 0 0 0 127 0" result="hardAlpha"/>
<feOffset/>
<feGaussianBlur stdDeviation="3.20083"/>
<feComposite in2="hardAlpha" operator="out"/>
<feColorMatrix type="matrix" values="0 0 0 0 0 0 0 0 0 0.301471 0 0 0 0 0.75 0 0 0 1 0"/>
<feBlend mode="normal" in2="BackgroundImageFix" result="effect1_dropShadow_537_5126"/>
<feBlend mode="normal" in="SourceGraphic" in2="effect1_dropShadow_537_5126" result="shape"/>
</filter>
<filter id="filter26_d_537_5126" x="532.315" y="62.3732" width="22.922" height="24.4874" filterUnits="userSpaceOnUse" color-interpolation-filters="sRGB">
<feFlood flood-opacity="0" result="BackgroundImageFix"/>
<feColorMatrix in="SourceAlpha" type="matrix" values="0 0 0 0 0 0 0 0 0 0 0 0 0 0 0 0 0 0 127 0" result="hardAlpha"/>
<feOffset/>
<feGaussianBlur stdDeviation="3.20083"/>
<feComposite in2="hardAlpha" operator="out"/>
<feColorMatrix type="matrix" values="0 0 0 0 0 0 0 0 0 0.301471 0 0 0 0 0.75 0 0 0 1 0"/>
<feBlend mode="normal" in2="BackgroundImageFix" result="effect1_dropShadow_537_5126"/>
<feBlend mode="normal" in="SourceGraphic" in2="effect1_dropShadow_537_5126" result="shape"/>
</filter>
<filter id="filter27_d_537_5126" x="535.564" y="158.498" width="22.0968" height="22.0963" filterUnits="userSpaceOnUse" color-interpolation-filters="sRGB">
<feFlood flood-opacity="0" result="BackgroundImageFix"/>
<feColorMatrix in="SourceAlpha" type="matrix" values="0 0 0 0 0 0 0 0 0 0 0 0 0 0 0 0 0 0 127 0" result="hardAlpha"/>
<feOffset/>
<feGaussianBlur stdDeviation="3.20083"/>
<feComposite in2="hardAlpha" operator="out"/>
<feColorMatrix type="matrix" values="0 0 0 0 0 0 0 0 0 0.301471 0 0 0 0 0.75 0 0 0 1 0"/>
<feBlend mode="normal" in2="BackgroundImageFix" result="effect1_dropShadow_537_5126"/>
<feBlend mode="normal" in="SourceGraphic" in2="effect1_dropShadow_537_5126" result="shape"/>
</filter>
<filter id="filter28_d_537_5126" x="440.093" y="153.414" width="18.4377" height="20.4782" filterUnits="userSpaceOnUse" color-interpolation-filters="sRGB">
<feFlood flood-opacity="0" result="BackgroundImageFix"/>
<feColorMatrix in="SourceAlpha" type="matrix" values="0 0 0 0 0 0 0 0 0 0 0 0 0 0 0 0 0 0 127 0" result="hardAlpha"/>
<feOffset/>
<feGaussianBlur stdDeviation="1.31219"/>
<feComposite in2="hardAlpha" operator="out"/>
<feColorMatrix type="matrix" values="0 0 0 0 0 0 0 0 0 0.301471 0 0 0 0 0.75 0 0 0 0.3 0"/>
<feBlend mode="normal" in2="BackgroundImageFix" result="effect1_dropShadow_537_5126"/>
<feBlend mode="normal" in="SourceGraphic" in2="effect1_dropShadow_537_5126" result="shape"/>
</filter>
<filter id="filter29_d_537_5126" x="457.075" y="66.2106" width="14.9314" height="16.4294" filterUnits="userSpaceOnUse" color-interpolation-filters="sRGB">
<feFlood flood-opacity="0" result="BackgroundImageFix"/>
<feColorMatrix in="SourceAlpha" type="matrix" values="0 0 0 0 0 0 0 0 0 0 0 0 0 0 0 0 0 0 127 0" result="hardAlpha"/>
<feOffset/>
<feGaussianBlur stdDeviation="1.31219"/>
<feComposite in2="hardAlpha" operator="out"/>
<feColorMatrix type="matrix" values="0 0 0 0 0 0 0 0 0 0.301471 0 0 0 0 0.75 0 0 0 0.3 0"/>
<feBlend mode="normal" in2="BackgroundImageFix" result="effect1_dropShadow_537_5126"/>
<feBlend mode="normal" in="SourceGraphic" in2="effect1_dropShadow_537_5126" result="shape"/>
</filter>
<filter id="filter30_d_537_5126" x="541.067" y="100.298" width="17.1019" height="16.3548" filterUnits="userSpaceOnUse" color-interpolation-filters="sRGB">
<feFlood flood-opacity="0" result="BackgroundImageFix"/>
<feColorMatrix in="SourceAlpha" type="matrix" values="0 0 0 0 0 0 0 0 0 0 0 0 0 0 0 0 0 0 127 0" result="hardAlpha"/>
<feOffset dy="-0.87479"/>
<feGaussianBlur stdDeviation="2.18698"/>
<feComposite in2="hardAlpha" operator="out"/>
<feColorMatrix type="matrix" values="0 0 0 0 0 0 0 0 0 0.301471 0 0 0 0 0.75 0 0 0 1 0"/>
<feBlend mode="normal" in2="BackgroundImageFix" result="effect1_dropShadow_537_5126"/>
<feBlend mode="normal" in="SourceGraphic" in2="effect1_dropShadow_537_5126" result="shape"/>
</filter>
<filter id="filter31_di_537_5126" x="425.768" y="120.77" width="18.1155" height="17.0833" filterUnits="userSpaceOnUse" color-interpolation-filters="sRGB">
<feFlood flood-opacity="0" result="BackgroundImageFix"/>
<feColorMatrix in="SourceAlpha" type="matrix" values="0 0 0 0 0 0 0 0 0 0 0 0 0 0 0 0 0 0 127 0" result="hardAlpha"/>
<feOffset/>
<feGaussianBlur stdDeviation="1.74958"/>
<feComposite in2="hardAlpha" operator="out"/>
<feColorMatrix type="matrix" values="0 0 0 0 0 0 0 0 0 0.301471 0 0 0 0 0.75 0 0 0 0.3 0"/>
<feBlend mode="normal" in2="BackgroundImageFix" result="effect1_dropShadow_537_5126"/>
<feBlend mode="normal" in="SourceGraphic" in2="effect1_dropShadow_537_5126" result="shape"/>
<feColorMatrix in="SourceAlpha" type="matrix" values="0 0 0 0 0 0 0 0 0 0 0 0 0 0 0 0 0 0 127 0" result="hardAlpha"/>
<feOffset dy="3.49916"/>
<feGaussianBlur stdDeviation="1.74958"/>
<feComposite in2="hardAlpha" operator="arithmetic" k2="-1" k3="1"/>
<feColorMatrix type="matrix" values="0 0 0 0 0 0 0 0 0 0.301961 0 0 0 0 0.74902 0 0 0 0.25 0"/>
<feBlend mode="normal" in2="shape" result="effect2_innerShadow_537_5126"/>
</filter>
<filter id="filter32_di_537_5126" x="430.149" y="108.032" width="14.5603" height="14.3264" filterUnits="userSpaceOnUse" color-interpolation-filters="sRGB">
<feFlood flood-opacity="0" result="BackgroundImageFix"/>
<feColorMatrix in="SourceAlpha" type="matrix" values="0 0 0 0 0 0 0 0 0 0 0 0 0 0 0 0 0 0 127 0" result="hardAlpha"/>
<feOffset/>
<feGaussianBlur stdDeviation="1.74958"/>
<feComposite in2="hardAlpha" operator="out"/>
<feColorMatrix type="matrix" values="0 0 0 0 0 0 0 0 0 0.301471 0 0 0 0 0.75 0 0 0 0.3 0"/>
<feBlend mode="normal" in2="BackgroundImageFix" result="effect1_dropShadow_537_5126"/>
<feBlend mode="normal" in="SourceGraphic" in2="effect1_dropShadow_537_5126" result="shape"/>
<feColorMatrix in="SourceAlpha" type="matrix" values="0 0 0 0 0 0 0 0 0 0 0 0 0 0 0 0 0 0 127 0" result="hardAlpha"/>
<feOffset dy="3.49916"/>
<feGaussianBlur stdDeviation="1.74958"/>
<feComposite in2="hardAlpha" operator="arithmetic" k2="-1" k3="1"/>
<feColorMatrix type="matrix" values="0 0 0 0 0 0 0 0 0 0.301961 0 0 0 0 0.74902 0 0 0 0.25 0"/>
<feBlend mode="normal" in2="shape" result="effect2_innerShadow_537_5126"/>
</filter>
<filter id="filter33_di_537_5126" x="448.132" y="80.1927" width="12.8753" height="12.8753" filterUnits="userSpaceOnUse" color-interpolation-filters="sRGB">
<feFlood flood-opacity="0" result="BackgroundImageFix"/>
<feColorMatrix in="SourceAlpha" type="matrix" values="0 0 0 0 0 0 0 0 0 0 0 0 0 0 0 0 0 0 127 0" result="hardAlpha"/>
<feOffset/>
<feGaussianBlur stdDeviation="1.74958"/>
<feComposite in2="hardAlpha" operator="out"/>
<feColorMatrix type="matrix" values="0 0 0 0 0 0 0 0 0 0.301471 0 0 0 0 0.75 0 0 0 0.3 0"/>
<feBlend mode="normal" in2="BackgroundImageFix" result="effect1_dropShadow_537_5126"/>
<feBlend mode="normal" in="SourceGraphic" in2="effect1_dropShadow_537_5126" result="shape"/>
<feColorMatrix in="SourceAlpha" type="matrix" values="0 0 0 0 0 0 0 0 0 0 0 0 0 0 0 0 0 0 127 0" result="hardAlpha"/>
<feOffset dy="3.49916"/>
<feGaussianBlur stdDeviation="1.74958"/>
<feComposite in2="hardAlpha" operator="arithmetic" k2="-1" k3="1"/>
<feColorMatrix type="matrix" values="0 0 0 0 0 0 0 0 0 0.301961 0 0 0 0 0.74902 0 0 0 0.25 0"/>
<feBlend mode="normal" in2="shape" result="effect2_innerShadow_537_5126"/>
</filter>
<filter id="filter34_di_537_5126" x="545.572" y="110.625" width="14.3846" height="13.802" filterUnits="userSpaceOnUse" color-interpolation-filters="sRGB">
<feFlood flood-opacity="0" result="BackgroundImageFix"/>
<feColorMatrix in="SourceAlpha" type="matrix" values="0 0 0 0 0 0 0 0 0 0 0 0 0 0 0 0 0 0 127 0" result="hardAlpha"/>
<feOffset/>
<feGaussianBlur stdDeviation="1.74958"/>
<feComposite in2="hardAlpha" operator="out"/>
<feColorMatrix type="matrix" values="0 0 0 0 0 0 0 0 0 0.301471 0 0 0 0 0.75 0 0 0 0.3 0"/>
<feBlend mode="normal" in2="BackgroundImageFix" result="effect1_dropShadow_537_5126"/>
<feBlend mode="normal" in="SourceGraphic" in2="effect1_dropShadow_537_5126" result="shape"/>
<feColorMatrix in="SourceAlpha" type="matrix" values="0 0 0 0 0 0 0 0 0 0 0 0 0 0 0 0 0 0 127 0" result="hardAlpha"/>
<feOffset dy="3.49916"/>
<feGaussianBlur stdDeviation="1.74958"/>
<feComposite in2="hardAlpha" operator="arithmetic" k2="-1" k3="1"/>
<feColorMatrix type="matrix" values="0 0 0 0 0 0 0 0 0 0.301961 0 0 0 0 0.74902 0 0 0 0.25 0"/>
<feBlend mode="normal" in2="shape" result="effect2_innerShadow_537_5126"/>
</filter>
<filter id="filter35_di_537_5126" x="545.25" y="119.574" width="12.8972" height="12.4485" filterUnits="userSpaceOnUse" color-interpolation-filters="sRGB">
<feFlood flood-opacity="0" result="BackgroundImageFix"/>
<feColorMatrix in="SourceAlpha" type="matrix" values="0 0 0 0 0 0 0 0 0 0 0 0 0 0 0 0 0 0 127 0" result="hardAlpha"/>
<feOffset/>
<feGaussianBlur stdDeviation="1.74958"/>
<feComposite in2="hardAlpha" operator="out"/>
<feColorMatrix type="matrix" values="0 0 0 0 0 0 0 0 0 0.301471 0 0 0 0 0.75 0 0 0 0.3 0"/>
<feBlend mode="normal" in2="BackgroundImageFix" result="effect1_dropShadow_537_5126"/>
<feBlend mode="normal" in="SourceGraphic" in2="effect1_dropShadow_537_5126" result="shape"/>
<feColorMatrix in="SourceAlpha" type="matrix" values="0 0 0 0 0 0 0 0 0 0 0 0 0 0 0 0 0 0 127 0" result="hardAlpha"/>
<feOffset dy="3.49916"/>
<feGaussianBlur stdDeviation="1.74958"/>
<feComposite in2="hardAlpha" operator="arithmetic" k2="-1" k3="1"/>
<feColorMatrix type="matrix" values="0 0 0 0 0 0 0 0 0 0.301961 0 0 0 0 0.74902 0 0 0 0.25 0"/>
<feBlend mode="normal" in2="shape" result="effect2_innerShadow_537_5126"/>
</filter>
<filter id="filter36_d_537_5126" x="434.242" y="126.87" width="23.5538" height="22.4703" filterUnits="userSpaceOnUse" color-interpolation-filters="sRGB">
<feFlood flood-opacity="0" result="BackgroundImageFix"/>
<feColorMatrix in="SourceAlpha" type="matrix" values="0 0 0 0 0 0 0 0 0 0 0 0 0 0 0 0 0 0 127 0" result="hardAlpha"/>
<feOffset/>
<feGaussianBlur stdDeviation="3.20083"/>
<feComposite in2="hardAlpha" operator="out"/>
<feColorMatrix type="matrix" values="0 0 0 0 0 0 0 0 0 0.301471 0 0 0 0 0.75 0 0 0 1 0"/>
<feBlend mode="normal" in2="BackgroundImageFix" result="effect1_dropShadow_537_5126"/>
<feBlend mode="normal" in="SourceGraphic" in2="effect1_dropShadow_537_5126" result="shape"/>
</filter>
<linearGradient id="paint0_linear_537_5126" x1="77.5783" y1="162.363" x2="75.4187" y2="206.945" gradientUnits="userSpaceOnUse">
<stop stop-color="#0052CC" stop-opacity="0"/>
<stop offset="0.0001" stop-color="#0052CC" stop-opacity="0.01"/>
<stop offset="1" stop-color="#0052CC" stop-opacity="0.67"/>
</linearGradient>
<linearGradient id="paint1_linear_537_5126" x1="76.9482" y1="144.995" x2="77.6569" y2="200.683" gradientUnits="userSpaceOnUse">
<stop stop-color="#0052CC" stop-opacity="0"/>
<stop offset="1" stop-color="#0052CC" stop-opacity="0.7"/>
</linearGradient>
<radialGradient id="paint2_radial_537_5126" cx="0" cy="0" r="1" gradientUnits="userSpaceOnUse" gradientTransform="translate(83.746 187.108) rotate(-90) scale(50.4735 173.467)">
<stop stop-color="#3184FF"/>
<stop offset="0.630148" stop-color="#283B65"/>
<stop offset="0.894403" stop-color="#505C71"/>
</radialGradient>
<linearGradient id="paint3_linear_537_5126" x1="76.1012" y1="181.225" x2="76.1012" y2="208.696" gradientUnits="userSpaceOnUse">
<stop stop-color="#66A3FF"/>
<stop offset="1" stop-color="#0061F1" stop-opacity="0"/>
</linearGradient>
<linearGradient id="paint4_linear_537_5126" x1="14.0448" y1="150.123" x2="107.929" y2="71.6149" gradientUnits="userSpaceOnUse">
<stop stop-color="#0061F1"/>
<stop offset="1" stop-color="#004DBF" stop-opacity="0"/>
</linearGradient>
<linearGradient id="paint5_linear_537_5126" x1="129.197" y1="106.658" x2="90.0312" y2="161.448" gradientUnits="userSpaceOnUse">
<stop stop-color="#66A3FF"/>
<stop offset="0.111944" stop-color="#0061F1" stop-opacity="0.68"/>
<stop offset="1" stop-color="#0061F1" stop-opacity="0"/>
</linearGradient>
<linearGradient id="paint6_linear_537_5126" x1="285.972" y1="174.893" x2="282.454" y2="247.511" gradientUnits="userSpaceOnUse">
<stop stop-color="#0052CC" stop-opacity="0"/>
<stop offset="0.0001" stop-color="#0052CC" stop-opacity="0.01"/>
<stop offset="1" stop-color="#0052CC" stop-opacity="0.67"/>
</linearGradient>
<linearGradient id="paint7_linear_537_5126" x1="284.947" y1="146.603" x2="286.101" y2="237.312" gradientUnits="userSpaceOnUse">
<stop stop-color="#0052CC" stop-opacity="0"/>
<stop offset="1" stop-color="#0052CC" stop-opacity="0.7"/>
</linearGradient>
<radialGradient id="paint8_radial_537_5126" cx="0" cy="0" r="1" gradientUnits="userSpaceOnUse" gradientTransform="translate(296.018 215.199) rotate(-90) scale(82.2147 282.555)">
<stop stop-color="#3184FF"/>
<stop offset="0.630148" stop-color="#283B65"/>
<stop offset="0.894403" stop-color="#505C71"/>
</radialGradient>
<linearGradient id="paint9_linear_537_5126" x1="283.566" y1="205.616" x2="283.566" y2="250.363" gradientUnits="userSpaceOnUse">
<stop stop-color="#66A3FF"/>
<stop offset="1" stop-color="#0061F1" stop-opacity="0"/>
</linearGradient>
<linearGradient id="paint10_linear_537_5126" x1="167.26" y1="105.696" x2="360.931" y2="58.4688" gradientUnits="userSpaceOnUse">
<stop stop-color="#0061F1"/>
<stop offset="1" stop-color="#004DBF" stop-opacity="0"/>
</linearGradient>
<linearGradient id="paint11_linear_537_5126" x1="393.109" y1="104.771" x2="192.58" y2="175.205" gradientUnits="userSpaceOnUse">
<stop stop-color="#66A3FF"/>
<stop offset="0.111944" stop-color="#0061F1" stop-opacity="0.68"/>
<stop offset="1" stop-color="#0061F1" stop-opacity="0"/>
</linearGradient>
<linearGradient id="paint12_linear_537_5126" x1="498.248" y1="162.363" x2="496.088" y2="206.945" gradientUnits="userSpaceOnUse">
<stop stop-color="#0052CC" stop-opacity="0"/>
<stop offset="0.0001" stop-color="#0052CC" stop-opacity="0.01"/>
<stop offset="1" stop-color="#0052CC" stop-opacity="0.67"/>
</linearGradient>
<linearGradient id="paint13_linear_537_5126" x1="497.619" y1="144.995" x2="498.327" y2="200.683" gradientUnits="userSpaceOnUse">
<stop stop-color="#0052CC" stop-opacity="0"/>
<stop offset="1" stop-color="#0052CC" stop-opacity="0.7"/>
</linearGradient>
<radialGradient id="paint14_radial_537_5126" cx="0" cy="0" r="1" gradientUnits="userSpaceOnUse" gradientTransform="translate(504.416 187.108) rotate(-90) scale(50.4735 173.467)">
<stop stop-color="#3184FF"/>
<stop offset="0.630148" stop-color="#283B65"/>
<stop offset="0.894403" stop-color="#505C71"/>
</radialGradient>
<linearGradient id="paint15_linear_537_5126" x1="496.772" y1="181.225" x2="496.772" y2="208.696" gradientUnits="userSpaceOnUse">
<stop stop-color="#66A3FF"/>
<stop offset="1" stop-color="#0061F1" stop-opacity="0"/>
</linearGradient>
<linearGradient id="paint16_linear_537_5126" x1="434.715" y1="150.123" x2="528.599" y2="71.6149" gradientUnits="userSpaceOnUse">
<stop stop-color="#0061F1"/>
<stop offset="1" stop-color="#004DBF" stop-opacity="0"/>
</linearGradient>
<linearGradient id="paint17_linear_537_5126" x1="549.868" y1="106.658" x2="510.702" y2="161.448" gradientUnits="userSpaceOnUse">
<stop stop-color="#66A3FF"/>
<stop offset="0.111944" stop-color="#0061F1" stop-opacity="0.68"/>
<stop offset="1" stop-color="#0061F1" stop-opacity="0"/>
</linearGradient>
</defs>
</svg>
