<svg width="850" height="302" viewBox="0 0 850 302" fill="none" xmlns="http://www.w3.org/2000/svg">
<g opacity="0.6">
<path d="M638.831 281.672L638.834 281.665L764.096 11.4778L764.1 11.4679L766.775 5.5302L638.831 281.672ZM638.831 281.672C638.028 283.444 636.734 284.947 635.102 286.006C634.228 286.573 633.208 287.175 632.164 287.635C631.11 288.099 630.1 288.387 629.228 288.393C629.226 288.393 629.225 288.393 629.223 288.393L507.257 288.393L507.251 288.393M638.831 281.672L507.251 288.393M507.251 288.393C506.471 288.398 505.703 288.202 505.021 287.824C504.34 287.445 503.767 286.897 503.36 286.232C502.952 285.568 502.723 284.809 502.694 284.03C502.666 283.253 502.838 282.482 503.195 281.791C503.196 281.789 503.197 281.787 503.197 281.786L650.63 4.77879L650.634 4.77122M507.251 288.393L650.634 4.77122M650.634 4.77122L650.638 4.76358M650.634 4.77122L650.638 4.76358M650.638 4.76358C651.205 3.65363 652.069 2.72272 653.133 2.0746C654.198 1.42647 655.422 1.08659 656.668 1.09287H656.673M650.638 4.76358L656.673 1.09287M656.673 1.09287H763.724C764.271 1.09287 764.635 1.18107 764.911 1.29394C765.199 1.41154 765.438 1.57313 765.754 1.80198L766.341 0.992559M656.673 1.09287L766.341 0.992559M766.341 0.992559L765.754 1.80198C766.21 2.13338 766.46 2.49901 766.776 2.9923M766.341 0.992559L766.776 2.9923M766.776 2.9923C766.949 3.26192 767.039 3.71837 767.083 4.31502M766.776 2.9923L767.083 4.31502M767.083 4.31502C767.108 4.65207 767.004 5.01847 766.776 5.52842L767.083 4.31502Z" fill="url(#paint0_linear_553_5781)"/>
<path d="M638.831 281.672L638.834 281.665L764.096 11.4778L764.1 11.4679L766.775 5.5302L638.831 281.672ZM638.831 281.672C638.028 283.444 636.734 284.947 635.102 286.006C634.228 286.573 633.208 287.175 632.164 287.635C631.11 288.099 630.1 288.387 629.228 288.393C629.226 288.393 629.225 288.393 629.223 288.393L507.257 288.393L507.251 288.393M638.831 281.672L507.251 288.393M507.251 288.393C506.471 288.398 505.703 288.202 505.021 287.824C504.34 287.445 503.767 286.897 503.36 286.232C502.952 285.568 502.723 284.809 502.694 284.03C502.666 283.253 502.838 282.482 503.195 281.791C503.196 281.789 503.197 281.787 503.197 281.786L650.63 4.77879L650.634 4.77122M507.251 288.393L650.634 4.77122M650.634 4.77122L650.638 4.76358M650.634 4.77122L650.638 4.76358M650.638 4.76358C651.205 3.65363 652.069 2.72272 653.133 2.0746C654.198 1.42647 655.422 1.08659 656.668 1.09287H656.673M650.638 4.76358L656.673 1.09287M656.673 1.09287H763.724C764.271 1.09287 764.635 1.18107 764.911 1.29394C765.199 1.41154 765.438 1.57313 765.754 1.80198L766.341 0.992559M656.673 1.09287L766.341 0.992559M766.341 0.992559L765.754 1.80198C766.21 2.13338 766.46 2.49901 766.776 2.9923M766.341 0.992559L766.776 2.9923M766.776 2.9923C766.949 3.26192 767.039 3.71837 767.083 4.31502M766.776 2.9923L767.083 4.31502M767.083 4.31502C767.108 4.65207 767.004 5.01847 766.776 5.52842L767.083 4.31502Z" stroke="url(#paint1_linear_553_5781)" stroke-opacity="0.2" stroke-width="2"/>
<path d="M638.831 281.672L638.834 281.665L764.096 11.4778L764.1 11.4679L766.775 5.5302L638.831 281.672ZM638.831 281.672C638.028 283.444 636.734 284.947 635.102 286.006C634.228 286.573 633.208 287.175 632.164 287.635C631.11 288.099 630.1 288.387 629.228 288.393C629.226 288.393 629.225 288.393 629.223 288.393L507.257 288.393L507.251 288.393M638.831 281.672L507.251 288.393M507.251 288.393C506.471 288.398 505.703 288.202 505.021 287.824C504.34 287.445 503.767 286.897 503.36 286.232C502.952 285.568 502.723 284.809 502.694 284.03C502.666 283.253 502.838 282.482 503.195 281.791C503.196 281.789 503.197 281.787 503.197 281.786L650.63 4.77879L650.634 4.77122M507.251 288.393L650.634 4.77122M650.634 4.77122L650.638 4.76358M650.634 4.77122L650.638 4.76358M650.638 4.76358C651.205 3.65363 652.069 2.72272 653.133 2.0746C654.198 1.42647 655.422 1.08659 656.668 1.09287H656.673M650.638 4.76358L656.673 1.09287M656.673 1.09287H763.724C764.271 1.09287 764.635 1.18107 764.911 1.29394C765.199 1.41154 765.438 1.57313 765.754 1.80198L766.341 0.992559M656.673 1.09287L766.341 0.992559M766.341 0.992559L765.754 1.80198C766.21 2.13338 766.46 2.49901 766.776 2.9923M766.341 0.992559L766.776 2.9923M766.776 2.9923C766.949 3.26192 767.039 3.71837 767.083 4.31502M766.776 2.9923L767.083 4.31502M767.083 4.31502C767.108 4.65207 767.004 5.01847 766.776 5.52842L767.083 4.31502Z" stroke="url(#paint2_linear_553_5781)" stroke-width="2"/>
</g>
<g opacity="0.6">
<path d="M134.639 58.2639C135.161 57.4809 136.101 56.9511 136.967 56.9511H556.204C557.497 56.9511 558.077 58.1 557.388 59.2958L444.805 254.589C444.311 255.445 443.311 256.049 442.386 256.049H5.36537C4.00593 256.049 3.45269 254.787 4.27328 253.558L134.639 58.2639Z" fill="url(#paint3_linear_553_5781)"/>
<path d="M134.639 58.2639C135.161 57.4809 136.101 56.9511 136.967 56.9511H556.204C557.497 56.9511 558.077 58.1 557.388 59.2958L444.805 254.589C444.311 255.445 443.311 256.049 442.386 256.049H5.36537C4.00593 256.049 3.45269 254.787 4.27328 253.558L134.639 58.2639Z" stroke="url(#paint4_linear_553_5781)" stroke-opacity="0.2" stroke-width="2"/>
<path d="M134.639 58.2639C135.161 57.4809 136.101 56.9511 136.967 56.9511H556.204C557.497 56.9511 558.077 58.1 557.388 59.2958L444.805 254.589C444.311 255.445 443.311 256.049 442.386 256.049H5.36537C4.00593 256.049 3.45269 254.787 4.27328 253.558L134.639 58.2639Z" stroke="url(#paint5_linear_553_5781)" stroke-width="2"/>
</g>
<rect x="53.4414" y="278.362" width="126.206" height="23.6028" rx="3.30138" fill="url(#paint6_linear_553_5781)"/>
<path d="M66.0779 291.31L66.1899 288.58H66.0639L64.2439 293.606L62.4239 288.58H62.2979L62.4099 291.31V295.664H60.5899V285.892H63.0679L64.2719 289.182H64.3839L65.5879 285.892H67.8979V295.664H66.0779V291.31ZM69.7685 295.664V294.11H71.8685V287.446H69.7685V285.892H76.0685V287.446H73.9685V294.11H76.0685V295.664H69.7685ZM81.817 295.832C80.5103 295.832 79.5397 295.393 78.905 294.516C78.2797 293.629 77.967 292.383 77.967 290.778C77.967 289.172 78.2797 287.931 78.905 287.054C79.5397 286.167 80.5103 285.724 81.817 285.724C82.321 285.724 82.7643 285.794 83.147 285.934C83.539 286.064 83.875 286.251 84.155 286.494C84.435 286.736 84.6637 287.03 84.841 287.376C85.0277 287.721 85.1723 288.108 85.275 288.538L83.315 289.014C83.259 288.78 83.1937 288.566 83.119 288.37C83.0443 288.174 82.9463 288.006 82.825 287.866C82.713 287.726 82.5683 287.618 82.391 287.544C82.223 287.46 82.0177 287.418 81.775 287.418C81.2057 287.418 80.7997 287.642 80.557 288.09C80.3237 288.528 80.207 289.14 80.207 289.924V291.632C80.207 292.416 80.3237 293.032 80.557 293.48C80.7997 293.918 81.2057 294.138 81.775 294.138C82.2603 294.138 82.6103 293.988 82.825 293.69C83.049 293.391 83.2123 293.008 83.315 292.542L85.275 293.018C85.1723 293.447 85.0277 293.834 84.841 294.18C84.6637 294.525 84.435 294.824 84.155 295.076C83.875 295.318 83.539 295.505 83.147 295.636C82.7643 295.766 82.321 295.832 81.817 295.832ZM89.2035 295.664H87.1315V285.892H90.9115C91.3875 285.892 91.8122 285.966 92.1855 286.116C92.5589 286.256 92.8715 286.461 93.1235 286.732C93.3849 287.002 93.5809 287.329 93.7115 287.712C93.8422 288.094 93.9075 288.524 93.9075 289C93.9075 289.69 93.7582 290.283 93.4595 290.778C93.1609 291.272 92.7362 291.599 92.1855 291.758L94.1035 295.664H91.8075L90.1695 292.038H89.2035V295.664ZM90.4075 290.414C90.9022 290.414 91.2429 290.32 91.4295 290.134C91.6255 289.947 91.7235 289.639 91.7235 289.21V288.79C91.7235 288.36 91.6255 288.052 91.4295 287.866C91.2429 287.679 90.9022 287.586 90.4075 287.586H89.2035V290.414H90.4075ZM98.9421 295.832C97.6354 295.832 96.6694 295.388 96.0441 294.502C95.4281 293.615 95.1201 292.374 95.1201 290.778C95.1201 289.182 95.4281 287.94 96.0441 287.054C96.6694 286.167 97.6354 285.724 98.9421 285.724C100.249 285.724 101.21 286.167 101.826 287.054C102.451 287.94 102.764 289.182 102.764 290.778C102.764 292.374 102.451 293.615 101.826 294.502C101.21 295.388 100.249 295.832 98.9421 295.832ZM98.9421 294.138C99.5394 294.138 99.9501 293.918 100.174 293.48C100.407 293.032 100.524 292.411 100.524 291.618V289.924C100.524 289.14 100.407 288.528 100.174 288.09C99.9501 287.642 99.5394 287.418 98.9421 287.418C98.3447 287.418 97.9294 287.642 97.6961 288.09C97.4721 288.528 97.3601 289.14 97.3601 289.924V291.632C97.3601 292.416 97.4721 293.032 97.6961 293.48C97.9294 293.918 98.3447 294.138 98.9421 294.138ZM107.463 295.832C106.641 295.832 105.927 295.696 105.321 295.426C104.714 295.155 104.224 294.786 103.851 294.32L105.069 292.976C105.423 293.368 105.811 293.657 106.231 293.844C106.66 294.03 107.094 294.124 107.533 294.124C108.037 294.124 108.419 294.012 108.681 293.788C108.942 293.564 109.073 293.242 109.073 292.822C109.073 292.476 108.97 292.215 108.765 292.038C108.569 291.86 108.233 291.734 107.757 291.66L106.735 291.492C105.857 291.342 105.223 291.02 104.831 290.526C104.439 290.022 104.243 289.41 104.243 288.692C104.243 287.749 104.551 287.021 105.167 286.508C105.783 285.985 106.646 285.724 107.757 285.724C108.513 285.724 109.171 285.84 109.731 286.074C110.291 286.307 110.743 286.624 111.089 287.026L109.899 288.356C109.637 288.066 109.329 287.842 108.975 287.684C108.62 287.516 108.219 287.432 107.771 287.432C106.828 287.432 106.357 287.819 106.357 288.594C106.357 288.93 106.459 289.182 106.665 289.35C106.879 289.518 107.225 289.644 107.701 289.728L108.723 289.91C109.516 290.05 110.127 290.348 110.557 290.806C110.986 291.263 111.201 291.879 111.201 292.654C111.201 293.111 111.121 293.536 110.963 293.928C110.804 294.31 110.566 294.646 110.249 294.936C109.931 295.216 109.539 295.435 109.073 295.594C108.615 295.752 108.079 295.832 107.463 295.832ZM113.211 295.664V285.892H119.455V287.614H115.311V289.854H119.315V291.576H115.311V293.942H119.455V295.664H113.211ZM123.902 295.664H121.83V285.892H125.61C126.086 285.892 126.51 285.966 126.884 286.116C127.257 286.256 127.57 286.461 127.822 286.732C128.083 287.002 128.279 287.329 128.41 287.712C128.54 288.094 128.606 288.524 128.606 289C128.606 289.69 128.456 290.283 128.158 290.778C127.859 291.272 127.434 291.599 126.884 291.758L128.802 295.664H126.506L124.868 292.038H123.902V295.664ZM125.106 290.414C125.6 290.414 125.941 290.32 126.128 290.134C126.324 289.947 126.422 289.639 126.422 289.21V288.79C126.422 288.36 126.324 288.052 126.128 287.866C125.941 287.679 125.6 287.586 125.106 287.586H123.902V290.414H125.106ZM132.156 295.664L129.566 285.892H131.904L133.052 290.862L133.626 293.676H133.738L134.326 290.862L135.488 285.892H137.714L135.124 295.664H132.156ZM139.165 295.664V294.11H141.265V287.446H139.165V285.892H145.465V287.446H143.365V294.11H145.465V295.664H139.165ZM151.213 295.832C149.907 295.832 148.936 295.393 148.301 294.516C147.676 293.629 147.363 292.383 147.363 290.778C147.363 289.172 147.676 287.931 148.301 287.054C148.936 286.167 149.907 285.724 151.213 285.724C151.717 285.724 152.161 285.794 152.543 285.934C152.935 286.064 153.271 286.251 153.551 286.494C153.831 286.736 154.06 287.03 154.237 287.376C154.424 287.721 154.569 288.108 154.671 288.538L152.711 289.014C152.655 288.78 152.59 288.566 152.515 288.37C152.441 288.174 152.343 288.006 152.221 287.866C152.109 287.726 151.965 287.618 151.787 287.544C151.619 287.46 151.414 287.418 151.171 287.418C150.602 287.418 150.196 287.642 149.953 288.09C149.72 288.528 149.603 289.14 149.603 289.924V291.632C149.603 292.416 149.72 293.032 149.953 293.48C150.196 293.918 150.602 294.138 151.171 294.138C151.657 294.138 152.007 293.988 152.221 293.69C152.445 293.391 152.609 293.008 152.711 292.542L154.671 293.018C154.569 293.447 154.424 293.834 154.237 294.18C154.06 294.525 153.831 294.824 153.551 295.076C153.271 295.318 152.935 295.505 152.543 295.636C152.161 295.766 151.717 295.832 151.213 295.832ZM156.584 295.664V285.892H162.828V287.614H158.684V289.854H162.688V291.576H158.684V293.942H162.828V295.664H156.584ZM168.184 295.832C167.363 295.832 166.649 295.696 166.042 295.426C165.436 295.155 164.946 294.786 164.572 294.32L165.79 292.976C166.145 293.368 166.532 293.657 166.952 293.844C167.382 294.03 167.816 294.124 168.254 294.124C168.758 294.124 169.141 294.012 169.402 293.788C169.664 293.564 169.794 293.242 169.794 292.822C169.794 292.476 169.692 292.215 169.486 292.038C169.29 291.86 168.954 291.734 168.478 291.66L167.456 291.492C166.579 291.342 165.944 291.02 165.552 290.526C165.16 290.022 164.964 289.41 164.964 288.692C164.964 287.749 165.272 287.021 165.888 286.508C166.504 285.985 167.368 285.724 168.478 285.724C169.234 285.724 169.892 285.84 170.452 286.074C171.012 286.307 171.465 286.624 171.81 287.026L170.62 288.356C170.359 288.066 170.051 287.842 169.696 287.684C169.342 287.516 168.94 287.432 168.492 287.432C167.55 287.432 167.078 287.819 167.078 288.594C167.078 288.93 167.181 289.182 167.386 289.35C167.601 289.518 167.946 289.644 168.422 289.728L169.444 289.91C170.238 290.05 170.849 290.348 171.278 290.806C171.708 291.263 171.922 291.879 171.922 292.654C171.922 293.111 171.843 293.536 171.684 293.928C171.526 294.31 171.288 294.646 170.97 294.936C170.653 295.216 170.261 295.435 169.794 295.594C169.337 295.752 168.8 295.832 168.184 295.832Z" fill="url(#paint7_linear_553_5781)"/>
<path d="M185.809 111.219L144.715 183.136" stroke="#66A3FF" stroke-width="1.65069" stroke-miterlimit="10"/>
<path d="M309.043 111.219L267.959 183.136" stroke="#66A3FF" stroke-width="1.65069" stroke-miterlimit="10"/>
<path d="M431.809 111.219L390.715 183.136" stroke="#66A3FF" stroke-width="1.65069" stroke-miterlimit="10"/>
<path d="M356.996 86.7402C357.083 72.8886 337.703 61.5375 313.709 61.3868C289.715 61.2361 270.193 72.3428 270.106 86.1944C270.019 100.046 289.399 111.397 313.394 111.548C337.388 111.699 356.909 100.592 356.996 86.7402Z" stroke="#66A3FF" stroke-width="1.65069" stroke-miterlimit="10"/>
<path d="M355.891 81.687H392.496" stroke="#66A3FF" stroke-width="1.65069" stroke-miterlimit="10"/>
<path d="M307.807 204.366H343.549" stroke="#66A3FF" stroke-width="1.65069" stroke-miterlimit="10"/>
<path d="M185.809 204.366H223.51" stroke="#66A3FF" stroke-width="1.65069" stroke-miterlimit="10"/>
<path d="M235.407 87.539C235.494 73.6875 216.113 62.3364 192.119 62.1856C168.125 62.0349 148.603 73.1416 148.516 86.9932C148.429 100.845 167.81 112.196 191.804 112.347C215.798 112.497 235.319 101.391 235.407 87.539Z" stroke="#66A3FF" stroke-width="1.65069" stroke-miterlimit="10"/>
<path d="M429.725 210.074C429.812 196.222 410.431 184.871 386.437 184.72C362.443 184.57 342.921 195.676 342.834 209.528C342.747 223.379 362.128 234.731 386.122 234.881C410.116 235.032 429.638 223.925 429.725 210.074Z" stroke="#66A3FF" stroke-width="1.65069" stroke-miterlimit="10"/>
<path d="M308.908 210.08C308.995 196.228 289.614 184.877 265.62 184.727C241.626 184.576 222.104 195.683 222.017 209.534C221.93 223.386 241.31 234.737 265.305 234.888C289.299 235.038 308.82 223.932 308.908 210.08Z" stroke="#66A3FF" stroke-width="1.65069" stroke-miterlimit="10"/>
<path d="M186.903 210.078C186.99 196.226 167.609 184.875 143.615 184.724C119.621 184.573 100.099 195.68 100.012 209.532C99.9251 223.383 119.306 234.734 143.3 234.885C167.294 235.036 186.816 223.929 186.903 210.078Z" stroke="#66A3FF" stroke-width="1.65069" stroke-miterlimit="10"/>
<path d="M478.569 86.5444C478.656 72.6928 459.275 61.3418 435.281 61.191C411.287 61.0403 391.765 72.147 391.678 85.9986C391.591 99.8502 410.972 111.201 434.966 111.352C458.96 111.503 478.482 100.396 478.569 86.5444Z" stroke="#66A3FF" stroke-width="1.65069" stroke-miterlimit="10"/>
<path d="M234.717 81.687H271.49" stroke="#66A0F7" stroke-width="0.825346" stroke-miterlimit="10"/>
<path d="M638.789 194.874C628.349 200.908 611.349 200.87 600.825 194.799C590.301 188.728 589.392 173.081 599.888 167.048C610.384 161.014 629.821 161.923 640.345 167.985C650.869 174.046 649.266 188.85 638.789 194.874Z" fill="#6E798F"/>
<path d="M646.601 177.348C646.655 168.79 634.682 161.776 619.859 161.683C605.036 161.59 592.976 168.452 592.923 177.011C592.869 185.569 604.842 192.582 619.665 192.675C634.487 192.769 646.547 185.906 646.601 177.348Z" fill="url(#paint8_linear_553_5781)"/>
<path d="M638.789 181.992C628.349 188.025 611.349 187.988 600.825 181.917C590.301 175.846 589.392 160.19 599.888 154.166C610.384 148.141 629.821 149.041 640.345 155.102C650.869 161.164 649.266 175.967 638.789 181.992Z" fill="#6E798F"/>
<path d="M646.602 164.46C646.656 155.902 634.683 148.889 619.86 148.795C605.037 148.702 592.977 155.565 592.924 164.123C592.87 172.681 604.843 179.695 619.666 179.788C634.488 179.881 646.548 173.018 646.602 164.46Z" fill="url(#paint9_linear_553_5781)"/>
<path d="M638.789 169.109C628.349 175.134 611.349 175.105 600.825 169.025C590.301 162.944 589.392 147.307 599.888 141.283C610.384 135.259 629.821 136.149 640.345 142.22C650.869 148.291 649.266 163.076 638.789 169.109Z" fill="#6E798F"/>
<path d="M646.612 151.581C646.666 143.022 634.693 136.009 619.87 135.916C605.047 135.823 592.987 142.685 592.933 151.244C592.88 159.802 604.852 166.815 619.675 166.908C634.498 167.001 646.558 160.139 646.612 151.581Z" fill="url(#paint10_linear_553_5781)"/>
<path d="M603.505 182.16L602.465 181.561C602.303 181.441 602.17 181.286 602.078 181.108C601.985 180.929 601.935 180.731 601.931 180.53V177.719C601.931 177.316 602.174 177.138 602.465 177.307L603.505 177.907C603.669 178.024 603.804 178.179 603.899 178.358C603.993 178.537 604.044 178.735 604.049 178.937V181.748C604.049 182.151 603.805 182.338 603.505 182.16Z" fill="url(#paint11_linear_553_5781)"/>
<path d="M603.505 169.185L602.465 168.585C602.302 168.467 602.168 168.312 602.076 168.133C601.983 167.954 601.933 167.756 601.931 167.554V164.744C601.931 164.341 602.174 164.163 602.465 164.331L603.505 164.931C603.669 165.049 603.804 165.203 603.899 165.382C603.993 165.561 604.044 165.76 604.049 165.962V168.772C604.049 169.175 603.805 169.363 603.505 169.185Z" fill="url(#paint12_linear_553_5781)"/>
<path d="M603.505 194.912L602.465 194.303C602.303 194.186 602.17 194.032 602.078 193.855C601.985 193.678 601.935 193.482 601.931 193.282V190.471C601.931 190.077 602.174 189.89 602.465 190.068L603.505 190.668C603.671 190.784 603.807 190.938 603.902 191.117C603.996 191.296 604.047 191.496 604.049 191.698V194.509C604.049 194.902 603.805 195.08 603.505 194.912Z" fill="url(#paint13_linear_553_5781)"/>
<path d="M676.096 127.005C665.656 133.029 648.656 133.001 638.132 126.93C627.608 120.859 626.699 105.203 637.195 99.1788C647.691 93.1545 667.127 94.0539 677.651 100.116C688.176 106.177 686.582 120.981 676.096 127.005Z" fill="#6E798F"/>
<path d="M683.884 109.475C683.937 100.917 671.965 93.9032 657.142 93.8101C642.319 93.717 630.259 100.579 630.205 109.138C630.151 117.696 642.124 124.709 656.947 124.802C671.77 124.895 683.83 118.033 683.884 109.475Z" fill="url(#paint14_linear_553_5781)"/>
<path d="M676.096 114.122C665.656 120.146 648.656 120.109 638.132 114.038C627.608 107.967 626.699 92.3202 637.195 86.2865C647.691 80.2528 667.127 81.1616 677.651 87.2234C688.176 93.2852 686.582 108.088 676.096 114.122Z" fill="#6E798F"/>
<path d="M683.884 96.5862C683.937 88.0279 671.965 81.0145 657.142 80.9214C642.319 80.8283 630.259 87.6907 630.205 96.249C630.151 104.807 642.124 111.821 656.947 111.914C671.77 112.007 683.83 105.144 683.884 96.5862Z" fill="url(#paint15_linear_553_5781)"/>
<path d="M676.096 101.23C665.656 107.264 648.656 107.227 638.132 101.155C627.608 95.0842 626.699 79.4379 637.195 73.4042C647.691 67.3705 667.127 68.2793 677.651 74.3411C688.176 80.4029 686.582 95.206 676.096 101.23Z" fill="#6E798F"/>
<path d="M683.883 83.7078C683.937 75.1495 671.964 68.1361 657.142 68.043C642.319 67.9499 630.259 74.8123 630.205 83.3706C630.151 91.9289 642.124 98.9422 656.947 99.0353C671.77 99.1284 683.83 92.2661 683.883 83.7078Z" fill="url(#paint16_linear_553_5781)"/>
<path d="M640.784 114.291L639.744 113.691C639.581 113.573 639.448 113.418 639.355 113.239C639.262 113.06 639.212 112.862 639.21 112.661V109.85C639.21 109.456 639.444 109.269 639.744 109.447L640.784 110.047C640.95 110.163 641.086 110.317 641.181 110.496C641.275 110.675 641.326 110.875 641.328 111.077V113.888C641.328 114.281 641.084 114.459 640.784 114.291Z" fill="url(#paint17_linear_553_5781)"/>
<path d="M640.786 101.315L639.727 100.715C639.563 100.597 639.43 100.442 639.337 100.263C639.245 100.085 639.195 99.8864 639.192 99.6849V96.8741C639.192 96.4806 639.427 96.3026 639.727 96.4713L640.767 97.0709C640.932 97.1882 641.067 97.3425 641.161 97.5215C641.256 97.7005 641.307 97.8992 641.31 98.1015V100.912C641.329 101.306 641.085 101.484 640.786 101.315Z" fill="url(#paint18_linear_553_5781)"/>
<path d="M640.784 127.033L639.744 126.434C639.579 126.317 639.445 126.163 639.352 125.983C639.259 125.804 639.21 125.605 639.21 125.403V122.592C639.21 122.189 639.444 122.011 639.744 122.18L640.784 122.78C640.949 122.898 641.083 123.052 641.178 123.231C641.272 123.41 641.324 123.608 641.328 123.81V126.621C641.328 127.024 641.084 127.211 640.784 127.033Z" fill="url(#paint19_linear_553_5781)"/>
<path d="M713.376 59.1347C702.927 65.159 685.936 65.1216 675.412 59.0504C664.888 52.9792 663.979 37.3329 674.4 31.2992C684.821 25.2655 704.333 26.1743 714.857 32.2361C725.381 38.2979 723.816 53.1198 713.376 59.1347Z" fill="#6E798F"/>
<path d="M721.155 41.6013C721.209 33.043 709.236 26.0297 694.413 25.9366C679.59 25.8434 667.53 32.7058 667.476 41.2641C667.423 49.8224 679.395 56.8357 694.218 56.9288C709.041 57.022 721.101 50.1596 721.155 41.6013Z" fill="url(#paint20_linear_553_5781)"/>
<path d="M713.376 46.243C702.927 52.2767 685.936 52.2392 675.412 46.1681C664.888 40.0969 663.979 24.4506 674.4 18.4544C684.821 12.4582 704.389 13.292 714.885 19.3913C725.381 25.4905 723.816 40.2187 713.376 46.243Z" fill="#6E798F"/>
<path d="M721.155 28.7126C721.209 20.1543 709.236 13.141 694.413 13.0479C679.59 12.9548 667.53 19.8171 667.476 28.3754C667.423 36.9337 679.395 43.9471 694.218 44.0402C709.041 44.1333 721.101 37.2709 721.155 28.7126Z" fill="url(#paint21_linear_553_5781)"/>
<path d="M713.376 33.3609C702.927 39.3945 685.936 39.3571 675.412 33.2859C664.888 27.2147 663.979 11.559 674.4 5.53472C684.821 -0.489592 704.333 0.409839 714.857 6.47163C725.381 12.5334 723.816 27.3365 713.376 33.3609Z" fill="#6E798F"/>
<path d="M721.165 15.8332C721.219 7.27493 709.246 0.261607 694.423 0.168494C679.6 0.075381 667.54 6.93773 667.486 15.496C667.432 24.0543 679.405 31.0677 694.228 31.1608C709.051 31.2539 721.111 24.3915 721.165 15.8332Z" fill="url(#paint22_linear_553_5781)"/>
<path d="M678.065 46.4117L677.025 45.8121C676.859 45.6959 676.723 45.5418 676.629 45.3625C676.534 45.1833 676.484 44.9841 676.481 44.7815V41.9708C676.481 41.5679 676.725 41.3899 677.025 41.5585L678.065 42.1675C678.23 42.2828 678.365 42.4354 678.46 42.6129C678.554 42.7904 678.605 42.9877 678.609 43.1887V45.9995C678.609 46.4023 678.365 46.5616 678.065 46.4117Z" fill="url(#paint23_linear_553_5781)"/>
<path d="M678.065 33.445L677.025 32.836C676.86 32.7208 676.725 32.5681 676.631 32.3907C676.536 32.2132 676.485 32.0158 676.481 31.8148V29.0041C676.481 28.6106 676.725 28.4232 677.025 28.5919L678.065 29.2008C678.231 29.317 678.367 29.4712 678.462 29.6504C678.556 29.8296 678.607 30.0288 678.609 30.2314V33.0422C678.609 33.445 678.365 33.6137 678.065 33.445Z" fill="url(#paint24_linear_553_5781)"/>
<path d="M678.065 59.1633L677.025 58.5637C676.861 58.4459 676.726 58.2914 676.632 58.1126C676.537 57.9337 676.486 57.7353 676.481 57.5331V54.7224C676.481 54.3289 676.725 54.1415 677.025 54.3195L678.065 54.9191C678.23 55.0364 678.365 55.1908 678.46 55.3698C678.554 55.5488 678.605 55.7474 678.609 55.9497V58.7604C678.609 59.1539 678.365 59.332 678.065 59.1633Z" fill="url(#paint25_linear_553_5781)"/>
<path d="M601.537 262.753C591.098 268.777 574.098 268.74 563.583 262.669C553.068 256.597 552.15 240.951 562.59 234.917C573.029 228.884 592.522 229.793 603.046 235.854C613.57 241.916 611.987 256.719 601.537 262.753Z" fill="#6E798F"/>
<path d="M609.33 245.213C609.384 236.655 597.411 229.642 582.588 229.548C567.765 229.455 555.705 236.318 555.651 244.876C555.597 253.434 567.57 260.448 582.393 260.541C597.216 260.634 609.276 253.771 609.33 245.213Z" fill="url(#paint26_linear_553_5781)"/>
<path d="M601.537 249.871C591.098 255.905 574.098 255.867 563.583 249.796C553.068 243.725 552.15 228.079 562.59 222.045C573.029 216.011 592.522 216.92 603.046 222.982C613.57 229.044 611.987 243.837 601.537 249.871Z" fill="#6E798F"/>
<path d="M609.322 232.324C609.376 223.766 597.403 216.753 582.58 216.66C567.757 216.567 555.697 223.429 555.643 231.987C555.59 240.546 567.562 247.559 582.385 247.652C597.208 247.745 609.268 240.883 609.322 232.324Z" fill="url(#paint27_linear_553_5781)"/>
<path d="M601.537 236.98C591.098 243.013 574.098 242.976 563.583 236.905C553.068 230.833 552.15 215.178 562.59 209.153C573.029 203.129 592.522 204.028 603.046 210.09C613.57 216.152 611.987 230.955 601.537 236.98Z" fill="#6E798F"/>
<path d="M609.332 219.445C609.386 210.887 597.413 203.873 582.59 203.78C567.767 203.687 555.707 210.55 555.653 219.108C555.599 227.666 567.572 234.679 582.395 234.773C597.218 234.866 609.278 228.003 609.332 219.445Z" fill="url(#paint28_linear_553_5781)"/>
<path d="M566.234 250.04L565.185 249.431C565.021 249.313 564.888 249.158 564.795 248.979C564.703 248.8 564.653 248.602 564.65 248.4V245.59C564.65 245.196 564.894 245.009 565.185 245.177L566.234 245.786C566.397 245.905 566.531 246.059 566.623 246.238C566.716 246.417 566.766 246.615 566.768 246.817V249.628C566.768 250.021 566.525 250.208 566.234 250.04Z" fill="url(#paint29_linear_553_5781)"/>
<path d="M566.234 237.064L565.185 236.464C565.023 236.344 564.891 236.189 564.798 236.011C564.706 235.832 564.655 235.635 564.65 235.433V232.623C564.65 232.229 564.894 232.042 565.185 232.22L566.234 232.819C566.397 232.938 566.531 233.093 566.623 233.272C566.716 233.45 566.766 233.649 566.768 233.85V236.661C566.768 237.054 566.525 237.232 566.234 237.064Z" fill="url(#paint30_linear_553_5781)"/>
<path d="M566.234 262.781L565.185 262.182C565.022 262.062 564.89 261.907 564.797 261.729C564.705 261.55 564.654 261.352 564.65 261.151V258.34C564.65 257.947 564.894 257.769 565.185 257.938L566.234 258.537C566.396 258.657 566.529 258.812 566.622 258.99C566.714 259.169 566.764 259.367 566.768 259.568V262.379C566.768 262.772 566.525 262.988 566.234 262.781Z" fill="url(#paint31_linear_553_5781)"/>
<rect x="738.87" y="10.8574" width="110.206" height="20.6028" rx="2.47604" fill="url(#paint32_linear_553_5781)"/>
<path d="M746.577 26.1587V17.7827H748.389V24.6827H751.989V26.1587H746.577ZM756.508 26.3027C755.388 26.3027 754.56 25.9227 754.024 25.1627C753.496 24.4027 753.232 23.3387 753.232 21.9707C753.232 20.6027 753.496 19.5387 754.024 18.7787C754.56 18.0187 755.388 17.6387 756.508 17.6387C757.628 17.6387 758.452 18.0187 758.98 18.7787C759.516 19.5387 759.784 20.6027 759.784 21.9707C759.784 23.3387 759.516 24.4027 758.98 25.1627C758.452 25.9227 757.628 26.3027 756.508 26.3027ZM756.508 24.8507C757.02 24.8507 757.372 24.6627 757.564 24.2867C757.764 23.9027 757.864 23.3707 757.864 22.6907V21.2387C757.864 20.5667 757.764 20.0427 757.564 19.6667C757.372 19.2827 757.02 19.0907 756.508 19.0907C755.996 19.0907 755.64 19.2827 755.44 19.6667C755.248 20.0427 755.152 20.5667 755.152 21.2387V22.7027C755.152 23.3747 755.248 23.9027 755.44 24.2867C755.64 24.6627 755.996 24.8507 756.508 24.8507ZM764.135 26.3027C763.015 26.3027 762.183 25.9267 761.639 25.1747C761.103 24.4147 760.835 23.3467 760.835 21.9707C760.835 20.5947 761.103 19.5307 761.639 18.7787C762.183 18.0187 763.015 17.6387 764.135 17.6387C764.567 17.6387 764.947 17.6987 765.275 17.8187C765.611 17.9307 765.899 18.0907 766.139 18.2987C766.379 18.5067 766.575 18.7587 766.727 19.0547C766.887 19.3507 767.011 19.6827 767.099 20.0507L765.419 20.4587C765.371 20.2587 765.315 20.0747 765.251 19.9067C765.187 19.7387 765.103 19.5947 764.999 19.4747C764.903 19.3547 764.779 19.2627 764.627 19.1987C764.483 19.1267 764.307 19.0907 764.099 19.0907C763.611 19.0907 763.263 19.2827 763.055 19.6667C762.855 20.0427 762.755 20.5667 762.755 21.2387V22.7027C762.755 23.3747 762.855 23.9027 763.055 24.2867C763.263 24.6627 763.611 24.8507 764.099 24.8507C764.515 24.8507 764.815 24.7227 764.999 24.4667C765.191 24.2107 765.331 23.8827 765.419 23.4827L767.099 23.8907C767.011 24.2587 766.887 24.5907 766.727 24.8867C766.575 25.1827 766.379 25.4387 766.139 25.6547C765.899 25.8627 765.611 26.0227 765.275 26.1347C764.947 26.2467 764.567 26.3027 764.135 26.3027ZM772.999 26.1587L772.471 24.1427H770.179L769.663 26.1587H767.839L770.107 17.7827H772.651L774.919 26.1587H772.999ZM771.379 19.5227H771.283L770.467 22.6907H772.195L771.379 19.5227ZM776.318 26.1587V17.7827H778.13V24.6827H781.73V26.1587H776.318ZM793.553 26.3027C792.849 26.3027 792.237 26.1867 791.717 25.9547C791.197 25.7227 790.777 25.4067 790.457 25.0067L791.501 23.8547C791.805 24.1907 792.137 24.4387 792.497 24.5987C792.865 24.7587 793.237 24.8387 793.613 24.8387C794.045 24.8387 794.373 24.7427 794.597 24.5507C794.821 24.3587 794.933 24.0827 794.933 23.7227C794.933 23.4267 794.845 23.2027 794.669 23.0507C794.501 22.8987 794.213 22.7907 793.805 22.7267L792.929 22.5827C792.177 22.4547 791.633 22.1787 791.297 21.7547C790.961 21.3227 790.793 20.7987 790.793 20.1827C790.793 19.3747 791.057 18.7507 791.585 18.3107C792.113 17.8627 792.853 17.6387 793.805 17.6387C794.453 17.6387 795.017 17.7387 795.497 17.9387C795.977 18.1387 796.365 18.4107 796.661 18.7547L795.641 19.8947C795.417 19.6467 795.153 19.4547 794.849 19.3187C794.545 19.1747 794.201 19.1027 793.817 19.1027C793.009 19.1027 792.605 19.4347 792.605 20.0987C792.605 20.3867 792.693 20.6027 792.869 20.7467C793.053 20.8907 793.349 20.9987 793.757 21.0707L794.633 21.2267C795.313 21.3467 795.837 21.6027 796.205 21.9947C796.573 22.3867 796.757 22.9147 796.757 23.5787C796.757 23.9707 796.689 24.3347 796.553 24.6707C796.417 24.9987 796.213 25.2867 795.941 25.5347C795.669 25.7747 795.333 25.9627 794.933 26.0987C794.541 26.2347 794.081 26.3027 793.553 26.3027ZM800.22 26.1587V23.1947L797.568 17.7827H799.572L800.46 19.7267L801.108 21.3707H801.204L801.852 19.7267L802.74 17.7827H804.672L802.02 23.1947V26.1587H800.22ZM808.423 26.3027C807.719 26.3027 807.107 26.1867 806.587 25.9547C806.067 25.7227 805.647 25.4067 805.327 25.0067L806.371 23.8547C806.675 24.1907 807.007 24.4387 807.367 24.5987C807.735 24.7587 808.107 24.8387 808.483 24.8387C808.915 24.8387 809.243 24.7427 809.467 24.5507C809.691 24.3587 809.803 24.0827 809.803 23.7227C809.803 23.4267 809.715 23.2027 809.539 23.0507C809.371 22.8987 809.083 22.7907 808.675 22.7267L807.799 22.5827C807.047 22.4547 806.503 22.1787 806.167 21.7547C805.831 21.3227 805.663 20.7987 805.663 20.1827C805.663 19.3747 805.927 18.7507 806.455 18.3107C806.983 17.8627 807.723 17.6387 808.675 17.6387C809.323 17.6387 809.887 17.7387 810.367 17.9387C810.847 18.1387 811.235 18.4107 811.531 18.7547L810.511 19.8947C810.287 19.6467 810.023 19.4547 809.719 19.3187C809.415 19.1747 809.071 19.1027 808.687 19.1027C807.879 19.1027 807.475 19.4347 807.475 20.0987C807.475 20.3867 807.563 20.6027 807.739 20.7467C807.923 20.8907 808.219 20.9987 808.627 21.0707L809.503 21.2267C810.183 21.3467 810.707 21.6027 811.075 21.9947C811.443 22.3867 811.627 22.9147 811.627 23.5787C811.627 23.9707 811.559 24.3347 811.423 24.6707C811.287 24.9987 811.083 25.2867 810.811 25.5347C810.539 25.7747 810.203 25.9627 809.803 26.0987C809.411 26.2347 808.951 26.3027 808.423 26.3027ZM816.89 19.2587V26.1587H815.09V19.2587H812.678V17.7827H819.302V19.2587H816.89ZM820.786 26.1587V17.7827H826.138V19.2587H822.586V21.1787H826.018V22.6547H822.586V24.6827H826.138V26.1587H820.786ZM832.433 22.4267L832.529 20.0867H832.421L830.861 24.3947L829.301 20.0867H829.193L829.289 22.4267V26.1587H827.729V17.7827H829.853L830.885 20.6027H830.981L832.013 17.7827H833.993V26.1587H832.433V22.4267ZM838.164 26.3027C837.46 26.3027 836.848 26.1867 836.328 25.9547C835.808 25.7227 835.388 25.4067 835.068 25.0067L836.112 23.8547C836.416 24.1907 836.748 24.4387 837.108 24.5987C837.476 24.7587 837.848 24.8387 838.224 24.8387C838.656 24.8387 838.984 24.7427 839.208 24.5507C839.432 24.3587 839.544 24.0827 839.544 23.7227C839.544 23.4267 839.456 23.2027 839.28 23.0507C839.112 22.8987 838.824 22.7907 838.416 22.7267L837.54 22.5827C836.788 22.4547 836.244 22.1787 835.908 21.7547C835.572 21.3227 835.404 20.7987 835.404 20.1827C835.404 19.3747 835.668 18.7507 836.196 18.3107C836.724 17.8627 837.464 17.6387 838.416 17.6387C839.064 17.6387 839.628 17.7387 840.108 17.9387C840.588 18.1387 840.976 18.4107 841.272 18.7547L840.252 19.8947C840.028 19.6467 839.764 19.4547 839.46 19.3187C839.156 19.1747 838.812 19.1027 838.428 19.1027C837.62 19.1027 837.216 19.4347 837.216 20.0987C837.216 20.3867 837.304 20.6027 837.48 20.7467C837.664 20.8907 837.96 20.9987 838.368 21.0707L839.244 21.2267C839.924 21.3467 840.448 21.6027 840.816 21.9947C841.184 22.3867 841.368 22.9147 841.368 23.5787C841.368 23.9707 841.3 24.3347 841.164 24.6707C841.028 24.9987 840.824 25.2867 840.552 25.5347C840.28 25.7747 839.944 25.9627 839.544 26.0987C839.152 26.2347 838.692 26.3027 838.164 26.3027Z" fill="url(#paint33_linear_553_5781)"/>
<rect x="664.589" y="149.516" width="110.206" height="20.6028" rx="2.47604" fill="url(#paint34_linear_553_5781)"/>
<path d="M672.103 164.817V156.441H675.343C675.751 156.441 676.115 156.505 676.435 156.633C676.755 156.753 677.023 156.929 677.239 157.161C677.463 157.393 677.631 157.673 677.743 158.001C677.855 158.329 677.911 158.697 677.911 159.105C677.911 159.513 677.855 159.881 677.743 160.209C677.631 160.537 677.463 160.817 677.239 161.049C677.023 161.281 676.755 161.461 676.435 161.589C676.115 161.709 675.751 161.769 675.343 161.769H673.915V164.817H672.103ZM673.915 160.317H674.887C675.311 160.317 675.603 160.237 675.763 160.077C675.931 159.917 676.015 159.653 676.015 159.285V158.925C676.015 158.557 675.931 158.293 675.763 158.133C675.603 157.973 675.311 157.893 674.887 157.893H673.915V160.317ZM681.315 164.817H679.539V156.441H682.779C683.187 156.441 683.551 156.505 683.871 156.633C684.191 156.753 684.459 156.929 684.675 157.161C684.899 157.393 685.067 157.673 685.179 158.001C685.291 158.329 685.347 158.697 685.347 159.105C685.347 159.697 685.219 160.205 684.963 160.629C684.707 161.053 684.343 161.333 683.871 161.469L685.515 164.817H683.547L682.143 161.709H681.315V164.817ZM682.347 160.317C682.771 160.317 683.063 160.237 683.223 160.077C683.391 159.917 683.475 159.653 683.475 159.285V158.925C683.475 158.557 683.391 158.293 683.223 158.133C683.063 157.973 682.771 157.893 682.347 157.893H681.315V160.317H682.347ZM686.962 164.817V163.485H688.762V157.773H686.962V156.441H692.362V157.773H690.562V163.485H692.362V164.817H686.962ZM695.825 164.817L693.605 156.441H695.609L696.593 160.701L697.085 163.113H697.181L697.685 160.701L698.681 156.441H700.589L698.369 164.817H695.825ZM706.153 164.817L705.625 162.801H703.333L702.817 164.817H700.993L703.261 156.441H705.805L708.073 164.817H706.153ZM704.533 158.181H704.437L703.621 161.349H705.349L704.533 158.181ZM712.868 157.917V164.817H711.068V157.917H708.656V156.441H715.28V157.917H712.868ZM716.763 164.817V156.441H722.115V157.917H718.563V159.837H721.995V161.313H718.563V163.341H722.115V164.817H716.763ZM734.466 164.961C733.346 164.961 732.514 164.585 731.97 163.833C731.434 163.073 731.166 162.005 731.166 160.629C731.166 159.253 731.434 158.189 731.97 157.437C732.514 156.677 733.346 156.297 734.466 156.297C734.898 156.297 735.278 156.357 735.606 156.477C735.942 156.589 736.23 156.749 736.47 156.957C736.71 157.165 736.906 157.417 737.058 157.713C737.218 158.009 737.342 158.341 737.43 158.709L735.75 159.117C735.702 158.917 735.646 158.733 735.582 158.565C735.518 158.397 735.434 158.253 735.33 158.133C735.234 158.013 735.11 157.921 734.958 157.857C734.814 157.785 734.638 157.749 734.43 157.749C733.942 157.749 733.594 157.941 733.386 158.325C733.186 158.701 733.086 159.225 733.086 159.897V161.361C733.086 162.033 733.186 162.561 733.386 162.945C733.594 163.321 733.942 163.509 734.43 163.509C734.846 163.509 735.146 163.381 735.33 163.125C735.522 162.869 735.662 162.541 735.75 162.141L737.43 162.549C737.342 162.917 737.218 163.249 737.058 163.545C736.906 163.841 736.71 164.097 736.47 164.313C736.23 164.521 735.942 164.681 735.606 164.793C735.278 164.905 734.898 164.961 734.466 164.961ZM739.213 164.817V156.441H741.025V163.341H744.625V164.817H739.213ZM749.145 164.961C748.025 164.961 747.197 164.581 746.661 163.821C746.133 163.061 745.869 161.997 745.869 160.629C745.869 159.261 746.133 158.197 746.661 157.437C747.197 156.677 748.025 156.297 749.145 156.297C750.265 156.297 751.089 156.677 751.617 157.437C752.153 158.197 752.421 159.261 752.421 160.629C752.421 161.997 752.153 163.061 751.617 163.821C751.089 164.581 750.265 164.961 749.145 164.961ZM749.145 163.509C749.657 163.509 750.009 163.321 750.201 162.945C750.401 162.561 750.501 162.029 750.501 161.349V159.897C750.501 159.225 750.401 158.701 750.201 158.325C750.009 157.941 749.657 157.749 749.145 157.749C748.633 157.749 748.277 157.941 748.077 158.325C747.885 158.701 747.789 159.225 747.789 159.897V161.361C747.789 162.033 747.885 162.561 748.077 162.945C748.277 163.321 748.633 163.509 749.145 163.509ZM755.44 156.441V161.745C755.44 162.009 755.448 162.253 755.464 162.477C755.488 162.693 755.536 162.877 755.608 163.029C755.688 163.181 755.804 163.301 755.956 163.389C756.108 163.469 756.316 163.509 756.58 163.509C756.844 163.509 757.052 163.469 757.204 163.389C757.356 163.301 757.468 163.181 757.54 163.029C757.62 162.877 757.668 162.693 757.684 162.477C757.708 162.253 757.72 162.009 757.72 161.745V156.441H759.52V161.505C759.52 162.081 759.48 162.585 759.4 163.017C759.328 163.449 759.184 163.809 758.968 164.097C758.752 164.385 758.452 164.601 758.068 164.745C757.684 164.889 757.188 164.961 756.58 164.961C755.972 164.961 755.476 164.889 755.092 164.745C754.708 164.601 754.408 164.385 754.192 164.097C753.976 163.809 753.828 163.449 753.748 163.017C753.676 162.585 753.64 162.081 753.64 161.505V156.441H755.44ZM761.183 156.441H763.883C765.011 156.441 765.847 156.801 766.391 157.521C766.935 158.241 767.207 159.277 767.207 160.629C767.207 161.981 766.935 163.017 766.391 163.737C765.847 164.457 765.011 164.817 763.883 164.817H761.183V156.441ZM763.763 163.401C764.299 163.401 764.691 163.229 764.939 162.885C765.187 162.541 765.311 162.041 765.311 161.385V159.861C765.311 159.213 765.187 158.717 764.939 158.373C764.691 158.029 764.299 157.857 763.763 157.857H762.959V163.401H763.763Z" fill="url(#paint35_linear_553_5781)"/>
<rect x="700.904" y="80.1865" width="102.206" height="20.6028" rx="2.47604" fill="url(#paint36_linear_553_5781)"/>
<path d="M708.419 95.4878V87.1118H711.659C712.067 87.1118 712.431 87.1758 712.751 87.3038C713.071 87.4238 713.339 87.5998 713.555 87.8318C713.779 88.0638 713.947 88.3438 714.059 88.6718C714.171 88.9998 714.227 89.3678 714.227 89.7758C714.227 90.1838 714.171 90.5518 714.059 90.8798C713.947 91.2078 713.779 91.4878 713.555 91.7198C713.339 91.9518 713.071 92.1318 712.751 92.2598C712.431 92.3798 712.067 92.4398 711.659 92.4398H710.231V95.4878H708.419ZM710.231 90.9878H711.203C711.627 90.9878 711.919 90.9078 712.079 90.7478C712.247 90.5878 712.331 90.3238 712.331 89.9558V89.5958C712.331 89.2278 712.247 88.9638 712.079 88.8038C711.919 88.6438 711.627 88.5638 711.203 88.5638H710.231V90.9878ZM717.402 87.1118V92.4158C717.402 92.6798 717.41 92.9238 717.426 93.1478C717.45 93.3638 717.498 93.5478 717.57 93.6998C717.65 93.8518 717.766 93.9718 717.918 94.0598C718.07 94.1398 718.278 94.1798 718.542 94.1798C718.806 94.1798 719.014 94.1398 719.166 94.0598C719.318 93.9718 719.43 93.8518 719.502 93.6998C719.582 93.5478 719.63 93.3638 719.646 93.1478C719.67 92.9238 719.682 92.6798 719.682 92.4158V87.1118H721.482V92.1758C721.482 92.7518 721.442 93.2558 721.362 93.6878C721.29 94.1198 721.146 94.4798 720.93 94.7678C720.714 95.0558 720.414 95.2718 720.03 95.4158C719.646 95.5598 719.15 95.6318 718.542 95.6318C717.934 95.6318 717.438 95.5598 717.054 95.4158C716.67 95.2718 716.37 95.0558 716.154 94.7678C715.938 94.4798 715.79 94.1198 715.71 93.6878C715.638 93.2558 715.602 92.7518 715.602 92.1758V87.1118H717.402ZM723.301 87.1118H726.241C727.065 87.1118 727.693 87.3118 728.125 87.7118C728.565 88.1118 728.785 88.6558 728.785 89.3438C728.785 89.8238 728.665 90.2078 728.425 90.4958C728.193 90.7758 727.857 90.9798 727.417 91.1078V91.1798C727.937 91.3078 728.337 91.5318 728.617 91.8518C728.905 92.1718 729.049 92.6158 729.049 93.1838C729.049 93.8878 728.825 94.4478 728.377 94.8638C727.937 95.2798 727.317 95.4878 726.517 95.4878H723.301V87.1118ZM725.965 94.2278C726.397 94.2278 726.713 94.1558 726.913 94.0118C727.113 93.8678 727.213 93.6038 727.213 93.2198V92.8718C727.213 92.4878 727.113 92.2238 726.913 92.0798C726.713 91.9358 726.397 91.8638 725.965 91.8638H725.053V94.2278H725.965ZM725.737 90.6638C726.161 90.6638 726.469 90.5958 726.661 90.4598C726.853 90.3158 726.949 90.0598 726.949 89.6918V89.3318C726.949 88.9638 726.853 88.7118 726.661 88.5758C726.469 88.4398 726.161 88.3718 725.737 88.3718H725.053V90.6638H725.737ZM730.917 95.4878V87.1118H732.729V94.0118H736.329V95.4878H730.917ZM738.148 95.4878V94.1558H739.948V88.4438H738.148V87.1118H743.548V88.4438H741.748V94.1558H743.548V95.4878H738.148ZM748.475 95.6318C747.355 95.6318 746.523 95.2558 745.979 94.5038C745.443 93.7438 745.175 92.6758 745.175 91.2998C745.175 89.9238 745.443 88.8598 745.979 88.1078C746.523 87.3478 747.355 86.9678 748.475 86.9678C748.907 86.9678 749.287 87.0278 749.615 87.1478C749.951 87.2598 750.239 87.4198 750.479 87.6278C750.719 87.8358 750.915 88.0878 751.067 88.3838C751.227 88.6798 751.351 89.0118 751.439 89.3798L749.759 89.7878C749.711 89.5878 749.655 89.4038 749.591 89.2358C749.527 89.0678 749.443 88.9238 749.339 88.8038C749.243 88.6838 749.119 88.5918 748.967 88.5278C748.823 88.4558 748.647 88.4198 748.439 88.4198C747.951 88.4198 747.603 88.6118 747.395 88.9958C747.195 89.3718 747.095 89.8958 747.095 90.5678V92.0318C747.095 92.7038 747.195 93.2318 747.395 93.6158C747.603 93.9918 747.951 94.1798 748.439 94.1798C748.855 94.1798 749.155 94.0518 749.339 93.7958C749.531 93.5398 749.671 93.2118 749.759 92.8118L751.439 93.2198C751.351 93.5878 751.227 93.9198 751.067 94.2158C750.915 94.5118 750.719 94.7678 750.479 94.9838C750.239 95.1918 749.951 95.3518 749.615 95.4638C749.287 95.5758 748.907 95.6318 748.475 95.6318ZM763.346 95.6318C762.226 95.6318 761.394 95.2558 760.85 94.5038C760.314 93.7438 760.046 92.6758 760.046 91.2998C760.046 89.9238 760.314 88.8598 760.85 88.1078C761.394 87.3478 762.226 86.9678 763.346 86.9678C763.778 86.9678 764.158 87.0278 764.486 87.1478C764.822 87.2598 765.11 87.4198 765.35 87.6278C765.59 87.8358 765.786 88.0878 765.938 88.3838C766.098 88.6798 766.222 89.0118 766.31 89.3798L764.63 89.7878C764.582 89.5878 764.526 89.4038 764.462 89.2358C764.398 89.0678 764.314 88.9238 764.21 88.8038C764.114 88.6838 763.99 88.5918 763.838 88.5278C763.694 88.4558 763.518 88.4198 763.31 88.4198C762.822 88.4198 762.474 88.6118 762.266 88.9958C762.066 89.3718 761.966 89.8958 761.966 90.5678V92.0318C761.966 92.7038 762.066 93.2318 762.266 93.6158C762.474 93.9918 762.822 94.1798 763.31 94.1798C763.726 94.1798 764.026 94.0518 764.21 93.7958C764.402 93.5398 764.542 93.2118 764.63 92.8118L766.31 93.2198C766.222 93.5878 766.098 93.9198 765.938 94.2158C765.786 94.5118 765.59 94.7678 765.35 94.9838C765.11 95.1918 764.822 95.3518 764.486 95.4638C764.158 95.5758 763.778 95.6318 763.346 95.6318ZM768.093 95.4878V87.1118H769.905V94.0118H773.505V95.4878H768.093ZM778.025 95.6318C776.905 95.6318 776.077 95.2518 775.541 94.4918C775.013 93.7318 774.749 92.6678 774.749 91.2998C774.749 89.9318 775.013 88.8678 775.541 88.1078C776.077 87.3478 776.905 86.9678 778.025 86.9678C779.145 86.9678 779.969 87.3478 780.497 88.1078C781.033 88.8678 781.301 89.9318 781.301 91.2998C781.301 92.6678 781.033 93.7318 780.497 94.4918C779.969 95.2518 779.145 95.6318 778.025 95.6318ZM778.025 94.1798C778.537 94.1798 778.889 93.9918 779.081 93.6158C779.281 93.2318 779.381 92.6998 779.381 92.0198V90.5678C779.381 89.8958 779.281 89.3718 779.081 88.9958C778.889 88.6118 778.537 88.4198 778.025 88.4198C777.513 88.4198 777.157 88.6118 776.957 88.9958C776.765 89.3718 776.669 89.8958 776.669 90.5678V92.0318C776.669 92.7038 776.765 93.2318 776.957 93.6158C777.157 93.9918 777.513 94.1798 778.025 94.1798ZM784.32 87.1118V92.4158C784.32 92.6798 784.328 92.9238 784.344 93.1478C784.368 93.3638 784.416 93.5478 784.488 93.6998C784.568 93.8518 784.684 93.9718 784.836 94.0598C784.988 94.1398 785.196 94.1798 785.46 94.1798C785.724 94.1798 785.932 94.1398 786.084 94.0598C786.236 93.9718 786.348 93.8518 786.42 93.6998C786.5 93.5478 786.548 93.3638 786.564 93.1478C786.588 92.9238 786.6 92.6798 786.6 92.4158V87.1118H788.4V92.1758C788.4 92.7518 788.36 93.2558 788.28 93.6878C788.208 94.1198 788.064 94.4798 787.848 94.7678C787.632 95.0558 787.332 95.2718 786.948 95.4158C786.564 95.5598 786.068 95.6318 785.46 95.6318C784.852 95.6318 784.356 95.5598 783.972 95.4158C783.588 95.2718 783.288 95.0558 783.072 94.7678C782.856 94.4798 782.708 94.1198 782.628 93.6878C782.556 93.2558 782.52 92.7518 782.52 92.1758V87.1118H784.32ZM790.063 87.1118H792.763C793.891 87.1118 794.727 87.4718 795.271 88.1918C795.815 88.9118 796.087 89.9478 796.087 91.2998C796.087 92.6518 795.815 93.6878 795.271 94.4078C794.727 95.1278 793.891 95.4878 792.763 95.4878H790.063V87.1118ZM792.643 94.0718C793.179 94.0718 793.571 93.8998 793.819 93.5558C794.067 93.2118 794.191 92.7118 794.191 92.0558V90.5318C794.191 89.8838 794.067 89.3878 793.819 89.0438C793.571 88.6998 793.179 88.5278 792.643 88.5278H791.839V94.0718H792.643Z" fill="url(#paint37_linear_553_5781)"/>
<rect x="626.623" y="218.845" width="102.206" height="20.6028" rx="2.47604" fill="url(#paint38_linear_553_5781)"/>
<path d="M634.15 225.77H637.09C637.914 225.77 638.542 225.97 638.974 226.37C639.414 226.77 639.634 227.314 639.634 228.002C639.634 228.482 639.514 228.866 639.274 229.154C639.042 229.434 638.706 229.638 638.266 229.766V229.838C638.786 229.966 639.186 230.19 639.466 230.51C639.754 230.83 639.898 231.274 639.898 231.842C639.898 232.546 639.674 233.106 639.226 233.522C638.786 233.938 638.166 234.146 637.366 234.146H634.15V225.77ZM636.814 232.886C637.246 232.886 637.562 232.814 637.762 232.67C637.962 232.526 638.062 232.262 638.062 231.878V231.53C638.062 231.146 637.962 230.882 637.762 230.738C637.562 230.594 637.246 230.522 636.814 230.522H635.902V232.886H636.814ZM636.586 229.322C637.01 229.322 637.318 229.254 637.51 229.118C637.702 228.974 637.798 228.718 637.798 228.35V227.99C637.798 227.622 637.702 227.37 637.51 227.234C637.318 227.098 637.01 227.03 636.586 227.03H635.902V229.322H636.586ZM647.321 234.146H641.297V232.502L643.937 230.306C644.393 229.914 644.721 229.574 644.921 229.286C645.121 228.998 645.221 228.694 645.221 228.374V228.254C645.221 227.902 645.117 227.638 644.909 227.462C644.701 227.278 644.421 227.186 644.069 227.186C643.669 227.186 643.361 227.302 643.145 227.534C642.929 227.766 642.777 228.042 642.689 228.362L641.117 227.762C641.213 227.474 641.345 227.202 641.513 226.946C641.681 226.682 641.893 226.454 642.149 226.262C642.413 226.07 642.717 225.918 643.061 225.806C643.405 225.686 643.801 225.626 644.249 225.626C644.705 225.626 645.113 225.69 645.473 225.818C645.833 225.946 646.137 226.122 646.385 226.346C646.633 226.57 646.821 226.838 646.949 227.15C647.077 227.454 647.141 227.786 647.141 228.146C647.141 228.498 647.081 228.822 646.961 229.118C646.849 229.406 646.689 229.678 646.481 229.934C646.281 230.19 646.041 230.438 645.761 230.678C645.489 230.918 645.197 231.158 644.885 231.398L643.289 232.634H647.321V234.146ZM649.02 225.77H651.96C652.784 225.77 653.412 225.97 653.844 226.37C654.284 226.77 654.504 227.314 654.504 228.002C654.504 228.482 654.384 228.866 654.144 229.154C653.912 229.434 653.576 229.638 653.136 229.766V229.838C653.656 229.966 654.056 230.19 654.336 230.51C654.624 230.83 654.768 231.274 654.768 231.842C654.768 232.546 654.544 233.106 654.096 233.522C653.656 233.938 653.036 234.146 652.236 234.146H649.02V225.77ZM651.684 232.886C652.116 232.886 652.432 232.814 652.632 232.67C652.832 232.526 652.932 232.262 652.932 231.878V231.53C652.932 231.146 652.832 230.882 652.632 230.738C652.432 230.594 652.116 230.522 651.684 230.522H650.772V232.886H651.684ZM651.456 229.322C651.88 229.322 652.188 229.254 652.38 229.118C652.572 228.974 652.668 228.718 652.668 228.35V227.99C652.668 227.622 652.572 227.37 652.38 227.234C652.188 227.098 651.88 227.03 651.456 227.03H650.772V229.322H651.456ZM663.879 234.146V225.77H667.119C667.527 225.77 667.891 225.834 668.211 225.962C668.531 226.082 668.799 226.258 669.015 226.49C669.239 226.722 669.407 227.002 669.519 227.33C669.631 227.658 669.687 228.026 669.687 228.434C669.687 228.842 669.631 229.21 669.519 229.538C669.407 229.866 669.239 230.146 669.015 230.378C668.799 230.61 668.531 230.79 668.211 230.918C667.891 231.038 667.527 231.098 667.119 231.098H665.691V234.146H663.879ZM665.691 229.646H666.663C667.087 229.646 667.379 229.566 667.539 229.406C667.707 229.246 667.791 228.982 667.791 228.614V228.254C667.791 227.886 667.707 227.622 667.539 227.462C667.379 227.302 667.087 227.222 666.663 227.222H665.691V229.646ZM675.622 234.146L675.094 232.13H672.802L672.286 234.146H670.462L672.73 225.77H675.274L677.542 234.146H675.622ZM674.002 227.51H673.906L673.09 230.678H674.818L674.002 227.51ZM680.525 234.146H678.749V225.77H681.989C682.397 225.77 682.761 225.834 683.081 225.962C683.401 226.082 683.669 226.258 683.885 226.49C684.109 226.722 684.277 227.002 684.389 227.33C684.501 227.658 684.557 228.026 684.557 228.434C684.557 229.026 684.429 229.534 684.173 229.958C683.917 230.382 683.553 230.662 683.081 230.798L684.725 234.146H682.757L681.353 231.038H680.525V234.146ZM681.557 229.646C681.981 229.646 682.273 229.566 682.433 229.406C682.601 229.246 682.685 228.982 682.685 228.614V228.254C682.685 227.886 682.601 227.622 682.433 227.462C682.273 227.302 681.981 227.222 681.557 227.222H680.525V229.646H681.557ZM689.773 227.246V234.146H687.973V227.246H685.561V225.77H692.185V227.246H689.773ZM695.108 228.578H694.976V234.146H693.44V225.77H695.6L697.508 231.338H697.64V225.77H699.176V234.146H697.016L695.108 228.578ZM701.103 234.146V225.77H706.455V227.246H702.903V229.166H706.335V230.642H702.903V232.67H706.455V234.146H701.103ZM710.267 234.146H708.491V225.77H711.731C712.139 225.77 712.503 225.834 712.823 225.962C713.143 226.082 713.411 226.258 713.627 226.49C713.851 226.722 714.019 227.002 714.131 227.33C714.243 227.658 714.299 228.026 714.299 228.434C714.299 229.026 714.171 229.534 713.915 229.958C713.659 230.382 713.295 230.662 712.823 230.798L714.467 234.146H712.499L711.095 231.038H710.267V234.146ZM711.299 229.646C711.723 229.646 712.015 229.566 712.175 229.406C712.343 229.246 712.427 228.982 712.427 228.614V228.254C712.427 227.886 712.343 227.622 712.175 227.462C712.015 227.302 711.723 227.222 711.299 227.222H710.267V229.646H711.299ZM718.482 234.29C717.778 234.29 717.166 234.174 716.646 233.942C716.126 233.71 715.706 233.394 715.386 232.994L716.43 231.842C716.734 232.178 717.066 232.426 717.426 232.586C717.794 232.746 718.166 232.826 718.542 232.826C718.974 232.826 719.302 232.73 719.526 232.538C719.75 232.346 719.862 232.07 719.862 231.71C719.862 231.414 719.774 231.19 719.598 231.038C719.43 230.886 719.142 230.778 718.734 230.714L717.858 230.57C717.106 230.442 716.562 230.166 716.226 229.742C715.89 229.31 715.722 228.786 715.722 228.17C715.722 227.362 715.986 226.738 716.514 226.298C717.042 225.85 717.782 225.626 718.734 225.626C719.382 225.626 719.946 225.726 720.426 225.926C720.906 226.126 721.294 226.398 721.59 226.742L720.57 227.882C720.346 227.634 720.082 227.442 719.778 227.306C719.474 227.162 719.13 227.09 718.746 227.09C717.938 227.09 717.534 227.422 717.534 228.086C717.534 228.374 717.622 228.59 717.798 228.734C717.982 228.878 718.278 228.986 718.686 229.058L719.562 229.214C720.242 229.334 720.766 229.59 721.134 229.982C721.502 230.374 721.686 230.902 721.686 231.566C721.686 231.958 721.618 232.322 721.482 232.658C721.346 232.986 721.142 233.274 720.87 233.522C720.598 233.762 720.262 233.95 719.862 234.086C719.47 234.222 719.01 234.29 718.482 234.29Z" fill="url(#paint39_linear_553_5781)"/>
<path fill-rule="evenodd" clip-rule="evenodd" d="M510.196 189.799L508.01 187.279C507.926 187.184 507.876 187.063 507.869 186.936C507.862 186.809 507.897 186.684 507.97 186.58C508.042 186.475 508.148 186.398 508.269 186.361C508.391 186.323 508.521 186.328 508.64 186.373L521.318 190.521C521.432 190.555 521.532 190.625 521.603 190.72C521.674 190.816 521.713 190.932 521.713 191.051C521.713 191.17 521.674 191.286 521.603 191.382C521.532 191.477 521.432 191.547 521.318 191.581L508.87 196.113C508.753 196.153 508.625 196.153 508.508 196.113C508.39 196.073 508.288 195.996 508.219 195.893C508.149 195.79 508.115 195.668 508.122 195.544C508.128 195.42 508.175 195.301 508.256 195.207L510.465 192.799H458.774C457.946 192.799 457.274 192.127 457.274 191.299C457.274 190.47 457.946 189.799 458.774 189.799H510.196Z" fill="#66A3FF"/>
<path fill-rule="evenodd" clip-rule="evenodd" d="M529.791 79.6792L531.978 82.1986C532.061 82.294 532.111 82.4148 532.118 82.5417C532.126 82.6685 532.09 82.7942 532.018 82.8985C531.945 83.0029 531.84 83.0799 531.718 83.1173C531.597 83.1548 531.466 83.1505 531.347 83.105L518.67 78.957C518.556 78.923 518.455 78.8531 518.384 78.7576C518.313 78.6621 518.275 78.5461 518.275 78.427C518.275 78.3079 518.313 78.192 518.384 78.0965C518.455 78.001 518.556 77.931 518.67 77.897L531.117 73.3649C531.235 73.3254 531.362 73.3255 531.48 73.3652C531.597 73.4049 531.699 73.4821 531.768 73.5848C531.838 73.6876 531.872 73.8103 531.866 73.9343C531.859 74.0582 531.812 74.1766 531.732 74.2713L529.522 76.6792L581.213 76.6792C582.041 76.6792 582.713 77.3508 582.713 78.1792C582.713 79.0077 582.041 79.6792 581.213 79.6792L529.791 79.6792Z" fill="#66A3FF"/>
<path d="M217.408 95.2368C203.885 103.051 181.871 103.004 168.245 95.1338C154.619 87.2637 153.438 67.0266 166.961 59.194C180.484 51.3615 205.731 52.5607 219.357 60.4214C232.983 68.282 230.94 87.4324 217.408 95.2368Z" fill="#6E798F"/>
<path d="M227.505 72.5351C227.574 61.4518 212.065 52.3692 192.863 52.2486C173.662 52.128 158.04 61.015 157.97 72.0983C157.9 83.1817 173.41 92.2643 192.611 92.3849C211.813 92.5055 227.435 83.6185 227.505 72.5351Z" fill="url(#paint40_linear_553_5781)"/>
<path d="M217.408 78.5601C203.885 86.3645 181.871 86.327 168.245 78.457C154.619 70.587 153.438 50.3498 166.961 42.5173C180.484 34.6847 205.731 35.8839 219.357 43.7446C232.983 51.6052 230.94 70.7463 217.408 78.5601Z" fill="#6E798F"/>
<path d="M227.505 55.8467C227.574 44.7633 212.065 35.6807 192.863 35.5601C173.662 35.4395 158.04 44.3265 157.97 55.4099C157.9 66.4932 173.41 75.5758 192.611 75.6964C211.813 75.817 227.435 66.93 227.505 55.8467Z" fill="url(#paint41_linear_553_5781)"/>
<path d="M217.408 61.8636C203.885 69.668 181.871 69.6212 168.245 61.7605C154.619 53.8999 153.438 33.6533 166.961 25.8208C180.484 17.9882 205.731 19.1781 219.357 27.0481C232.983 34.9181 230.94 54.0498 217.408 61.8636Z" fill="#6E798F"/>
<path d="M227.505 39.1587C227.574 28.0753 212.065 18.9927 192.863 18.8721C173.662 18.7515 158.04 27.6385 157.97 38.7219C157.9 49.8052 173.41 58.8878 192.611 59.0084C211.813 59.1291 227.435 50.242 227.505 39.1587Z" fill="url(#paint42_linear_553_5781)"/>
<path d="M171.704 78.7658L170.355 77.9882C170.142 77.837 169.968 77.6377 169.848 77.4064C169.727 77.1751 169.663 76.9185 169.661 76.6578V72.9851C169.661 72.4698 169.97 72.2356 170.355 72.4604L171.704 73.2381C171.918 73.3882 172.094 73.5871 172.216 73.8184C172.338 74.0498 172.404 74.3069 172.407 74.5685V78.2411C172.379 78.7564 172.07 78.9907 171.704 78.7658Z" fill="url(#paint43_linear_553_5781)"/>
<path d="M171.704 61.9669L170.355 61.1893C170.143 61.0351 169.97 60.8338 169.85 60.6013C169.729 60.3687 169.665 60.1113 169.661 59.8495V56.1862C169.661 55.6709 169.97 55.4367 170.355 55.6522L171.704 56.4298C171.919 56.5819 172.094 56.7826 172.216 57.0154C172.338 57.2483 172.404 57.5067 172.407 57.7696V61.4423C172.379 61.9482 172.07 62.1918 171.704 61.9669Z" fill="url(#paint44_linear_553_5781)"/>
<path d="M171.705 95.2742L170.327 94.4872C170.115 94.3361 169.941 94.1367 169.82 93.9054C169.7 93.6741 169.636 93.4176 169.634 93.1568V89.4841C169.634 88.9688 169.943 88.7346 170.327 88.9594L171.677 89.7371C171.891 89.8872 172.067 90.0861 172.189 90.3175C172.311 90.5488 172.376 90.8059 172.38 91.0675V94.7402C172.38 95.2648 172.07 95.4991 171.705 95.2742Z" fill="url(#paint45_linear_553_5781)"/>
<path d="M169.053 218.665C155.52 226.469 133.507 226.422 119.881 218.562C106.254 210.701 105.074 190.455 118.606 182.622C132.138 174.789 157.376 175.979 171.002 183.849C184.628 191.719 182.576 210.851 169.053 218.665Z" fill="#6E798F"/>
<path d="M179.141 195.951C179.21 184.868 163.701 175.785 144.499 175.665C125.298 175.544 109.675 184.431 109.606 195.514C109.536 206.598 125.045 215.68 144.247 215.801C163.448 215.922 179.071 207.034 179.141 195.951Z" fill="url(#paint46_linear_553_5781)"/>
<path d="M169.053 201.979C155.52 209.783 133.507 209.736 119.881 201.876C106.254 194.015 105.074 173.769 118.606 165.936C132.138 158.103 157.376 159.293 171.002 167.163C184.628 175.033 182.576 194.165 169.053 201.979Z" fill="#6E798F"/>
<path d="M179.141 179.263C179.21 168.179 163.701 159.097 144.499 158.976C125.298 158.856 109.675 167.743 109.606 178.826C109.536 189.909 125.045 198.992 144.247 199.112C163.448 199.233 179.071 190.346 179.141 179.263Z" fill="url(#paint47_linear_553_5781)"/>
<path d="M169.053 185.283C155.52 193.097 133.507 193.05 119.881 185.18C106.254 177.31 105.074 157.072 118.606 149.24C132.138 141.407 157.376 142.607 171.002 150.467C184.628 158.328 182.576 177.478 169.053 185.283Z" fill="#6E798F"/>
<path d="M179.15 162.574C179.22 151.491 163.71 142.408 144.509 142.288C125.307 142.167 109.685 151.054 109.615 162.137C109.546 173.221 125.055 182.303 144.257 182.424C163.458 182.545 179.081 173.658 179.15 162.574Z" fill="url(#paint48_linear_553_5781)"/>
<path d="M123.319 202.232L121.969 201.454C121.757 201.302 121.583 201.102 121.461 200.871C121.339 200.641 121.273 200.385 121.267 200.124V196.451C121.267 195.936 121.585 195.701 121.969 195.917L123.319 196.704C123.532 196.855 123.705 197.054 123.826 197.286C123.946 197.517 124.01 197.773 124.012 198.034V201.707C124.012 202.232 123.703 202.419 123.319 202.232Z" fill="url(#paint49_linear_553_5781)"/>
<path d="M123.319 185.367L121.969 184.589C121.756 184.439 121.581 184.24 121.458 184.008C121.336 183.777 121.271 183.52 121.267 183.259V179.586C121.267 179.071 121.585 178.837 121.969 179.061L123.319 179.839C123.53 179.991 123.703 180.191 123.824 180.422C123.944 180.653 124.009 180.909 124.012 181.17V184.842C124.012 185.367 123.703 185.61 123.319 185.367Z" fill="url(#paint50_linear_553_5781)"/>
<path d="M123.319 218.702L121.969 217.925C121.757 217.772 121.583 217.573 121.461 217.342C121.339 217.111 121.273 216.855 121.267 216.594V212.922C121.267 212.406 121.585 212.172 121.969 212.388L123.319 213.175C123.532 213.326 123.705 213.525 123.826 213.756C123.946 213.988 124.01 214.244 124.012 214.505V218.159C124.012 218.693 123.703 218.927 123.319 218.702Z" fill="url(#paint51_linear_553_5781)"/>
<path d="M289.86 218.665C276.337 226.469 254.323 226.422 240.697 218.562C227.071 210.701 225.89 190.455 239.413 182.622C252.936 174.789 278.193 175.979 291.819 183.849C305.445 191.719 303.392 210.851 289.86 218.665Z" fill="#6E798F"/>
<path d="M299.958 195.953C300.028 184.87 284.518 175.787 265.317 175.667C246.115 175.546 230.493 184.433 230.423 195.516C230.353 206.6 245.863 215.682 265.064 215.803C284.266 215.923 299.888 207.036 299.958 195.953Z" fill="url(#paint52_linear_553_5781)"/>
<path d="M289.86 201.979C276.337 209.783 254.323 209.736 240.697 201.876C227.071 194.015 225.89 173.769 239.413 165.936C252.936 158.103 278.193 159.293 291.819 167.163C305.445 175.033 303.392 194.165 289.86 201.979Z" fill="#6E798F"/>
<path d="M299.958 179.265C300.028 168.182 284.518 159.099 265.317 158.979C246.115 158.858 230.493 167.745 230.423 178.828C230.353 189.912 245.863 198.994 265.064 199.115C284.266 199.235 299.888 190.348 299.958 179.265Z" fill="url(#paint53_linear_553_5781)"/>
<path d="M289.86 185.283C276.337 193.097 254.323 193.05 240.697 185.18C227.071 177.31 225.89 157.072 239.413 149.24C252.936 141.407 278.193 142.607 291.819 150.467C305.445 158.328 303.392 177.478 289.86 185.283Z" fill="#6E798F"/>
<path d="M299.958 162.577C300.028 151.493 284.518 142.411 265.317 142.29C246.115 142.169 230.493 151.057 230.423 162.14C230.353 173.223 245.863 182.306 265.064 182.426C284.266 182.547 299.888 173.66 299.958 162.577Z" fill="url(#paint54_linear_553_5781)"/>
<path d="M244.135 202.232L242.786 201.454C242.574 201.302 242.4 201.102 242.278 200.871C242.156 200.641 242.089 200.385 242.083 200.124V196.451C242.083 195.936 242.402 195.701 242.786 195.917L244.135 196.704C244.348 196.855 244.522 197.054 244.642 197.286C244.763 197.517 244.827 197.773 244.829 198.034V201.707C244.801 202.232 244.52 202.419 244.135 202.232Z" fill="url(#paint55_linear_553_5781)"/>
<path d="M244.135 185.367L242.786 184.589C242.572 184.439 242.397 184.24 242.275 184.008C242.153 183.777 242.087 183.52 242.083 183.259V179.586C242.083 179.071 242.402 178.837 242.786 179.061L244.135 179.839C244.347 179.991 244.52 180.191 244.64 180.422C244.761 180.653 244.825 180.909 244.829 181.17V184.842C244.801 185.367 244.52 185.61 244.135 185.367Z" fill="url(#paint56_linear_553_5781)"/>
<path d="M244.135 218.702L242.786 217.925C242.574 217.772 242.4 217.573 242.278 217.342C242.156 217.111 242.089 216.855 242.083 216.594V212.922C242.083 212.406 242.402 212.172 242.786 212.388L244.135 213.175C244.348 213.326 244.522 213.525 244.642 213.756C244.763 213.988 244.827 214.244 244.829 214.505V218.159C244.801 218.693 244.52 218.927 244.135 218.702Z" fill="url(#paint57_linear_553_5781)"/>
<path d="M410.676 218.665C397.153 226.47 375.14 226.423 361.514 218.562C347.888 210.702 346.707 190.455 360.23 182.623C373.753 174.79 399 175.98 412.626 183.85C426.252 191.72 424.209 210.852 410.676 218.665Z" fill="url(#paint58_linear_553_5781)"/>
<path d="M420.774 195.946C420.844 184.863 405.335 175.78 386.133 175.66C366.931 175.539 351.309 184.426 351.239 195.509C351.17 206.593 366.679 215.675 385.881 215.796C405.082 215.917 420.705 207.03 420.774 195.946Z" fill="url(#paint59_linear_553_5781)"/>
<path d="M410.676 201.979C397.153 209.784 375.14 209.737 361.514 201.876C347.888 194.016 346.707 173.769 360.23 165.936C373.753 158.104 399 159.294 412.626 167.164C426.252 175.034 424.209 194.166 410.676 201.979Z" fill="url(#paint60_linear_553_5781)"/>
<path d="M420.774 179.258C420.844 168.175 405.334 159.092 386.133 158.972C366.931 158.851 351.309 167.738 351.239 178.822C351.17 189.905 366.679 198.987 385.881 199.108C405.082 199.229 420.705 190.342 420.774 179.258Z" fill="url(#paint61_linear_553_5781)"/>
<path d="M410.676 185.283C397.153 193.097 375.14 193.05 361.514 185.18C347.888 177.31 346.707 157.073 360.23 149.24C373.753 141.408 399 142.607 412.626 150.468C426.252 158.328 424.209 177.479 410.676 185.283Z" fill="url(#paint62_linear_553_5781)"/>
<path d="M420.774 162.58C420.844 151.496 405.335 142.414 386.133 142.293C366.931 142.172 351.309 151.059 351.239 162.143C351.17 173.226 366.679 182.309 385.881 182.429C405.082 182.55 420.705 173.663 420.774 162.58Z" fill="url(#paint63_linear_553_5781)"/>
<path d="M364.943 202.232L363.594 201.454C363.383 201.302 363.21 201.102 363.09 200.871C362.97 200.64 362.905 200.384 362.9 200.124V196.451C362.9 195.936 363.21 195.702 363.594 195.917L364.943 196.704C365.158 196.854 365.334 197.053 365.456 197.284C365.579 197.516 365.644 197.773 365.646 198.035V201.707C365.693 202.232 365.337 202.419 364.943 202.232Z" fill="url(#paint64_linear_553_5781)"/>
<path d="M364.943 185.367L363.594 184.59C363.381 184.439 363.208 184.239 363.087 184.008C362.966 183.777 362.903 183.52 362.9 183.259V179.587C362.9 179.071 363.21 178.837 363.594 179.062L364.943 179.84C365.158 179.99 365.333 180.189 365.455 180.42C365.578 180.651 365.643 180.908 365.646 181.17V184.843C365.693 185.367 365.337 185.611 364.943 185.367Z" fill="url(#paint65_linear_553_5781)"/>
<path d="M364.943 218.703L363.594 217.925C363.383 217.772 363.21 217.573 363.09 217.342C362.97 217.111 362.905 216.855 362.9 216.595V212.922C362.9 212.407 363.21 212.173 363.594 212.388L364.943 213.175C365.158 213.325 365.334 213.523 365.456 213.755C365.579 213.986 365.644 214.244 365.646 214.505V218.159C365.693 218.693 365.337 218.928 364.943 218.703Z" fill="url(#paint66_linear_553_5781)"/>
<path d="M459.043 95.2368C445.51 103.051 423.497 103.004 409.871 95.1338C396.245 87.2637 395.064 67.0266 408.596 59.194C422.129 51.3615 447.366 52.5607 460.992 60.4214C474.618 68.282 472.528 87.4324 459.043 95.2368Z" fill="#7086CA" stroke="#7086CA" stroke-width="0.412673" stroke-miterlimit="10"/>
<path d="M469.128 72.5303C469.197 61.4469 453.688 52.3643 434.487 52.2437C415.285 52.1231 399.663 61.0101 399.593 72.0935C399.523 83.1768 415.033 92.2594 434.234 92.38C453.436 92.5006 469.058 83.6136 469.128 72.5303Z" fill="url(#paint67_linear_553_5781)"/>
<path d="M459.043 78.5601C445.51 86.3645 423.497 86.327 409.871 78.457C396.245 70.587 395.064 50.3498 408.596 42.5173C422.129 34.6847 447.366 35.8839 460.992 43.7446C474.618 51.6052 472.528 70.7463 459.043 78.5601Z" fill="#7086CA"/>
<path d="M469.128 55.8427C469.197 44.7594 453.688 35.6768 434.487 35.5562C415.285 35.4356 399.663 44.3226 399.593 55.406C399.523 66.4893 415.033 75.5719 434.234 75.6925C453.436 75.8131 469.058 66.9261 469.128 55.8427Z" fill="url(#paint68_linear_553_5781)"/>
<path d="M459.043 61.8636C445.51 69.668 423.497 69.6212 409.871 61.7605C396.245 53.8999 395.064 33.6533 408.596 25.8208C422.129 17.9882 447.366 19.1781 460.992 27.0481C474.618 34.9181 472.528 54.0498 459.043 61.8636Z" fill="#7086CA"/>
<path d="M469.128 39.1543C469.197 28.0709 453.688 18.9883 434.486 18.8677C415.285 18.7471 399.663 27.6341 399.593 38.7175C399.523 49.8008 415.033 58.8834 434.234 59.004C453.436 59.1247 469.058 50.2376 469.128 39.1543Z" fill="url(#paint69_linear_553_5781)"/>
<path d="M413.31 78.7658L411.96 77.9882C411.747 77.837 411.574 77.6377 411.453 77.4064C411.333 77.1751 411.269 76.9185 411.267 76.6578V72.9851C411.267 72.4698 411.576 72.2356 411.96 72.4604L413.31 73.2381C413.522 73.3898 413.697 73.5891 413.819 73.82C413.941 74.051 414.007 74.3073 414.012 74.5685V78.2411C414.012 78.7564 413.694 78.9907 413.31 78.7658Z" fill="url(#paint70_linear_553_5781)"/>
<path d="M413.31 61.9669L411.96 61.1893C411.748 61.0351 411.576 60.8338 411.455 60.6013C411.335 60.3687 411.27 60.1113 411.267 59.8495V56.1862C411.267 55.6709 411.576 55.4367 411.96 55.6522L413.31 56.4298C413.522 56.5835 413.697 56.7845 413.819 57.017C413.941 57.2495 414.007 57.5071 414.012 57.7696V61.4423C414.012 61.9482 413.694 62.1918 413.31 61.9669Z" fill="url(#paint71_linear_553_5781)"/>
<path d="M413.31 95.2746L411.96 94.497C411.747 94.3458 411.574 94.1464 411.453 93.9152C411.333 93.6839 411.269 93.4273 411.267 93.1666V89.4939C411.267 88.9786 411.576 88.7444 411.96 88.9692L413.31 89.7468C413.522 89.8986 413.697 90.0978 413.819 90.3288C413.941 90.5598 414.007 90.8161 414.012 91.0773V94.7499C414.012 95.2652 413.694 95.4995 413.31 95.2746Z" fill="url(#paint72_linear_553_5781)"/>
<path d="M338.223 95.2295C324.7 103.043 302.687 102.996 289.061 95.1264C275.435 87.2564 274.254 67.0192 287.777 59.1867C301.3 51.3541 326.546 52.5534 340.173 60.414C353.799 68.2747 351.746 87.4251 338.223 95.2295Z" fill="#6E798F"/>
<path d="M348.308 72.5303C348.378 61.4469 332.869 52.3643 313.667 52.2437C294.466 52.1231 278.843 61.0101 278.774 72.0935C278.704 83.1768 294.213 92.2594 313.415 92.38C332.616 92.5006 348.239 83.6136 348.308 72.5303Z" fill="url(#paint73_linear_553_5781)"/>
<path d="M338.223 78.5527C324.7 86.3572 302.687 86.3197 289.061 78.4497C275.435 70.5797 274.254 50.3425 287.777 42.5099C301.3 34.6774 326.546 35.8766 340.173 43.7373C353.799 51.5979 351.746 70.7389 338.223 78.5527Z" fill="#6E798F"/>
<path d="M348.318 55.8418C348.388 44.7585 332.878 35.6759 313.677 35.5552C294.475 35.4346 278.853 44.3217 278.783 55.405C278.714 66.4883 294.223 75.5709 313.425 75.6915C332.626 75.8122 348.249 66.9251 348.318 55.8418Z" fill="url(#paint74_linear_553_5781)"/>
<path d="M338.223 61.8572C324.7 69.6617 302.687 69.6148 289.061 61.7542C275.435 53.8935 274.254 33.647 287.777 25.8144C301.3 17.9819 326.546 19.1717 340.173 27.0418C353.799 34.9118 351.746 54.0434 338.223 61.8572Z" fill="#6E798F"/>
<path d="M348.318 39.1543C348.388 28.071 332.878 18.9884 313.677 18.8677C294.475 18.7471 278.853 27.6342 278.783 38.7175C278.714 49.8008 294.223 58.8834 313.425 59.004C332.626 59.1247 348.249 50.2376 348.318 39.1543Z" fill="url(#paint75_linear_553_5781)"/>
<path d="M292.49 78.7585L291.141 77.9808C290.928 77.8297 290.754 77.6303 290.634 77.3991C290.513 77.1678 290.449 76.9112 290.447 76.6504V72.9778C290.447 72.4625 290.757 72.2282 291.141 72.4531L292.49 73.2307C292.703 73.3824 292.877 73.5817 292.999 73.8127C293.121 74.0437 293.188 74.3 293.193 74.5611V78.2338C293.193 78.7491 292.874 78.9833 292.49 78.7585Z" fill="url(#paint76_linear_553_5781)"/>
<path d="M292.49 61.9596L291.141 61.182C290.929 61.0278 290.756 60.8265 290.636 60.5939C290.515 60.3614 290.451 60.104 290.447 59.8422V56.1789C290.447 55.6636 290.757 55.4294 291.141 55.6449L292.49 56.4225C292.703 56.5762 292.877 56.7772 292.999 57.0097C293.121 57.2422 293.188 57.4998 293.193 57.7623V61.435C293.193 61.9409 292.874 62.1845 292.49 61.9596Z" fill="url(#paint77_linear_553_5781)"/>
<path d="M292.49 95.2673L291.141 94.4896C290.928 94.3385 290.754 94.1391 290.634 93.9078C290.513 93.6766 290.449 93.42 290.447 93.1592V89.4866C290.447 88.9713 290.757 88.737 291.141 88.9619L292.49 89.7395C292.703 89.8912 292.877 90.0905 292.999 90.3215C293.121 90.5525 293.188 90.8088 293.193 91.0699V94.7426C293.193 95.2579 292.874 95.4921 292.49 95.2673Z" fill="url(#paint78_linear_553_5781)"/>
<path d="M435.345 7.12012L450.5 15.8701V33.3701L435.345 42.1201L420.189 33.3701V15.8701L435.345 7.12012Z" fill="#7086CA"/>
<path d="M429.867 29.1201L429.339 27.1041H427.047L426.531 29.1201H424.707L426.975 20.7441H429.519L431.787 29.1201H429.867ZM428.247 22.4841H428.151L427.335 25.6521H429.063L428.247 22.4841ZM433.295 29.1201V20.7441H436.535C436.943 20.7441 437.307 20.8081 437.627 20.9361C437.947 21.0561 438.215 21.2321 438.431 21.4641C438.655 21.6961 438.823 21.9761 438.935 22.3041C439.047 22.6321 439.103 23.0001 439.103 23.4081C439.103 23.8161 439.047 24.1841 438.935 24.5121C438.823 24.8401 438.655 25.1201 438.431 25.3521C438.215 25.5841 437.947 25.7641 437.627 25.8921C437.307 26.0121 436.943 26.0721 436.535 26.0721H435.107V29.1201H433.295ZM435.107 24.6201H436.079C436.503 24.6201 436.795 24.5401 436.955 24.3801C437.123 24.2201 437.207 23.9561 437.207 23.5881V23.2281C437.207 22.8601 437.123 22.5961 436.955 22.4361C436.795 22.2761 436.503 22.1961 436.079 22.1961H435.107V24.6201ZM440.418 29.1201V27.7881H442.218V22.0761H440.418V20.7441H445.818V22.0761H444.018V27.7881H445.818V29.1201H440.418Z" fill="white"/>
<path d="M386.345 132.12L401.5 140.87V158.37L386.345 167.12L371.189 158.37V140.87L386.345 132.12Z" fill="#0061F1"/>
<path d="M385.666 153.079C385.208 153.079 384.751 152.785 384.751 152.262V151.282C384.751 151.086 384.359 150.857 384.195 150.824C384.13 150.824 384.064 150.759 384.064 150.694C384.064 150.628 384.097 150.563 384.195 150.563C384.359 150.53 384.718 150.302 384.718 150.105V149.125C384.718 148.602 385.208 148.308 385.633 148.308H386.025C386.123 148.308 386.189 148.373 386.189 148.439C386.189 148.504 386.156 148.57 386.091 148.602C385.927 148.635 385.666 148.798 385.666 149.19V150.171C385.633 150.432 385.568 150.596 385.437 150.694C385.568 150.792 385.633 150.955 385.666 151.217V152.197C385.666 152.589 385.96 152.752 386.091 152.818C386.156 152.85 386.189 152.916 386.189 152.981C386.189 153.047 386.123 153.112 386.025 153.112H385.666V153.079Z" fill="white"/>
<path d="M387.66 153.537C387.202 153.537 386.745 153.243 386.745 152.72V151.25C386.745 151.054 386.353 150.825 386.189 150.792C386.124 150.792 386.059 150.727 386.059 150.661C386.059 150.596 386.091 150.531 386.189 150.531C386.353 150.498 386.712 150.269 386.712 150.073V148.603C386.712 148.08 387.202 147.786 387.627 147.786H388.019C388.117 147.786 388.183 147.851 388.183 147.916C388.183 147.982 388.15 148.047 388.085 148.08C387.921 148.112 387.66 148.276 387.66 148.668V150.106C387.627 150.367 387.562 150.531 387.431 150.629C387.562 150.727 387.627 150.89 387.66 151.152V152.622C387.66 153.014 387.954 153.178 388.085 153.243C388.15 153.276 388.183 153.341 388.183 153.406C388.183 153.472 388.117 153.537 388.019 153.537H387.66Z" fill="white"/>
<path d="M389.653 153.308C389.196 153.308 388.738 153.014 388.738 152.491V151.282C388.738 151.086 388.346 150.857 388.182 150.825C388.117 150.825 388.052 150.759 388.052 150.694C388.052 150.629 388.084 150.563 388.182 150.563C388.346 150.53 388.738 150.302 388.738 150.106V148.897C388.738 148.374 389.228 148.08 389.653 148.08H390.045C390.111 148.08 390.209 148.145 390.209 148.21C390.209 148.276 390.176 148.341 390.111 148.374C389.98 148.406 389.686 148.537 389.718 148.962V150.171C389.686 150.432 389.62 150.596 389.49 150.694C389.62 150.792 389.686 150.955 389.718 151.217V152.426C389.718 152.851 390.045 152.981 390.143 153.047C390.209 153.079 390.241 153.145 390.241 153.21C390.241 153.275 390.176 153.341 390.078 153.341H389.653V153.308Z" fill="white"/>
<path d="M391.254 152.36C390.894 152.36 390.567 152.262 390.535 151.543V151.282C390.535 151.086 390.24 150.857 390.11 150.824C390.044 150.824 390.012 150.759 390.012 150.693C390.012 150.628 390.044 150.563 390.11 150.563C390.24 150.53 390.535 150.301 390.535 150.105V149.844C390.535 149.027 390.894 149.027 391.254 149.027H391.58C391.646 149.027 391.711 149.092 391.711 149.158C391.711 149.223 391.678 149.288 391.613 149.321C391.548 149.354 391.286 149.484 391.286 149.909V150.171C391.254 150.432 391.188 150.595 391.123 150.693C391.221 150.792 391.286 150.955 391.286 151.216V151.478C391.286 151.87 391.515 152.033 391.613 152.099C391.678 152.131 391.678 152.197 391.678 152.262C391.678 152.327 391.613 152.393 391.548 152.393H391.254V152.36Z" fill="white"/>
<path d="M393.083 152.818C392.691 152.818 392.266 152.523 392.266 152.001V151.282C392.266 151.086 391.94 150.857 391.809 150.824C391.744 150.824 391.711 150.759 391.711 150.693C391.711 150.628 391.744 150.563 391.809 150.563C391.94 150.53 392.266 150.301 392.266 150.105V149.386C392.266 148.863 392.691 148.569 393.083 148.569H393.443C393.508 148.569 393.574 148.635 393.574 148.7C393.574 148.765 393.541 148.831 393.476 148.863C393.345 148.896 393.083 149.06 393.116 149.452V150.171C393.083 150.432 393.018 150.595 392.92 150.693C393.018 150.791 393.083 150.955 393.116 151.216V151.935C393.116 152.327 393.41 152.491 393.476 152.523C393.541 152.556 393.574 152.621 393.574 152.687C393.574 152.752 393.508 152.818 393.443 152.818H393.083Z" fill="white"/>
<path d="M380.078 156.216C378.804 156.216 377.562 155.726 376.647 154.844C375.699 153.961 375.176 152.752 375.144 151.478C375.144 151.282 375.144 151.053 375.176 150.857C375.307 149.746 375.928 148.667 376.843 147.948C377.235 147.654 377.692 147.491 378.15 147.491C378.509 147.491 378.902 147.589 379.228 147.785C379.359 146.739 379.653 145.857 380.111 145.138C381.189 143.406 382.823 142.491 385.013 142.295C385.143 142.295 385.241 142.295 385.372 142.295C387.431 142.23 389.228 143.21 390.503 145.04C390.568 145.04 390.601 145.04 390.666 145.04H391.058C391.516 145.04 391.973 145.073 392.398 145.138C395.208 145.498 397.332 147.883 397.332 150.726C397.332 152.229 396.744 153.667 395.666 154.746C395.568 154.844 395.437 154.942 395.306 155.072C394.914 155.367 394.489 155.628 393.966 155.824C393.28 156.085 392.529 156.216 391.744 156.216H380.078ZM378.15 148.667C377.954 148.667 377.758 148.733 377.594 148.863C376.908 149.386 376.451 150.171 376.385 150.955C376.353 151.118 376.353 151.282 376.353 151.412C376.385 153.373 378.052 154.974 380.045 154.974H391.679C392.333 154.974 392.921 154.876 393.476 154.68C393.901 154.517 394.228 154.353 394.522 154.125C394.62 154.059 394.718 153.961 394.783 153.863C395.633 153.014 396.091 151.903 396.091 150.726C396.091 148.471 394.424 146.609 392.202 146.315C391.842 146.249 391.45 146.217 391.025 146.217C390.699 146.217 390.372 146.249 390.012 146.282H389.849L389.751 146.151C388.705 144.354 387.235 143.439 385.372 143.439C385.274 143.439 385.209 143.439 385.111 143.439C383.281 143.602 382.039 144.321 381.124 145.726C380.568 146.609 380.307 147.72 380.307 149.19C380.307 149.484 380.274 150.073 380.274 150.726C380.274 150.857 380.405 151.445 381.026 151.445C381.418 151.445 381.712 151.118 381.712 150.726C381.712 150.595 381.745 150.432 381.843 150.334L382.398 149.517C382.464 149.452 382.529 149.419 382.594 149.419C382.725 149.419 382.856 149.55 382.856 149.68V150.726C382.856 151.249 382.66 151.739 382.3 152.131C381.941 152.491 381.516 152.687 380.993 152.687H380.928C379.915 152.654 379.098 151.837 379.065 150.857V149.648C379.13 149.027 378.607 148.667 378.15 148.667Z" fill="white"/>
<defs>
<linearGradient id="paint0_linear_553_5781" x1="705.91" y1="130.702" x2="598.382" y2="92.6746" gradientUnits="userSpaceOnUse">
<stop stop-color="#232B37" stop-opacity="0.2"/>
<stop offset="0.677209" stop-color="#232B37"/>
</linearGradient>
<linearGradient id="paint1_linear_553_5781" x1="507.557" y1="-25.7803" x2="836.251" y2="80.2655" gradientUnits="userSpaceOnUse">
<stop stop-color="#9297C7"/>
<stop offset="1" stop-color="#30345E"/>
</linearGradient>
<linearGradient id="paint2_linear_553_5781" x1="544.684" y1="148.139" x2="707.01" y2="199.935" gradientUnits="userSpaceOnUse">
<stop stop-color="#66A3FF"/>
<stop offset="1" stop-color="#66A3FF" stop-opacity="0"/>
</linearGradient>
<linearGradient id="paint3_linear_553_5781" x1="415.511" y1="146.744" x2="329.554" y2="37.6667" gradientUnits="userSpaceOnUse">
<stop stop-color="#232B37" stop-opacity="0.2"/>
<stop offset="0.677209" stop-color="#232B37"/>
</linearGradient>
<linearGradient id="paint4_linear_553_5781" x1="82.952" y1="38.0239" x2="362.589" y2="369.72" gradientUnits="userSpaceOnUse">
<stop stop-color="#9297C7"/>
<stop offset="1" stop-color="#30345E"/>
</linearGradient>
<linearGradient id="paint5_linear_553_5781" x1="540.206" y1="156.5" x2="415.947" y2="77.0078" gradientUnits="userSpaceOnUse">
<stop stop-color="#66A3FF"/>
<stop offset="1" stop-color="#66A3FF" stop-opacity="0"/>
</linearGradient>
<linearGradient id="paint6_linear_553_5781" x1="38.1226" y1="283.485" x2="41.0767" y2="310.284" gradientUnits="userSpaceOnUse">
<stop stop-color="#1F2B3D"/>
<stop offset="1" stop-color="#344359" stop-opacity="0.5"/>
</linearGradient>
<linearGradient id="paint7_linear_553_5781" x1="116.544" y1="298.664" x2="116.544" y2="281.664" gradientUnits="userSpaceOnUse">
<stop stop-color="#E2E4E9"/>
<stop offset="1" stop-color="white"/>
</linearGradient>
<linearGradient id="paint8_linear_553_5781" x1="646.601" y1="177.348" x2="592.923" y2="177.011" gradientUnits="userSpaceOnUse">
<stop stop-color="#E2E4E9"/>
<stop offset="1" stop-color="white"/>
</linearGradient>
<linearGradient id="paint9_linear_553_5781" x1="646.602" y1="164.46" x2="592.924" y2="164.123" gradientUnits="userSpaceOnUse">
<stop stop-color="#E2E4E9"/>
<stop offset="1" stop-color="white"/>
</linearGradient>
<linearGradient id="paint10_linear_553_5781" x1="646.612" y1="151.581" x2="592.933" y2="151.243" gradientUnits="userSpaceOnUse">
<stop stop-color="#E2E4E9"/>
<stop offset="1" stop-color="white"/>
</linearGradient>
<linearGradient id="paint11_linear_553_5781" x1="602.99" y1="182.228" x2="602.99" y2="177.244" gradientUnits="userSpaceOnUse">
<stop stop-color="#E2E4E9"/>
<stop offset="1" stop-color="white"/>
</linearGradient>
<linearGradient id="paint12_linear_553_5781" x1="602.99" y1="169.252" x2="602.99" y2="164.268" gradientUnits="userSpaceOnUse">
<stop stop-color="#E2E4E9"/>
<stop offset="1" stop-color="white"/>
</linearGradient>
<linearGradient id="paint13_linear_553_5781" x1="602.99" y1="194.975" x2="602.99" y2="190" gradientUnits="userSpaceOnUse">
<stop stop-color="#E2E4E9"/>
<stop offset="1" stop-color="white"/>
</linearGradient>
<linearGradient id="paint14_linear_553_5781" x1="683.884" y1="109.475" x2="630.205" y2="109.137" gradientUnits="userSpaceOnUse">
<stop stop-color="#E2E4E9"/>
<stop offset="1" stop-color="white"/>
</linearGradient>
<linearGradient id="paint15_linear_553_5781" x1="683.884" y1="96.5862" x2="630.205" y2="96.2488" gradientUnits="userSpaceOnUse">
<stop stop-color="#E2E4E9"/>
<stop offset="1" stop-color="white"/>
</linearGradient>
<linearGradient id="paint16_linear_553_5781" x1="683.883" y1="83.7077" x2="630.205" y2="83.3704" gradientUnits="userSpaceOnUse">
<stop stop-color="#E2E4E9"/>
<stop offset="1" stop-color="white"/>
</linearGradient>
<linearGradient id="paint17_linear_553_5781" x1="640.269" y1="114.354" x2="640.269" y2="109.379" gradientUnits="userSpaceOnUse">
<stop stop-color="#E2E4E9"/>
<stop offset="1" stop-color="white"/>
</linearGradient>
<linearGradient id="paint18_linear_553_5781" x1="640.252" y1="101.379" x2="640.252" y2="96.4077" gradientUnits="userSpaceOnUse">
<stop stop-color="#E2E4E9"/>
<stop offset="1" stop-color="white"/>
</linearGradient>
<linearGradient id="paint19_linear_553_5781" x1="640.269" y1="127.101" x2="640.269" y2="122.117" gradientUnits="userSpaceOnUse">
<stop stop-color="#E2E4E9"/>
<stop offset="1" stop-color="white"/>
</linearGradient>
<linearGradient id="paint20_linear_553_5781" x1="721.155" y1="41.6013" x2="667.476" y2="41.2639" gradientUnits="userSpaceOnUse">
<stop stop-color="#E2E4E9"/>
<stop offset="1" stop-color="white"/>
</linearGradient>
<linearGradient id="paint21_linear_553_5781" x1="721.155" y1="28.7126" x2="667.476" y2="28.3753" gradientUnits="userSpaceOnUse">
<stop stop-color="#E2E4E9"/>
<stop offset="1" stop-color="white"/>
</linearGradient>
<linearGradient id="paint22_linear_553_5781" x1="721.165" y1="15.8332" x2="667.486" y2="15.4959" gradientUnits="userSpaceOnUse">
<stop stop-color="#E2E4E9"/>
<stop offset="1" stop-color="white"/>
</linearGradient>
<linearGradient id="paint23_linear_553_5781" x1="677.545" y1="46.4672" x2="677.545" y2="41.4951" gradientUnits="userSpaceOnUse">
<stop stop-color="#E2E4E9"/>
<stop offset="1" stop-color="white"/>
</linearGradient>
<linearGradient id="paint24_linear_553_5781" x1="677.545" y1="33.51" x2="677.545" y2="28.5298" gradientUnits="userSpaceOnUse">
<stop stop-color="#E2E4E9"/>
<stop offset="1" stop-color="white"/>
</linearGradient>
<linearGradient id="paint25_linear_553_5781" x1="677.545" y1="59.2269" x2="677.545" y2="54.252" gradientUnits="userSpaceOnUse">
<stop stop-color="#E2E4E9"/>
<stop offset="1" stop-color="white"/>
</linearGradient>
<linearGradient id="paint26_linear_553_5781" x1="609.33" y1="245.213" x2="555.651" y2="244.876" gradientUnits="userSpaceOnUse">
<stop stop-color="#E2E4E9"/>
<stop offset="1" stop-color="white"/>
</linearGradient>
<linearGradient id="paint27_linear_553_5781" x1="609.322" y1="232.324" x2="555.643" y2="231.987" gradientUnits="userSpaceOnUse">
<stop stop-color="#E2E4E9"/>
<stop offset="1" stop-color="white"/>
</linearGradient>
<linearGradient id="paint28_linear_553_5781" x1="609.332" y1="219.445" x2="555.653" y2="219.108" gradientUnits="userSpaceOnUse">
<stop stop-color="#E2E4E9"/>
<stop offset="1" stop-color="white"/>
</linearGradient>
<linearGradient id="paint29_linear_553_5781" x1="565.709" y1="250.102" x2="565.709" y2="245.115" gradientUnits="userSpaceOnUse">
<stop stop-color="#E2E4E9"/>
<stop offset="1" stop-color="white"/>
</linearGradient>
<linearGradient id="paint30_linear_553_5781" x1="565.709" y1="237.127" x2="565.709" y2="232.152" gradientUnits="userSpaceOnUse">
<stop stop-color="#E2E4E9"/>
<stop offset="1" stop-color="white"/>
</linearGradient>
<linearGradient id="paint31_linear_553_5781" x1="565.709" y1="262.861" x2="565.709" y2="257.874" gradientUnits="userSpaceOnUse">
<stop stop-color="#E2E4E9"/>
<stop offset="1" stop-color="white"/>
</linearGradient>
<linearGradient id="paint32_linear_553_5781" x1="725.493" y1="15.3289" x2="728.071" y2="38.7218" gradientUnits="userSpaceOnUse">
<stop stop-color="#1F2B3D"/>
<stop offset="1" stop-color="#344359" stop-opacity="0.5"/>
</linearGradient>
<linearGradient id="paint33_linear_553_5781" x1="793.973" y1="28.1587" x2="793.973" y2="14.1587" gradientUnits="userSpaceOnUse">
<stop stop-color="#E2E4E9"/>
<stop offset="1" stop-color="white"/>
</linearGradient>
<linearGradient id="paint34_linear_553_5781" x1="651.212" y1="153.987" x2="653.79" y2="177.38" gradientUnits="userSpaceOnUse">
<stop stop-color="#1F2B3D"/>
<stop offset="1" stop-color="#344359" stop-opacity="0.5"/>
</linearGradient>
<linearGradient id="paint35_linear_553_5781" x1="719.691" y1="166.817" x2="719.691" y2="152.817" gradientUnits="userSpaceOnUse">
<stop stop-color="#E2E4E9"/>
<stop offset="1" stop-color="white"/>
</linearGradient>
<linearGradient id="paint36_linear_553_5781" x1="688.499" y1="84.658" x2="691.273" y2="108.005" gradientUnits="userSpaceOnUse">
<stop stop-color="#1F2B3D"/>
<stop offset="1" stop-color="#344359" stop-opacity="0.5"/>
</linearGradient>
<linearGradient id="paint37_linear_553_5781" x1="752.007" y1="97.4878" x2="752.007" y2="83.4878" gradientUnits="userSpaceOnUse">
<stop stop-color="#E2E4E9"/>
<stop offset="1" stop-color="white"/>
</linearGradient>
<linearGradient id="paint38_linear_553_5781" x1="614.217" y1="223.316" x2="616.991" y2="246.664" gradientUnits="userSpaceOnUse">
<stop stop-color="#1F2B3D"/>
<stop offset="1" stop-color="#344359" stop-opacity="0.5"/>
</linearGradient>
<linearGradient id="paint39_linear_553_5781" x1="677.726" y1="236.146" x2="677.726" y2="222.146" gradientUnits="userSpaceOnUse">
<stop stop-color="#E2E4E9"/>
<stop offset="1" stop-color="white"/>
</linearGradient>
<linearGradient id="paint40_linear_553_5781" x1="227.505" y1="72.5351" x2="157.97" y2="72.0981" gradientUnits="userSpaceOnUse">
<stop stop-color="#E2E4E9"/>
<stop offset="1" stop-color="white"/>
</linearGradient>
<linearGradient id="paint41_linear_553_5781" x1="227.505" y1="55.8466" x2="157.97" y2="55.4096" gradientUnits="userSpaceOnUse">
<stop stop-color="#E2E4E9"/>
<stop offset="1" stop-color="white"/>
</linearGradient>
<linearGradient id="paint42_linear_553_5781" x1="227.505" y1="39.1587" x2="157.97" y2="38.7217" gradientUnits="userSpaceOnUse">
<stop stop-color="#E2E4E9"/>
<stop offset="1" stop-color="white"/>
</linearGradient>
<linearGradient id="paint43_linear_553_5781" x1="171.034" y1="78.8512" x2="171.034" y2="72.375" gradientUnits="userSpaceOnUse">
<stop stop-color="#E2E4E9"/>
<stop offset="1" stop-color="white"/>
</linearGradient>
<linearGradient id="paint44_linear_553_5781" x1="171.034" y1="62.051" x2="171.034" y2="55.5723" gradientUnits="userSpaceOnUse">
<stop stop-color="#E2E4E9"/>
<stop offset="1" stop-color="white"/>
</linearGradient>
<linearGradient id="paint45_linear_553_5781" x1="171.007" y1="95.3595" x2="171.007" y2="88.874" gradientUnits="userSpaceOnUse">
<stop stop-color="#E2E4E9"/>
<stop offset="1" stop-color="white"/>
</linearGradient>
<linearGradient id="paint46_linear_553_5781" x1="179.141" y1="195.951" x2="109.606" y2="195.514" gradientUnits="userSpaceOnUse">
<stop stop-color="#E2E4E9"/>
<stop offset="1" stop-color="white"/>
</linearGradient>
<linearGradient id="paint47_linear_553_5781" x1="179.141" y1="179.263" x2="109.606" y2="178.826" gradientUnits="userSpaceOnUse">
<stop stop-color="#E2E4E9"/>
<stop offset="1" stop-color="white"/>
</linearGradient>
<linearGradient id="paint48_linear_553_5781" x1="179.15" y1="162.574" x2="109.615" y2="162.137" gradientUnits="userSpaceOnUse">
<stop stop-color="#E2E4E9"/>
<stop offset="1" stop-color="white"/>
</linearGradient>
<linearGradient id="paint49_linear_553_5781" x1="122.64" y1="202.302" x2="122.64" y2="195.837" gradientUnits="userSpaceOnUse">
<stop stop-color="#E2E4E9"/>
<stop offset="1" stop-color="white"/>
</linearGradient>
<linearGradient id="paint50_linear_553_5781" x1="122.64" y1="185.462" x2="122.64" y2="178.976" gradientUnits="userSpaceOnUse">
<stop stop-color="#E2E4E9"/>
<stop offset="1" stop-color="white"/>
</linearGradient>
<linearGradient id="paint51_linear_553_5781" x1="122.64" y1="218.787" x2="122.64" y2="212.308" gradientUnits="userSpaceOnUse">
<stop stop-color="#E2E4E9"/>
<stop offset="1" stop-color="white"/>
</linearGradient>
<linearGradient id="paint52_linear_553_5781" x1="299.958" y1="195.953" x2="230.423" y2="195.516" gradientUnits="userSpaceOnUse">
<stop stop-color="#E2E4E9"/>
<stop offset="1" stop-color="white"/>
</linearGradient>
<linearGradient id="paint53_linear_553_5781" x1="299.958" y1="179.265" x2="230.423" y2="178.828" gradientUnits="userSpaceOnUse">
<stop stop-color="#E2E4E9"/>
<stop offset="1" stop-color="white"/>
</linearGradient>
<linearGradient id="paint54_linear_553_5781" x1="299.958" y1="162.577" x2="230.423" y2="162.14" gradientUnits="userSpaceOnUse">
<stop stop-color="#E2E4E9"/>
<stop offset="1" stop-color="white"/>
</linearGradient>
<linearGradient id="paint55_linear_553_5781" x1="243.456" y1="202.302" x2="243.456" y2="195.837" gradientUnits="userSpaceOnUse">
<stop stop-color="#E2E4E9"/>
<stop offset="1" stop-color="white"/>
</linearGradient>
<linearGradient id="paint56_linear_553_5781" x1="243.456" y1="185.462" x2="243.456" y2="178.976" gradientUnits="userSpaceOnUse">
<stop stop-color="#E2E4E9"/>
<stop offset="1" stop-color="white"/>
</linearGradient>
<linearGradient id="paint57_linear_553_5781" x1="243.456" y1="218.787" x2="243.456" y2="212.308" gradientUnits="userSpaceOnUse">
<stop stop-color="#E2E4E9"/>
<stop offset="1" stop-color="white"/>
</linearGradient>
<linearGradient id="paint58_linear_553_5781" x1="414.582" y1="215.194" x2="355.812" y2="216.19" gradientUnits="userSpaceOnUse">
<stop stop-color="#0051CC"/>
<stop offset="0.465978" stop-color="#0061F1"/>
<stop offset="1" stop-color="#5C9AF5"/>
</linearGradient>
<linearGradient id="paint59_linear_553_5781" x1="420.774" y1="195.946" x2="351.239" y2="195.509" gradientUnits="userSpaceOnUse">
<stop stop-color="#E2E4E9"/>
<stop offset="1" stop-color="white"/>
</linearGradient>
<linearGradient id="paint60_linear_553_5781" x1="414.582" y1="198.508" x2="355.812" y2="199.504" gradientUnits="userSpaceOnUse">
<stop stop-color="#0051CC"/>
<stop offset="0.465978" stop-color="#0061F1"/>
<stop offset="1" stop-color="#5C9AF5"/>
</linearGradient>
<linearGradient id="paint61_linear_553_5781" x1="420.774" y1="179.258" x2="351.239" y2="178.821" gradientUnits="userSpaceOnUse">
<stop stop-color="#E2E4E9"/>
<stop offset="1" stop-color="white"/>
</linearGradient>
<linearGradient id="paint62_linear_553_5781" x1="414.582" y1="181.818" x2="355.812" y2="182.814" gradientUnits="userSpaceOnUse">
<stop stop-color="#0051CC"/>
<stop offset="0.465978" stop-color="#0061F1"/>
<stop offset="1" stop-color="#5C9AF5"/>
</linearGradient>
<linearGradient id="paint63_linear_553_5781" x1="420.774" y1="162.58" x2="351.239" y2="162.143" gradientUnits="userSpaceOnUse">
<stop stop-color="#E2E4E9"/>
<stop offset="1" stop-color="white"/>
</linearGradient>
<linearGradient id="paint64_linear_553_5781" x1="364.275" y1="202.303" x2="364.275" y2="195.837" gradientUnits="userSpaceOnUse">
<stop stop-color="#E2E4E9"/>
<stop offset="1" stop-color="white"/>
</linearGradient>
<linearGradient id="paint65_linear_553_5781" x1="364.275" y1="185.462" x2="364.275" y2="178.977" gradientUnits="userSpaceOnUse">
<stop stop-color="#E2E4E9"/>
<stop offset="1" stop-color="white"/>
</linearGradient>
<linearGradient id="paint66_linear_553_5781" x1="364.275" y1="218.788" x2="364.275" y2="212.308" gradientUnits="userSpaceOnUse">
<stop stop-color="#E2E4E9"/>
<stop offset="1" stop-color="white"/>
</linearGradient>
<linearGradient id="paint67_linear_553_5781" x1="469.128" y1="72.5302" x2="399.593" y2="72.0932" gradientUnits="userSpaceOnUse">
<stop stop-color="#E2E4E9"/>
<stop offset="1" stop-color="white"/>
</linearGradient>
<linearGradient id="paint68_linear_553_5781" x1="469.128" y1="55.8427" x2="399.593" y2="55.4057" gradientUnits="userSpaceOnUse">
<stop stop-color="#E2E4E9"/>
<stop offset="1" stop-color="white"/>
</linearGradient>
<linearGradient id="paint69_linear_553_5781" x1="469.128" y1="39.1543" x2="399.593" y2="38.7173" gradientUnits="userSpaceOnUse">
<stop stop-color="#E2E4E9"/>
<stop offset="1" stop-color="white"/>
</linearGradient>
<linearGradient id="paint70_linear_553_5781" x1="412.64" y1="78.8512" x2="412.64" y2="72.375" gradientUnits="userSpaceOnUse">
<stop stop-color="#E2E4E9"/>
<stop offset="1" stop-color="white"/>
</linearGradient>
<linearGradient id="paint71_linear_553_5781" x1="412.64" y1="62.051" x2="412.64" y2="55.5723" gradientUnits="userSpaceOnUse">
<stop stop-color="#E2E4E9"/>
<stop offset="1" stop-color="white"/>
</linearGradient>
<linearGradient id="paint72_linear_553_5781" x1="412.64" y1="95.36" x2="412.64" y2="88.8838" gradientUnits="userSpaceOnUse">
<stop stop-color="#E2E4E9"/>
<stop offset="1" stop-color="white"/>
</linearGradient>
<linearGradient id="paint73_linear_553_5781" x1="348.308" y1="72.5302" x2="278.774" y2="72.0932" gradientUnits="userSpaceOnUse">
<stop stop-color="#E2E4E9"/>
<stop offset="1" stop-color="white"/>
</linearGradient>
<linearGradient id="paint74_linear_553_5781" x1="348.318" y1="55.8418" x2="278.783" y2="55.4048" gradientUnits="userSpaceOnUse">
<stop stop-color="#E2E4E9"/>
<stop offset="1" stop-color="white"/>
</linearGradient>
<linearGradient id="paint75_linear_553_5781" x1="348.318" y1="39.1543" x2="278.783" y2="38.7173" gradientUnits="userSpaceOnUse">
<stop stop-color="#E2E4E9"/>
<stop offset="1" stop-color="white"/>
</linearGradient>
<linearGradient id="paint76_linear_553_5781" x1="291.82" y1="78.8439" x2="291.82" y2="72.3677" gradientUnits="userSpaceOnUse">
<stop stop-color="#E2E4E9"/>
<stop offset="1" stop-color="white"/>
</linearGradient>
<linearGradient id="paint77_linear_553_5781" x1="291.82" y1="62.0437" x2="291.82" y2="55.5649" gradientUnits="userSpaceOnUse">
<stop stop-color="#E2E4E9"/>
<stop offset="1" stop-color="white"/>
</linearGradient>
<linearGradient id="paint78_linear_553_5781" x1="291.82" y1="95.3527" x2="291.82" y2="88.8765" gradientUnits="userSpaceOnUse">
<stop stop-color="#E2E4E9"/>
<stop offset="1" stop-color="white"/>
</linearGradient>
</defs>
</svg>
