<svg width="219" height="35" viewBox="0 0 219 35" fill="none" xmlns="http://www.w3.org/2000/svg">
<path d="M26.1081 26.3841C24.9947 26.3841 23.8813 25.6683 23.8813 24.3959V22.01C23.8813 21.5329 22.9269 20.9762 22.5293 20.8966C22.3702 20.8966 22.2112 20.7376 22.2112 20.5785C22.2112 20.4195 22.2907 20.2604 22.5293 20.2604C22.9269 20.1809 23.8017 19.6242 23.8017 19.147V16.7612C23.8017 15.4887 24.9947 14.7729 26.0285 14.7729H26.9829C27.2215 14.7729 27.3805 14.932 27.3805 15.0911C27.3805 15.2501 27.301 15.4092 27.1419 15.4887C26.7443 15.5682 26.1081 15.9659 26.1081 16.9202V19.3061C26.0285 19.9423 25.8695 20.3399 25.5514 20.5785C25.8695 20.8171 26.0285 21.2147 26.1081 21.851V24.2368C26.1081 25.1912 26.8238 25.5888 27.1419 25.7479C27.301 25.8274 27.3805 25.9865 27.3805 26.1455C27.3805 26.3046 27.2215 26.4636 26.9829 26.4636H26.1081V26.3841Z" fill="url(#paint0_linear_1317_1250)"/>
<path d="M30.9596 27.4975C29.8462 27.4975 28.7328 26.7817 28.7328 25.5093V21.9305C28.7328 21.4533 27.7785 20.8966 27.3809 20.8171C27.2218 20.8171 27.0627 20.658 27.0627 20.499C27.0627 20.3399 27.1423 20.1809 27.3809 20.1809C27.7785 20.1013 28.6533 19.5446 28.6533 19.0675V15.4887C28.6533 14.2162 29.8462 13.5005 30.8801 13.5005H31.8344C32.073 13.5005 32.2321 13.6595 32.2321 13.8186C32.2321 13.9777 32.1526 14.1367 31.9935 14.2162C31.5959 14.2958 30.9596 14.6934 30.9596 15.6478V19.147C30.8801 19.7832 30.721 20.1809 30.4029 20.4195C30.721 20.658 30.8801 21.0557 30.9596 21.6919V25.2707C30.9596 26.225 31.6754 26.6227 31.9935 26.7817C32.1526 26.8613 32.2321 27.0203 32.2321 27.1794C32.2321 27.3384 32.073 27.4975 31.8344 27.4975H30.9596Z" fill="url(#paint1_linear_1317_1250)"/>
<path d="M35.8106 26.9409C34.6972 26.9409 33.5838 26.2251 33.5838 24.9526V22.0101C33.5838 21.5329 32.6295 20.9762 32.2318 20.8967C32.0728 20.8967 31.9137 20.7376 31.9137 20.5786C31.9137 20.4195 31.9932 20.2605 32.2318 20.2605C32.6295 20.1809 33.5838 19.6242 33.5838 19.1471V16.2045C33.5838 14.9321 34.7767 14.2163 35.8106 14.2163H36.7649C36.924 14.2163 37.1626 14.3754 37.1626 14.5344C37.1626 14.6935 37.083 14.8525 36.924 14.9321C36.6059 15.0116 35.8901 15.3297 35.9696 16.3636V19.3061C35.8901 19.9424 35.7311 20.34 35.4129 20.5786C35.7311 20.8172 35.8901 21.2148 35.9696 21.851V24.7936C35.9696 25.8275 36.7649 26.1456 37.0035 26.3046C37.1626 26.3842 37.2421 26.5432 37.2421 26.7023C37.2421 26.8613 37.083 27.0204 36.8445 27.0204H35.8106V26.9409Z" fill="url(#paint2_linear_1317_1250)"/>
<path d="M39.7069 24.6344C38.8321 24.6344 38.0368 24.3958 37.9573 22.6462V22.0099C37.9573 21.5328 37.2415 20.9761 36.9234 20.8965C36.7643 20.8965 36.6848 20.7375 36.6848 20.5784C36.6848 20.4194 36.7643 20.2603 36.9234 20.2603C37.2415 20.1808 37.9573 19.6241 37.9573 19.1469V18.5107C37.9573 16.5225 38.8321 16.5225 39.7069 16.5225H40.5022C40.6612 16.5225 40.8203 16.6815 40.8203 16.8406C40.8203 16.9996 40.7408 17.1587 40.5817 17.2382C40.4227 17.3177 39.7864 17.6359 39.7864 18.6697V19.306C39.7069 19.9422 39.5478 20.3398 39.3888 20.5784C39.6274 20.817 39.7864 21.2146 39.7864 21.8509V22.4871C39.7864 23.4414 40.3431 23.8391 40.5817 23.9981C40.7408 24.0777 40.7408 24.2367 40.7408 24.3958C40.7408 24.5548 40.5817 24.7139 40.4226 24.7139H39.7069V24.6344Z" fill="url(#paint3_linear_1317_1250)"/>
<path d="M44.1614 25.7479C43.207 25.7479 42.1732 25.0321 42.1732 23.7597V22.01C42.1732 21.5329 41.3779 20.9762 41.0598 20.8966C40.9007 20.8966 40.8212 20.7376 40.8212 20.5785C40.8212 20.4195 40.9007 20.2604 41.0598 20.2604C41.3779 20.1809 42.1732 19.6242 42.1732 19.147V17.3974C42.1732 16.1249 43.207 15.4092 44.1614 15.4092H45.0362C45.1952 15.4092 45.3543 15.5682 45.3543 15.7273C45.3543 15.8863 45.2748 16.0454 45.1157 16.1249C44.7976 16.2045 44.1614 16.6021 44.2409 17.5564V19.3061C44.1614 19.9423 44.0023 20.3399 43.7637 20.5785C44.0023 20.8171 44.1614 21.2148 44.2409 21.851V23.6006C44.2409 24.5549 44.9566 24.9526 45.1157 25.0321C45.2748 25.1116 45.3543 25.2707 45.3543 25.4298C45.3543 25.5888 45.1952 25.7479 45.0362 25.7479H44.1614Z" fill="url(#paint4_linear_1317_1250)"/>
<path d="M12.5088 34.0189C9.40718 34.0189 6.3851 32.826 4.15831 30.6787C1.85198 28.5314 0.579528 25.5889 0.5 22.4873C0.5 22.0101 0.5 21.4534 0.579528 20.9762C0.897642 18.2723 2.40868 15.6478 4.63548 13.8982C5.58982 13.1825 6.70322 12.7848 7.81661 12.7848C8.69143 12.7848 9.64577 13.0234 10.4411 13.5006C10.7592 10.9557 11.4749 8.80839 12.5883 7.05877C15.2128 2.84376 19.1892 0.616965 24.5176 0.139795C24.8357 0.139795 25.0743 0.139795 25.3924 0.139795C30.4027 -0.0192622 34.7767 2.36659 37.8784 6.82018C38.0374 6.82018 38.1169 6.82018 38.276 6.82018H39.2303C40.3437 6.82018 41.4571 6.89971 42.491 7.05877C49.3305 7.93358 54.4998 13.7392 54.4998 20.6581C54.4998 24.3164 53.0683 27.8157 50.4438 30.4401C50.2053 30.6787 49.8871 30.9173 49.569 31.2354C48.6147 31.9512 47.5808 32.5874 46.3084 33.0646C44.6383 33.7008 42.8091 34.0189 40.9004 34.0189H12.5088ZM7.81661 15.6478C7.33944 15.6478 6.86227 15.8069 6.46463 16.125C4.79453 17.3975 3.68114 19.3061 3.52208 21.2148C3.44255 21.6125 3.44255 22.0101 3.44255 22.3282C3.52208 27.0999 7.57803 30.9968 12.4293 30.9968H40.7414C42.3319 30.9968 43.7635 30.7582 45.1154 30.2811C46.1493 29.8834 46.9446 29.4858 47.6604 28.9291C47.8989 28.77 48.1375 28.5314 48.2966 28.2929C50.3643 26.2251 51.4777 23.5212 51.4777 20.6581C51.4777 15.1707 47.4218 10.6375 42.0138 9.92179C41.139 9.76273 40.1847 9.68321 39.1508 9.68321C38.3555 9.68321 37.5602 9.76273 36.6854 9.84226H36.2878L36.0492 9.52415C33.5043 5.15008 29.9255 2.92329 25.3924 2.92329C25.1538 2.92329 24.9948 2.92329 24.7562 2.92329C20.3026 3.32093 17.2805 5.07056 15.0537 8.49028C13.7017 10.6375 13.0655 13.3415 13.0655 16.9203C13.0655 17.636 12.986 19.0676 12.986 20.6581C12.986 20.9762 13.3041 22.4078 14.8151 22.4078C15.7695 22.4078 16.4852 21.6125 16.4852 20.6581C16.4852 20.34 16.5647 19.9424 16.8033 19.7038L18.1553 17.7156C18.3144 17.5565 18.4734 17.477 18.6325 17.477C18.9506 17.477 19.2687 17.7951 19.2687 18.1132V20.6581C19.2687 21.9306 18.7915 23.1235 17.9167 24.0779C17.0419 24.9527 16.008 25.4298 14.7356 25.4298H14.5765C12.1111 25.3503 10.1229 23.3621 10.0434 20.9762V18.0337C10.2025 16.5227 8.93001 15.6478 7.81661 15.6478Z" fill="url(#paint5_linear_1317_1250)"/>
<path d="M91.04 15.7273L85.314 28.929C85.1549 29.2471 84.8368 29.4857 84.5187 29.4857C84.2006 29.4857 83.8825 29.3266 83.7234 29.0085L79.2698 19.5446C79.2698 19.4651 79.1108 19.4651 79.1108 19.5446L74.6572 29.0085C74.4981 29.3266 74.18 29.4857 73.8619 29.4857C73.5438 29.4857 73.2257 29.2471 73.0666 28.929L67.3406 15.7273C67.0224 14.6934 67.7382 13.5005 68.8516 13.5005C69.4878 13.5005 70.0445 13.8981 70.2831 14.4548L73.9414 23.5211C73.9414 23.6006 74.1005 23.6006 74.1005 23.5211L78.395 13.9777C78.5541 13.6595 78.8722 13.5005 79.1903 13.5005C79.5084 13.5005 79.8265 13.6595 79.9856 13.9777L84.3596 23.4415C84.3596 23.5211 84.5187 23.5211 84.5187 23.4415L88.0975 14.4548C88.3361 13.8186 88.8928 13.5005 89.529 13.5005C90.7219 13.5005 91.5172 14.6934 91.04 15.7273Z" fill="white"/>
<path d="M95.8111 22.5665C96.2087 25.0319 98.1969 26.543 100.742 26.543C101.935 26.543 103.048 26.2248 104.082 25.5091C104.718 25.1114 105.514 25.2705 105.991 25.9067C106.468 26.543 106.229 27.4178 105.673 27.8154C104.162 28.8493 102.571 29.406 100.662 29.406C96.0497 29.406 92.4709 25.9863 92.4709 21.4531C92.3913 17.0791 96.0497 13.4208 100.344 13.5003C104.4 13.5003 107.343 16.5224 107.343 20.4988C107.343 20.8964 107.343 21.2941 107.263 21.7713C107.184 22.2484 106.786 22.5665 106.309 22.5665H95.8111ZM104.162 20.0216C104.162 17.7153 102.412 16.2838 100.265 16.2838C98.1174 16.2838 96.3678 17.7153 95.8906 20.0216H104.162Z" fill="white"/>
<path d="M206.674 22.5665C207.072 25.0319 209.06 26.543 211.605 26.543C212.798 26.543 213.911 26.2248 214.945 25.5091C215.581 25.1114 216.377 25.2705 216.854 25.9067C217.331 26.543 217.092 27.4178 216.536 27.8154C215.025 28.8493 213.434 29.406 211.525 29.406C206.913 29.406 203.334 25.9863 203.334 21.4531C203.254 17.0791 206.913 13.4208 211.207 13.5003C215.263 13.5003 218.206 16.5224 218.206 20.4988C218.206 20.8964 218.206 21.2941 218.126 21.7713C218.047 22.2484 217.649 22.5665 217.172 22.5665H206.674ZM214.945 20.0216C214.945 17.7153 213.195 16.2838 211.048 16.2838C208.901 16.2838 207.151 17.7153 206.674 20.0216H214.945Z" fill="white"/>
<path d="M118.715 29.4061C116.488 29.4061 114.5 28.5313 113.386 26.9408V27.8951C113.386 28.7699 112.671 29.4061 111.875 29.4061C111.001 29.4061 110.364 28.6904 110.364 27.8951V7.45629C110.364 6.58148 111.08 5.86572 111.955 5.86572C112.83 5.86572 113.546 6.58148 113.546 7.45629V15.7272C114.659 14.2957 116.488 13.5005 118.635 13.5005C122.93 13.5005 126.111 16.9202 126.111 21.4533C126.191 25.9864 123.009 29.4061 118.715 29.4061ZM118.158 16.5225C115.772 16.5225 113.546 18.1926 113.546 21.5328C113.546 24.873 115.772 26.4636 118.158 26.4636C120.783 26.4636 122.771 24.3958 122.771 21.4533C122.85 18.5107 120.783 16.5225 118.158 16.5225Z" fill="white"/>
<path d="M140.825 29.4061C139.95 29.4061 139.234 28.6904 139.234 27.8156V20.0218C139.234 17.954 137.962 16.5225 135.894 16.5225C133.826 16.5225 132.395 17.954 132.395 20.0218V27.8156C132.395 28.6904 131.679 29.4061 130.804 29.4061C129.93 29.4061 129.214 28.6904 129.214 27.8156V7.45629C129.214 6.58148 129.93 5.86572 130.804 5.86572C131.679 5.86572 132.395 6.58148 132.395 7.45629V15.4091C133.429 14.2162 134.94 13.58 136.769 13.58C140.268 13.58 142.415 16.0454 142.415 19.6241V27.8951C142.415 28.6904 141.7 29.4061 140.825 29.4061Z" fill="white"/>
<path d="M182.338 5.86572C183.213 5.86572 183.929 6.58148 183.929 7.45629V27.8156C183.929 28.6904 183.213 29.4061 182.338 29.4061C181.463 29.4061 180.748 28.6904 180.748 27.8156V7.45629C180.668 6.58148 181.384 5.86572 182.338 5.86572ZM191.643 29.4061C191.166 29.4061 190.689 29.1676 190.45 28.7699L184.008 20.499L189.814 13.9776C190.132 13.6595 190.53 13.5005 190.927 13.5005C192.2 13.5005 192.915 15.0115 192.041 15.9658L187.905 20.499L192.915 26.8612C193.631 27.9746 192.915 29.4061 191.643 29.4061Z" fill="white"/>
<path d="M198.084 6.0249C199.277 6.0249 200.311 6.97924 200.311 8.17217C200.311 9.3651 199.357 10.3194 198.084 10.3194C196.812 10.3194 195.858 9.3651 195.858 8.17217C195.858 6.97924 196.812 6.0249 198.084 6.0249ZM198.084 13.5006C198.959 13.5006 199.675 14.2163 199.675 15.0911V27.7362C199.675 28.611 198.959 29.3267 198.084 29.3267C197.21 29.3267 196.494 28.611 196.494 27.7362V15.0911C196.414 14.2163 197.13 13.5006 198.084 13.5006Z" fill="white"/>
<path d="M153.31 29.406C151.799 29.406 150.288 28.9289 149.016 28.1336C148.936 28.0541 148.857 28.0541 148.777 27.9745C148.698 27.895 148.618 27.895 148.539 27.8155C148.459 27.7359 148.38 27.7359 148.3 27.6564C148.221 27.6564 148.221 27.5769 148.221 27.5769C148.141 27.4974 148.061 27.4178 147.982 27.3383C147.902 27.2588 147.823 27.1792 147.664 27.0997C146.869 26.3044 146.232 25.3501 145.835 24.3162C145.835 24.2367 145.835 24.2367 145.835 24.2367C145.517 23.4414 145.358 22.6461 145.358 21.7713C145.198 17.4768 148.539 13.8185 152.833 13.5799C156.253 13.3413 159.355 15.3295 160.706 18.5106L161.104 19.624L162.615 17.5563C163.172 16.761 163.808 16.0453 164.603 15.409C166.194 14.1366 167.705 13.5799 169.614 13.5799C172.477 13.5799 175.101 15.0909 176.453 17.5563C176.533 17.6358 176.533 17.7154 176.612 17.7949C176.692 17.8744 176.692 17.9539 176.771 18.0335C176.93 18.2721 177.01 18.5902 177.089 18.9083C177.169 19.0673 177.169 19.1469 177.248 19.3059C177.328 19.624 177.407 19.9422 177.487 20.2603C177.487 20.3398 177.487 20.4989 177.567 20.5784C177.567 20.8965 177.646 21.1351 177.646 21.4532C177.646 21.5327 177.646 21.6918 177.646 21.7713C177.646 21.9304 177.646 22.0099 177.646 22.169C177.487 23.4414 177.089 24.6343 176.453 25.7477C176.374 25.8273 176.294 25.9068 176.294 26.0658C176.215 26.1454 176.215 26.2249 176.135 26.3044C176.055 26.384 175.976 26.4635 175.896 26.543C174.863 27.8155 173.351 28.7698 171.761 29.1675C171.602 29.1675 171.522 29.247 171.363 29.247C171.284 29.247 171.125 29.247 171.045 29.3265C170.966 29.3265 170.807 29.3265 170.727 29.406C170.409 29.406 170.091 29.4856 169.773 29.4856C168.262 29.4856 166.83 29.0879 165.637 28.2926C165.558 28.2131 165.478 28.2131 165.399 28.1336C164.683 27.6564 164.444 26.8611 164.683 26.0658C164.921 25.5091 165.478 25.1115 166.194 25.1115C166.353 25.1115 166.592 25.191 166.671 25.191C166.671 25.191 166.989 25.3501 167.228 25.5091C167.944 25.9068 168.58 26.2249 169.455 26.2249C169.534 26.2249 169.614 26.2249 169.614 26.2249C171.363 26.2249 172.954 25.2706 173.749 23.7595C173.829 23.68 173.829 23.6005 173.908 23.5209C174.226 22.8847 174.385 22.169 174.385 21.5327C174.385 21.1351 174.306 20.6579 174.226 20.2603C173.67 18.1925 171.761 16.761 169.693 16.761C168.262 16.761 166.91 17.4768 165.876 18.6697C165.478 19.1469 159.911 26.3044 159.832 26.384C158.082 28.2926 155.776 29.406 153.31 29.406ZM153.31 16.761C150.686 16.761 148.618 18.9083 148.618 21.5327C148.618 24.1572 150.765 26.3044 153.31 26.3044C155.935 26.3044 158.082 24.1572 158.082 21.5327C158.082 18.8288 155.935 16.761 153.31 16.761Z" fill="white"/>
<defs>
<linearGradient id="paint0_linear_1317_1250" x1="24.6394" y1="17.6363" x2="17.9169" y2="21.0473" gradientUnits="userSpaceOnUse">
<stop stop-color="#0061F1"/>
<stop offset="1" stop-color="#0061F1"/>
</linearGradient>
<linearGradient id="paint1_linear_1317_1250" x1="29.491" y1="16.9287" x2="22.3248" y2="19.9657" gradientUnits="userSpaceOnUse">
<stop stop-color="#0061F1"/>
<stop offset="1" stop-color="#0061F1"/>
</linearGradient>
<linearGradient id="paint2_linear_1317_1250" x1="34.4167" y1="17.3524" x2="27.3213" y2="20.7406" gradientUnits="userSpaceOnUse">
<stop stop-color="#0061F1"/>
<stop offset="1" stop-color="#0061F1"/>
</linearGradient>
<linearGradient id="paint3_linear_1317_1250" x1="38.6274" y1="18.5287" x2="33.5641" y2="21.462" gradientUnits="userSpaceOnUse">
<stop stop-color="#0061F1"/>
<stop offset="1" stop-color="#0061F1"/>
</linearGradient>
<linearGradient id="paint4_linear_1317_1250" x1="42.9506" y1="17.9414" x2="37.0351" y2="20.9176" gradientUnits="userSpaceOnUse">
<stop stop-color="#0061F1"/>
<stop offset="1" stop-color="#0061F1"/>
</linearGradient>
<linearGradient id="paint5_linear_1317_1250" x1="25.8659" y1="8.43201" x2="5.53652" y2="45.6057" gradientUnits="userSpaceOnUse">
<stop stop-color="#0061F1"/>
<stop offset="1" stop-color="#0061F1"/>
</linearGradient>
</defs>
</svg>
