<svg width="664" height="394" viewBox="0 0 664 394" fill="none" xmlns="http://www.w3.org/2000/svg">
<path d="M284.908 333.876C322.487 309.831 391.117 264.594 417.476 248.06L394.879 233.498M567.618 155.665C536.604 175.51 461.347 219.164 438.566 233.498L415.467 218.936" stroke="#66A0F7" stroke-width="2.0086"/>
<path d="M108.152 254.538C145.73 230.493 240.473 176.217 266.831 159.683L285.411 169.726M389.695 76.9301C358.681 96.7751 308.192 127.774 285.411 142.108L312.025 158.177" stroke="#66A0F7" stroke-width="2.0086"/>
<path d="M423.693 198.654C423.849 173.831 389.149 153.489 346.188 153.218C303.228 152.948 268.274 172.852 268.118 197.675C267.962 222.498 302.662 242.84 345.623 243.11C388.583 243.38 423.536 223.476 423.693 198.654Z" stroke="#66A0F7" stroke-width="2.0086" stroke-miterlimit="10"/>
<path d="M663.32 181.552L613.307 152.652" stroke="url(#paint0_linear_537_5353)" stroke-width="2.0086" stroke-miterlimit="10"/>
<path d="M330.102 14.059L380.115 42.9595" stroke="url(#paint1_linear_537_5353)" stroke-width="2.0086" stroke-miterlimit="10"/>
<path d="M0.680106 225.967L50.6929 254.868" stroke="url(#paint2_linear_537_5353)" stroke-width="2.0086" stroke-miterlimit="10"/>
<path d="M618.831 124.03L662.016 98.4199" stroke="url(#paint3_linear_537_5353)" stroke-width="2.0086" stroke-miterlimit="10"/>
<path d="M527.941 82.8542L571.126 57.2446" stroke="url(#paint4_linear_537_5353)" stroke-width="2.0086" stroke-miterlimit="10"/>
<path d="M439.57 44.6902L482.755 19.0806" stroke="url(#paint5_linear_537_5353)" stroke-width="2.0086" stroke-miterlimit="10"/>
<path d="M53.9082 284.217L10.7234 309.826" stroke="url(#paint6_linear_537_5353)" stroke-width="2.0086" stroke-miterlimit="10"/>
<path d="M144.797 325.393L101.612 351.002" stroke="url(#paint7_linear_537_5353)" stroke-width="2.0086" stroke-miterlimit="10"/>
<path d="M233.168 363.556L189.984 389.166" stroke="url(#paint8_linear_537_5353)" stroke-width="2.0086" stroke-miterlimit="10"/>
<path d="M330.904 392.456L280.891 363.556" stroke="url(#paint9_linear_537_5353)" stroke-width="2.0086" stroke-miterlimit="10"/>
<path d="M294.587 347.355C294.663 335.234 277.742 325.301 256.793 325.17C235.844 325.038 218.8 334.757 218.724 346.878C218.648 358.999 235.568 368.932 256.517 369.063C277.466 369.195 294.51 359.476 294.587 347.355Z" stroke="#66A0F7" stroke-width="2.0086" stroke-miterlimit="10"/>
<path d="M277.826 355.222C266.306 361.903 247.554 361.863 235.947 355.134C224.339 348.405 223.334 331.074 234.853 324.369C246.373 317.664 267.887 318.683 279.494 325.419C291.101 332.156 289.353 348.534 277.826 355.222Z" fill="#6E798F"/>
<path d="M286.947 335.78C287.007 326.292 273.795 318.517 257.438 318.414C241.082 318.31 227.774 325.918 227.714 335.406C227.655 344.893 240.867 352.668 257.223 352.771C273.58 352.875 286.888 345.267 286.947 335.78Z" fill="url(#paint10_linear_537_5353)"/>
<path d="M277.826 340.938C266.306 347.619 247.554 347.579 235.947 340.85C224.339 334.121 223.334 316.789 234.853 310.084C246.373 303.379 267.887 304.398 279.494 311.135C291.101 317.872 289.353 334.249 277.826 340.938Z" fill="#6E798F"/>
<path d="M286.947 321.494C287.007 312.006 273.795 304.231 257.438 304.128C241.082 304.025 227.774 311.632 227.714 321.12C227.655 330.608 240.867 338.383 257.223 338.486C273.58 338.589 286.888 330.981 286.947 321.494Z" fill="url(#paint11_linear_537_5353)"/>
<path d="M277.826 326.645C266.306 333.334 247.554 333.294 235.947 326.557C224.339 319.82 223.334 302.497 234.853 295.792C246.373 289.087 267.887 290.114 279.494 296.843C291.101 303.571 289.353 319.965 277.826 326.645Z" fill="#6E798F"/>
<path d="M287.276 307.208C287.335 297.721 274.124 289.946 257.767 289.842C241.41 289.739 228.102 297.347 228.043 306.834C227.984 316.322 241.195 324.097 257.552 324.2C273.909 324.303 287.217 316.696 287.276 307.208Z" fill="url(#paint12_linear_537_5353)"/>
<path d="M239.396 341.153L238.246 340.488C238.065 340.357 237.917 340.187 237.813 339.989C237.709 339.791 237.653 339.572 237.647 339.349V336.205C237.647 335.764 237.919 335.563 238.246 335.748L239.396 336.421C239.577 336.551 239.725 336.721 239.827 336.919C239.93 337.117 239.985 337.337 239.986 337.56V340.704C239.963 341.153 239.723 341.314 239.396 341.153Z" fill="url(#paint13_linear_537_5353)"/>
<path d="M239.396 326.718L238.246 326.052C238.064 325.923 237.915 325.753 237.811 325.555C237.707 325.357 237.651 325.137 237.647 324.913V321.769C237.647 321.328 237.919 321.128 238.246 321.32L239.396 321.986C239.576 322.116 239.723 322.287 239.826 322.485C239.928 322.683 239.983 322.902 239.986 323.125V326.269C239.963 326.718 239.723 326.926 239.396 326.718Z" fill="url(#paint14_linear_537_5353)"/>
<path d="M239.396 355.254L238.246 354.588C238.065 354.458 237.917 354.287 237.813 354.089C237.709 353.892 237.653 353.673 237.647 353.449V350.305C237.647 349.864 237.919 349.664 238.246 349.848L239.396 350.522C239.577 350.651 239.725 350.822 239.827 351.02C239.93 351.218 239.985 351.438 239.986 351.661V354.789C239.963 355.246 239.723 355.446 239.396 355.254Z" fill="url(#paint15_linear_537_5353)"/>
<path d="M623.99 136.451C624.067 124.33 607.146 114.398 586.197 114.266C565.248 114.134 548.204 123.853 548.128 135.974C548.052 148.095 564.972 158.028 585.921 158.16C606.87 158.291 623.914 148.572 623.99 136.451Z" stroke="#66A0F7" stroke-width="2.0086" stroke-miterlimit="10"/>
<path d="M607.229 144.318C595.71 150.999 576.958 150.959 565.351 144.23C553.743 137.501 552.737 120.169 564.257 113.465C575.776 106.76 597.291 107.778 608.898 114.515C620.505 121.252 618.757 137.629 607.229 144.318Z" fill="#6E798F"/>
<path d="M616.351 124.875C616.41 115.388 603.199 107.613 586.842 107.509C570.485 107.406 557.178 115.014 557.118 124.501C557.059 133.989 570.27 141.764 586.627 141.867C602.984 141.97 616.292 134.363 616.351 124.875Z" fill="url(#paint16_linear_537_5353)"/>
<path d="M607.229 130.033C595.71 136.714 576.958 136.674 565.351 129.945C553.743 123.216 552.737 105.885 564.257 99.1799C575.776 92.475 597.291 93.4936 608.898 100.231C620.505 106.967 618.757 123.345 607.229 130.033Z" fill="#6E798F"/>
<path d="M616.351 110.59C616.41 101.102 603.199 93.327 586.842 93.2237C570.485 93.1205 557.178 100.728 557.118 110.216C557.059 119.703 570.27 127.478 586.627 127.581C602.984 127.685 616.292 120.077 616.351 110.59Z" fill="url(#paint17_linear_537_5353)"/>
<path d="M607.229 115.741C595.71 122.43 576.958 122.39 565.351 115.653C553.743 108.916 552.737 91.5924 564.257 84.8876C575.776 78.1827 597.291 79.2093 608.898 85.9382C620.505 92.6671 618.757 109.06 607.229 115.741Z" fill="#6E798F"/>
<path d="M616.68 96.3044C616.739 86.8168 603.527 79.0418 587.171 78.9386C570.814 78.8353 557.506 86.4429 557.447 95.9305C557.387 105.418 570.599 113.193 586.956 113.296C603.312 113.4 616.62 105.792 616.68 96.3044Z" fill="url(#paint18_linear_537_5353)"/>
<path d="M568.8 130.249L567.65 129.583C567.469 129.453 567.321 129.282 567.217 129.085C567.113 128.887 567.057 128.668 567.051 128.444V125.3C567.051 124.859 567.323 124.659 567.65 124.843L568.8 125.517C568.981 125.646 569.129 125.817 569.231 126.015C569.334 126.213 569.388 126.433 569.39 126.656V129.8C569.366 130.249 569.127 130.409 568.8 130.249Z" fill="url(#paint19_linear_537_5353)"/>
<path d="M568.8 115.813L567.65 115.148C567.468 115.019 567.319 114.848 567.215 114.651C567.111 114.453 567.055 114.233 567.051 114.009V110.865C567.051 110.424 567.323 110.223 567.65 110.416L568.8 111.082C568.98 111.212 569.127 111.383 569.23 111.58C569.332 111.778 569.387 111.997 569.39 112.22V115.364C569.366 115.813 569.127 116.022 568.8 115.813Z" fill="url(#paint20_linear_537_5353)"/>
<path d="M568.8 144.349L567.65 143.683C567.469 143.553 567.321 143.382 567.217 143.185C567.113 142.987 567.057 142.768 567.051 142.544V139.401C567.051 138.959 567.323 138.759 567.65 138.943L568.8 139.617C568.981 139.746 569.129 139.917 569.231 140.115C569.334 140.313 569.388 140.533 569.39 140.756V143.884C569.366 144.341 569.127 144.541 568.8 144.349Z" fill="url(#paint21_linear_537_5353)"/>
<path d="M206.227 307.9C206.303 295.779 189.383 285.846 168.434 285.714C147.485 285.582 130.441 295.301 130.365 307.422C130.288 319.543 147.209 329.476 168.158 329.608C189.107 329.74 206.151 320.02 206.227 307.9Z" stroke="#66A0F7" stroke-width="2.0086" stroke-miterlimit="10"/>
<path d="M189.075 317.202C177.556 323.883 158.804 323.843 147.196 317.114C135.589 310.385 134.583 293.054 146.103 286.349C157.622 279.644 179.136 280.663 190.744 287.399C202.351 294.136 200.603 310.514 189.075 317.202Z" fill="#6E798F"/>
<path d="M198.197 297.761C198.256 288.273 185.044 280.498 168.688 280.395C152.331 280.292 139.023 287.899 138.964 297.387C138.905 306.875 152.116 314.65 168.473 314.753C184.83 314.856 198.137 307.249 198.197 297.761Z" fill="url(#paint22_linear_537_5353)"/>
<path d="M189.075 302.919C177.556 309.6 158.804 309.56 147.196 302.831C135.589 296.102 134.583 278.77 146.103 272.066C157.622 265.361 179.136 266.379 190.744 273.116C202.351 279.853 200.603 296.23 189.075 302.919Z" fill="#6E798F"/>
<path d="M198.197 283.475C198.256 273.988 185.044 266.213 168.688 266.109C152.331 266.006 139.023 273.614 138.964 283.101C138.905 292.589 152.116 300.364 168.473 300.467C184.83 300.57 198.137 292.963 198.197 283.475Z" fill="url(#paint23_linear_537_5353)"/>
<path d="M189.075 288.627C177.556 295.316 158.804 295.276 147.196 288.539C135.589 281.802 134.583 264.479 146.103 257.774C157.622 251.069 179.136 252.096 190.744 258.824C202.351 265.553 200.603 281.947 189.075 288.627Z" fill="#6E798F"/>
<path d="M198.525 269.191C198.584 259.704 185.373 251.929 169.016 251.825C152.659 251.722 139.351 259.33 139.292 268.817C139.233 278.305 152.444 286.08 168.801 286.183C185.158 286.286 198.466 278.679 198.525 269.191Z" fill="url(#paint24_linear_537_5353)"/>
<path d="M150.645 303.136L149.496 302.47C149.315 302.34 149.167 302.169 149.063 301.972C148.959 301.774 148.902 301.555 148.897 301.332V298.188C148.897 297.747 149.168 297.546 149.496 297.731L150.645 298.404C150.826 298.534 150.974 298.704 151.077 298.902C151.18 299.1 151.234 299.32 151.236 299.543V302.687C151.212 303.136 150.973 303.297 150.645 303.136Z" fill="url(#paint25_linear_537_5353)"/>
<path d="M150.645 288.699L149.496 288.033C149.314 287.904 149.164 287.734 149.06 287.536C148.956 287.338 148.9 287.118 148.897 286.894V283.75C148.897 283.309 149.168 283.109 149.496 283.301L150.645 283.967C150.825 284.097 150.973 284.268 151.075 284.466C151.178 284.664 151.233 284.883 151.236 285.106V288.25C151.212 288.699 150.973 288.907 150.645 288.699Z" fill="url(#paint26_linear_537_5353)"/>
<path d="M150.645 317.235L149.496 316.569C149.315 316.439 149.167 316.268 149.063 316.07C148.959 315.873 148.902 315.654 148.897 315.43V312.286C148.897 311.845 149.168 311.645 149.496 311.829L150.645 312.503C150.826 312.632 150.974 312.803 151.077 313.001C151.18 313.199 151.234 313.418 151.236 313.642V316.77C151.212 317.227 150.973 317.427 150.645 317.235Z" fill="url(#paint27_linear_537_5353)"/>
<path d="M535.637 96.9953C535.714 84.8744 518.793 74.9416 497.844 74.8098C476.895 74.678 459.851 84.3971 459.775 96.518C459.699 108.639 476.619 118.572 497.568 118.703C518.517 118.835 535.561 109.116 535.637 96.9953Z" stroke="#66A0F7" stroke-width="2.0086" stroke-miterlimit="10"/>
<path d="M518.486 106.298C506.966 112.979 488.214 112.939 476.607 106.21C465 99.481 463.994 82.1494 475.513 75.4445C487.033 68.7397 508.547 69.7582 520.154 76.4952C531.762 83.2321 530.013 99.6093 518.486 106.298Z" fill="#6E798F"/>
<path d="M527.607 86.8567C527.667 77.369 514.455 69.5941 498.098 69.4908C481.742 69.3876 468.434 76.9951 468.375 86.4828C468.315 95.9704 481.527 103.745 497.884 103.849C514.24 103.952 527.548 96.3443 527.607 86.8567Z" fill="url(#paint28_linear_537_5353)"/>
<path d="M518.486 92.0149C506.966 98.6958 488.214 98.6557 476.607 91.9267C465 85.1978 463.994 67.8662 475.513 61.1613C487.033 54.4564 508.547 55.475 520.154 62.212C531.762 68.9489 530.013 85.3261 518.486 92.0149Z" fill="#6E798F"/>
<path d="M527.607 72.5705C527.667 63.0829 514.455 55.308 498.098 55.2047C481.742 55.1014 468.434 62.709 468.375 72.1966C468.315 81.6842 481.527 89.4592 497.884 89.5624C514.24 89.6657 527.548 82.0582 527.607 72.5705Z" fill="url(#paint29_linear_537_5353)"/>
<path d="M518.486 77.7226C506.966 84.4115 488.214 84.3714 476.607 77.6344C465 70.8975 463.994 53.5739 475.513 46.869C487.033 40.1641 508.547 41.1907 520.154 47.9197C531.762 54.6486 530.013 71.0418 518.486 77.7226Z" fill="#6E798F"/>
<path d="M527.936 58.2854C527.995 48.7977 514.783 41.0228 498.427 40.9195C482.07 40.8163 468.762 48.4238 468.703 57.9115C468.643 67.3991 481.855 75.174 498.212 75.2773C514.568 75.3805 527.876 67.773 527.936 58.2854Z" fill="url(#paint30_linear_537_5353)"/>
<path d="M480.056 92.2314L478.906 91.5657C478.726 91.4354 478.577 91.2647 478.474 91.0671C478.37 90.8694 478.313 90.6503 478.308 90.4268V87.2829C478.308 86.8418 478.579 86.6413 478.906 86.8257L480.056 87.4995C480.237 87.6288 480.385 87.7995 480.488 87.9975C480.59 88.1955 480.645 88.4151 480.647 88.6383V91.7822C480.623 92.2314 480.383 92.3918 480.056 92.2314Z" fill="url(#paint31_linear_537_5353)"/>
<path d="M480.056 77.7939L478.906 77.1283C478.724 76.9993 478.575 76.8289 478.471 76.631C478.367 76.433 478.311 76.2132 478.308 75.9894V72.8455C478.308 72.4044 478.579 72.2039 478.906 72.3964L480.056 73.062C480.236 73.1923 480.383 73.3632 480.486 73.561C480.589 73.7587 480.644 73.9779 480.647 74.2009V77.3448C480.623 77.7939 480.383 78.0025 480.056 77.7939Z" fill="url(#paint32_linear_537_5353)"/>
<path d="M480.056 106.33L478.906 105.664C478.726 105.534 478.577 105.363 478.474 105.166C478.37 104.968 478.313 104.749 478.308 104.525V101.382C478.308 100.94 478.579 100.74 478.906 100.924L480.056 101.598C480.237 101.727 480.385 101.898 480.488 102.096C480.59 102.294 480.645 102.514 480.647 102.737V105.865C480.623 106.322 480.383 106.522 480.056 106.33Z" fill="url(#paint33_linear_537_5353)"/>
<path d="M380.762 215.529C361.438 226.736 329.983 226.669 310.512 215.381C291.041 204.094 289.354 175.021 308.677 163.774C328.001 152.527 364.09 154.236 383.56 165.536C403.031 176.837 400.098 204.309 380.762 215.529Z" fill="url(#paint34_linear_537_5353)"/>
<path d="M396.063 182.917C396.163 167.002 374.001 153.96 346.563 153.786C319.126 153.613 296.803 166.374 296.703 182.289C296.604 198.204 318.765 211.246 346.203 211.42C373.64 211.593 395.963 198.832 396.063 182.917Z" fill="url(#paint35_linear_537_5353)"/>
<path d="M380.762 191.569C361.438 202.775 329.983 202.708 310.512 191.421C291.041 180.133 289.354 151.061 308.677 139.814C328.001 128.567 364.09 130.275 383.56 141.576C403.031 152.877 400.098 180.349 380.762 191.569Z" fill="url(#paint36_linear_537_5353)"/>
<path d="M396.063 158.954C396.163 143.039 374.001 129.997 346.563 129.823C319.126 129.65 296.803 142.412 296.703 158.326C296.604 174.241 318.765 187.283 346.203 187.457C373.64 187.63 395.963 174.869 396.063 158.954Z" fill="url(#paint37_linear_537_5353)"/>
<path d="M380.762 167.595C361.438 178.816 329.983 178.748 310.512 167.447C291.041 156.147 289.354 127.087 308.677 115.84C328.001 104.593 364.09 106.315 383.56 117.603C403.031 128.89 400.098 156.389 380.762 167.595Z" fill="url(#paint38_linear_537_5353)"/>
<path d="M396.613 134.991C396.712 119.076 374.551 106.034 347.113 105.861C319.676 105.687 297.353 118.449 297.253 134.364C297.153 150.279 319.315 163.321 346.753 163.494C374.19 163.667 396.513 150.906 396.613 134.991Z" fill="url(#paint39_linear_537_5353)"/>
<path d="M316.298 191.931L314.37 190.815C314.067 190.596 313.818 190.31 313.644 189.978C313.47 189.647 313.375 189.279 313.366 188.904V183.631C313.366 182.891 313.821 182.554 314.37 182.864L316.298 183.994C316.602 184.211 316.85 184.497 317.023 184.829C317.195 185.161 317.286 185.53 317.289 185.904V191.178C317.249 191.931 316.847 192.2 316.298 191.931Z" fill="url(#paint40_linear_537_5353)"/>
<path d="M316.298 167.716L314.37 166.599C314.065 166.383 313.814 166.097 313.64 165.765C313.465 165.433 313.371 165.064 313.366 164.689V159.415C313.366 158.675 313.821 158.339 314.37 158.662L316.298 159.778C316.601 159.997 316.848 160.284 317.02 160.615C317.192 160.947 317.284 161.315 317.289 161.689V166.962C317.249 167.716 316.847 168.066 316.298 167.716Z" fill="url(#paint41_linear_537_5353)"/>
<path d="M316.298 215.582L314.37 214.466C314.067 214.247 313.818 213.961 313.644 213.629C313.47 213.298 313.375 212.93 313.366 212.555V207.282C313.366 206.542 313.821 206.205 314.37 206.515L316.298 207.645C316.602 207.862 316.85 208.148 317.023 208.48C317.195 208.812 317.286 209.181 317.289 209.555V214.802C317.249 215.569 316.847 215.905 316.298 215.582Z" fill="url(#paint42_linear_537_5353)"/>
<path d="M343.623 67L371.01 82.8116V114.435L343.623 130.246L316.237 114.435V82.8116L343.623 67Z" fill="#0061F1"/>
<path d="M342.441 104.954C341.725 104.954 341.009 104.494 341.009 103.675V102.141C341.009 101.834 340.395 101.476 340.139 101.425C340.037 101.425 339.935 101.322 339.935 101.22C339.935 101.118 339.986 101.016 340.139 101.016C340.395 100.964 340.958 100.606 340.958 100.299V98.765C340.958 97.9467 341.725 97.4863 342.39 97.4863H343.003C343.157 97.4863 343.259 97.5886 343.259 97.6909C343.259 97.7932 343.208 97.8955 343.106 97.9467C342.85 97.9978 342.441 98.2535 342.441 98.8673V100.402C342.39 100.811 342.287 101.067 342.083 101.22C342.287 101.374 342.39 101.629 342.441 102.039V103.573C342.441 104.187 342.901 104.442 343.106 104.545C343.208 104.596 343.259 104.698 343.259 104.801C343.259 104.903 343.157 105.005 343.003 105.005H342.441V104.954Z" fill="white"/>
<path d="M345.561 105.671C344.845 105.671 344.129 105.21 344.129 104.392V102.09C344.129 101.783 343.516 101.425 343.26 101.374C343.157 101.374 343.055 101.272 343.055 101.169C343.055 101.067 343.106 100.965 343.26 100.965C343.516 100.914 344.078 100.556 344.078 100.249V97.9472C344.078 97.1288 344.845 96.6685 345.51 96.6685H346.124C346.278 96.6685 346.38 96.7708 346.38 96.873C346.38 96.9753 346.329 97.0776 346.226 97.1288C345.971 97.1799 345.561 97.4357 345.561 98.0495V100.3C345.51 100.709 345.408 100.965 345.203 101.118C345.408 101.272 345.51 101.528 345.561 101.937V104.238C345.561 104.852 346.022 105.108 346.226 105.21C346.329 105.261 346.38 105.364 346.38 105.466C346.38 105.568 346.278 105.671 346.124 105.671H345.561Z" fill="white"/>
<path d="M348.681 105.313C347.965 105.313 347.249 104.852 347.249 104.034V102.141C347.249 101.835 346.635 101.476 346.379 101.425C346.277 101.425 346.175 101.323 346.175 101.221C346.175 101.118 346.226 101.016 346.379 101.016C346.635 100.965 347.249 100.607 347.249 100.3V98.4076C347.249 97.5892 348.016 97.1289 348.681 97.1289H349.295C349.397 97.1289 349.551 97.2312 349.551 97.3335C349.551 97.4358 349.499 97.5381 349.397 97.5892C349.193 97.6404 348.732 97.845 348.783 98.5099V100.402C348.732 100.812 348.63 101.067 348.425 101.221C348.63 101.374 348.732 101.63 348.783 102.039V103.932C348.783 104.597 349.295 104.801 349.448 104.903C349.551 104.955 349.602 105.057 349.602 105.159C349.602 105.261 349.499 105.364 349.346 105.364H348.681V105.313Z" fill="white"/>
<path d="M351.187 103.829C350.624 103.829 350.113 103.675 350.062 102.55V102.141C350.062 101.834 349.601 101.476 349.397 101.425C349.294 101.425 349.243 101.323 349.243 101.22C349.243 101.118 349.294 101.016 349.397 101.016C349.601 100.965 350.062 100.607 350.062 100.3V99.8905C350.062 98.6118 350.624 98.6118 351.187 98.6118H351.698C351.801 98.6118 351.903 98.7141 351.903 98.8164C351.903 98.9187 351.852 99.021 351.749 99.0722C351.647 99.1233 351.238 99.3279 351.238 99.9928V100.402C351.187 100.811 351.084 101.067 350.982 101.22C351.136 101.374 351.238 101.63 351.238 102.039V102.448C351.238 103.062 351.596 103.317 351.749 103.42C351.852 103.471 351.852 103.573 351.852 103.675C351.852 103.778 351.749 103.88 351.647 103.88H351.187V103.829Z" fill="white"/>
<path d="M354.052 104.545C353.438 104.545 352.773 104.085 352.773 103.267V102.141C352.773 101.834 352.261 101.476 352.057 101.425C351.954 101.425 351.903 101.323 351.903 101.221C351.903 101.118 351.954 101.016 352.057 101.016C352.261 100.965 352.773 100.607 352.773 100.3V99.1747C352.773 98.3563 353.438 97.896 354.052 97.896H354.614C354.716 97.896 354.819 97.9983 354.819 98.1006C354.819 98.2029 354.768 98.3052 354.665 98.3563C354.461 98.4075 354.052 98.6632 354.103 99.277V100.402C354.052 100.811 353.949 101.067 353.796 101.221C353.949 101.374 354.052 101.63 354.103 102.039V103.164C354.103 103.778 354.563 104.034 354.665 104.085C354.768 104.136 354.819 104.238 354.819 104.341C354.819 104.443 354.716 104.545 354.614 104.545H354.052Z" fill="white"/>
<path d="M333.695 109.864C331.7 109.864 329.757 109.097 328.324 107.716C326.841 106.335 326.023 104.443 325.972 102.448C325.972 102.141 325.972 101.783 326.023 101.476C326.227 99.7369 327.199 98.049 328.631 96.9237C329.245 96.4634 329.961 96.2077 330.677 96.2077C331.24 96.2077 331.854 96.3611 332.365 96.668C332.57 95.0313 333.03 93.6503 333.746 92.525C335.434 89.8142 337.991 88.382 341.418 88.0751C341.623 88.0751 341.776 88.0751 341.981 88.0751C345.203 87.9728 348.017 89.5073 350.011 92.3716C350.114 92.3716 350.165 92.3716 350.267 92.3716H350.881C351.597 92.3716 352.313 92.4227 352.978 92.525C357.377 93.0876 360.701 96.8214 360.701 101.271C360.701 103.624 359.781 105.875 358.093 107.563C357.939 107.716 357.735 107.869 357.53 108.074C356.916 108.534 356.251 108.944 355.433 109.25C354.359 109.66 353.182 109.864 351.955 109.864H333.695ZM330.677 98.049C330.37 98.049 330.064 98.1513 329.808 98.3559C328.734 99.1743 328.018 100.402 327.915 101.629C327.864 101.885 327.864 102.141 327.864 102.345C327.915 105.414 330.524 107.921 333.644 107.921H351.853C352.876 107.921 353.796 107.767 354.666 107.46C355.331 107.205 355.842 106.949 356.303 106.591C356.456 106.488 356.609 106.335 356.712 106.182C358.042 104.852 358.758 103.113 358.758 101.271C358.758 97.7421 356.149 94.8267 352.671 94.3663C352.108 94.264 351.495 94.2129 350.83 94.2129C350.318 94.2129 349.807 94.264 349.244 94.3152H348.988L348.835 94.1106C347.198 91.2974 344.896 89.8653 341.981 89.8653C341.828 89.8653 341.725 89.8653 341.572 89.8653C338.708 90.121 336.764 91.2463 335.332 93.4457C334.462 94.8267 334.053 96.5657 334.053 98.8674C334.053 99.3277 334.002 100.248 334.002 101.271C334.002 101.476 334.207 102.397 335.178 102.397C335.792 102.397 336.252 101.885 336.252 101.271C336.252 101.067 336.304 100.811 336.457 100.658L337.327 99.3788C337.429 99.2766 337.531 99.2254 337.633 99.2254C337.838 99.2254 338.043 99.43 338.043 99.6346V101.271C338.043 102.09 337.736 102.857 337.173 103.471C336.61 104.033 335.946 104.34 335.127 104.34H335.025C333.439 104.289 332.161 103.01 332.109 101.476V99.5834C332.212 98.6116 331.393 98.049 330.677 98.049Z" fill="white"/>
<path d="M117.867 268.6C117.944 256.479 101.023 246.547 80.0741 246.415C59.1253 246.283 42.081 256.002 42.0048 268.123C41.9285 280.244 58.8491 290.177 79.798 290.308C100.747 290.44 117.791 280.721 117.867 268.6Z" stroke="#66A0F7" stroke-width="2.0086" stroke-miterlimit="10"/>
<path d="M100.716 276.465C89.1963 283.146 70.4442 283.106 58.8368 276.377C47.2295 269.648 46.2237 252.316 57.7432 245.612C69.2627 238.907 90.7769 239.925 102.384 246.662C113.992 253.399 112.243 269.776 100.716 276.465Z" fill="#6E798F"/>
<path d="M109.837 257.024C109.897 247.537 96.6851 239.762 80.3284 239.658C63.9717 239.555 50.6638 247.163 50.6045 256.65C50.5452 266.138 63.7568 273.913 80.1135 274.016C96.4702 274.119 109.778 266.512 109.837 257.024Z" fill="url(#paint43_linear_537_5353)"/>
<path d="M100.716 262.182C89.1963 268.863 70.4442 268.823 58.8368 262.094C47.2295 255.365 46.2237 238.033 57.7432 231.328C69.2627 224.623 90.7769 225.642 102.384 232.379C113.992 239.116 112.243 255.493 100.716 262.182Z" fill="#6E798F"/>
<path d="M109.837 242.738C109.897 233.25 96.6851 225.475 80.3284 225.372C63.9717 225.269 50.6638 232.876 50.6045 242.364C50.5452 251.852 63.7568 259.627 80.1135 259.73C96.4702 259.833 109.778 252.226 109.837 242.738Z" fill="url(#paint44_linear_537_5353)"/>
<path d="M100.716 247.89C89.1963 254.579 70.4442 254.539 58.8368 247.802C47.2295 241.065 46.2237 223.741 57.7432 217.036C69.2627 210.332 90.7769 211.358 102.384 218.087C113.992 224.816 112.243 241.209 100.716 247.89Z" fill="#6E798F"/>
<path d="M110.165 228.454C110.224 218.966 97.0127 211.191 80.656 211.088C64.2993 210.985 50.9915 218.592 50.9321 228.08C50.8728 237.568 64.0844 245.342 80.4411 245.446C96.7978 245.549 110.106 237.941 110.165 228.454Z" fill="url(#paint45_linear_537_5353)"/>
<path d="M62.2859 262.399L61.1363 261.733C60.9556 261.603 60.8074 261.432 60.7035 261.235C60.5996 261.037 60.5428 260.818 60.5376 260.594V257.45C60.5376 257.009 60.809 256.809 61.1363 256.993L62.2859 257.667C62.467 257.796 62.6149 257.967 62.7176 258.165C62.8203 258.363 62.8748 258.583 62.8766 258.806V261.95C62.8527 262.399 62.6132 262.559 62.2859 262.399Z" fill="url(#paint46_linear_537_5353)"/>
<path d="M62.2859 247.961L61.1363 247.296C60.9542 247.167 60.805 246.996 60.701 246.798C60.5969 246.601 60.541 246.381 60.5376 246.157V243.013C60.5376 242.572 60.809 242.371 61.1363 242.564L62.2859 243.23C62.466 243.36 62.6133 243.531 62.7159 243.728C62.8185 243.926 62.8735 244.145 62.8766 244.368V247.512C62.8527 247.961 62.6132 248.17 62.2859 247.961Z" fill="url(#paint47_linear_537_5353)"/>
<path d="M62.2859 276.497L61.1363 275.832C60.9556 275.701 60.8074 275.531 60.7035 275.333C60.5996 275.136 60.5428 274.916 60.5376 274.693V271.549C60.5376 271.108 60.809 270.907 61.1363 271.092L62.2859 271.766C62.467 271.895 62.6149 272.066 62.7176 272.264C62.8203 272.462 62.8748 272.681 62.8766 272.904V276.032C62.8527 276.489 62.6132 276.69 62.2859 276.497Z" fill="url(#paint48_linear_537_5353)"/>
<path d="M447.278 57.6979C447.355 45.577 430.434 35.6442 409.485 35.5124C388.536 35.3806 371.492 45.0997 371.416 57.2206C371.34 69.3416 388.26 79.2743 409.209 79.4061C430.158 79.5379 447.202 69.8189 447.278 57.6979Z" stroke="#66A0F7" stroke-width="2.0086" stroke-miterlimit="10"/>
<path d="M430.127 65.5642C418.607 72.245 399.855 72.2049 388.248 65.476C376.641 58.7471 375.635 41.4155 387.154 34.7106C398.674 28.0058 420.188 29.0243 431.795 35.7613C443.403 42.4982 441.654 58.8754 430.127 65.5642Z" fill="#6E798F"/>
<path d="M439.249 46.1228C439.308 36.6351 426.096 28.8602 409.74 28.7569C393.383 28.6537 380.075 36.2612 380.016 45.7489C379.956 55.2365 393.168 63.0114 409.525 63.1147C425.881 63.2179 439.189 55.6104 439.249 46.1228Z" fill="url(#paint49_linear_537_5353)"/>
<path d="M430.127 51.2806C418.607 57.9614 399.855 57.9213 388.248 51.1923C376.641 44.4634 375.635 27.1318 387.154 20.4269C398.674 13.7221 420.188 14.7406 431.795 21.4776C443.403 28.2145 441.654 44.5917 430.127 51.2806Z" fill="#6E798F"/>
<path d="M439.249 31.8371C439.308 22.3495 426.096 14.5746 409.74 14.4713C393.383 14.368 380.075 21.9756 380.016 31.4632C379.956 40.9508 393.168 48.7258 409.525 48.829C425.881 48.9323 439.189 41.3248 439.249 31.8371Z" fill="url(#paint50_linear_537_5353)"/>
<path d="M430.127 36.9892C418.607 43.6781 399.855 43.638 388.248 36.901C376.641 30.1641 375.635 12.8405 387.154 6.13561C398.674 -0.569257 420.188 0.457323 431.795 7.18625C443.403 13.9152 441.654 30.3084 430.127 36.9892Z" fill="#6E798F"/>
<path d="M439.576 17.5529C439.635 8.06532 426.424 0.290374 410.067 0.187122C393.71 0.0838703 380.403 7.69141 380.343 17.179C380.284 26.6667 393.496 34.4416 409.852 34.5449C426.209 34.6481 439.517 27.0406 439.576 17.5529Z" fill="url(#paint51_linear_537_5353)"/>
<path d="M391.697 51.498L390.547 50.8323C390.367 50.702 390.219 50.5313 390.115 50.3337C390.011 50.136 389.954 49.9169 389.949 49.6934V46.5495C389.949 46.1084 390.22 45.9079 390.547 46.0923L391.697 46.7661C391.878 46.8954 392.026 47.0661 392.129 47.2641C392.231 47.4621 392.286 47.6817 392.288 47.9049V51.0488C392.264 51.498 392.024 51.6584 391.697 51.498Z" fill="url(#paint52_linear_537_5353)"/>
<path d="M391.697 37.0605L390.547 36.3949C390.365 36.2659 390.216 36.0955 390.112 35.8976C390.008 35.6996 389.952 35.4798 389.949 35.256V32.1121C389.949 31.671 390.22 31.4705 390.547 31.663L391.697 32.3286C391.877 32.4589 392.024 32.6298 392.127 32.8276C392.23 33.0253 392.285 33.2445 392.288 33.4675V36.6114C392.264 37.0605 392.024 37.2691 391.697 37.0605Z" fill="url(#paint53_linear_537_5353)"/>
<path d="M391.697 65.5965L390.547 64.9309C390.367 64.8006 390.219 64.6299 390.115 64.4322C390.011 64.2346 389.954 64.0155 389.949 63.792V60.6481C389.949 60.207 390.22 60.0065 390.547 60.191L391.697 60.8647C391.878 60.994 392.026 61.1647 392.129 61.3627C392.231 61.5607 392.286 61.7803 392.288 62.0035V65.1314C392.264 65.5885 392.024 65.789 391.697 65.5965Z" fill="url(#paint54_linear_537_5353)"/>
<path d="M194.424 292.141C232.002 268.096 265.078 247.019 291.436 230.485M475.967 114.533C444.953 134.378 419.45 150.533 396.669 164.867" stroke="#66A0F7" stroke-width="2.0086"/>
<defs>
<linearGradient id="paint0_linear_537_5353" x1="613.082" y1="167.127" x2="663.538" y2="167.127" gradientUnits="userSpaceOnUse">
<stop stop-color="#6BA3F7"/>
<stop offset="1" stop-color="#66A0F7" stop-opacity="0"/>
</linearGradient>
<linearGradient id="paint1_linear_537_5353" x1="380.34" y1="28.4848" x2="329.884" y2="28.4848" gradientUnits="userSpaceOnUse">
<stop stop-color="#6BA3F7"/>
<stop offset="1" stop-color="#66A0F7" stop-opacity="0"/>
</linearGradient>
<linearGradient id="paint2_linear_537_5353" x1="50.9177" y1="240.393" x2="0.461944" y2="240.393" gradientUnits="userSpaceOnUse">
<stop stop-color="#6BA3F7"/>
<stop offset="1" stop-color="#66A0F7" stop-opacity="0"/>
</linearGradient>
<linearGradient id="paint3_linear_537_5353" x1="618.637" y1="111.246" x2="662.204" y2="111.246" gradientUnits="userSpaceOnUse">
<stop stop-color="#6BA3F7"/>
<stop offset="1" stop-color="#66A0F7" stop-opacity="0"/>
</linearGradient>
<linearGradient id="paint4_linear_537_5353" x1="527.747" y1="70.0711" x2="571.315" y2="70.0711" gradientUnits="userSpaceOnUse">
<stop stop-color="#6BA3F7"/>
<stop offset="1" stop-color="#66A0F7" stop-opacity="0"/>
</linearGradient>
<linearGradient id="paint5_linear_537_5353" x1="439.376" y1="31.9071" x2="482.944" y2="31.9071" gradientUnits="userSpaceOnUse">
<stop stop-color="#6BA3F7"/>
<stop offset="1" stop-color="#66A0F7" stop-opacity="0"/>
</linearGradient>
<linearGradient id="paint6_linear_537_5353" x1="54.1023" y1="297" x2="10.535" y2="297" gradientUnits="userSpaceOnUse">
<stop stop-color="#6BA3F7"/>
<stop offset="1" stop-color="#66A0F7" stop-opacity="0"/>
</linearGradient>
<linearGradient id="paint7_linear_537_5353" x1="144.991" y1="338.176" x2="101.424" y2="338.176" gradientUnits="userSpaceOnUse">
<stop stop-color="#6BA3F7"/>
<stop offset="1" stop-color="#66A0F7" stop-opacity="0"/>
</linearGradient>
<linearGradient id="paint8_linear_537_5353" x1="233.363" y1="376.339" x2="189.795" y2="376.339" gradientUnits="userSpaceOnUse">
<stop stop-color="#6BA3F7"/>
<stop offset="1" stop-color="#66A0F7" stop-opacity="0"/>
</linearGradient>
<linearGradient id="paint9_linear_537_5353" x1="280.666" y1="378.03" x2="331.122" y2="378.03" gradientUnits="userSpaceOnUse">
<stop stop-color="#6BA3F7"/>
<stop offset="1" stop-color="#66A0F7" stop-opacity="0"/>
</linearGradient>
<linearGradient id="paint10_linear_537_5353" x1="286.947" y1="335.779" x2="227.714" y2="335.409" gradientUnits="userSpaceOnUse">
<stop stop-color="#E2E4E9"/>
<stop offset="1" stop-color="white"/>
</linearGradient>
<linearGradient id="paint11_linear_537_5353" x1="286.947" y1="321.494" x2="227.714" y2="321.123" gradientUnits="userSpaceOnUse">
<stop stop-color="#E2E4E9"/>
<stop offset="1" stop-color="white"/>
</linearGradient>
<linearGradient id="paint12_linear_537_5353" x1="287.276" y1="307.208" x2="228.043" y2="306.838" gradientUnits="userSpaceOnUse">
<stop stop-color="#E2E4E9"/>
<stop offset="1" stop-color="white"/>
</linearGradient>
<linearGradient id="paint13_linear_537_5353" x1="238.817" y1="341.214" x2="238.817" y2="335.679" gradientUnits="userSpaceOnUse">
<stop stop-color="#E2E4E9"/>
<stop offset="1" stop-color="white"/>
</linearGradient>
<linearGradient id="paint14_linear_537_5353" x1="238.817" y1="326.799" x2="238.817" y2="321.247" gradientUnits="userSpaceOnUse">
<stop stop-color="#E2E4E9"/>
<stop offset="1" stop-color="white"/>
</linearGradient>
<linearGradient id="paint15_linear_537_5353" x1="238.817" y1="355.327" x2="238.817" y2="349.78" gradientUnits="userSpaceOnUse">
<stop stop-color="#E2E4E9"/>
<stop offset="1" stop-color="white"/>
</linearGradient>
<linearGradient id="paint16_linear_537_5353" x1="616.351" y1="124.875" x2="557.118" y2="124.505" gradientUnits="userSpaceOnUse">
<stop stop-color="#E2E4E9"/>
<stop offset="1" stop-color="white"/>
</linearGradient>
<linearGradient id="paint17_linear_537_5353" x1="616.351" y1="110.59" x2="557.118" y2="110.219" gradientUnits="userSpaceOnUse">
<stop stop-color="#E2E4E9"/>
<stop offset="1" stop-color="white"/>
</linearGradient>
<linearGradient id="paint18_linear_537_5353" x1="616.68" y1="96.3044" x2="557.447" y2="95.934" gradientUnits="userSpaceOnUse">
<stop stop-color="#E2E4E9"/>
<stop offset="1" stop-color="white"/>
</linearGradient>
<linearGradient id="paint19_linear_537_5353" x1="568.221" y1="130.31" x2="568.221" y2="124.775" gradientUnits="userSpaceOnUse">
<stop stop-color="#E2E4E9"/>
<stop offset="1" stop-color="white"/>
</linearGradient>
<linearGradient id="paint20_linear_537_5353" x1="568.221" y1="115.895" x2="568.221" y2="110.343" gradientUnits="userSpaceOnUse">
<stop stop-color="#E2E4E9"/>
<stop offset="1" stop-color="white"/>
</linearGradient>
<linearGradient id="paint21_linear_537_5353" x1="568.221" y1="144.422" x2="568.221" y2="138.875" gradientUnits="userSpaceOnUse">
<stop stop-color="#E2E4E9"/>
<stop offset="1" stop-color="white"/>
</linearGradient>
<linearGradient id="paint22_linear_537_5353" x1="198.197" y1="297.761" x2="138.964" y2="297.391" gradientUnits="userSpaceOnUse">
<stop stop-color="#E2E4E9"/>
<stop offset="1" stop-color="white"/>
</linearGradient>
<linearGradient id="paint23_linear_537_5353" x1="198.197" y1="283.475" x2="138.964" y2="283.105" gradientUnits="userSpaceOnUse">
<stop stop-color="#E2E4E9"/>
<stop offset="1" stop-color="white"/>
</linearGradient>
<linearGradient id="paint24_linear_537_5353" x1="198.525" y1="269.191" x2="139.292" y2="268.821" gradientUnits="userSpaceOnUse">
<stop stop-color="#E2E4E9"/>
<stop offset="1" stop-color="white"/>
</linearGradient>
<linearGradient id="paint25_linear_537_5353" x1="150.066" y1="303.197" x2="150.066" y2="297.662" gradientUnits="userSpaceOnUse">
<stop stop-color="#E2E4E9"/>
<stop offset="1" stop-color="white"/>
</linearGradient>
<linearGradient id="paint26_linear_537_5353" x1="150.066" y1="288.78" x2="150.066" y2="283.228" gradientUnits="userSpaceOnUse">
<stop stop-color="#E2E4E9"/>
<stop offset="1" stop-color="white"/>
</linearGradient>
<linearGradient id="paint27_linear_537_5353" x1="150.066" y1="317.308" x2="150.066" y2="311.761" gradientUnits="userSpaceOnUse">
<stop stop-color="#E2E4E9"/>
<stop offset="1" stop-color="white"/>
</linearGradient>
<linearGradient id="paint28_linear_537_5353" x1="527.607" y1="86.8566" x2="468.375" y2="86.4862" gradientUnits="userSpaceOnUse">
<stop stop-color="#E2E4E9"/>
<stop offset="1" stop-color="white"/>
</linearGradient>
<linearGradient id="paint29_linear_537_5353" x1="527.607" y1="72.5705" x2="468.375" y2="72.2001" gradientUnits="userSpaceOnUse">
<stop stop-color="#E2E4E9"/>
<stop offset="1" stop-color="white"/>
</linearGradient>
<linearGradient id="paint30_linear_537_5353" x1="527.936" y1="58.2854" x2="468.703" y2="57.9149" gradientUnits="userSpaceOnUse">
<stop stop-color="#E2E4E9"/>
<stop offset="1" stop-color="white"/>
</linearGradient>
<linearGradient id="paint31_linear_537_5353" x1="479.477" y1="92.292" x2="479.477" y2="86.7573" gradientUnits="userSpaceOnUse">
<stop stop-color="#E2E4E9"/>
<stop offset="1" stop-color="white"/>
</linearGradient>
<linearGradient id="paint32_linear_537_5353" x1="479.477" y1="77.8751" x2="479.477" y2="72.3232" gradientUnits="userSpaceOnUse">
<stop stop-color="#E2E4E9"/>
<stop offset="1" stop-color="white"/>
</linearGradient>
<linearGradient id="paint33_linear_537_5353" x1="479.477" y1="106.403" x2="479.477" y2="100.856" gradientUnits="userSpaceOnUse">
<stop stop-color="#E2E4E9"/>
<stop offset="1" stop-color="white"/>
</linearGradient>
<linearGradient id="paint34_linear_537_5353" x1="386.349" y1="210.544" x2="302.366" y2="211.962" gradientUnits="userSpaceOnUse">
<stop stop-color="#0051CC"/>
<stop offset="0.465978" stop-color="#0061F1"/>
<stop offset="1" stop-color="#5C9AF5"/>
</linearGradient>
<linearGradient id="paint35_linear_537_5353" x1="396.063" y1="182.917" x2="296.703" y2="182.295" gradientUnits="userSpaceOnUse">
<stop stop-color="#E2E4E9"/>
<stop offset="1" stop-color="white"/>
</linearGradient>
<linearGradient id="paint36_linear_537_5353" x1="386.349" y1="186.584" x2="302.366" y2="188.001" gradientUnits="userSpaceOnUse">
<stop stop-color="#0051CC"/>
<stop offset="0.465978" stop-color="#0061F1"/>
<stop offset="1" stop-color="#5C9AF5"/>
</linearGradient>
<linearGradient id="paint37_linear_537_5353" x1="396.063" y1="158.954" x2="296.703" y2="158.332" gradientUnits="userSpaceOnUse">
<stop stop-color="#E2E4E9"/>
<stop offset="1" stop-color="white"/>
</linearGradient>
<linearGradient id="paint38_linear_537_5353" x1="386.349" y1="162.619" x2="302.366" y2="164.037" gradientUnits="userSpaceOnUse">
<stop stop-color="#0051CC"/>
<stop offset="0.465978" stop-color="#0061F1"/>
<stop offset="1" stop-color="#5C9AF5"/>
</linearGradient>
<linearGradient id="paint39_linear_537_5353" x1="396.613" y1="134.991" x2="297.253" y2="134.369" gradientUnits="userSpaceOnUse">
<stop stop-color="#E2E4E9"/>
<stop offset="1" stop-color="white"/>
</linearGradient>
<linearGradient id="paint40_linear_537_5353" x1="315.328" y1="192.033" x2="315.328" y2="182.749" gradientUnits="userSpaceOnUse">
<stop stop-color="#E2E4E9"/>
<stop offset="1" stop-color="white"/>
</linearGradient>
<linearGradient id="paint41_linear_537_5353" x1="315.328" y1="167.852" x2="315.328" y2="158.539" gradientUnits="userSpaceOnUse">
<stop stop-color="#E2E4E9"/>
<stop offset="1" stop-color="white"/>
</linearGradient>
<linearGradient id="paint42_linear_537_5353" x1="315.328" y1="215.704" x2="315.328" y2="206.4" gradientUnits="userSpaceOnUse">
<stop stop-color="#E2E4E9"/>
<stop offset="1" stop-color="white"/>
</linearGradient>
<linearGradient id="paint43_linear_537_5353" x1="109.837" y1="257.024" x2="50.6045" y2="256.654" gradientUnits="userSpaceOnUse">
<stop stop-color="#E2E4E9"/>
<stop offset="1" stop-color="white"/>
</linearGradient>
<linearGradient id="paint44_linear_537_5353" x1="109.837" y1="242.738" x2="50.6045" y2="242.368" gradientUnits="userSpaceOnUse">
<stop stop-color="#E2E4E9"/>
<stop offset="1" stop-color="white"/>
</linearGradient>
<linearGradient id="paint45_linear_537_5353" x1="110.165" y1="228.454" x2="50.9321" y2="228.083" gradientUnits="userSpaceOnUse">
<stop stop-color="#E2E4E9"/>
<stop offset="1" stop-color="white"/>
</linearGradient>
<linearGradient id="paint46_linear_537_5353" x1="61.7071" y1="262.46" x2="61.7071" y2="256.925" gradientUnits="userSpaceOnUse">
<stop stop-color="#E2E4E9"/>
<stop offset="1" stop-color="white"/>
</linearGradient>
<linearGradient id="paint47_linear_537_5353" x1="61.7071" y1="248.043" x2="61.7071" y2="242.491" gradientUnits="userSpaceOnUse">
<stop stop-color="#E2E4E9"/>
<stop offset="1" stop-color="white"/>
</linearGradient>
<linearGradient id="paint48_linear_537_5353" x1="61.7071" y1="276.57" x2="61.7071" y2="271.023" gradientUnits="userSpaceOnUse">
<stop stop-color="#E2E4E9"/>
<stop offset="1" stop-color="white"/>
</linearGradient>
<linearGradient id="paint49_linear_537_5353" x1="439.249" y1="46.1228" x2="380.016" y2="45.7523" gradientUnits="userSpaceOnUse">
<stop stop-color="#E2E4E9"/>
<stop offset="1" stop-color="white"/>
</linearGradient>
<linearGradient id="paint50_linear_537_5353" x1="439.249" y1="31.8371" x2="380.016" y2="31.4667" gradientUnits="userSpaceOnUse">
<stop stop-color="#E2E4E9"/>
<stop offset="1" stop-color="white"/>
</linearGradient>
<linearGradient id="paint51_linear_537_5353" x1="439.576" y1="17.5529" x2="380.343" y2="17.1825" gradientUnits="userSpaceOnUse">
<stop stop-color="#E2E4E9"/>
<stop offset="1" stop-color="white"/>
</linearGradient>
<linearGradient id="paint52_linear_537_5353" x1="391.118" y1="51.5586" x2="391.118" y2="46.0239" gradientUnits="userSpaceOnUse">
<stop stop-color="#E2E4E9"/>
<stop offset="1" stop-color="white"/>
</linearGradient>
<linearGradient id="paint53_linear_537_5353" x1="391.118" y1="37.1417" x2="391.118" y2="31.5898" gradientUnits="userSpaceOnUse">
<stop stop-color="#E2E4E9"/>
<stop offset="1" stop-color="white"/>
</linearGradient>
<linearGradient id="paint54_linear_537_5353" x1="391.118" y1="65.6694" x2="391.118" y2="60.1226" gradientUnits="userSpaceOnUse">
<stop stop-color="#E2E4E9"/>
<stop offset="1" stop-color="white"/>
</linearGradient>
</defs>
</svg>
