<svg width="43" height="43" viewBox="0 0 43 43" fill="none" xmlns="http://www.w3.org/2000/svg">
<path d="M21.4995 26.954C24.5119 26.954 26.954 24.5119 26.954 21.4995C26.954 18.487 24.5119 16.0449 21.4995 16.0449C18.487 16.0449 16.0449 18.487 16.0449 21.4995C16.0449 24.5119 18.487 26.954 21.4995 26.954Z" stroke="url(#paint0_linear_1062_2918)" stroke-width="3" stroke-linecap="round" stroke-linejoin="round"/>
<path d="M34.9545 26.9545C34.7125 27.5029 34.6403 28.1113 34.7473 28.7011C34.8542 29.2909 35.1354 29.8351 35.5545 30.2636L35.6636 30.3727C36.0017 30.7104 36.2699 31.1115 36.4529 31.5529C36.6359 31.9944 36.7301 32.4676 36.7301 32.9455C36.7301 33.4233 36.6359 33.8965 36.4529 34.338C36.2699 34.7794 36.0017 35.1805 35.6636 35.5182C35.3259 35.8563 34.9249 36.1245 34.4834 36.3075C34.042 36.4905 33.5688 36.5847 33.0909 36.5847C32.613 36.5847 32.1398 36.4905 31.6984 36.3075C31.257 36.1245 30.8559 35.8563 30.5182 35.5182L30.4091 35.4091C29.9806 34.9899 29.4363 34.7088 28.8465 34.6018C28.2567 34.4949 27.6484 34.5671 27.1 34.8091C26.5622 35.0396 26.1036 35.4223 25.7806 35.9101C25.4575 36.3979 25.2842 36.9695 25.2818 37.5545V37.8636C25.2818 38.8281 24.8987 39.753 24.2168 40.4349C23.5348 41.1169 22.6099 41.5 21.6455 41.5C20.681 41.5 19.7561 41.1169 19.0742 40.4349C18.3922 39.753 18.0091 38.8281 18.0091 37.8636V37.7C17.995 37.0982 17.8002 36.5145 17.45 36.0249C17.0998 35.5353 16.6104 35.1623 16.0455 34.9545C15.4971 34.7125 14.8887 34.6403 14.2989 34.7473C13.7091 34.8542 13.1649 35.1354 12.7364 35.5545L12.6273 35.6636C12.2896 36.0017 11.8885 36.2699 11.4471 36.4529C11.0056 36.6359 10.5324 36.7301 10.0545 36.7301C9.57667 36.7301 9.10348 36.6359 8.66204 36.4529C8.22059 36.2699 7.81954 36.0017 7.48182 35.6636C7.14372 35.3259 6.87551 34.9249 6.69251 34.4834C6.50951 34.042 6.41532 33.5688 6.41532 33.0909C6.41532 32.613 6.50951 32.1398 6.69251 31.6984C6.87551 31.257 7.14372 30.8559 7.48182 30.5182L7.59091 30.4091C8.01007 29.9806 8.29125 29.4363 8.39819 28.8465C8.50513 28.2567 8.43294 27.6484 8.19091 27.1C7.96043 26.5622 7.57774 26.1036 7.08994 25.7806C6.60214 25.4575 6.03052 25.2842 5.44545 25.2818H5.13636C4.17194 25.2818 3.24702 24.8987 2.56507 24.2168C1.88312 23.5348 1.5 22.6099 1.5 21.6455C1.5 20.681 1.88312 19.7561 2.56507 19.0742C3.24702 18.3922 4.17194 18.0091 5.13636 18.0091H5.3C5.90181 17.995 6.48546 17.8002 6.97509 17.45C7.46472 17.0998 7.83766 16.6104 8.04545 16.0455C8.28748 15.4971 8.35968 14.8887 8.25274 14.2989C8.14579 13.7091 7.86461 13.1649 7.44545 12.7364L7.33636 12.6273C6.99827 12.2896 6.73005 11.8885 6.54706 11.4471C6.36406 11.0056 6.26987 10.5324 6.26987 10.0545C6.26987 9.57667 6.36406 9.10348 6.54706 8.66204C6.73005 8.22059 6.99827 7.81954 7.33636 7.48182C7.67408 7.14372 8.07513 6.87551 8.51658 6.69251C8.95803 6.50951 9.43122 6.41532 9.90909 6.41532C10.387 6.41532 10.8602 6.50951 11.3016 6.69251C11.743 6.87551 12.1441 7.14372 12.4818 7.48182L12.5909 7.59091C13.0194 8.01007 13.5637 8.29125 14.1535 8.39819C14.7433 8.50513 15.3516 8.43294 15.9 8.19091H16.0455C16.5832 7.96043 17.0418 7.57774 17.3649 7.08994C17.6879 6.60214 17.8613 6.03052 17.8636 5.44545V5.13636C17.8636 4.17194 18.2468 3.24702 18.9287 2.56507C19.6107 1.88312 20.5356 1.5 21.5 1.5C22.4644 1.5 23.3893 1.88312 24.0713 2.56507C24.7532 3.24702 25.1364 4.17194 25.1364 5.13636V5.3C25.1387 5.88507 25.3121 6.45668 25.6351 6.94448C25.9582 7.43228 26.4168 7.81498 26.9545 8.04545C27.5029 8.28748 28.1113 8.35968 28.7011 8.25274C29.2909 8.14579 29.8351 7.86461 30.2636 7.44545L30.3727 7.33636C30.7104 6.99827 31.1115 6.73005 31.5529 6.54706C31.9944 6.36406 32.4676 6.26987 32.9455 6.26987C33.4233 6.26987 33.8965 6.36406 34.338 6.54706C34.7794 6.73005 35.1805 6.99827 35.5182 7.33636C35.8563 7.67408 36.1245 8.07513 36.3075 8.51658C36.4905 8.95803 36.5847 9.43122 36.5847 9.90909C36.5847 10.387 36.4905 10.8602 36.3075 11.3016C36.1245 11.743 35.8563 12.1441 35.5182 12.4818L35.4091 12.5909C34.9899 13.0194 34.7088 13.5637 34.6018 14.1535C34.4949 14.7433 34.5671 15.3516 34.8091 15.9V16.0455C35.0396 16.5832 35.4223 17.0418 35.9101 17.3649C36.3979 17.6879 36.9695 17.8613 37.5545 17.8636H37.8636C38.8281 17.8636 39.753 18.2468 40.4349 18.9287C41.1169 19.6107 41.5 20.5356 41.5 21.5C41.5 22.4644 41.1169 23.3893 40.4349 24.0713C39.753 24.7532 38.8281 25.1364 37.8636 25.1364H37.7C37.1149 25.1387 36.5433 25.3121 36.0555 25.6351C35.5677 25.9582 35.185 26.4168 34.9545 26.9545V26.9545Z" stroke="url(#paint1_linear_1062_2918)" stroke-width="3" stroke-linecap="round" stroke-linejoin="round"/>
<defs>
<linearGradient id="paint0_linear_1062_2918" x1="21.4995" y1="16.0449" x2="21.4995" y2="26.954" gradientUnits="userSpaceOnUse">
<stop stop-color="#1B74F9"/>
<stop offset="1" stop-color="#0061F1"/>
</linearGradient>
<linearGradient id="paint1_linear_1062_2918" x1="21.5" y1="1.5" x2="21.5" y2="41.5" gradientUnits="userSpaceOnUse">
<stop stop-color="#1B74F9"/>
<stop offset="1" stop-color="#0061F1"/>
</linearGradient>
</defs>
</svg>
