<svg width="209" height="37" viewBox="0 0 209 37" fill="none" xmlns="http://www.w3.org/2000/svg">
<path d="M163.975 28.471C163.061 28.471 162.316 27.7268 162.316 26.8124V9.18493C162.316 8.27059 163.061 7.52637 163.975 7.52637C164.889 7.52637 165.634 8.27059 165.634 9.18493V20.5609L170.843 14.437C171.12 14.0968 171.524 13.9267 171.97 13.9267C172.544 13.9267 173.055 14.2457 173.288 14.7772C173.522 15.3088 173.459 15.9042 173.076 16.3295L169.312 20.7736L173.14 26.0257C173.48 26.4935 173.522 27.0676 173.267 27.5779C173.012 28.0882 172.502 28.4072 171.928 28.4072C171.46 28.4072 170.992 28.1733 170.716 27.7906L165.612 20.7736V26.7912C165.612 27.7268 164.889 28.471 163.975 28.471Z" fill="white"/>
<path d="M76.0499 28.8111C75.7734 28.8111 75.5395 28.6623 75.4119 28.4071L71.8609 21.1775C71.7759 20.9861 71.5845 20.8798 71.3719 20.8798C71.1592 20.8798 70.9679 20.9861 70.8828 21.1775L67.2893 28.4071C67.1617 28.641 66.9278 28.8111 66.6514 28.8111C66.3749 28.8111 66.1198 28.641 65.9922 28.3858L60.8464 17.0311C60.6338 16.542 60.6763 15.9892 60.9527 15.5426C61.2291 15.0961 61.7182 14.8409 62.2498 14.8409C62.8877 14.8409 63.4405 15.2237 63.6744 15.7978L66.8002 23.3464L70.6702 14.9472C70.7977 14.6921 71.0529 14.522 71.3293 14.522C71.6058 14.522 71.8609 14.6921 71.9885 14.9472L75.9223 23.1763L78.9842 15.7978C79.2181 15.2237 79.7922 14.8409 80.4089 14.8409C80.9405 14.8409 81.4295 15.0961 81.706 15.5426C81.9824 15.9892 82.0249 16.542 81.8123 17.0311L76.6665 28.3858C76.5814 28.641 76.3263 28.8111 76.0499 28.8111Z" fill="white"/>
<path d="M90.3595 28.8111C88.2969 28.8111 86.4044 28.0243 85.0223 26.5997C83.704 25.2601 83.0023 23.5165 83.0448 21.6665C83.0023 19.7741 83.7252 17.9879 85.0436 16.6271C86.3832 15.2662 88.1481 14.522 90.0192 14.522H90.1681C93.868 14.522 96.5684 17.1799 96.5684 20.8373C96.5684 21.4326 96.5046 22.0493 96.3771 22.6659H86.2981L86.3832 23.0274C86.8722 24.9411 88.4245 26.0468 90.6359 26.0468C91.614 26.0468 92.5496 25.8129 93.4639 25.3664C93.6553 25.2813 93.868 25.2176 94.0806 25.2176C94.5484 25.2176 94.9524 25.4515 95.1863 25.8342C95.3777 26.1319 95.4202 26.4934 95.3351 26.8336C95.2501 27.1738 95.0375 27.4715 94.7398 27.6416C93.4427 28.4071 92.018 28.7898 90.5296 28.7898L90.3595 28.8111ZM90.0192 17.0949C88.2544 17.0949 86.8297 18.3069 86.3619 20.1781L86.2769 20.5396H93.3789V20.2419C93.3364 18.4132 91.933 17.0949 90.0192 17.0949Z" fill="white"/>
<path d="M106.882 28.8112C105.032 28.8112 103.501 28.1095 102.545 26.8337L102.034 26.1533V27.0038C102.034 27.8118 101.375 28.471 100.567 28.471H100.503C99.6953 28.471 99.0361 27.8118 99.0361 27.0038V9.18493C99.0361 8.27059 99.7804 7.52637 100.695 7.52637C101.609 7.52637 102.353 8.27059 102.353 9.18493V16.6697L102.842 16.1381C103.82 15.0749 105.181 14.5433 106.882 14.5433C110.71 14.5433 113.474 17.5415 113.474 21.6879C113.474 25.813 110.689 28.8112 106.882 28.8112ZM106.159 17.4565C103.842 17.4565 102.289 19.1575 102.289 21.6666C102.289 24.5585 104.224 25.8556 106.159 25.8556C108.477 25.8556 110.114 24.1332 110.114 21.6454C110.114 19.2213 108.456 17.4565 106.159 17.4565Z" fill="white"/>
<path d="M126.955 28.471C126.062 28.471 125.318 27.7268 125.318 26.8337V20.4972C125.318 18.711 124.127 17.4565 122.405 17.4565C120.661 17.4565 119.428 18.711 119.428 20.4972V26.8337C119.428 27.7268 118.683 28.471 117.79 28.471C116.876 28.471 116.132 27.7268 116.132 26.8337V9.18493C116.132 8.27059 116.876 7.52637 117.79 7.52637C118.705 7.52637 119.449 8.27059 119.449 9.18493V16.4571L119.938 15.968C120.874 15.0324 122.171 14.5221 123.638 14.5221C126.679 14.5221 128.635 16.6484 128.635 19.9443V26.8337C128.592 27.7268 127.848 28.471 126.955 28.471Z" fill="white"/>
<path d="M177.733 28.4708C176.819 28.4708 176.074 27.7265 176.074 26.8122V15.5213C176.074 14.6069 176.819 13.8627 177.733 13.8627C178.647 13.8627 179.391 14.6069 179.391 15.5213V26.8122C179.391 27.7265 178.647 28.4708 177.733 28.4708ZM177.733 10.8858C176.755 10.8858 175.989 10.1416 175.989 9.20597C175.989 8.24911 176.733 7.50488 177.733 7.50488C177.754 7.50488 177.797 7.50488 177.818 7.50488C178.732 7.54741 179.498 8.29164 179.498 9.18471C179.498 9.63124 179.328 10.0352 179.03 10.3329C178.69 10.6944 178.222 10.8858 177.733 10.8858Z" fill="white"/>
<path d="M189.343 28.8111C187.28 28.8111 185.388 28.0243 184.006 26.5997C182.687 25.2601 181.986 23.5165 182.028 21.6665C181.986 19.7741 182.709 17.9879 184.027 16.6271C185.367 15.2662 187.131 14.522 189.003 14.522H189.151C192.851 14.522 195.552 17.1799 195.552 20.8373C195.552 21.4326 195.488 22.0493 195.36 22.6659H185.282L185.367 23.0274C185.856 24.9411 187.408 26.0468 189.619 26.0468C190.597 26.0468 191.533 25.8129 192.447 25.3664C192.639 25.2813 192.851 25.2176 193.064 25.2176C193.532 25.2176 193.936 25.4515 194.17 25.8342C194.361 26.1319 194.404 26.4934 194.319 26.8336C194.233 27.1738 194.021 27.4715 193.723 27.6416C192.426 28.4071 191.001 28.7898 189.513 28.7898L189.343 28.8111ZM189.024 17.0949C187.259 17.0949 185.834 18.3069 185.367 20.1781L185.282 20.5396H192.384V20.2419C192.341 18.4132 190.938 17.0949 189.024 17.0949Z" fill="white"/>
<path d="M138.246 28.6197C136.864 28.6197 135.503 28.2157 134.355 27.4502C134.27 27.4077 134.185 27.3439 134.121 27.2801C134.057 27.2376 133.994 27.1951 133.93 27.1313C133.845 27.0675 133.802 27.025 133.738 26.9824C133.717 26.9612 133.696 26.9399 133.675 26.9399L133.653 26.9187C133.59 26.8549 133.526 26.8123 133.462 26.7485C133.377 26.6635 133.292 26.5997 133.228 26.5146C132.484 25.8129 131.931 24.9411 131.57 23.963C131.548 23.9205 131.548 23.9205 131.548 23.8992C131.251 23.0912 131.123 22.2832 131.123 21.4326C131.123 17.4989 134.334 14.2881 138.268 14.2881C141.181 14.2881 143.775 16.0317 144.881 18.7322L145.051 19.1362L147.071 17.1161C148.921 15.1174 150.558 14.3093 152.748 14.3093C155.3 14.3093 157.66 15.6702 158.936 17.8816C158.978 17.9667 159.021 18.0305 159.063 18.0943C159.106 18.1793 159.148 18.2431 159.17 18.3069L159.191 18.3282C159.297 18.5621 159.404 18.796 159.489 19.0511C159.531 19.1787 159.574 19.3063 159.616 19.4126C159.701 19.7103 159.765 20.008 159.808 20.3057C159.829 20.412 159.85 20.4971 159.85 20.6034C159.871 20.8585 159.893 21.1137 159.893 21.3901V21.4326C159.893 21.539 159.893 21.624 159.893 21.7303C159.893 21.8579 159.871 21.9642 159.871 22.0706C159.765 23.1975 159.382 24.3032 158.787 25.2601C158.723 25.3451 158.681 25.4302 158.617 25.5365C158.574 25.6216 158.511 25.6854 158.468 25.7492C158.404 25.8342 158.34 25.9193 158.277 25.9831C157.32 27.1526 156.001 27.9818 154.556 28.3646C154.449 28.3858 154.322 28.4284 154.215 28.4496C154.109 28.4709 154.024 28.4922 153.96 28.4922C153.854 28.5134 153.769 28.5134 153.684 28.5347C153.386 28.5772 153.11 28.5772 152.812 28.5772C151.472 28.5772 150.196 28.2157 149.07 27.514C149.006 27.4715 148.921 27.4077 148.857 27.3652C148.176 26.9399 147.9 26.1532 148.198 25.3877C148.41 24.8136 149.006 24.4308 149.644 24.4308H149.665C149.835 24.4308 150.048 24.4733 150.175 24.5371C150.196 24.5584 150.494 24.7072 150.643 24.7923C151.26 25.1325 151.813 25.4089 152.535 25.4089C152.578 25.4089 152.642 25.4089 152.706 25.4089C154.152 25.4089 155.512 24.6222 156.235 23.3464C156.278 23.2613 156.32 23.1975 156.342 23.1337C156.597 22.6021 156.724 22.028 156.724 21.4326C156.724 21.0712 156.682 20.7097 156.576 20.3907C156.108 18.6471 154.513 17.4351 152.727 17.4351C151.515 17.4351 150.345 18.0092 149.537 19.0299C149.197 19.4551 147.624 21.3689 146.22 23.0487L146.093 23.2188C144.944 24.6009 144.03 25.7066 143.966 25.8129C142.563 27.6203 140.5 28.6197 138.246 28.6197ZM138.246 17.4776C136.035 17.4776 134.249 19.2638 134.249 21.4752C134.249 23.6866 136.035 25.4727 138.246 25.4727C140.458 25.4727 142.244 23.6866 142.244 21.4752C142.265 19.285 140.458 17.4776 138.246 17.4776Z" fill="white"/>
<path d="M18.978 26.3227C18.6739 26.2011 17.9645 25.8362 17.9239 24.8835V22.6537V22.6334C17.8428 22.0658 17.6604 21.6807 17.3766 21.4374C17.6604 21.1942 17.8428 20.8091 17.9239 20.2415V20.2212V17.9509C17.8631 16.9576 18.6131 16.6333 18.9375 16.5319C19.0794 16.4914 19.1807 16.3495 19.1807 16.2076C19.1604 16.0455 19.0185 15.9238 18.8361 15.9238H17.8631C16.809 15.9238 15.6739 16.5725 15.6739 17.7685V20.0388C15.6739 20.4847 14.7414 21.032 14.3563 21.1131C14.1941 21.1537 14.0928 21.2753 14.0928 21.4172C14.0928 21.5591 14.1941 21.6807 14.3563 21.7212C14.7414 21.8023 15.6739 22.3496 15.6739 22.7956V25.0659C15.6739 26.2619 16.809 26.9105 17.8631 26.9105H18.8564C19.0388 26.9105 19.1807 26.7889 19.201 26.6267V26.6065C19.1807 26.5051 19.0996 26.3835 18.978 26.3227Z" fill="url(#paint0_linear_1271_1555)"/>
<path d="M23.5395 27.6806C23.2355 27.5589 22.526 27.1738 22.4855 26.2008V22.7142V22.6737V22.6534C22.4044 22.0858 22.2219 21.6804 21.9381 21.4169C22.2219 21.1534 22.4044 20.748 22.4855 20.1804V20.1601V16.6533C22.4246 15.6195 23.1747 15.2749 23.499 15.1938C23.6612 15.1533 23.7422 15.0114 23.7422 14.8695C23.722 14.6871 23.5801 14.5654 23.3976 14.5654H22.4246C21.3706 14.5654 20.2354 15.2344 20.2354 16.4911V19.998C20.2354 20.4642 19.303 21.0318 18.9178 21.1129C18.7556 21.1534 18.6543 21.275 18.6543 21.4372C18.6543 21.5994 18.7556 21.721 18.9178 21.7615C19.303 21.8426 20.2354 22.4102 20.2354 22.8764V26.3832C20.2354 27.64 21.3706 28.3089 22.4246 28.3089H23.4179C23.6003 28.3089 23.7422 28.1873 23.7625 28.0454V28.0252V28.0049C23.7625 27.863 23.6814 27.7211 23.5395 27.6806Z" fill="url(#paint1_linear_1271_1555)"/>
<path d="M28.1203 27.0925C27.8771 26.9912 27.1068 26.6263 27.0663 25.6127V22.714V22.6735V22.6532C26.9852 22.0857 26.8028 21.6802 26.519 21.4167C26.8028 21.1532 26.9852 20.7478 27.0663 20.2005V20.1802V17.241C27.0055 16.2072 27.7555 15.8626 28.0595 15.7815C28.2217 15.7409 28.3231 15.599 28.3028 15.4369C28.2825 15.2747 28.1406 15.1328 27.9582 15.1328H26.9852C25.9311 15.1328 24.796 15.8017 24.796 17.0585V19.9978C24.796 20.464 23.8635 21.0316 23.4784 21.1127C23.3365 21.1532 23.2148 21.2748 23.2148 21.437C23.2148 21.5992 23.3162 21.7208 23.4784 21.7613C23.8635 21.8424 24.796 22.41 24.796 22.8762V25.8155C24.796 27.0722 25.9311 27.7412 26.9852 27.7412H27.9785C28.1609 27.7412 28.3028 27.6195 28.3231 27.4574V27.4371C28.3433 27.2749 28.242 27.133 28.1203 27.0925Z" fill="url(#paint2_linear_1271_1555)"/>
<path d="M32.418 24.7821C32.1545 24.6604 31.5261 24.2753 31.5058 23.3023V22.7144V22.6942C31.445 22.1063 31.2828 21.7009 31.0193 21.4577C31.2828 21.1941 31.445 20.7887 31.5058 20.2212V20.2009V19.5928C31.4653 18.559 32.1139 18.2144 32.3977 18.1333C32.5396 18.0927 32.6207 17.9508 32.6004 17.8089C32.5802 17.6468 32.4585 17.5049 32.2964 17.5049H31.4247C30.4923 17.5049 29.4788 18.1738 29.4788 19.4306V20.0387C29.4788 20.5049 28.6477 21.0725 28.3233 21.1536C28.1814 21.1941 28.0801 21.3158 28.0801 21.4779C28.0801 21.6401 28.1814 21.7617 28.3031 21.8023C28.6477 21.8833 29.4585 22.4509 29.4585 22.9172V23.5253C29.4585 24.7821 30.4517 25.451 31.4045 25.451H32.2761C32.4383 25.451 32.5802 25.3294 32.5802 25.1875V25.1672C32.6207 24.9645 32.5396 24.8429 32.418 24.7821Z" fill="url(#paint3_linear_1271_1555)"/>
<path d="M37.2632 25.9979C36.9591 25.8763 36.2496 25.4912 36.2091 24.5182V22.7546V22.7344C36.128 22.1465 35.9456 21.7411 35.6618 21.4979C35.9456 21.2343 36.128 20.8289 36.2091 20.2613V20.2411V18.4775C36.1483 17.4437 36.8983 17.0991 37.2226 17.018C37.3848 16.9775 37.4659 16.8356 37.4659 16.6937C37.4456 16.5315 37.3037 16.3896 37.1213 16.3896H36.1483C35.0942 16.3896 33.959 17.0586 33.959 18.3154V20.0789C33.959 20.5451 33.0266 21.1127 32.6414 21.1938C32.4793 21.2343 32.3779 21.356 32.3779 21.5181C32.3779 21.6803 32.4793 21.8019 32.6414 21.8425C33.0266 21.9235 33.959 22.4911 33.959 22.9573V24.7209C33.959 25.9777 35.0942 26.6466 36.1483 26.6466H37.1415C37.324 26.6466 37.4659 26.525 37.4861 26.3831V26.3628C37.4861 26.1804 37.4051 26.0588 37.2632 25.9979Z" fill="url(#paint4_linear_1271_1555)"/>
<path d="M23.1839 4.21574C28.2996 4.21574 32.7287 7.22756 34.7883 11.546C35.2534 11.4795 35.7184 11.4574 36.1835 11.4574C41.9635 11.4574 46.6363 16.1302 46.6363 21.9102C46.6363 27.0037 43.0044 31.2336 38.1766 32.1858L11.646 32.3187C8.52341 31.9644 5.04653 30.1927 3.82851 27.048C2.07899 22.5524 4.33786 15.6651 10.9152 15.643C11.6238 8.48987 16.7174 4.21574 23.1839 4.21574ZM23.1839 0.916016C19.1091 0.916016 15.4772 2.26691 12.6868 4.81367C10.4058 6.85108 8.8556 9.55287 8.10264 12.7197C5.62232 13.3398 3.54062 14.8014 2.07899 16.9496C-0.113436 20.1828 -0.622789 24.612 0.79454 28.2439C2.63264 32.9831 7.61544 35.1755 11.3138 35.5963L11.5131 35.6184H11.7124L38.243 35.4856H38.5531L38.8631 35.4191C45.3075 34.1568 49.9803 28.4875 49.9803 21.9102C49.9803 14.4692 44.0674 8.40129 36.6928 8.15768C35.4527 6.29744 33.8582 4.70294 31.9536 3.46278C29.3183 1.80185 26.2843 0.916016 23.1839 0.916016Z" fill="url(#paint5_linear_1271_1555)"/>
<defs>
<linearGradient id="paint0_linear_1271_1555" x1="16.6469" y1="15.9238" x2="16.6469" y2="26.9105" gradientUnits="userSpaceOnUse">
<stop stop-color="#2C81FF"/>
<stop offset="1" stop-color="#0061F1"/>
</linearGradient>
<linearGradient id="paint1_linear_1271_1555" x1="21.2084" y1="14.5654" x2="21.2084" y2="28.3089" gradientUnits="userSpaceOnUse">
<stop stop-color="#2C81FF"/>
<stop offset="1" stop-color="#0061F1"/>
</linearGradient>
<linearGradient id="paint2_linear_1271_1555" x1="25.7702" y1="15.1328" x2="25.7702" y2="27.7412" gradientUnits="userSpaceOnUse">
<stop stop-color="#2C81FF"/>
<stop offset="1" stop-color="#0061F1"/>
</linearGradient>
<linearGradient id="paint3_linear_1271_1555" x1="30.3418" y1="17.5049" x2="30.3418" y2="25.451" gradientUnits="userSpaceOnUse">
<stop stop-color="#2C81FF"/>
<stop offset="1" stop-color="#0061F1"/>
</linearGradient>
<linearGradient id="paint4_linear_1271_1555" x1="34.932" y1="16.3896" x2="34.932" y2="26.6466" gradientUnits="userSpaceOnUse">
<stop stop-color="#2C81FF"/>
<stop offset="1" stop-color="#0061F1"/>
</linearGradient>
<linearGradient id="paint5_linear_1271_1555" x1="24.9901" y1="0.916016" x2="24.9901" y2="35.6184" gradientUnits="userSpaceOnUse">
<stop stop-color="#2C81FF"/>
<stop offset="1" stop-color="#0061F1"/>
</linearGradient>
</defs>
</svg>
