<svg width="58" height="60" viewBox="0 0 58 60" fill="none" xmlns="http://www.w3.org/2000/svg">
<path d="M29 0.999997L3.88527 15.5L3.88527 44.5L29 59L54.1147 44.5L54.1147 15.5L29 0.999997Z" fill="url(#paint0_linear_638_3371)" stroke="#E9DB63" stroke-opacity="0.7" stroke-width="2" stroke-miterlimit="10" stroke-linejoin="round"/>
<path fill-rule="evenodd" clip-rule="evenodd" d="M29.5 18C28.465 18 26.7355 18.3975 25.108 18.84C23.443 19.29 21.7645 19.8225 20.7775 20.145C20.3648 20.2813 19.999 20.5312 19.722 20.8661C19.445 21.2009 19.268 21.6071 19.2115 22.038C18.3175 28.7535 20.392 33.7305 22.909 37.023C23.9764 38.4314 25.249 39.6717 26.6845 40.7025C27.2635 41.112 27.8005 41.4255 28.2565 41.64C28.6765 41.838 29.128 42 29.5 42C29.872 42 30.322 41.838 30.7435 41.64C31.2932 41.3728 31.8191 41.0592 32.3155 40.7025C33.751 39.6718 35.0237 38.4315 36.091 37.023C38.608 33.7305 40.6825 28.7535 39.7885 22.038C39.7321 21.6069 39.5552 21.2005 39.2782 20.8653C39.0012 20.5302 38.6353 20.28 38.2225 20.1435C36.7897 19.6737 35.3458 19.2386 33.892 18.8385C32.2645 18.399 30.535 18 29.5 18ZM29.5 25.5C30.0314 25.4992 30.5459 25.6865 30.9524 26.0287C31.3589 26.3709 31.6311 26.8459 31.721 27.3696C31.8108 27.8933 31.7124 28.4319 31.4431 28.89C31.1739 29.3481 30.7512 29.6962 30.25 29.8725L30.8275 32.8575C30.8485 32.9661 30.8453 33.0779 30.818 33.1851C30.7907 33.2923 30.74 33.3921 30.6696 33.4774C30.5992 33.5627 30.5109 33.6313 30.4108 33.6785C30.3108 33.7256 30.2016 33.75 30.091 33.75H28.909C28.7985 33.7498 28.6895 33.7252 28.5896 33.678C28.4898 33.6307 28.4016 33.562 28.3314 33.4768C28.2612 33.3915 28.2107 33.2918 28.1834 33.1847C28.1562 33.0777 28.153 32.9659 28.174 32.8575L28.75 29.8725C28.2488 29.6962 27.8261 29.3481 27.5569 28.89C27.2876 28.4319 27.1892 27.8933 27.279 27.3696C27.3689 26.8459 27.6411 26.3709 28.0476 26.0287C28.4542 25.6865 28.9686 25.4992 29.5 25.5Z" fill="#E9DB63"/>
<defs>
<linearGradient id="paint0_linear_638_3371" x1="29" y1="0.999997" x2="29" y2="59" gradientUnits="userSpaceOnUse">
<stop stop-color="#E9DB63" stop-opacity="0.2"/>
<stop offset="1" stop-color="#E9DB63" stop-opacity="0"/>
</linearGradient>
</defs>
</svg>
