<svg width="26" height="26" viewBox="0 0 26 26" fill="none" xmlns="http://www.w3.org/2000/svg">
<path d="M9.39184 5.21546C6.64206 8.30062 4.75496 12.733 4.57973 13.1506L1.53341 11.8438C0.657256 11.4666 0.441587 10.3215 1.11555 9.64785L5.17282 5.59268C5.80634 4.95949 6.72294 4.67657 7.61257 4.85171L9.39184 5.21546ZM11.4003 18.9033C11.8046 19.3075 12.3977 19.4153 12.9099 19.1728C14.4735 18.4453 17.8299 16.7343 20 14.5652C26.187 8.38145 26.241 3.34281 25.877 1.18724C25.8293 0.922462 25.7017 0.678597 25.5114 0.488359C25.3211 0.298121 25.0771 0.170609 24.8121 0.122929C22.6555 -0.240824 17.6142 -0.186935 11.4272 5.99685C9.25704 8.16589 7.55865 11.5205 6.81729 13.0833C6.57467 13.5952 6.69598 14.2015 7.08688 14.5922L11.4003 18.9033ZM20.7953 16.613C17.7086 19.3614 13.2739 21.2475 12.856 21.4226L14.1635 24.4674C14.5409 25.3431 15.6867 25.5586 16.3606 24.885L20.4179 20.8299C21.0514 20.1967 21.3345 19.2805 21.1593 18.3914L20.7953 16.613ZM9.05485 20.1158C9.18556 20.7683 9.15306 21.4429 8.96025 22.0799C8.76743 22.7168 8.42026 23.2962 7.94955 23.7668C6.91165 24.8042 3.6901 25.5721 1.60081 25.9763C0.670735 26.1514 -0.151502 25.3296 0.0237292 24.4C0.428108 22.3118 1.18295 19.0919 2.23433 18.0546C2.70517 17.5841 3.28494 17.2371 3.92218 17.0444C4.55942 16.8517 5.23441 16.8192 5.88722 16.9498C7.4643 17.2462 8.75831 18.5396 9.05485 20.1158ZM14.5274 8.78562C14.5274 7.30367 15.7406 6.09116 17.2233 6.09116C18.706 6.09116 19.9192 7.30367 19.9192 8.78562C19.9192 10.2676 18.706 11.4801 17.2233 11.4801C15.7406 11.4801 14.5274 10.2676 14.5274 8.78562Z" fill="#A8AEBC"/>
</svg>
