<svg width="58" height="60" viewBox="0 0 58 60" fill="none" xmlns="http://www.w3.org/2000/svg">
<path d="M29 0.999997L3.88527 15.5L3.88527 44.5L29 59L54.1147 44.5L54.1147 15.5L29 0.999997Z" fill="url(#paint0_linear_638_3343)" stroke="#18BC85" stroke-opacity="0.7" stroke-width="2" stroke-miterlimit="10" stroke-linejoin="round"/>
<path d="M30.4757 31.4757C29.6493 32.302 28.336 32.302 27.5243 31.4904V31.4757C26.7127 30.664 26.7127 29.3507 27.5243 28.5391V28.5243C28.336 27.7127 29.6493 27.7127 30.4609 28.5243H30.4757C31.2873 29.336 31.2873 30.664 30.4757 31.4757ZM29 21.1461L32.1284 24.2745L35.8175 20.5853L31.0954 15.8633C29.9444 14.7122 28.0703 14.7122 26.9193 15.8633L22.1972 20.5853L25.8864 24.2745L29 21.1461ZM20.1461 30L23.2745 26.8716L19.5853 23.1825L14.8633 27.9046C13.7122 29.0556 13.7122 30.9297 14.8633 32.0807L19.5853 36.8028L23.2745 33.1136L20.1461 30ZM37.8539 30L34.7255 33.1284L38.4147 36.8175L43.1367 32.0954C44.2878 30.9444 44.2878 29.0703 43.1367 27.9193L38.4147 23.1972L34.7255 26.8864L37.8539 30ZM29 38.8539L25.8716 35.7255L22.1825 39.4147L26.9046 44.1367C28.0556 45.2878 29.9297 45.2878 31.0807 44.1367L35.8028 39.4147L32.1136 35.7255L29 38.8539Z" fill="#18BC85"/>
<defs>
<linearGradient id="paint0_linear_638_3343" x1="29" y1="0.999997" x2="29" y2="59" gradientUnits="userSpaceOnUse">
<stop stop-color="#18BC85" stop-opacity="0.2"/>
<stop offset="1" stop-color="#18BC85" stop-opacity="0"/>
</linearGradient>
</defs>
</svg>
