<svg width="58" height="60" viewBox="0 0 58 60" fill="none" xmlns="http://www.w3.org/2000/svg">
<path d="M29 0.999997L3.88527 15.5L3.88527 44.5L29 59L54.1147 44.5L54.1147 15.5L29 0.999997Z" fill="url(#paint0_linear_638_3378)" stroke="#FF4D69" stroke-opacity="0.8" stroke-width="2" stroke-miterlimit="10" stroke-linejoin="round"/>
<path d="M23.2902 20.0105C24.5113 18.5174 26.4009 17.4644 29 17.4644C30.5785 17.4644 32.419 17.9862 33.8824 19.1831C35.2019 20.2631 36.1787 21.8639 36.3867 24.0173C37.6663 24.1705 38.9069 24.6515 39.8977 25.4176C41.1299 26.3684 41.9999 27.7845 41.9999 29.5358C42.0017 29.9539 41.9632 30.3712 41.8848 30.7819C40.8889 29.357 39.4734 28.2782 37.8355 27.6956C36.1976 27.113 34.4188 27.0557 32.7469 27.5317C31.0749 28.0077 29.5929 28.9932 28.5074 30.351C27.4219 31.7089 26.7868 33.3714 26.6906 35.1072H22.5C19.9863 35.1072 18.3075 34.3457 17.274 33.1655C16.2637 32.0104 16 30.599 16 29.5358C16 27.348 17.7921 24.4008 21.6243 24.008C21.7841 22.656 22.3115 21.2074 23.2902 20.0105ZM41.9999 35.5715C41.9999 33.7244 41.2662 31.953 39.9602 30.647C38.6541 29.3409 36.8827 28.6072 35.0357 28.6072C33.1886 28.6072 31.4172 29.3409 30.1112 30.647C28.8051 31.953 28.0714 33.7244 28.0714 35.5715C28.0714 37.4185 28.8051 39.1899 30.1112 40.4959C31.4172 41.802 33.1886 42.5357 35.0357 42.5357C36.8827 42.5357 38.6541 41.802 39.9602 40.4959C41.2662 39.1899 41.9999 37.4185 41.9999 35.5715ZM38.5178 31.1608C38.7025 31.1608 38.8796 31.2341 39.0103 31.3647C39.1409 31.4953 39.2142 31.6725 39.2142 31.8572V34.1786C39.2142 34.3633 39.1409 34.5404 39.0103 34.6711C38.8796 34.8017 38.7025 34.875 38.5178 34.875H36.1964C36.0117 34.875 35.8345 34.8017 35.7039 34.6711C35.5733 34.5404 35.5 34.3633 35.5 34.1786C35.5 33.9939 35.5733 33.8168 35.7039 33.6862C35.8345 33.5555 36.0117 33.4822 36.1964 33.4822H36.878C36.3696 33.0326 35.7143 32.7849 35.0357 32.7857C34.1322 32.7857 33.3299 33.2157 32.821 33.8815C32.7572 33.9704 32.6738 34.0435 32.5771 34.0951C32.4805 34.1466 32.3733 34.1752 32.2639 34.1786C31.6937 34.1786 31.3019 33.6094 31.6334 33.1442C32.0198 32.6021 32.5302 32.1603 33.122 31.8557C33.7139 31.551 34.37 31.3924 35.0357 31.3929C36.1054 31.3929 37.0822 31.795 37.8214 32.457V31.8572C37.8214 31.6725 37.8948 31.4953 38.0254 31.3647C38.156 31.2341 38.3331 31.1608 38.5178 31.1608ZM32.25 38.6859V39.0536C32.25 39.2383 32.1766 39.4154 32.046 39.546C31.9154 39.6766 31.7382 39.75 31.5535 39.75C31.3688 39.75 31.1917 39.6766 31.0611 39.546C30.9305 39.4154 30.8571 39.2383 30.8571 39.0536V36.7322C30.8571 36.5475 30.9305 36.3703 31.0611 36.2397C31.1917 36.1091 31.3688 36.0357 31.5535 36.0357H33.875C34.0597 36.0357 34.2368 36.1091 34.3674 36.2397C34.498 36.3703 34.5714 36.5475 34.5714 36.7322C34.5714 36.9169 34.498 37.094 34.3674 37.2246C34.2368 37.3552 34.0597 37.4286 33.875 37.4286H32.9594C33.2327 37.7347 33.5703 37.9765 33.948 38.1369C34.3257 38.2972 34.7342 38.3721 35.1442 38.3561C35.5543 38.3402 35.9557 38.2338 36.3198 38.0445C36.6839 37.8553 37.0016 37.5879 37.2503 37.2615C37.384 37.085 37.5846 36.9643 37.8065 36.9643C38.3776 36.9643 38.7694 37.5335 38.4379 37.9987C38.0516 38.5408 37.5412 38.9826 36.9493 39.2872C36.3575 39.5919 35.7013 39.7506 35.0357 39.75C34.0076 39.7515 33.0153 39.3724 32.25 38.6859Z" fill="#FF4D69"/>
<defs>
<linearGradient id="paint0_linear_638_3378" x1="29" y1="0.999997" x2="29" y2="59" gradientUnits="userSpaceOnUse">
<stop stop-color="#FF4D69" stop-opacity="0.2"/>
<stop offset="1" stop-color="#FF4D69" stop-opacity="0"/>
</linearGradient>
</defs>
</svg>
