<svg width="58" height="60" viewBox="0 0 58 60" fill="none" xmlns="http://www.w3.org/2000/svg">
<path d="M29 0.999997L3.88527 15.5L3.88527 44.5L29 59L54.1147 44.5L54.1147 15.5L29 0.999997Z" fill="url(#paint0_linear_638_3340)" stroke="#18BC85" stroke-opacity="0.7" stroke-width="2" stroke-miterlimit="10" stroke-linejoin="round"/>
<path d="M29 16C21.2688 16 15 22.2688 15 30C15 37.7313 21.2688 44 29 44C36.7313 44 43 37.7313 43 30C43 22.2688 36.7313 16 29 16ZM29.6969 36.7875L29.7031 37.7781C29.7031 37.9156 29.5906 38.0312 29.4531 38.0312H28.5656C28.4281 38.0312 28.3156 37.9188 28.3156 37.7812V36.8C25.5406 36.5938 24.2344 35.0125 24.0938 33.2938C24.0813 33.1469 24.1969 33.0219 24.3438 33.0219H25.7875C25.9094 33.0219 26.0156 33.1094 26.0344 33.2281C26.1938 34.2188 26.9656 34.9594 28.35 35.1437V30.6844L27.5781 30.4875C25.9438 30.0969 24.3875 29.0781 24.3875 26.9656C24.3875 24.6875 26.1187 23.4625 28.3313 23.2469V22.2156C28.3313 22.0781 28.4438 21.9656 28.5813 21.9656H29.4594C29.5969 21.9656 29.7094 22.0781 29.7094 22.2156V23.2375C31.85 23.4531 33.4562 24.7031 33.6437 26.65C33.6594 26.7969 33.5437 26.925 33.3937 26.925H31.9906C31.8656 26.925 31.7594 26.8313 31.7437 26.7094C31.6187 25.7969 30.8875 25.0531 29.6969 24.8906V29.0875L30.4906 29.2719C32.5156 29.7719 33.8937 30.7406 33.8937 32.9094C33.8937 35.2625 32.1437 36.575 29.6969 36.7875ZM26.3313 26.8219C26.3313 27.6156 26.8219 28.2312 27.8781 28.6125C28.025 28.6719 28.1719 28.7188 28.3469 28.7688V24.8938C27.1938 25.0406 26.3313 25.6875 26.3313 26.8219ZM29.9719 31.0469C29.8844 31.0281 29.7969 31.0062 29.6969 30.9781V35.1562C31.0281 35.0375 31.9469 34.3062 31.9469 33.0812C31.9469 32.1219 31.45 31.4969 29.9719 31.0469Z" fill="#18BC85"/>
<defs>
<linearGradient id="paint0_linear_638_3340" x1="29" y1="0.999997" x2="29" y2="59" gradientUnits="userSpaceOnUse">
<stop stop-color="#18BC85" stop-opacity="0.2"/>
<stop offset="1" stop-color="#18BC85" stop-opacity="0"/>
</linearGradient>
</defs>
</svg>
