<svg width="58" height="60" viewBox="0 0 58 60" fill="none" xmlns="http://www.w3.org/2000/svg">
<path d="M29 0.999997L3.88527 15.5L3.88527 44.5L29 59L54.1147 44.5L54.1147 15.5L29 0.999997Z" fill="url(#paint0_linear_638_3382)" stroke="#E9DB63" stroke-opacity="0.7" stroke-width="2" stroke-miterlimit="10" stroke-linejoin="round"/>
<ellipse cx="22.7977" cy="20.2823" rx="3.33333" ry="3.46296" fill="#E9DB63"/>
<path d="M19 34C19 35.6569 17.6569 37 16 37C14.3431 37 13 35.6569 13 34C13 32.3431 14.3431 31 16 31C17.6569 31 19 32.3431 19 34Z" fill="#E9DB63"/>
<ellipse cx="28.3213" cy="30.224" rx="5.2381" ry="5.4418" fill="#E9DB63"/>
<path d="M39.4644 22.2544C39.4644 23.6351 38.3451 24.7544 36.9644 24.7544C35.5836 24.7544 34.4644 23.6351 34.4644 22.2544C34.4644 20.8737 35.5836 19.7544 36.9644 19.7544C38.3451 19.7544 39.4644 20.8737 39.4644 22.2544Z" fill="#E9DB63"/>
<ellipse cx="39.7977" cy="39.7174" rx="3.33333" ry="3.46296" fill="#E9DB63"/>
<path d="M28.0346 30.7637L24.7618 24.2637L21.4891 17.7637M29.78 29.2637L33.2709 25.7637L36.7618 22.2637M25.8527 31.2637L16.0654 33.9998" stroke="#E9DB63" stroke-width="2"/>
<path d="M34.1421 37.2139C34.5782 37.5529 35.2064 37.4741 35.5454 37.0381C35.8843 36.602 35.8056 35.9738 35.3695 35.6348L34.1421 37.2139ZM28.5592 32.8745L34.1421 37.2139L35.3695 35.6348L29.7865 31.2954L28.5592 32.8745Z" fill="#E9DB63"/>
<defs>
<linearGradient id="paint0_linear_638_3382" x1="29" y1="0.999997" x2="29" y2="59" gradientUnits="userSpaceOnUse">
<stop stop-color="#E9DB63" stop-opacity="0.2"/>
<stop offset="1" stop-color="#E9DB63" stop-opacity="0"/>
</linearGradient>
</defs>
</svg>
