<svg width="26" height="26" viewBox="0 0 26 26" fill="none" xmlns="http://www.w3.org/2000/svg">
<ellipse cx="8.45446" cy="4.98819" rx="2.87633" ry="2.98819" fill="#66A3FF"/>
<path d="M5.1774 16.825C5.1774 18.2547 4.0184 19.4137 2.5887 19.4137C1.159 19.4137 0 18.2547 0 16.825C0 15.3953 1.159 14.2363 2.5887 14.2363C4.0184 14.2363 5.1774 15.3953 5.1774 16.825Z" fill="#66A3FF"/>
<ellipse cx="13.2209" cy="13.5668" rx="4.51995" ry="4.69573" fill="#66A3FF"/>
<path d="M22.836 6.68996C22.836 7.88138 21.8701 8.84721 20.6787 8.84721C19.4873 8.84721 18.5215 7.88138 18.5215 6.68996C18.5215 5.49855 19.4873 4.53271 20.6787 4.53271C21.8701 4.53271 22.836 5.49855 22.836 6.68996Z" fill="#66A3FF"/>
<ellipse cx="23.1236" cy="21.7587" rx="2.87633" ry="2.98819" fill="#66A3FF"/>
<path d="M12.9734 14.0326L10.1494 8.42379L7.32536 2.81494M14.4796 12.7383L17.4919 9.71814L20.5042 6.69799M11.0907 14.4641L2.64526 16.8251" stroke="#66A3FF" stroke-width="2"/>
<path d="M18.1594 19.7064C18.5955 20.0453 19.2237 19.9666 19.5627 19.5305C19.9016 19.0945 19.8228 18.4662 19.3868 18.1273L18.1594 19.7064ZM13.3419 15.9619L18.1594 19.7064L19.3868 18.1273L14.5693 14.3828L13.3419 15.9619Z" fill="#66A3FF"/>
</svg>
