<svg width="58" height="60" viewBox="0 0 58 60" fill="none" xmlns="http://www.w3.org/2000/svg">
<path d="M29 0.999997L3.88527 15.5L3.88527 44.5L29 59L54.1147 44.5L54.1147 15.5L29 0.999997Z" fill="url(#paint0_linear_638_3386)" stroke="#FF4D69" stroke-opacity="0.8" stroke-width="2" stroke-miterlimit="10" stroke-linejoin="round"/>
<path d="M25.3918 22.2155C22.6421 25.3006 20.755 29.733 20.5797 30.1506L17.5334 28.8438C16.6573 28.4666 16.4416 27.3215 17.1156 26.6478L21.1728 22.5927C21.8063 21.9595 22.7229 21.6766 23.6126 21.8517L25.3918 22.2155ZM27.4003 35.9033C27.8046 36.3075 28.3977 36.4153 28.9099 36.1728C30.4735 35.4453 33.8299 33.7343 36 31.5652C42.187 25.3815 42.241 20.3428 41.877 18.1872C41.8293 17.9225 41.7017 17.6786 41.5114 17.4884C41.3211 17.2981 41.0771 17.1706 40.8121 17.1229C38.6555 16.7592 33.6142 16.8131 27.4272 22.9969C25.257 25.1659 23.5587 28.5205 22.8173 30.0833C22.5747 30.5952 22.696 31.2015 23.0869 31.5922L27.4003 35.9033ZM36.7953 33.613C33.7086 36.3614 29.2739 38.2475 28.856 38.4226L30.1635 41.4674C30.5409 42.3431 31.6867 42.5586 32.3606 41.885L36.4179 37.8299C37.0514 37.1967 37.3345 36.2805 37.1593 35.3914L36.7953 33.613ZM25.0549 37.1158C25.1856 37.7683 25.1531 38.4429 24.9602 39.0799C24.7674 39.7168 24.4203 40.2962 23.9496 40.7668C22.9116 41.8042 19.6901 42.5721 17.6008 42.9763C16.6707 43.1514 15.8485 42.3296 16.0237 41.4C16.4281 39.3118 17.1829 36.0919 18.2343 35.0546C18.7052 34.5841 19.2849 34.2371 19.9222 34.0444C20.5594 33.8517 21.2344 33.8192 21.8872 33.9498C23.4643 34.2462 24.7583 35.5396 25.0549 37.1158ZM30.5274 25.7856C30.5274 24.3037 31.7406 23.0912 33.2233 23.0912C34.706 23.0912 35.9192 24.3037 35.9192 25.7856C35.9192 27.2676 34.706 28.4801 33.2233 28.4801C31.7406 28.4801 30.5274 27.2676 30.5274 25.7856Z" fill="#FF4D69"/>
<defs>
<linearGradient id="paint0_linear_638_3386" x1="29" y1="0.999997" x2="29" y2="59" gradientUnits="userSpaceOnUse">
<stop stop-color="#FF4D69" stop-opacity="0.2"/>
<stop offset="1" stop-color="#FF4D69" stop-opacity="0"/>
</linearGradient>
</defs>
</svg>
