<svg width="58" height="60" viewBox="0 0 58 60" fill="none" xmlns="http://www.w3.org/2000/svg">
<path d="M29 0.999997L3.88527 15.5L3.88527 44.5L29 59L54.1147 44.5L54.1147 15.5L29 0.999997Z" fill="url(#paint0_linear_638_3363)" stroke="#C557EC" stroke-opacity="0.7" stroke-width="2" stroke-miterlimit="10" stroke-linejoin="round"/>
<path fill-rule="evenodd" clip-rule="evenodd" d="M31.6056 18.0487C30.9429 15.3171 27.0572 15.3171 26.3945 18.0487C25.9651 19.8142 23.9491 20.6511 22.3936 19.7053C19.9918 18.2431 17.2447 20.9918 18.7069 23.392C18.9267 23.7525 19.0583 24.1598 19.0909 24.5808C19.1236 25.0017 19.0563 25.4245 18.8947 25.8145C18.7331 26.2046 18.4817 26.551 18.1609 26.8256C17.8401 27.1001 17.459 27.295 17.0487 27.3944C14.3171 28.0571 14.3171 31.9429 17.0487 32.6056C17.4587 32.7053 17.8393 32.9003 18.1598 33.1748C18.4802 33.4493 18.7313 33.7956 18.8927 34.1854C19.0542 34.5752 19.1213 34.9977 19.0888 35.4184C19.0562 35.839 18.9248 36.2461 18.7053 36.6064C17.2431 39.0082 19.9918 41.7553 22.392 40.2931C22.7525 40.0733 23.1598 39.9417 23.5808 39.9091C24.0018 39.8765 24.4245 39.9437 24.8146 40.1053C25.2047 40.2669 25.5511 40.5183 25.8256 40.8391C26.1001 41.1599 26.2951 41.541 26.3945 41.9513C27.0572 44.6829 30.9429 44.6829 31.6056 41.9513C31.7053 41.5413 31.9004 41.1607 32.1749 40.8402C32.4494 40.5198 32.7956 40.2687 33.1855 40.1073C33.5753 39.9458 33.9977 39.8787 34.4184 39.9112C34.8391 39.9438 35.2462 40.0752 35.6065 40.2947C38.0083 41.7569 40.7554 39.0082 39.2932 36.608C39.0734 36.2475 38.9418 35.8402 38.9092 35.4192C38.8765 34.9983 38.9438 34.5755 39.1054 34.1855C39.267 33.7954 39.5184 33.449 39.8392 33.1744C40.16 32.8999 40.5411 32.705 40.9514 32.6056C43.683 31.9429 43.683 28.0571 40.9514 27.3944C40.5414 27.2947 40.1608 27.0997 39.8403 26.8252C39.5199 26.5507 39.2688 26.2044 39.1073 25.8146C38.9459 25.4248 38.8788 25.0023 38.9113 24.5816C38.9439 24.161 39.0753 23.7539 39.2948 23.3936C40.757 20.9918 38.0083 18.2447 35.6081 19.7069C35.2476 19.9267 34.8403 20.0583 34.4193 20.0909C33.9983 20.1235 33.5756 20.0563 33.1855 19.8947C32.7954 19.7331 32.449 19.4817 32.1745 19.1609C31.9 18.8401 31.705 18.459 31.6056 18.0487ZM25.8892 34.667V25.3337L33.667 30.0003L25.8892 34.667Z" fill="#C557EC"/>
<defs>
<linearGradient id="paint0_linear_638_3363" x1="29" y1="0.999997" x2="29" y2="59" gradientUnits="userSpaceOnUse">
<stop stop-color="#C557EC" stop-opacity="0.2"/>
<stop offset="1" stop-color="#C557EC" stop-opacity="0"/>
</linearGradient>
</defs>
</svg>
