<svg width="58" height="60" viewBox="0 0 58 60" fill="none" xmlns="http://www.w3.org/2000/svg">
<path d="M29 0.999997L3.88527 15.5L3.88527 44.5L29 59L54.1147 44.5L54.1147 15.5L29 0.999997Z" fill="url(#paint0_linear_638_3352)" stroke="#18BC85" stroke-opacity="0.7" stroke-width="2" stroke-miterlimit="10" stroke-linejoin="round"/>
<path d="M22.2275 17.3878C23.421 16.4839 24.8779 15.9964 26.375 16C26.795 16 27.1292 16.2188 27.3235 16.3693C27.5405 16.5408 27.7435 16.7595 27.9255 16.9783C28.0545 17.135 28.1251 17.3317 28.125 17.5348V23.875H26.2262C26.0198 23.2912 25.6137 22.7992 25.0796 22.4858C24.5455 22.1725 23.9178 22.0581 23.3075 22.1628C22.6972 22.2675 22.1435 22.5846 21.7444 23.0581C21.3453 23.5315 21.1264 24.1308 21.1264 24.75C21.1264 25.3692 21.3453 25.9685 21.7444 26.442C22.1435 26.9154 22.6972 27.2325 23.3075 27.3372C23.9178 27.4419 24.5455 27.3275 25.0796 27.0142C25.6137 26.7009 26.0198 26.2088 26.2262 25.625H28.125V42.1013C28.1251 42.2308 28.0964 42.3588 28.041 42.4759C27.9856 42.593 27.9049 42.6964 27.8048 42.7785C26.9963 43.44 25.9148 44 24.625 44C22.5495 44 21.0043 42.9535 20.005 41.7023C19.2871 40.8107 18.7954 39.7588 18.5717 38.6363C17.8918 38.455 17.2614 38.123 16.7272 37.665C15.7613 36.8373 15 35.495 15 33.5C15 32.5253 15.0647 31.645 15.21 30.875H20.6875C21.8005 30.875 22.7175 31.7063 22.8575 32.7808C22.2755 32.9914 21.7867 33.4008 21.4773 33.9369C21.1679 34.4729 21.0579 35.101 21.1666 35.7103C21.2753 36.3196 21.5959 36.8708 22.0716 37.2667C22.5473 37.6626 23.1476 37.8777 23.7665 37.874C24.3854 37.8703 24.983 37.6481 25.454 37.2465C25.9249 36.8449 26.2388 36.2899 26.3403 35.6794C26.4417 35.0688 26.3242 34.4421 26.0084 33.9098C25.6926 33.3775 25.1989 32.9739 24.6145 32.7703C24.5407 31.7792 24.095 30.8528 23.3666 30.1767C22.6383 29.5006 21.6813 29.1249 20.6875 29.125H15.7717C16.0395 28.6035 16.3982 28.1625 16.8655 27.8493C16.9837 27.771 17.1077 27.702 17.2365 27.6428C16.7395 26.1868 16.869 24.4823 17.3485 23.1435C17.6548 22.2825 18.1413 21.4688 18.8098 20.9263C19.2508 20.5675 19.7758 20.3313 20.3498 20.2858C20.6018 19.0905 21.3105 18.1018 22.2292 17.3878H22.2275ZM29.875 37.875H31.1875C32.2318 37.875 33.2333 37.4602 33.9717 36.7217C34.7102 35.9833 35.125 34.9818 35.125 33.9375V30.7263C35.7088 30.5199 36.2009 30.1137 36.5142 29.5796C36.8275 29.0455 36.9419 28.4178 36.8372 27.8075C36.7325 27.1972 36.4154 26.6435 35.942 26.2444C35.4685 25.8453 34.8692 25.6264 34.25 25.6264C33.6308 25.6264 33.0315 25.8453 32.558 26.2444C32.0846 26.6435 31.7675 27.1972 31.6628 27.8075C31.5581 28.4178 31.6725 29.0455 31.9858 29.5796C32.2991 30.1137 32.7912 30.5199 33.375 30.7263V33.9375C33.375 35.145 32.395 36.125 31.1875 36.125H29.875V17.5348C29.8749 17.3317 29.9455 17.135 30.0745 16.9783C30.2548 16.7595 30.4595 16.5408 30.6765 16.3693C30.869 16.2188 31.2033 16 31.625 16C33.1221 15.9964 34.579 16.4839 35.7725 17.3878C36.6912 18.1018 37.4 19.0905 37.6502 20.2858C38.2242 20.3295 38.7493 20.5675 39.1903 20.9263C39.8587 21.4688 40.3453 22.2825 40.6515 23.1435C41.131 24.4823 41.2605 26.1885 40.7635 27.641C40.8895 27.7005 41.0138 27.7705 41.1345 27.851C41.6157 28.1713 41.9815 28.6298 42.251 29.1705C42.7812 30.2293 43 31.7063 43 33.5C43 35.4968 42.2388 36.8373 41.2728 37.665C40.7386 38.123 40.1082 38.455 39.4282 38.6363C39.2533 39.6128 38.7633 40.7433 37.995 41.7023C36.9975 42.9535 35.4505 44 33.375 44C32.087 44 31.0037 43.44 30.197 42.7785C30.0965 42.6965 30.0155 42.5933 29.9598 42.4761C29.9041 42.359 29.8751 42.2309 29.875 42.1013V37.875ZM23.75 23.875C23.5179 23.875 23.2954 23.9672 23.1313 24.1313C22.9672 24.2954 22.875 24.518 22.875 24.75C22.875 24.9821 22.9672 25.2046 23.1313 25.3687C23.2954 25.5328 23.5179 25.625 23.75 25.625C23.9821 25.625 24.2046 25.5328 24.3687 25.3687C24.5328 25.2046 24.625 24.9821 24.625 24.75C24.625 24.518 24.5328 24.2954 24.3687 24.1313C24.2046 23.9672 23.9821 23.875 23.75 23.875ZM23.75 34.375C23.5179 34.375 23.2954 34.4672 23.1313 34.6313C22.9672 34.7954 22.875 35.0179 22.875 35.25C22.875 35.4821 22.9672 35.7046 23.1313 35.8687C23.2954 36.0328 23.5179 36.125 23.75 36.125C23.9821 36.125 24.2046 36.0328 24.3687 35.8687C24.5328 35.7046 24.625 35.4821 24.625 35.25C24.625 35.0179 24.5328 34.7954 24.3687 34.6313C24.2046 34.4672 23.9821 34.375 23.75 34.375ZM34.25 29.125C34.4821 29.125 34.7046 29.0328 34.8687 28.8687C35.0328 28.7046 35.125 28.4821 35.125 28.25C35.125 28.0179 35.0328 27.7954 34.8687 27.6313C34.7046 27.4672 34.4821 27.375 34.25 27.375C34.0179 27.375 33.7954 27.4672 33.6313 27.6313C33.4672 27.7954 33.375 28.0179 33.375 28.25C33.375 28.4821 33.4672 28.7046 33.6313 28.8687C33.7954 29.0328 34.0179 29.125 34.25 29.125Z" fill="#18BC85"/>
<defs>
<linearGradient id="paint0_linear_638_3352" x1="29" y1="0.999997" x2="29" y2="59" gradientUnits="userSpaceOnUse">
<stop stop-color="#18BC85" stop-opacity="0.2"/>
<stop offset="1" stop-color="#18BC85" stop-opacity="0"/>
</linearGradient>
</defs>
</svg>
