<svg width="47" height="35" viewBox="0 0 47 35" fill="none" xmlns="http://www.w3.org/2000/svg">
<path d="M1.5 17.5C1.5 17.5 9.5 1.5 23.5 1.5C37.5 1.5 45.5 17.5 45.5 17.5C45.5 17.5 37.5 33.5 23.5 33.5C9.5 33.5 1.5 17.5 1.5 17.5Z" stroke="url(#paint0_linear_1062_2906)" stroke-width="3" stroke-linecap="round" stroke-linejoin="round"/>
<path d="M23.5 23.5C26.8137 23.5 29.5 20.8137 29.5 17.5C29.5 14.1863 26.8137 11.5 23.5 11.5C20.1863 11.5 17.5 14.1863 17.5 17.5C17.5 20.8137 20.1863 23.5 23.5 23.5Z" stroke="url(#paint1_linear_1062_2906)" stroke-width="3" stroke-linecap="round" stroke-linejoin="round"/>
<defs>
<linearGradient id="paint0_linear_1062_2906" x1="23.5" y1="1.5" x2="23.5" y2="33.5" gradientUnits="userSpaceOnUse">
<stop stop-color="#1B74F9"/>
<stop offset="1" stop-color="#0061F1"/>
</linearGradient>
<linearGradient id="paint1_linear_1062_2906" x1="23.5" y1="11.5" x2="23.5" y2="23.5" gradientUnits="userSpaceOnUse">
<stop stop-color="#1B74F9"/>
<stop offset="1" stop-color="#0061F1"/>
</linearGradient>
</defs>
</svg>
