<svg width="26" height="26" viewBox="0 0 26 26" fill="none" xmlns="http://www.w3.org/2000/svg">
<path d="M13 0C5.82098 0 0 5.82098 0 13C0 20.179 5.82098 26 13 26C20.179 26 26 20.179 26 13C26 5.82098 20.179 0 13 0ZM13.6471 19.3027L13.6529 20.2225C13.6529 20.3502 13.5484 20.4576 13.4208 20.4576H12.5967C12.469 20.4576 12.3645 20.3531 12.3645 20.2254V19.3143C9.78772 19.1228 8.57478 17.6545 8.4442 16.0585C8.43259 15.9221 8.53996 15.806 8.67634 15.806H10.017C10.1301 15.806 10.2288 15.8873 10.2462 15.9975C10.3942 16.9174 11.1109 17.6051 12.3964 17.7763V13.6355L11.6797 13.4527C10.1621 13.09 8.71696 12.144 8.71696 10.1824C8.71696 8.06696 10.3246 6.92946 12.379 6.72924V5.77165C12.379 5.64397 12.4835 5.53951 12.6112 5.53951H13.4266C13.5542 5.53951 13.6587 5.64397 13.6587 5.77165V6.72054C15.6464 6.92076 17.1379 8.08147 17.3121 9.88929C17.3266 10.0257 17.2192 10.1446 17.0799 10.1446H15.777C15.6609 10.1446 15.5623 10.0576 15.5478 9.94442C15.4317 9.0971 14.7527 8.40647 13.6471 8.25558V12.1527L14.3842 12.3239C16.2645 12.7882 17.5442 13.6877 17.5442 15.7016C17.5442 17.8866 15.9192 19.1054 13.6471 19.3027ZM10.5219 10.0489C10.5219 10.7859 10.9775 11.3576 11.9583 11.7116C12.0946 11.7667 12.231 11.8103 12.3935 11.8567V8.25848C11.3228 8.39487 10.5219 8.99553 10.5219 10.0489ZM13.9025 13.9721C13.8212 13.9547 13.74 13.9344 13.6471 13.9083V17.7879C14.8833 17.6777 15.7364 16.9987 15.7364 15.8612C15.7364 14.9703 15.275 14.39 13.9025 13.9721Z" fill="#66A3FF"/>
</svg>
