<svg width="26" height="26" viewBox="0 0 26 26" fill="none" xmlns="http://www.w3.org/2000/svg">
<path d="M7.2902 2.54614C8.51127 1.053 10.4009 0 13 0C14.5785 0 16.419 0.521856 17.8824 1.71878C19.2019 2.79871 20.1787 4.39956 20.3867 6.55291C21.6663 6.70613 22.9069 7.18713 23.8977 7.9532C25.1299 8.90405 25.9999 10.3201 25.9999 12.0714C26.0017 12.4895 25.9632 12.9068 25.8848 13.3175C24.8889 11.8927 23.4734 10.8138 21.8355 10.2312C20.1976 9.64867 18.4188 9.59138 16.7469 10.0673C15.0749 10.5433 13.5929 11.5288 12.5074 12.8867C11.4219 14.2445 10.7868 15.9071 10.6906 17.6428H6.49998C3.98635 17.6428 2.30749 16.8814 1.274 15.7012C0.263714 14.546 0 13.1346 0 12.0714C0 9.88369 1.79214 6.93641 5.62434 6.54363C5.78406 5.19163 6.31149 3.74306 7.2902 2.54614ZM25.9999 18.1071C25.9999 16.2601 25.2662 14.4887 23.9602 13.1826C22.6541 11.8766 20.8827 11.1428 19.0357 11.1428C17.1886 11.1428 15.4172 11.8766 14.1112 13.1826C12.8051 14.4887 12.0714 16.2601 12.0714 18.1071C12.0714 19.9541 12.8051 21.7255 14.1112 23.0316C15.4172 24.3376 17.1886 25.0714 19.0357 25.0714C20.8827 25.0714 22.6541 24.3376 23.9602 23.0316C25.2662 21.7255 25.9999 19.9541 25.9999 18.1071ZM22.5178 13.6964C22.7025 13.6964 22.8796 13.7698 23.0103 13.9004C23.1409 14.031 23.2142 14.2081 23.2142 14.3928V16.7142C23.2142 16.899 23.1409 17.0761 23.0103 17.2067C22.8796 17.3373 22.7025 17.4107 22.5178 17.4107H20.1964C20.0117 17.4107 19.8345 17.3373 19.7039 17.2067C19.5733 17.0761 19.5 16.899 19.5 16.7142C19.5 16.5295 19.5733 16.3524 19.7039 16.2218C19.8345 16.0912 20.0117 16.0178 20.1964 16.0178H20.878C20.3696 15.5683 19.7143 15.3205 19.0357 15.3214C18.1322 15.3214 17.3299 15.7513 16.821 16.4171C16.7572 16.5061 16.6738 16.5792 16.5771 16.6307C16.4805 16.6822 16.3733 16.7108 16.2639 16.7142C15.6937 16.7142 15.3019 16.145 15.6334 15.6798C16.0198 15.1378 16.5302 14.696 17.122 14.3913C17.7139 14.0867 18.37 13.928 19.0357 13.9285C20.1054 13.9285 21.0822 14.3306 21.8214 14.9927V14.3928C21.8214 14.2081 21.8948 14.031 22.0254 13.9004C22.156 13.7698 22.3331 13.6964 22.5178 13.6964ZM16.25 21.2215V21.5892C16.25 21.7739 16.1766 21.9511 16.046 22.0817C15.9154 22.2123 15.7382 22.2857 15.5535 22.2857C15.3688 22.2857 15.1917 22.2123 15.0611 22.0817C14.9305 21.9511 14.8571 21.7739 14.8571 21.5892V19.2678C14.8571 19.0831 14.9305 18.906 15.0611 18.7754C15.1917 18.6448 15.3688 18.5714 15.5535 18.5714H17.875C18.0597 18.5714 18.2368 18.6448 18.3674 18.7754C18.498 18.906 18.5714 19.0831 18.5714 19.2678C18.5714 19.4525 18.498 19.6297 18.3674 19.7603C18.2368 19.8909 18.0597 19.9642 17.875 19.9642H16.9594C17.2327 20.2703 17.5703 20.5122 17.948 20.6725C18.3257 20.8329 18.7342 20.9078 19.1442 20.8918C19.5543 20.8758 19.9557 20.7694 20.3198 20.5802C20.6839 20.3909 21.0016 20.1235 21.2503 19.7971C21.384 19.6207 21.5846 19.5 21.8065 19.5C22.3776 19.5 22.7694 20.0692 22.4379 20.5344C22.0516 21.0764 21.5412 21.5182 20.9493 21.8229C20.3575 22.1275 19.7013 22.2862 19.0357 22.2857C18.0076 22.2871 17.0153 21.9081 16.25 21.2215Z" fill="#A8AEBC"/>
</svg>
