<svg width="640" height="258" viewBox="0 0 640 258" fill="none" xmlns="http://www.w3.org/2000/svg">
<path d="M140.003 28.7118L141.657 20.3207L142.991 20.6782L141.979 25.4949L141.56 27.4836L141.666 27.5121L143.78 22.9275L145.221 23.3135L144.76 28.3411L144.866 28.3696L145.498 26.4378L147.029 21.7604L148.317 22.1053L145.553 30.1989L143.557 29.6642L144.075 24.8036L143.981 24.7783L141.999 29.2465L140.003 28.7118ZM147.296 30.666L149.505 22.4236L154.712 23.819L154.371 25.0943L150.71 24.1134L150.134 26.2626L153.665 27.2087L153.323 28.484L149.792 27.5379L149.185 29.8052L152.845 30.786L152.504 32.0614L147.296 30.666ZM156.55 24.3113L159.419 25.0802C160.199 25.289 160.744 25.6462 161.056 26.1516C161.378 26.6512 161.449 27.2356 161.27 27.9048C161.143 28.3771 160.924 28.7234 160.612 28.9435C160.307 29.1657 159.926 29.2829 159.467 29.2949L159.451 29.354C159.916 29.6049 160.247 29.9258 160.446 30.3167C160.655 30.7018 160.684 31.1777 160.532 31.7445C160.439 32.0909 160.296 32.39 160.102 32.6417C159.918 32.8877 159.692 33.0846 159.424 33.2323C159.165 33.3822 158.871 33.4721 158.542 33.5022C158.221 33.5343 157.876 33.5008 157.506 33.4017L154.341 32.5537L156.55 24.3113ZM157.334 32.1533C157.767 32.2693 158.111 32.2771 158.366 32.1766C158.631 32.0704 158.816 31.8204 158.921 31.4268L159.025 31.0371C159.129 30.6514 159.091 30.3502 158.913 30.1337C158.745 29.9115 158.444 29.7423 158.011 29.6263L156.83 29.3099L156.153 31.8369L157.334 32.1533ZM158.099 28.4979C158.516 28.6097 158.843 28.6172 159.08 28.5204C159.324 28.4256 159.496 28.1933 159.596 27.8233L159.7 27.4336C159.799 27.0636 159.766 26.7764 159.602 26.5719C159.445 26.3696 159.158 26.2126 158.741 26.1008L157.761 25.8382L157.118 28.2353L158.099 28.4979ZM166.173 31.9272L163.764 31.2817L162.815 34.8243L161.268 34.4098L163.477 26.1674L165.024 26.5819L164.106 30.0064L166.515 30.6519L167.433 27.2274L168.98 27.6419L166.771 35.8843L165.224 35.4698L166.173 31.9272ZM171.062 37.186C170.527 37.0425 170.088 36.8236 169.745 36.5292C169.404 36.2269 169.152 35.8599 168.989 35.4282C168.834 34.9986 168.765 34.5031 168.78 33.9419C168.803 33.3828 168.906 32.7648 169.087 32.0878C169.266 31.4186 169.486 30.8361 169.745 30.3403C170.015 29.8387 170.324 29.4406 170.673 29.146C171.029 28.8535 171.43 28.6655 171.874 28.582C172.321 28.4907 172.811 28.5167 173.347 28.6602C174.417 28.9471 175.104 29.5319 175.408 30.4148C175.711 31.2977 175.683 32.4122 175.322 33.7584C174.961 35.1046 174.429 36.0841 173.725 36.697C173.02 37.3099 172.133 37.4729 171.062 37.186ZM171.401 35.9225C171.676 35.9963 171.922 36.0074 172.139 35.9556C172.357 35.896 172.548 35.7826 172.711 35.6153C172.882 35.4502 173.029 35.2322 173.152 34.9615C173.285 34.6849 173.399 34.3696 173.494 34.0153L173.87 32.6101C174.06 31.9016 174.1 31.3131 173.989 30.8447C173.886 30.3783 173.559 30.0714 173.008 29.9237C172.457 29.776 172.017 29.8774 171.686 30.2277C171.364 30.5801 171.108 31.1105 170.918 31.8191L170.539 33.2361C170.349 33.9446 170.305 34.532 170.408 34.9983C170.519 35.4668 170.85 35.7748 171.401 35.9225ZM178.143 39.0832C177.607 38.9398 177.168 38.7208 176.825 38.4264C176.484 38.1242 176.233 37.7572 176.07 37.3254C175.915 36.8958 175.845 36.4004 175.861 35.8392C175.884 35.2801 175.986 34.662 176.168 33.985C176.347 33.3158 176.566 32.7334 176.826 32.2375C177.095 31.736 177.404 31.3379 177.753 31.0432C178.11 30.7507 178.511 30.5627 178.955 30.4793C179.401 30.3879 179.892 30.414 180.427 30.5574C181.498 30.8443 182.185 31.4292 182.488 32.312C182.792 33.1949 182.763 34.3095 182.403 35.6556C182.042 37.0018 181.509 37.9813 180.805 38.5942C180.101 39.2071 179.213 39.3701 178.143 39.0832ZM178.481 37.8197C178.757 37.8935 179.003 37.9046 179.219 37.8529C179.438 37.7933 179.628 37.6798 179.791 37.5126C179.962 37.3474 180.109 37.1294 180.232 36.8587C180.365 36.5822 180.48 36.2668 180.574 35.9125L180.951 34.5073C181.141 33.7988 181.18 33.2103 181.07 32.7419C180.967 32.2756 180.64 31.9686 180.089 31.8209C179.538 31.6733 179.097 31.7746 178.767 32.1249C178.445 32.4773 178.189 33.0078 177.999 33.7163L177.619 35.1333C177.429 35.8418 177.386 36.4292 177.489 36.8956C177.599 37.364 177.93 37.672 178.481 37.8197ZM185.958 37.1525L184.792 38.0552L184.128 40.535L182.581 40.1205L184.789 31.8781L186.336 32.2926L185.343 36.0005L185.414 36.0195L186.737 34.906L189.099 33.033L190.847 33.5013L187.331 36.2801L188.757 41.7753L187.009 41.307L185.958 37.1525ZM201.182 45.1046L201.163 42.8595L198.719 42.2045L197.592 44.1427L196.033 43.7251L200.556 36.1029L202.706 36.6787L202.823 45.5444L201.182 45.1046ZM201.235 37.9173L201.14 37.8919L199.329 41.0138L201.242 41.5263L201.235 37.9173ZM203.905 45.8343L206.114 37.5919L209.243 38.4304C210.046 38.6456 210.599 39.0384 210.901 39.6089C211.204 40.1794 211.25 40.8583 211.039 41.6455C210.828 42.4328 210.449 42.9977 209.902 43.3404C209.354 43.6831 208.679 43.7469 207.876 43.5317L206.294 43.1077L205.452 46.2488L203.905 45.8343ZM206.632 41.8442L207.896 42.1828C208.313 42.2946 208.634 42.2921 208.86 42.1753C209.087 42.0506 209.25 41.8032 209.35 41.4332L209.47 40.9845C209.569 40.6145 209.55 40.3226 209.413 40.1087C209.279 39.887 209.003 39.7203 208.585 39.6085L207.322 39.2699L206.632 41.8442ZM210.962 47.7252L211.272 46.568L213.126 47.0647L214.714 41.1368L212.86 40.64L213.171 39.4828L218.414 40.8877L218.103 42.0449L216.25 41.5481L214.661 47.4761L216.515 47.9728L216.205 49.1301L210.962 47.7252Z" fill="#E2E4E9"/>
<g filter="url(#filter0_d_615_5453)">
<rect x="137.143" y="36.3145" width="83.8296" height="26.1968" transform="rotate(15 137.143 36.3145)" fill="url(#paint0_linear_615_5453)" shape-rendering="crispEdges"/>
<path d="M203.019 66.7272C203.321 67.2492 203.142 67.9168 202.62 68.2182L194.112 73.1301C193.59 73.4315 192.923 73.2527 192.621 72.7306C192.32 72.2085 192.499 71.541 193.021 71.2395L200.583 66.8734L196.217 59.3111C195.915 58.789 196.094 58.1214 196.616 57.82C197.139 57.5186 197.806 57.6975 198.108 58.2195L203.019 66.7272ZM146.688 51.3021L202.357 66.2186L201.792 68.3273L146.123 53.4108L146.688 51.3021Z" fill="#66A3FF"/>
<rect x="137.143" y="36.3145" width="83.8296" height="26.1968" transform="rotate(15 137.143 36.3145)" stroke="#0061F1" stroke-opacity="0.5" stroke-width="1.73891" stroke-miterlimit="10" stroke-linejoin="round" shape-rendering="crispEdges"/>
</g>
<path d="M65.4908 60.5424C76.0055 66.6404 93.1219 66.6038 103.717 60.4618C114.312 54.3199 115.23 38.5001 104.715 32.3801C94.2003 26.2601 74.5627 27.1898 63.9679 33.3391C53.3731 39.4884 54.9689 54.437 65.4908 60.5424Z" fill="#6E798F"/>
<path d="M57.1642 42.7967C57.1101 34.1366 69.1693 27.0399 84.0992 26.9456C99.0291 26.8514 111.176 33.7953 111.23 42.4554C111.284 51.1154 99.2253 58.2121 84.2953 58.3064C69.3654 58.4006 57.2184 51.4567 57.1642 42.7967Z" fill="url(#paint1_linear_615_5453)"/>
<path d="M65.4908 47.5043C76.0055 53.6024 93.1219 53.5658 103.717 47.4238C114.312 41.2818 115.23 25.462 104.715 19.342C94.2003 13.222 74.5627 14.1517 63.9679 20.301C53.3731 26.4503 54.9689 41.3989 65.4908 47.5043Z" fill="#6E798F"/>
<path d="M57.1643 29.7576C57.1101 21.0976 69.1693 14.0008 84.0992 13.9066C99.0291 13.8123 111.176 20.7563 111.23 29.4163C111.284 38.0763 99.2253 45.1731 84.2953 45.2673C69.3654 45.3616 57.2184 38.4176 57.1643 29.7576Z" fill="url(#paint2_linear_615_5453)"/>
<path d="M65.4908 34.4598C76.0055 40.5652 93.1219 40.5285 103.717 34.3793C114.312 28.23 115.23 12.4175 104.715 6.29749C94.2003 0.177482 74.5627 1.11452 63.9679 7.25649C53.3731 13.3985 54.9689 28.3617 65.4908 34.4598Z" fill="#6E798F"/>
<path d="M56.8657 16.7176C56.8115 8.05752 68.8707 0.960771 83.8006 0.866526C98.7306 0.772281 110.878 7.71622 110.932 16.3763C110.986 25.0363 98.9267 32.133 83.9968 32.2273C69.0668 32.3215 56.9198 25.3776 56.8657 16.7176Z" fill="url(#paint3_linear_615_5453)"/>
<path d="M100.568 47.7026L101.617 47.095C101.782 46.976 101.918 46.8202 102.012 46.6399C102.107 46.4595 102.159 46.2594 102.164 46.0555V43.1858C102.164 42.7832 101.916 42.6001 101.617 42.7685L100.568 43.3834C100.403 43.5015 100.268 43.6573 100.174 43.838C100.08 44.0187 100.03 44.2192 100.029 44.423V47.2926C100.051 47.7026 100.269 47.849 100.568 47.7026Z" fill="url(#paint4_linear_615_5453)"/>
<path d="M100.568 34.5257L101.617 33.9181C101.784 33.8004 101.92 33.6449 102.015 33.4642C102.11 33.2835 102.161 33.0829 102.164 32.8786V30.0089C102.164 29.6063 101.916 29.4233 101.617 29.599L100.568 30.2066C100.404 30.3255 100.269 30.4815 100.176 30.662C100.082 30.8425 100.032 31.0426 100.029 31.2461V34.1158C100.051 34.5257 100.269 34.716 100.568 34.5257Z" fill="url(#paint5_linear_615_5453)"/>
<path d="M100.568 60.5717L101.617 59.9641C101.782 59.8452 101.918 59.6893 102.012 59.509C102.107 59.3286 102.159 59.1285 102.164 58.9246V56.0549C102.164 55.6523 101.916 55.4693 101.617 55.6376L100.568 56.2526C100.403 56.3707 100.268 56.5265 100.174 56.7072C100.08 56.8879 100.03 57.0883 100.029 57.2921V60.1471C100.051 60.5644 100.269 60.7474 100.568 60.5717Z" fill="url(#paint6_linear_615_5453)"/>
<path d="M107.875 174.244L104.574 164.575L106.168 164.148L107.997 169.736L108.752 172.044L108.879 172.01L108.328 166.004L110.049 165.542L112.575 171.019L112.702 170.985L112.201 168.609L110.992 162.855L112.53 162.443L114.505 172.468L112.121 173.106L109.753 167.769L109.64 167.799L110.259 173.605L107.875 174.244ZM116.587 171.91L113.949 162.063L120.17 160.396L120.578 161.92L116.205 163.092L116.893 165.659L121.111 164.529L121.519 166.052L117.301 167.182L118.027 169.891L122.4 168.719L122.808 170.243L116.587 171.91ZM122.365 159.808L125.793 158.89C126.724 158.64 127.502 158.684 128.126 159.02C128.757 159.345 129.18 159.907 129.394 160.707C129.546 161.271 129.525 161.76 129.334 162.174C129.152 162.586 128.827 162.935 128.36 163.221L128.379 163.292C129.009 163.274 129.544 163.408 129.983 163.694C130.429 163.967 130.743 164.443 130.925 165.12C131.035 165.533 131.066 165.928 131.015 166.305C130.972 166.669 130.856 167.008 130.668 167.32C130.489 167.63 130.238 167.899 129.916 168.126C129.603 168.351 129.226 168.523 128.784 168.641L125.003 169.654L122.365 159.808ZM127.861 167.453C128.378 167.314 128.738 167.117 128.942 166.86C129.152 166.592 129.194 166.223 129.068 165.753L128.944 165.288C128.82 164.827 128.602 164.538 128.288 164.42C127.981 164.291 127.569 164.295 127.052 164.434L125.641 164.812L126.45 167.831L127.861 167.453ZM126.468 163.214C126.966 163.081 127.309 162.893 127.496 162.651C127.693 162.407 127.732 162.064 127.614 161.622L127.489 161.157C127.371 160.715 127.165 160.437 126.873 160.324C126.59 160.208 126.199 160.217 125.701 160.351L124.53 160.664L125.297 163.528L126.468 163.214ZM136.87 161.939L133.992 162.71L135.126 166.942L133.278 167.437L130.64 157.591L132.488 157.096L133.584 161.187L136.462 160.415L135.366 156.325L137.214 155.829L139.852 165.676L138.004 166.171L136.87 161.939ZM145.069 164.459C144.43 164.631 143.844 164.667 143.314 164.567C142.781 164.458 142.301 164.228 141.875 163.879C141.458 163.527 141.09 163.056 140.77 162.466C140.46 161.874 140.197 161.174 139.98 160.365C139.766 159.565 139.645 158.832 139.617 158.164C139.597 157.484 139.679 156.887 139.864 156.374C140.058 155.858 140.36 155.425 140.77 155.073C141.177 154.712 141.701 154.446 142.34 154.274C143.619 153.932 144.679 154.126 145.52 154.859C146.362 155.591 146.998 156.761 147.429 158.369C147.86 159.977 147.894 161.309 147.531 162.363C147.169 163.418 146.348 164.117 145.069 164.459ZM144.665 162.95C144.994 162.862 145.255 162.726 145.448 162.544C145.638 162.351 145.768 162.12 145.836 161.85C145.914 161.577 145.936 161.264 145.902 160.91C145.875 160.544 145.804 160.15 145.691 159.727L145.241 158.048C145.014 157.202 144.704 156.569 144.309 156.151C143.924 155.73 143.403 155.607 142.744 155.784C142.086 155.96 141.691 156.328 141.559 156.888C141.436 157.445 141.488 158.147 141.714 158.993L142.168 160.686C142.395 161.532 142.701 162.166 143.086 162.587C143.48 163.005 144.006 163.126 144.665 162.95ZM153.528 162.193C152.888 162.364 152.303 162.4 151.772 162.3C151.239 162.191 150.759 161.962 150.333 161.613C149.916 161.261 149.548 160.79 149.229 160.2C148.919 159.608 148.656 158.907 148.439 158.098C148.225 157.299 148.104 156.565 148.076 155.897C148.055 155.218 148.137 154.621 148.322 154.108C148.517 153.592 148.819 153.158 149.228 152.807C149.636 152.446 150.159 152.179 150.798 152.008C152.077 151.665 153.138 151.86 153.979 152.592C154.82 153.324 155.456 154.494 155.887 156.103C156.318 157.711 156.352 159.042 155.99 160.097C155.627 161.151 154.807 161.85 153.528 162.193ZM153.123 160.683C153.452 160.595 153.713 160.46 153.906 160.277C154.097 160.085 154.226 159.854 154.295 159.583C154.373 159.31 154.395 158.997 154.361 158.643C154.333 158.278 154.263 157.883 154.149 157.46L153.7 155.782C153.473 154.935 153.162 154.303 152.768 153.884C152.383 153.463 151.861 153.341 151.203 153.517C150.545 153.694 150.149 154.062 150.017 154.621C149.894 155.178 149.946 155.88 150.173 156.727L150.626 158.419C150.853 159.266 151.159 159.899 151.544 160.32C151.938 160.739 152.465 160.86 153.123 160.683ZM160.46 155.528L159.793 157.158L160.586 160.12L158.738 160.615L156.1 150.769L157.948 150.274L159.135 154.703L159.22 154.68L159.924 152.738L161.249 149.389L163.337 148.83L161.359 153.805L166.116 158.638L164.028 159.198L160.46 155.528ZM180.959 154.661L179.599 152.349L176.679 153.132L176.671 155.81L174.809 156.309L174.935 145.722L177.503 145.034L182.92 154.136L180.959 154.661ZM176.721 147.194L176.608 147.224L176.599 151.536L178.884 150.923L176.721 147.194ZM184.213 153.789L181.574 143.943L185.312 142.941C186.272 142.684 187.078 142.761 187.732 143.17C188.386 143.579 188.839 144.254 189.091 145.195C189.343 146.135 189.288 146.946 188.927 147.628C188.565 148.309 187.905 148.778 186.945 149.035L185.055 149.542L186.061 153.294L184.213 153.789ZM184.651 148.033L186.16 147.628C186.658 147.495 186.989 147.3 187.153 147.045C187.314 146.78 187.335 146.426 187.216 145.984L187.073 145.448C186.954 145.006 186.76 144.715 186.491 144.576C186.22 144.427 185.834 144.419 185.336 144.553L183.827 144.957L184.651 148.033ZM192.643 151.531L192.272 150.148L194.487 149.555L192.59 142.473L190.375 143.067L190.004 141.684L196.268 140.006L196.638 141.388L194.423 141.982L196.321 149.063L198.536 148.47L198.906 149.852L192.643 151.531Z" fill="#E2E4E9"/>
<g filter="url(#filter1_d_615_5453)">
<rect x="110.19" y="184.142" width="100.143" height="31.2948" transform="rotate(-15 110.19 184.142)" fill="url(#paint7_linear_615_5453)" shape-rendering="crispEdges"/>
<path d="M196.508 176.258C197.132 176.618 197.345 177.415 196.985 178.039L191.118 188.202C190.757 188.826 189.96 189.039 189.336 188.679C188.713 188.319 188.499 187.522 188.859 186.898L194.075 177.864L185.041 172.648C184.417 172.288 184.203 171.491 184.564 170.867C184.924 170.243 185.721 170.03 186.345 170.39L196.508 176.258ZM129.016 193.947L195.519 176.127L196.194 178.646L129.691 196.466L129.016 193.947Z" fill="#004DBF"/>
<rect x="110.19" y="184.142" width="100.143" height="31.2948" transform="rotate(-15 110.19 184.142)" stroke="#0061F1" stroke-opacity="0.5" stroke-width="2.07731" stroke-miterlimit="10" stroke-linejoin="round" shape-rendering="crispEdges"/>
</g>
<path d="M30.2838 235.492C42.8447 242.777 63.2921 242.733 75.9487 235.396C88.6053 228.059 89.7021 209.161 77.1412 201.85C64.5804 194.539 41.1212 195.649 28.4646 202.995C15.8079 210.341 17.7143 228.199 30.2838 235.492Z" fill="#6E798F"/>
<path d="M20.3375 214.294C20.2728 203.949 34.6788 195.471 52.5141 195.358C70.3495 195.246 84.8604 203.541 84.9251 213.886C84.9898 224.232 70.5838 232.709 52.7484 232.822C34.9131 232.935 20.4022 224.639 20.3375 214.294Z" fill="url(#paint8_linear_615_5453)"/>
<path d="M30.2838 219.918C42.8447 227.203 63.2921 227.159 75.9487 219.822C88.6053 212.485 89.7021 193.586 77.1412 186.275C64.5804 178.964 41.1212 180.075 28.4646 187.421C15.8079 194.767 17.7143 212.625 30.2838 219.918Z" fill="#6E798F"/>
<path d="M20.3375 198.717C20.2728 188.372 34.6788 179.894 52.5141 179.781C70.3495 179.669 84.8604 187.964 84.9251 198.309C84.9898 208.654 70.5838 217.132 52.7484 217.245C34.9131 217.357 20.4022 209.062 20.3375 198.717Z" fill="url(#paint9_linear_615_5453)"/>
<path d="M30.2838 204.334C42.8447 211.628 63.2921 211.584 75.9487 204.238C88.6053 196.892 89.7021 178.002 77.1412 170.691C64.5804 163.38 41.1212 164.5 28.4646 171.837C15.8079 179.174 17.7143 197.049 30.2838 204.334Z" fill="#6E798F"/>
<path d="M19.9806 183.14C19.9159 172.794 34.3219 164.317 52.1572 164.204C69.9926 164.091 84.5034 172.387 84.5682 182.732C84.6329 193.077 70.2269 201.555 52.3915 201.668C34.5562 201.78 20.0453 193.485 19.9806 183.14Z" fill="url(#paint10_linear_615_5453)"/>
<path d="M72.1877 220.153L73.4411 219.428C73.6382 219.286 73.7998 219.099 73.9131 218.884C74.0264 218.668 74.0883 218.429 74.094 218.186V214.758C74.094 214.277 73.798 214.058 73.4411 214.259L72.1877 214.994C71.9902 215.135 71.8289 215.321 71.7169 215.537C71.6049 215.753 71.5455 215.992 71.5435 216.236V219.664C71.5696 220.153 71.8308 220.328 72.1877 220.153Z" fill="url(#paint11_linear_615_5453)"/>
<path d="M72.1877 204.412L73.4411 203.686C73.6397 203.545 73.8024 203.359 73.9158 203.143C74.0293 202.928 74.0903 202.688 74.094 202.444V199.016C74.094 198.535 73.798 198.316 73.4411 198.526L72.1877 199.252C71.9912 199.394 71.8306 199.58 71.7188 199.796C71.6069 200.012 71.5469 200.251 71.5435 200.494V203.922C71.5696 204.412 71.8308 204.639 72.1877 204.412Z" fill="url(#paint12_linear_615_5453)"/>
<path d="M72.1877 235.527L73.4411 234.802C73.6382 234.66 73.7998 234.473 73.9131 234.258C74.0264 234.042 74.0883 233.803 74.094 233.56V230.132C74.094 229.651 73.798 229.432 73.4411 229.633L72.1877 230.368C71.9902 230.509 71.8289 230.695 71.7169 230.911C71.6049 231.127 71.5455 231.366 71.5435 231.61V235.02C71.5696 235.519 71.8308 235.737 72.1877 235.527Z" fill="url(#paint13_linear_615_5453)"/>
<path fill-rule="evenodd" clip-rule="evenodd" d="M311.181 86.7672C309.691 85.7871 307.908 85.2168 305.991 85.2168C301.131 85.2168 297.127 88.8836 296.595 93.6018C290.54 94.0222 285.759 99.0669 285.759 105.228C285.759 106.464 285.951 107.654 286.308 108.772C282.11 110.535 279.162 114.684 279.162 119.522C279.162 123.651 281.309 127.278 284.547 129.349C283.032 131.316 282.131 133.78 282.131 136.455C282.131 142.892 287.349 148.11 293.786 148.11C293.968 148.11 294.149 148.105 294.328 148.097C296.444 151.035 299.895 152.947 303.792 152.947C306.597 152.947 309.17 151.957 311.181 150.306V150.225H311.653V87.1982L311.181 87.214V86.7672Z" fill="url(#paint14_linear_615_5453)"/>
<path fill-rule="evenodd" clip-rule="evenodd" d="M318.933 86.7672C320.423 85.7871 322.206 85.2168 324.123 85.2168C328.983 85.2168 332.987 88.8836 333.519 93.6018C339.574 94.0223 344.355 99.067 344.355 105.228C344.355 106.464 344.162 107.654 343.806 108.772C348.004 110.534 350.952 114.684 350.952 119.522C350.952 123.651 348.805 127.278 345.567 129.349C347.082 131.316 347.983 133.78 347.983 136.455C347.983 142.892 342.765 148.11 336.328 148.11C336.147 148.11 335.966 148.105 335.786 148.097C333.67 151.035 330.22 152.947 326.323 152.947C323.518 152.947 320.944 151.957 318.933 150.306V150.225H318.461V87.1982L318.933 87.214V86.7672Z" fill="url(#paint15_linear_615_5453)"/>
<path d="M383.38 140.966C378.288 156.863 367.813 170.487 353.757 179.491C339.702 188.495 322.947 192.317 306.377 190.297C289.807 188.278 274.46 180.543 262.979 168.427C251.498 156.31 244.602 140.569 243.477 123.914C242.353 107.26 247.071 90.7346 256.819 77.1845C266.567 63.6343 280.735 53.9074 296.883 49.6788C313.031 45.4503 330.148 46.9848 345.286 54.0181C360.424 61.0515 372.636 73.1433 379.819 88.2113L375.881 90.0883C369.135 75.9365 357.666 64.5799 343.448 57.9742C329.23 51.3685 313.154 49.9273 297.988 53.8988C282.822 57.8702 269.516 67.0057 260.36 79.7319C251.205 92.4582 246.773 107.979 247.83 123.62C248.886 139.262 255.363 154.046 266.146 165.426C276.929 176.806 291.343 184.07 306.905 185.967C322.467 187.864 338.203 184.275 351.404 175.818C364.605 167.361 374.444 154.566 379.226 139.636L383.38 140.966Z" fill="url(#paint16_linear_615_5453)"/>
<path fill-rule="evenodd" clip-rule="evenodd" d="M365.764 111.643C365.322 111.233 365.139 110.602 365.354 110.042C365.641 109.267 365.986 108.518 366.376 107.808L366.683 107.281C367.112 106.565 367.594 105.888 368.121 105.246C368.512 104.781 369.144 104.619 369.717 104.803L373.343 105.959C374.216 105.286 375.238 104.726 376.208 104.301L377.022 100.583C377.152 99.9919 377.608 99.5225 378.207 99.4229C379.106 99.2725 380.03 99.1943 380.974 99.1943C381.918 99.1943 382.843 99.2725 383.741 99.4229C384.34 99.5225 384.796 99.9919 384.926 100.583L385.74 104.301C386.769 104.726 387.733 105.286 388.605 105.959L392.229 104.803C392.805 104.619 393.44 104.781 393.825 105.246C394.353 105.888 394.835 106.565 395.265 107.281L395.569 107.808C395.964 108.518 396.308 109.267 396.597 110.042C396.808 110.608 396.63 111.233 396.183 111.643L393.367 114.209C393.438 114.749 393.475 115.303 393.475 115.863C393.475 116.423 393.438 116.976 393.367 117.516L396.183 120.082C396.63 120.492 396.808 121.124 396.597 121.684C396.308 122.458 395.965 123.207 395.569 123.917L395.265 124.444C394.835 125.16 394.353 125.838 393.825 126.482C393.44 126.944 392.805 127.107 392.229 126.925L388.605 125.766C387.733 126.437 386.769 126.997 385.74 127.426L384.926 131.144C384.796 131.73 384.34 132.147 383.741 132.303C382.843 132.453 381.918 132.531 381.033 132.531C380.03 132.531 379.106 132.453 378.207 132.303C377.608 132.147 377.152 131.73 377.022 131.144L376.208 127.426C375.238 126.997 374.216 126.437 373.343 125.766L369.717 126.925C369.144 127.107 368.512 126.944 368.121 126.482C367.594 125.838 367.112 125.16 366.683 124.444L366.376 123.917C365.986 123.207 365.641 122.458 365.354 121.684C365.139 121.124 365.322 120.492 365.764 120.082L368.584 117.516C368.512 116.976 368.473 116.423 368.473 115.863C368.473 115.303 368.512 114.749 368.584 114.209L365.764 111.643ZM380.975 123.225C376.909 123.225 373.613 119.929 373.613 115.863C373.613 111.797 376.909 108.501 380.975 108.501C385.041 108.501 388.337 111.797 388.337 115.863C388.337 119.929 385.041 123.225 380.975 123.225Z" fill="url(#paint17_linear_615_5453)"/>
<path d="M420.558 49.9968L417.795 41.9031L419.129 41.5455L420.661 46.223L421.293 48.1547L421.399 48.1263L420.938 43.0987L422.378 42.7127L424.493 47.2973L424.599 47.2688L424.18 45.2801L423.168 40.4634L424.455 40.1185L426.108 48.5096L424.113 49.0444L422.131 44.5762L422.036 44.6015L422.554 49.462L420.558 49.9968ZM427.852 48.0426L425.643 39.8002L430.851 38.4048L431.192 39.6802L427.532 40.661L428.108 42.8102L431.638 41.8641L431.98 43.1394L428.449 44.0855L429.057 46.3528L432.717 45.3719L433.059 46.6472L427.852 48.0426ZM432.688 37.9125L435.558 37.1436C436.337 36.9348 436.988 36.9712 437.511 37.2531C438.039 37.5249 438.393 37.9954 438.572 38.6646C438.699 39.1369 438.682 39.5464 438.522 39.8931C438.37 40.2377 438.098 40.5299 437.706 40.7698L437.722 40.8288C438.25 40.814 438.697 40.9261 439.065 41.165C439.439 41.394 439.701 41.7919 439.853 42.3587C439.946 42.7051 439.971 43.0358 439.929 43.3509C439.893 43.6559 439.796 43.9393 439.638 44.2009C439.488 44.4605 439.279 44.6854 439.009 44.8758C438.747 45.064 438.431 45.2077 438.061 45.3069L434.897 46.1549L432.688 37.9125ZM437.288 44.3116C437.721 44.1956 438.023 44.0304 438.193 43.816C438.37 43.5916 438.405 43.2826 438.299 42.889L438.195 42.4993C438.092 42.1136 437.909 41.8715 437.646 41.7731C437.389 41.6647 437.044 41.6686 436.611 41.7846L435.43 42.101L436.108 44.628L437.288 44.3116ZM436.123 40.7638C436.54 40.652 436.827 40.4949 436.984 40.2926C437.148 40.0882 437.181 39.801 437.082 39.431L436.977 39.0413C436.878 38.6713 436.706 38.4389 436.462 38.3442C436.225 38.2474 435.898 38.2549 435.48 38.3667L434.5 38.6293L435.143 41.0264L436.123 40.7638ZM444.83 39.6962L442.421 40.3417L443.371 43.8843L441.824 44.2988L439.615 36.0564L441.162 35.6419L442.08 39.0664L444.489 38.4209L443.571 34.9964L445.118 34.5819L447.326 42.8243L445.78 43.2388L444.83 39.6962ZM451.694 41.806C451.158 41.9494 450.668 41.9794 450.224 41.896C449.778 41.8046 449.376 41.6127 449.019 41.3202C448.671 41.0255 448.362 40.6314 448.095 40.1377C447.836 39.6419 447.615 39.0555 447.434 38.3784C447.255 37.7093 447.153 37.0952 447.13 36.5361C447.113 35.967 447.181 35.4676 447.336 35.038C447.499 34.6063 447.752 34.2432 448.095 33.9488C448.436 33.6465 448.874 33.4236 449.409 33.2802C450.48 32.9933 451.367 33.1563 452.071 33.7692C452.776 34.3821 453.308 35.3616 453.669 36.7078C454.03 38.054 454.058 39.1685 453.755 40.0514C453.451 40.9343 452.764 41.5191 451.694 41.806ZM451.355 40.5425C451.631 40.4687 451.849 40.3553 452.011 40.2023C452.17 40.0415 452.278 39.8479 452.336 39.6215C452.401 39.3931 452.42 39.1308 452.391 38.8348C452.368 38.5287 452.309 38.1986 452.214 37.8443L451.838 36.4391C451.648 35.7306 451.388 35.2012 451.058 34.8509C450.735 34.4984 450.299 34.3961 449.748 34.5437C449.197 34.6914 448.866 34.9994 448.755 35.4679C448.652 35.9342 448.696 36.5216 448.885 37.2301L449.265 38.6471C449.455 39.3556 449.711 39.8861 450.033 40.2385C450.363 40.5888 450.804 40.6901 451.355 40.5425ZM458.774 39.9088C458.239 40.0522 457.749 40.0822 457.305 39.9987C456.858 39.9074 456.457 39.7155 456.1 39.423C455.751 39.1283 455.443 38.7342 455.176 38.2405C454.916 37.7446 454.696 37.1582 454.514 36.4812C454.335 35.812 454.234 35.1979 454.211 34.6388C454.193 34.0698 454.262 33.5704 454.417 33.1408C454.579 32.709 454.832 32.346 455.175 32.0516C455.516 31.7493 455.954 31.5264 456.49 31.383C457.56 31.0961 458.448 31.2591 459.152 31.872C459.856 32.4848 460.389 33.4644 460.749 34.8106C461.11 36.1567 461.139 37.2713 460.835 38.1541C460.532 39.037 459.845 39.6219 458.774 39.9088ZM458.436 38.6453C458.711 38.5714 458.93 38.458 459.091 38.3051C459.251 38.1442 459.359 37.9506 459.416 37.7243C459.482 37.4958 459.5 37.2336 459.471 36.9375C459.449 36.6315 459.39 36.3013 459.295 35.9471L458.918 34.5419C458.728 33.8333 458.468 33.3039 458.138 32.9536C457.816 32.6012 457.379 32.4988 456.828 32.6465C456.277 32.7942 455.946 33.1022 455.836 33.5706C455.733 34.0369 455.776 34.6244 455.966 35.3329L456.346 36.7499C456.536 37.4584 456.792 37.9889 457.114 38.3413C457.444 38.6916 457.885 38.7929 458.436 38.6453ZM464.577 34.3292L464.019 35.6938L464.683 38.1736L463.136 38.5881L460.928 30.3457L462.475 29.9312L463.468 33.6391L463.539 33.6201L464.128 31.994L465.238 29.1908L466.985 28.7225L465.33 32.8872L469.312 36.9333L467.564 37.4016L464.577 34.3292ZM481.737 33.604L480.599 31.6689L478.154 32.3238L478.147 34.5658L476.589 34.9835L476.695 26.1209L478.844 25.5451L483.379 33.1641L481.737 33.604ZM478.189 27.3531L478.095 27.3785L478.087 30.9875L480 30.475L478.189 27.3531ZM484.46 32.8743L482.252 24.6319L485.381 23.7934C486.184 23.5782 486.859 23.642 487.407 23.9847C487.954 24.3274 488.334 24.8923 488.544 25.6796C488.755 26.4668 488.709 27.1457 488.407 27.7162C488.104 28.2867 487.551 28.6795 486.748 28.8947L485.166 29.3187L486.007 32.4598L484.46 32.8743ZM484.827 28.0552L486.091 27.7166C486.508 27.6048 486.785 27.442 486.922 27.2282C487.056 27.0065 487.074 26.7106 486.975 26.3406L486.855 25.8919C486.756 25.5219 486.593 25.2785 486.368 25.1617C486.141 25.037 485.818 25.0305 485.401 25.1423L484.137 25.4809L484.827 28.0552ZM491.517 30.9834L491.207 29.8261L493.061 29.3294L491.473 23.4015L489.619 23.8982L489.309 22.741L494.552 21.3361L494.862 22.4934L493.008 22.9901L494.596 28.918L496.45 28.4213L496.76 29.5785L491.517 30.9834Z" fill="#E2E4E9"/>
<g filter="url(#filter2_d_615_5453)">
<rect width="83.8296" height="26.1968" transform="matrix(-0.965926 0.258819 0.258819 0.965926 502.856 36.3145)" fill="url(#paint18_linear_615_5453)" shape-rendering="crispEdges"/>
<path d="M436.98 66.7272C436.679 67.2492 436.858 67.9168 437.38 68.2182L445.887 73.1301C446.409 73.4315 447.077 73.2527 447.378 72.7306C447.68 72.2085 447.501 71.541 446.979 71.2395L439.416 66.8734L443.783 59.3111C444.084 58.789 443.905 58.1214 443.383 57.82C442.861 57.5186 442.193 57.6975 441.892 58.2195L436.98 66.7272ZM493.312 51.3021L437.643 66.2186L438.208 68.3273L493.877 53.4108L493.312 51.3021Z" fill="#66A3FF"/>
<rect width="83.8296" height="26.1968" transform="matrix(-0.965926 0.258819 0.258819 0.965926 502.856 36.3145)" stroke="#0061F1" stroke-opacity="0.5" stroke-width="1.73891" stroke-miterlimit="10" stroke-linejoin="round" shape-rendering="crispEdges"/>
</g>
<path d="M574.509 60.5424C563.994 66.6404 546.878 66.6038 536.283 60.4618C525.688 54.3199 524.77 38.5001 535.285 32.3801C545.799 26.2601 565.437 27.1898 576.032 33.3391C586.626 39.4884 585.031 54.437 574.509 60.5424Z" fill="#6E798F"/>
<path d="M582.835 42.7967C582.889 34.1366 570.83 27.0399 555.9 26.9456C540.97 26.8514 528.823 33.7953 528.769 42.4554C528.715 51.1154 540.774 58.2121 555.704 58.3064C570.634 58.4006 582.781 51.4567 582.835 42.7967Z" fill="url(#paint19_linear_615_5453)"/>
<path d="M574.509 47.5043C563.994 53.6024 546.878 53.5658 536.283 47.4238C525.688 41.2818 524.77 25.462 535.285 19.342C545.799 13.222 565.437 14.1517 576.032 20.301C586.626 26.4503 585.031 41.3989 574.509 47.5043Z" fill="#6E798F"/>
<path d="M582.835 29.7576C582.889 21.0976 570.83 14.0008 555.9 13.9066C540.97 13.8123 528.823 20.7563 528.769 29.4163C528.715 38.0763 540.774 45.1731 555.704 45.2673C570.634 45.3616 582.781 38.4176 582.835 29.7576Z" fill="url(#paint20_linear_615_5453)"/>
<path d="M574.509 34.4598C563.994 40.5652 546.878 40.5285 536.283 34.3793C525.688 28.23 524.77 12.4175 535.285 6.29749C545.799 0.177482 565.437 1.11452 576.032 7.25649C586.626 13.3985 585.031 28.3617 574.509 34.4598Z" fill="#6E798F"/>
<path d="M583.134 16.7176C583.188 8.05752 571.129 0.960771 556.199 0.866526C541.269 0.772281 529.122 7.71622 529.068 16.3763C529.014 25.0363 541.073 32.133 556.003 32.2273C570.933 32.3215 583.08 25.3776 583.134 16.7176Z" fill="url(#paint21_linear_615_5453)"/>
<path d="M539.431 47.7026L538.382 47.095C538.217 46.976 538.082 46.8202 537.987 46.6399C537.892 46.4595 537.84 46.2594 537.836 46.0555V43.1858C537.836 42.7832 538.083 42.6001 538.382 42.7685L539.431 43.3834C539.597 43.5015 539.732 43.6573 539.826 43.838C539.919 44.0187 539.969 44.2192 539.971 44.423V47.2926C539.949 47.7026 539.73 47.849 539.431 47.7026Z" fill="url(#paint22_linear_615_5453)"/>
<path d="M539.431 34.5257L538.382 33.9181C538.216 33.8004 538.08 33.6449 537.985 33.4642C537.89 33.2835 537.839 33.0829 537.836 32.8786V30.0089C537.836 29.6063 538.083 29.4233 538.382 29.599L539.431 30.2066C539.596 30.3255 539.73 30.4815 539.824 30.662C539.918 30.8425 539.968 31.0426 539.971 31.2461V34.1158C539.949 34.5257 539.73 34.716 539.431 34.5257Z" fill="url(#paint23_linear_615_5453)"/>
<path d="M539.431 60.5717L538.382 59.9641C538.217 59.8452 538.082 59.6893 537.987 59.509C537.892 59.3286 537.84 59.1285 537.836 58.9246V56.0549C537.836 55.6523 538.083 55.4693 538.382 55.6376L539.431 56.2526C539.597 56.3707 539.732 56.5265 539.826 56.7072C539.919 56.8879 539.969 57.0883 539.971 57.2921V60.1471C539.949 60.5644 539.73 60.7474 539.431 60.5717Z" fill="url(#paint24_linear_615_5453)"/>
<path d="M436.583 148.817L438.558 138.792L440.152 139.22L438.943 144.974L438.442 147.349L438.569 147.383L441.095 141.907L442.816 142.368L442.265 148.374L442.392 148.408L443.147 146.1L444.976 140.512L446.514 140.924L443.213 150.593L440.829 149.954L441.447 144.148L441.334 144.118L438.967 149.455L436.583 148.817ZM445.295 151.151L447.933 141.305L454.154 142.971L453.746 144.495L449.373 143.323L448.685 145.891L452.903 147.021L452.495 148.544L448.277 147.414L447.551 150.123L451.924 151.294L451.516 152.818L445.295 151.151ZM456.349 143.56L459.777 144.478C460.708 144.728 461.36 145.154 461.732 145.758C462.117 146.355 462.202 147.053 461.988 147.852C461.837 148.417 461.575 148.83 461.202 149.093C460.838 149.359 460.382 149.499 459.834 149.513L459.815 149.584C460.37 149.883 460.766 150.267 461.004 150.734C461.254 151.194 461.288 151.762 461.106 152.439C460.996 152.853 460.824 153.21 460.592 153.511C460.373 153.805 460.103 154.04 459.783 154.217C459.473 154.396 459.122 154.503 458.729 154.539C458.346 154.578 457.934 154.538 457.492 154.419L453.711 153.406L456.349 143.56ZM457.286 152.928C457.804 153.066 458.214 153.076 458.519 152.956C458.835 152.829 459.056 152.53 459.182 152.06L459.307 151.594C459.43 151.134 459.386 150.774 459.173 150.515C458.972 150.25 458.613 150.048 458.095 149.909L456.685 149.531L455.876 152.55L457.286 152.928ZM458.199 148.561C458.698 148.695 459.089 148.703 459.372 148.588C459.664 148.475 459.869 148.197 459.988 147.755L460.113 147.29C460.231 146.847 460.192 146.504 459.995 146.26C459.808 146.019 459.465 145.831 458.967 145.697L457.796 145.384L457.029 148.247L458.199 148.561ZM467.846 152.658L464.968 151.887L463.834 156.119L461.986 155.623L464.624 145.777L466.472 146.272L465.376 150.363L468.254 151.134L469.35 147.043L471.198 147.538L468.56 157.385L466.712 156.89L467.846 152.658ZM473.686 158.94C473.047 158.768 472.522 158.507 472.112 158.155C471.705 157.794 471.404 157.356 471.21 156.84C471.025 156.327 470.941 155.735 470.96 155.064C470.987 154.397 471.11 153.658 471.326 152.849C471.541 152.05 471.803 151.354 472.113 150.762C472.434 150.163 472.804 149.687 473.221 149.335C473.647 148.986 474.125 148.761 474.656 148.661C475.189 148.552 475.776 148.583 476.415 148.755C477.694 149.098 478.515 149.796 478.877 150.851C479.24 151.906 479.206 153.237 478.775 154.845C478.344 156.453 477.708 157.623 476.866 158.356C476.025 159.088 474.965 159.282 473.686 158.94ZM474.09 157.43C474.42 157.519 474.713 157.532 474.972 157.47C475.233 157.399 475.461 157.263 475.655 157.063C475.859 156.866 476.035 156.606 476.182 156.282C476.341 155.952 476.477 155.575 476.591 155.152L477.041 153.473C477.267 152.627 477.315 151.924 477.182 151.364C477.06 150.807 476.669 150.441 476.011 150.264C475.352 150.088 474.826 150.209 474.432 150.627C474.047 151.048 473.741 151.682 473.514 152.528L473.06 154.221C472.834 155.068 472.782 155.769 472.905 156.326C473.037 156.886 473.432 157.254 474.09 157.43ZM482.144 161.206C481.505 161.035 480.98 160.773 480.571 160.422C480.163 160.061 479.863 159.622 479.668 159.106C479.483 158.593 479.4 158.001 479.418 157.331C479.446 156.663 479.568 155.925 479.785 155.116C479.999 154.316 480.261 153.621 480.571 153.028C480.893 152.429 481.262 151.954 481.679 151.602C482.105 151.252 482.584 151.028 483.114 150.928C483.648 150.819 484.234 150.85 484.874 151.021C486.153 151.364 486.973 152.063 487.336 153.117C487.698 154.172 487.664 155.503 487.233 157.112C486.802 158.72 486.166 159.89 485.325 160.622C484.484 161.354 483.423 161.549 482.144 161.206ZM482.549 159.697C482.878 159.785 483.172 159.798 483.43 159.736C483.691 159.665 483.919 159.53 484.114 159.33C484.318 159.133 484.493 158.872 484.641 158.549C484.8 158.218 484.936 157.842 485.049 157.419L485.499 155.74C485.726 154.893 485.773 154.19 485.641 153.631C485.518 153.074 485.127 152.707 484.469 152.531C483.811 152.354 483.284 152.475 482.89 152.894C482.505 153.315 482.199 153.948 481.972 154.795L481.519 156.488C481.292 157.334 481.24 158.036 481.363 158.593C481.495 159.152 481.891 159.52 482.549 159.697ZM491.48 158.9L490.088 159.978L489.294 162.941L487.446 162.445L490.084 152.599L491.932 153.094L490.746 157.524L490.83 157.546L492.411 156.216L495.233 153.979L497.321 154.538L493.12 157.858L494.824 164.422L492.736 163.863L491.48 158.9ZM509.667 168.399L509.645 165.717L506.725 164.935L505.379 167.25L503.517 166.751L508.92 157.646L511.487 158.334L511.628 168.925L509.667 168.399ZM509.73 159.813L509.617 159.783L507.454 163.512L509.739 164.125L509.73 159.813ZM512.92 169.271L515.559 159.425L519.297 160.426C520.256 160.683 520.916 161.153 521.278 161.834C521.64 162.516 521.695 163.327 521.443 164.267C521.191 165.208 520.738 165.883 520.084 166.292C519.43 166.701 518.623 166.777 517.664 166.52L515.774 166.014L514.768 169.766L512.92 169.271ZM516.178 164.505L517.687 164.909C518.186 165.043 518.57 165.04 518.839 164.9C519.111 164.751 519.306 164.456 519.424 164.014L519.568 163.478C519.686 163.036 519.664 162.687 519.5 162.431C519.34 162.166 519.01 161.967 518.511 161.834L517.002 161.429L516.178 164.505ZM521.35 171.53L521.721 170.148L523.936 170.741L525.833 163.659L523.618 163.066L523.989 161.684L530.252 163.362L529.882 164.744L527.667 164.151L525.769 171.232L527.984 171.826L527.614 173.208L521.35 171.53Z" fill="#E2E4E9"/>
<g filter="url(#filter3_d_615_5453)">
<rect width="100.143" height="31.2948" transform="matrix(-0.965926 -0.258819 -0.258819 0.965926 529.81 184.142)" fill="url(#paint25_linear_615_5453)" shape-rendering="crispEdges"/>
<path d="M443.492 176.258C442.868 176.618 442.655 177.415 443.015 178.039L448.882 188.202C449.243 188.826 450.04 189.039 450.664 188.679C451.287 188.319 451.501 187.522 451.141 186.898L445.925 177.864L454.959 172.648C455.583 172.288 455.797 171.491 455.436 170.867C455.076 170.243 454.279 170.03 453.655 170.39L443.492 176.258ZM510.984 193.947L444.481 176.127L443.806 178.646L510.309 196.466L510.984 193.947Z" fill="#66A3FF"/>
<rect width="100.143" height="31.2948" transform="matrix(-0.965926 -0.258819 -0.258819 0.965926 529.81 184.142)" stroke="#0061F1" stroke-opacity="0.5" stroke-width="2.07731" stroke-miterlimit="10" stroke-linejoin="round" shape-rendering="crispEdges"/>
</g>
<path d="M609.716 235.492C597.155 242.777 576.708 242.733 564.051 235.396C551.395 228.059 550.298 209.161 562.859 201.85C575.42 194.539 598.879 195.649 611.535 202.995C624.192 210.341 622.286 228.199 609.716 235.492Z" fill="#6E798F"/>
<path d="M619.662 214.294C619.727 203.949 605.321 195.471 587.486 195.358C569.65 195.246 555.14 203.541 555.075 213.886C555.01 224.232 569.416 232.709 587.252 232.822C605.087 232.935 619.598 224.639 619.662 214.294Z" fill="url(#paint26_linear_615_5453)"/>
<path d="M609.716 219.918C597.155 227.203 576.708 227.159 564.051 219.822C551.395 212.485 550.298 193.586 562.859 186.275C575.42 178.964 598.879 180.075 611.535 187.421C624.192 194.767 622.286 212.625 609.716 219.918Z" fill="#6E798F"/>
<path d="M619.662 198.717C619.727 188.372 605.321 179.894 587.486 179.781C569.65 179.669 555.14 187.964 555.075 198.309C555.01 208.654 569.416 217.132 587.252 217.245C605.087 217.357 619.598 209.062 619.662 198.717Z" fill="url(#paint27_linear_615_5453)"/>
<path d="M609.716 204.334C597.155 211.628 576.708 211.584 564.051 204.238C551.395 196.892 550.298 178.002 562.859 170.691C575.42 163.38 598.879 164.5 611.535 171.837C624.192 179.174 622.286 197.049 609.716 204.334Z" fill="#6E798F"/>
<path d="M620.019 183.14C620.084 172.794 605.678 164.317 587.843 164.204C570.007 164.091 555.497 172.387 555.432 182.732C555.367 193.077 569.773 201.555 587.608 201.668C605.444 201.78 619.955 193.485 620.019 183.14Z" fill="url(#paint28_linear_615_5453)"/>
<path d="M567.812 220.153L566.559 219.428C566.362 219.286 566.2 219.099 566.087 218.884C565.974 218.668 565.912 218.429 565.906 218.186V214.758C565.906 214.277 566.202 214.058 566.559 214.259L567.812 214.994C568.01 215.135 568.171 215.321 568.283 215.537C568.395 215.753 568.454 215.992 568.456 216.236V219.664C568.43 220.153 568.169 220.328 567.812 220.153Z" fill="url(#paint29_linear_615_5453)"/>
<path d="M567.812 204.412L566.559 203.686C566.36 203.545 566.198 203.359 566.084 203.143C565.971 202.928 565.91 202.688 565.906 202.444V199.016C565.906 198.535 566.202 198.316 566.559 198.526L567.812 199.252C568.009 199.394 568.169 199.58 568.281 199.796C568.393 200.012 568.453 200.251 568.456 200.494V203.922C568.43 204.412 568.169 204.639 567.812 204.412Z" fill="url(#paint30_linear_615_5453)"/>
<path d="M567.812 235.527L566.559 234.802C566.362 234.66 566.2 234.473 566.087 234.258C565.974 234.042 565.912 233.803 565.906 233.56V230.132C565.906 229.651 566.202 229.432 566.559 229.633L567.812 230.368C568.01 230.509 568.171 230.695 568.283 230.911C568.395 231.127 568.454 231.366 568.456 231.61V235.02C568.43 235.519 568.169 235.737 567.812 235.527Z" fill="url(#paint31_linear_615_5453)"/>
<defs>
<filter id="filter0_d_615_5453" x="128.371" y="34.3225" width="91.7363" height="50.9839" filterUnits="userSpaceOnUse" color-interpolation-filters="sRGB">
<feFlood flood-opacity="0" result="BackgroundImageFix"/>
<feColorMatrix in="SourceAlpha" type="matrix" values="0 0 0 0 0 0 0 0 0 0 0 0 0 0 0 0 0 0 127 0" result="hardAlpha"/>
<feOffset/>
<feGaussianBlur stdDeviation="0.560909"/>
<feComposite in2="hardAlpha" operator="out"/>
<feColorMatrix type="matrix" values="0 0 0 0 0 0 0 0 0 0.301471 0 0 0 0 0.75 0 0 0 1 0"/>
<feBlend mode="normal" in2="BackgroundImageFix" result="effect1_dropShadow_615_5453"/>
<feBlend mode="normal" in="SourceGraphic" in2="effect1_dropShadow_615_5453" result="shape"/>
</filter>
<filter id="filter1_d_615_5453" x="107.811" y="155.843" width="109.589" height="60.9058" filterUnits="userSpaceOnUse" color-interpolation-filters="sRGB">
<feFlood flood-opacity="0" result="BackgroundImageFix"/>
<feColorMatrix in="SourceAlpha" type="matrix" values="0 0 0 0 0 0 0 0 0 0 0 0 0 0 0 0 0 0 127 0" result="hardAlpha"/>
<feOffset/>
<feGaussianBlur stdDeviation="0.670065"/>
<feComposite in2="hardAlpha" operator="out"/>
<feColorMatrix type="matrix" values="0 0 0 0 0 0 0 0 0 0.301471 0 0 0 0 0.75 0 0 0 1 0"/>
<feBlend mode="normal" in2="BackgroundImageFix" result="effect1_dropShadow_615_5453"/>
<feBlend mode="normal" in="SourceGraphic" in2="effect1_dropShadow_615_5453" result="shape"/>
</filter>
<filter id="filter2_d_615_5453" x="419.892" y="34.3225" width="91.7363" height="50.9839" filterUnits="userSpaceOnUse" color-interpolation-filters="sRGB">
<feFlood flood-opacity="0" result="BackgroundImageFix"/>
<feColorMatrix in="SourceAlpha" type="matrix" values="0 0 0 0 0 0 0 0 0 0 0 0 0 0 0 0 0 0 127 0" result="hardAlpha"/>
<feOffset/>
<feGaussianBlur stdDeviation="0.560909"/>
<feComposite in2="hardAlpha" operator="out"/>
<feColorMatrix type="matrix" values="0 0 0 0 0 0 0 0 0 0.301471 0 0 0 0 0.75 0 0 0 1 0"/>
<feBlend mode="normal" in2="BackgroundImageFix" result="effect1_dropShadow_615_5453"/>
<feBlend mode="normal" in="SourceGraphic" in2="effect1_dropShadow_615_5453" result="shape"/>
</filter>
<filter id="filter3_d_615_5453" x="422.601" y="155.843" width="109.589" height="60.9058" filterUnits="userSpaceOnUse" color-interpolation-filters="sRGB">
<feFlood flood-opacity="0" result="BackgroundImageFix"/>
<feColorMatrix in="SourceAlpha" type="matrix" values="0 0 0 0 0 0 0 0 0 0 0 0 0 0 0 0 0 0 127 0" result="hardAlpha"/>
<feOffset/>
<feGaussianBlur stdDeviation="0.670065"/>
<feComposite in2="hardAlpha" operator="out"/>
<feColorMatrix type="matrix" values="0 0 0 0 0 0 0 0 0 0.301471 0 0 0 0 0.75 0 0 0 1 0"/>
<feBlend mode="normal" in2="BackgroundImageFix" result="effect1_dropShadow_615_5453"/>
<feBlend mode="normal" in="SourceGraphic" in2="effect1_dropShadow_615_5453" result="shape"/>
</filter>
<linearGradient id="paint0_linear_615_5453" x1="179.058" y1="36.3145" x2="179.058" y2="62.5112" gradientUnits="userSpaceOnUse">
<stop stop-color="#232B37"/>
<stop offset="1" stop-color="#004DBF" stop-opacity="0"/>
</linearGradient>
<linearGradient id="paint1_linear_615_5453" x1="57.1642" y1="42.7966" x2="111.23" y2="42.4585" gradientUnits="userSpaceOnUse">
<stop stop-color="#E2E4E9"/>
<stop offset="1" stop-color="white"/>
</linearGradient>
<linearGradient id="paint2_linear_615_5453" x1="57.1643" y1="29.7576" x2="111.23" y2="29.4195" gradientUnits="userSpaceOnUse">
<stop stop-color="#E2E4E9"/>
<stop offset="1" stop-color="white"/>
</linearGradient>
<linearGradient id="paint3_linear_615_5453" x1="56.8657" y1="16.7175" x2="110.932" y2="16.3794" gradientUnits="userSpaceOnUse">
<stop stop-color="#E2E4E9"/>
<stop offset="1" stop-color="white"/>
</linearGradient>
<linearGradient id="paint4_linear_615_5453" x1="101.096" y1="47.758" x2="101.096" y2="42.7061" gradientUnits="userSpaceOnUse">
<stop stop-color="#E2E4E9"/>
<stop offset="1" stop-color="white"/>
</linearGradient>
<linearGradient id="paint5_linear_615_5453" x1="101.096" y1="34.5998" x2="101.096" y2="29.5322" gradientUnits="userSpaceOnUse">
<stop stop-color="#E2E4E9"/>
<stop offset="1" stop-color="white"/>
</linearGradient>
<linearGradient id="paint6_linear_615_5453" x1="101.096" y1="60.6382" x2="101.096" y2="55.5752" gradientUnits="userSpaceOnUse">
<stop stop-color="#E2E4E9"/>
<stop offset="1" stop-color="white"/>
</linearGradient>
<linearGradient id="paint7_linear_615_5453" x1="160.261" y1="184.142" x2="160.261" y2="215.436" gradientUnits="userSpaceOnUse">
<stop stop-color="#232B37"/>
<stop offset="1" stop-color="#004DBF" stop-opacity="0"/>
</linearGradient>
<linearGradient id="paint8_linear_615_5453" x1="20.3375" y1="214.294" x2="84.9251" y2="213.89" gradientUnits="userSpaceOnUse">
<stop stop-color="#E2E4E9"/>
<stop offset="1" stop-color="white"/>
</linearGradient>
<linearGradient id="paint9_linear_615_5453" x1="20.3375" y1="198.717" x2="84.9251" y2="198.313" gradientUnits="userSpaceOnUse">
<stop stop-color="#E2E4E9"/>
<stop offset="1" stop-color="white"/>
</linearGradient>
<linearGradient id="paint10_linear_615_5453" x1="19.9806" y1="183.14" x2="84.5682" y2="182.736" gradientUnits="userSpaceOnUse">
<stop stop-color="#E2E4E9"/>
<stop offset="1" stop-color="white"/>
</linearGradient>
<linearGradient id="paint11_linear_615_5453" x1="72.8188" y1="220.22" x2="72.8188" y2="214.185" gradientUnits="userSpaceOnUse">
<stop stop-color="#E2E4E9"/>
<stop offset="1" stop-color="white"/>
</linearGradient>
<linearGradient id="paint12_linear_615_5453" x1="72.8188" y1="204.5" x2="72.8188" y2="198.446" gradientUnits="userSpaceOnUse">
<stop stop-color="#E2E4E9"/>
<stop offset="1" stop-color="white"/>
</linearGradient>
<linearGradient id="paint13_linear_615_5453" x1="72.8188" y1="235.607" x2="72.8188" y2="229.559" gradientUnits="userSpaceOnUse">
<stop stop-color="#E2E4E9"/>
<stop offset="1" stop-color="white"/>
</linearGradient>
<linearGradient id="paint14_linear_615_5453" x1="295.408" y1="152.947" x2="295.407" y2="85.2168" gradientUnits="userSpaceOnUse">
<stop stop-color="#E2E4E9"/>
<stop offset="1" stop-color="white"/>
</linearGradient>
<linearGradient id="paint15_linear_615_5453" x1="334.707" y1="152.947" x2="334.707" y2="85.2168" gradientUnits="userSpaceOnUse">
<stop stop-color="#E2E4E9"/>
<stop offset="1" stop-color="white"/>
</linearGradient>
<linearGradient id="paint16_linear_615_5453" x1="357.266" y1="69.4228" x2="327.594" y2="190.824" gradientUnits="userSpaceOnUse">
<stop stop-color="#66A3FF"/>
<stop offset="1" stop-color="#0061F1"/>
</linearGradient>
<linearGradient id="paint17_linear_615_5453" x1="380.975" y1="132.531" x2="380.975" y2="99.1943" gradientUnits="userSpaceOnUse">
<stop stop-color="#E2E4E9"/>
<stop offset="1" stop-color="white"/>
</linearGradient>
<linearGradient id="paint18_linear_615_5453" x1="41.9148" y1="0" x2="41.9148" y2="26.1968" gradientUnits="userSpaceOnUse">
<stop stop-color="#232B37"/>
<stop offset="1" stop-color="#004DBF" stop-opacity="0"/>
</linearGradient>
<linearGradient id="paint19_linear_615_5453" x1="582.835" y1="42.7966" x2="528.769" y2="42.4585" gradientUnits="userSpaceOnUse">
<stop stop-color="#E2E4E9"/>
<stop offset="1" stop-color="white"/>
</linearGradient>
<linearGradient id="paint20_linear_615_5453" x1="582.835" y1="29.7576" x2="528.769" y2="29.4195" gradientUnits="userSpaceOnUse">
<stop stop-color="#E2E4E9"/>
<stop offset="1" stop-color="white"/>
</linearGradient>
<linearGradient id="paint21_linear_615_5453" x1="583.134" y1="16.7175" x2="529.068" y2="16.3794" gradientUnits="userSpaceOnUse">
<stop stop-color="#E2E4E9"/>
<stop offset="1" stop-color="white"/>
</linearGradient>
<linearGradient id="paint22_linear_615_5453" x1="538.903" y1="47.758" x2="538.903" y2="42.7061" gradientUnits="userSpaceOnUse">
<stop stop-color="#E2E4E9"/>
<stop offset="1" stop-color="white"/>
</linearGradient>
<linearGradient id="paint23_linear_615_5453" x1="538.903" y1="34.5998" x2="538.903" y2="29.5322" gradientUnits="userSpaceOnUse">
<stop stop-color="#E2E4E9"/>
<stop offset="1" stop-color="white"/>
</linearGradient>
<linearGradient id="paint24_linear_615_5453" x1="538.903" y1="60.6382" x2="538.903" y2="55.5752" gradientUnits="userSpaceOnUse">
<stop stop-color="#E2E4E9"/>
<stop offset="1" stop-color="white"/>
</linearGradient>
<linearGradient id="paint25_linear_615_5453" x1="50.0717" y1="0" x2="50.0717" y2="31.2948" gradientUnits="userSpaceOnUse">
<stop stop-color="#232B37"/>
<stop offset="1" stop-color="#004DBF" stop-opacity="0"/>
</linearGradient>
<linearGradient id="paint26_linear_615_5453" x1="619.662" y1="214.294" x2="555.075" y2="213.89" gradientUnits="userSpaceOnUse">
<stop stop-color="#E2E4E9"/>
<stop offset="1" stop-color="white"/>
</linearGradient>
<linearGradient id="paint27_linear_615_5453" x1="619.662" y1="198.717" x2="555.075" y2="198.313" gradientUnits="userSpaceOnUse">
<stop stop-color="#E2E4E9"/>
<stop offset="1" stop-color="white"/>
</linearGradient>
<linearGradient id="paint28_linear_615_5453" x1="620.019" y1="183.14" x2="555.432" y2="182.736" gradientUnits="userSpaceOnUse">
<stop stop-color="#E2E4E9"/>
<stop offset="1" stop-color="white"/>
</linearGradient>
<linearGradient id="paint29_linear_615_5453" x1="567.181" y1="220.22" x2="567.181" y2="214.185" gradientUnits="userSpaceOnUse">
<stop stop-color="#E2E4E9"/>
<stop offset="1" stop-color="white"/>
</linearGradient>
<linearGradient id="paint30_linear_615_5453" x1="567.181" y1="204.5" x2="567.181" y2="198.446" gradientUnits="userSpaceOnUse">
<stop stop-color="#E2E4E9"/>
<stop offset="1" stop-color="white"/>
</linearGradient>
<linearGradient id="paint31_linear_615_5453" x1="567.181" y1="235.607" x2="567.181" y2="229.559" gradientUnits="userSpaceOnUse">
<stop stop-color="#E2E4E9"/>
<stop offset="1" stop-color="white"/>
</linearGradient>
</defs>
</svg>
