<svg width="660" height="345" viewBox="0 0 660 345" fill="none" xmlns="http://www.w3.org/2000/svg">
<rect x="1" y="1.98145" width="658" height="342" fill="#0E1319"/>
<path d="M191.906 163.9C191.906 161.763 192.755 159.713 194.267 158.201C195.778 156.69 197.828 155.841 199.966 155.841H242.951C245.088 155.841 247.138 156.69 248.65 158.201C250.161 159.713 251.01 161.763 251.01 163.9V190.766C251.01 192.903 250.161 194.953 248.65 196.465C247.138 197.976 245.088 198.826 242.951 198.826H221.458V177.333C221.458 173.771 220.043 170.354 217.524 167.835C215.005 165.316 211.588 163.9 208.026 163.9H194.593C193.666 163.9 192.766 164.019 191.906 164.239V163.9ZM253.697 209.572H221.458V204.199H253.697C254.409 204.199 255.093 204.482 255.597 204.985C256.1 205.489 256.383 206.173 256.383 206.885C256.383 207.598 256.1 208.281 255.597 208.785C255.093 209.289 254.409 209.572 253.697 209.572ZM191.906 169.274C189.769 169.274 187.719 170.123 186.207 171.634C184.696 173.146 183.847 175.196 183.847 177.333V209.572C183.847 211.709 184.696 213.759 186.207 215.271C187.719 216.782 189.769 217.631 191.906 217.631H208.026C210.163 217.631 212.213 216.782 213.725 215.271C215.236 213.759 216.085 211.709 216.085 209.572V177.333C216.085 175.196 215.236 173.146 213.725 171.634C212.213 170.123 210.163 169.274 208.026 169.274H191.906ZM199.966 209.572C199.253 209.572 198.57 209.289 198.066 208.785C197.562 208.281 197.279 207.598 197.279 206.885C197.279 206.173 197.562 205.489 198.066 204.985C198.57 204.482 199.253 204.199 199.966 204.199C200.678 204.199 201.362 204.482 201.866 204.985C202.369 205.489 202.652 206.173 202.652 206.885C202.652 207.598 202.369 208.281 201.866 208.785C201.362 209.289 200.678 209.572 199.966 209.572Z" fill="#D8E2F0"/>
<path d="M476.153 164.209V170.353C476.153 176.011 463.315 180.594 447.48 180.594C431.646 180.594 418.808 176.011 418.808 170.353V164.209C418.808 158.554 431.646 153.969 447.48 153.969C463.315 153.969 476.153 158.554 476.153 164.209ZM469.139 181.451C471.686 180.504 474.246 179.288 476.153 177.79V190.834C476.153 196.492 463.315 201.074 447.48 201.074C431.646 201.074 418.808 196.492 418.808 190.834V177.79C420.719 179.288 423.162 180.504 425.829 181.451C431.564 183.499 439.224 184.69 447.48 184.69C455.737 184.69 463.391 183.499 469.139 181.451ZM425.829 201.932C431.564 203.98 439.224 205.17 447.48 205.17C455.737 205.17 463.391 203.98 469.139 201.932C471.686 200.985 474.246 199.769 476.153 198.271V209.266C476.153 214.924 463.315 219.507 447.48 219.507C431.646 219.507 418.808 214.924 418.808 209.266V198.271C420.719 199.769 423.162 200.985 425.829 201.932Z" fill="#D8E2F0"/>
<path d="M329.751 236.392L329.751 235.013L329.751 236.392ZM293.188 223.786C293.121 223.027 293.681 222.357 294.44 222.29L306.806 221.191C307.565 221.124 308.235 221.684 308.302 222.443C308.37 223.202 307.809 223.872 307.05 223.939L296.058 224.916L297.035 235.908C297.103 236.667 296.542 237.337 295.783 237.404C295.024 237.472 294.355 236.911 294.287 236.152L293.188 223.786ZM360.656 223.664C361.702 224.563 361.702 224.563 361.701 224.564C361.701 224.564 361.701 224.565 361.7 224.565C361.699 224.566 361.698 224.567 361.697 224.569C361.695 224.571 361.692 224.575 361.688 224.579C361.68 224.588 361.67 224.599 361.657 224.614C361.632 224.643 361.595 224.684 361.548 224.736C361.454 224.839 361.317 224.987 361.137 225.172C360.778 225.541 360.25 226.062 359.555 226.682C358.166 227.922 356.109 229.565 353.412 231.207C348.016 234.491 340.044 237.772 329.75 237.772L329.751 235.013C339.435 235.013 346.916 231.93 351.978 228.85C354.51 227.309 356.433 225.771 357.718 224.624C358.359 224.051 358.841 223.577 359.157 223.25C359.316 223.087 359.433 222.961 359.508 222.878C359.546 222.837 359.573 222.806 359.59 222.787C359.599 222.778 359.604 222.771 359.608 222.767C359.609 222.766 359.61 222.764 359.61 222.764C359.61 222.764 359.61 222.764 359.61 222.764C359.61 222.764 359.61 222.765 359.61 222.765C359.609 222.765 359.609 222.766 360.656 223.664ZM329.75 237.772C319.475 237.771 310.461 234.501 304.043 231.259C300.828 229.636 298.25 228.012 296.47 226.79C295.58 226.179 294.889 225.668 294.417 225.307C294.181 225.126 293.999 224.983 293.875 224.883C293.813 224.834 293.765 224.795 293.732 224.768C293.716 224.754 293.703 224.743 293.693 224.736C293.689 224.732 293.685 224.729 293.682 224.727C293.681 224.725 293.68 224.724 293.679 224.724C293.679 224.723 293.678 224.723 293.678 224.723C293.677 224.722 293.677 224.722 294.562 223.664C295.447 222.606 295.447 222.606 295.447 222.606C295.447 222.606 295.447 222.606 295.447 222.606C295.447 222.606 295.447 222.606 295.448 222.606C295.448 222.607 295.45 222.609 295.453 222.611C295.459 222.615 295.468 222.623 295.481 222.634C295.506 222.655 295.547 222.687 295.601 222.731C295.709 222.818 295.874 222.948 296.093 223.115C296.531 223.45 297.184 223.933 298.032 224.516C299.728 225.68 302.201 227.238 305.286 228.797C311.468 231.919 320.048 235.012 329.751 235.013L329.75 237.772Z" fill="#999999"/>
<path d="M322.396 135.774L322.396 137.153L322.396 135.774ZM358.958 148.38C359.026 149.139 358.465 149.809 357.706 149.876L345.34 150.975C344.581 151.042 343.912 150.482 343.844 149.723C343.777 148.964 344.337 148.294 345.096 148.227L356.088 147.25L355.111 136.258C355.044 135.499 355.604 134.829 356.363 134.762C357.122 134.694 357.792 135.255 357.859 136.014L358.958 148.38ZM291.491 148.502C290.444 147.603 290.445 147.603 290.445 147.602C290.445 147.602 290.446 147.602 290.446 147.601C290.447 147.6 290.448 147.599 290.449 147.597C290.452 147.595 290.455 147.591 290.458 147.587C290.466 147.578 290.476 147.567 290.489 147.552C290.515 147.523 290.551 147.482 290.598 147.43C290.693 147.327 290.83 147.179 291.009 146.994C291.368 146.625 291.897 146.104 292.592 145.484C293.98 144.244 296.037 142.601 298.734 140.959C304.131 137.675 312.102 134.394 322.396 134.394L322.396 137.153C312.711 137.153 305.23 140.236 300.169 143.316C297.637 144.857 295.713 146.395 294.429 147.542C293.787 148.115 293.306 148.589 292.989 148.916C292.831 149.079 292.714 149.205 292.638 149.288C292.6 149.329 292.573 149.36 292.556 149.379C292.548 149.388 292.542 149.395 292.539 149.399C292.537 149.4 292.536 149.402 292.536 149.402C292.536 149.402 292.536 149.402 292.536 149.402C292.536 149.402 292.537 149.401 292.537 149.401C292.537 149.401 292.537 149.4 291.491 148.502ZM322.396 134.394C332.672 134.395 341.686 137.665 348.104 140.907C351.318 142.53 353.897 144.154 355.676 145.376C356.566 145.987 357.258 146.498 357.73 146.859C357.966 147.04 358.147 147.183 358.271 147.283C358.333 147.332 358.381 147.371 358.414 147.398C358.431 147.412 358.444 147.423 358.453 147.43C358.458 147.434 358.461 147.437 358.464 147.439C358.465 147.441 358.467 147.442 358.467 147.442C358.468 147.443 358.468 147.443 358.469 147.443C358.469 147.444 358.469 147.444 357.584 148.502C356.699 149.56 356.699 149.56 356.7 149.56C356.7 149.56 356.7 149.56 356.7 149.56C356.7 149.56 356.699 149.56 356.699 149.56C356.698 149.559 356.696 149.557 356.693 149.555C356.688 149.551 356.679 149.543 356.666 149.532C356.64 149.511 356.6 149.479 356.546 149.435C356.437 149.348 356.272 149.218 356.054 149.051C355.616 148.716 354.963 148.233 354.115 147.65C352.418 146.486 349.946 144.928 346.86 143.369C340.678 140.247 332.098 137.154 322.396 137.153L322.396 134.394Z" fill="#999999"/>
<path d="M226.021 90.1895H223.875V76.6947H228.921C230.21 76.6947 231.19 77.0555 231.86 77.7773C232.543 78.4991 232.885 79.4916 232.885 80.7547C232.885 81.7858 232.634 82.6365 232.131 83.3067C231.628 83.9769 230.906 84.3894 229.966 84.5441L233.078 90.1895H230.681L227.819 84.7374H226.021V90.1895ZM228.612 82.9974C229.953 82.9974 230.623 82.3852 230.623 81.1607V80.3294C230.623 79.1049 229.953 78.4927 228.612 78.4927H226.021V82.9974H228.612ZM239.857 90.4215C239.096 90.4215 238.413 90.299 237.807 90.0541C237.202 89.8092 236.692 89.4612 236.28 89.0101C235.868 88.559 235.552 88.0177 235.333 87.3861C235.114 86.7416 235.004 86.0199 235.004 85.2207C235.004 84.4216 235.114 83.6998 235.333 83.0554C235.565 82.4109 235.88 81.8631 236.28 81.412C236.692 80.948 237.189 80.5936 237.769 80.3487C238.349 80.1038 238.993 79.9814 239.702 79.9814C240.398 79.9814 241.03 80.1038 241.597 80.3487C242.164 80.5807 242.647 80.9158 243.047 81.354C243.446 81.7923 243.749 82.3143 243.955 82.92C244.175 83.5258 244.284 84.1961 244.284 84.9307V85.7234H237.131V86.0521C237.131 86.8383 237.376 87.4828 237.865 87.9854C238.355 88.4752 239.032 88.7201 239.895 88.7201C240.54 88.7201 241.088 88.5848 241.539 88.3141C242.003 88.0305 242.377 87.6568 242.66 87.1928L243.975 88.3528C243.64 88.9328 243.124 89.4226 242.428 89.8221C241.745 90.2217 240.888 90.4215 239.857 90.4215ZM239.702 81.586C239.328 81.586 238.98 81.6505 238.658 81.7794C238.349 81.9083 238.078 82.0952 237.846 82.34C237.627 82.572 237.453 82.8492 237.324 83.1714C237.195 83.4936 237.131 83.8481 237.131 84.2347V84.3701H242.138V84.1767C242.138 83.3905 241.913 82.7654 241.461 82.3014C241.023 81.8245 240.437 81.586 239.702 81.586ZM253.402 88.4881H253.286C252.99 89.0939 252.596 89.5708 252.107 89.9188C251.617 90.2539 251.005 90.4215 250.27 90.4215C249.097 90.4215 248.163 89.9832 247.467 89.1068C246.771 88.2303 246.423 86.9285 246.423 85.2014C246.423 83.4743 246.771 82.1725 247.467 81.296C248.163 80.4196 249.097 79.9814 250.27 79.9814C251.005 79.9814 251.617 80.1554 252.107 80.5034C252.596 80.8385 252.99 81.3089 253.286 81.9147H253.402V80.2134H255.509V94.0562H253.402V88.4881ZM251.14 88.7008C251.449 88.7008 251.739 88.6621 252.01 88.5848C252.281 88.5074 252.519 88.3914 252.725 88.2368C252.932 88.0821 253.093 87.8952 253.209 87.6761C253.338 87.4441 253.402 87.1734 253.402 86.8641V83.5387C253.402 83.2294 253.338 82.9652 253.209 82.746C253.093 82.514 252.932 82.3207 252.725 82.166C252.519 82.0114 252.281 81.8954 252.01 81.818C251.739 81.7407 251.449 81.702 251.14 81.702C250.341 81.702 249.722 81.9469 249.284 82.4367C248.859 82.9265 248.646 83.5774 248.646 84.3894V86.0134C248.646 86.8254 248.859 87.4763 249.284 87.9661C249.722 88.4559 250.341 88.7008 251.14 88.7008ZM264.898 88.4881H264.801C264.698 88.7459 264.563 88.9972 264.395 89.2421C264.241 89.4741 264.047 89.6803 263.815 89.8608C263.583 90.0283 263.313 90.1637 263.003 90.2668C262.694 90.3699 262.333 90.4215 261.92 90.4215C260.915 90.4215 260.103 90.0928 259.484 89.4354C258.866 88.7781 258.556 87.8437 258.556 86.6321V80.2134H260.664V86.3227C260.664 87.9081 261.353 88.7008 262.732 88.7008C263.003 88.7008 263.267 88.6685 263.525 88.6041C263.783 88.5268 264.015 88.4172 264.221 88.2754C264.427 88.1337 264.589 87.9597 264.705 87.7534C264.833 87.5343 264.898 87.2765 264.898 86.9801V80.2134H267.005V90.1895H264.898V88.4881ZM274.634 90.4215C273.874 90.4215 273.191 90.299 272.585 90.0541C271.979 89.8092 271.47 89.4612 271.058 89.0101C270.645 88.559 270.329 88.0177 270.11 87.3861C269.891 86.7416 269.782 86.0199 269.782 85.2207C269.782 84.4216 269.891 83.6998 270.11 83.0554C270.342 82.4109 270.658 81.8631 271.058 81.412C271.47 80.948 271.966 80.5936 272.546 80.3487C273.126 80.1038 273.771 79.9814 274.48 79.9814C275.176 79.9814 275.807 80.1038 276.374 80.3487C276.942 80.5807 277.425 80.9158 277.824 81.354C278.224 81.7923 278.527 82.3143 278.733 82.92C278.952 83.5258 279.062 84.1961 279.062 84.9307V85.7234H271.908V86.0521C271.908 86.8383 272.153 87.4828 272.643 87.9854C273.133 88.4752 273.809 88.7201 274.673 88.7201C275.318 88.7201 275.865 88.5848 276.316 88.3141C276.78 88.0305 277.154 87.6568 277.438 87.1928L278.752 88.3528C278.417 88.9328 277.902 89.4226 277.206 89.8221C276.523 90.2217 275.666 90.4215 274.634 90.4215ZM274.48 81.586C274.106 81.586 273.758 81.6505 273.436 81.7794C273.126 81.9083 272.856 82.0952 272.624 82.34C272.405 82.572 272.231 82.8492 272.102 83.1714C271.973 83.4936 271.908 83.8481 271.908 84.2347V84.3701H276.916V84.1767C276.916 83.3905 276.69 82.7654 276.239 82.3014C275.801 81.8245 275.214 81.586 274.48 81.586ZM286.034 90.4215C284.951 90.4215 284.016 90.2475 283.23 89.8995C282.457 89.5514 281.832 89.0874 281.355 88.5074L282.65 87.3474C283.088 87.8243 283.578 88.1917 284.12 88.4494C284.674 88.6943 285.325 88.8168 286.072 88.8168C286.755 88.8168 287.303 88.7008 287.716 88.4688C288.141 88.2368 288.354 87.8759 288.354 87.3861C288.354 87.1799 288.315 87.0059 288.238 86.8641C288.16 86.7223 288.051 86.6063 287.909 86.5161C287.767 86.4259 287.6 86.355 287.406 86.3034C287.226 86.2519 287.033 86.2132 286.826 86.1874L285.241 85.9361C284.854 85.8845 284.461 85.8007 284.062 85.6847C283.662 85.5687 283.301 85.4076 282.979 85.2014C282.67 84.9823 282.412 84.7052 282.206 84.3701C282.012 84.0349 281.916 83.6096 281.916 83.0941C281.916 82.0758 282.302 81.3025 283.076 80.774C283.862 80.2456 284.893 79.9814 286.169 79.9814C287.097 79.9814 287.896 80.1231 288.566 80.4067C289.249 80.6774 289.817 81.0576 290.268 81.5474L289.088 82.7847C288.831 82.4883 288.463 82.2176 287.986 81.9727C287.509 81.7149 286.878 81.586 286.092 81.586C284.687 81.586 283.984 82.0307 283.984 82.92C283.984 83.3454 284.132 83.6418 284.429 83.8094C284.738 83.9641 285.099 84.0672 285.512 84.1187L287.097 84.3701C287.497 84.4345 287.89 84.5183 288.276 84.6214C288.676 84.7245 289.03 84.8856 289.34 85.1047C289.662 85.311 289.92 85.5816 290.113 85.9167C290.319 86.2519 290.422 86.6772 290.422 87.1928C290.422 88.1981 290.029 88.9908 289.243 89.5708C288.47 90.1379 287.4 90.4215 286.034 90.4215ZM298.206 90.1895C297.33 90.1895 296.685 89.9575 296.273 89.4934C295.86 89.0166 295.654 88.4043 295.654 87.6568V81.9147H292.58V80.2134H294.765C295.139 80.2134 295.403 80.1425 295.557 80.0007C295.712 79.846 295.789 79.5753 295.789 79.1887V76.6947H297.762V80.2134H302.015V81.9147H297.762V88.4881H302.015V90.1895H298.206ZM321.875 78.512V90.1895H319.709V78.512H315.475V76.6947H326.109V78.512H321.875ZM332.385 90.4215C331.65 90.4215 330.986 90.299 330.393 90.0541C329.813 89.8092 329.317 89.4612 328.904 89.0101C328.505 88.559 328.196 88.0112 327.976 87.3668C327.757 86.7223 327.648 86.0005 327.648 85.2014C327.648 84.4023 327.757 83.6805 327.976 83.0361C328.196 82.3916 328.505 81.8438 328.904 81.3927C329.317 80.9416 329.813 80.5936 330.393 80.3487C330.986 80.1038 331.65 79.9814 332.385 79.9814C333.119 79.9814 333.777 80.1038 334.357 80.3487C334.949 80.5936 335.446 80.9416 335.845 81.3927C336.258 81.8438 336.573 82.3916 336.793 83.0361C337.012 83.6805 337.121 84.4023 337.121 85.2014C337.121 86.0005 337.012 86.7223 336.793 87.3668C336.573 88.0112 336.258 88.559 335.845 89.0101C335.446 89.4612 334.949 89.8092 334.357 90.0541C333.777 90.299 333.119 90.4215 332.385 90.4215ZM332.385 88.7588C333.158 88.7588 333.77 88.5268 334.221 88.0628C334.685 87.5859 334.917 86.8834 334.917 85.9554V84.4474C334.917 83.5194 334.685 82.8234 334.221 82.3594C333.77 81.8825 333.158 81.644 332.385 81.644C331.611 81.644 330.993 81.8825 330.529 82.3594C330.077 82.8234 329.852 83.5194 329.852 84.4474V85.9554C329.852 86.8834 330.077 87.5859 330.529 88.0628C330.993 88.5268 331.611 88.7588 332.385 88.7588ZM355.956 90.4215C354.242 90.4215 352.966 89.8157 352.128 88.6041C351.303 87.3925 350.891 85.6719 350.891 83.4421C350.891 81.2123 351.303 79.4916 352.128 78.28C352.966 77.0684 354.242 76.4627 355.956 76.4627C356.614 76.4627 357.181 76.5529 357.658 76.7333C358.147 76.9009 358.566 77.1393 358.914 77.4487C359.262 77.7451 359.552 78.0996 359.784 78.512C360.029 78.9116 360.229 79.3433 360.384 79.8074L358.431 80.4647C358.328 80.1554 358.212 79.8654 358.083 79.5947C357.954 79.324 357.793 79.092 357.6 78.8987C357.406 78.7053 357.174 78.5507 356.904 78.4347C356.646 78.3187 356.324 78.2607 355.937 78.2607C354.983 78.2607 354.287 78.628 353.849 79.3627C353.411 80.0845 353.192 81.064 353.192 82.3014V84.5827C353.192 85.8201 353.411 86.8061 353.849 87.5408C354.287 88.2625 354.983 88.6234 355.937 88.6234C356.324 88.6234 356.646 88.5654 356.904 88.4494C357.174 88.3334 357.406 88.1788 357.6 87.9854C357.793 87.7921 357.954 87.5601 358.083 87.2894C358.212 87.0188 358.328 86.7288 358.431 86.4194L360.384 87.0768C360.229 87.5408 360.029 87.979 359.784 88.3914C359.552 88.791 359.262 89.1454 358.914 89.4548C358.566 89.7512 358.147 89.9897 357.658 90.1701C357.181 90.3377 356.614 90.4215 355.956 90.4215ZM362.831 88.4881H365.48V81.9147H362.831V80.2134H367.588V82.862H367.704C367.794 82.514 367.923 82.1789 368.09 81.8567C368.258 81.5345 368.47 81.2574 368.728 81.0254C368.986 80.7805 369.302 80.5871 369.676 80.4454C370.049 80.2907 370.488 80.2134 370.99 80.2134H372.189V82.224H370.217C369.444 82.224 368.812 82.456 368.322 82.92C367.832 83.3712 367.588 83.9834 367.588 84.7567V88.4881H371.203V90.1895H362.831V88.4881ZM378.967 90.4215C378.207 90.4215 377.524 90.299 376.918 90.0541C376.312 89.8092 375.803 89.4612 375.391 89.0101C374.978 88.559 374.663 88.0177 374.443 87.3861C374.224 86.7416 374.115 86.0199 374.115 85.2207C374.115 84.4216 374.224 83.6998 374.443 83.0554C374.675 82.4109 374.991 81.8631 375.391 81.412C375.803 80.948 376.299 80.5936 376.879 80.3487C377.459 80.1038 378.104 79.9814 378.813 79.9814C379.509 79.9814 380.14 80.1038 380.707 80.3487C381.275 80.5807 381.758 80.9158 382.157 81.354C382.557 81.7923 382.86 82.3143 383.066 82.92C383.285 83.5258 383.395 84.1961 383.395 84.9307V85.7234H376.241V86.0521C376.241 86.8383 376.486 87.4828 376.976 87.9854C377.466 88.4752 378.143 88.7201 379.006 88.7201C379.651 88.7201 380.198 88.5848 380.649 88.3141C381.113 88.0305 381.487 87.6568 381.771 87.1928L383.085 88.3528C382.75 88.9328 382.235 89.4226 381.539 89.8221C380.856 90.2217 379.999 90.4215 378.967 90.4215ZM378.813 81.586C378.439 81.586 378.091 81.6505 377.769 81.7794C377.459 81.9083 377.189 82.0952 376.957 82.34C376.738 82.572 376.564 82.8492 376.435 83.1714C376.306 83.4936 376.241 83.8481 376.241 84.2347V84.3701H381.249V84.1767C381.249 83.3905 381.023 82.7654 380.572 82.3014C380.134 81.8245 379.547 81.586 378.813 81.586ZM394.059 90.1895C393.454 90.1895 392.996 90.0348 392.687 89.7254C392.39 89.4161 392.21 89.0101 392.145 88.5074H392.049C391.855 89.1132 391.501 89.5837 390.985 89.9188C390.483 90.2539 389.838 90.4215 389.052 90.4215C388.034 90.4215 387.222 90.1572 386.616 89.6288C386.01 89.0874 385.707 88.3463 385.707 87.4054C385.707 86.4387 386.062 85.7041 386.771 85.2014C387.492 84.6858 388.594 84.4281 390.077 84.4281H391.991V83.6547C391.991 82.3014 391.275 81.6247 389.845 81.6247C389.2 81.6247 388.678 81.7536 388.279 82.0114C387.879 82.2563 387.544 82.5849 387.273 82.9974L386.017 81.9727C386.3 81.4314 386.777 80.9674 387.447 80.5807C388.118 80.1811 388.981 79.9814 390.038 79.9814C391.301 79.9814 392.294 80.2842 393.015 80.89C393.737 81.4958 394.098 82.3723 394.098 83.5194V88.5268H395.355V90.1895H394.059ZM389.651 88.8748C390.334 88.8748 390.895 88.7201 391.333 88.4108C391.772 88.1014 391.991 87.7019 391.991 87.2121V85.7621H390.115C388.594 85.7621 387.834 86.2196 387.834 87.1348V87.5214C387.834 87.9725 387.995 88.3141 388.317 88.5461C388.64 88.7652 389.084 88.8748 389.651 88.8748ZM402.539 90.1895C401.663 90.1895 401.018 89.9575 400.606 89.4934C400.193 89.0166 399.987 88.4043 399.987 87.6568V81.9147H396.913V80.2134H399.098C399.472 80.2134 399.736 80.1425 399.891 80.0007C400.045 79.846 400.123 79.5753 400.123 79.1887V76.6947H402.095V80.2134H406.348V81.9147H402.095V88.4881H406.348V90.1895H402.539ZM413.745 90.4215C412.985 90.4215 412.302 90.299 411.696 90.0541C411.09 89.8092 410.581 89.4612 410.168 89.0101C409.756 88.559 409.44 88.0177 409.221 87.3861C409.002 86.7416 408.892 86.0199 408.892 85.2207C408.892 84.4216 409.002 83.6998 409.221 83.0554C409.453 82.4109 409.769 81.8631 410.168 81.412C410.581 80.948 411.077 80.5936 411.657 80.3487C412.237 80.1038 412.882 79.9814 413.59 79.9814C414.286 79.9814 414.918 80.1038 415.485 80.3487C416.052 80.5807 416.536 80.9158 416.935 81.354C417.335 81.7923 417.638 82.3143 417.844 82.92C418.063 83.5258 418.172 84.1961 418.172 84.9307V85.7234H411.019V86.0521C411.019 86.8383 411.264 87.4828 411.754 87.9854C412.244 88.4752 412.92 88.7201 413.784 88.7201C414.428 88.7201 414.976 88.5848 415.427 88.3141C415.891 88.0305 416.265 87.6568 416.548 87.1928L417.863 88.3528C417.528 88.9328 417.012 89.4226 416.316 89.8221C415.633 90.2217 414.776 90.4215 413.745 90.4215ZM413.59 81.586C413.217 81.586 412.869 81.6505 412.546 81.7794C412.237 81.9083 411.966 82.0952 411.734 82.34C411.515 82.572 411.341 82.8492 411.212 83.1714C411.084 83.4936 411.019 83.8481 411.019 84.2347V84.3701H416.026V84.1767C416.026 83.3905 415.801 82.7654 415.35 82.3014C414.912 81.8245 414.325 81.586 413.59 81.586ZM424.042 87.2508H427.039L424.642 92.9928H422.998L424.042 87.2508ZM260.799 111.189H258.653V97.6947H263.699C264.988 97.6947 265.968 98.0555 266.638 98.7773C267.321 99.4991 267.663 100.492 267.663 101.755C267.663 102.786 267.411 103.636 266.909 104.307C266.406 104.977 265.684 105.389 264.743 105.544L267.856 111.189H265.459L262.597 105.737H260.799V111.189ZM263.39 103.997C264.73 103.997 265.401 103.385 265.401 102.161V101.329C265.401 100.105 264.73 99.4927 263.39 99.4927H260.799V103.997H263.39ZM274.634 111.421C273.874 111.421 273.191 111.299 272.585 111.054C271.979 110.809 271.47 110.461 271.058 110.01C270.645 109.559 270.329 109.018 270.11 108.386C269.891 107.742 269.782 107.02 269.782 106.221C269.782 105.422 269.891 104.7 270.11 104.055C270.342 103.411 270.658 102.863 271.058 102.412C271.47 101.948 271.966 101.594 272.546 101.349C273.126 101.104 273.771 100.981 274.48 100.981C275.176 100.981 275.807 101.104 276.374 101.349C276.942 101.581 277.425 101.916 277.824 102.354C278.224 102.792 278.527 103.314 278.733 103.92C278.952 104.526 279.062 105.196 279.062 105.931V106.723H271.908V107.052C271.908 107.838 272.153 108.483 272.643 108.985C273.133 109.475 273.809 109.72 274.673 109.72C275.318 109.72 275.865 109.585 276.316 109.314C276.78 109.031 277.154 108.657 277.438 108.193L278.752 109.353C278.417 109.933 277.902 110.423 277.206 110.822C276.523 111.222 275.666 111.421 274.634 111.421ZM274.48 102.586C274.106 102.586 273.758 102.65 273.436 102.779C273.126 102.908 272.856 103.095 272.624 103.34C272.405 103.572 272.231 103.849 272.102 104.171C271.973 104.494 271.908 104.848 271.908 105.235V105.37H276.916V105.177C276.916 104.39 276.69 103.765 276.239 103.301C275.801 102.824 275.214 102.586 274.48 102.586ZM289.726 111.189C289.121 111.189 288.663 111.035 288.354 110.725C288.057 110.416 287.877 110.01 287.812 109.507H287.716C287.522 110.113 287.168 110.584 286.652 110.919C286.15 111.254 285.505 111.421 284.719 111.421C283.701 111.421 282.889 111.157 282.283 110.629C281.677 110.087 281.374 109.346 281.374 108.405C281.374 107.439 281.729 106.704 282.438 106.201C283.159 105.686 284.261 105.428 285.744 105.428H287.658V104.655C287.658 103.301 286.942 102.625 285.512 102.625C284.867 102.625 284.345 102.754 283.946 103.011C283.546 103.256 283.211 103.585 282.94 103.997L281.684 102.973C281.967 102.431 282.444 101.967 283.114 101.581C283.784 101.181 284.648 100.981 285.705 100.981C286.968 100.981 287.961 101.284 288.682 101.89C289.404 102.496 289.765 103.372 289.765 104.519V109.527H291.022V111.189H289.726ZM285.318 109.875C286.001 109.875 286.562 109.72 287 109.411C287.439 109.101 287.658 108.702 287.658 108.212V106.762H285.782C284.261 106.762 283.501 107.22 283.501 108.135V108.521C283.501 108.973 283.662 109.314 283.984 109.546C284.306 109.765 284.751 109.875 285.318 109.875ZM299.772 109.488H299.656C299.36 110.094 298.967 110.571 298.477 110.919C297.987 111.254 297.375 111.421 296.64 111.421C295.467 111.421 294.533 110.983 293.837 110.107C293.141 109.23 292.793 107.929 292.793 106.201C292.793 104.474 293.141 103.172 293.837 102.296C294.533 101.42 295.467 100.981 296.64 100.981C297.375 100.981 297.987 101.155 298.477 101.503C298.967 101.838 299.36 102.309 299.656 102.915H299.772V96.8826H301.88V111.189H299.772V109.488ZM297.51 109.701C297.82 109.701 298.11 109.662 298.38 109.585C298.651 109.507 298.889 109.391 299.096 109.237C299.302 109.082 299.463 108.895 299.579 108.676C299.708 108.444 299.772 108.173 299.772 107.864V104.539C299.772 104.229 299.708 103.965 299.579 103.746C299.463 103.514 299.302 103.321 299.096 103.166C298.889 103.011 298.651 102.895 298.38 102.818C298.11 102.741 297.82 102.702 297.51 102.702C296.711 102.702 296.092 102.947 295.654 103.437C295.229 103.926 295.016 104.577 295.016 105.389V107.013C295.016 107.825 295.229 108.476 295.654 108.966C296.092 109.456 296.711 109.701 297.51 109.701ZM308.117 108.251H311.113L308.716 113.993H307.073L308.117 108.251ZM330.084 97.6947V105.989C330.084 106.543 330.097 107.046 330.123 107.497C330.161 107.948 330.258 108.335 330.413 108.657C330.567 108.966 330.799 109.205 331.109 109.372C331.418 109.54 331.843 109.623 332.385 109.623C332.926 109.623 333.351 109.54 333.661 109.372C333.97 109.205 334.202 108.966 334.357 108.657C334.511 108.335 334.601 107.948 334.627 107.497C334.666 107.046 334.685 106.543 334.685 105.989V97.6947H336.851V105.602C336.851 106.569 336.793 107.419 336.677 108.154C336.573 108.876 336.361 109.482 336.039 109.971C335.716 110.448 335.259 110.809 334.666 111.054C334.086 111.299 333.325 111.421 332.385 111.421C331.444 111.421 330.677 111.299 330.084 111.054C329.504 110.809 329.053 110.448 328.73 109.971C328.408 109.482 328.189 108.876 328.073 108.154C327.97 107.419 327.918 106.569 327.918 105.602V97.6947H330.084ZM339.704 101.213H341.812V102.915H341.928C342.224 102.309 342.617 101.838 343.107 101.503C343.597 101.155 344.209 100.981 344.944 100.981C346.117 100.981 347.051 101.42 347.747 102.296C348.443 103.172 348.791 104.474 348.791 106.201C348.791 107.929 348.443 109.23 347.747 110.107C347.051 110.983 346.117 111.421 344.944 111.421C344.209 111.421 343.597 111.254 343.107 110.919C342.617 110.571 342.224 110.094 341.928 109.488H341.812V115.056H339.704V101.213ZM344.074 109.701C344.873 109.701 345.485 109.456 345.91 108.966C346.349 108.476 346.568 107.825 346.568 107.013V105.389C346.568 104.577 346.349 103.926 345.91 103.437C345.485 102.947 344.873 102.702 344.074 102.702C343.764 102.702 343.474 102.741 343.204 102.818C342.933 102.895 342.695 103.011 342.488 103.166C342.282 103.321 342.115 103.514 341.986 103.746C341.87 103.965 341.812 104.229 341.812 104.539V107.864C341.812 108.173 341.87 108.444 341.986 108.676C342.115 108.895 342.282 109.082 342.488 109.237C342.695 109.391 342.933 109.507 343.204 109.585C343.474 109.662 343.764 109.701 344.074 109.701ZM357.735 109.488H357.619C357.323 110.094 356.929 110.571 356.44 110.919C355.95 111.254 355.338 111.421 354.603 111.421C353.43 111.421 352.496 110.983 351.8 110.107C351.104 109.23 350.756 107.929 350.756 106.201C350.756 104.474 351.104 103.172 351.8 102.296C352.496 101.42 353.43 100.981 354.603 100.981C355.338 100.981 355.95 101.155 356.44 101.503C356.929 101.838 357.323 102.309 357.619 102.915H357.735V96.8826H359.842V111.189H357.735V109.488ZM355.473 109.701C355.782 109.701 356.072 109.662 356.343 109.585C356.614 109.507 356.852 109.391 357.058 109.237C357.265 109.082 357.426 108.895 357.542 108.676C357.671 108.444 357.735 108.173 357.735 107.864V104.539C357.735 104.229 357.671 103.965 357.542 103.746C357.426 103.514 357.265 103.321 357.058 103.166C356.852 103.011 356.614 102.895 356.343 102.818C356.072 102.741 355.782 102.702 355.473 102.702C354.674 102.702 354.055 102.947 353.617 103.437C353.192 103.926 352.979 104.577 352.979 105.389V107.013C352.979 107.825 353.192 108.476 353.617 108.966C354.055 109.456 354.674 109.701 355.473 109.701ZM370.874 111.189C370.268 111.189 369.811 111.035 369.502 110.725C369.205 110.416 369.025 110.01 368.96 109.507H368.864C368.67 110.113 368.316 110.584 367.8 110.919C367.298 111.254 366.653 111.421 365.867 111.421C364.849 111.421 364.037 111.157 363.431 110.629C362.825 110.087 362.522 109.346 362.522 108.405C362.522 107.439 362.877 106.704 363.586 106.201C364.307 105.686 365.409 105.428 366.892 105.428H368.806V104.655C368.806 103.301 368.09 102.625 366.66 102.625C366.015 102.625 365.493 102.754 365.094 103.011C364.694 103.256 364.359 103.585 364.088 103.997L362.831 102.973C363.115 102.431 363.592 101.967 364.262 101.581C364.932 101.181 365.796 100.981 366.853 100.981C368.116 100.981 369.108 101.284 369.83 101.89C370.552 102.496 370.913 103.372 370.913 104.519V109.527H372.17V111.189H370.874ZM366.466 109.875C367.149 109.875 367.71 109.72 368.148 109.411C368.586 109.101 368.806 108.702 368.806 108.212V106.762H366.93C365.409 106.762 364.649 107.22 364.649 108.135V108.521C364.649 108.973 364.81 109.314 365.132 109.546C365.454 109.765 365.899 109.875 366.466 109.875ZM379.354 111.189C378.478 111.189 377.833 110.957 377.421 110.493C377.008 110.017 376.802 109.404 376.802 108.657V102.915H373.728V101.213H375.913C376.287 101.213 376.551 101.142 376.705 101.001C376.86 100.846 376.937 100.575 376.937 100.189V97.6947H378.909V101.213H383.163V102.915H378.909V109.488H383.163V111.189H379.354ZM390.56 111.421C389.8 111.421 389.116 111.299 388.511 111.054C387.905 110.809 387.396 110.461 386.983 110.01C386.571 109.559 386.255 109.018 386.036 108.386C385.817 107.742 385.707 107.02 385.707 106.221C385.707 105.422 385.817 104.7 386.036 104.055C386.268 103.411 386.584 102.863 386.983 102.412C387.396 101.948 387.892 101.594 388.472 101.349C389.052 101.104 389.696 100.981 390.405 100.981C391.101 100.981 391.733 101.104 392.3 101.349C392.867 101.581 393.35 101.916 393.75 102.354C394.15 102.792 394.452 103.314 394.659 103.92C394.878 104.526 394.987 105.196 394.987 105.931V106.723H387.834V107.052C387.834 107.838 388.079 108.483 388.569 108.985C389.058 109.475 389.735 109.72 390.599 109.72C391.243 109.72 391.791 109.585 392.242 109.314C392.706 109.031 393.08 108.657 393.363 108.193L394.678 109.353C394.343 109.933 393.827 110.423 393.131 110.822C392.448 111.222 391.591 111.421 390.56 111.421ZM390.405 102.586C390.032 102.586 389.684 102.65 389.361 102.779C389.052 102.908 388.781 103.095 388.549 103.34C388.33 103.572 388.156 103.849 388.027 104.171C387.898 104.494 387.834 104.848 387.834 105.235V105.37H392.841V105.177C392.841 104.39 392.616 103.765 392.165 103.301C391.726 102.824 391.14 102.586 390.405 102.586Z" fill="white"/>
<path d="M255.584 270.774H253.438V257.28H258.484C259.773 257.28 260.752 257.641 261.423 258.362C262.106 259.084 262.447 260.077 262.447 261.34C262.447 262.371 262.196 263.221 261.693 263.892C261.191 264.562 260.469 264.974 259.528 265.129L262.641 270.774H260.243L257.382 265.322H255.584V270.774ZM258.175 263.582C259.515 263.582 260.185 262.97 260.185 261.746V260.914C260.185 259.69 259.515 259.078 258.175 259.078H255.584V263.582H258.175ZM269.419 271.006C268.659 271.006 267.976 270.884 267.37 270.639C266.764 270.394 266.255 270.046 265.842 269.595C265.43 269.144 265.114 268.603 264.895 267.971C264.676 267.327 264.566 266.605 264.566 265.806C264.566 265.007 264.676 264.285 264.895 263.64C265.127 262.996 265.443 262.448 265.842 261.997C266.255 261.533 266.751 261.179 267.331 260.934C267.911 260.689 268.556 260.566 269.264 260.566C269.961 260.566 270.592 260.689 271.159 260.934C271.726 261.166 272.21 261.501 272.609 261.939C273.009 262.377 273.312 262.899 273.518 263.505C273.737 264.111 273.847 264.781 273.847 265.516V266.308H266.693V266.637C266.693 267.423 266.938 268.068 267.428 268.57C267.918 269.06 268.594 269.305 269.458 269.305C270.102 269.305 270.65 269.17 271.101 268.899C271.565 268.616 271.939 268.242 272.223 267.778L273.537 268.938C273.202 269.518 272.687 270.008 271.991 270.407C271.307 270.807 270.45 271.006 269.419 271.006ZM269.264 262.171C268.891 262.171 268.543 262.235 268.22 262.364C267.911 262.493 267.64 262.68 267.408 262.925C267.189 263.157 267.015 263.434 266.886 263.756C266.758 264.079 266.693 264.433 266.693 264.82V264.955H271.701V264.762C271.701 263.975 271.475 263.35 271.024 262.886C270.586 262.409 269.999 262.171 269.264 262.171ZM280.818 271.006C279.736 271.006 278.801 270.832 278.015 270.484C277.242 270.136 276.617 269.672 276.14 269.092L277.435 267.932C277.873 268.409 278.363 268.777 278.904 269.034C279.459 269.279 280.109 269.402 280.857 269.402C281.54 269.402 282.088 269.286 282.5 269.054C282.926 268.822 283.138 268.461 283.138 267.971C283.138 267.765 283.1 267.591 283.022 267.449C282.945 267.307 282.836 267.191 282.694 267.101C282.552 267.011 282.384 266.94 282.191 266.888C282.011 266.837 281.817 266.798 281.611 266.772L280.026 266.521C279.639 266.469 279.246 266.386 278.846 266.27C278.447 266.154 278.086 265.993 277.764 265.786C277.454 265.567 277.197 265.29 276.99 264.955C276.797 264.62 276.7 264.195 276.7 263.679C276.7 262.661 277.087 261.887 277.86 261.359C278.647 260.831 279.678 260.566 280.954 260.566C281.882 260.566 282.681 260.708 283.351 260.992C284.034 261.262 284.601 261.643 285.052 262.132L283.873 263.37C283.615 263.073 283.248 262.803 282.771 262.558C282.294 262.3 281.663 262.171 280.876 262.171C279.471 262.171 278.769 262.616 278.769 263.505C278.769 263.93 278.917 264.227 279.214 264.394C279.523 264.549 279.884 264.652 280.296 264.704L281.882 264.955C282.281 265.019 282.674 265.103 283.061 265.206C283.461 265.309 283.815 265.471 284.124 265.69C284.447 265.896 284.704 266.167 284.898 266.502C285.104 266.837 285.207 267.262 285.207 267.778C285.207 268.783 284.814 269.576 284.028 270.156C283.254 270.723 282.185 271.006 280.818 271.006ZM288.119 260.798H290.226V262.5H290.342C290.639 261.894 291.032 261.423 291.522 261.088C292.011 260.74 292.624 260.566 293.358 260.566C294.531 260.566 295.466 261.005 296.162 261.881C296.858 262.757 297.206 264.059 297.206 265.786C297.206 267.513 296.858 268.815 296.162 269.692C295.466 270.568 294.531 271.006 293.358 271.006C292.624 271.006 292.011 270.839 291.522 270.504C291.032 270.156 290.639 269.679 290.342 269.073H290.226V274.641H288.119V260.798ZM292.488 269.286C293.287 269.286 293.9 269.041 294.325 268.551C294.763 268.061 294.982 267.41 294.982 266.598V264.974C294.982 264.162 294.763 263.511 294.325 263.022C293.9 262.532 293.287 262.287 292.488 262.287C292.179 262.287 291.889 262.326 291.618 262.403C291.348 262.48 291.109 262.596 290.903 262.751C290.697 262.906 290.529 263.099 290.4 263.331C290.284 263.55 290.226 263.814 290.226 264.124V267.449C290.226 267.758 290.284 268.029 290.4 268.261C290.529 268.48 290.697 268.667 290.903 268.822C291.109 268.976 291.348 269.092 291.618 269.17C291.889 269.247 292.179 269.286 292.488 269.286ZM303.984 271.006C303.25 271.006 302.586 270.884 301.993 270.639C301.413 270.394 300.917 270.046 300.504 269.595C300.105 269.144 299.795 268.596 299.576 267.952C299.357 267.307 299.247 266.585 299.247 265.786C299.247 264.987 299.357 264.265 299.576 263.621C299.795 262.977 300.105 262.429 300.504 261.978C300.917 261.527 301.413 261.179 301.993 260.934C302.586 260.689 303.25 260.566 303.984 260.566C304.719 260.566 305.376 260.689 305.956 260.934C306.549 261.179 307.045 261.527 307.445 261.978C307.857 262.429 308.173 262.977 308.392 263.621C308.611 264.265 308.721 264.987 308.721 265.786C308.721 266.585 308.611 267.307 308.392 267.952C308.173 268.596 307.857 269.144 307.445 269.595C307.045 270.046 306.549 270.394 305.956 270.639C305.376 270.884 304.719 271.006 303.984 271.006ZM303.984 269.344C304.758 269.344 305.37 269.112 305.821 268.648C306.285 268.171 306.517 267.468 306.517 266.54V265.032C306.517 264.104 306.285 263.408 305.821 262.944C305.37 262.467 304.758 262.229 303.984 262.229C303.211 262.229 302.592 262.467 302.128 262.944C301.677 263.408 301.451 264.104 301.451 265.032V266.54C301.451 267.468 301.677 268.171 302.128 268.648C302.592 269.112 303.211 269.344 303.984 269.344ZM311.401 270.774V260.798H313.508V262.5H313.605C313.708 262.242 313.837 261.997 313.991 261.765C314.159 261.52 314.359 261.314 314.591 261.146C314.823 260.966 315.093 260.824 315.403 260.721C315.712 260.618 316.073 260.566 316.485 260.566C317.491 260.566 318.303 260.895 318.921 261.552C319.54 262.21 319.849 263.144 319.849 264.356V270.774H317.742V264.665C317.742 263.08 317.053 262.287 315.673 262.287C315.403 262.287 315.139 262.326 314.881 262.403C314.623 262.467 314.391 262.571 314.185 262.712C313.979 262.854 313.811 263.035 313.682 263.254C313.566 263.473 313.508 263.724 313.508 264.008V270.774H311.401ZM327.189 271.006C326.106 271.006 325.172 270.832 324.385 270.484C323.612 270.136 322.987 269.672 322.51 269.092L323.805 267.932C324.243 268.409 324.733 268.777 325.275 269.034C325.829 269.279 326.48 269.402 327.227 269.402C327.91 269.402 328.458 269.286 328.871 269.054C329.296 268.822 329.509 268.461 329.509 267.971C329.509 267.765 329.47 267.591 329.393 267.449C329.315 267.307 329.206 267.191 329.064 267.101C328.922 267.011 328.755 266.94 328.561 266.888C328.381 266.837 328.188 266.798 327.981 266.772L326.396 266.521C326.009 266.469 325.616 266.386 325.217 266.27C324.817 266.154 324.456 265.993 324.134 265.786C323.825 265.567 323.567 265.29 323.361 264.955C323.167 264.62 323.071 264.195 323.071 263.679C323.071 262.661 323.457 261.887 324.231 261.359C325.017 260.831 326.048 260.566 327.324 260.566C328.252 260.566 329.051 260.708 329.721 260.992C330.404 261.262 330.972 261.643 331.423 262.132L330.243 263.37C329.986 263.073 329.618 262.803 329.141 262.558C328.664 262.3 328.033 262.171 327.247 262.171C325.842 262.171 325.139 262.616 325.139 263.505C325.139 263.93 325.288 264.227 325.584 264.394C325.893 264.549 326.254 264.652 326.667 264.704L328.252 264.955C328.652 265.019 329.045 265.103 329.431 265.206C329.831 265.309 330.185 265.471 330.495 265.69C330.817 265.896 331.075 266.167 331.268 266.502C331.474 266.837 331.577 267.262 331.577 267.778C331.577 268.783 331.184 269.576 330.398 270.156C329.625 270.723 328.555 271.006 327.189 271.006ZM338.975 271.006C338.214 271.006 337.531 270.884 336.925 270.639C336.319 270.394 335.81 270.046 335.398 269.595C334.985 269.144 334.67 268.603 334.45 267.971C334.231 267.327 334.122 266.605 334.122 265.806C334.122 265.007 334.231 264.285 334.45 263.64C334.682 262.996 334.998 262.448 335.398 261.997C335.81 261.533 336.307 261.179 336.887 260.934C337.467 260.689 338.111 260.566 338.82 260.566C339.516 260.566 340.147 260.689 340.715 260.934C341.282 261.166 341.765 261.501 342.165 261.939C342.564 262.377 342.867 262.899 343.073 263.505C343.292 264.111 343.402 264.781 343.402 265.516V266.308H336.249V266.637C336.249 267.423 336.493 268.068 336.983 268.57C337.473 269.06 338.15 269.305 339.013 269.305C339.658 269.305 340.205 269.17 340.657 268.899C341.121 268.616 341.494 268.242 341.778 267.778L343.093 268.938C342.757 269.518 342.242 270.008 341.546 270.407C340.863 270.807 340.006 271.006 338.975 271.006ZM338.82 262.171C338.446 262.171 338.098 262.235 337.776 262.364C337.467 262.493 337.196 262.68 336.964 262.925C336.745 263.157 336.571 263.434 336.442 263.756C336.313 264.079 336.249 264.433 336.249 264.82V264.955H341.256V264.762C341.256 263.975 341.03 263.35 340.579 262.886C340.141 262.409 339.555 262.171 338.82 262.171ZM357.732 257.28H361.754C363.481 257.28 364.757 257.853 365.582 259C366.419 260.147 366.838 261.823 366.838 264.027C366.838 266.231 366.419 267.907 365.582 269.054C364.757 270.201 363.481 270.774 361.754 270.774H357.732V257.28ZM361.618 268.996C362.611 268.996 363.345 268.667 363.822 268.01C364.312 267.339 364.557 266.386 364.557 265.148V262.906C364.557 261.668 364.312 260.721 363.822 260.064C363.345 259.393 362.611 259.058 361.618 259.058H359.878V268.996H361.618ZM377.252 270.774C376.646 270.774 376.188 270.62 375.879 270.31C375.582 270.001 375.402 269.595 375.338 269.092H375.241C375.048 269.698 374.693 270.169 374.178 270.504C373.675 270.839 373.03 271.006 372.244 271.006C371.226 271.006 370.414 270.742 369.808 270.214C369.202 269.672 368.899 268.931 368.899 267.99C368.899 267.024 369.254 266.289 369.963 265.786C370.685 265.271 371.787 265.013 373.269 265.013H375.183V264.24C375.183 262.886 374.468 262.21 373.037 262.21C372.392 262.21 371.87 262.339 371.471 262.596C371.071 262.841 370.736 263.17 370.466 263.582L369.209 262.558C369.492 262.016 369.969 261.552 370.64 261.166C371.31 260.766 372.173 260.566 373.23 260.566C374.493 260.566 375.486 260.869 376.208 261.475C376.929 262.081 377.29 262.957 377.29 264.104V269.112H378.547V270.774H377.252ZM372.844 269.46C373.527 269.46 374.087 269.305 374.526 268.996C374.964 268.686 375.183 268.287 375.183 267.797V266.347H373.308C371.787 266.347 371.026 266.805 371.026 267.72V268.106C371.026 268.558 371.187 268.899 371.51 269.131C371.832 269.35 372.276 269.46 372.844 269.46ZM385.731 270.774C384.855 270.774 384.211 270.542 383.798 270.078C383.386 269.602 383.179 268.989 383.179 268.242V262.5H380.105V260.798H382.29C382.664 260.798 382.928 260.727 383.083 260.586C383.237 260.431 383.315 260.16 383.315 259.774V257.28H385.287V260.798H389.54V262.5H385.287V269.073H389.54V270.774H385.731ZM400.437 270.774C399.831 270.774 399.373 270.62 399.064 270.31C398.768 270.001 398.587 269.595 398.523 269.092H398.426C398.233 269.698 397.878 270.169 397.363 270.504C396.86 270.839 396.216 271.006 395.429 271.006C394.411 271.006 393.599 270.742 392.993 270.214C392.388 269.672 392.085 268.931 392.085 267.99C392.085 267.024 392.439 266.289 393.148 265.786C393.87 265.271 394.972 265.013 396.454 265.013H398.368V264.24C398.368 262.886 397.653 262.21 396.222 262.21C395.578 262.21 395.056 262.339 394.656 262.596C394.256 262.841 393.921 263.17 393.651 263.582L392.394 262.558C392.678 262.016 393.154 261.552 393.825 261.166C394.495 260.766 395.358 260.566 396.415 260.566C397.678 260.566 398.671 260.869 399.393 261.475C400.114 262.081 400.475 262.957 400.475 264.104V269.112H401.732V270.774H400.437ZM396.029 269.46C396.712 269.46 397.272 269.305 397.711 268.996C398.149 268.686 398.368 268.287 398.368 267.797V266.347H396.493C394.972 266.347 394.211 266.805 394.211 267.72V268.106C394.211 268.558 394.372 268.899 394.695 269.131C395.017 269.35 395.462 269.46 396.029 269.46Z" fill="white"/>
<path d="M285.274 194.277H282.413V180.783H287.633C288.29 180.783 288.877 180.886 289.392 181.092C289.908 181.285 290.34 181.569 290.688 181.943C291.049 182.316 291.319 182.767 291.5 183.296C291.68 183.824 291.77 184.417 291.77 185.075C291.77 186.028 291.564 186.847 291.152 187.53C290.739 188.213 290.153 188.664 289.392 188.883L292.041 194.277H288.87L286.608 189.27H285.274V194.277ZM286.937 187.027C287.62 187.027 288.091 186.898 288.348 186.641C288.619 186.383 288.754 185.957 288.754 185.365V184.785C288.754 184.192 288.619 183.766 288.348 183.509C288.091 183.251 287.62 183.122 286.937 183.122H285.274V187.027H286.937ZM294.083 194.277V180.783H302.706V183.161H296.983V186.254H302.512V188.632H296.983V191.899H302.706V194.277H294.083ZM309.716 194.509C308.582 194.509 307.596 194.322 306.758 193.949C305.92 193.575 305.244 193.066 304.728 192.421L306.41 190.565C306.9 191.107 307.435 191.506 308.015 191.764C308.608 192.022 309.207 192.151 309.813 192.151C310.509 192.151 311.037 191.996 311.398 191.687C311.759 191.377 311.94 190.933 311.94 190.353C311.94 189.876 311.798 189.515 311.514 189.27C311.244 189.025 310.78 188.851 310.122 188.748L308.711 188.516C307.499 188.31 306.623 187.865 306.082 187.182C305.54 186.486 305.27 185.642 305.27 184.649C305.27 183.347 305.695 182.342 306.546 181.633C307.396 180.911 308.588 180.551 310.122 180.551C311.166 180.551 312.075 180.712 312.848 181.034C313.622 181.356 314.247 181.794 314.724 182.349L313.08 184.185C312.719 183.786 312.294 183.476 311.804 183.257C311.314 183.025 310.76 182.909 310.142 182.909C308.84 182.909 308.189 183.444 308.189 184.514C308.189 184.978 308.331 185.326 308.614 185.558C308.911 185.79 309.388 185.964 310.045 186.08L311.456 186.331C312.552 186.525 313.396 186.937 313.989 187.569C314.582 188.2 314.878 189.051 314.878 190.121C314.878 190.752 314.769 191.339 314.55 191.88C314.33 192.408 314.002 192.872 313.564 193.272C313.125 193.659 312.584 193.962 311.94 194.181C311.308 194.4 310.567 194.509 309.716 194.509ZM322.971 183.161V194.277H320.071V183.161H316.185V180.783H326.858V183.161H322.971ZM347.317 194.277L346.466 191.029H342.773L341.942 194.277H339.003L342.657 180.783H346.756L350.41 194.277H347.317ZM344.707 183.586H344.552L343.237 188.69H346.021L344.707 183.586ZM351.968 194.277V180.783H357.188C357.846 180.783 358.432 180.886 358.948 181.092C359.463 181.285 359.895 181.569 360.243 181.943C360.604 182.316 360.875 182.767 361.055 183.296C361.236 183.824 361.326 184.417 361.326 185.075C361.326 185.732 361.236 186.325 361.055 186.853C360.875 187.382 360.604 187.833 360.243 188.207C359.895 188.58 359.463 188.87 358.948 189.077C358.432 189.27 357.846 189.367 357.188 189.367H354.888V194.277H351.968ZM354.888 187.027H356.454C357.137 187.027 357.607 186.898 357.865 186.641C358.136 186.383 358.271 185.957 358.271 185.365V184.785C358.271 184.192 358.136 183.766 357.865 183.509C357.607 183.251 357.137 183.122 356.454 183.122H354.888V187.027ZM363.542 194.277V192.131H366.442V182.929H363.542V180.783H372.242V182.929H369.342V192.131H372.242V194.277H363.542Z" fill="white"/>
<rect x="1" y="1.98145" width="658" height="342" stroke="#243040" stroke-width="2"/>
</svg>
