<svg width="205" height="32" viewBox="0 0 205 32" fill="none" xmlns="http://www.w3.org/2000/svg">
<path d="M24.0747 24.8226C23.028 24.8226 21.9812 24.1497 21.9812 22.9535V20.7105C21.9812 20.2619 21.084 19.7385 20.7102 19.6637C20.5607 19.6637 20.4111 19.5142 20.4111 19.3647C20.4111 19.2151 20.4859 19.0656 20.7102 19.0656C21.084 18.9908 21.9065 18.4675 21.9065 18.0189V15.7759C21.9065 14.5796 23.028 13.9067 23.9999 13.9067H24.8971C25.1214 13.9067 25.2709 14.0563 25.2709 14.2058C25.2709 14.3553 25.1962 14.5049 25.0466 14.5796C24.6728 14.6544 24.0747 15.0282 24.0747 15.9254V18.1684C23.9999 18.7665 23.8504 19.1404 23.5513 19.3647C23.8504 19.589 23.9999 19.9628 24.0747 20.5609V22.8039C24.0747 23.7011 24.7476 24.075 25.0466 24.2245C25.1962 24.2993 25.2709 24.4488 25.2709 24.5983C25.2709 24.7479 25.1214 24.8974 24.8971 24.8974H24.0747V24.8226Z" fill="url(#paint0_linear_1062_1602)"/>
<path d="M28.6352 25.8693C27.5885 25.8693 26.5418 25.1964 26.5418 24.0002V20.6357C26.5418 20.1871 25.6446 19.6637 25.2707 19.589C25.1212 19.589 24.9717 19.4394 24.9717 19.2899C24.9717 19.1404 25.0464 18.9908 25.2707 18.9908C25.6446 18.9161 26.467 18.3927 26.467 17.9441V14.5796C26.467 13.3833 27.5885 12.7104 28.5605 12.7104H29.4577C29.682 12.7104 29.8315 12.86 29.8315 13.0095C29.8315 13.159 29.7567 13.3086 29.6072 13.3833C29.2334 13.4581 28.6352 13.8319 28.6352 14.7291V18.0189C28.5605 18.617 28.4109 18.9908 28.1119 19.2151C28.4109 19.4394 28.5605 19.8133 28.6352 20.4114V23.7759C28.6352 24.6731 29.3081 25.0469 29.6072 25.1964C29.7567 25.2712 29.8315 25.4207 29.8315 25.5703C29.8315 25.7198 29.682 25.8693 29.4577 25.8693H28.6352Z" fill="url(#paint1_linear_1062_1602)"/>
<path d="M33.1968 25.3459C32.15 25.3459 31.1033 24.673 31.1033 23.4768V20.7104C31.1033 20.2618 30.2061 19.7384 29.8323 19.6637C29.6827 19.6637 29.5332 19.5141 29.5332 19.3646C29.5332 19.2151 29.608 19.0655 29.8323 19.0655C30.2061 18.9908 31.1033 18.4674 31.1033 18.0188V15.2525C31.1033 14.0562 32.2248 13.3833 33.1968 13.3833H34.0939C34.2435 13.3833 34.4678 13.5328 34.4678 13.6824C34.4678 13.8319 34.393 13.9814 34.2435 14.0562C33.9444 14.131 33.2715 14.43 33.3463 15.402V18.1683C33.2715 18.7665 33.122 19.1403 32.8229 19.3646C33.122 19.5889 33.2715 19.9627 33.3463 20.5609V23.3272C33.3463 24.2992 34.094 24.5983 34.3182 24.7478C34.4678 24.8226 34.5425 24.9721 34.5425 25.1216C34.5425 25.2711 34.393 25.4207 34.1687 25.4207H33.1968V25.3459Z" fill="url(#paint2_linear_1062_1602)"/>
<path d="M36.8597 23.1774C36.0372 23.1774 35.2896 22.9531 35.2148 21.3083V20.7101C35.2148 20.2616 34.5419 19.7382 34.2429 19.6634C34.0933 19.6634 34.0186 19.5139 34.0186 19.3644C34.0186 19.2148 34.0933 19.0653 34.2429 19.0653C34.5419 18.9905 35.2148 18.4672 35.2148 18.0186V17.4204C35.2148 15.5513 36.0372 15.5513 36.8597 15.5513H37.6073C37.7569 15.5513 37.9064 15.7008 37.9064 15.8503C37.9064 15.9999 37.8316 16.1494 37.6821 16.2242C37.5326 16.2989 36.9344 16.598 36.9344 17.57V18.1681C36.8597 18.7662 36.7101 19.1401 36.5606 19.3644C36.7849 19.5887 36.9344 19.9625 36.9344 20.5606V21.1587C36.9344 22.0559 37.4578 22.4298 37.6821 22.5793C37.8316 22.6541 37.8316 22.8036 37.8316 22.9531C37.8316 23.1027 37.6821 23.2522 37.5326 23.2522H36.8597V23.1774Z" fill="url(#paint3_linear_1062_1602)"/>
<path d="M41.0474 24.2245C40.1502 24.2245 39.1783 23.5516 39.1783 22.3553V20.7105C39.1783 20.2619 38.4306 19.7385 38.1315 19.6638C37.982 19.6638 37.9072 19.5142 37.9072 19.3647C37.9072 19.2152 37.982 19.0656 38.1315 19.0656C38.4306 18.9909 39.1783 18.4675 39.1783 18.0189V16.374C39.1783 15.1778 40.1502 14.5049 41.0474 14.5049H41.8698C42.0194 14.5049 42.1689 14.6544 42.1689 14.8039C42.1689 14.9535 42.0941 15.103 41.9446 15.1778C41.6455 15.2525 41.0474 15.6264 41.1222 16.5236V18.1684C41.0474 18.7666 40.8979 19.1404 40.6736 19.3647C40.8979 19.589 41.0474 19.9628 41.1222 20.561V22.2058C41.1222 23.103 41.7951 23.4768 41.9446 23.5516C42.0941 23.6264 42.1689 23.7759 42.1689 23.9254C42.1689 24.075 42.0194 24.2245 41.8698 24.2245H41.0474Z" fill="url(#paint4_linear_1062_1602)"/>
<path d="M11.2897 32.0001C8.37383 32.0001 5.53271 30.8786 3.43925 28.8599C1.27103 26.8412 0.0747664 24.0748 0 21.1589C0 20.7104 0 20.187 0.0747664 19.7384C0.373832 17.1963 1.79439 14.729 3.88785 13.0842C4.78505 12.4113 5.83178 12.0375 6.8785 12.0375C7.70093 12.0375 8.59813 12.2618 9.34579 12.7104C9.64486 10.3178 10.3178 8.29913 11.3645 6.65427C13.8318 2.69166 17.5701 0.598199 22.5794 0.149601C22.8785 0.149601 23.1028 0.149601 23.4019 0.149601C28.1122 6.84857e-05 32.2243 2.24306 35.1402 6.42998C35.2897 6.42998 35.3645 6.42998 35.514 6.42998H36.4112C37.4579 6.42998 38.5047 6.50474 39.4766 6.65427C45.9065 7.4767 50.7664 12.9346 50.7664 19.4393C50.7664 22.8786 49.4206 26.1683 46.9533 28.6356C46.729 28.8599 46.4299 29.0842 46.1308 29.3833C45.2336 30.0561 44.2617 30.6543 43.0654 31.1029C41.4953 31.701 39.7757 32.0001 37.9813 32.0001H11.2897ZM6.8785 14.729C6.42991 14.729 5.98131 14.8786 5.60748 15.1776C4.03738 16.3739 2.99065 18.1683 2.84112 19.9627C2.76636 20.3365 2.76636 20.7104 2.76636 21.0094C2.84112 25.4954 6.65421 29.159 11.215 29.159H37.8318C39.3271 29.159 40.6729 28.9347 41.9439 28.4861C42.9159 28.1122 43.6636 27.7384 44.3364 27.215C44.5607 27.0655 44.785 26.8412 44.9346 26.6169C46.8785 24.673 47.9252 22.1309 47.9252 19.4393C47.9252 14.2804 44.1122 10.0188 39.028 9.34586C38.2056 9.19633 37.3084 9.12156 36.3364 9.12156C35.5888 9.12156 34.8411 9.19633 34.0187 9.2711H33.6449L33.4206 8.97203C31.028 4.85988 27.6636 2.76642 23.4019 2.76642C23.1776 2.76642 23.028 2.76642 22.8037 2.76642C18.6168 3.14026 15.7757 4.78512 13.6822 8.00007C12.4112 10.0188 11.8131 12.5608 11.8131 15.9253C11.8131 16.5982 11.7383 17.944 11.7383 19.4393C11.7383 19.7384 12.0374 21.0842 13.4579 21.0842C14.3551 21.0842 15.028 20.3365 15.028 19.4393C15.028 19.1403 15.1028 18.7664 15.3271 18.5421L16.5981 16.673C16.7477 16.5234 16.8972 16.4487 17.0467 16.4487C17.3458 16.4487 17.6449 16.7477 17.6449 17.0468V19.4393C17.6449 20.6356 17.1963 21.7571 16.3738 22.6543C15.5514 23.4767 14.5794 23.9253 13.3832 23.9253H13.2336C10.9159 23.8505 9.04673 21.9814 8.97196 19.7384V16.972C9.1215 15.5515 7.92523 14.729 6.8785 14.729Z" fill="url(#paint5_linear_1062_1602)"/>
<path d="M85.1183 14.8039L79.7352 27.2151C79.5856 27.5142 79.2866 27.7385 78.9875 27.7385C78.6884 27.7385 78.3894 27.589 78.2398 27.2899L74.0529 18.3927C74.0529 18.3179 73.9034 18.3179 73.9034 18.3927L69.7165 27.2899C69.5669 27.589 69.2679 27.7385 68.9688 27.7385C68.6697 27.7385 68.3707 27.5142 68.2211 27.2151L62.838 14.8039C62.5389 13.8319 63.2118 12.7104 64.2585 12.7104C64.8567 12.7104 65.38 13.0843 65.6043 13.6076L69.0436 22.131C69.0436 22.2058 69.1931 22.2058 69.1931 22.131L73.2305 13.159C73.38 12.86 73.6791 12.7104 73.9782 12.7104C74.2772 12.7104 74.5763 12.86 74.7258 13.159L78.838 22.0562C78.838 22.131 78.9875 22.131 78.9875 22.0562L82.352 13.6076C82.5763 13.0095 83.0996 12.7104 83.6978 12.7104C84.8193 12.7104 85.5669 13.8319 85.1183 14.8039Z" fill="white"/>
<path d="M89.6033 21.2335C89.9771 23.5513 91.8463 24.9719 94.2388 24.9719C95.3603 24.9719 96.407 24.6728 97.379 23.9999C97.9771 23.6261 98.7248 23.7756 99.1734 24.3737C99.622 24.9719 99.3977 25.7943 98.8743 26.1681C97.4538 27.1401 95.9584 27.6635 94.164 27.6635C89.8276 27.6635 86.4631 24.4485 86.4631 20.1868C86.3883 16.0747 89.8276 12.6354 93.865 12.7102C97.6781 12.7102 100.444 15.5513 100.444 19.2896C100.444 19.6635 100.444 20.0373 100.37 20.4859C100.295 20.9345 99.921 21.2335 99.4724 21.2335H89.6033ZM97.4538 18.841C97.4538 16.6728 95.8089 15.327 93.7902 15.327C91.7715 15.327 90.1267 16.6728 89.6781 18.841H97.4538Z" fill="white"/>
<path d="M193.828 21.2335C194.202 23.5513 196.071 24.9719 198.463 24.9719C199.585 24.9719 200.632 24.6728 201.604 23.9999C202.202 23.6261 202.949 23.7756 203.398 24.3737C203.847 24.9719 203.622 25.7943 203.099 26.1681C201.678 27.1401 200.183 27.6635 198.389 27.6635C194.052 27.6635 190.688 24.4485 190.688 20.1868C190.613 16.0747 194.052 12.6354 198.09 12.7102C201.903 12.7102 204.669 15.5513 204.669 19.2896C204.669 19.6635 204.669 20.0373 204.594 20.4859C204.519 20.9345 204.146 21.2335 203.697 21.2335H193.828ZM201.604 18.841C201.604 16.6728 199.959 15.327 197.94 15.327C195.921 15.327 194.277 16.6728 193.828 18.841H201.604Z" fill="white"/>
<path d="M111.137 27.6636C109.043 27.6636 107.174 26.8411 106.127 25.3458V26.243C106.127 27.0654 105.454 27.6636 104.707 27.6636C103.884 27.6636 103.286 26.9907 103.286 26.243V7.02804C103.286 6.20561 103.959 5.53271 104.781 5.53271C105.604 5.53271 106.277 6.20561 106.277 7.02804V14.8037C107.324 13.4579 109.043 12.7103 111.062 12.7103C115.099 12.7103 118.09 15.9252 118.09 20.1869C118.165 24.4486 115.174 27.6636 111.137 27.6636ZM110.613 15.5514C108.37 15.5514 106.277 17.1215 106.277 20.2617C106.277 23.4019 108.37 24.8972 110.613 24.8972C113.081 24.8972 114.95 22.9533 114.95 20.1869C115.024 17.4206 113.081 15.5514 110.613 15.5514Z" fill="white"/>
<path d="M131.922 27.6636C131.099 27.6636 130.426 26.9907 130.426 26.1682V18.8411C130.426 16.8972 129.23 15.5514 127.286 15.5514C125.342 15.5514 123.997 16.8972 123.997 18.8411V26.1682C123.997 26.9907 123.324 27.6636 122.501 27.6636C121.679 27.6636 121.006 26.9907 121.006 26.1682V7.02804C121.006 6.20561 121.679 5.53271 122.501 5.53271C123.324 5.53271 123.997 6.20561 123.997 7.02804V14.5047C124.968 13.3832 126.389 12.7851 128.109 12.7851C131.398 12.7851 133.417 15.1028 133.417 18.4673V26.243C133.417 26.9907 132.744 27.6636 131.922 27.6636Z" fill="white"/>
<path d="M170.949 5.53271C171.772 5.53271 172.445 6.20561 172.445 7.02804V26.1682C172.445 26.9907 171.772 27.6636 170.949 27.6636C170.127 27.6636 169.454 26.9907 169.454 26.1682V7.02804C169.379 6.20561 170.052 5.53271 170.949 5.53271ZM179.697 27.6636C179.248 27.6636 178.8 27.4393 178.575 27.0654L172.519 19.2897L177.977 13.1589C178.276 12.8598 178.65 12.7103 179.024 12.7103C180.22 12.7103 180.893 14.1308 180.071 15.028L176.183 19.2897L180.893 25.271C181.566 26.3178 180.893 27.6636 179.697 27.6636Z" fill="white"/>
<path d="M185.753 5.68213C186.874 5.68213 187.846 6.57933 187.846 7.70082C187.846 8.82232 186.949 9.71951 185.753 9.71951C184.556 9.71951 183.659 8.82232 183.659 7.70082C183.659 6.57933 184.556 5.68213 185.753 5.68213ZM185.753 12.7102C186.575 12.7102 187.248 13.3831 187.248 14.2055V26.0933C187.248 26.9158 186.575 27.5887 185.753 27.5887C184.93 27.5887 184.257 26.9158 184.257 26.0933V14.2055C184.183 13.3831 184.855 12.7102 185.753 12.7102Z" fill="white"/>
<path d="M143.66 27.6638C142.24 27.6638 140.819 27.2152 139.623 26.4675C139.548 26.3927 139.474 26.3927 139.399 26.318C139.324 26.2432 139.249 26.2432 139.174 26.1684C139.1 26.0937 139.025 26.0937 138.95 26.0189C138.875 26.0189 138.875 25.9441 138.875 25.9441C138.801 25.8694 138.726 25.7946 138.651 25.7198C138.576 25.6451 138.502 25.5703 138.352 25.4955C137.604 24.7479 137.006 23.8507 136.632 22.8787C136.632 22.804 136.632 22.804 136.632 22.804C136.333 22.0563 136.184 21.3086 136.184 20.4862C136.034 16.4488 139.174 13.0096 143.212 12.7853C146.427 12.561 149.343 14.4301 150.614 17.4208L150.988 18.4675L152.408 16.5236C152.931 15.7759 153.53 15.103 154.277 14.5049C155.773 13.3086 157.193 12.7853 158.988 12.7853C161.679 12.7853 164.146 14.2058 165.417 16.5236C165.492 16.5984 165.492 16.6731 165.567 16.7479C165.642 16.8226 165.642 16.8974 165.717 16.9722C165.866 17.1965 165.941 17.4955 166.016 17.7946C166.09 17.9441 166.09 18.0189 166.165 18.1684C166.24 18.4675 166.315 18.7666 166.389 19.0656C166.389 19.1404 166.389 19.2899 166.464 19.3647C166.464 19.6638 166.539 19.8881 166.539 20.1871C166.539 20.2619 166.539 20.4114 166.539 20.4862C166.539 20.6357 166.539 20.7105 166.539 20.86C166.389 22.0563 166.016 23.1778 165.417 24.2245C165.343 24.2993 165.268 24.3741 165.268 24.5236C165.193 24.5984 165.193 24.6731 165.118 24.7479C165.044 24.8226 164.969 24.8974 164.894 24.9722C163.922 26.1684 162.502 27.0656 161.006 27.4395C160.857 27.4395 160.782 27.5142 160.632 27.5142C160.558 27.5142 160.408 27.5142 160.333 27.589C160.259 27.589 160.109 27.589 160.034 27.6638C159.735 27.6638 159.436 27.7385 159.137 27.7385C157.717 27.7385 156.371 27.3647 155.249 26.617C155.174 26.5423 155.1 26.5423 155.025 26.4675C154.352 26.0189 154.128 25.2712 154.352 24.5236C154.576 24.0002 155.1 23.6264 155.773 23.6264C155.922 23.6264 156.146 23.7012 156.221 23.7012C156.221 23.7012 156.52 23.8507 156.745 24.0002C157.417 24.3741 158.016 24.6731 158.838 24.6731C158.913 24.6731 158.988 24.6731 158.988 24.6731C160.632 24.6731 162.128 23.7759 162.875 22.3554C162.95 22.2806 162.95 22.2058 163.025 22.1311C163.324 21.5329 163.474 20.86 163.474 20.2619C163.474 19.8881 163.399 19.4395 163.324 19.0656C162.801 17.1217 161.006 15.7759 159.062 15.7759C157.717 15.7759 156.446 16.4488 155.474 17.5703C155.1 18.0189 149.866 24.7479 149.791 24.8227C148.146 26.617 145.978 27.6638 143.66 27.6638ZM143.66 15.7759C141.193 15.7759 139.249 17.7946 139.249 20.2619C139.249 22.7292 141.268 24.7479 143.66 24.7479C146.128 24.7479 148.146 22.7292 148.146 20.2619C148.146 17.7198 146.128 15.7759 143.66 15.7759Z" fill="white"/>
<defs>
<linearGradient id="paint0_linear_1062_1602" x1="22.694" y1="16.5986" x2="16.374" y2="19.8054" gradientUnits="userSpaceOnUse">
<stop stop-color="#0061F1"/>
<stop offset="1" stop-color="#0061F1"/>
</linearGradient>
<linearGradient id="paint1_linear_1062_1602" x1="27.2545" y1="15.9334" x2="20.5174" y2="18.7885" gradientUnits="userSpaceOnUse">
<stop stop-color="#0061F1"/>
<stop offset="1" stop-color="#0061F1"/>
</linearGradient>
<linearGradient id="paint2_linear_1062_1602" x1="31.8863" y1="16.3316" x2="25.2158" y2="19.5169" gradientUnits="userSpaceOnUse">
<stop stop-color="#0061F1"/>
<stop offset="1" stop-color="#0061F1"/>
</linearGradient>
<linearGradient id="paint3_linear_1062_1602" x1="35.8448" y1="17.4374" x2="31.0847" y2="20.195" gradientUnits="userSpaceOnUse">
<stop stop-color="#0061F1"/>
<stop offset="1" stop-color="#0061F1"/>
</linearGradient>
<linearGradient id="paint4_linear_1062_1602" x1="39.9091" y1="16.8855" x2="34.3479" y2="19.6835" gradientUnits="userSpaceOnUse">
<stop stop-color="#0061F1"/>
<stop offset="1" stop-color="#0061F1"/>
</linearGradient>
<linearGradient id="paint5_linear_1062_1602" x1="23.847" y1="7.94529" x2="4.73494" y2="42.8931" gradientUnits="userSpaceOnUse">
<stop stop-color="#0061F1"/>
<stop offset="1" stop-color="#0061F1"/>
</linearGradient>
</defs>
</svg>
