<svg width="850" height="482" viewBox="0 0 850 482" fill="none" xmlns="http://www.w3.org/2000/svg">
<g opacity="0.6">
<path d="M638.831 381.672L638.834 381.665L764.096 111.478L764.1 111.468L766.775 105.53L638.831 381.672ZM638.831 381.672C638.028 383.444 636.734 384.947 635.102 386.006C634.228 386.573 633.208 387.175 632.164 387.635C631.11 388.099 630.1 388.387 629.228 388.393C629.226 388.393 629.225 388.393 629.223 388.393L507.257 388.393L507.251 388.393M638.831 381.672L507.251 388.393M507.251 388.393C506.471 388.398 505.703 388.202 505.021 387.824C504.34 387.445 503.767 386.897 503.36 386.232C502.952 385.568 502.723 384.809 502.694 384.03C502.666 383.253 502.838 382.482 503.195 381.791C503.196 381.789 503.197 381.787 503.197 381.786L650.63 104.779L650.634 104.771M507.251 388.393L650.634 104.771M650.634 104.771L650.638 104.764M650.634 104.771L650.638 104.764M650.638 104.764C651.205 103.654 652.069 102.723 653.133 102.075C654.198 101.426 655.422 101.087 656.668 101.093H656.673M650.638 104.764L656.673 101.093M656.673 101.093H763.724C764.271 101.093 764.635 101.181 764.911 101.294C765.199 101.412 765.438 101.573 765.754 101.802L766.341 100.993M656.673 101.093L766.341 100.993M766.341 100.993L765.754 101.802C766.21 102.133 766.46 102.499 766.776 102.992M766.341 100.993L766.776 102.992M766.776 102.992C766.949 103.262 767.039 103.718 767.083 104.315M766.776 102.992L767.083 104.315M767.083 104.315C767.108 104.652 767.004 105.018 766.776 105.528L767.083 104.315Z" fill="url(#paint0_linear_553_5780)"/>
<path d="M638.831 381.672L638.834 381.665L764.096 111.478L764.1 111.468L766.775 105.53L638.831 381.672ZM638.831 381.672C638.028 383.444 636.734 384.947 635.102 386.006C634.228 386.573 633.208 387.175 632.164 387.635C631.11 388.099 630.1 388.387 629.228 388.393C629.226 388.393 629.225 388.393 629.223 388.393L507.257 388.393L507.251 388.393M638.831 381.672L507.251 388.393M507.251 388.393C506.471 388.398 505.703 388.202 505.021 387.824C504.34 387.445 503.767 386.897 503.36 386.232C502.952 385.568 502.723 384.809 502.694 384.03C502.666 383.253 502.838 382.482 503.195 381.791C503.196 381.789 503.197 381.787 503.197 381.786L650.63 104.779L650.634 104.771M507.251 388.393L650.634 104.771M650.634 104.771L650.638 104.764M650.634 104.771L650.638 104.764M650.638 104.764C651.205 103.654 652.069 102.723 653.133 102.075C654.198 101.426 655.422 101.087 656.668 101.093H656.673M650.638 104.764L656.673 101.093M656.673 101.093H763.724C764.271 101.093 764.635 101.181 764.911 101.294C765.199 101.412 765.438 101.573 765.754 101.802L766.341 100.993M656.673 101.093L766.341 100.993M766.341 100.993L765.754 101.802C766.21 102.133 766.46 102.499 766.776 102.992M766.341 100.993L766.776 102.992M766.776 102.992C766.949 103.262 767.039 103.718 767.083 104.315M766.776 102.992L767.083 104.315M767.083 104.315C767.108 104.652 767.004 105.018 766.776 105.528L767.083 104.315Z" stroke="url(#paint1_linear_553_5780)" stroke-opacity="0.2" stroke-width="2"/>
<path d="M638.831 381.672L638.834 381.665L764.096 111.478L764.1 111.468L766.775 105.53L638.831 381.672ZM638.831 381.672C638.028 383.444 636.734 384.947 635.102 386.006C634.228 386.573 633.208 387.175 632.164 387.635C631.11 388.099 630.1 388.387 629.228 388.393C629.226 388.393 629.225 388.393 629.223 388.393L507.257 388.393L507.251 388.393M638.831 381.672L507.251 388.393M507.251 388.393C506.471 388.398 505.703 388.202 505.021 387.824C504.34 387.445 503.767 386.897 503.36 386.232C502.952 385.568 502.723 384.809 502.694 384.03C502.666 383.253 502.838 382.482 503.195 381.791C503.196 381.789 503.197 381.787 503.197 381.786L650.63 104.779L650.634 104.771M507.251 388.393L650.634 104.771M650.634 104.771L650.638 104.764M650.634 104.771L650.638 104.764M650.638 104.764C651.205 103.654 652.069 102.723 653.133 102.075C654.198 101.426 655.422 101.087 656.668 101.093H656.673M650.638 104.764L656.673 101.093M656.673 101.093H763.724C764.271 101.093 764.635 101.181 764.911 101.294C765.199 101.412 765.438 101.573 765.754 101.802L766.341 100.993M656.673 101.093L766.341 100.993M766.341 100.993L765.754 101.802C766.21 102.133 766.46 102.499 766.776 102.992M766.341 100.993L766.776 102.992M766.776 102.992C766.949 103.262 767.039 103.718 767.083 104.315M766.776 102.992L767.083 104.315M767.083 104.315C767.108 104.652 767.004 105.018 766.776 105.528L767.083 104.315Z" stroke="url(#paint2_linear_553_5780)" stroke-width="2"/>
</g>
<g opacity="0.6">
<path d="M134.639 158.264C135.161 157.481 136.101 156.951 136.967 156.951H556.204C557.497 156.951 558.077 158.1 557.388 159.296L444.805 354.589C444.311 355.445 443.311 356.049 442.386 356.049H5.36537C4.00593 356.049 3.45269 354.787 4.27328 353.558L134.639 158.264Z" fill="url(#paint3_linear_553_5780)"/>
<path d="M134.639 158.264C135.161 157.481 136.101 156.951 136.967 156.951H556.204C557.497 156.951 558.077 158.1 557.388 159.296L444.805 354.589C444.311 355.445 443.311 356.049 442.386 356.049H5.36537C4.00593 356.049 3.45269 354.787 4.27328 353.558L134.639 158.264Z" stroke="url(#paint4_linear_553_5780)" stroke-opacity="0.2" stroke-width="2"/>
<path d="M134.639 158.264C135.161 157.481 136.101 156.951 136.967 156.951H556.204C557.497 156.951 558.077 158.1 557.388 159.296L444.805 354.589C444.311 355.445 443.311 356.049 442.386 356.049H5.36537C4.00593 356.049 3.45269 354.787 4.27328 353.558L134.639 158.264Z" stroke="url(#paint5_linear_553_5780)" stroke-width="2"/>
</g>
<rect x="53.4414" y="378.362" width="126.206" height="23.6028" rx="3.30138" fill="url(#paint6_linear_553_5780)"/>
<path d="M66.0779 391.31L66.1899 388.58H66.0639L64.2439 393.606L62.4239 388.58H62.2979L62.4099 391.31V395.664H60.5899V385.892H63.0679L64.2719 389.182H64.3839L65.5879 385.892H67.8979V395.664H66.0779V391.31ZM69.7685 395.664V394.11H71.8685V387.446H69.7685V385.892H76.0685V387.446H73.9685V394.11H76.0685V395.664H69.7685ZM81.817 395.832C80.5103 395.832 79.5397 395.393 78.905 394.516C78.2797 393.629 77.967 392.383 77.967 390.778C77.967 389.172 78.2797 387.931 78.905 387.054C79.5397 386.167 80.5103 385.724 81.817 385.724C82.321 385.724 82.7643 385.794 83.147 385.934C83.539 386.064 83.875 386.251 84.155 386.494C84.435 386.736 84.6637 387.03 84.841 387.376C85.0277 387.721 85.1723 388.108 85.275 388.538L83.315 389.014C83.259 388.78 83.1937 388.566 83.119 388.37C83.0443 388.174 82.9463 388.006 82.825 387.866C82.713 387.726 82.5683 387.618 82.391 387.544C82.223 387.46 82.0177 387.418 81.775 387.418C81.2057 387.418 80.7997 387.642 80.557 388.09C80.3237 388.528 80.207 389.14 80.207 389.924V391.632C80.207 392.416 80.3237 393.032 80.557 393.48C80.7997 393.918 81.2057 394.138 81.775 394.138C82.2603 394.138 82.6103 393.988 82.825 393.69C83.049 393.391 83.2123 393.008 83.315 392.542L85.275 393.018C85.1723 393.447 85.0277 393.834 84.841 394.18C84.6637 394.525 84.435 394.824 84.155 395.076C83.875 395.318 83.539 395.505 83.147 395.636C82.7643 395.766 82.321 395.832 81.817 395.832ZM89.2035 395.664H87.1315V385.892H90.9115C91.3875 385.892 91.8122 385.966 92.1855 386.116C92.5589 386.256 92.8715 386.461 93.1235 386.732C93.3849 387.002 93.5809 387.329 93.7115 387.712C93.8422 388.094 93.9075 388.524 93.9075 389C93.9075 389.69 93.7582 390.283 93.4595 390.778C93.1609 391.272 92.7362 391.599 92.1855 391.758L94.1035 395.664H91.8075L90.1695 392.038H89.2035V395.664ZM90.4075 390.414C90.9022 390.414 91.2429 390.32 91.4295 390.134C91.6255 389.947 91.7235 389.639 91.7235 389.21V388.79C91.7235 388.36 91.6255 388.052 91.4295 387.866C91.2429 387.679 90.9022 387.586 90.4075 387.586H89.2035V390.414H90.4075ZM98.9421 395.832C97.6354 395.832 96.6694 395.388 96.0441 394.502C95.4281 393.615 95.1201 392.374 95.1201 390.778C95.1201 389.182 95.4281 387.94 96.0441 387.054C96.6694 386.167 97.6354 385.724 98.9421 385.724C100.249 385.724 101.21 386.167 101.826 387.054C102.451 387.94 102.764 389.182 102.764 390.778C102.764 392.374 102.451 393.615 101.826 394.502C101.21 395.388 100.249 395.832 98.9421 395.832ZM98.9421 394.138C99.5394 394.138 99.9501 393.918 100.174 393.48C100.407 393.032 100.524 392.411 100.524 391.618V389.924C100.524 389.14 100.407 388.528 100.174 388.09C99.9501 387.642 99.5394 387.418 98.9421 387.418C98.3447 387.418 97.9294 387.642 97.6961 388.09C97.4721 388.528 97.3601 389.14 97.3601 389.924V391.632C97.3601 392.416 97.4721 393.032 97.6961 393.48C97.9294 393.918 98.3447 394.138 98.9421 394.138ZM107.463 395.832C106.641 395.832 105.927 395.696 105.321 395.426C104.714 395.155 104.224 394.786 103.851 394.32L105.069 392.976C105.423 393.368 105.811 393.657 106.231 393.844C106.66 394.03 107.094 394.124 107.533 394.124C108.037 394.124 108.419 394.012 108.681 393.788C108.942 393.564 109.073 393.242 109.073 392.822C109.073 392.476 108.97 392.215 108.765 392.038C108.569 391.86 108.233 391.734 107.757 391.66L106.735 391.492C105.857 391.342 105.223 391.02 104.831 390.526C104.439 390.022 104.243 389.41 104.243 388.692C104.243 387.749 104.551 387.021 105.167 386.508C105.783 385.985 106.646 385.724 107.757 385.724C108.513 385.724 109.171 385.84 109.731 386.074C110.291 386.307 110.743 386.624 111.089 387.026L109.899 388.356C109.637 388.066 109.329 387.842 108.975 387.684C108.62 387.516 108.219 387.432 107.771 387.432C106.828 387.432 106.357 387.819 106.357 388.594C106.357 388.93 106.459 389.182 106.665 389.35C106.879 389.518 107.225 389.644 107.701 389.728L108.723 389.91C109.516 390.05 110.127 390.348 110.557 390.806C110.986 391.263 111.201 391.879 111.201 392.654C111.201 393.111 111.121 393.536 110.963 393.928C110.804 394.31 110.566 394.646 110.249 394.936C109.931 395.216 109.539 395.435 109.073 395.594C108.615 395.752 108.079 395.832 107.463 395.832ZM113.211 395.664V385.892H119.455V387.614H115.311V389.854H119.315V391.576H115.311V393.942H119.455V395.664H113.211ZM123.902 395.664H121.83V385.892H125.61C126.086 385.892 126.51 385.966 126.884 386.116C127.257 386.256 127.57 386.461 127.822 386.732C128.083 387.002 128.279 387.329 128.41 387.712C128.54 388.094 128.606 388.524 128.606 389C128.606 389.69 128.456 390.283 128.158 390.778C127.859 391.272 127.434 391.599 126.884 391.758L128.802 395.664H126.506L124.868 392.038H123.902V395.664ZM125.106 390.414C125.6 390.414 125.941 390.32 126.128 390.134C126.324 389.947 126.422 389.639 126.422 389.21V388.79C126.422 388.36 126.324 388.052 126.128 387.866C125.941 387.679 125.6 387.586 125.106 387.586H123.902V390.414H125.106ZM132.156 395.664L129.566 385.892H131.904L133.052 390.862L133.626 393.676H133.738L134.326 390.862L135.488 385.892H137.714L135.124 395.664H132.156ZM139.165 395.664V394.11H141.265V387.446H139.165V385.892H145.465V387.446H143.365V394.11H145.465V395.664H139.165ZM151.213 395.832C149.907 395.832 148.936 395.393 148.301 394.516C147.676 393.629 147.363 392.383 147.363 390.778C147.363 389.172 147.676 387.931 148.301 387.054C148.936 386.167 149.907 385.724 151.213 385.724C151.717 385.724 152.161 385.794 152.543 385.934C152.935 386.064 153.271 386.251 153.551 386.494C153.831 386.736 154.06 387.03 154.237 387.376C154.424 387.721 154.569 388.108 154.671 388.538L152.711 389.014C152.655 388.78 152.59 388.566 152.515 388.37C152.441 388.174 152.343 388.006 152.221 387.866C152.109 387.726 151.965 387.618 151.787 387.544C151.619 387.46 151.414 387.418 151.171 387.418C150.602 387.418 150.196 387.642 149.953 388.09C149.72 388.528 149.603 389.14 149.603 389.924V391.632C149.603 392.416 149.72 393.032 149.953 393.48C150.196 393.918 150.602 394.138 151.171 394.138C151.657 394.138 152.007 393.988 152.221 393.69C152.445 393.391 152.609 393.008 152.711 392.542L154.671 393.018C154.569 393.447 154.424 393.834 154.237 394.18C154.06 394.525 153.831 394.824 153.551 395.076C153.271 395.318 152.935 395.505 152.543 395.636C152.161 395.766 151.717 395.832 151.213 395.832ZM156.584 395.664V385.892H162.828V387.614H158.684V389.854H162.688V391.576H158.684V393.942H162.828V395.664H156.584ZM168.184 395.832C167.363 395.832 166.649 395.696 166.042 395.426C165.436 395.155 164.946 394.786 164.572 394.32L165.79 392.976C166.145 393.368 166.532 393.657 166.952 393.844C167.382 394.03 167.816 394.124 168.254 394.124C168.758 394.124 169.141 394.012 169.402 393.788C169.664 393.564 169.794 393.242 169.794 392.822C169.794 392.476 169.692 392.215 169.486 392.038C169.29 391.86 168.954 391.734 168.478 391.66L167.456 391.492C166.579 391.342 165.944 391.02 165.552 390.526C165.16 390.022 164.964 389.41 164.964 388.692C164.964 387.749 165.272 387.021 165.888 386.508C166.504 385.985 167.368 385.724 168.478 385.724C169.234 385.724 169.892 385.84 170.452 386.074C171.012 386.307 171.465 386.624 171.81 387.026L170.62 388.356C170.359 388.066 170.051 387.842 169.696 387.684C169.342 387.516 168.94 387.432 168.492 387.432C167.55 387.432 167.078 387.819 167.078 388.594C167.078 388.93 167.181 389.182 167.386 389.35C167.601 389.518 167.946 389.644 168.422 389.728L169.444 389.91C170.238 390.05 170.849 390.348 171.278 390.806C171.708 391.263 171.922 391.879 171.922 392.654C171.922 393.111 171.843 393.536 171.684 393.928C171.526 394.31 171.288 394.646 170.97 394.936C170.653 395.216 170.261 395.435 169.794 395.594C169.337 395.752 168.8 395.832 168.184 395.832Z" fill="url(#paint7_linear_553_5780)"/>
<path d="M185.809 211.219L144.715 283.136" stroke="#66A3FF" stroke-width="1.65069" stroke-miterlimit="10"/>
<path d="M309.043 211.219L267.959 283.136" stroke="#66A3FF" stroke-width="1.65069" stroke-miterlimit="10"/>
<path d="M431.809 211.219L390.715 283.136" stroke="#66A3FF" stroke-width="1.65069" stroke-miterlimit="10"/>
<path d="M356.996 186.74C357.083 172.889 337.703 161.538 313.709 161.387C289.715 161.236 270.193 172.343 270.106 186.194C270.019 200.046 289.399 211.397 313.394 211.548C337.388 211.699 356.909 200.592 356.996 186.74Z" stroke="#66A3FF" stroke-width="1.65069" stroke-miterlimit="10"/>
<path d="M355.891 181.687H392.496" stroke="#66A3FF" stroke-width="1.65069" stroke-miterlimit="10"/>
<path d="M307.807 304.366H343.549" stroke="#66A3FF" stroke-width="1.65069" stroke-miterlimit="10"/>
<path d="M185.809 304.366H223.51" stroke="#66A3FF" stroke-width="1.65069" stroke-miterlimit="10"/>
<path d="M235.407 187.539C235.494 173.687 216.113 162.336 192.119 162.186C168.125 162.035 148.603 173.142 148.516 186.993C148.429 200.845 167.81 212.196 191.804 212.347C215.798 212.497 235.319 201.391 235.407 187.539Z" stroke="#66A3FF" stroke-width="1.65069" stroke-miterlimit="10"/>
<path d="M429.725 310.074C429.812 296.222 410.431 284.871 386.437 284.72C362.443 284.57 342.921 295.676 342.834 309.528C342.747 323.379 362.128 334.731 386.122 334.881C410.116 335.032 429.638 323.925 429.725 310.074Z" stroke="#66A3FF" stroke-width="1.65069" stroke-miterlimit="10"/>
<path d="M308.908 310.08C308.995 296.228 289.614 284.877 265.62 284.727C241.626 284.576 222.104 295.683 222.017 309.534C221.93 323.386 241.31 334.737 265.305 334.888C289.299 335.038 308.82 323.932 308.908 310.08Z" stroke="#66A3FF" stroke-width="1.65069" stroke-miterlimit="10"/>
<path d="M186.903 310.078C186.99 296.226 167.609 284.875 143.615 284.724C119.621 284.573 100.099 295.68 100.012 309.532C99.9251 323.383 119.306 334.734 143.3 334.885C167.294 335.036 186.816 323.929 186.903 310.078Z" stroke="#66A3FF" stroke-width="1.65069" stroke-miterlimit="10"/>
<path d="M478.569 186.544C478.656 172.693 459.275 161.342 435.281 161.191C411.287 161.04 391.765 172.147 391.678 185.999C391.591 199.85 410.972 211.201 434.966 211.352C458.96 211.503 478.482 200.396 478.569 186.544Z" stroke="#66A3FF" stroke-width="1.65069" stroke-miterlimit="10"/>
<path d="M234.717 181.687H271.49" stroke="#66A0F7" stroke-width="0.825346" stroke-miterlimit="10"/>
<path d="M638.789 294.874C628.349 300.908 611.349 300.87 600.825 294.799C590.301 288.728 589.392 273.081 599.888 267.048C610.384 261.014 629.821 261.923 640.345 267.985C650.869 274.046 649.266 288.85 638.789 294.874Z" fill="#6E798F"/>
<path d="M646.601 277.348C646.655 268.79 634.682 261.776 619.859 261.683C605.036 261.59 592.976 268.452 592.923 277.011C592.869 285.569 604.842 292.582 619.665 292.675C634.487 292.769 646.547 285.906 646.601 277.348Z" fill="url(#paint8_linear_553_5780)"/>
<path d="M638.789 281.992C628.349 288.025 611.349 287.988 600.825 281.917C590.301 275.846 589.392 260.19 599.888 254.166C610.384 248.141 629.821 249.041 640.345 255.102C650.869 261.164 649.266 275.967 638.789 281.992Z" fill="#6E798F"/>
<path d="M646.602 264.46C646.656 255.902 634.683 248.889 619.86 248.795C605.037 248.702 592.977 255.565 592.924 264.123C592.87 272.681 604.843 279.695 619.666 279.788C634.488 279.881 646.548 273.018 646.602 264.46Z" fill="url(#paint9_linear_553_5780)"/>
<path d="M638.789 269.109C628.349 275.134 611.349 275.105 600.825 269.025C590.301 262.944 589.392 247.307 599.888 241.283C610.384 235.259 629.821 236.149 640.345 242.22C650.869 248.291 649.266 263.076 638.789 269.109Z" fill="#6E798F"/>
<path d="M646.612 251.581C646.666 243.022 634.693 236.009 619.87 235.916C605.047 235.823 592.987 242.685 592.933 251.244C592.88 259.802 604.852 266.815 619.675 266.908C634.498 267.001 646.558 260.139 646.612 251.581Z" fill="url(#paint10_linear_553_5780)"/>
<path d="M603.505 282.16L602.465 281.561C602.303 281.441 602.17 281.286 602.078 281.108C601.985 280.929 601.935 280.731 601.931 280.53V277.719C601.931 277.316 602.174 277.138 602.465 277.307L603.505 277.907C603.669 278.024 603.804 278.179 603.899 278.358C603.993 278.537 604.044 278.735 604.049 278.937V281.748C604.049 282.151 603.805 282.338 603.505 282.16Z" fill="url(#paint11_linear_553_5780)"/>
<path d="M603.505 269.185L602.465 268.585C602.302 268.467 602.168 268.312 602.076 268.133C601.983 267.954 601.933 267.756 601.931 267.554V264.744C601.931 264.341 602.174 264.163 602.465 264.331L603.505 264.931C603.669 265.049 603.804 265.203 603.899 265.382C603.993 265.561 604.044 265.76 604.049 265.962V268.772C604.049 269.175 603.805 269.363 603.505 269.185Z" fill="url(#paint12_linear_553_5780)"/>
<path d="M603.505 294.912L602.465 294.303C602.303 294.186 602.17 294.032 602.078 293.855C601.985 293.678 601.935 293.482 601.931 293.282V290.471C601.931 290.077 602.174 289.89 602.465 290.068L603.505 290.668C603.671 290.784 603.807 290.938 603.902 291.117C603.996 291.296 604.047 291.496 604.049 291.698V294.509C604.049 294.902 603.805 295.08 603.505 294.912Z" fill="url(#paint13_linear_553_5780)"/>
<path d="M676.096 227.005C665.656 233.029 648.656 233.001 638.132 226.93C627.608 220.859 626.699 205.203 637.195 199.179C647.691 193.154 667.127 194.054 677.651 200.116C688.176 206.177 686.582 220.981 676.096 227.005Z" fill="#6E798F"/>
<path d="M683.884 209.475C683.937 200.917 671.965 193.903 657.142 193.81C642.319 193.717 630.259 200.579 630.205 209.138C630.151 217.696 642.124 224.709 656.947 224.802C671.77 224.895 683.83 218.033 683.884 209.475Z" fill="url(#paint14_linear_553_5780)"/>
<path d="M676.096 214.122C665.656 220.146 648.656 220.109 638.132 214.038C627.608 207.967 626.699 192.32 637.195 186.287C647.691 180.253 667.127 181.162 677.651 187.223C688.176 193.285 686.582 208.088 676.096 214.122Z" fill="#6E798F"/>
<path d="M683.884 196.586C683.937 188.028 671.965 181.015 657.142 180.921C642.319 180.828 630.259 187.691 630.205 196.249C630.151 204.807 642.124 211.821 656.947 211.914C671.77 212.007 683.83 205.144 683.884 196.586Z" fill="url(#paint15_linear_553_5780)"/>
<path d="M676.096 201.23C665.656 207.264 648.656 207.227 638.132 201.155C627.608 195.084 626.699 179.438 637.195 173.404C647.691 167.371 667.127 168.279 677.651 174.341C688.176 180.403 686.582 195.206 676.096 201.23Z" fill="#6E798F"/>
<path d="M683.883 183.708C683.937 175.149 671.964 168.136 657.142 168.043C642.319 167.95 630.259 174.812 630.205 183.371C630.151 191.929 642.124 198.942 656.947 199.035C671.77 199.128 683.83 192.266 683.883 183.708Z" fill="url(#paint16_linear_553_5780)"/>
<path d="M640.784 214.291L639.744 213.691C639.581 213.573 639.448 213.418 639.355 213.239C639.262 213.06 639.212 212.862 639.21 212.661V209.85C639.21 209.456 639.444 209.269 639.744 209.447L640.784 210.047C640.95 210.163 641.086 210.317 641.181 210.496C641.275 210.675 641.326 210.875 641.328 211.077V213.888C641.328 214.281 641.084 214.459 640.784 214.291Z" fill="url(#paint17_linear_553_5780)"/>
<path d="M640.786 201.315L639.727 200.715C639.563 200.597 639.43 200.442 639.337 200.263C639.245 200.085 639.195 199.886 639.192 199.685V196.874C639.192 196.481 639.427 196.303 639.727 196.471L640.767 197.071C640.932 197.188 641.067 197.343 641.161 197.522C641.256 197.701 641.307 197.899 641.31 198.102V200.912C641.329 201.306 641.085 201.484 640.786 201.315Z" fill="url(#paint18_linear_553_5780)"/>
<path d="M640.784 227.033L639.744 226.434C639.579 226.317 639.445 226.163 639.352 225.983C639.259 225.804 639.21 225.605 639.21 225.403V222.592C639.21 222.189 639.444 222.011 639.744 222.18L640.784 222.78C640.949 222.898 641.083 223.052 641.178 223.231C641.272 223.41 641.324 223.608 641.328 223.81V226.621C641.328 227.024 641.084 227.211 640.784 227.033Z" fill="url(#paint19_linear_553_5780)"/>
<path d="M713.376 159.135C702.927 165.159 685.936 165.122 675.412 159.05C664.888 152.979 663.979 137.333 674.4 131.299C684.821 125.266 704.333 126.174 714.857 132.236C725.381 138.298 723.816 153.12 713.376 159.135Z" fill="#6E798F"/>
<path d="M721.155 141.601C721.209 133.043 709.236 126.03 694.413 125.937C679.59 125.843 667.53 132.706 667.476 141.264C667.423 149.822 679.395 156.836 694.218 156.929C709.041 157.022 721.101 150.16 721.155 141.601Z" fill="url(#paint20_linear_553_5780)"/>
<path d="M713.376 146.243C702.927 152.277 685.936 152.239 675.412 146.168C664.888 140.097 663.979 124.451 674.4 118.454C684.821 112.458 704.389 113.292 714.885 119.391C725.381 125.491 723.816 140.219 713.376 146.243Z" fill="#6E798F"/>
<path d="M721.155 128.713C721.209 120.154 709.236 113.141 694.413 113.048C679.59 112.955 667.53 119.817 667.476 128.375C667.423 136.934 679.395 143.947 694.218 144.04C709.041 144.133 721.101 137.271 721.155 128.713Z" fill="url(#paint21_linear_553_5780)"/>
<path d="M713.376 133.361C702.927 139.395 685.936 139.357 675.412 133.286C664.888 127.215 663.979 111.559 674.4 105.535C684.821 99.5104 704.333 100.41 714.857 106.472C725.381 112.533 723.816 127.337 713.376 133.361Z" fill="#6E798F"/>
<path d="M721.165 115.833C721.219 107.275 709.246 100.262 694.423 100.168C679.6 100.075 667.54 106.938 667.486 115.496C667.432 124.054 679.405 131.068 694.228 131.161C709.051 131.254 721.111 124.391 721.165 115.833Z" fill="url(#paint22_linear_553_5780)"/>
<path d="M678.065 146.412L677.025 145.812C676.859 145.696 676.723 145.542 676.629 145.363C676.534 145.183 676.484 144.984 676.481 144.781V141.971C676.481 141.568 676.725 141.39 677.025 141.559L678.065 142.168C678.23 142.283 678.365 142.435 678.46 142.613C678.554 142.79 678.605 142.988 678.609 143.189V145.999C678.609 146.402 678.365 146.562 678.065 146.412Z" fill="url(#paint23_linear_553_5780)"/>
<path d="M678.065 133.445L677.025 132.836C676.86 132.721 676.725 132.568 676.631 132.391C676.536 132.213 676.485 132.016 676.481 131.815V129.004C676.481 128.611 676.725 128.423 677.025 128.592L678.065 129.201C678.231 129.317 678.367 129.471 678.462 129.65C678.556 129.83 678.607 130.029 678.609 130.231V133.042C678.609 133.445 678.365 133.614 678.065 133.445Z" fill="url(#paint24_linear_553_5780)"/>
<path d="M678.065 159.163L677.025 158.564C676.861 158.446 676.726 158.291 676.632 158.113C676.537 157.934 676.486 157.735 676.481 157.533V154.722C676.481 154.329 676.725 154.141 677.025 154.32L678.065 154.919C678.23 155.036 678.365 155.191 678.46 155.37C678.554 155.549 678.605 155.747 678.609 155.95V158.76C678.609 159.154 678.365 159.332 678.065 159.163Z" fill="url(#paint25_linear_553_5780)"/>
<path d="M601.537 362.753C591.098 368.777 574.098 368.74 563.583 362.669C553.068 356.597 552.15 340.951 562.59 334.917C573.029 328.884 592.522 329.793 603.046 335.854C613.57 341.916 611.987 356.719 601.537 362.753Z" fill="#6E798F"/>
<path d="M609.33 345.213C609.384 336.655 597.411 329.642 582.588 329.548C567.765 329.455 555.705 336.318 555.651 344.876C555.597 353.434 567.57 360.448 582.393 360.541C597.216 360.634 609.276 353.771 609.33 345.213Z" fill="url(#paint26_linear_553_5780)"/>
<path d="M601.537 349.871C591.098 355.905 574.098 355.867 563.583 349.796C553.068 343.725 552.15 328.079 562.59 322.045C573.029 316.011 592.522 316.92 603.046 322.982C613.57 329.044 611.987 343.837 601.537 349.871Z" fill="#6E798F"/>
<path d="M609.322 332.324C609.376 323.766 597.403 316.753 582.58 316.66C567.757 316.567 555.697 323.429 555.643 331.987C555.59 340.546 567.562 347.559 582.385 347.652C597.208 347.745 609.268 340.883 609.322 332.324Z" fill="url(#paint27_linear_553_5780)"/>
<path d="M601.537 336.98C591.098 343.013 574.098 342.976 563.583 336.905C553.068 330.833 552.15 315.178 562.59 309.153C573.029 303.129 592.522 304.028 603.046 310.09C613.57 316.152 611.987 330.955 601.537 336.98Z" fill="#6E798F"/>
<path d="M609.332 319.445C609.386 310.887 597.413 303.873 582.59 303.78C567.767 303.687 555.707 310.55 555.653 319.108C555.599 327.666 567.572 334.679 582.395 334.773C597.218 334.866 609.278 328.003 609.332 319.445Z" fill="url(#paint28_linear_553_5780)"/>
<path d="M566.234 350.04L565.185 349.431C565.021 349.313 564.888 349.158 564.795 348.979C564.703 348.8 564.653 348.602 564.65 348.4V345.59C564.65 345.196 564.894 345.009 565.185 345.177L566.234 345.786C566.397 345.905 566.531 346.059 566.623 346.238C566.716 346.417 566.766 346.615 566.768 346.817V349.628C566.768 350.021 566.525 350.208 566.234 350.04Z" fill="url(#paint29_linear_553_5780)"/>
<path d="M566.234 337.064L565.185 336.464C565.023 336.344 564.891 336.189 564.798 336.011C564.706 335.832 564.655 335.635 564.65 335.433V332.623C564.65 332.229 564.894 332.042 565.185 332.22L566.234 332.819C566.397 332.938 566.531 333.093 566.623 333.272C566.716 333.45 566.766 333.649 566.768 333.85V336.661C566.768 337.054 566.525 337.232 566.234 337.064Z" fill="url(#paint30_linear_553_5780)"/>
<path d="M566.234 362.781L565.185 362.182C565.022 362.062 564.89 361.907 564.797 361.729C564.705 361.55 564.654 361.352 564.65 361.151V358.34C564.65 357.947 564.894 357.769 565.185 357.938L566.234 358.537C566.396 358.657 566.529 358.812 566.622 358.99C566.714 359.169 566.764 359.367 566.768 359.568V362.379C566.768 362.772 566.525 362.988 566.234 362.781Z" fill="url(#paint31_linear_553_5780)"/>
<rect x="738.87" y="110.857" width="110.206" height="20.6028" rx="2.47604" fill="url(#paint32_linear_553_5780)"/>
<path d="M746.577 126.159V117.783H748.389V124.683H751.989V126.159H746.577ZM756.508 126.303C755.388 126.303 754.56 125.923 754.024 125.163C753.496 124.403 753.232 123.339 753.232 121.971C753.232 120.603 753.496 119.539 754.024 118.779C754.56 118.019 755.388 117.639 756.508 117.639C757.628 117.639 758.452 118.019 758.98 118.779C759.516 119.539 759.784 120.603 759.784 121.971C759.784 123.339 759.516 124.403 758.98 125.163C758.452 125.923 757.628 126.303 756.508 126.303ZM756.508 124.851C757.02 124.851 757.372 124.663 757.564 124.287C757.764 123.903 757.864 123.371 757.864 122.691V121.239C757.864 120.567 757.764 120.043 757.564 119.667C757.372 119.283 757.02 119.091 756.508 119.091C755.996 119.091 755.64 119.283 755.44 119.667C755.248 120.043 755.152 120.567 755.152 121.239V122.703C755.152 123.375 755.248 123.903 755.44 124.287C755.64 124.663 755.996 124.851 756.508 124.851ZM764.135 126.303C763.015 126.303 762.183 125.927 761.639 125.175C761.103 124.415 760.835 123.347 760.835 121.971C760.835 120.595 761.103 119.531 761.639 118.779C762.183 118.019 763.015 117.639 764.135 117.639C764.567 117.639 764.947 117.699 765.275 117.819C765.611 117.931 765.899 118.091 766.139 118.299C766.379 118.507 766.575 118.759 766.727 119.055C766.887 119.351 767.011 119.683 767.099 120.051L765.419 120.459C765.371 120.259 765.315 120.075 765.251 119.907C765.187 119.739 765.103 119.595 764.999 119.475C764.903 119.355 764.779 119.263 764.627 119.199C764.483 119.127 764.307 119.091 764.099 119.091C763.611 119.091 763.263 119.283 763.055 119.667C762.855 120.043 762.755 120.567 762.755 121.239V122.703C762.755 123.375 762.855 123.903 763.055 124.287C763.263 124.663 763.611 124.851 764.099 124.851C764.515 124.851 764.815 124.723 764.999 124.467C765.191 124.211 765.331 123.883 765.419 123.483L767.099 123.891C767.011 124.259 766.887 124.591 766.727 124.887C766.575 125.183 766.379 125.439 766.139 125.655C765.899 125.863 765.611 126.023 765.275 126.135C764.947 126.247 764.567 126.303 764.135 126.303ZM772.999 126.159L772.471 124.143H770.179L769.663 126.159H767.839L770.107 117.783H772.651L774.919 126.159H772.999ZM771.379 119.523H771.283L770.467 122.691H772.195L771.379 119.523ZM776.318 126.159V117.783H778.13V124.683H781.73V126.159H776.318ZM793.553 126.303C792.849 126.303 792.237 126.187 791.717 125.955C791.197 125.723 790.777 125.407 790.457 125.007L791.501 123.855C791.805 124.191 792.137 124.439 792.497 124.599C792.865 124.759 793.237 124.839 793.613 124.839C794.045 124.839 794.373 124.743 794.597 124.551C794.821 124.359 794.933 124.083 794.933 123.723C794.933 123.427 794.845 123.203 794.669 123.051C794.501 122.899 794.213 122.791 793.805 122.727L792.929 122.583C792.177 122.455 791.633 122.179 791.297 121.755C790.961 121.323 790.793 120.799 790.793 120.183C790.793 119.375 791.057 118.751 791.585 118.311C792.113 117.863 792.853 117.639 793.805 117.639C794.453 117.639 795.017 117.739 795.497 117.939C795.977 118.139 796.365 118.411 796.661 118.755L795.641 119.895C795.417 119.647 795.153 119.455 794.849 119.319C794.545 119.175 794.201 119.103 793.817 119.103C793.009 119.103 792.605 119.435 792.605 120.099C792.605 120.387 792.693 120.603 792.869 120.747C793.053 120.891 793.349 120.999 793.757 121.071L794.633 121.227C795.313 121.347 795.837 121.603 796.205 121.995C796.573 122.387 796.757 122.915 796.757 123.579C796.757 123.971 796.689 124.335 796.553 124.671C796.417 124.999 796.213 125.287 795.941 125.535C795.669 125.775 795.333 125.963 794.933 126.099C794.541 126.235 794.081 126.303 793.553 126.303ZM800.22 126.159V123.195L797.568 117.783H799.572L800.46 119.727L801.108 121.371H801.204L801.852 119.727L802.74 117.783H804.672L802.02 123.195V126.159H800.22ZM808.423 126.303C807.719 126.303 807.107 126.187 806.587 125.955C806.067 125.723 805.647 125.407 805.327 125.007L806.371 123.855C806.675 124.191 807.007 124.439 807.367 124.599C807.735 124.759 808.107 124.839 808.483 124.839C808.915 124.839 809.243 124.743 809.467 124.551C809.691 124.359 809.803 124.083 809.803 123.723C809.803 123.427 809.715 123.203 809.539 123.051C809.371 122.899 809.083 122.791 808.675 122.727L807.799 122.583C807.047 122.455 806.503 122.179 806.167 121.755C805.831 121.323 805.663 120.799 805.663 120.183C805.663 119.375 805.927 118.751 806.455 118.311C806.983 117.863 807.723 117.639 808.675 117.639C809.323 117.639 809.887 117.739 810.367 117.939C810.847 118.139 811.235 118.411 811.531 118.755L810.511 119.895C810.287 119.647 810.023 119.455 809.719 119.319C809.415 119.175 809.071 119.103 808.687 119.103C807.879 119.103 807.475 119.435 807.475 120.099C807.475 120.387 807.563 120.603 807.739 120.747C807.923 120.891 808.219 120.999 808.627 121.071L809.503 121.227C810.183 121.347 810.707 121.603 811.075 121.995C811.443 122.387 811.627 122.915 811.627 123.579C811.627 123.971 811.559 124.335 811.423 124.671C811.287 124.999 811.083 125.287 810.811 125.535C810.539 125.775 810.203 125.963 809.803 126.099C809.411 126.235 808.951 126.303 808.423 126.303ZM816.89 119.259V126.159H815.09V119.259H812.678V117.783H819.302V119.259H816.89ZM820.786 126.159V117.783H826.138V119.259H822.586V121.179H826.018V122.655H822.586V124.683H826.138V126.159H820.786ZM832.433 122.427L832.529 120.087H832.421L830.861 124.395L829.301 120.087H829.193L829.289 122.427V126.159H827.729V117.783H829.853L830.885 120.603H830.981L832.013 117.783H833.993V126.159H832.433V122.427ZM838.164 126.303C837.46 126.303 836.848 126.187 836.328 125.955C835.808 125.723 835.388 125.407 835.068 125.007L836.112 123.855C836.416 124.191 836.748 124.439 837.108 124.599C837.476 124.759 837.848 124.839 838.224 124.839C838.656 124.839 838.984 124.743 839.208 124.551C839.432 124.359 839.544 124.083 839.544 123.723C839.544 123.427 839.456 123.203 839.28 123.051C839.112 122.899 838.824 122.791 838.416 122.727L837.54 122.583C836.788 122.455 836.244 122.179 835.908 121.755C835.572 121.323 835.404 120.799 835.404 120.183C835.404 119.375 835.668 118.751 836.196 118.311C836.724 117.863 837.464 117.639 838.416 117.639C839.064 117.639 839.628 117.739 840.108 117.939C840.588 118.139 840.976 118.411 841.272 118.755L840.252 119.895C840.028 119.647 839.764 119.455 839.46 119.319C839.156 119.175 838.812 119.103 838.428 119.103C837.62 119.103 837.216 119.435 837.216 120.099C837.216 120.387 837.304 120.603 837.48 120.747C837.664 120.891 837.96 120.999 838.368 121.071L839.244 121.227C839.924 121.347 840.448 121.603 840.816 121.995C841.184 122.387 841.368 122.915 841.368 123.579C841.368 123.971 841.3 124.335 841.164 124.671C841.028 124.999 840.824 125.287 840.552 125.535C840.28 125.775 839.944 125.963 839.544 126.099C839.152 126.235 838.692 126.303 838.164 126.303Z" fill="url(#paint33_linear_553_5780)"/>
<rect x="664.589" y="249.516" width="110.206" height="20.6028" rx="2.47604" fill="url(#paint34_linear_553_5780)"/>
<path d="M672.103 264.817V256.441H675.343C675.751 256.441 676.115 256.505 676.435 256.633C676.755 256.753 677.023 256.929 677.239 257.161C677.463 257.393 677.631 257.673 677.743 258.001C677.855 258.329 677.911 258.697 677.911 259.105C677.911 259.513 677.855 259.881 677.743 260.209C677.631 260.537 677.463 260.817 677.239 261.049C677.023 261.281 676.755 261.461 676.435 261.589C676.115 261.709 675.751 261.769 675.343 261.769H673.915V264.817H672.103ZM673.915 260.317H674.887C675.311 260.317 675.603 260.237 675.763 260.077C675.931 259.917 676.015 259.653 676.015 259.285V258.925C676.015 258.557 675.931 258.293 675.763 258.133C675.603 257.973 675.311 257.893 674.887 257.893H673.915V260.317ZM681.315 264.817H679.539V256.441H682.779C683.187 256.441 683.551 256.505 683.871 256.633C684.191 256.753 684.459 256.929 684.675 257.161C684.899 257.393 685.067 257.673 685.179 258.001C685.291 258.329 685.347 258.697 685.347 259.105C685.347 259.697 685.219 260.205 684.963 260.629C684.707 261.053 684.343 261.333 683.871 261.469L685.515 264.817H683.547L682.143 261.709H681.315V264.817ZM682.347 260.317C682.771 260.317 683.063 260.237 683.223 260.077C683.391 259.917 683.475 259.653 683.475 259.285V258.925C683.475 258.557 683.391 258.293 683.223 258.133C683.063 257.973 682.771 257.893 682.347 257.893H681.315V260.317H682.347ZM686.962 264.817V263.485H688.762V257.773H686.962V256.441H692.362V257.773H690.562V263.485H692.362V264.817H686.962ZM695.825 264.817L693.605 256.441H695.609L696.593 260.701L697.085 263.113H697.181L697.685 260.701L698.681 256.441H700.589L698.369 264.817H695.825ZM706.153 264.817L705.625 262.801H703.333L702.817 264.817H700.993L703.261 256.441H705.805L708.073 264.817H706.153ZM704.533 258.181H704.437L703.621 261.349H705.349L704.533 258.181ZM712.868 257.917V264.817H711.068V257.917H708.656V256.441H715.28V257.917H712.868ZM716.763 264.817V256.441H722.115V257.917H718.563V259.837H721.995V261.313H718.563V263.341H722.115V264.817H716.763ZM734.466 264.961C733.346 264.961 732.514 264.585 731.97 263.833C731.434 263.073 731.166 262.005 731.166 260.629C731.166 259.253 731.434 258.189 731.97 257.437C732.514 256.677 733.346 256.297 734.466 256.297C734.898 256.297 735.278 256.357 735.606 256.477C735.942 256.589 736.23 256.749 736.47 256.957C736.71 257.165 736.906 257.417 737.058 257.713C737.218 258.009 737.342 258.341 737.43 258.709L735.75 259.117C735.702 258.917 735.646 258.733 735.582 258.565C735.518 258.397 735.434 258.253 735.33 258.133C735.234 258.013 735.11 257.921 734.958 257.857C734.814 257.785 734.638 257.749 734.43 257.749C733.942 257.749 733.594 257.941 733.386 258.325C733.186 258.701 733.086 259.225 733.086 259.897V261.361C733.086 262.033 733.186 262.561 733.386 262.945C733.594 263.321 733.942 263.509 734.43 263.509C734.846 263.509 735.146 263.381 735.33 263.125C735.522 262.869 735.662 262.541 735.75 262.141L737.43 262.549C737.342 262.917 737.218 263.249 737.058 263.545C736.906 263.841 736.71 264.097 736.47 264.313C736.23 264.521 735.942 264.681 735.606 264.793C735.278 264.905 734.898 264.961 734.466 264.961ZM739.213 264.817V256.441H741.025V263.341H744.625V264.817H739.213ZM749.145 264.961C748.025 264.961 747.197 264.581 746.661 263.821C746.133 263.061 745.869 261.997 745.869 260.629C745.869 259.261 746.133 258.197 746.661 257.437C747.197 256.677 748.025 256.297 749.145 256.297C750.265 256.297 751.089 256.677 751.617 257.437C752.153 258.197 752.421 259.261 752.421 260.629C752.421 261.997 752.153 263.061 751.617 263.821C751.089 264.581 750.265 264.961 749.145 264.961ZM749.145 263.509C749.657 263.509 750.009 263.321 750.201 262.945C750.401 262.561 750.501 262.029 750.501 261.349V259.897C750.501 259.225 750.401 258.701 750.201 258.325C750.009 257.941 749.657 257.749 749.145 257.749C748.633 257.749 748.277 257.941 748.077 258.325C747.885 258.701 747.789 259.225 747.789 259.897V261.361C747.789 262.033 747.885 262.561 748.077 262.945C748.277 263.321 748.633 263.509 749.145 263.509ZM755.44 256.441V261.745C755.44 262.009 755.448 262.253 755.464 262.477C755.488 262.693 755.536 262.877 755.608 263.029C755.688 263.181 755.804 263.301 755.956 263.389C756.108 263.469 756.316 263.509 756.58 263.509C756.844 263.509 757.052 263.469 757.204 263.389C757.356 263.301 757.468 263.181 757.54 263.029C757.62 262.877 757.668 262.693 757.684 262.477C757.708 262.253 757.72 262.009 757.72 261.745V256.441H759.52V261.505C759.52 262.081 759.48 262.585 759.4 263.017C759.328 263.449 759.184 263.809 758.968 264.097C758.752 264.385 758.452 264.601 758.068 264.745C757.684 264.889 757.188 264.961 756.58 264.961C755.972 264.961 755.476 264.889 755.092 264.745C754.708 264.601 754.408 264.385 754.192 264.097C753.976 263.809 753.828 263.449 753.748 263.017C753.676 262.585 753.64 262.081 753.64 261.505V256.441H755.44ZM761.183 256.441H763.883C765.011 256.441 765.847 256.801 766.391 257.521C766.935 258.241 767.207 259.277 767.207 260.629C767.207 261.981 766.935 263.017 766.391 263.737C765.847 264.457 765.011 264.817 763.883 264.817H761.183V256.441ZM763.763 263.401C764.299 263.401 764.691 263.229 764.939 262.885C765.187 262.541 765.311 262.041 765.311 261.385V259.861C765.311 259.213 765.187 258.717 764.939 258.373C764.691 258.029 764.299 257.857 763.763 257.857H762.959V263.401H763.763Z" fill="url(#paint35_linear_553_5780)"/>
<rect x="700.904" y="180.187" width="102.206" height="20.6028" rx="2.47604" fill="url(#paint36_linear_553_5780)"/>
<path d="M708.419 195.488V187.112H711.659C712.067 187.112 712.431 187.176 712.751 187.304C713.071 187.424 713.339 187.6 713.555 187.832C713.779 188.064 713.947 188.344 714.059 188.672C714.171 189 714.227 189.368 714.227 189.776C714.227 190.184 714.171 190.552 714.059 190.88C713.947 191.208 713.779 191.488 713.555 191.72C713.339 191.952 713.071 192.132 712.751 192.26C712.431 192.38 712.067 192.44 711.659 192.44H710.231V195.488H708.419ZM710.231 190.988H711.203C711.627 190.988 711.919 190.908 712.079 190.748C712.247 190.588 712.331 190.324 712.331 189.956V189.596C712.331 189.228 712.247 188.964 712.079 188.804C711.919 188.644 711.627 188.564 711.203 188.564H710.231V190.988ZM717.402 187.112V192.416C717.402 192.68 717.41 192.924 717.426 193.148C717.45 193.364 717.498 193.548 717.57 193.7C717.65 193.852 717.766 193.972 717.918 194.06C718.07 194.14 718.278 194.18 718.542 194.18C718.806 194.18 719.014 194.14 719.166 194.06C719.318 193.972 719.43 193.852 719.502 193.7C719.582 193.548 719.63 193.364 719.646 193.148C719.67 192.924 719.682 192.68 719.682 192.416V187.112H721.482V192.176C721.482 192.752 721.442 193.256 721.362 193.688C721.29 194.12 721.146 194.48 720.93 194.768C720.714 195.056 720.414 195.272 720.03 195.416C719.646 195.56 719.15 195.632 718.542 195.632C717.934 195.632 717.438 195.56 717.054 195.416C716.67 195.272 716.37 195.056 716.154 194.768C715.938 194.48 715.79 194.12 715.71 193.688C715.638 193.256 715.602 192.752 715.602 192.176V187.112H717.402ZM723.301 187.112H726.241C727.065 187.112 727.693 187.312 728.125 187.712C728.565 188.112 728.785 188.656 728.785 189.344C728.785 189.824 728.665 190.208 728.425 190.496C728.193 190.776 727.857 190.98 727.417 191.108V191.18C727.937 191.308 728.337 191.532 728.617 191.852C728.905 192.172 729.049 192.616 729.049 193.184C729.049 193.888 728.825 194.448 728.377 194.864C727.937 195.28 727.317 195.488 726.517 195.488H723.301V187.112ZM725.965 194.228C726.397 194.228 726.713 194.156 726.913 194.012C727.113 193.868 727.213 193.604 727.213 193.22V192.872C727.213 192.488 727.113 192.224 726.913 192.08C726.713 191.936 726.397 191.864 725.965 191.864H725.053V194.228H725.965ZM725.737 190.664C726.161 190.664 726.469 190.596 726.661 190.46C726.853 190.316 726.949 190.06 726.949 189.692V189.332C726.949 188.964 726.853 188.712 726.661 188.576C726.469 188.44 726.161 188.372 725.737 188.372H725.053V190.664H725.737ZM730.917 195.488V187.112H732.729V194.012H736.329V195.488H730.917ZM738.148 195.488V194.156H739.948V188.444H738.148V187.112H743.548V188.444H741.748V194.156H743.548V195.488H738.148ZM748.475 195.632C747.355 195.632 746.523 195.256 745.979 194.504C745.443 193.744 745.175 192.676 745.175 191.3C745.175 189.924 745.443 188.86 745.979 188.108C746.523 187.348 747.355 186.968 748.475 186.968C748.907 186.968 749.287 187.028 749.615 187.148C749.951 187.26 750.239 187.42 750.479 187.628C750.719 187.836 750.915 188.088 751.067 188.384C751.227 188.68 751.351 189.012 751.439 189.38L749.759 189.788C749.711 189.588 749.655 189.404 749.591 189.236C749.527 189.068 749.443 188.924 749.339 188.804C749.243 188.684 749.119 188.592 748.967 188.528C748.823 188.456 748.647 188.42 748.439 188.42C747.951 188.42 747.603 188.612 747.395 188.996C747.195 189.372 747.095 189.896 747.095 190.568V192.032C747.095 192.704 747.195 193.232 747.395 193.616C747.603 193.992 747.951 194.18 748.439 194.18C748.855 194.18 749.155 194.052 749.339 193.796C749.531 193.54 749.671 193.212 749.759 192.812L751.439 193.22C751.351 193.588 751.227 193.92 751.067 194.216C750.915 194.512 750.719 194.768 750.479 194.984C750.239 195.192 749.951 195.352 749.615 195.464C749.287 195.576 748.907 195.632 748.475 195.632ZM763.346 195.632C762.226 195.632 761.394 195.256 760.85 194.504C760.314 193.744 760.046 192.676 760.046 191.3C760.046 189.924 760.314 188.86 760.85 188.108C761.394 187.348 762.226 186.968 763.346 186.968C763.778 186.968 764.158 187.028 764.486 187.148C764.822 187.26 765.11 187.42 765.35 187.628C765.59 187.836 765.786 188.088 765.938 188.384C766.098 188.68 766.222 189.012 766.31 189.38L764.63 189.788C764.582 189.588 764.526 189.404 764.462 189.236C764.398 189.068 764.314 188.924 764.21 188.804C764.114 188.684 763.99 188.592 763.838 188.528C763.694 188.456 763.518 188.42 763.31 188.42C762.822 188.42 762.474 188.612 762.266 188.996C762.066 189.372 761.966 189.896 761.966 190.568V192.032C761.966 192.704 762.066 193.232 762.266 193.616C762.474 193.992 762.822 194.18 763.31 194.18C763.726 194.18 764.026 194.052 764.21 193.796C764.402 193.54 764.542 193.212 764.63 192.812L766.31 193.22C766.222 193.588 766.098 193.92 765.938 194.216C765.786 194.512 765.59 194.768 765.35 194.984C765.11 195.192 764.822 195.352 764.486 195.464C764.158 195.576 763.778 195.632 763.346 195.632ZM768.093 195.488V187.112H769.905V194.012H773.505V195.488H768.093ZM778.025 195.632C776.905 195.632 776.077 195.252 775.541 194.492C775.013 193.732 774.749 192.668 774.749 191.3C774.749 189.932 775.013 188.868 775.541 188.108C776.077 187.348 776.905 186.968 778.025 186.968C779.145 186.968 779.969 187.348 780.497 188.108C781.033 188.868 781.301 189.932 781.301 191.3C781.301 192.668 781.033 193.732 780.497 194.492C779.969 195.252 779.145 195.632 778.025 195.632ZM778.025 194.18C778.537 194.18 778.889 193.992 779.081 193.616C779.281 193.232 779.381 192.7 779.381 192.02V190.568C779.381 189.896 779.281 189.372 779.081 188.996C778.889 188.612 778.537 188.42 778.025 188.42C777.513 188.42 777.157 188.612 776.957 188.996C776.765 189.372 776.669 189.896 776.669 190.568V192.032C776.669 192.704 776.765 193.232 776.957 193.616C777.157 193.992 777.513 194.18 778.025 194.18ZM784.32 187.112V192.416C784.32 192.68 784.328 192.924 784.344 193.148C784.368 193.364 784.416 193.548 784.488 193.7C784.568 193.852 784.684 193.972 784.836 194.06C784.988 194.14 785.196 194.18 785.46 194.18C785.724 194.18 785.932 194.14 786.084 194.06C786.236 193.972 786.348 193.852 786.42 193.7C786.5 193.548 786.548 193.364 786.564 193.148C786.588 192.924 786.6 192.68 786.6 192.416V187.112H788.4V192.176C788.4 192.752 788.36 193.256 788.28 193.688C788.208 194.12 788.064 194.48 787.848 194.768C787.632 195.056 787.332 195.272 786.948 195.416C786.564 195.56 786.068 195.632 785.46 195.632C784.852 195.632 784.356 195.56 783.972 195.416C783.588 195.272 783.288 195.056 783.072 194.768C782.856 194.48 782.708 194.12 782.628 193.688C782.556 193.256 782.52 192.752 782.52 192.176V187.112H784.32ZM790.063 187.112H792.763C793.891 187.112 794.727 187.472 795.271 188.192C795.815 188.912 796.087 189.948 796.087 191.3C796.087 192.652 795.815 193.688 795.271 194.408C794.727 195.128 793.891 195.488 792.763 195.488H790.063V187.112ZM792.643 194.072C793.179 194.072 793.571 193.9 793.819 193.556C794.067 193.212 794.191 192.712 794.191 192.056V190.532C794.191 189.884 794.067 189.388 793.819 189.044C793.571 188.7 793.179 188.528 792.643 188.528H791.839V194.072H792.643Z" fill="url(#paint37_linear_553_5780)"/>
<rect x="626.623" y="318.845" width="102.206" height="20.6028" rx="2.47604" fill="url(#paint38_linear_553_5780)"/>
<path d="M634.15 325.77H637.09C637.914 325.77 638.542 325.97 638.974 326.37C639.414 326.77 639.634 327.314 639.634 328.002C639.634 328.482 639.514 328.866 639.274 329.154C639.042 329.434 638.706 329.638 638.266 329.766V329.838C638.786 329.966 639.186 330.19 639.466 330.51C639.754 330.83 639.898 331.274 639.898 331.842C639.898 332.546 639.674 333.106 639.226 333.522C638.786 333.938 638.166 334.146 637.366 334.146H634.15V325.77ZM636.814 332.886C637.246 332.886 637.562 332.814 637.762 332.67C637.962 332.526 638.062 332.262 638.062 331.878V331.53C638.062 331.146 637.962 330.882 637.762 330.738C637.562 330.594 637.246 330.522 636.814 330.522H635.902V332.886H636.814ZM636.586 329.322C637.01 329.322 637.318 329.254 637.51 329.118C637.702 328.974 637.798 328.718 637.798 328.35V327.99C637.798 327.622 637.702 327.37 637.51 327.234C637.318 327.098 637.01 327.03 636.586 327.03H635.902V329.322H636.586ZM647.321 334.146H641.297V332.502L643.937 330.306C644.393 329.914 644.721 329.574 644.921 329.286C645.121 328.998 645.221 328.694 645.221 328.374V328.254C645.221 327.902 645.117 327.638 644.909 327.462C644.701 327.278 644.421 327.186 644.069 327.186C643.669 327.186 643.361 327.302 643.145 327.534C642.929 327.766 642.777 328.042 642.689 328.362L641.117 327.762C641.213 327.474 641.345 327.202 641.513 326.946C641.681 326.682 641.893 326.454 642.149 326.262C642.413 326.07 642.717 325.918 643.061 325.806C643.405 325.686 643.801 325.626 644.249 325.626C644.705 325.626 645.113 325.69 645.473 325.818C645.833 325.946 646.137 326.122 646.385 326.346C646.633 326.57 646.821 326.838 646.949 327.15C647.077 327.454 647.141 327.786 647.141 328.146C647.141 328.498 647.081 328.822 646.961 329.118C646.849 329.406 646.689 329.678 646.481 329.934C646.281 330.19 646.041 330.438 645.761 330.678C645.489 330.918 645.197 331.158 644.885 331.398L643.289 332.634H647.321V334.146ZM649.02 325.77H651.96C652.784 325.77 653.412 325.97 653.844 326.37C654.284 326.77 654.504 327.314 654.504 328.002C654.504 328.482 654.384 328.866 654.144 329.154C653.912 329.434 653.576 329.638 653.136 329.766V329.838C653.656 329.966 654.056 330.19 654.336 330.51C654.624 330.83 654.768 331.274 654.768 331.842C654.768 332.546 654.544 333.106 654.096 333.522C653.656 333.938 653.036 334.146 652.236 334.146H649.02V325.77ZM651.684 332.886C652.116 332.886 652.432 332.814 652.632 332.67C652.832 332.526 652.932 332.262 652.932 331.878V331.53C652.932 331.146 652.832 330.882 652.632 330.738C652.432 330.594 652.116 330.522 651.684 330.522H650.772V332.886H651.684ZM651.456 329.322C651.88 329.322 652.188 329.254 652.38 329.118C652.572 328.974 652.668 328.718 652.668 328.35V327.99C652.668 327.622 652.572 327.37 652.38 327.234C652.188 327.098 651.88 327.03 651.456 327.03H650.772V329.322H651.456ZM663.879 334.146V325.77H667.119C667.527 325.77 667.891 325.834 668.211 325.962C668.531 326.082 668.799 326.258 669.015 326.49C669.239 326.722 669.407 327.002 669.519 327.33C669.631 327.658 669.687 328.026 669.687 328.434C669.687 328.842 669.631 329.21 669.519 329.538C669.407 329.866 669.239 330.146 669.015 330.378C668.799 330.61 668.531 330.79 668.211 330.918C667.891 331.038 667.527 331.098 667.119 331.098H665.691V334.146H663.879ZM665.691 329.646H666.663C667.087 329.646 667.379 329.566 667.539 329.406C667.707 329.246 667.791 328.982 667.791 328.614V328.254C667.791 327.886 667.707 327.622 667.539 327.462C667.379 327.302 667.087 327.222 666.663 327.222H665.691V329.646ZM675.622 334.146L675.094 332.13H672.802L672.286 334.146H670.462L672.73 325.77H675.274L677.542 334.146H675.622ZM674.002 327.51H673.906L673.09 330.678H674.818L674.002 327.51ZM680.525 334.146H678.749V325.77H681.989C682.397 325.77 682.761 325.834 683.081 325.962C683.401 326.082 683.669 326.258 683.885 326.49C684.109 326.722 684.277 327.002 684.389 327.33C684.501 327.658 684.557 328.026 684.557 328.434C684.557 329.026 684.429 329.534 684.173 329.958C683.917 330.382 683.553 330.662 683.081 330.798L684.725 334.146H682.757L681.353 331.038H680.525V334.146ZM681.557 329.646C681.981 329.646 682.273 329.566 682.433 329.406C682.601 329.246 682.685 328.982 682.685 328.614V328.254C682.685 327.886 682.601 327.622 682.433 327.462C682.273 327.302 681.981 327.222 681.557 327.222H680.525V329.646H681.557ZM689.773 327.246V334.146H687.973V327.246H685.561V325.77H692.185V327.246H689.773ZM695.108 328.578H694.976V334.146H693.44V325.77H695.6L697.508 331.338H697.64V325.77H699.176V334.146H697.016L695.108 328.578ZM701.103 334.146V325.77H706.455V327.246H702.903V329.166H706.335V330.642H702.903V332.67H706.455V334.146H701.103ZM710.267 334.146H708.491V325.77H711.731C712.139 325.77 712.503 325.834 712.823 325.962C713.143 326.082 713.411 326.258 713.627 326.49C713.851 326.722 714.019 327.002 714.131 327.33C714.243 327.658 714.299 328.026 714.299 328.434C714.299 329.026 714.171 329.534 713.915 329.958C713.659 330.382 713.295 330.662 712.823 330.798L714.467 334.146H712.499L711.095 331.038H710.267V334.146ZM711.299 329.646C711.723 329.646 712.015 329.566 712.175 329.406C712.343 329.246 712.427 328.982 712.427 328.614V328.254C712.427 327.886 712.343 327.622 712.175 327.462C712.015 327.302 711.723 327.222 711.299 327.222H710.267V329.646H711.299ZM718.482 334.29C717.778 334.29 717.166 334.174 716.646 333.942C716.126 333.71 715.706 333.394 715.386 332.994L716.43 331.842C716.734 332.178 717.066 332.426 717.426 332.586C717.794 332.746 718.166 332.826 718.542 332.826C718.974 332.826 719.302 332.73 719.526 332.538C719.75 332.346 719.862 332.07 719.862 331.71C719.862 331.414 719.774 331.19 719.598 331.038C719.43 330.886 719.142 330.778 718.734 330.714L717.858 330.57C717.106 330.442 716.562 330.166 716.226 329.742C715.89 329.31 715.722 328.786 715.722 328.17C715.722 327.362 715.986 326.738 716.514 326.298C717.042 325.85 717.782 325.626 718.734 325.626C719.382 325.626 719.946 325.726 720.426 325.926C720.906 326.126 721.294 326.398 721.59 326.742L720.57 327.882C720.346 327.634 720.082 327.442 719.778 327.306C719.474 327.162 719.13 327.09 718.746 327.09C717.938 327.09 717.534 327.422 717.534 328.086C717.534 328.374 717.622 328.59 717.798 328.734C717.982 328.878 718.278 328.986 718.686 329.058L719.562 329.214C720.242 329.334 720.766 329.59 721.134 329.982C721.502 330.374 721.686 330.902 721.686 331.566C721.686 331.958 721.618 332.322 721.482 332.658C721.346 332.986 721.142 333.274 720.87 333.522C720.598 333.762 720.262 333.95 719.862 334.086C719.47 334.222 719.01 334.29 718.482 334.29Z" fill="url(#paint39_linear_553_5780)"/>
<path fill-rule="evenodd" clip-rule="evenodd" d="M510.196 289.799L508.01 287.279C507.926 287.184 507.876 287.063 507.869 286.936C507.862 286.809 507.897 286.684 507.97 286.58C508.042 286.475 508.148 286.398 508.269 286.361C508.391 286.323 508.521 286.328 508.64 286.373L521.318 290.521C521.432 290.555 521.532 290.625 521.603 290.72C521.674 290.816 521.713 290.932 521.713 291.051C521.713 291.17 521.674 291.286 521.603 291.382C521.532 291.477 521.432 291.547 521.318 291.581L508.87 296.113C508.753 296.153 508.625 296.153 508.508 296.113C508.39 296.073 508.288 295.996 508.219 295.893C508.149 295.79 508.115 295.668 508.122 295.544C508.128 295.42 508.175 295.301 508.256 295.207L510.465 292.799H458.774C457.946 292.799 457.274 292.127 457.274 291.299C457.274 290.47 457.946 289.799 458.774 289.799H510.196Z" fill="#66A3FF"/>
<path fill-rule="evenodd" clip-rule="evenodd" d="M529.791 179.679L531.978 182.199C532.061 182.294 532.111 182.415 532.118 182.542C532.126 182.669 532.09 182.794 532.018 182.899C531.945 183.003 531.84 183.08 531.718 183.117C531.597 183.155 531.466 183.15 531.347 183.105L518.67 178.957C518.556 178.923 518.455 178.853 518.384 178.758C518.313 178.662 518.275 178.546 518.275 178.427C518.275 178.308 518.313 178.192 518.384 178.096C518.455 178.001 518.556 177.931 518.67 177.897L531.117 173.365C531.235 173.325 531.362 173.326 531.48 173.365C531.597 173.405 531.699 173.482 531.768 173.585C531.838 173.688 531.872 173.81 531.866 173.934C531.859 174.058 531.812 174.177 531.732 174.271L529.522 176.679L581.213 176.679C582.041 176.679 582.713 177.351 582.713 178.179C582.713 179.008 582.041 179.679 581.213 179.679L529.791 179.679Z" fill="#66A3FF"/>
<path d="M217.408 195.237C203.885 203.051 181.871 203.004 168.245 195.134C154.619 187.264 153.438 167.027 166.961 159.194C180.484 151.361 205.731 152.561 219.357 160.421C232.983 168.282 230.94 187.432 217.408 195.237Z" fill="#6E798F"/>
<path d="M227.505 172.535C227.574 161.452 212.065 152.369 192.863 152.249C173.662 152.128 158.04 161.015 157.97 172.098C157.9 183.182 173.41 192.264 192.611 192.385C211.813 192.506 227.435 183.618 227.505 172.535Z" fill="url(#paint40_linear_553_5780)"/>
<path d="M217.408 178.56C203.885 186.365 181.871 186.327 168.245 178.457C154.619 170.587 153.438 150.35 166.961 142.517C180.484 134.685 205.731 135.884 219.357 143.745C232.983 151.605 230.94 170.746 217.408 178.56Z" fill="#6E798F"/>
<path d="M227.505 155.847C227.574 144.763 212.065 135.681 192.863 135.56C173.662 135.439 158.04 144.327 157.97 155.41C157.9 166.493 173.41 175.576 192.611 175.696C211.813 175.817 227.435 166.93 227.505 155.847Z" fill="url(#paint41_linear_553_5780)"/>
<path d="M217.408 161.864C203.885 169.668 181.871 169.621 168.245 161.761C154.619 153.9 153.438 133.653 166.961 125.821C180.484 117.988 205.731 119.178 219.357 127.048C232.983 134.918 230.94 154.05 217.408 161.864Z" fill="#6E798F"/>
<path d="M227.505 139.159C227.574 128.075 212.065 118.993 192.863 118.872C173.662 118.752 158.04 127.639 157.97 138.722C157.9 149.805 173.41 158.888 192.611 159.008C211.813 159.129 227.435 150.242 227.505 139.159Z" fill="url(#paint42_linear_553_5780)"/>
<path d="M171.704 178.766L170.355 177.988C170.142 177.837 169.968 177.638 169.848 177.406C169.727 177.175 169.663 176.919 169.661 176.658V172.985C169.661 172.47 169.97 172.236 170.355 172.46L171.704 173.238C171.918 173.388 172.094 173.587 172.216 173.818C172.338 174.05 172.404 174.307 172.407 174.568V178.241C172.379 178.756 172.07 178.991 171.704 178.766Z" fill="url(#paint43_linear_553_5780)"/>
<path d="M171.704 161.967L170.355 161.189C170.143 161.035 169.97 160.834 169.85 160.601C169.729 160.369 169.665 160.111 169.661 159.85V156.186C169.661 155.671 169.97 155.437 170.355 155.652L171.704 156.43C171.919 156.582 172.094 156.783 172.216 157.015C172.338 157.248 172.404 157.507 172.407 157.77V161.442C172.379 161.948 172.07 162.192 171.704 161.967Z" fill="url(#paint44_linear_553_5780)"/>
<path d="M171.705 195.274L170.327 194.487C170.115 194.336 169.941 194.137 169.82 193.905C169.7 193.674 169.636 193.418 169.634 193.157V189.484C169.634 188.969 169.943 188.735 170.327 188.959L171.677 189.737C171.891 189.887 172.067 190.086 172.189 190.317C172.311 190.549 172.376 190.806 172.38 191.067V194.74C172.38 195.265 172.07 195.499 171.705 195.274Z" fill="url(#paint45_linear_553_5780)"/>
<path d="M169.053 318.665C155.52 326.469 133.507 326.422 119.881 318.562C106.254 310.701 105.074 290.455 118.606 282.622C132.138 274.789 157.376 275.979 171.002 283.849C184.628 291.719 182.576 310.851 169.053 318.665Z" fill="#6E798F"/>
<path d="M179.141 295.951C179.21 284.868 163.701 275.785 144.499 275.665C125.298 275.544 109.675 284.431 109.606 295.514C109.536 306.598 125.045 315.68 144.247 315.801C163.448 315.922 179.071 307.034 179.141 295.951Z" fill="url(#paint46_linear_553_5780)"/>
<path d="M169.053 301.979C155.52 309.783 133.507 309.736 119.881 301.876C106.254 294.015 105.074 273.769 118.606 265.936C132.138 258.103 157.376 259.293 171.002 267.163C184.628 275.033 182.576 294.165 169.053 301.979Z" fill="#6E798F"/>
<path d="M179.141 279.263C179.21 268.179 163.701 259.097 144.499 258.976C125.298 258.856 109.675 267.743 109.606 278.826C109.536 289.909 125.045 298.992 144.247 299.112C163.448 299.233 179.071 290.346 179.141 279.263Z" fill="url(#paint47_linear_553_5780)"/>
<path d="M169.053 285.283C155.52 293.097 133.507 293.05 119.881 285.18C106.254 277.31 105.074 257.072 118.606 249.24C132.138 241.407 157.376 242.607 171.002 250.467C184.628 258.328 182.576 277.478 169.053 285.283Z" fill="#6E798F"/>
<path d="M179.15 262.574C179.22 251.491 163.71 242.408 144.509 242.288C125.307 242.167 109.685 251.054 109.615 262.137C109.546 273.221 125.055 282.303 144.257 282.424C163.458 282.545 179.081 273.658 179.15 262.574Z" fill="url(#paint48_linear_553_5780)"/>
<path d="M123.319 302.232L121.969 301.454C121.757 301.302 121.583 301.102 121.461 300.871C121.339 300.641 121.273 300.385 121.267 300.124V296.451C121.267 295.936 121.585 295.701 121.969 295.917L123.319 296.704C123.532 296.855 123.705 297.054 123.826 297.286C123.946 297.517 124.01 297.773 124.012 298.034V301.707C124.012 302.232 123.703 302.419 123.319 302.232Z" fill="url(#paint49_linear_553_5780)"/>
<path d="M123.319 285.367L121.969 284.589C121.756 284.439 121.581 284.24 121.458 284.008C121.336 283.777 121.271 283.52 121.267 283.259V279.586C121.267 279.071 121.585 278.837 121.969 279.061L123.319 279.839C123.53 279.991 123.703 280.191 123.824 280.422C123.944 280.653 124.009 280.909 124.012 281.17V284.842C124.012 285.367 123.703 285.61 123.319 285.367Z" fill="url(#paint50_linear_553_5780)"/>
<path d="M123.319 318.702L121.969 317.925C121.757 317.772 121.583 317.573 121.461 317.342C121.339 317.111 121.273 316.855 121.267 316.594V312.922C121.267 312.406 121.585 312.172 121.969 312.388L123.319 313.175C123.532 313.326 123.705 313.525 123.826 313.756C123.946 313.988 124.01 314.244 124.012 314.505V318.159C124.012 318.693 123.703 318.927 123.319 318.702Z" fill="url(#paint51_linear_553_5780)"/>
<path d="M289.86 318.665C276.337 326.469 254.323 326.422 240.697 318.562C227.071 310.701 225.89 290.455 239.413 282.622C252.936 274.789 278.193 275.979 291.819 283.849C305.445 291.719 303.392 310.851 289.86 318.665Z" fill="#6E798F"/>
<path d="M299.958 295.953C300.028 284.87 284.518 275.787 265.317 275.667C246.115 275.546 230.493 284.433 230.423 295.516C230.353 306.6 245.863 315.682 265.064 315.803C284.266 315.923 299.888 307.036 299.958 295.953Z" fill="url(#paint52_linear_553_5780)"/>
<path d="M289.86 301.979C276.337 309.783 254.323 309.736 240.697 301.876C227.071 294.015 225.89 273.769 239.413 265.936C252.936 258.103 278.193 259.293 291.819 267.163C305.445 275.033 303.392 294.165 289.86 301.979Z" fill="#6E798F"/>
<path d="M299.958 279.265C300.028 268.182 284.518 259.099 265.317 258.979C246.115 258.858 230.493 267.745 230.423 278.828C230.353 289.912 245.863 298.994 265.064 299.115C284.266 299.235 299.888 290.348 299.958 279.265Z" fill="url(#paint53_linear_553_5780)"/>
<path d="M289.86 285.283C276.337 293.097 254.323 293.05 240.697 285.18C227.071 277.31 225.89 257.072 239.413 249.24C252.936 241.407 278.193 242.607 291.819 250.467C305.445 258.328 303.392 277.478 289.86 285.283Z" fill="#6E798F"/>
<path d="M299.958 262.577C300.028 251.493 284.518 242.411 265.317 242.29C246.115 242.169 230.493 251.057 230.423 262.14C230.353 273.223 245.863 282.306 265.064 282.426C284.266 282.547 299.888 273.66 299.958 262.577Z" fill="url(#paint54_linear_553_5780)"/>
<path d="M244.135 302.232L242.786 301.454C242.574 301.302 242.4 301.102 242.278 300.871C242.156 300.641 242.089 300.385 242.083 300.124V296.451C242.083 295.936 242.402 295.701 242.786 295.917L244.135 296.704C244.348 296.855 244.522 297.054 244.642 297.286C244.763 297.517 244.827 297.773 244.829 298.034V301.707C244.801 302.232 244.52 302.419 244.135 302.232Z" fill="url(#paint55_linear_553_5780)"/>
<path d="M244.135 285.367L242.786 284.589C242.572 284.439 242.397 284.24 242.275 284.008C242.153 283.777 242.087 283.52 242.083 283.259V279.586C242.083 279.071 242.402 278.837 242.786 279.061L244.135 279.839C244.347 279.991 244.52 280.191 244.64 280.422C244.761 280.653 244.825 280.909 244.829 281.17V284.842C244.801 285.367 244.52 285.61 244.135 285.367Z" fill="url(#paint56_linear_553_5780)"/>
<path d="M244.135 318.702L242.786 317.925C242.574 317.772 242.4 317.573 242.278 317.342C242.156 317.111 242.089 316.855 242.083 316.594V312.922C242.083 312.406 242.402 312.172 242.786 312.388L244.135 313.175C244.348 313.326 244.522 313.525 244.642 313.756C244.763 313.988 244.827 314.244 244.829 314.505V318.159C244.801 318.693 244.52 318.927 244.135 318.702Z" fill="url(#paint57_linear_553_5780)"/>
<path d="M410.676 318.665C397.153 326.47 375.14 326.423 361.514 318.562C347.888 310.702 346.707 290.455 360.23 282.623C373.753 274.79 399 275.98 412.626 283.85C426.252 291.72 424.209 310.852 410.676 318.665Z" fill="url(#paint58_linear_553_5780)"/>
<path d="M420.774 295.946C420.844 284.863 405.335 275.78 386.133 275.66C366.931 275.539 351.309 284.426 351.239 295.509C351.17 306.593 366.679 315.675 385.881 315.796C405.082 315.917 420.705 307.03 420.774 295.946Z" fill="url(#paint59_linear_553_5780)"/>
<path d="M410.676 301.979C397.153 309.784 375.14 309.737 361.514 301.876C347.888 294.016 346.707 273.769 360.23 265.936C373.753 258.104 399 259.294 412.626 267.164C426.252 275.034 424.209 294.166 410.676 301.979Z" fill="url(#paint60_linear_553_5780)"/>
<path d="M420.774 279.258C420.844 268.175 405.334 259.092 386.133 258.972C366.931 258.851 351.309 267.738 351.239 278.822C351.17 289.905 366.679 298.987 385.881 299.108C405.082 299.229 420.705 290.342 420.774 279.258Z" fill="url(#paint61_linear_553_5780)"/>
<path d="M410.676 285.283C397.153 293.097 375.14 293.05 361.514 285.18C347.888 277.31 346.707 257.073 360.23 249.24C373.753 241.408 399 242.607 412.626 250.468C426.252 258.328 424.209 277.479 410.676 285.283Z" fill="url(#paint62_linear_553_5780)"/>
<path d="M420.774 262.58C420.844 251.496 405.335 242.414 386.133 242.293C366.931 242.172 351.309 251.059 351.239 262.143C351.17 273.226 366.679 282.309 385.881 282.429C405.082 282.55 420.705 273.663 420.774 262.58Z" fill="url(#paint63_linear_553_5780)"/>
<path d="M364.943 302.232L363.594 301.454C363.383 301.302 363.21 301.102 363.09 300.871C362.97 300.64 362.905 300.384 362.9 300.124V296.451C362.9 295.936 363.21 295.702 363.594 295.917L364.943 296.704C365.158 296.854 365.334 297.053 365.456 297.284C365.579 297.516 365.644 297.773 365.646 298.035V301.707C365.693 302.232 365.337 302.419 364.943 302.232Z" fill="url(#paint64_linear_553_5780)"/>
<path d="M364.943 285.367L363.594 284.59C363.381 284.439 363.208 284.239 363.087 284.008C362.966 283.777 362.903 283.52 362.9 283.259V279.587C362.9 279.071 363.21 278.837 363.594 279.062L364.943 279.84C365.158 279.99 365.333 280.189 365.455 280.42C365.578 280.651 365.643 280.908 365.646 281.17V284.843C365.693 285.367 365.337 285.611 364.943 285.367Z" fill="url(#paint65_linear_553_5780)"/>
<path d="M364.943 318.703L363.594 317.925C363.383 317.772 363.21 317.573 363.09 317.342C362.97 317.111 362.905 316.855 362.9 316.595V312.922C362.9 312.407 363.21 312.173 363.594 312.388L364.943 313.175C365.158 313.325 365.334 313.523 365.456 313.755C365.579 313.986 365.644 314.244 365.646 314.505V318.159C365.693 318.693 365.337 318.928 364.943 318.703Z" fill="url(#paint66_linear_553_5780)"/>
<path d="M459.043 195.237C445.51 203.051 423.497 203.004 409.871 195.134C396.245 187.264 395.064 167.027 408.596 159.194C422.129 151.361 447.366 152.561 460.992 160.421C474.618 168.282 472.528 187.432 459.043 195.237Z" fill="#7086CA" stroke="#7086CA" stroke-width="0.412673" stroke-miterlimit="10"/>
<path d="M469.128 172.53C469.197 161.447 453.688 152.364 434.487 152.244C415.285 152.123 399.663 161.01 399.593 172.093C399.523 183.177 415.033 192.259 434.234 192.38C453.436 192.501 469.058 183.614 469.128 172.53Z" fill="url(#paint67_linear_553_5780)"/>
<path d="M459.043 178.56C445.51 186.365 423.497 186.327 409.871 178.457C396.245 170.587 395.064 150.35 408.596 142.517C422.129 134.685 447.366 135.884 460.992 143.745C474.618 151.605 472.528 170.746 459.043 178.56Z" fill="#7086CA"/>
<path d="M469.128 155.843C469.197 144.759 453.688 135.677 434.487 135.556C415.285 135.436 399.663 144.323 399.593 155.406C399.523 166.489 415.033 175.572 434.234 175.693C453.436 175.813 469.058 166.926 469.128 155.843Z" fill="url(#paint68_linear_553_5780)"/>
<path d="M459.043 161.864C445.51 169.668 423.497 169.621 409.871 161.761C396.245 153.9 395.064 133.653 408.596 125.821C422.129 117.988 447.366 119.178 460.992 127.048C474.618 134.918 472.528 154.05 459.043 161.864Z" fill="#7086CA"/>
<path d="M469.128 139.154C469.197 128.071 453.688 118.988 434.486 118.868C415.285 118.747 399.663 127.634 399.593 138.717C399.523 149.801 415.033 158.883 434.234 159.004C453.436 159.125 469.058 150.238 469.128 139.154Z" fill="url(#paint69_linear_553_5780)"/>
<path d="M413.31 178.766L411.96 177.988C411.747 177.837 411.574 177.638 411.453 177.406C411.333 177.175 411.269 176.919 411.267 176.658V172.985C411.267 172.47 411.576 172.236 411.96 172.46L413.31 173.238C413.522 173.39 413.697 173.589 413.819 173.82C413.941 174.051 414.007 174.307 414.012 174.568V178.241C414.012 178.756 413.694 178.991 413.31 178.766Z" fill="url(#paint70_linear_553_5780)"/>
<path d="M413.31 161.967L411.96 161.189C411.748 161.035 411.576 160.834 411.455 160.601C411.335 160.369 411.27 160.111 411.267 159.85V156.186C411.267 155.671 411.576 155.437 411.96 155.652L413.31 156.43C413.522 156.584 413.697 156.785 413.819 157.017C413.941 157.25 414.007 157.507 414.012 157.77V161.442C414.012 161.948 413.694 162.192 413.31 161.967Z" fill="url(#paint71_linear_553_5780)"/>
<path d="M413.31 195.275L411.96 194.497C411.747 194.346 411.574 194.146 411.453 193.915C411.333 193.684 411.269 193.427 411.267 193.167V189.494C411.267 188.979 411.576 188.744 411.96 188.969L413.31 189.747C413.522 189.899 413.697 190.098 413.819 190.329C413.941 190.56 414.007 190.816 414.012 191.077V194.75C414.012 195.265 413.694 195.499 413.31 195.275Z" fill="url(#paint72_linear_553_5780)"/>
<path d="M338.223 195.229C324.7 203.043 302.687 202.996 289.061 195.126C275.435 187.256 274.254 167.019 287.777 159.187C301.3 151.354 326.546 152.553 340.173 160.414C353.799 168.275 351.746 187.425 338.223 195.229Z" fill="#6E798F"/>
<path d="M348.308 172.53C348.378 161.447 332.869 152.364 313.667 152.244C294.466 152.123 278.843 161.01 278.774 172.093C278.704 183.177 294.213 192.259 313.415 192.38C332.616 192.501 348.239 183.614 348.308 172.53Z" fill="url(#paint73_linear_553_5780)"/>
<path d="M338.223 178.553C324.7 186.357 302.687 186.32 289.061 178.45C275.435 170.58 274.254 150.342 287.777 142.51C301.3 134.677 326.546 135.877 340.173 143.737C353.799 151.598 351.746 170.739 338.223 178.553Z" fill="#6E798F"/>
<path d="M348.318 155.842C348.388 144.758 332.878 135.676 313.677 135.555C294.475 135.435 278.853 144.322 278.783 155.405C278.714 166.488 294.223 175.571 313.425 175.692C332.626 175.812 348.249 166.925 348.318 155.842Z" fill="url(#paint74_linear_553_5780)"/>
<path d="M338.223 161.857C324.7 169.662 302.687 169.615 289.061 161.754C275.435 153.894 274.254 133.647 287.777 125.814C301.3 117.982 326.546 119.172 340.173 127.042C353.799 134.912 351.746 154.043 338.223 161.857Z" fill="#6E798F"/>
<path d="M348.318 139.154C348.388 128.071 332.878 118.988 313.677 118.868C294.475 118.747 278.853 127.634 278.783 138.717C278.714 149.801 294.223 158.883 313.425 159.004C332.626 159.125 348.249 150.238 348.318 139.154Z" fill="url(#paint75_linear_553_5780)"/>
<path d="M292.49 178.758L291.141 177.981C290.928 177.83 290.754 177.63 290.634 177.399C290.513 177.168 290.449 176.911 290.447 176.65V172.978C290.447 172.462 290.757 172.228 291.141 172.453L292.49 173.231C292.703 173.382 292.877 173.582 292.999 173.813C293.121 174.044 293.188 174.3 293.193 174.561V178.234C293.193 178.749 292.874 178.983 292.49 178.758Z" fill="url(#paint76_linear_553_5780)"/>
<path d="M292.49 161.96L291.141 161.182C290.929 161.028 290.756 160.826 290.636 160.594C290.515 160.361 290.451 160.104 290.447 159.842V156.179C290.447 155.664 290.757 155.429 291.141 155.645L292.49 156.423C292.703 156.576 292.877 156.777 292.999 157.01C293.121 157.242 293.188 157.5 293.193 157.762V161.435C293.193 161.941 292.874 162.184 292.49 161.96Z" fill="url(#paint77_linear_553_5780)"/>
<path d="M292.49 195.267L291.141 194.49C290.928 194.339 290.754 194.139 290.634 193.908C290.513 193.677 290.449 193.42 290.447 193.159V189.487C290.447 188.971 290.757 188.737 291.141 188.962L292.49 189.74C292.703 189.891 292.877 190.091 292.999 190.322C293.121 190.552 293.188 190.809 293.193 191.07V194.743C293.193 195.258 292.874 195.492 292.49 195.267Z" fill="url(#paint78_linear_553_5780)"/>
<path d="M435.345 107.12L450.5 115.87V133.37L435.345 142.12L420.189 133.37V115.87L435.345 107.12Z" fill="#7086CA"/>
<path d="M429.867 129.12L429.339 127.104H427.047L426.531 129.12H424.707L426.975 120.744H429.519L431.787 129.12H429.867ZM428.247 122.484H428.151L427.335 125.652H429.063L428.247 122.484ZM433.295 129.12V120.744H436.535C436.943 120.744 437.307 120.808 437.627 120.936C437.947 121.056 438.215 121.232 438.431 121.464C438.655 121.696 438.823 121.976 438.935 122.304C439.047 122.632 439.103 123 439.103 123.408C439.103 123.816 439.047 124.184 438.935 124.512C438.823 124.84 438.655 125.12 438.431 125.352C438.215 125.584 437.947 125.764 437.627 125.892C437.307 126.012 436.943 126.072 436.535 126.072H435.107V129.12H433.295ZM435.107 124.62H436.079C436.503 124.62 436.795 124.54 436.955 124.38C437.123 124.22 437.207 123.956 437.207 123.588V123.228C437.207 122.86 437.123 122.596 436.955 122.436C436.795 122.276 436.503 122.196 436.079 122.196H435.107V124.62ZM440.418 129.12V127.788H442.218V122.076H440.418V120.744H445.818V122.076H444.018V127.788H445.818V129.12H440.418Z" fill="white"/>
<path d="M386.345 232.12L401.5 240.87V258.37L386.345 267.12L371.189 258.37V240.87L386.345 232.12Z" fill="#0061F1"/>
<path d="M385.522 252.787C385.065 252.787 384.607 252.493 384.607 251.97V250.99C384.607 250.794 384.215 250.565 384.052 250.532C383.986 250.532 383.921 250.467 383.921 250.402C383.921 250.336 383.954 250.271 384.052 250.271C384.215 250.238 384.574 250.01 384.574 249.813V248.833C384.574 248.31 385.065 248.016 385.489 248.016H385.882C385.98 248.016 386.045 248.081 386.045 248.147C386.045 248.212 386.012 248.278 385.947 248.31C385.784 248.343 385.522 248.506 385.522 248.898V249.879C385.489 250.14 385.424 250.304 385.293 250.402C385.424 250.5 385.489 250.663 385.522 250.925V251.905C385.522 252.297 385.816 252.46 385.947 252.526C386.012 252.558 386.045 252.624 386.045 252.689C386.045 252.755 385.98 252.82 385.882 252.82H385.522V252.787Z" fill="white"/>
<path d="M387.516 253.245C387.059 253.245 386.601 252.951 386.601 252.428V250.958C386.601 250.762 386.209 250.533 386.046 250.5C385.98 250.5 385.915 250.435 385.915 250.369C385.915 250.304 385.948 250.239 386.046 250.239C386.209 250.206 386.569 249.977 386.569 249.781V248.311C386.569 247.788 387.059 247.494 387.484 247.494H387.876C387.974 247.494 388.039 247.559 388.039 247.624C388.039 247.69 388.006 247.755 387.941 247.788C387.778 247.82 387.516 247.984 387.516 248.376V249.814C387.484 250.075 387.418 250.239 387.288 250.337C387.418 250.435 387.484 250.598 387.516 250.86V252.33C387.516 252.722 387.81 252.886 387.941 252.951C388.006 252.984 388.039 253.049 388.039 253.114C388.039 253.18 387.974 253.245 387.876 253.245H387.516Z" fill="white"/>
<path d="M389.509 253.016C389.052 253.016 388.594 252.722 388.594 252.199V250.99C388.594 250.794 388.202 250.565 388.039 250.533C387.974 250.533 387.908 250.467 387.908 250.402C387.908 250.337 387.941 250.271 388.039 250.271C388.202 250.238 388.594 250.01 388.594 249.814V248.605C388.594 248.082 389.085 247.788 389.509 247.788H389.902C389.967 247.788 390.065 247.853 390.065 247.918C390.065 247.984 390.032 248.049 389.967 248.082C389.836 248.114 389.542 248.245 389.575 248.67V249.879C389.542 250.14 389.477 250.304 389.346 250.402C389.477 250.5 389.542 250.663 389.575 250.925V252.134C389.575 252.559 389.902 252.689 390 252.755C390.065 252.787 390.098 252.853 390.098 252.918C390.098 252.984 390.032 253.049 389.934 253.049H389.509V253.016Z" fill="white"/>
<path d="M391.11 252.068C390.75 252.068 390.424 251.97 390.391 251.251V250.99C390.391 250.794 390.097 250.565 389.966 250.532C389.901 250.532 389.868 250.467 389.868 250.401C389.868 250.336 389.901 250.271 389.966 250.271C390.097 250.238 390.391 250.009 390.391 249.813V249.552C390.391 248.735 390.75 248.735 391.11 248.735H391.437C391.502 248.735 391.567 248.8 391.567 248.866C391.567 248.931 391.535 248.996 391.469 249.029C391.404 249.062 391.143 249.192 391.143 249.617V249.879C391.11 250.14 391.045 250.303 390.979 250.401C391.077 250.5 391.143 250.663 391.143 250.924V251.186C391.143 251.578 391.371 251.741 391.469 251.807C391.535 251.839 391.535 251.905 391.535 251.97C391.535 252.035 391.469 252.101 391.404 252.101H391.11V252.068Z" fill="white"/>
<path d="M392.94 252.526C392.548 252.526 392.123 252.231 392.123 251.709V250.99C392.123 250.794 391.796 250.565 391.665 250.532C391.6 250.532 391.567 250.467 391.567 250.401C391.567 250.336 391.6 250.271 391.665 250.271C391.796 250.238 392.123 250.009 392.123 249.813V249.094C392.123 248.571 392.548 248.277 392.94 248.277H393.299C393.365 248.277 393.43 248.343 393.43 248.408C393.43 248.473 393.397 248.539 393.332 248.571C393.201 248.604 392.94 248.768 392.973 249.16V249.879C392.94 250.14 392.875 250.303 392.776 250.401C392.875 250.499 392.94 250.663 392.973 250.924V251.643C392.973 252.035 393.267 252.199 393.332 252.231C393.397 252.264 393.43 252.33 393.43 252.395C393.43 252.46 393.365 252.526 393.299 252.526H392.94Z" fill="white"/>
<path d="M379.934 255.924C378.66 255.924 377.418 255.434 376.503 254.552C375.556 253.669 375.033 252.46 375 251.186C375 250.99 375 250.761 375.033 250.565C375.163 249.454 375.784 248.375 376.699 247.656C377.091 247.362 377.549 247.199 378.006 247.199C378.366 247.199 378.758 247.297 379.085 247.493C379.216 246.447 379.51 245.565 379.967 244.846C381.046 243.114 382.679 242.199 384.869 242.003C385 242.003 385.098 242.003 385.228 242.003C387.287 241.938 389.085 242.918 390.359 244.748C390.424 244.748 390.457 244.748 390.522 244.748H390.915C391.372 244.748 391.83 244.781 392.254 244.846C395.065 245.206 397.189 247.591 397.189 250.434C397.189 251.937 396.601 253.375 395.522 254.454C395.424 254.552 395.293 254.65 395.163 254.78C394.771 255.075 394.346 255.336 393.823 255.532C393.137 255.793 392.385 255.924 391.601 255.924H379.934ZM378.006 248.375C377.81 248.375 377.614 248.441 377.451 248.571C376.765 249.094 376.307 249.879 376.242 250.663C376.209 250.826 376.209 250.99 376.209 251.12C376.242 253.081 377.908 254.682 379.902 254.682H391.535C392.189 254.682 392.777 254.584 393.333 254.388C393.758 254.225 394.084 254.062 394.378 253.833C394.476 253.767 394.575 253.669 394.64 253.571C395.49 252.722 395.947 251.611 395.947 250.434C395.947 248.179 394.28 246.317 392.058 246.023C391.699 245.957 391.307 245.925 390.882 245.925C390.555 245.925 390.228 245.957 389.869 245.99H389.705L389.607 245.859C388.562 244.062 387.091 243.147 385.228 243.147C385.13 243.147 385.065 243.147 384.967 243.147C383.137 243.31 381.895 244.029 380.98 245.434C380.425 246.317 380.163 247.428 380.163 248.898C380.163 249.192 380.131 249.781 380.131 250.434C380.131 250.565 380.261 251.153 380.882 251.153C381.274 251.153 381.568 250.826 381.568 250.434C381.568 250.303 381.601 250.14 381.699 250.042L382.255 249.225C382.32 249.16 382.385 249.127 382.451 249.127C382.581 249.127 382.712 249.258 382.712 249.388V250.434C382.712 250.957 382.516 251.447 382.157 251.839C381.797 252.199 381.372 252.395 380.849 252.395H380.784C379.771 252.362 378.954 251.545 378.921 250.565V249.356C378.987 248.735 378.464 248.375 378.006 248.375Z" fill="white"/>
<defs>
<linearGradient id="paint0_linear_553_5780" x1="705.91" y1="230.702" x2="598.382" y2="192.675" gradientUnits="userSpaceOnUse">
<stop stop-color="#232B37" stop-opacity="0.2"/>
<stop offset="0.677209" stop-color="#232B37"/>
</linearGradient>
<linearGradient id="paint1_linear_553_5780" x1="507.557" y1="74.2197" x2="836.251" y2="180.266" gradientUnits="userSpaceOnUse">
<stop stop-color="#9297C7"/>
<stop offset="1" stop-color="#30345E"/>
</linearGradient>
<linearGradient id="paint2_linear_553_5780" x1="544.684" y1="248.139" x2="707.01" y2="299.935" gradientUnits="userSpaceOnUse">
<stop stop-color="#66A3FF"/>
<stop offset="1" stop-color="#66A3FF" stop-opacity="0"/>
</linearGradient>
<linearGradient id="paint3_linear_553_5780" x1="415.511" y1="246.744" x2="329.554" y2="137.667" gradientUnits="userSpaceOnUse">
<stop stop-color="#232B37" stop-opacity="0.2"/>
<stop offset="0.677209" stop-color="#232B37"/>
</linearGradient>
<linearGradient id="paint4_linear_553_5780" x1="82.952" y1="138.024" x2="362.589" y2="469.72" gradientUnits="userSpaceOnUse">
<stop stop-color="#9297C7"/>
<stop offset="1" stop-color="#30345E"/>
</linearGradient>
<linearGradient id="paint5_linear_553_5780" x1="540.206" y1="256.5" x2="415.947" y2="177.008" gradientUnits="userSpaceOnUse">
<stop stop-color="#66A3FF"/>
<stop offset="1" stop-color="#66A3FF" stop-opacity="0"/>
</linearGradient>
<linearGradient id="paint6_linear_553_5780" x1="38.1226" y1="383.485" x2="41.0767" y2="410.284" gradientUnits="userSpaceOnUse">
<stop stop-color="#1F2B3D"/>
<stop offset="1" stop-color="#344359" stop-opacity="0.5"/>
</linearGradient>
<linearGradient id="paint7_linear_553_5780" x1="116.544" y1="398.664" x2="116.544" y2="381.664" gradientUnits="userSpaceOnUse">
<stop stop-color="#E2E4E9"/>
<stop offset="1" stop-color="white"/>
</linearGradient>
<linearGradient id="paint8_linear_553_5780" x1="646.601" y1="277.348" x2="592.923" y2="277.011" gradientUnits="userSpaceOnUse">
<stop stop-color="#E2E4E9"/>
<stop offset="1" stop-color="white"/>
</linearGradient>
<linearGradient id="paint9_linear_553_5780" x1="646.602" y1="264.46" x2="592.924" y2="264.123" gradientUnits="userSpaceOnUse">
<stop stop-color="#E2E4E9"/>
<stop offset="1" stop-color="white"/>
</linearGradient>
<linearGradient id="paint10_linear_553_5780" x1="646.612" y1="251.581" x2="592.933" y2="251.243" gradientUnits="userSpaceOnUse">
<stop stop-color="#E2E4E9"/>
<stop offset="1" stop-color="white"/>
</linearGradient>
<linearGradient id="paint11_linear_553_5780" x1="602.99" y1="282.228" x2="602.99" y2="277.244" gradientUnits="userSpaceOnUse">
<stop stop-color="#E2E4E9"/>
<stop offset="1" stop-color="white"/>
</linearGradient>
<linearGradient id="paint12_linear_553_5780" x1="602.99" y1="269.252" x2="602.99" y2="264.268" gradientUnits="userSpaceOnUse">
<stop stop-color="#E2E4E9"/>
<stop offset="1" stop-color="white"/>
</linearGradient>
<linearGradient id="paint13_linear_553_5780" x1="602.99" y1="294.975" x2="602.99" y2="290" gradientUnits="userSpaceOnUse">
<stop stop-color="#E2E4E9"/>
<stop offset="1" stop-color="white"/>
</linearGradient>
<linearGradient id="paint14_linear_553_5780" x1="683.884" y1="209.475" x2="630.205" y2="209.137" gradientUnits="userSpaceOnUse">
<stop stop-color="#E2E4E9"/>
<stop offset="1" stop-color="white"/>
</linearGradient>
<linearGradient id="paint15_linear_553_5780" x1="683.884" y1="196.586" x2="630.205" y2="196.249" gradientUnits="userSpaceOnUse">
<stop stop-color="#E2E4E9"/>
<stop offset="1" stop-color="white"/>
</linearGradient>
<linearGradient id="paint16_linear_553_5780" x1="683.883" y1="183.708" x2="630.205" y2="183.37" gradientUnits="userSpaceOnUse">
<stop stop-color="#E2E4E9"/>
<stop offset="1" stop-color="white"/>
</linearGradient>
<linearGradient id="paint17_linear_553_5780" x1="640.269" y1="214.354" x2="640.269" y2="209.379" gradientUnits="userSpaceOnUse">
<stop stop-color="#E2E4E9"/>
<stop offset="1" stop-color="white"/>
</linearGradient>
<linearGradient id="paint18_linear_553_5780" x1="640.252" y1="201.379" x2="640.252" y2="196.408" gradientUnits="userSpaceOnUse">
<stop stop-color="#E2E4E9"/>
<stop offset="1" stop-color="white"/>
</linearGradient>
<linearGradient id="paint19_linear_553_5780" x1="640.269" y1="227.101" x2="640.269" y2="222.117" gradientUnits="userSpaceOnUse">
<stop stop-color="#E2E4E9"/>
<stop offset="1" stop-color="white"/>
</linearGradient>
<linearGradient id="paint20_linear_553_5780" x1="721.155" y1="141.601" x2="667.476" y2="141.264" gradientUnits="userSpaceOnUse">
<stop stop-color="#E2E4E9"/>
<stop offset="1" stop-color="white"/>
</linearGradient>
<linearGradient id="paint21_linear_553_5780" x1="721.155" y1="128.713" x2="667.476" y2="128.375" gradientUnits="userSpaceOnUse">
<stop stop-color="#E2E4E9"/>
<stop offset="1" stop-color="white"/>
</linearGradient>
<linearGradient id="paint22_linear_553_5780" x1="721.165" y1="115.833" x2="667.486" y2="115.496" gradientUnits="userSpaceOnUse">
<stop stop-color="#E2E4E9"/>
<stop offset="1" stop-color="white"/>
</linearGradient>
<linearGradient id="paint23_linear_553_5780" x1="677.545" y1="146.467" x2="677.545" y2="141.495" gradientUnits="userSpaceOnUse">
<stop stop-color="#E2E4E9"/>
<stop offset="1" stop-color="white"/>
</linearGradient>
<linearGradient id="paint24_linear_553_5780" x1="677.545" y1="133.51" x2="677.545" y2="128.53" gradientUnits="userSpaceOnUse">
<stop stop-color="#E2E4E9"/>
<stop offset="1" stop-color="white"/>
</linearGradient>
<linearGradient id="paint25_linear_553_5780" x1="677.545" y1="159.227" x2="677.545" y2="154.252" gradientUnits="userSpaceOnUse">
<stop stop-color="#E2E4E9"/>
<stop offset="1" stop-color="white"/>
</linearGradient>
<linearGradient id="paint26_linear_553_5780" x1="609.33" y1="345.213" x2="555.651" y2="344.876" gradientUnits="userSpaceOnUse">
<stop stop-color="#E2E4E9"/>
<stop offset="1" stop-color="white"/>
</linearGradient>
<linearGradient id="paint27_linear_553_5780" x1="609.322" y1="332.324" x2="555.643" y2="331.987" gradientUnits="userSpaceOnUse">
<stop stop-color="#E2E4E9"/>
<stop offset="1" stop-color="white"/>
</linearGradient>
<linearGradient id="paint28_linear_553_5780" x1="609.332" y1="319.445" x2="555.653" y2="319.108" gradientUnits="userSpaceOnUse">
<stop stop-color="#E2E4E9"/>
<stop offset="1" stop-color="white"/>
</linearGradient>
<linearGradient id="paint29_linear_553_5780" x1="565.709" y1="350.102" x2="565.709" y2="345.115" gradientUnits="userSpaceOnUse">
<stop stop-color="#E2E4E9"/>
<stop offset="1" stop-color="white"/>
</linearGradient>
<linearGradient id="paint30_linear_553_5780" x1="565.709" y1="337.127" x2="565.709" y2="332.152" gradientUnits="userSpaceOnUse">
<stop stop-color="#E2E4E9"/>
<stop offset="1" stop-color="white"/>
</linearGradient>
<linearGradient id="paint31_linear_553_5780" x1="565.709" y1="362.861" x2="565.709" y2="357.874" gradientUnits="userSpaceOnUse">
<stop stop-color="#E2E4E9"/>
<stop offset="1" stop-color="white"/>
</linearGradient>
<linearGradient id="paint32_linear_553_5780" x1="725.493" y1="115.329" x2="728.071" y2="138.722" gradientUnits="userSpaceOnUse">
<stop stop-color="#1F2B3D"/>
<stop offset="1" stop-color="#344359" stop-opacity="0.5"/>
</linearGradient>
<linearGradient id="paint33_linear_553_5780" x1="793.973" y1="128.159" x2="793.973" y2="114.159" gradientUnits="userSpaceOnUse">
<stop stop-color="#E2E4E9"/>
<stop offset="1" stop-color="white"/>
</linearGradient>
<linearGradient id="paint34_linear_553_5780" x1="651.212" y1="253.987" x2="653.79" y2="277.38" gradientUnits="userSpaceOnUse">
<stop stop-color="#1F2B3D"/>
<stop offset="1" stop-color="#344359" stop-opacity="0.5"/>
</linearGradient>
<linearGradient id="paint35_linear_553_5780" x1="719.691" y1="266.817" x2="719.691" y2="252.817" gradientUnits="userSpaceOnUse">
<stop stop-color="#E2E4E9"/>
<stop offset="1" stop-color="white"/>
</linearGradient>
<linearGradient id="paint36_linear_553_5780" x1="688.499" y1="184.658" x2="691.273" y2="208.005" gradientUnits="userSpaceOnUse">
<stop stop-color="#1F2B3D"/>
<stop offset="1" stop-color="#344359" stop-opacity="0.5"/>
</linearGradient>
<linearGradient id="paint37_linear_553_5780" x1="752.007" y1="197.488" x2="752.007" y2="183.488" gradientUnits="userSpaceOnUse">
<stop stop-color="#E2E4E9"/>
<stop offset="1" stop-color="white"/>
</linearGradient>
<linearGradient id="paint38_linear_553_5780" x1="614.217" y1="323.316" x2="616.991" y2="346.664" gradientUnits="userSpaceOnUse">
<stop stop-color="#1F2B3D"/>
<stop offset="1" stop-color="#344359" stop-opacity="0.5"/>
</linearGradient>
<linearGradient id="paint39_linear_553_5780" x1="677.726" y1="336.146" x2="677.726" y2="322.146" gradientUnits="userSpaceOnUse">
<stop stop-color="#E2E4E9"/>
<stop offset="1" stop-color="white"/>
</linearGradient>
<linearGradient id="paint40_linear_553_5780" x1="227.505" y1="172.535" x2="157.97" y2="172.098" gradientUnits="userSpaceOnUse">
<stop stop-color="#E2E4E9"/>
<stop offset="1" stop-color="white"/>
</linearGradient>
<linearGradient id="paint41_linear_553_5780" x1="227.505" y1="155.847" x2="157.97" y2="155.41" gradientUnits="userSpaceOnUse">
<stop stop-color="#E2E4E9"/>
<stop offset="1" stop-color="white"/>
</linearGradient>
<linearGradient id="paint42_linear_553_5780" x1="227.505" y1="139.159" x2="157.97" y2="138.722" gradientUnits="userSpaceOnUse">
<stop stop-color="#E2E4E9"/>
<stop offset="1" stop-color="white"/>
</linearGradient>
<linearGradient id="paint43_linear_553_5780" x1="171.034" y1="178.851" x2="171.034" y2="172.375" gradientUnits="userSpaceOnUse">
<stop stop-color="#E2E4E9"/>
<stop offset="1" stop-color="white"/>
</linearGradient>
<linearGradient id="paint44_linear_553_5780" x1="171.034" y1="162.051" x2="171.034" y2="155.572" gradientUnits="userSpaceOnUse">
<stop stop-color="#E2E4E9"/>
<stop offset="1" stop-color="white"/>
</linearGradient>
<linearGradient id="paint45_linear_553_5780" x1="171.007" y1="195.359" x2="171.007" y2="188.874" gradientUnits="userSpaceOnUse">
<stop stop-color="#E2E4E9"/>
<stop offset="1" stop-color="white"/>
</linearGradient>
<linearGradient id="paint46_linear_553_5780" x1="179.141" y1="295.951" x2="109.606" y2="295.514" gradientUnits="userSpaceOnUse">
<stop stop-color="#E2E4E9"/>
<stop offset="1" stop-color="white"/>
</linearGradient>
<linearGradient id="paint47_linear_553_5780" x1="179.141" y1="279.263" x2="109.606" y2="278.826" gradientUnits="userSpaceOnUse">
<stop stop-color="#E2E4E9"/>
<stop offset="1" stop-color="white"/>
</linearGradient>
<linearGradient id="paint48_linear_553_5780" x1="179.15" y1="262.574" x2="109.615" y2="262.137" gradientUnits="userSpaceOnUse">
<stop stop-color="#E2E4E9"/>
<stop offset="1" stop-color="white"/>
</linearGradient>
<linearGradient id="paint49_linear_553_5780" x1="122.64" y1="302.302" x2="122.64" y2="295.837" gradientUnits="userSpaceOnUse">
<stop stop-color="#E2E4E9"/>
<stop offset="1" stop-color="white"/>
</linearGradient>
<linearGradient id="paint50_linear_553_5780" x1="122.64" y1="285.462" x2="122.64" y2="278.976" gradientUnits="userSpaceOnUse">
<stop stop-color="#E2E4E9"/>
<stop offset="1" stop-color="white"/>
</linearGradient>
<linearGradient id="paint51_linear_553_5780" x1="122.64" y1="318.787" x2="122.64" y2="312.308" gradientUnits="userSpaceOnUse">
<stop stop-color="#E2E4E9"/>
<stop offset="1" stop-color="white"/>
</linearGradient>
<linearGradient id="paint52_linear_553_5780" x1="299.958" y1="295.953" x2="230.423" y2="295.516" gradientUnits="userSpaceOnUse">
<stop stop-color="#E2E4E9"/>
<stop offset="1" stop-color="white"/>
</linearGradient>
<linearGradient id="paint53_linear_553_5780" x1="299.958" y1="279.265" x2="230.423" y2="278.828" gradientUnits="userSpaceOnUse">
<stop stop-color="#E2E4E9"/>
<stop offset="1" stop-color="white"/>
</linearGradient>
<linearGradient id="paint54_linear_553_5780" x1="299.958" y1="262.577" x2="230.423" y2="262.14" gradientUnits="userSpaceOnUse">
<stop stop-color="#E2E4E9"/>
<stop offset="1" stop-color="white"/>
</linearGradient>
<linearGradient id="paint55_linear_553_5780" x1="243.456" y1="302.302" x2="243.456" y2="295.837" gradientUnits="userSpaceOnUse">
<stop stop-color="#E2E4E9"/>
<stop offset="1" stop-color="white"/>
</linearGradient>
<linearGradient id="paint56_linear_553_5780" x1="243.456" y1="285.462" x2="243.456" y2="278.976" gradientUnits="userSpaceOnUse">
<stop stop-color="#E2E4E9"/>
<stop offset="1" stop-color="white"/>
</linearGradient>
<linearGradient id="paint57_linear_553_5780" x1="243.456" y1="318.787" x2="243.456" y2="312.308" gradientUnits="userSpaceOnUse">
<stop stop-color="#E2E4E9"/>
<stop offset="1" stop-color="white"/>
</linearGradient>
<linearGradient id="paint58_linear_553_5780" x1="414.582" y1="315.194" x2="355.812" y2="316.19" gradientUnits="userSpaceOnUse">
<stop stop-color="#0051CC"/>
<stop offset="0.465978" stop-color="#0061F1"/>
<stop offset="1" stop-color="#5C9AF5"/>
</linearGradient>
<linearGradient id="paint59_linear_553_5780" x1="420.774" y1="295.946" x2="351.239" y2="295.509" gradientUnits="userSpaceOnUse">
<stop stop-color="#E2E4E9"/>
<stop offset="1" stop-color="white"/>
</linearGradient>
<linearGradient id="paint60_linear_553_5780" x1="414.582" y1="298.508" x2="355.812" y2="299.504" gradientUnits="userSpaceOnUse">
<stop stop-color="#0051CC"/>
<stop offset="0.465978" stop-color="#0061F1"/>
<stop offset="1" stop-color="#5C9AF5"/>
</linearGradient>
<linearGradient id="paint61_linear_553_5780" x1="420.774" y1="279.258" x2="351.239" y2="278.821" gradientUnits="userSpaceOnUse">
<stop stop-color="#E2E4E9"/>
<stop offset="1" stop-color="white"/>
</linearGradient>
<linearGradient id="paint62_linear_553_5780" x1="414.582" y1="281.818" x2="355.812" y2="282.814" gradientUnits="userSpaceOnUse">
<stop stop-color="#0051CC"/>
<stop offset="0.465978" stop-color="#0061F1"/>
<stop offset="1" stop-color="#5C9AF5"/>
</linearGradient>
<linearGradient id="paint63_linear_553_5780" x1="420.774" y1="262.58" x2="351.239" y2="262.143" gradientUnits="userSpaceOnUse">
<stop stop-color="#E2E4E9"/>
<stop offset="1" stop-color="white"/>
</linearGradient>
<linearGradient id="paint64_linear_553_5780" x1="364.275" y1="302.303" x2="364.275" y2="295.837" gradientUnits="userSpaceOnUse">
<stop stop-color="#E2E4E9"/>
<stop offset="1" stop-color="white"/>
</linearGradient>
<linearGradient id="paint65_linear_553_5780" x1="364.275" y1="285.462" x2="364.275" y2="278.977" gradientUnits="userSpaceOnUse">
<stop stop-color="#E2E4E9"/>
<stop offset="1" stop-color="white"/>
</linearGradient>
<linearGradient id="paint66_linear_553_5780" x1="364.275" y1="318.788" x2="364.275" y2="312.308" gradientUnits="userSpaceOnUse">
<stop stop-color="#E2E4E9"/>
<stop offset="1" stop-color="white"/>
</linearGradient>
<linearGradient id="paint67_linear_553_5780" x1="469.128" y1="172.53" x2="399.593" y2="172.093" gradientUnits="userSpaceOnUse">
<stop stop-color="#E2E4E9"/>
<stop offset="1" stop-color="white"/>
</linearGradient>
<linearGradient id="paint68_linear_553_5780" x1="469.128" y1="155.843" x2="399.593" y2="155.406" gradientUnits="userSpaceOnUse">
<stop stop-color="#E2E4E9"/>
<stop offset="1" stop-color="white"/>
</linearGradient>
<linearGradient id="paint69_linear_553_5780" x1="469.128" y1="139.154" x2="399.593" y2="138.717" gradientUnits="userSpaceOnUse">
<stop stop-color="#E2E4E9"/>
<stop offset="1" stop-color="white"/>
</linearGradient>
<linearGradient id="paint70_linear_553_5780" x1="412.64" y1="178.851" x2="412.64" y2="172.375" gradientUnits="userSpaceOnUse">
<stop stop-color="#E2E4E9"/>
<stop offset="1" stop-color="white"/>
</linearGradient>
<linearGradient id="paint71_linear_553_5780" x1="412.64" y1="162.051" x2="412.64" y2="155.572" gradientUnits="userSpaceOnUse">
<stop stop-color="#E2E4E9"/>
<stop offset="1" stop-color="white"/>
</linearGradient>
<linearGradient id="paint72_linear_553_5780" x1="412.64" y1="195.36" x2="412.64" y2="188.884" gradientUnits="userSpaceOnUse">
<stop stop-color="#E2E4E9"/>
<stop offset="1" stop-color="white"/>
</linearGradient>
<linearGradient id="paint73_linear_553_5780" x1="348.308" y1="172.53" x2="278.774" y2="172.093" gradientUnits="userSpaceOnUse">
<stop stop-color="#E2E4E9"/>
<stop offset="1" stop-color="white"/>
</linearGradient>
<linearGradient id="paint74_linear_553_5780" x1="348.318" y1="155.842" x2="278.783" y2="155.405" gradientUnits="userSpaceOnUse">
<stop stop-color="#E2E4E9"/>
<stop offset="1" stop-color="white"/>
</linearGradient>
<linearGradient id="paint75_linear_553_5780" x1="348.318" y1="139.154" x2="278.783" y2="138.717" gradientUnits="userSpaceOnUse">
<stop stop-color="#E2E4E9"/>
<stop offset="1" stop-color="white"/>
</linearGradient>
<linearGradient id="paint76_linear_553_5780" x1="291.82" y1="178.844" x2="291.82" y2="172.368" gradientUnits="userSpaceOnUse">
<stop stop-color="#E2E4E9"/>
<stop offset="1" stop-color="white"/>
</linearGradient>
<linearGradient id="paint77_linear_553_5780" x1="291.82" y1="162.044" x2="291.82" y2="155.565" gradientUnits="userSpaceOnUse">
<stop stop-color="#E2E4E9"/>
<stop offset="1" stop-color="white"/>
</linearGradient>
<linearGradient id="paint78_linear_553_5780" x1="291.82" y1="195.353" x2="291.82" y2="188.876" gradientUnits="userSpaceOnUse">
<stop stop-color="#E2E4E9"/>
<stop offset="1" stop-color="white"/>
</linearGradient>
</defs>
</svg>
