<svg width="26" height="26" viewBox="0 0 26 26" fill="none" xmlns="http://www.w3.org/2000/svg">
<path fill-rule="evenodd" clip-rule="evenodd" d="M15.4195 1.90233C14.8042 -0.634111 11.1959 -0.634111 10.5806 1.90233C10.1819 3.54178 8.30992 4.31889 6.86547 3.44067C4.63524 2.08289 2.08434 4.63522 3.44212 6.864C3.64623 7.19875 3.76841 7.57697 3.79871 7.96786C3.82902 8.35876 3.7666 8.75129 3.61653 9.1135C3.46647 9.47572 3.233 9.79738 2.93512 10.0523C2.63725 10.3072 2.28338 10.4882 1.90234 10.5806C-0.634113 11.1959 -0.634113 14.8041 1.90234 15.4194C2.28304 15.512 2.63653 15.6931 2.93407 15.948C3.23161 16.2029 3.4648 16.5245 3.61469 16.8865C3.76459 17.2484 3.82695 17.6407 3.79671 18.0313C3.76647 18.422 3.64449 18.7999 3.44068 19.1346C2.0829 21.3648 4.63524 23.9157 6.86402 22.5579C7.19878 22.3538 7.577 22.2316 7.96789 22.2013C8.35879 22.171 8.75132 22.2334 9.11353 22.3835C9.47575 22.5335 9.79741 22.767 10.0523 23.0649C10.3073 23.3628 10.4883 23.7166 10.5806 24.0977C11.1959 26.6341 14.8042 26.6341 15.4195 24.0977C15.5121 23.717 15.6932 23.3635 15.9481 23.0659C16.203 22.7684 16.5245 22.5352 16.8865 22.3853C17.2485 22.2354 17.6408 22.1731 18.0314 22.2033C18.422 22.2335 18.8 22.3555 19.1346 22.5593C21.3649 23.9171 23.9158 21.3648 22.558 19.136C22.3539 18.8012 22.2317 18.423 22.2014 18.0321C22.1711 17.6412 22.2335 17.2487 22.3836 16.8865C22.5336 16.5243 22.7671 16.2026 23.065 15.9477C23.3628 15.6928 23.7167 15.5118 24.0977 15.4194C26.6342 14.8041 26.6342 11.1959 24.0977 10.5806C23.717 10.488 23.3636 10.3069 23.066 10.052C22.7685 9.79706 22.5353 9.47554 22.3854 9.11355C22.2355 8.75156 22.1731 8.3593 22.2034 7.96867C22.2336 7.57804 22.3556 7.20006 22.5594 6.86544C23.9172 4.63522 21.3649 2.08433 19.1361 3.44211C18.8013 3.64621 18.4231 3.76839 18.0322 3.7987C17.6413 3.82901 17.2488 3.76659 16.8866 3.61652C16.5243 3.46646 16.2027 3.23298 15.9477 2.93511C15.6928 2.63724 15.5118 2.28338 15.4195 1.90233ZM17.3335 13.0001L10.1112 17.3334V8.66677L17.3335 13.0001Z" fill="#A8AEBC"/>
</svg>
