<svg width="38" height="39" viewBox="0 0 38 39" fill="none" xmlns="http://www.w3.org/2000/svg">
<path d="M36.5 17.9V19.51C36.4978 23.2837 35.2759 26.9557 33.0163 29.9782C30.7568 33.0007 27.5807 35.2118 23.9619 36.2818C20.343 37.3518 16.4752 37.2233 12.9353 35.9155C9.39544 34.6077 6.37314 32.1907 4.31918 29.0249C2.26522 25.8591 1.28963 22.1141 1.53793 18.3486C1.78623 14.583 3.24511 10.9986 5.69699 8.12989C8.14886 5.2612 11.4624 3.26194 15.1433 2.43027C18.8243 1.59861 22.6755 1.97911 26.1225 3.51502" stroke="url(#paint0_linear_1062_2958)" stroke-width="3" stroke-linecap="round" stroke-linejoin="round"/>
<path d="M36.5 5.50977L19 23.0273L13.75 17.7773" stroke="url(#paint1_linear_1062_2958)" stroke-width="3" stroke-linecap="round" stroke-linejoin="round"/>
<defs>
<linearGradient id="paint0_linear_1062_2958" x1="19" y1="2" x2="19" y2="37" gradientUnits="userSpaceOnUse">
<stop stop-color="#1B74F9"/>
<stop offset="1" stop-color="#0061F1"/>
</linearGradient>
<linearGradient id="paint1_linear_1062_2958" x1="25.125" y1="5.50977" x2="25.125" y2="23.0273" gradientUnits="userSpaceOnUse">
<stop stop-color="#1B74F9"/>
<stop offset="1" stop-color="#0061F1"/>
</linearGradient>
</defs>
</svg>
