<svg width="43" height="37" viewBox="0 0 43 37" fill="none" xmlns="http://www.w3.org/2000/svg">
<path d="M21.5078 18.4976V34.8597" stroke="url(#paint0_linear_1062_2930)" stroke-width="3" stroke-linecap="round" stroke-linejoin="round"/>
<path d="M36.761 30.1154C38.5342 29.1487 39.9349 27.619 40.7422 25.7678C41.5495 23.9166 41.7173 21.8493 41.2191 19.8921C40.721 17.935 39.5852 16.1994 37.9912 14.9594C36.3971 13.7194 34.4355 13.0456 32.4159 13.0442H30.1252C29.5749 10.9158 28.5493 8.93977 27.1254 7.26476C25.7015 5.58975 23.9164 4.25933 21.9044 3.37351C19.8923 2.4877 17.7056 2.06954 15.5086 2.15049C13.3117 2.23143 11.1616 2.80937 9.22021 3.84085C7.27877 4.87232 5.59643 6.3305 4.29966 8.10575C3.00289 9.88101 2.12544 11.9271 1.73327 14.0903C1.34111 16.2535 1.44444 18.4774 2.03549 20.5949C2.62654 22.7124 3.68993 24.6684 5.14572 26.3157" stroke="url(#paint1_linear_1062_2930)" stroke-width="3" stroke-linecap="round" stroke-linejoin="round"/>
<path d="M28.7804 25.7696L21.5084 18.4976L14.2363 25.7696" stroke="url(#paint2_linear_1062_2930)" stroke-width="3" stroke-linecap="round" stroke-linejoin="round"/>
<defs>
<linearGradient id="paint0_linear_1062_2930" x1="22.0078" y1="18.4976" x2="22.0078" y2="34.8597" gradientUnits="userSpaceOnUse">
<stop stop-color="#1B74F9"/>
<stop offset="1" stop-color="#0061F1"/>
</linearGradient>
<linearGradient id="paint1_linear_1062_2930" x1="21.5" y1="2.14062" x2="21.5" y2="30.1154" gradientUnits="userSpaceOnUse">
<stop stop-color="#1B74F9"/>
<stop offset="1" stop-color="#0061F1"/>
</linearGradient>
<linearGradient id="paint2_linear_1062_2930" x1="21.5084" y1="18.4976" x2="21.5084" y2="25.7696" gradientUnits="userSpaceOnUse">
<stop stop-color="#1B74F9"/>
<stop offset="1" stop-color="#0061F1"/>
</linearGradient>
</defs>
</svg>
