<svg width="26" height="26" viewBox="0 0 26 26" fill="none" xmlns="http://www.w3.org/2000/svg">
<path d="M14.2789 14.2789C13.5627 14.9951 12.4245 14.9951 11.7211 14.2917V14.2789C11.0177 13.5755 11.0177 12.4373 11.7211 11.7339V11.7211C12.4245 11.0177 13.5627 11.0177 14.2661 11.7211H14.2789C14.9823 12.4245 14.9823 13.5755 14.2789 14.2789ZM13 5.32661L15.7113 8.03788L18.9085 4.84063L14.816 0.748155C13.8185 -0.249385 12.1943 -0.249385 11.1968 0.748155L7.10428 4.84063L10.3015 8.03788L13 5.32661ZM5.32661 13L8.03788 10.2887L4.84063 7.09149L0.748155 11.184C-0.249385 12.1815 -0.249385 13.8057 0.748155 14.8032L4.84063 18.8957L8.03788 15.6985L5.32661 13ZM20.6734 13L17.9621 15.7113L21.1594 18.9085L25.2518 14.816C26.2494 13.8185 26.2494 12.1943 25.2518 11.1968L21.1594 7.10428L17.9621 10.3015L20.6734 13ZM13 20.6734L10.2887 17.9621L7.09149 21.1594L11.184 25.2518C12.1815 26.2494 13.8057 26.2494 14.8032 25.2518L18.8957 21.1594L15.6985 17.9621L13 20.6734Z" fill="#A8AEBC"/>
</svg>
