<svg width="26" height="26" viewBox="0 0 26 26" fill="none" xmlns="http://www.w3.org/2000/svg">
<path d="M6.71125 1.28864C7.81946 0.449354 9.17235 -0.00332005 10.5625 1.83331e-05C10.9525 1.83331e-05 11.2629 0.203143 11.4432 0.342893C11.6447 0.502143 11.8332 0.705268 12.0022 0.908393C12.1221 1.05393 12.1876 1.23662 12.1875 1.42514V7.31251H10.4244C10.2327 6.7704 9.85557 6.3135 9.35961 6.02256C8.86365 5.73163 8.28081 5.62538 7.71409 5.72262C7.14738 5.81985 6.63328 6.1143 6.26266 6.55392C5.89205 6.99353 5.68878 7.55002 5.68878 8.12501C5.68878 8.70001 5.89205 9.25649 6.26266 9.69611C6.63328 10.1357 7.14738 10.4302 7.71409 10.5274C8.28081 10.6246 8.86365 10.5184 9.35961 10.2275C9.85557 9.93652 10.2327 9.47962 10.4244 8.93751H12.1875V24.2369C12.1876 24.3572 12.1609 24.476 12.1095 24.5847C12.0581 24.6935 11.9832 24.7895 11.8901 24.8658C11.1394 25.48 10.1351 26 8.9375 26C7.01025 26 5.57538 25.0282 4.6475 23.8664C3.98086 23.0385 3.52426 22.0618 3.31662 21.0194C2.68528 20.851 2.09991 20.5428 1.60387 20.1175C0.706875 19.3489 0 18.1025 0 16.25C0 15.3449 0.0601248 14.5275 0.195 13.8125H5.28125C6.31475 13.8125 7.16625 14.5844 7.29625 15.5821C6.75585 15.7777 6.30193 16.1579 6.01464 16.6557C5.72735 17.1534 5.62517 17.7366 5.72614 18.3024C5.82711 18.8682 6.12473 19.38 6.56646 19.7477C7.00819 20.1153 7.5656 20.315 8.14029 20.3116C8.71498 20.3082 9.26997 20.1018 9.70728 19.7289C10.1446 19.356 10.4361 18.8406 10.5303 18.2737C10.6245 17.7068 10.5153 17.1248 10.2221 16.6305C9.92888 16.1362 9.47045 15.7615 8.92775 15.5724C8.85926 14.6521 8.44534 13.7918 7.76903 13.1641C7.09271 12.5363 6.20403 12.1874 5.28125 12.1875H0.716625C0.96525 11.7033 1.29838 11.2938 1.73225 11.0029C1.842 10.9302 1.95717 10.8661 2.07675 10.8111C1.61525 9.45914 1.7355 7.87639 2.18075 6.63326C2.46513 5.83376 2.91688 5.07814 3.53763 4.57439C3.94713 4.24127 4.43463 4.02189 4.96763 3.97964C5.20163 2.86977 5.85975 1.95164 6.71287 1.28864H6.71125ZM13.8125 20.3125H15.0312C16.0009 20.3125 16.9309 19.9273 17.6166 19.2416C18.3023 18.5559 18.6875 17.626 18.6875 16.6563V13.6744C19.2296 13.4827 19.6865 13.1056 19.9775 12.6096C20.2684 12.1137 20.3746 11.5308 20.2774 10.9641C20.1802 10.3974 19.8857 9.88329 19.4461 9.51268C19.0065 9.14206 18.45 8.93879 17.875 8.93879C17.3 8.93879 16.7435 9.14206 16.3039 9.51268C15.8643 9.88329 15.5698 10.3974 15.4726 10.9641C15.3754 11.5308 15.4816 12.1137 15.7725 12.6096C16.0635 13.1056 16.5204 13.4827 17.0625 13.6744V16.6563C17.0625 17.7775 16.1525 18.6875 15.0312 18.6875H13.8125V1.42514C13.8124 1.23662 13.8779 1.05393 13.9978 0.908393C14.1651 0.705268 14.3553 0.502143 14.5568 0.342893C14.7355 0.203143 15.0459 1.83331e-05 15.4375 1.83331e-05C16.8277 -0.00332005 18.1805 0.449354 19.2887 1.28864C20.1419 1.95164 20.8 2.86977 21.0324 3.97964C21.5654 4.02027 22.0529 4.24127 22.4624 4.57439C23.0831 5.07814 23.5349 5.83376 23.8193 6.63326C24.2645 7.87639 24.3848 9.46076 23.9233 10.8095C24.0403 10.8648 24.1556 10.9298 24.2677 11.0045C24.7146 11.3019 25.0543 11.7276 25.3045 12.2298C25.7969 13.2129 26 14.5844 26 16.25C26 18.1041 25.2931 19.3489 24.3961 20.1175C23.9001 20.5428 23.3147 20.851 22.6834 21.0194C22.5209 21.9261 22.0659 22.9759 21.3525 23.8664C20.4263 25.0282 18.9897 26 17.0625 26C15.8665 26 14.8606 25.48 14.1115 24.8658C14.0182 24.7896 13.9429 24.6937 13.8912 24.585C13.8395 24.4762 13.8126 24.3573 13.8125 24.2369V20.3125ZM8.125 7.31251C7.90951 7.31251 7.70285 7.39812 7.55048 7.55049C7.3981 7.70286 7.3125 7.90952 7.3125 8.12501C7.3125 8.3405 7.3981 8.54716 7.55048 8.69954C7.70285 8.85191 7.90951 8.93751 8.125 8.93751C8.34049 8.93751 8.54715 8.85191 8.69952 8.69954C8.8519 8.54716 8.9375 8.3405 8.9375 8.12501C8.9375 7.90952 8.8519 7.70286 8.69952 7.55049C8.54715 7.39812 8.34049 7.31251 8.125 7.31251ZM8.125 17.0625C7.90951 17.0625 7.70285 17.1481 7.55048 17.3005C7.3981 17.4529 7.3125 17.6595 7.3125 17.875C7.3125 18.0905 7.3981 18.2972 7.55048 18.4495C7.70285 18.6019 7.90951 18.6875 8.125 18.6875C8.34049 18.6875 8.54715 18.6019 8.69952 18.4495C8.8519 18.2972 8.9375 18.0905 8.9375 17.875C8.9375 17.6595 8.8519 17.4529 8.69952 17.3005C8.54715 17.1481 8.34049 17.0625 8.125 17.0625ZM17.875 12.1875C18.0905 12.1875 18.2972 12.1019 18.4495 11.9495C18.6019 11.7972 18.6875 11.5905 18.6875 11.375C18.6875 11.1595 18.6019 10.9529 18.4495 10.8005C18.2972 10.6481 18.0905 10.5625 17.875 10.5625C17.6595 10.5625 17.4528 10.6481 17.3005 10.8005C17.1481 10.9529 17.0625 11.1595 17.0625 11.375C17.0625 11.5905 17.1481 11.7972 17.3005 11.9495C17.4528 12.1019 17.6595 12.1875 17.875 12.1875Z" fill="#A8AEBC"/>
</svg>
