<svg width="26" height="26" viewBox="0 0 26 26" fill="none" xmlns="http://www.w3.org/2000/svg">
<path fill-rule="evenodd" clip-rule="evenodd" d="M13.5 1C12.465 1 10.7355 1.3975 9.108 1.84C7.443 2.29 5.76451 2.8225 4.77751 3.145C4.36484 3.28128 3.99899 3.5312 3.72198 3.86605C3.44497 4.20091 3.26804 4.60711 3.21151 5.038C2.31751 11.7535 4.39201 16.7305 6.909 20.023C7.97638 21.4314 9.24905 22.6717 10.6845 23.7025C11.2635 24.112 11.8005 24.4255 12.2565 24.64C12.6765 24.838 13.128 25 13.5 25C13.872 25 14.322 24.838 14.7435 24.64C15.2932 24.3728 15.8191 24.0592 16.3155 23.7025C17.751 22.6718 19.0237 21.4315 20.091 20.023C22.608 16.7305 24.6825 11.7535 23.7885 5.038C23.7321 4.6069 23.5552 4.20046 23.2782 3.86535C23.0012 3.53024 22.6353 3.28004 22.2225 3.1435C20.7897 2.67372 19.3458 2.23859 17.892 1.8385C16.2645 1.399 14.535 1 13.5 1ZM13.5 8.5C14.0314 8.49921 14.5459 8.6865 14.9524 9.02869C15.3589 9.37089 15.6311 9.84591 15.721 10.3696C15.8108 10.8933 15.7124 11.4319 15.4431 11.89C15.1739 12.3481 14.7512 12.6962 14.25 12.8725L14.8275 15.8575C14.8485 15.9661 14.8453 16.0779 14.818 16.1851C14.7907 16.2923 14.74 16.3921 14.6696 16.4774C14.5992 16.5627 14.5109 16.6313 14.4108 16.6785C14.3108 16.7256 14.2016 16.75 14.091 16.75H12.909C12.7985 16.7498 12.6895 16.7252 12.5896 16.678C12.4898 16.6307 12.4016 16.562 12.3314 16.4768C12.2612 16.3915 12.2107 16.2918 12.1834 16.1847C12.1562 16.0777 12.153 15.9659 12.174 15.8575L12.75 12.8725C12.2488 12.6962 11.8261 12.3481 11.5569 11.89C11.2876 11.4319 11.1892 10.8933 11.279 10.3696C11.3689 9.84591 11.6411 9.37089 12.0476 9.02869C12.4542 8.6865 12.9686 8.49921 13.5 8.5Z" fill="#A8AEBC"/>
</svg>
